G04 #@! TF.GenerationSoftware,KiCad,Pcbnew,(5.1.2-1)-1*
G04 #@! TF.CreationDate,2019-05-17T19:40:02+01:00*
G04 #@! TF.ProjectId,SRAM Board,5352414d-2042-46f6-9172-642e6b696361,rev?*
G04 #@! TF.SameCoordinates,Original*
G04 #@! TF.FileFunction,Legend,Top*
G04 #@! TF.FilePolarity,Positive*
%FSLAX46Y46*%
G04 Gerber Fmt 4.6, Leading zero omitted, Abs format (unit mm)*
G04 Created by KiCad (PCBNEW (5.1.2-1)-1) date 2019-05-17 19:40:02*
%MOMM*%
%LPD*%
G04 APERTURE LIST*
%ADD10C,0.150000*%
%ADD11C,0.120000*%
G04 APERTURE END LIST*
D10*
X201374508Y-51207142D02*
X201487008Y-50307142D01*
X201433437Y-50735714D02*
X201947723Y-50735714D01*
X201888794Y-51207142D02*
X202001294Y-50307142D01*
X202665580Y-51164285D02*
X202574508Y-51207142D01*
X202403080Y-51207142D01*
X202322723Y-51164285D01*
X202290580Y-51078571D01*
X202333437Y-50735714D01*
X202387008Y-50650000D01*
X202478080Y-50607142D01*
X202649508Y-50607142D01*
X202729866Y-50650000D01*
X202762008Y-50735714D01*
X202751294Y-50821428D01*
X202312008Y-50907142D01*
X203217366Y-51207142D02*
X203137008Y-51164285D01*
X203104866Y-51078571D01*
X203201294Y-50307142D01*
X203688794Y-51207142D02*
X203608437Y-51164285D01*
X203576294Y-51078571D01*
X203672723Y-50307142D01*
X204160223Y-51207142D02*
X204079866Y-51164285D01*
X204042366Y-51121428D01*
X204010223Y-51035714D01*
X204042366Y-50778571D01*
X204095937Y-50692857D01*
X204144151Y-50650000D01*
X204235223Y-50607142D01*
X204363794Y-50607142D01*
X204444151Y-50650000D01*
X204481651Y-50692857D01*
X204513794Y-50778571D01*
X204481651Y-51035714D01*
X204428080Y-51121428D01*
X204379866Y-51164285D01*
X204288794Y-51207142D01*
X204160223Y-51207142D01*
X206056651Y-51121428D02*
X206008437Y-51164285D01*
X205874508Y-51207142D01*
X205788794Y-51207142D01*
X205665580Y-51164285D01*
X205590580Y-51078571D01*
X205558437Y-50992857D01*
X205537008Y-50821428D01*
X205553080Y-50692857D01*
X205617366Y-50521428D01*
X205670937Y-50435714D01*
X205767366Y-50350000D01*
X205901294Y-50307142D01*
X205987008Y-50307142D01*
X206110223Y-50350000D01*
X206147723Y-50392857D01*
X206817366Y-51207142D02*
X206876294Y-50735714D01*
X206844151Y-50650000D01*
X206763794Y-50607142D01*
X206592366Y-50607142D01*
X206501294Y-50650000D01*
X206822723Y-51164285D02*
X206731651Y-51207142D01*
X206517366Y-51207142D01*
X206437008Y-51164285D01*
X206404866Y-51078571D01*
X206415580Y-50992857D01*
X206469151Y-50907142D01*
X206560223Y-50864285D01*
X206774508Y-50864285D01*
X206865580Y-50821428D01*
X207235223Y-50607142D02*
X207374508Y-51207142D01*
X207663794Y-50607142D01*
X208279866Y-51164285D02*
X208188794Y-51207142D01*
X208017366Y-51207142D01*
X207937008Y-51164285D01*
X207904866Y-51078571D01*
X207947723Y-50735714D01*
X208001294Y-50650000D01*
X208092366Y-50607142D01*
X208263794Y-50607142D01*
X208344151Y-50650000D01*
X208376294Y-50735714D01*
X208365580Y-50821428D01*
X207926294Y-50907142D01*
X209388794Y-51207142D02*
X209501294Y-50307142D01*
X209715580Y-50307142D01*
X209838794Y-50350000D01*
X209913794Y-50435714D01*
X209945937Y-50521428D01*
X209967366Y-50692857D01*
X209951294Y-50821428D01*
X209887008Y-50992857D01*
X209833437Y-51078571D01*
X209737008Y-51164285D01*
X209603080Y-51207142D01*
X209388794Y-51207142D01*
X210278080Y-50607142D02*
X210374508Y-51207142D01*
X210599508Y-50778571D01*
X210717366Y-51207142D01*
X210963794Y-50607142D01*
X211579866Y-51164285D02*
X211488794Y-51207142D01*
X211317366Y-51207142D01*
X211237008Y-51164285D01*
X211204866Y-51078571D01*
X211247723Y-50735714D01*
X211301294Y-50650000D01*
X211392366Y-50607142D01*
X211563794Y-50607142D01*
X211644151Y-50650000D01*
X211676294Y-50735714D01*
X211665580Y-50821428D01*
X211226294Y-50907142D01*
X212131651Y-51207142D02*
X212051294Y-51164285D01*
X212019151Y-51078571D01*
X212115580Y-50307142D01*
X212603080Y-51207142D02*
X212522723Y-51164285D01*
X212490580Y-51078571D01*
X212587008Y-50307142D01*
X213294151Y-51164285D02*
X213203080Y-51207142D01*
X213031651Y-51207142D01*
X212951294Y-51164285D01*
X212919151Y-51078571D01*
X212962008Y-50735714D01*
X213015580Y-50650000D01*
X213106651Y-50607142D01*
X213278080Y-50607142D01*
X213358437Y-50650000D01*
X213390580Y-50735714D01*
X213379866Y-50821428D01*
X212940580Y-50907142D01*
X213717366Y-51207142D02*
X213792366Y-50607142D01*
X213770937Y-50778571D02*
X213824508Y-50692857D01*
X213872723Y-50650000D01*
X213963794Y-50607142D01*
X214049508Y-50607142D01*
X214237008Y-51164285D02*
X214317366Y-51207142D01*
X214488794Y-51207142D01*
X214579866Y-51164285D01*
X214633437Y-51078571D01*
X214638794Y-51035714D01*
X214606651Y-50950000D01*
X214526294Y-50907142D01*
X214397723Y-50907142D01*
X214317366Y-50864285D01*
X214285223Y-50778571D01*
X214290580Y-50735714D01*
X214344151Y-50650000D01*
X214435223Y-50607142D01*
X214563794Y-50607142D01*
X214644151Y-50650000D01*
X215013794Y-51121428D02*
X215051294Y-51164285D01*
X215003080Y-51207142D01*
X214965580Y-51164285D01*
X215013794Y-51121428D01*
X215003080Y-51207142D01*
X215045937Y-50864285D02*
X215067366Y-50350000D01*
X215115580Y-50307142D01*
X215153080Y-50350000D01*
X215045937Y-50864285D01*
X215115580Y-50307142D01*
X245860000Y-91411205D02*
X245817142Y-91448705D01*
X245688571Y-91518348D01*
X245602857Y-91550491D01*
X245474285Y-91577276D01*
X245260000Y-91593348D01*
X245088571Y-91571919D01*
X244874285Y-91502276D01*
X244745714Y-91443348D01*
X244660000Y-91389776D01*
X244531428Y-91287991D01*
X244488571Y-91239776D01*
X245431428Y-90500491D02*
X245474285Y-90548705D01*
X245517142Y-90682633D01*
X245517142Y-90768348D01*
X245474285Y-90891562D01*
X245388571Y-90966562D01*
X245302857Y-90998705D01*
X245131428Y-91020133D01*
X245002857Y-91004062D01*
X244831428Y-90939776D01*
X244745714Y-90886205D01*
X244660000Y-90789776D01*
X244617142Y-90655848D01*
X244617142Y-90570133D01*
X244660000Y-90446919D01*
X244702857Y-90409419D01*
X245860000Y-90254062D02*
X245817142Y-90205848D01*
X245688571Y-90104062D01*
X245602857Y-90050491D01*
X245474285Y-89991562D01*
X245260000Y-89921919D01*
X245088571Y-89900491D01*
X244874285Y-89916562D01*
X244745714Y-89943348D01*
X244660000Y-89975491D01*
X244531428Y-90045133D01*
X244488571Y-90082633D01*
X244702857Y-88780848D02*
X244660000Y-88732633D01*
X244617142Y-88641562D01*
X244617142Y-88427276D01*
X244660000Y-88346919D01*
X244702857Y-88309419D01*
X244788571Y-88277276D01*
X244874285Y-88287991D01*
X245002857Y-88346919D01*
X245517142Y-88925491D01*
X245517142Y-88368348D01*
X244617142Y-87698705D02*
X244617142Y-87612991D01*
X244660000Y-87532633D01*
X244702857Y-87495133D01*
X244788571Y-87462991D01*
X244960000Y-87441562D01*
X245174285Y-87468348D01*
X245345714Y-87532633D01*
X245431428Y-87586205D01*
X245474285Y-87634419D01*
X245517142Y-87725491D01*
X245517142Y-87811205D01*
X245474285Y-87891562D01*
X245431428Y-87929062D01*
X245345714Y-87961205D01*
X245174285Y-87982633D01*
X244960000Y-87955848D01*
X244788571Y-87891562D01*
X244702857Y-87837991D01*
X244660000Y-87789776D01*
X244617142Y-87698705D01*
X245517142Y-86654062D02*
X245517142Y-87168348D01*
X245517142Y-86911205D02*
X244617142Y-86798705D01*
X244745714Y-86900491D01*
X244831428Y-86996919D01*
X244874285Y-87087991D01*
X245517142Y-86225491D02*
X245517142Y-86054062D01*
X245474285Y-85962991D01*
X245431428Y-85914776D01*
X245302857Y-85812991D01*
X245131428Y-85748705D01*
X244788571Y-85705848D01*
X244702857Y-85737991D01*
X244660000Y-85775491D01*
X244617142Y-85855848D01*
X244617142Y-86027276D01*
X244660000Y-86118348D01*
X244702857Y-86166562D01*
X244788571Y-86220133D01*
X245002857Y-86246919D01*
X245088571Y-86214776D01*
X245131428Y-86177276D01*
X245174285Y-86096919D01*
X245174285Y-85925491D01*
X245131428Y-85834419D01*
X245088571Y-85786205D01*
X245002857Y-85732633D01*
X245517142Y-84725491D02*
X244617142Y-84612991D01*
X245517142Y-84211205D02*
X245002857Y-84532633D01*
X244617142Y-84098705D02*
X245131428Y-84677276D01*
X245517142Y-83439776D02*
X245045714Y-83380848D01*
X244960000Y-83412991D01*
X244917142Y-83493348D01*
X244917142Y-83664776D01*
X244960000Y-83755848D01*
X245474285Y-83434419D02*
X245517142Y-83525491D01*
X245517142Y-83739776D01*
X245474285Y-83820133D01*
X245388571Y-83852276D01*
X245302857Y-83841562D01*
X245217142Y-83787991D01*
X245174285Y-83696919D01*
X245174285Y-83482633D01*
X245131428Y-83391562D01*
X245517142Y-83011205D02*
X244917142Y-82936205D01*
X244617142Y-82898705D02*
X244660000Y-82946919D01*
X244702857Y-82909419D01*
X244660000Y-82861205D01*
X244617142Y-82898705D01*
X244702857Y-82909419D01*
X245517142Y-81382633D02*
X245088571Y-81629062D01*
X245517142Y-81896919D02*
X244617142Y-81784419D01*
X244617142Y-81441562D01*
X244660000Y-81361205D01*
X244702857Y-81323705D01*
X244788571Y-81291562D01*
X244917142Y-81307633D01*
X245002857Y-81361205D01*
X245045714Y-81409419D01*
X245088571Y-81500491D01*
X245088571Y-81843348D01*
X245517142Y-80868348D02*
X245474285Y-80948705D01*
X245431428Y-80986205D01*
X245345714Y-81018348D01*
X245088571Y-80986205D01*
X245002857Y-80932633D01*
X244960000Y-80884419D01*
X244917142Y-80793348D01*
X244917142Y-80664776D01*
X244960000Y-80584419D01*
X245002857Y-80546919D01*
X245088571Y-80514776D01*
X245345714Y-80546919D01*
X245431428Y-80600491D01*
X245474285Y-80648705D01*
X245517142Y-80739776D01*
X245517142Y-80868348D01*
X245517142Y-80182633D02*
X244617142Y-80070133D01*
X244960000Y-80112991D02*
X244917142Y-80021919D01*
X244917142Y-79850491D01*
X244960000Y-79770133D01*
X245002857Y-79732633D01*
X245088571Y-79700491D01*
X245345714Y-79732633D01*
X245431428Y-79786205D01*
X245474285Y-79834419D01*
X245517142Y-79925491D01*
X245517142Y-80096919D01*
X245474285Y-80177276D01*
X245517142Y-79368348D02*
X244917142Y-79293348D01*
X244617142Y-79255848D02*
X244660000Y-79304062D01*
X244702857Y-79266562D01*
X244660000Y-79218348D01*
X244617142Y-79255848D01*
X244702857Y-79266562D01*
X244917142Y-78864776D02*
X245517142Y-78939776D01*
X245002857Y-78875491D02*
X244960000Y-78827276D01*
X244917142Y-78736205D01*
X244917142Y-78607633D01*
X244960000Y-78527276D01*
X245045714Y-78495133D01*
X245517142Y-78554062D01*
X245474285Y-78162991D02*
X245517142Y-78082633D01*
X245517142Y-77911205D01*
X245474285Y-77820133D01*
X245388571Y-77766562D01*
X245345714Y-77761205D01*
X245260000Y-77793348D01*
X245217142Y-77873705D01*
X245217142Y-78002276D01*
X245174285Y-78082633D01*
X245088571Y-78114776D01*
X245045714Y-78109419D01*
X244960000Y-78055848D01*
X244917142Y-77964776D01*
X244917142Y-77836205D01*
X244960000Y-77755848D01*
X245517142Y-77268348D02*
X245474285Y-77348705D01*
X245431428Y-77386205D01*
X245345714Y-77418348D01*
X245088571Y-77386205D01*
X245002857Y-77332633D01*
X244960000Y-77284419D01*
X244917142Y-77193348D01*
X244917142Y-77064776D01*
X244960000Y-76984419D01*
X245002857Y-76946919D01*
X245088571Y-76914776D01*
X245345714Y-76946919D01*
X245431428Y-77000491D01*
X245474285Y-77048705D01*
X245517142Y-77139776D01*
X245517142Y-77268348D01*
X244917142Y-76507633D02*
X245517142Y-76582633D01*
X245002857Y-76518348D02*
X244960000Y-76470133D01*
X244917142Y-76379062D01*
X244917142Y-76250491D01*
X244960000Y-76170133D01*
X245045714Y-76137991D01*
X245517142Y-76196919D01*
X243612142Y-99374776D02*
X242712142Y-99262276D01*
X242712142Y-98919419D01*
X242755000Y-98839062D01*
X242797857Y-98801562D01*
X242883571Y-98769419D01*
X243012142Y-98785491D01*
X243097857Y-98839062D01*
X243140714Y-98887276D01*
X243183571Y-98978348D01*
X243183571Y-99321205D01*
X243012142Y-98014062D02*
X243612142Y-98089062D01*
X243012142Y-98399776D02*
X243483571Y-98458705D01*
X243569285Y-98426562D01*
X243612142Y-98346205D01*
X243612142Y-98217633D01*
X243569285Y-98126562D01*
X243526428Y-98078348D01*
X243612142Y-97660491D02*
X242712142Y-97547991D01*
X243055000Y-97590848D02*
X243012142Y-97499776D01*
X243012142Y-97328348D01*
X243055000Y-97247991D01*
X243097857Y-97210491D01*
X243183571Y-97178348D01*
X243440714Y-97210491D01*
X243526428Y-97264062D01*
X243569285Y-97312276D01*
X243612142Y-97403348D01*
X243612142Y-97574776D01*
X243569285Y-97655133D01*
X243612142Y-96717633D02*
X243569285Y-96797991D01*
X243483571Y-96830133D01*
X242712142Y-96733705D01*
X243612142Y-96374776D02*
X243012142Y-96299776D01*
X242712142Y-96262276D02*
X242755000Y-96310491D01*
X242797857Y-96272991D01*
X242755000Y-96224776D01*
X242712142Y-96262276D01*
X242797857Y-96272991D01*
X243569285Y-95983705D02*
X243612142Y-95903348D01*
X243612142Y-95731919D01*
X243569285Y-95640848D01*
X243483571Y-95587276D01*
X243440714Y-95581919D01*
X243355000Y-95614062D01*
X243312142Y-95694419D01*
X243312142Y-95822991D01*
X243269285Y-95903348D01*
X243183571Y-95935491D01*
X243140714Y-95930133D01*
X243055000Y-95876562D01*
X243012142Y-95785491D01*
X243012142Y-95656919D01*
X243055000Y-95576562D01*
X243612142Y-95217633D02*
X242712142Y-95105133D01*
X243612142Y-94831919D02*
X243140714Y-94772991D01*
X243055000Y-94805133D01*
X243012142Y-94885491D01*
X243012142Y-95014062D01*
X243055000Y-95105133D01*
X243097857Y-95153348D01*
X243569285Y-94055133D02*
X243612142Y-94146205D01*
X243612142Y-94317633D01*
X243569285Y-94397991D01*
X243483571Y-94430133D01*
X243140714Y-94387276D01*
X243055000Y-94333705D01*
X243012142Y-94242633D01*
X243012142Y-94071205D01*
X243055000Y-93990848D01*
X243140714Y-93958705D01*
X243226428Y-93969419D01*
X243312142Y-94408705D01*
X243612142Y-93246205D02*
X242712142Y-93133705D01*
X243569285Y-93240848D02*
X243612142Y-93331919D01*
X243612142Y-93503348D01*
X243569285Y-93583705D01*
X243526428Y-93621205D01*
X243440714Y-93653348D01*
X243183571Y-93621205D01*
X243097857Y-93567633D01*
X243055000Y-93519419D01*
X243012142Y-93428348D01*
X243012142Y-93256919D01*
X243055000Y-93176562D01*
X243012142Y-91671205D02*
X243612142Y-91746205D01*
X243012142Y-92056919D02*
X243483571Y-92115848D01*
X243569285Y-92083705D01*
X243612142Y-92003348D01*
X243612142Y-91874776D01*
X243569285Y-91783705D01*
X243526428Y-91735491D01*
X243012142Y-91242633D02*
X243612142Y-91317633D01*
X243097857Y-91253348D02*
X243055000Y-91205133D01*
X243012142Y-91114062D01*
X243012142Y-90985491D01*
X243055000Y-90905133D01*
X243140714Y-90872991D01*
X243612142Y-90931919D01*
X243612142Y-90117633D02*
X242712142Y-90005133D01*
X243569285Y-90112276D02*
X243612142Y-90203348D01*
X243612142Y-90374776D01*
X243569285Y-90455133D01*
X243526428Y-90492633D01*
X243440714Y-90524776D01*
X243183571Y-90492633D01*
X243097857Y-90439062D01*
X243055000Y-90390848D01*
X243012142Y-90299776D01*
X243012142Y-90128348D01*
X243055000Y-90047991D01*
X243569285Y-89340848D02*
X243612142Y-89431919D01*
X243612142Y-89603348D01*
X243569285Y-89683705D01*
X243483571Y-89715848D01*
X243140714Y-89672991D01*
X243055000Y-89619419D01*
X243012142Y-89528348D01*
X243012142Y-89356919D01*
X243055000Y-89276562D01*
X243140714Y-89244419D01*
X243226428Y-89255133D01*
X243312142Y-89694419D01*
X243612142Y-88917633D02*
X243012142Y-88842633D01*
X243183571Y-88864062D02*
X243097857Y-88810491D01*
X243055000Y-88762276D01*
X243012142Y-88671205D01*
X243012142Y-88585491D01*
X243012142Y-87728348D02*
X243012142Y-87385491D01*
X242712142Y-87562276D02*
X243483571Y-87658705D01*
X243569285Y-87626562D01*
X243612142Y-87546205D01*
X243612142Y-87460491D01*
X243612142Y-87160491D02*
X242712142Y-87047991D01*
X243612142Y-86774776D02*
X243140714Y-86715848D01*
X243055000Y-86747991D01*
X243012142Y-86828348D01*
X243012142Y-86956919D01*
X243055000Y-87047991D01*
X243097857Y-87096205D01*
X243569285Y-85997991D02*
X243612142Y-86089062D01*
X243612142Y-86260491D01*
X243569285Y-86340848D01*
X243483571Y-86372991D01*
X243140714Y-86330133D01*
X243055000Y-86276562D01*
X243012142Y-86185491D01*
X243012142Y-86014062D01*
X243055000Y-85933705D01*
X243140714Y-85901562D01*
X243226428Y-85912276D01*
X243312142Y-86351562D01*
X242755000Y-84310491D02*
X242712142Y-84390848D01*
X242712142Y-84519419D01*
X242755000Y-84653348D01*
X242840714Y-84749776D01*
X242926428Y-84803348D01*
X243097857Y-84867633D01*
X243226428Y-84883705D01*
X243397857Y-84862276D01*
X243483571Y-84830133D01*
X243569285Y-84755133D01*
X243612142Y-84631919D01*
X243612142Y-84546205D01*
X243569285Y-84412276D01*
X243526428Y-84364062D01*
X243226428Y-84326562D01*
X243226428Y-84497991D01*
X243612142Y-83989062D02*
X242712142Y-83876562D01*
X243612142Y-83474776D01*
X242712142Y-83362276D01*
X242712142Y-82933705D02*
X243440714Y-83024776D01*
X243526428Y-82992633D01*
X243569285Y-82955133D01*
X243612142Y-82874776D01*
X243612142Y-82703348D01*
X243569285Y-82612276D01*
X243526428Y-82564062D01*
X243440714Y-82510491D01*
X242712142Y-82419419D01*
X243612142Y-81417633D02*
X242712142Y-81305133D01*
X242712142Y-80962276D01*
X242755000Y-80881919D01*
X242797857Y-80844419D01*
X242883571Y-80812276D01*
X243012142Y-80828348D01*
X243097857Y-80881919D01*
X243140714Y-80930133D01*
X243183571Y-81021205D01*
X243183571Y-81364062D01*
X243012142Y-80056919D02*
X243612142Y-80131919D01*
X243012142Y-80442633D02*
X243483571Y-80501562D01*
X243569285Y-80469419D01*
X243612142Y-80389062D01*
X243612142Y-80260491D01*
X243569285Y-80169419D01*
X243526428Y-80121205D01*
X243612142Y-79703348D02*
X242712142Y-79590848D01*
X243055000Y-79633705D02*
X243012142Y-79542633D01*
X243012142Y-79371205D01*
X243055000Y-79290848D01*
X243097857Y-79253348D01*
X243183571Y-79221205D01*
X243440714Y-79253348D01*
X243526428Y-79306919D01*
X243569285Y-79355133D01*
X243612142Y-79446205D01*
X243612142Y-79617633D01*
X243569285Y-79697991D01*
X243612142Y-78760491D02*
X243569285Y-78840848D01*
X243483571Y-78872991D01*
X242712142Y-78776562D01*
X243612142Y-78417633D02*
X243012142Y-78342633D01*
X242712142Y-78305133D02*
X242755000Y-78353348D01*
X242797857Y-78315848D01*
X242755000Y-78267633D01*
X242712142Y-78305133D01*
X242797857Y-78315848D01*
X243569285Y-77597991D02*
X243612142Y-77689062D01*
X243612142Y-77860491D01*
X243569285Y-77940848D01*
X243526428Y-77978348D01*
X243440714Y-78010491D01*
X243183571Y-77978348D01*
X243097857Y-77924776D01*
X243055000Y-77876562D01*
X243012142Y-77785491D01*
X243012142Y-77614062D01*
X243055000Y-77533705D01*
X243612142Y-76103348D02*
X243612142Y-76531919D01*
X242712142Y-76419419D01*
X243612142Y-75803348D02*
X243012142Y-75728348D01*
X242712142Y-75690848D02*
X242755000Y-75739062D01*
X242797857Y-75701562D01*
X242755000Y-75653348D01*
X242712142Y-75690848D01*
X242797857Y-75701562D01*
X243569285Y-74983705D02*
X243612142Y-75074776D01*
X243612142Y-75246205D01*
X243569285Y-75326562D01*
X243526428Y-75364062D01*
X243440714Y-75396205D01*
X243183571Y-75364062D01*
X243097857Y-75310491D01*
X243055000Y-75262276D01*
X243012142Y-75171205D01*
X243012142Y-74999776D01*
X243055000Y-74919419D01*
X243569285Y-74255133D02*
X243612142Y-74346205D01*
X243612142Y-74517633D01*
X243569285Y-74597991D01*
X243483571Y-74630133D01*
X243140714Y-74587276D01*
X243055000Y-74533705D01*
X243012142Y-74442633D01*
X243012142Y-74271205D01*
X243055000Y-74190848D01*
X243140714Y-74158705D01*
X243226428Y-74169419D01*
X243312142Y-74608705D01*
X243012142Y-73756919D02*
X243612142Y-73831919D01*
X243097857Y-73767633D02*
X243055000Y-73719419D01*
X243012142Y-73628348D01*
X243012142Y-73499776D01*
X243055000Y-73419419D01*
X243140714Y-73387276D01*
X243612142Y-73446205D01*
X243569285Y-73055133D02*
X243612142Y-72974776D01*
X243612142Y-72803348D01*
X243569285Y-72712276D01*
X243483571Y-72658705D01*
X243440714Y-72653348D01*
X243355000Y-72685491D01*
X243312142Y-72765848D01*
X243312142Y-72894419D01*
X243269285Y-72974776D01*
X243183571Y-73006919D01*
X243140714Y-73001562D01*
X243055000Y-72947991D01*
X243012142Y-72856919D01*
X243012142Y-72728348D01*
X243055000Y-72647991D01*
X243569285Y-71940848D02*
X243612142Y-72031919D01*
X243612142Y-72203348D01*
X243569285Y-72283705D01*
X243483571Y-72315848D01*
X243140714Y-72272991D01*
X243055000Y-72219419D01*
X243012142Y-72128348D01*
X243012142Y-71956919D01*
X243055000Y-71876562D01*
X243140714Y-71844419D01*
X243226428Y-71855133D01*
X243312142Y-72294419D01*
X243012142Y-70842633D02*
X243612142Y-70703348D01*
X243012142Y-70414062D01*
X242797857Y-70087276D02*
X242755000Y-70039062D01*
X242712142Y-69947991D01*
X242712142Y-69733705D01*
X242755000Y-69653348D01*
X242797857Y-69615848D01*
X242883571Y-69583705D01*
X242969285Y-69594419D01*
X243097857Y-69653348D01*
X243612142Y-70231919D01*
X243612142Y-69674776D01*
X241450000Y-99036919D02*
X241450000Y-98608348D01*
X241707142Y-99154776D02*
X240807142Y-98742276D01*
X241707142Y-98554776D01*
X241707142Y-98254776D02*
X241107142Y-98179776D01*
X241192857Y-98190491D02*
X241150000Y-98142276D01*
X241107142Y-98051205D01*
X241107142Y-97922633D01*
X241150000Y-97842276D01*
X241235714Y-97810133D01*
X241707142Y-97869062D01*
X241235714Y-97810133D02*
X241150000Y-97756562D01*
X241107142Y-97665491D01*
X241107142Y-97536919D01*
X241150000Y-97456562D01*
X241235714Y-97424419D01*
X241707142Y-97483348D01*
X241707142Y-97054776D02*
X241107142Y-96979776D01*
X240807142Y-96942276D02*
X240850000Y-96990491D01*
X240892857Y-96952991D01*
X240850000Y-96904776D01*
X240807142Y-96942276D01*
X240892857Y-96952991D01*
X241107142Y-96165491D02*
X241835714Y-96256562D01*
X241921428Y-96310133D01*
X241964285Y-96358348D01*
X242007142Y-96449419D01*
X242007142Y-96577991D01*
X241964285Y-96658348D01*
X241664285Y-96235133D02*
X241707142Y-96326205D01*
X241707142Y-96497633D01*
X241664285Y-96577991D01*
X241621428Y-96615491D01*
X241535714Y-96647633D01*
X241278571Y-96615491D01*
X241192857Y-96561919D01*
X241150000Y-96513705D01*
X241107142Y-96422633D01*
X241107142Y-96251205D01*
X241150000Y-96170848D01*
X241707142Y-95426205D02*
X241235714Y-95367276D01*
X241150000Y-95399419D01*
X241107142Y-95479776D01*
X241107142Y-95651205D01*
X241150000Y-95742276D01*
X241664285Y-95420848D02*
X241707142Y-95511919D01*
X241707142Y-95726205D01*
X241664285Y-95806562D01*
X241578571Y-95838705D01*
X241492857Y-95827991D01*
X241407142Y-95774419D01*
X241364285Y-95683348D01*
X241364285Y-95469062D01*
X241321428Y-95377991D01*
X240807142Y-93770848D02*
X240807142Y-94199419D01*
X241235714Y-94295848D01*
X241192857Y-94247633D01*
X241150000Y-94156562D01*
X241150000Y-93942276D01*
X241192857Y-93861919D01*
X241235714Y-93824419D01*
X241321428Y-93792276D01*
X241535714Y-93819062D01*
X241621428Y-93872633D01*
X241664285Y-93920848D01*
X241707142Y-94011919D01*
X241707142Y-94226205D01*
X241664285Y-94306562D01*
X241621428Y-94344062D01*
X240807142Y-93170848D02*
X240807142Y-93085133D01*
X240850000Y-93004776D01*
X240892857Y-92967276D01*
X240978571Y-92935133D01*
X241150000Y-92913705D01*
X241364285Y-92940491D01*
X241535714Y-93004776D01*
X241621428Y-93058348D01*
X241664285Y-93106562D01*
X241707142Y-93197633D01*
X241707142Y-93283348D01*
X241664285Y-93363705D01*
X241621428Y-93401205D01*
X241535714Y-93433348D01*
X241364285Y-93454776D01*
X241150000Y-93427991D01*
X240978571Y-93363705D01*
X240892857Y-93310133D01*
X240850000Y-93261919D01*
X240807142Y-93170848D01*
X240807142Y-92313705D02*
X240807142Y-92227991D01*
X240850000Y-92147633D01*
X240892857Y-92110133D01*
X240978571Y-92077991D01*
X241150000Y-92056562D01*
X241364285Y-92083348D01*
X241535714Y-92147633D01*
X241621428Y-92201205D01*
X241664285Y-92249419D01*
X241707142Y-92340491D01*
X241707142Y-92426205D01*
X241664285Y-92506562D01*
X241621428Y-92544062D01*
X241535714Y-92576205D01*
X241364285Y-92597633D01*
X241150000Y-92570848D01*
X240978571Y-92506562D01*
X240892857Y-92452991D01*
X240850000Y-92404776D01*
X240807142Y-92313705D01*
X241621428Y-90529776D02*
X241664285Y-90577991D01*
X241707142Y-90711919D01*
X241707142Y-90797633D01*
X241664285Y-90920848D01*
X241578571Y-90995848D01*
X241492857Y-91027991D01*
X241321428Y-91049419D01*
X241192857Y-91033348D01*
X241021428Y-90969062D01*
X240935714Y-90915491D01*
X240850000Y-90819062D01*
X240807142Y-90685133D01*
X240807142Y-90599419D01*
X240850000Y-90476205D01*
X240892857Y-90438705D01*
X241707142Y-90154776D02*
X240807142Y-90042276D01*
X241235714Y-90095848D02*
X241235714Y-89581562D01*
X241707142Y-89640491D02*
X240807142Y-89527991D01*
X241707142Y-89211919D02*
X240807142Y-89099419D01*
X241707142Y-88783348D02*
X240807142Y-88670848D01*
X240807142Y-88327991D01*
X240850000Y-88247633D01*
X240892857Y-88210133D01*
X240978571Y-88177991D01*
X241107142Y-88194062D01*
X241192857Y-88247633D01*
X241235714Y-88295848D01*
X241278571Y-88386919D01*
X241278571Y-88729776D01*
X241707142Y-86683348D02*
X241278571Y-86929776D01*
X241707142Y-87197633D02*
X240807142Y-87085133D01*
X240807142Y-86742276D01*
X240850000Y-86661919D01*
X240892857Y-86624419D01*
X240978571Y-86592276D01*
X241107142Y-86608348D01*
X241192857Y-86661919D01*
X241235714Y-86710133D01*
X241278571Y-86801205D01*
X241278571Y-87144062D01*
X241450000Y-86308348D02*
X241450000Y-85879776D01*
X241707142Y-86426205D02*
X240807142Y-86013705D01*
X241707142Y-85826205D01*
X241707142Y-85526205D02*
X240807142Y-85413705D01*
X241450000Y-85194062D01*
X240807142Y-84813705D01*
X241707142Y-84926205D01*
X241707142Y-83297633D02*
X241278571Y-83544062D01*
X241707142Y-83811919D02*
X240807142Y-83699419D01*
X240807142Y-83356562D01*
X240850000Y-83276205D01*
X240892857Y-83238705D01*
X240978571Y-83206562D01*
X241107142Y-83222633D01*
X241192857Y-83276205D01*
X241235714Y-83324419D01*
X241278571Y-83415491D01*
X241278571Y-83758348D01*
X241664285Y-82563705D02*
X241707142Y-82654776D01*
X241707142Y-82826205D01*
X241664285Y-82906562D01*
X241578571Y-82938705D01*
X241235714Y-82895848D01*
X241150000Y-82842276D01*
X241107142Y-82751205D01*
X241107142Y-82579776D01*
X241150000Y-82499419D01*
X241235714Y-82467276D01*
X241321428Y-82477991D01*
X241407142Y-82917276D01*
X241107142Y-82065491D02*
X242007142Y-82177991D01*
X241150000Y-82070848D02*
X241107142Y-81979776D01*
X241107142Y-81808348D01*
X241150000Y-81727991D01*
X241192857Y-81690491D01*
X241278571Y-81658348D01*
X241535714Y-81690491D01*
X241621428Y-81744062D01*
X241664285Y-81792276D01*
X241707142Y-81883348D01*
X241707142Y-82054776D01*
X241664285Y-82135133D01*
X241707142Y-81197633D02*
X241664285Y-81277991D01*
X241578571Y-81310133D01*
X240807142Y-81213705D01*
X241707142Y-80469062D02*
X241235714Y-80410133D01*
X241150000Y-80442276D01*
X241107142Y-80522633D01*
X241107142Y-80694062D01*
X241150000Y-80785133D01*
X241664285Y-80463705D02*
X241707142Y-80554776D01*
X241707142Y-80769062D01*
X241664285Y-80849419D01*
X241578571Y-80881562D01*
X241492857Y-80870848D01*
X241407142Y-80817276D01*
X241364285Y-80726205D01*
X241364285Y-80511919D01*
X241321428Y-80420848D01*
X241664285Y-79649419D02*
X241707142Y-79740491D01*
X241707142Y-79911919D01*
X241664285Y-79992276D01*
X241621428Y-80029776D01*
X241535714Y-80061919D01*
X241278571Y-80029776D01*
X241192857Y-79976205D01*
X241150000Y-79927991D01*
X241107142Y-79836919D01*
X241107142Y-79665491D01*
X241150000Y-79585133D01*
X241664285Y-78920848D02*
X241707142Y-79011919D01*
X241707142Y-79183348D01*
X241664285Y-79263705D01*
X241578571Y-79295848D01*
X241235714Y-79252991D01*
X241150000Y-79199419D01*
X241107142Y-79108348D01*
X241107142Y-78936919D01*
X241150000Y-78856562D01*
X241235714Y-78824419D01*
X241321428Y-78835133D01*
X241407142Y-79274419D01*
X241707142Y-78497633D02*
X241107142Y-78422633D01*
X241192857Y-78433348D02*
X241150000Y-78385133D01*
X241107142Y-78294062D01*
X241107142Y-78165491D01*
X241150000Y-78085133D01*
X241235714Y-78052991D01*
X241707142Y-78111919D01*
X241235714Y-78052991D02*
X241150000Y-77999419D01*
X241107142Y-77908348D01*
X241107142Y-77779776D01*
X241150000Y-77699419D01*
X241235714Y-77667276D01*
X241707142Y-77726205D01*
X241664285Y-76949419D02*
X241707142Y-77040491D01*
X241707142Y-77211919D01*
X241664285Y-77292276D01*
X241578571Y-77324419D01*
X241235714Y-77281562D01*
X241150000Y-77227991D01*
X241107142Y-77136919D01*
X241107142Y-76965491D01*
X241150000Y-76885133D01*
X241235714Y-76852991D01*
X241321428Y-76863705D01*
X241407142Y-77302991D01*
X241107142Y-76451205D02*
X241707142Y-76526205D01*
X241192857Y-76461919D02*
X241150000Y-76413705D01*
X241107142Y-76322633D01*
X241107142Y-76194062D01*
X241150000Y-76113705D01*
X241235714Y-76081562D01*
X241707142Y-76140491D01*
X241107142Y-75765491D02*
X241107142Y-75422633D01*
X240807142Y-75599419D02*
X241578571Y-75695848D01*
X241664285Y-75663705D01*
X241707142Y-75583348D01*
X241707142Y-75497633D01*
X241235714Y-74152991D02*
X241278571Y-74029776D01*
X241321428Y-73992276D01*
X241407142Y-73960133D01*
X241535714Y-73976205D01*
X241621428Y-74029776D01*
X241664285Y-74077991D01*
X241707142Y-74169062D01*
X241707142Y-74511919D01*
X240807142Y-74399419D01*
X240807142Y-74099419D01*
X240850000Y-74019062D01*
X240892857Y-73981562D01*
X240978571Y-73949419D01*
X241064285Y-73960133D01*
X241150000Y-74013705D01*
X241192857Y-74061919D01*
X241235714Y-74152991D01*
X241235714Y-74452991D01*
X241707142Y-73483348D02*
X241664285Y-73563705D01*
X241621428Y-73601205D01*
X241535714Y-73633348D01*
X241278571Y-73601205D01*
X241192857Y-73547633D01*
X241150000Y-73499419D01*
X241107142Y-73408348D01*
X241107142Y-73279776D01*
X241150000Y-73199419D01*
X241192857Y-73161919D01*
X241278571Y-73129776D01*
X241535714Y-73161919D01*
X241621428Y-73215491D01*
X241664285Y-73263705D01*
X241707142Y-73354776D01*
X241707142Y-73483348D01*
X241707142Y-72411919D02*
X241235714Y-72352991D01*
X241150000Y-72385133D01*
X241107142Y-72465491D01*
X241107142Y-72636919D01*
X241150000Y-72727991D01*
X241664285Y-72406562D02*
X241707142Y-72497633D01*
X241707142Y-72711919D01*
X241664285Y-72792276D01*
X241578571Y-72824419D01*
X241492857Y-72813705D01*
X241407142Y-72760133D01*
X241364285Y-72669062D01*
X241364285Y-72454776D01*
X241321428Y-72363705D01*
X241707142Y-71983348D02*
X241107142Y-71908348D01*
X241278571Y-71929776D02*
X241192857Y-71876205D01*
X241150000Y-71827991D01*
X241107142Y-71736919D01*
X241107142Y-71651205D01*
X241707142Y-71040491D02*
X240807142Y-70927991D01*
X241664285Y-71035133D02*
X241707142Y-71126205D01*
X241707142Y-71297633D01*
X241664285Y-71377991D01*
X241621428Y-71415491D01*
X241535714Y-71447633D01*
X241278571Y-71415491D01*
X241192857Y-71361919D01*
X241150000Y-71313705D01*
X241107142Y-71222633D01*
X241107142Y-71051205D01*
X241150000Y-70970848D01*
X241107142Y-69936919D02*
X241707142Y-69797633D01*
X241107142Y-69508348D01*
X241707142Y-68769062D02*
X241707142Y-69283348D01*
X241707142Y-69026205D02*
X240807142Y-68913705D01*
X240935714Y-69015491D01*
X241021428Y-69111919D01*
X241064285Y-69202991D01*
X241621428Y-68372633D02*
X241664285Y-68335133D01*
X241707142Y-68383348D01*
X241664285Y-68420848D01*
X241621428Y-68372633D01*
X241707142Y-68383348D01*
X241707142Y-67483348D02*
X241707142Y-67997633D01*
X241707142Y-67740491D02*
X240807142Y-67627991D01*
X240935714Y-67729776D01*
X241021428Y-67826205D01*
X241064285Y-67917276D01*
D11*
X181685000Y-62280000D02*
X181685000Y-64095000D01*
X181420000Y-62280000D02*
X181685000Y-62280000D01*
X181420000Y-58420000D02*
X181420000Y-62280000D01*
X181420000Y-54560000D02*
X181685000Y-54560000D01*
X181420000Y-58420000D02*
X181420000Y-54560000D01*
X197040000Y-62280000D02*
X196775000Y-62280000D01*
X197040000Y-58420000D02*
X197040000Y-62280000D01*
X197040000Y-54560000D02*
X196775000Y-54560000D01*
X197040000Y-58420000D02*
X197040000Y-54560000D01*
X227898000Y-73032000D02*
X217618000Y-73032000D01*
X227898000Y-98672000D02*
X227898000Y-73032000D01*
X217618000Y-98672000D02*
X227898000Y-98672000D01*
X217618000Y-73032000D02*
X217618000Y-98672000D01*
X225408000Y-73092000D02*
X223758000Y-73092000D01*
X225408000Y-98612000D02*
X225408000Y-73092000D01*
X220108000Y-98612000D02*
X225408000Y-98612000D01*
X220108000Y-73092000D02*
X220108000Y-98612000D01*
X221758000Y-73092000D02*
X220108000Y-73092000D01*
X223758000Y-73092000D02*
G75*
G02X221758000Y-73092000I-1000000J0D01*
G01*
X202600000Y-73006600D02*
X192320000Y-73006600D01*
X202600000Y-98646600D02*
X202600000Y-73006600D01*
X192320000Y-98646600D02*
X202600000Y-98646600D01*
X192320000Y-73006600D02*
X192320000Y-98646600D01*
X200110000Y-73066600D02*
X198460000Y-73066600D01*
X200110000Y-98586600D02*
X200110000Y-73066600D01*
X194810000Y-98586600D02*
X200110000Y-98586600D01*
X194810000Y-73066600D02*
X194810000Y-98586600D01*
X196460000Y-73066600D02*
X194810000Y-73066600D01*
X198460000Y-73066600D02*
G75*
G02X196460000Y-73066600I-1000000J0D01*
G01*
X177352000Y-73083000D02*
X167072000Y-73083000D01*
X177352000Y-98723000D02*
X177352000Y-73083000D01*
X167072000Y-98723000D02*
X177352000Y-98723000D01*
X167072000Y-73083000D02*
X167072000Y-98723000D01*
X174862000Y-73143000D02*
X173212000Y-73143000D01*
X174862000Y-98663000D02*
X174862000Y-73143000D01*
X169562000Y-98663000D02*
X174862000Y-98663000D01*
X169562000Y-73143000D02*
X169562000Y-98663000D01*
X171212000Y-73143000D02*
X169562000Y-73143000D01*
X173212000Y-73143000D02*
G75*
G02X171212000Y-73143000I-1000000J0D01*
G01*
X151952000Y-73083000D02*
X141672000Y-73083000D01*
X151952000Y-98723000D02*
X151952000Y-73083000D01*
X141672000Y-98723000D02*
X151952000Y-98723000D01*
X141672000Y-73083000D02*
X141672000Y-98723000D01*
X149462000Y-73143000D02*
X147812000Y-73143000D01*
X149462000Y-98663000D02*
X149462000Y-73143000D01*
X144162000Y-98663000D02*
X149462000Y-98663000D01*
X144162000Y-73143000D02*
X144162000Y-98663000D01*
X145812000Y-73143000D02*
X144162000Y-73143000D01*
X147812000Y-73143000D02*
G75*
G02X145812000Y-73143000I-1000000J0D01*
G01*
X239328000Y-73032000D02*
X229048000Y-73032000D01*
X239328000Y-98672000D02*
X239328000Y-73032000D01*
X229048000Y-98672000D02*
X239328000Y-98672000D01*
X229048000Y-73032000D02*
X229048000Y-98672000D01*
X236838000Y-73092000D02*
X235188000Y-73092000D01*
X236838000Y-98612000D02*
X236838000Y-73092000D01*
X231538000Y-98612000D02*
X236838000Y-98612000D01*
X231538000Y-73092000D02*
X231538000Y-98612000D01*
X233188000Y-73092000D02*
X231538000Y-73092000D01*
X235188000Y-73092000D02*
G75*
G02X233188000Y-73092000I-1000000J0D01*
G01*
X214030000Y-73006600D02*
X203750000Y-73006600D01*
X214030000Y-98646600D02*
X214030000Y-73006600D01*
X203750000Y-98646600D02*
X214030000Y-98646600D01*
X203750000Y-73006600D02*
X203750000Y-98646600D01*
X211540000Y-73066600D02*
X209890000Y-73066600D01*
X211540000Y-98586600D02*
X211540000Y-73066600D01*
X206240000Y-98586600D02*
X211540000Y-98586600D01*
X206240000Y-73066600D02*
X206240000Y-98586600D01*
X207890000Y-73066600D02*
X206240000Y-73066600D01*
X209890000Y-73066600D02*
G75*
G02X207890000Y-73066600I-1000000J0D01*
G01*
X188782000Y-73083000D02*
X178502000Y-73083000D01*
X188782000Y-98723000D02*
X188782000Y-73083000D01*
X178502000Y-98723000D02*
X188782000Y-98723000D01*
X178502000Y-73083000D02*
X178502000Y-98723000D01*
X186292000Y-73143000D02*
X184642000Y-73143000D01*
X186292000Y-98663000D02*
X186292000Y-73143000D01*
X180992000Y-98663000D02*
X186292000Y-98663000D01*
X180992000Y-73143000D02*
X180992000Y-98663000D01*
X182642000Y-73143000D02*
X180992000Y-73143000D01*
X184642000Y-73143000D02*
G75*
G02X182642000Y-73143000I-1000000J0D01*
G01*
X163382000Y-73083000D02*
X153102000Y-73083000D01*
X163382000Y-98723000D02*
X163382000Y-73083000D01*
X153102000Y-98723000D02*
X163382000Y-98723000D01*
X153102000Y-73083000D02*
X153102000Y-98723000D01*
X160892000Y-73143000D02*
X159242000Y-73143000D01*
X160892000Y-98663000D02*
X160892000Y-73143000D01*
X155592000Y-98663000D02*
X160892000Y-98663000D01*
X155592000Y-73143000D02*
X155592000Y-98663000D01*
X157242000Y-73143000D02*
X155592000Y-73143000D01*
X159242000Y-73143000D02*
G75*
G02X157242000Y-73143000I-1000000J0D01*
G01*
X188627936Y-67670000D02*
X189832064Y-67670000D01*
X188627936Y-69490000D02*
X189832064Y-69490000D01*
X207677936Y-69490000D02*
X208882064Y-69490000D01*
X207677936Y-67670000D02*
X208882064Y-67670000D01*
X222917936Y-67670000D02*
X224122064Y-67670000D01*
X222917936Y-69490000D02*
X224122064Y-69490000D01*
X233077936Y-69490000D02*
X234282064Y-69490000D01*
X233077936Y-67670000D02*
X234282064Y-67670000D01*
X212715000Y-58420000D02*
X212715000Y-56470000D01*
X212715000Y-58420000D02*
X212715000Y-60370000D01*
X203845000Y-58420000D02*
X203845000Y-56470000D01*
X203845000Y-58420000D02*
X203845000Y-61870000D01*
X219665000Y-63610000D02*
X219665000Y-64770000D01*
X219285000Y-63610000D02*
X219665000Y-63610000D01*
X219285000Y-58420000D02*
X219285000Y-63610000D01*
X219285000Y-53230000D02*
X219665000Y-53230000D01*
X219285000Y-58420000D02*
X219285000Y-53230000D01*
X237915000Y-63610000D02*
X237535000Y-63610000D01*
X237915000Y-58420000D02*
X237915000Y-63610000D01*
X237915000Y-53230000D02*
X237535000Y-53230000D01*
X237915000Y-58420000D02*
X237915000Y-53230000D01*
D10*
X180032380Y-59181904D02*
X180841904Y-59181904D01*
X180937142Y-59134285D01*
X180984761Y-59086666D01*
X181032380Y-58991428D01*
X181032380Y-58800952D01*
X180984761Y-58705714D01*
X180937142Y-58658095D01*
X180841904Y-58610476D01*
X180032380Y-58610476D01*
X181032380Y-57610476D02*
X181032380Y-58181904D01*
X181032380Y-57896190D02*
X180032380Y-57896190D01*
X180175238Y-57991428D01*
X180270476Y-58086666D01*
X180318095Y-58181904D01*
X221519904Y-71544380D02*
X221519904Y-72353904D01*
X221567523Y-72449142D01*
X221615142Y-72496761D01*
X221710380Y-72544380D01*
X221900857Y-72544380D01*
X221996095Y-72496761D01*
X222043714Y-72449142D01*
X222091333Y-72353904D01*
X222091333Y-71544380D01*
X223091333Y-72544380D02*
X222519904Y-72544380D01*
X222805619Y-72544380D02*
X222805619Y-71544380D01*
X222710380Y-71687238D01*
X222615142Y-71782476D01*
X222519904Y-71830095D01*
X223948476Y-71544380D02*
X223758000Y-71544380D01*
X223662761Y-71592000D01*
X223615142Y-71639619D01*
X223519904Y-71782476D01*
X223472285Y-71972952D01*
X223472285Y-72353904D01*
X223519904Y-72449142D01*
X223567523Y-72496761D01*
X223662761Y-72544380D01*
X223853238Y-72544380D01*
X223948476Y-72496761D01*
X223996095Y-72449142D01*
X224043714Y-72353904D01*
X224043714Y-72115809D01*
X223996095Y-72020571D01*
X223948476Y-71972952D01*
X223853238Y-71925333D01*
X223662761Y-71925333D01*
X223567523Y-71972952D01*
X223519904Y-72020571D01*
X223472285Y-72115809D01*
X196221904Y-71518980D02*
X196221904Y-72328504D01*
X196269523Y-72423742D01*
X196317142Y-72471361D01*
X196412380Y-72518980D01*
X196602857Y-72518980D01*
X196698095Y-72471361D01*
X196745714Y-72423742D01*
X196793333Y-72328504D01*
X196793333Y-71518980D01*
X197793333Y-72518980D02*
X197221904Y-72518980D01*
X197507619Y-72518980D02*
X197507619Y-71518980D01*
X197412380Y-71661838D01*
X197317142Y-71757076D01*
X197221904Y-71804695D01*
X198126666Y-71518980D02*
X198793333Y-71518980D01*
X198364761Y-72518980D01*
X170973904Y-71595380D02*
X170973904Y-72404904D01*
X171021523Y-72500142D01*
X171069142Y-72547761D01*
X171164380Y-72595380D01*
X171354857Y-72595380D01*
X171450095Y-72547761D01*
X171497714Y-72500142D01*
X171545333Y-72404904D01*
X171545333Y-71595380D01*
X172545333Y-72595380D02*
X171973904Y-72595380D01*
X172259619Y-72595380D02*
X172259619Y-71595380D01*
X172164380Y-71738238D01*
X172069142Y-71833476D01*
X171973904Y-71881095D01*
X173116761Y-72023952D02*
X173021523Y-71976333D01*
X172973904Y-71928714D01*
X172926285Y-71833476D01*
X172926285Y-71785857D01*
X172973904Y-71690619D01*
X173021523Y-71643000D01*
X173116761Y-71595380D01*
X173307238Y-71595380D01*
X173402476Y-71643000D01*
X173450095Y-71690619D01*
X173497714Y-71785857D01*
X173497714Y-71833476D01*
X173450095Y-71928714D01*
X173402476Y-71976333D01*
X173307238Y-72023952D01*
X173116761Y-72023952D01*
X173021523Y-72071571D01*
X172973904Y-72119190D01*
X172926285Y-72214428D01*
X172926285Y-72404904D01*
X172973904Y-72500142D01*
X173021523Y-72547761D01*
X173116761Y-72595380D01*
X173307238Y-72595380D01*
X173402476Y-72547761D01*
X173450095Y-72500142D01*
X173497714Y-72404904D01*
X173497714Y-72214428D01*
X173450095Y-72119190D01*
X173402476Y-72071571D01*
X173307238Y-72023952D01*
X145573904Y-71595380D02*
X145573904Y-72404904D01*
X145621523Y-72500142D01*
X145669142Y-72547761D01*
X145764380Y-72595380D01*
X145954857Y-72595380D01*
X146050095Y-72547761D01*
X146097714Y-72500142D01*
X146145333Y-72404904D01*
X146145333Y-71595380D01*
X147145333Y-72595380D02*
X146573904Y-72595380D01*
X146859619Y-72595380D02*
X146859619Y-71595380D01*
X146764380Y-71738238D01*
X146669142Y-71833476D01*
X146573904Y-71881095D01*
X147621523Y-72595380D02*
X147812000Y-72595380D01*
X147907238Y-72547761D01*
X147954857Y-72500142D01*
X148050095Y-72357285D01*
X148097714Y-72166809D01*
X148097714Y-71785857D01*
X148050095Y-71690619D01*
X148002476Y-71643000D01*
X147907238Y-71595380D01*
X147716761Y-71595380D01*
X147621523Y-71643000D01*
X147573904Y-71690619D01*
X147526285Y-71785857D01*
X147526285Y-72023952D01*
X147573904Y-72119190D01*
X147621523Y-72166809D01*
X147716761Y-72214428D01*
X147907238Y-72214428D01*
X148002476Y-72166809D01*
X148050095Y-72119190D01*
X148097714Y-72023952D01*
X232949904Y-71544380D02*
X232949904Y-72353904D01*
X232997523Y-72449142D01*
X233045142Y-72496761D01*
X233140380Y-72544380D01*
X233330857Y-72544380D01*
X233426095Y-72496761D01*
X233473714Y-72449142D01*
X233521333Y-72353904D01*
X233521333Y-71544380D01*
X233949904Y-71639619D02*
X233997523Y-71592000D01*
X234092761Y-71544380D01*
X234330857Y-71544380D01*
X234426095Y-71592000D01*
X234473714Y-71639619D01*
X234521333Y-71734857D01*
X234521333Y-71830095D01*
X234473714Y-71972952D01*
X233902285Y-72544380D01*
X234521333Y-72544380D01*
X235140380Y-71544380D02*
X235235619Y-71544380D01*
X235330857Y-71592000D01*
X235378476Y-71639619D01*
X235426095Y-71734857D01*
X235473714Y-71925333D01*
X235473714Y-72163428D01*
X235426095Y-72353904D01*
X235378476Y-72449142D01*
X235330857Y-72496761D01*
X235235619Y-72544380D01*
X235140380Y-72544380D01*
X235045142Y-72496761D01*
X234997523Y-72449142D01*
X234949904Y-72353904D01*
X234902285Y-72163428D01*
X234902285Y-71925333D01*
X234949904Y-71734857D01*
X234997523Y-71639619D01*
X235045142Y-71592000D01*
X235140380Y-71544380D01*
X207651904Y-71518980D02*
X207651904Y-72328504D01*
X207699523Y-72423742D01*
X207747142Y-72471361D01*
X207842380Y-72518980D01*
X208032857Y-72518980D01*
X208128095Y-72471361D01*
X208175714Y-72423742D01*
X208223333Y-72328504D01*
X208223333Y-71518980D01*
X208651904Y-71614219D02*
X208699523Y-71566600D01*
X208794761Y-71518980D01*
X209032857Y-71518980D01*
X209128095Y-71566600D01*
X209175714Y-71614219D01*
X209223333Y-71709457D01*
X209223333Y-71804695D01*
X209175714Y-71947552D01*
X208604285Y-72518980D01*
X209223333Y-72518980D01*
X210175714Y-72518980D02*
X209604285Y-72518980D01*
X209890000Y-72518980D02*
X209890000Y-71518980D01*
X209794761Y-71661838D01*
X209699523Y-71757076D01*
X209604285Y-71804695D01*
X182403904Y-71595380D02*
X182403904Y-72404904D01*
X182451523Y-72500142D01*
X182499142Y-72547761D01*
X182594380Y-72595380D01*
X182784857Y-72595380D01*
X182880095Y-72547761D01*
X182927714Y-72500142D01*
X182975333Y-72404904D01*
X182975333Y-71595380D01*
X183403904Y-71690619D02*
X183451523Y-71643000D01*
X183546761Y-71595380D01*
X183784857Y-71595380D01*
X183880095Y-71643000D01*
X183927714Y-71690619D01*
X183975333Y-71785857D01*
X183975333Y-71881095D01*
X183927714Y-72023952D01*
X183356285Y-72595380D01*
X183975333Y-72595380D01*
X184356285Y-71690619D02*
X184403904Y-71643000D01*
X184499142Y-71595380D01*
X184737238Y-71595380D01*
X184832476Y-71643000D01*
X184880095Y-71690619D01*
X184927714Y-71785857D01*
X184927714Y-71881095D01*
X184880095Y-72023952D01*
X184308666Y-72595380D01*
X184927714Y-72595380D01*
X157003904Y-71595380D02*
X157003904Y-72404904D01*
X157051523Y-72500142D01*
X157099142Y-72547761D01*
X157194380Y-72595380D01*
X157384857Y-72595380D01*
X157480095Y-72547761D01*
X157527714Y-72500142D01*
X157575333Y-72404904D01*
X157575333Y-71595380D01*
X158003904Y-71690619D02*
X158051523Y-71643000D01*
X158146761Y-71595380D01*
X158384857Y-71595380D01*
X158480095Y-71643000D01*
X158527714Y-71690619D01*
X158575333Y-71785857D01*
X158575333Y-71881095D01*
X158527714Y-72023952D01*
X157956285Y-72595380D01*
X158575333Y-72595380D01*
X158908666Y-71595380D02*
X159527714Y-71595380D01*
X159194380Y-71976333D01*
X159337238Y-71976333D01*
X159432476Y-72023952D01*
X159480095Y-72071571D01*
X159527714Y-72166809D01*
X159527714Y-72404904D01*
X159480095Y-72500142D01*
X159432476Y-72547761D01*
X159337238Y-72595380D01*
X159051523Y-72595380D01*
X158956285Y-72547761D01*
X158908666Y-72500142D01*
X189063333Y-67117142D02*
X189015714Y-67164761D01*
X188872857Y-67212380D01*
X188777619Y-67212380D01*
X188634761Y-67164761D01*
X188539523Y-67069523D01*
X188491904Y-66974285D01*
X188444285Y-66783809D01*
X188444285Y-66640952D01*
X188491904Y-66450476D01*
X188539523Y-66355238D01*
X188634761Y-66260000D01*
X188777619Y-66212380D01*
X188872857Y-66212380D01*
X189015714Y-66260000D01*
X189063333Y-66307619D01*
X190015714Y-67212380D02*
X189444285Y-67212380D01*
X189730000Y-67212380D02*
X189730000Y-66212380D01*
X189634761Y-66355238D01*
X189539523Y-66450476D01*
X189444285Y-66498095D01*
X208113333Y-67117142D02*
X208065714Y-67164761D01*
X207922857Y-67212380D01*
X207827619Y-67212380D01*
X207684761Y-67164761D01*
X207589523Y-67069523D01*
X207541904Y-66974285D01*
X207494285Y-66783809D01*
X207494285Y-66640952D01*
X207541904Y-66450476D01*
X207589523Y-66355238D01*
X207684761Y-66260000D01*
X207827619Y-66212380D01*
X207922857Y-66212380D01*
X208065714Y-66260000D01*
X208113333Y-66307619D01*
X208494285Y-66307619D02*
X208541904Y-66260000D01*
X208637142Y-66212380D01*
X208875238Y-66212380D01*
X208970476Y-66260000D01*
X209018095Y-66307619D01*
X209065714Y-66402857D01*
X209065714Y-66498095D01*
X209018095Y-66640952D01*
X208446666Y-67212380D01*
X209065714Y-67212380D01*
X223353333Y-67117142D02*
X223305714Y-67164761D01*
X223162857Y-67212380D01*
X223067619Y-67212380D01*
X222924761Y-67164761D01*
X222829523Y-67069523D01*
X222781904Y-66974285D01*
X222734285Y-66783809D01*
X222734285Y-66640952D01*
X222781904Y-66450476D01*
X222829523Y-66355238D01*
X222924761Y-66260000D01*
X223067619Y-66212380D01*
X223162857Y-66212380D01*
X223305714Y-66260000D01*
X223353333Y-66307619D01*
X223686666Y-66212380D02*
X224305714Y-66212380D01*
X223972380Y-66593333D01*
X224115238Y-66593333D01*
X224210476Y-66640952D01*
X224258095Y-66688571D01*
X224305714Y-66783809D01*
X224305714Y-67021904D01*
X224258095Y-67117142D01*
X224210476Y-67164761D01*
X224115238Y-67212380D01*
X223829523Y-67212380D01*
X223734285Y-67164761D01*
X223686666Y-67117142D01*
X233513333Y-67117142D02*
X233465714Y-67164761D01*
X233322857Y-67212380D01*
X233227619Y-67212380D01*
X233084761Y-67164761D01*
X232989523Y-67069523D01*
X232941904Y-66974285D01*
X232894285Y-66783809D01*
X232894285Y-66640952D01*
X232941904Y-66450476D01*
X232989523Y-66355238D01*
X233084761Y-66260000D01*
X233227619Y-66212380D01*
X233322857Y-66212380D01*
X233465714Y-66260000D01*
X233513333Y-66307619D01*
X234370476Y-66545714D02*
X234370476Y-67212380D01*
X234132380Y-66164761D02*
X233894285Y-66879047D01*
X234513333Y-66879047D01*
X202452380Y-59181904D02*
X203261904Y-59181904D01*
X203357142Y-59134285D01*
X203404761Y-59086666D01*
X203452380Y-58991428D01*
X203452380Y-58800952D01*
X203404761Y-58705714D01*
X203357142Y-58658095D01*
X203261904Y-58610476D01*
X202452380Y-58610476D01*
X202547619Y-58181904D02*
X202500000Y-58134285D01*
X202452380Y-58039047D01*
X202452380Y-57800952D01*
X202500000Y-57705714D01*
X202547619Y-57658095D01*
X202642857Y-57610476D01*
X202738095Y-57610476D01*
X202880952Y-57658095D01*
X203452380Y-58229523D01*
X203452380Y-57610476D01*
X217892380Y-59181904D02*
X218701904Y-59181904D01*
X218797142Y-59134285D01*
X218844761Y-59086666D01*
X218892380Y-58991428D01*
X218892380Y-58800952D01*
X218844761Y-58705714D01*
X218797142Y-58658095D01*
X218701904Y-58610476D01*
X217892380Y-58610476D01*
X217892380Y-58229523D02*
X217892380Y-57610476D01*
X218273333Y-57943809D01*
X218273333Y-57800952D01*
X218320952Y-57705714D01*
X218368571Y-57658095D01*
X218463809Y-57610476D01*
X218701904Y-57610476D01*
X218797142Y-57658095D01*
X218844761Y-57705714D01*
X218892380Y-57800952D01*
X218892380Y-58086666D01*
X218844761Y-58181904D01*
X218797142Y-58229523D01*
M02*
