G04 #@! TF.GenerationSoftware,KiCad,Pcbnew,(5.1.2-1)-1*
G04 #@! TF.CreationDate,2019-05-18T21:09:39+01:00*
G04 #@! TF.ProjectId,SRAM Board,5352414d-2042-46f6-9172-642e6b696361,rev?*
G04 #@! TF.SameCoordinates,Original*
G04 #@! TF.FileFunction,Copper,L2,Bot*
G04 #@! TF.FilePolarity,Positive*
%FSLAX46Y46*%
G04 Gerber Fmt 4.6, Leading zero omitted, Abs format (unit mm)*
G04 Created by KiCad (PCBNEW (5.1.2-1)-1) date 2019-05-18 21:09:39*
%MOMM*%
%LPD*%
G04 APERTURE LIST*
%ADD10O,1.600000X1.600000*%
%ADD11R,1.600000X1.600000*%
%ADD12C,0.800000*%
%ADD13C,0.250000*%
G04 APERTURE END LIST*
D10*
X226568000Y-74422000D03*
X218948000Y-97282000D03*
X226568000Y-76962000D03*
X218948000Y-94742000D03*
X226568000Y-79502000D03*
X218948000Y-92202000D03*
X226568000Y-82042000D03*
X218948000Y-89662000D03*
X226568000Y-84582000D03*
X218948000Y-87122000D03*
X226568000Y-87122000D03*
X218948000Y-84582000D03*
X226568000Y-89662000D03*
X218948000Y-82042000D03*
X226568000Y-92202000D03*
X218948000Y-79502000D03*
X226568000Y-94742000D03*
X218948000Y-76962000D03*
X226568000Y-97282000D03*
D11*
X218948000Y-74422000D03*
D10*
X201270000Y-74396600D03*
X193650000Y-97256600D03*
X201270000Y-76936600D03*
X193650000Y-94716600D03*
X201270000Y-79476600D03*
X193650000Y-92176600D03*
X201270000Y-82016600D03*
X193650000Y-89636600D03*
X201270000Y-84556600D03*
X193650000Y-87096600D03*
X201270000Y-87096600D03*
X193650000Y-84556600D03*
X201270000Y-89636600D03*
X193650000Y-82016600D03*
X201270000Y-92176600D03*
X193650000Y-79476600D03*
X201270000Y-94716600D03*
X193650000Y-76936600D03*
X201270000Y-97256600D03*
D11*
X193650000Y-74396600D03*
D10*
X176022000Y-74473000D03*
X168402000Y-97333000D03*
X176022000Y-77013000D03*
X168402000Y-94793000D03*
X176022000Y-79553000D03*
X168402000Y-92253000D03*
X176022000Y-82093000D03*
X168402000Y-89713000D03*
X176022000Y-84633000D03*
X168402000Y-87173000D03*
X176022000Y-87173000D03*
X168402000Y-84633000D03*
X176022000Y-89713000D03*
X168402000Y-82093000D03*
X176022000Y-92253000D03*
X168402000Y-79553000D03*
X176022000Y-94793000D03*
X168402000Y-77013000D03*
X176022000Y-97333000D03*
D11*
X168402000Y-74473000D03*
D10*
X150622000Y-74473000D03*
X143002000Y-97333000D03*
X150622000Y-77013000D03*
X143002000Y-94793000D03*
X150622000Y-79553000D03*
X143002000Y-92253000D03*
X150622000Y-82093000D03*
X143002000Y-89713000D03*
X150622000Y-84633000D03*
X143002000Y-87173000D03*
X150622000Y-87173000D03*
X143002000Y-84633000D03*
X150622000Y-89713000D03*
X143002000Y-82093000D03*
X150622000Y-92253000D03*
X143002000Y-79553000D03*
X150622000Y-94793000D03*
X143002000Y-77013000D03*
X150622000Y-97333000D03*
D11*
X143002000Y-74473000D03*
D10*
X237998000Y-74422000D03*
X230378000Y-97282000D03*
X237998000Y-76962000D03*
X230378000Y-94742000D03*
X237998000Y-79502000D03*
X230378000Y-92202000D03*
X237998000Y-82042000D03*
X230378000Y-89662000D03*
X237998000Y-84582000D03*
X230378000Y-87122000D03*
X237998000Y-87122000D03*
X230378000Y-84582000D03*
X237998000Y-89662000D03*
X230378000Y-82042000D03*
X237998000Y-92202000D03*
X230378000Y-79502000D03*
X237998000Y-94742000D03*
X230378000Y-76962000D03*
X237998000Y-97282000D03*
D11*
X230378000Y-74422000D03*
D10*
X212700000Y-74396600D03*
X205080000Y-97256600D03*
X212700000Y-76936600D03*
X205080000Y-94716600D03*
X212700000Y-79476600D03*
X205080000Y-92176600D03*
X212700000Y-82016600D03*
X205080000Y-89636600D03*
X212700000Y-84556600D03*
X205080000Y-87096600D03*
X212700000Y-87096600D03*
X205080000Y-84556600D03*
X212700000Y-89636600D03*
X205080000Y-82016600D03*
X212700000Y-92176600D03*
X205080000Y-79476600D03*
X212700000Y-94716600D03*
X205080000Y-76936600D03*
X212700000Y-97256600D03*
D11*
X205080000Y-74396600D03*
D10*
X187452000Y-74473000D03*
X179832000Y-97333000D03*
X187452000Y-77013000D03*
X179832000Y-94793000D03*
X187452000Y-79553000D03*
X179832000Y-92253000D03*
X187452000Y-82093000D03*
X179832000Y-89713000D03*
X187452000Y-84633000D03*
X179832000Y-87173000D03*
X187452000Y-87173000D03*
X179832000Y-84633000D03*
X187452000Y-89713000D03*
X179832000Y-82093000D03*
X187452000Y-92253000D03*
X179832000Y-79553000D03*
X187452000Y-94793000D03*
X179832000Y-77013000D03*
X187452000Y-97333000D03*
D11*
X179832000Y-74473000D03*
D10*
X162052000Y-74473000D03*
X154432000Y-97333000D03*
X162052000Y-77013000D03*
X154432000Y-94793000D03*
X162052000Y-79553000D03*
X154432000Y-92253000D03*
X162052000Y-82093000D03*
X154432000Y-89713000D03*
X162052000Y-84633000D03*
X154432000Y-87173000D03*
X162052000Y-87173000D03*
X154432000Y-84633000D03*
X162052000Y-89713000D03*
X154432000Y-82093000D03*
X162052000Y-92253000D03*
X154432000Y-79553000D03*
X162052000Y-94793000D03*
X154432000Y-77013000D03*
X162052000Y-97333000D03*
D11*
X154432000Y-74473000D03*
D12*
X225116700Y-65839700D03*
X226459100Y-66819200D03*
X226567600Y-65807300D03*
X227568000Y-65839700D03*
X229907900Y-65379800D03*
X224263000Y-62408700D03*
X230954300Y-65378600D03*
X218988800Y-61613100D03*
X215848200Y-60725600D03*
X204994200Y-62435800D03*
X195298300Y-72114700D03*
X185711500Y-64698300D03*
X208942700Y-63476900D03*
X190920700Y-70100400D03*
X197550600Y-60532200D03*
X195880300Y-60992800D03*
X237642600Y-68251300D03*
X191767900Y-64537000D03*
X233436200Y-65486800D03*
X198776800Y-69872900D03*
X235400000Y-65401400D03*
X197649200Y-69767600D03*
X220928300Y-55814000D03*
X209652900Y-59308400D03*
X221928700Y-55814000D03*
X209728400Y-62483300D03*
X214218100Y-58787400D03*
X216406600Y-58719900D03*
X213564500Y-57986000D03*
X228407400Y-54464000D03*
X212839000Y-57265200D03*
X197149000Y-53617200D03*
X213795000Y-53523000D03*
X216907600Y-54443600D03*
X205740000Y-63106000D03*
X199629300Y-81344700D03*
X220605500Y-72568900D03*
X201360400Y-56666500D03*
X218524300Y-53371700D03*
X195191300Y-55477600D03*
X229193700Y-51351100D03*
D13*
X226568000Y-78376700D02*
X226286700Y-78376700D01*
X226286700Y-78376700D02*
X224979300Y-77069300D01*
X224979300Y-77069300D02*
X224979300Y-65977100D01*
X224979300Y-65977100D02*
X225116700Y-65839700D01*
X226568000Y-79502000D02*
X226568000Y-78376700D01*
X230378000Y-76962000D02*
X230378000Y-75836700D01*
X226459100Y-66819200D02*
X226459100Y-72621200D01*
X226459100Y-72621200D02*
X229674600Y-75836700D01*
X229674600Y-75836700D02*
X230378000Y-75836700D01*
X226567600Y-65807300D02*
X226445300Y-65807300D01*
X226445300Y-65807300D02*
X225442700Y-66809900D01*
X225442700Y-66809900D02*
X225442700Y-74992800D01*
X225442700Y-74992800D02*
X226286600Y-75836700D01*
X226286600Y-75836700D02*
X226568000Y-75836700D01*
X226568000Y-76962000D02*
X226568000Y-75836700D01*
X230378000Y-73296700D02*
X227568000Y-70486700D01*
X227568000Y-70486700D02*
X227568000Y-65839700D01*
X230378000Y-74422000D02*
X230378000Y-73296700D01*
X201270000Y-79476600D02*
X202395300Y-79476600D01*
X212700000Y-78351300D02*
X203520600Y-78351300D01*
X203520600Y-78351300D02*
X202395300Y-79476600D01*
X229907900Y-65379800D02*
X229583200Y-65055100D01*
X229583200Y-65055100D02*
X224821200Y-65055100D01*
X224821200Y-65055100D02*
X213825300Y-76051000D01*
X213825300Y-76051000D02*
X213825300Y-77507400D01*
X213825300Y-77507400D02*
X212981400Y-78351300D01*
X212981400Y-78351300D02*
X212700000Y-78351300D01*
X212700000Y-79476600D02*
X212700000Y-78351300D01*
X205080000Y-76936600D02*
X206205300Y-76936600D01*
X224263000Y-62408700D02*
X220733200Y-62408700D01*
X220733200Y-62408700D02*
X206205300Y-76936600D01*
X212700000Y-75811300D02*
X213428100Y-75811300D01*
X213428100Y-75811300D02*
X224634700Y-64604700D01*
X224634700Y-64604700D02*
X230180400Y-64604700D01*
X230180400Y-64604700D02*
X230954300Y-65378600D01*
X212700000Y-76936600D02*
X212700000Y-75811300D01*
X206205300Y-74396600D02*
X218988800Y-61613100D01*
X205080000Y-74396600D02*
X206205300Y-74396600D01*
X204994200Y-62435800D02*
X204994200Y-62435900D01*
X204994200Y-62435900D02*
X203951400Y-62435900D01*
X203951400Y-62435900D02*
X194540400Y-71846900D01*
X194540400Y-71846900D02*
X194540400Y-72721100D01*
X194540400Y-72721100D02*
X194775300Y-72956000D01*
X194775300Y-72956000D02*
X194775300Y-80047400D01*
X194775300Y-80047400D02*
X193931400Y-80891300D01*
X193931400Y-80891300D02*
X193650000Y-80891300D01*
X204994200Y-62435800D02*
X206704400Y-60725600D01*
X206704400Y-60725600D02*
X215848200Y-60725600D01*
X193650000Y-82016600D02*
X193650000Y-80891300D01*
X168402000Y-82093000D02*
X169527300Y-82093000D01*
X193650000Y-82016600D02*
X192524700Y-82016600D01*
X192524700Y-82016600D02*
X188746800Y-85794500D01*
X188746800Y-85794500D02*
X173228800Y-85794500D01*
X173228800Y-85794500D02*
X169527300Y-82093000D01*
X193650000Y-87096600D02*
X193650000Y-85971300D01*
X193650000Y-85971300D02*
X193931300Y-85971300D01*
X193931300Y-85971300D02*
X195298300Y-84604300D01*
X195298300Y-84604300D02*
X195298300Y-72114700D01*
X218948000Y-87122000D02*
X217822700Y-87122000D01*
X205080000Y-87096600D02*
X206205300Y-87096600D01*
X206205300Y-87096600D02*
X207356000Y-88247300D01*
X207356000Y-88247300D02*
X216697400Y-88247300D01*
X216697400Y-88247300D02*
X217822700Y-87122000D01*
X154432000Y-89713000D02*
X155557300Y-89713000D01*
X168402000Y-89713000D02*
X167276700Y-89713000D01*
X167276700Y-89713000D02*
X166151400Y-88587700D01*
X166151400Y-88587700D02*
X156682600Y-88587700D01*
X156682600Y-88587700D02*
X155557300Y-89713000D01*
X193650000Y-89636600D02*
X192524700Y-89636600D01*
X218948000Y-89662000D02*
X217822700Y-89662000D01*
X205080000Y-89636600D02*
X206205300Y-89636600D01*
X206205300Y-89636600D02*
X207356000Y-90787300D01*
X207356000Y-90787300D02*
X216697400Y-90787300D01*
X216697400Y-90787300D02*
X217822700Y-89662000D01*
X179832000Y-89713000D02*
X180957300Y-89713000D01*
X180957300Y-89713000D02*
X182112600Y-88557700D01*
X182112600Y-88557700D02*
X191445800Y-88557700D01*
X191445800Y-88557700D02*
X192524700Y-89636600D01*
X143002000Y-92253000D02*
X143002000Y-91127700D01*
X143002000Y-91127700D02*
X143283400Y-91127700D01*
X143283400Y-91127700D02*
X144127300Y-90283800D01*
X144127300Y-90283800D02*
X144127300Y-86929500D01*
X144127300Y-86929500D02*
X150089200Y-80967600D01*
X150089200Y-80967600D02*
X154889500Y-80967600D01*
X154889500Y-80967600D02*
X160114100Y-75743000D01*
X160114100Y-75743000D02*
X163177400Y-75743000D01*
X163177400Y-75743000D02*
X166863700Y-72056700D01*
X166863700Y-72056700D02*
X178353100Y-72056700D01*
X178353100Y-72056700D02*
X185711500Y-64698300D01*
X205080000Y-92176600D02*
X206205300Y-92176600D01*
X218948000Y-92202000D02*
X217822700Y-92202000D01*
X217822700Y-92202000D02*
X216722800Y-93301900D01*
X216722800Y-93301900D02*
X207330600Y-93301900D01*
X207330600Y-93301900D02*
X206205300Y-92176600D01*
X193650000Y-92176600D02*
X194775300Y-92176600D01*
X205080000Y-92176600D02*
X203954700Y-92176600D01*
X203954700Y-92176600D02*
X202829400Y-91051300D01*
X202829400Y-91051300D02*
X195900600Y-91051300D01*
X195900600Y-91051300D02*
X194775300Y-92176600D01*
X193650000Y-92176600D02*
X192524700Y-92176600D01*
X179832000Y-92253000D02*
X180957300Y-92253000D01*
X180957300Y-92253000D02*
X182112600Y-91097700D01*
X182112600Y-91097700D02*
X191445800Y-91097700D01*
X191445800Y-91097700D02*
X192524700Y-92176600D01*
X203954700Y-94716600D02*
X202829400Y-95841900D01*
X202829400Y-95841900D02*
X195900600Y-95841900D01*
X195900600Y-95841900D02*
X194775300Y-94716600D01*
X205080000Y-94716600D02*
X206205300Y-94716600D01*
X218948000Y-94742000D02*
X217822700Y-94742000D01*
X217822700Y-94742000D02*
X216722800Y-95841900D01*
X216722800Y-95841900D02*
X207330600Y-95841900D01*
X207330600Y-95841900D02*
X206205300Y-94716600D01*
X204517400Y-94716600D02*
X205080000Y-94716600D01*
X204517400Y-94716600D02*
X203954700Y-94716600D01*
X193650000Y-94716600D02*
X192524700Y-94716600D01*
X179832000Y-94793000D02*
X180957300Y-94793000D01*
X180957300Y-94793000D02*
X182112600Y-93637700D01*
X182112600Y-93637700D02*
X191445800Y-93637700D01*
X191445800Y-93637700D02*
X192524700Y-94716600D01*
X193650000Y-94716600D02*
X194775300Y-94716600D01*
X201270000Y-73271300D02*
X208942700Y-65598600D01*
X208942700Y-65598600D02*
X208942700Y-63476900D01*
X201270000Y-74396600D02*
X201270000Y-73271300D01*
X187452000Y-74473000D02*
X187452000Y-73347700D01*
X187452000Y-73347700D02*
X187673400Y-73347700D01*
X187673400Y-73347700D02*
X190920700Y-70100400D01*
X235447100Y-93887000D02*
X234187100Y-92627100D01*
X234187100Y-92627100D02*
X234187100Y-65148700D01*
X234187100Y-65148700D02*
X227704900Y-58666500D01*
X227704900Y-58666500D02*
X227147300Y-58666500D01*
X227147300Y-58666500D02*
X224465800Y-55985000D01*
X224465800Y-55985000D02*
X223829000Y-55985000D01*
X223829000Y-55985000D02*
X222482300Y-54638300D01*
X222482300Y-54638300D02*
X219791000Y-54638300D01*
X219791000Y-54638300D02*
X219249300Y-55180000D01*
X219249300Y-55180000D02*
X218612500Y-55180000D01*
X218612500Y-55180000D02*
X218594900Y-55197600D01*
X218594900Y-55197600D02*
X218514000Y-55197600D01*
X218514000Y-55197600D02*
X218072400Y-55639200D01*
X218072400Y-55639200D02*
X211390100Y-55639200D01*
X211390100Y-55639200D02*
X210948600Y-56080700D01*
X210948600Y-56080700D02*
X204882700Y-56080700D01*
X204882700Y-56080700D02*
X201961200Y-59002200D01*
X201961200Y-59002200D02*
X201576500Y-59002200D01*
X201576500Y-59002200D02*
X200046500Y-60532200D01*
X200046500Y-60532200D02*
X197550600Y-60532200D01*
X237998000Y-96156700D02*
X237716700Y-96156700D01*
X237716700Y-96156700D02*
X235447100Y-93887000D01*
X235447100Y-93887000D02*
X230926800Y-98407300D01*
X230926800Y-98407300D02*
X228818600Y-98407300D01*
X228818600Y-98407300D02*
X227693300Y-97282000D01*
X226568000Y-97282000D02*
X227693300Y-97282000D01*
X187452000Y-97333000D02*
X186326700Y-97333000D01*
X176022000Y-97333000D02*
X177147300Y-97333000D01*
X177147300Y-97333000D02*
X178272600Y-98458300D01*
X178272600Y-98458300D02*
X185201400Y-98458300D01*
X185201400Y-98458300D02*
X186326700Y-97333000D01*
X175459400Y-97333000D02*
X176022000Y-97333000D01*
X175459400Y-97333000D02*
X174896700Y-97333000D01*
X187452000Y-97333000D02*
X188577300Y-97333000D01*
X201270000Y-97256600D02*
X196678400Y-97256600D01*
X196678400Y-97256600D02*
X195540200Y-96118400D01*
X195540200Y-96118400D02*
X189791900Y-96118400D01*
X189791900Y-96118400D02*
X188577300Y-97333000D01*
X237998000Y-97282000D02*
X237998000Y-96156700D01*
X162052000Y-97333000D02*
X163177300Y-97333000D01*
X174896700Y-97333000D02*
X173771400Y-96207700D01*
X173771400Y-96207700D02*
X164302600Y-96207700D01*
X164302600Y-96207700D02*
X163177300Y-97333000D01*
X150622000Y-97333000D02*
X151747300Y-97333000D01*
X162052000Y-97333000D02*
X160926700Y-97333000D01*
X160926700Y-97333000D02*
X159801400Y-96207700D01*
X159801400Y-96207700D02*
X152872600Y-96207700D01*
X152872600Y-96207700D02*
X151747300Y-97333000D01*
X195880300Y-60992800D02*
X198321200Y-58551900D01*
X198321200Y-58551900D02*
X201774500Y-58551900D01*
X201774500Y-58551900D02*
X205137500Y-55188900D01*
X205137500Y-55188900D02*
X217885700Y-55188900D01*
X217885700Y-55188900D02*
X218527300Y-54547300D01*
X218527300Y-54547300D02*
X219011400Y-54547300D01*
X219011400Y-54547300D02*
X219370700Y-54188000D01*
X219370700Y-54188000D02*
X225212400Y-54188000D01*
X225212400Y-54188000D02*
X237642600Y-66618200D01*
X237642600Y-66618200D02*
X237642600Y-68251300D01*
X176022000Y-94793000D02*
X177147300Y-94793000D01*
X187452000Y-94793000D02*
X186326700Y-94793000D01*
X186326700Y-94793000D02*
X185201400Y-95918300D01*
X185201400Y-95918300D02*
X178272600Y-95918300D01*
X178272600Y-95918300D02*
X177147300Y-94793000D01*
X237998000Y-93616700D02*
X238279300Y-93616700D01*
X238279300Y-93616700D02*
X239134000Y-92762000D01*
X239134000Y-92762000D02*
X239134000Y-69742700D01*
X239134000Y-69742700D02*
X237642600Y-68251300D01*
X237998000Y-94742000D02*
X237998000Y-93616700D01*
X162052000Y-94793000D02*
X163177300Y-94793000D01*
X176022000Y-94793000D02*
X174896700Y-94793000D01*
X174896700Y-94793000D02*
X173771400Y-93667700D01*
X173771400Y-93667700D02*
X164302600Y-93667700D01*
X164302600Y-93667700D02*
X163177300Y-94793000D01*
X150622000Y-94793000D02*
X151747300Y-94793000D01*
X162052000Y-94793000D02*
X160926700Y-94793000D01*
X160926700Y-94793000D02*
X159801400Y-93667700D01*
X159801400Y-93667700D02*
X152872600Y-93667700D01*
X152872600Y-93667700D02*
X151747300Y-94793000D01*
X233436200Y-65486800D02*
X232693900Y-65486800D01*
X232693900Y-65486800D02*
X222295700Y-55088600D01*
X222295700Y-55088600D02*
X219977600Y-55088600D01*
X219977600Y-55088600D02*
X218976700Y-56089500D01*
X218976700Y-56089500D02*
X211576700Y-56089500D01*
X211576700Y-56089500D02*
X211135200Y-56531000D01*
X211135200Y-56531000D02*
X205297800Y-56531000D01*
X205297800Y-56531000D02*
X197291800Y-64537000D01*
X197291800Y-64537000D02*
X191767900Y-64537000D01*
X226568000Y-91076700D02*
X226849400Y-91076700D01*
X226849400Y-91076700D02*
X227693300Y-90232800D01*
X227693300Y-90232800D02*
X227693300Y-85630300D01*
X227693300Y-85630300D02*
X230011600Y-83312000D01*
X230011600Y-83312000D02*
X230770700Y-83312000D01*
X230770700Y-83312000D02*
X233436200Y-80646500D01*
X233436200Y-80646500D02*
X233436200Y-65486800D01*
X226568000Y-92202000D02*
X226568000Y-91076700D01*
X162052000Y-92253000D02*
X163177300Y-92253000D01*
X176022000Y-92253000D02*
X174896700Y-92253000D01*
X174896700Y-92253000D02*
X173771400Y-91127700D01*
X173771400Y-91127700D02*
X164302600Y-91127700D01*
X164302600Y-91127700D02*
X163177300Y-92253000D01*
X237998000Y-88536700D02*
X237716600Y-88536700D01*
X237716600Y-88536700D02*
X235400000Y-86220100D01*
X235400000Y-86220100D02*
X235400000Y-65401400D01*
X203531000Y-88500900D02*
X202395300Y-89636600D01*
X212700000Y-89636600D02*
X208108400Y-89636600D01*
X208108400Y-89636600D02*
X206972700Y-88500900D01*
X206972700Y-88500900D02*
X203531000Y-88500900D01*
X203531000Y-88500900D02*
X203531000Y-87714000D01*
X203531000Y-87714000D02*
X201643600Y-85826600D01*
X201643600Y-85826600D02*
X200898200Y-85826600D01*
X200898200Y-85826600D02*
X198776800Y-83705200D01*
X198776800Y-83705200D02*
X198776800Y-69872900D01*
X237998000Y-89662000D02*
X237998000Y-88536700D01*
X201270000Y-89636600D02*
X202395300Y-89636600D01*
X150622000Y-89713000D02*
X151747300Y-89713000D01*
X162052000Y-89713000D02*
X160926700Y-89713000D01*
X160926700Y-89713000D02*
X159801400Y-90838300D01*
X159801400Y-90838300D02*
X152872600Y-90838300D01*
X152872600Y-90838300D02*
X151747300Y-89713000D01*
X176022000Y-87173000D02*
X177147300Y-87173000D01*
X187452000Y-87173000D02*
X182367300Y-87173000D01*
X182367300Y-87173000D02*
X181242000Y-88298300D01*
X181242000Y-88298300D02*
X178272600Y-88298300D01*
X178272600Y-88298300D02*
X177147300Y-87173000D01*
X197695800Y-84647700D02*
X194106600Y-88236900D01*
X194106600Y-88236900D02*
X192654200Y-88236900D01*
X192654200Y-88236900D02*
X191590300Y-87173000D01*
X191590300Y-87173000D02*
X187452000Y-87173000D01*
X197695800Y-84647700D02*
X197695800Y-69814200D01*
X197695800Y-69814200D02*
X197649200Y-69767600D01*
X200257300Y-87096600D02*
X200144700Y-87096600D01*
X200144700Y-87096600D02*
X197695800Y-84647700D01*
X201270000Y-87096600D02*
X200257300Y-87096600D01*
X212700000Y-84556600D02*
X211574700Y-84556600D01*
X201270000Y-84556600D02*
X202395300Y-84556600D01*
X202395300Y-84556600D02*
X203520600Y-83431300D01*
X203520600Y-83431300D02*
X210449400Y-83431300D01*
X210449400Y-83431300D02*
X211574700Y-84556600D01*
X176022000Y-84633000D02*
X177147300Y-84633000D01*
X187452000Y-84633000D02*
X186326700Y-84633000D01*
X186326700Y-84633000D02*
X185201400Y-83507700D01*
X185201400Y-83507700D02*
X178272600Y-83507700D01*
X178272600Y-83507700D02*
X177147300Y-84633000D01*
X150622000Y-84633000D02*
X151747300Y-84633000D01*
X162052000Y-84633000D02*
X160926700Y-84633000D01*
X160926700Y-84633000D02*
X159801400Y-85758300D01*
X159801400Y-85758300D02*
X152872600Y-85758300D01*
X152872600Y-85758300D02*
X151747300Y-84633000D01*
X209652900Y-59308400D02*
X209864000Y-59519500D01*
X209864000Y-59519500D02*
X217222800Y-59519500D01*
X217222800Y-59519500D02*
X220928300Y-55814000D01*
X187452000Y-80967700D02*
X187733300Y-80967700D01*
X187733300Y-80967700D02*
X190797400Y-77903600D01*
X190797400Y-77903600D02*
X190797400Y-74953000D01*
X190797400Y-74953000D02*
X206442000Y-59308400D01*
X206442000Y-59308400D02*
X209652900Y-59308400D01*
X150622000Y-82093000D02*
X151747300Y-82093000D01*
X162052000Y-82093000D02*
X160926700Y-82093000D01*
X160926700Y-82093000D02*
X159801400Y-83218300D01*
X159801400Y-83218300D02*
X152872600Y-83218300D01*
X152872600Y-83218300D02*
X151747300Y-82093000D01*
X187452000Y-82093000D02*
X187452000Y-80967700D01*
X209728400Y-62483300D02*
X215284800Y-62483300D01*
X215284800Y-62483300D02*
X221928700Y-55839400D01*
X221928700Y-55839400D02*
X221928700Y-55814000D01*
X209728400Y-62483300D02*
X209728400Y-67588400D01*
X209728400Y-67588400D02*
X201650200Y-75666600D01*
X201650200Y-75666600D02*
X200897300Y-75666600D01*
X200897300Y-75666600D02*
X200130800Y-76433100D01*
X200130800Y-76433100D02*
X200130800Y-79985600D01*
X200130800Y-79985600D02*
X201036500Y-80891300D01*
X201036500Y-80891300D02*
X201270000Y-80891300D01*
X201270000Y-82016600D02*
X201270000Y-80891300D01*
X187452000Y-78427700D02*
X187733400Y-78427700D01*
X187733400Y-78427700D02*
X188577300Y-77583800D01*
X188577300Y-77583800D02*
X188577300Y-76536200D01*
X188577300Y-76536200D02*
X206530500Y-58583000D01*
X206530500Y-58583000D02*
X212712100Y-58583000D01*
X212712100Y-58583000D02*
X212916500Y-58787400D01*
X212916500Y-58787400D02*
X214218100Y-58787400D01*
X187452000Y-79553000D02*
X187452000Y-78427700D01*
X180957300Y-77013000D02*
X192792000Y-65178300D01*
X192792000Y-65178300D02*
X197449900Y-65178300D01*
X197449900Y-65178300D02*
X205646900Y-56981300D01*
X205646900Y-56981300D02*
X211321800Y-56981300D01*
X211321800Y-56981300D02*
X211763300Y-56539800D01*
X211763300Y-56539800D02*
X214226500Y-56539800D01*
X214226500Y-56539800D02*
X216406600Y-58719900D01*
X179832000Y-77013000D02*
X180957300Y-77013000D01*
X187452000Y-77013000D02*
X206474500Y-57990500D01*
X206474500Y-57990500D02*
X213560000Y-57990500D01*
X213560000Y-57990500D02*
X213564500Y-57986000D01*
X180957300Y-74473000D02*
X180957300Y-74191700D01*
X180957300Y-74191700D02*
X200869800Y-54279200D01*
X200869800Y-54279200D02*
X214476700Y-54279200D01*
X214476700Y-54279200D02*
X216116400Y-52639500D01*
X216116400Y-52639500D02*
X226582900Y-52639500D01*
X226582900Y-52639500D02*
X228407400Y-54464000D01*
X179832000Y-74473000D02*
X180957300Y-74473000D01*
X163177300Y-79553000D02*
X164302600Y-78427700D01*
X164302600Y-78427700D02*
X181521600Y-78427700D01*
X181521600Y-78427700D02*
X192804800Y-67144500D01*
X192804800Y-67144500D02*
X196171800Y-67144500D01*
X196171800Y-67144500D02*
X205884700Y-57431600D01*
X205884700Y-57431600D02*
X212672600Y-57431600D01*
X212672600Y-57431600D02*
X212839000Y-57265200D01*
X162052000Y-79553000D02*
X163177300Y-79553000D01*
X197149000Y-53617200D02*
X195694800Y-53617200D01*
X195694800Y-53617200D02*
X184831100Y-64480900D01*
X184831100Y-64480900D02*
X184831100Y-64564000D01*
X184831100Y-64564000D02*
X177788800Y-71606300D01*
X177788800Y-71606300D02*
X160964000Y-71606300D01*
X160964000Y-71606300D02*
X155557300Y-77013000D01*
X154432000Y-77013000D02*
X155557300Y-77013000D01*
X163177300Y-77013000D02*
X167683200Y-72507100D01*
X167683200Y-72507100D02*
X180980400Y-72507100D01*
X180980400Y-72507100D02*
X199964500Y-53523000D01*
X199964500Y-53523000D02*
X213795000Y-53523000D01*
X162052000Y-77013000D02*
X163177300Y-77013000D01*
X216907600Y-54443600D02*
X217254200Y-54097000D01*
X217254200Y-54097000D02*
X218824800Y-54097000D01*
X218824800Y-54097000D02*
X219197500Y-53724300D01*
X219197500Y-53724300D02*
X225462300Y-53724300D01*
X225462300Y-53724300D02*
X239591200Y-67853200D01*
X239591200Y-67853200D02*
X239591200Y-97375600D01*
X239591200Y-97375600D02*
X238035700Y-98931100D01*
X238035700Y-98931100D02*
X148940300Y-98931100D01*
X148940300Y-98931100D02*
X143557900Y-93548700D01*
X143557900Y-93548700D02*
X142612100Y-93548700D01*
X142612100Y-93548700D02*
X141876700Y-92813300D01*
X141876700Y-92813300D02*
X141876700Y-76442200D01*
X141876700Y-76442200D02*
X142720600Y-75598300D01*
X142720600Y-75598300D02*
X143002000Y-75598300D01*
X143002000Y-74473000D02*
X143002000Y-75598300D01*
X199629300Y-81344700D02*
X199629300Y-69216700D01*
X199629300Y-69216700D02*
X205740000Y-63106000D01*
X229252700Y-82042000D02*
X228127400Y-80916700D01*
X228127400Y-80916700D02*
X226338200Y-80916700D01*
X226338200Y-80916700D02*
X221330800Y-75909300D01*
X221330800Y-75909300D02*
X221330800Y-72232700D01*
X221330800Y-72232700D02*
X220892400Y-71794300D01*
X220892400Y-71794300D02*
X219470100Y-71794300D01*
X219470100Y-71794300D02*
X217812100Y-73452300D01*
X217812100Y-73452300D02*
X217812100Y-75956800D01*
X217812100Y-75956800D02*
X212877600Y-80891300D01*
X212877600Y-80891300D02*
X207330600Y-80891300D01*
X207330600Y-80891300D02*
X206205300Y-82016600D01*
X205080000Y-82016600D02*
X206205300Y-82016600D01*
X199629300Y-81344700D02*
X199629300Y-82031700D01*
X199629300Y-82031700D02*
X200739500Y-83141900D01*
X200739500Y-83141900D02*
X202829400Y-83141900D01*
X202829400Y-83141900D02*
X203954700Y-82016600D01*
X205080000Y-82016600D02*
X203954700Y-82016600D01*
X230378000Y-82042000D02*
X229252700Y-82042000D01*
X154432000Y-82093000D02*
X155557300Y-82093000D01*
X179832000Y-82093000D02*
X178706700Y-82093000D01*
X178706700Y-82093000D02*
X177581400Y-80967700D01*
X177581400Y-80967700D02*
X156682600Y-80967700D01*
X156682600Y-80967700D02*
X155557300Y-82093000D01*
X220605500Y-94780500D02*
X219229300Y-96156700D01*
X219229300Y-96156700D02*
X218948000Y-96156700D01*
X220605500Y-72568900D02*
X220605500Y-94780500D01*
X229252700Y-97282000D02*
X228127400Y-96156700D01*
X228127400Y-96156700D02*
X221981700Y-96156700D01*
X221981700Y-96156700D02*
X220605500Y-94780500D01*
X230378000Y-97282000D02*
X229252700Y-97282000D01*
X218948000Y-97282000D02*
X218948000Y-96156700D01*
X154432000Y-97333000D02*
X155557300Y-97333000D01*
X168402000Y-97333000D02*
X167276700Y-97333000D01*
X167276700Y-97333000D02*
X166151400Y-98458300D01*
X166151400Y-98458300D02*
X156682600Y-98458300D01*
X156682600Y-98458300D02*
X155557300Y-97333000D01*
X218948000Y-97282000D02*
X217822700Y-97282000D01*
X205080000Y-97256600D02*
X206205300Y-97256600D01*
X206205300Y-97256600D02*
X207356000Y-98407300D01*
X207356000Y-98407300D02*
X216697400Y-98407300D01*
X216697400Y-98407300D02*
X217822700Y-97282000D01*
X204517400Y-97256600D02*
X205080000Y-97256600D01*
X204517400Y-97256600D02*
X203954700Y-97256600D01*
X193650000Y-97256600D02*
X194775300Y-97256600D01*
X203954700Y-97256600D02*
X202829400Y-98381900D01*
X202829400Y-98381900D02*
X195900600Y-98381900D01*
X195900600Y-98381900D02*
X194775300Y-97256600D01*
X201360400Y-56666500D02*
X203297200Y-54729700D01*
X203297200Y-54729700D02*
X214663100Y-54729700D01*
X214663100Y-54729700D02*
X216021100Y-53371700D01*
X216021100Y-53371700D02*
X218524300Y-53371700D01*
X195191300Y-55477600D02*
X197069100Y-55477600D01*
X197069100Y-55477600D02*
X201195600Y-51351100D01*
X201195600Y-51351100D02*
X229193700Y-51351100D01*
M02*
