G04 #@! TF.GenerationSoftware,KiCad,Pcbnew,(5.1.2-1)-1*
G04 #@! TF.CreationDate,2019-05-20T08:13:25+01:00*
G04 #@! TF.ProjectId,SRAM Board,5352414d-2042-46f6-9172-642e6b696361,rev?*
G04 #@! TF.SameCoordinates,Original*
G04 #@! TF.FileFunction,Soldermask,Bot*
G04 #@! TF.FilePolarity,Negative*
%FSLAX46Y46*%
G04 Gerber Fmt 4.6, Leading zero omitted, Abs format (unit mm)*
G04 Created by KiCad (PCBNEW (5.1.2-1)-1) date 2019-05-20 08:13:25*
%MOMM*%
%LPD*%
G04 APERTURE LIST*
%ADD10C,0.100000*%
G04 APERTURE END LIST*
D10*
G36*
X187618823Y-96494313D02*
G01*
X187779242Y-96542976D01*
X187911906Y-96613886D01*
X187927078Y-96621996D01*
X188056659Y-96728341D01*
X188163004Y-96857922D01*
X188163005Y-96857924D01*
X188242024Y-97005758D01*
X188290687Y-97166177D01*
X188307117Y-97333000D01*
X188290687Y-97499823D01*
X188242024Y-97660242D01*
X188190265Y-97757076D01*
X188163004Y-97808078D01*
X188056659Y-97937659D01*
X187927078Y-98044004D01*
X187927076Y-98044005D01*
X187779242Y-98123024D01*
X187618823Y-98171687D01*
X187493804Y-98184000D01*
X187410196Y-98184000D01*
X187285177Y-98171687D01*
X187124758Y-98123024D01*
X186976924Y-98044005D01*
X186976922Y-98044004D01*
X186847341Y-97937659D01*
X186740996Y-97808078D01*
X186713735Y-97757076D01*
X186661976Y-97660242D01*
X186613313Y-97499823D01*
X186596883Y-97333000D01*
X186613313Y-97166177D01*
X186661976Y-97005758D01*
X186740995Y-96857924D01*
X186740996Y-96857922D01*
X186847341Y-96728341D01*
X186976922Y-96621996D01*
X186992094Y-96613886D01*
X187124758Y-96542976D01*
X187285177Y-96494313D01*
X187410196Y-96482000D01*
X187493804Y-96482000D01*
X187618823Y-96494313D01*
X187618823Y-96494313D01*
G37*
G36*
X179998823Y-96494313D02*
G01*
X180159242Y-96542976D01*
X180291906Y-96613886D01*
X180307078Y-96621996D01*
X180436659Y-96728341D01*
X180543004Y-96857922D01*
X180543005Y-96857924D01*
X180622024Y-97005758D01*
X180670687Y-97166177D01*
X180687117Y-97333000D01*
X180670687Y-97499823D01*
X180622024Y-97660242D01*
X180570265Y-97757076D01*
X180543004Y-97808078D01*
X180436659Y-97937659D01*
X180307078Y-98044004D01*
X180307076Y-98044005D01*
X180159242Y-98123024D01*
X179998823Y-98171687D01*
X179873804Y-98184000D01*
X179790196Y-98184000D01*
X179665177Y-98171687D01*
X179504758Y-98123024D01*
X179356924Y-98044005D01*
X179356922Y-98044004D01*
X179227341Y-97937659D01*
X179120996Y-97808078D01*
X179093735Y-97757076D01*
X179041976Y-97660242D01*
X178993313Y-97499823D01*
X178976883Y-97333000D01*
X178993313Y-97166177D01*
X179041976Y-97005758D01*
X179120995Y-96857924D01*
X179120996Y-96857922D01*
X179227341Y-96728341D01*
X179356922Y-96621996D01*
X179372094Y-96613886D01*
X179504758Y-96542976D01*
X179665177Y-96494313D01*
X179790196Y-96482000D01*
X179873804Y-96482000D01*
X179998823Y-96494313D01*
X179998823Y-96494313D01*
G37*
G36*
X176188823Y-96494313D02*
G01*
X176349242Y-96542976D01*
X176481906Y-96613886D01*
X176497078Y-96621996D01*
X176626659Y-96728341D01*
X176733004Y-96857922D01*
X176733005Y-96857924D01*
X176812024Y-97005758D01*
X176860687Y-97166177D01*
X176877117Y-97333000D01*
X176860687Y-97499823D01*
X176812024Y-97660242D01*
X176760265Y-97757076D01*
X176733004Y-97808078D01*
X176626659Y-97937659D01*
X176497078Y-98044004D01*
X176497076Y-98044005D01*
X176349242Y-98123024D01*
X176188823Y-98171687D01*
X176063804Y-98184000D01*
X175980196Y-98184000D01*
X175855177Y-98171687D01*
X175694758Y-98123024D01*
X175546924Y-98044005D01*
X175546922Y-98044004D01*
X175417341Y-97937659D01*
X175310996Y-97808078D01*
X175283735Y-97757076D01*
X175231976Y-97660242D01*
X175183313Y-97499823D01*
X175166883Y-97333000D01*
X175183313Y-97166177D01*
X175231976Y-97005758D01*
X175310995Y-96857924D01*
X175310996Y-96857922D01*
X175417341Y-96728341D01*
X175546922Y-96621996D01*
X175562094Y-96613886D01*
X175694758Y-96542976D01*
X175855177Y-96494313D01*
X175980196Y-96482000D01*
X176063804Y-96482000D01*
X176188823Y-96494313D01*
X176188823Y-96494313D01*
G37*
G36*
X168568823Y-96494313D02*
G01*
X168729242Y-96542976D01*
X168861906Y-96613886D01*
X168877078Y-96621996D01*
X169006659Y-96728341D01*
X169113004Y-96857922D01*
X169113005Y-96857924D01*
X169192024Y-97005758D01*
X169240687Y-97166177D01*
X169257117Y-97333000D01*
X169240687Y-97499823D01*
X169192024Y-97660242D01*
X169140265Y-97757076D01*
X169113004Y-97808078D01*
X169006659Y-97937659D01*
X168877078Y-98044004D01*
X168877076Y-98044005D01*
X168729242Y-98123024D01*
X168568823Y-98171687D01*
X168443804Y-98184000D01*
X168360196Y-98184000D01*
X168235177Y-98171687D01*
X168074758Y-98123024D01*
X167926924Y-98044005D01*
X167926922Y-98044004D01*
X167797341Y-97937659D01*
X167690996Y-97808078D01*
X167663735Y-97757076D01*
X167611976Y-97660242D01*
X167563313Y-97499823D01*
X167546883Y-97333000D01*
X167563313Y-97166177D01*
X167611976Y-97005758D01*
X167690995Y-96857924D01*
X167690996Y-96857922D01*
X167797341Y-96728341D01*
X167926922Y-96621996D01*
X167942094Y-96613886D01*
X168074758Y-96542976D01*
X168235177Y-96494313D01*
X168360196Y-96482000D01*
X168443804Y-96482000D01*
X168568823Y-96494313D01*
X168568823Y-96494313D01*
G37*
G36*
X162218823Y-96494313D02*
G01*
X162379242Y-96542976D01*
X162511906Y-96613886D01*
X162527078Y-96621996D01*
X162656659Y-96728341D01*
X162763004Y-96857922D01*
X162763005Y-96857924D01*
X162842024Y-97005758D01*
X162890687Y-97166177D01*
X162907117Y-97333000D01*
X162890687Y-97499823D01*
X162842024Y-97660242D01*
X162790265Y-97757076D01*
X162763004Y-97808078D01*
X162656659Y-97937659D01*
X162527078Y-98044004D01*
X162527076Y-98044005D01*
X162379242Y-98123024D01*
X162218823Y-98171687D01*
X162093804Y-98184000D01*
X162010196Y-98184000D01*
X161885177Y-98171687D01*
X161724758Y-98123024D01*
X161576924Y-98044005D01*
X161576922Y-98044004D01*
X161447341Y-97937659D01*
X161340996Y-97808078D01*
X161313735Y-97757076D01*
X161261976Y-97660242D01*
X161213313Y-97499823D01*
X161196883Y-97333000D01*
X161213313Y-97166177D01*
X161261976Y-97005758D01*
X161340995Y-96857924D01*
X161340996Y-96857922D01*
X161447341Y-96728341D01*
X161576922Y-96621996D01*
X161592094Y-96613886D01*
X161724758Y-96542976D01*
X161885177Y-96494313D01*
X162010196Y-96482000D01*
X162093804Y-96482000D01*
X162218823Y-96494313D01*
X162218823Y-96494313D01*
G37*
G36*
X154598823Y-96494313D02*
G01*
X154759242Y-96542976D01*
X154891906Y-96613886D01*
X154907078Y-96621996D01*
X155036659Y-96728341D01*
X155143004Y-96857922D01*
X155143005Y-96857924D01*
X155222024Y-97005758D01*
X155270687Y-97166177D01*
X155287117Y-97333000D01*
X155270687Y-97499823D01*
X155222024Y-97660242D01*
X155170265Y-97757076D01*
X155143004Y-97808078D01*
X155036659Y-97937659D01*
X154907078Y-98044004D01*
X154907076Y-98044005D01*
X154759242Y-98123024D01*
X154598823Y-98171687D01*
X154473804Y-98184000D01*
X154390196Y-98184000D01*
X154265177Y-98171687D01*
X154104758Y-98123024D01*
X153956924Y-98044005D01*
X153956922Y-98044004D01*
X153827341Y-97937659D01*
X153720996Y-97808078D01*
X153693735Y-97757076D01*
X153641976Y-97660242D01*
X153593313Y-97499823D01*
X153576883Y-97333000D01*
X153593313Y-97166177D01*
X153641976Y-97005758D01*
X153720995Y-96857924D01*
X153720996Y-96857922D01*
X153827341Y-96728341D01*
X153956922Y-96621996D01*
X153972094Y-96613886D01*
X154104758Y-96542976D01*
X154265177Y-96494313D01*
X154390196Y-96482000D01*
X154473804Y-96482000D01*
X154598823Y-96494313D01*
X154598823Y-96494313D01*
G37*
G36*
X150788823Y-96494313D02*
G01*
X150949242Y-96542976D01*
X151081906Y-96613886D01*
X151097078Y-96621996D01*
X151226659Y-96728341D01*
X151333004Y-96857922D01*
X151333005Y-96857924D01*
X151412024Y-97005758D01*
X151460687Y-97166177D01*
X151477117Y-97333000D01*
X151460687Y-97499823D01*
X151412024Y-97660242D01*
X151360265Y-97757076D01*
X151333004Y-97808078D01*
X151226659Y-97937659D01*
X151097078Y-98044004D01*
X151097076Y-98044005D01*
X150949242Y-98123024D01*
X150788823Y-98171687D01*
X150663804Y-98184000D01*
X150580196Y-98184000D01*
X150455177Y-98171687D01*
X150294758Y-98123024D01*
X150146924Y-98044005D01*
X150146922Y-98044004D01*
X150017341Y-97937659D01*
X149910996Y-97808078D01*
X149883735Y-97757076D01*
X149831976Y-97660242D01*
X149783313Y-97499823D01*
X149766883Y-97333000D01*
X149783313Y-97166177D01*
X149831976Y-97005758D01*
X149910995Y-96857924D01*
X149910996Y-96857922D01*
X150017341Y-96728341D01*
X150146922Y-96621996D01*
X150162094Y-96613886D01*
X150294758Y-96542976D01*
X150455177Y-96494313D01*
X150580196Y-96482000D01*
X150663804Y-96482000D01*
X150788823Y-96494313D01*
X150788823Y-96494313D01*
G37*
G36*
X143168823Y-96494313D02*
G01*
X143329242Y-96542976D01*
X143461906Y-96613886D01*
X143477078Y-96621996D01*
X143606659Y-96728341D01*
X143713004Y-96857922D01*
X143713005Y-96857924D01*
X143792024Y-97005758D01*
X143840687Y-97166177D01*
X143857117Y-97333000D01*
X143840687Y-97499823D01*
X143792024Y-97660242D01*
X143740265Y-97757076D01*
X143713004Y-97808078D01*
X143606659Y-97937659D01*
X143477078Y-98044004D01*
X143477076Y-98044005D01*
X143329242Y-98123024D01*
X143168823Y-98171687D01*
X143043804Y-98184000D01*
X142960196Y-98184000D01*
X142835177Y-98171687D01*
X142674758Y-98123024D01*
X142526924Y-98044005D01*
X142526922Y-98044004D01*
X142397341Y-97937659D01*
X142290996Y-97808078D01*
X142263735Y-97757076D01*
X142211976Y-97660242D01*
X142163313Y-97499823D01*
X142146883Y-97333000D01*
X142163313Y-97166177D01*
X142211976Y-97005758D01*
X142290995Y-96857924D01*
X142290996Y-96857922D01*
X142397341Y-96728341D01*
X142526922Y-96621996D01*
X142542094Y-96613886D01*
X142674758Y-96542976D01*
X142835177Y-96494313D01*
X142960196Y-96482000D01*
X143043804Y-96482000D01*
X143168823Y-96494313D01*
X143168823Y-96494313D01*
G37*
G36*
X219114823Y-96443313D02*
G01*
X219275242Y-96491976D01*
X219370654Y-96542975D01*
X219423078Y-96570996D01*
X219552659Y-96677341D01*
X219659004Y-96806922D01*
X219659005Y-96806924D01*
X219738024Y-96954758D01*
X219786687Y-97115177D01*
X219803117Y-97282000D01*
X219786687Y-97448823D01*
X219738024Y-97609242D01*
X219667114Y-97741906D01*
X219659004Y-97757078D01*
X219552659Y-97886659D01*
X219423078Y-97993004D01*
X219423076Y-97993005D01*
X219275242Y-98072024D01*
X219114823Y-98120687D01*
X218989804Y-98133000D01*
X218906196Y-98133000D01*
X218781177Y-98120687D01*
X218620758Y-98072024D01*
X218472924Y-97993005D01*
X218472922Y-97993004D01*
X218343341Y-97886659D01*
X218236996Y-97757078D01*
X218228886Y-97741906D01*
X218157976Y-97609242D01*
X218109313Y-97448823D01*
X218092883Y-97282000D01*
X218109313Y-97115177D01*
X218157976Y-96954758D01*
X218236995Y-96806924D01*
X218236996Y-96806922D01*
X218343341Y-96677341D01*
X218472922Y-96570996D01*
X218525346Y-96542975D01*
X218620758Y-96491976D01*
X218781177Y-96443313D01*
X218906196Y-96431000D01*
X218989804Y-96431000D01*
X219114823Y-96443313D01*
X219114823Y-96443313D01*
G37*
G36*
X226734823Y-96443313D02*
G01*
X226895242Y-96491976D01*
X226990654Y-96542975D01*
X227043078Y-96570996D01*
X227172659Y-96677341D01*
X227279004Y-96806922D01*
X227279005Y-96806924D01*
X227358024Y-96954758D01*
X227406687Y-97115177D01*
X227423117Y-97282000D01*
X227406687Y-97448823D01*
X227358024Y-97609242D01*
X227287114Y-97741906D01*
X227279004Y-97757078D01*
X227172659Y-97886659D01*
X227043078Y-97993004D01*
X227043076Y-97993005D01*
X226895242Y-98072024D01*
X226734823Y-98120687D01*
X226609804Y-98133000D01*
X226526196Y-98133000D01*
X226401177Y-98120687D01*
X226240758Y-98072024D01*
X226092924Y-97993005D01*
X226092922Y-97993004D01*
X225963341Y-97886659D01*
X225856996Y-97757078D01*
X225848886Y-97741906D01*
X225777976Y-97609242D01*
X225729313Y-97448823D01*
X225712883Y-97282000D01*
X225729313Y-97115177D01*
X225777976Y-96954758D01*
X225856995Y-96806924D01*
X225856996Y-96806922D01*
X225963341Y-96677341D01*
X226092922Y-96570996D01*
X226145346Y-96542975D01*
X226240758Y-96491976D01*
X226401177Y-96443313D01*
X226526196Y-96431000D01*
X226609804Y-96431000D01*
X226734823Y-96443313D01*
X226734823Y-96443313D01*
G37*
G36*
X230544823Y-96443313D02*
G01*
X230705242Y-96491976D01*
X230800654Y-96542975D01*
X230853078Y-96570996D01*
X230982659Y-96677341D01*
X231089004Y-96806922D01*
X231089005Y-96806924D01*
X231168024Y-96954758D01*
X231216687Y-97115177D01*
X231233117Y-97282000D01*
X231216687Y-97448823D01*
X231168024Y-97609242D01*
X231097114Y-97741906D01*
X231089004Y-97757078D01*
X230982659Y-97886659D01*
X230853078Y-97993004D01*
X230853076Y-97993005D01*
X230705242Y-98072024D01*
X230544823Y-98120687D01*
X230419804Y-98133000D01*
X230336196Y-98133000D01*
X230211177Y-98120687D01*
X230050758Y-98072024D01*
X229902924Y-97993005D01*
X229902922Y-97993004D01*
X229773341Y-97886659D01*
X229666996Y-97757078D01*
X229658886Y-97741906D01*
X229587976Y-97609242D01*
X229539313Y-97448823D01*
X229522883Y-97282000D01*
X229539313Y-97115177D01*
X229587976Y-96954758D01*
X229666995Y-96806924D01*
X229666996Y-96806922D01*
X229773341Y-96677341D01*
X229902922Y-96570996D01*
X229955346Y-96542975D01*
X230050758Y-96491976D01*
X230211177Y-96443313D01*
X230336196Y-96431000D01*
X230419804Y-96431000D01*
X230544823Y-96443313D01*
X230544823Y-96443313D01*
G37*
G36*
X238164823Y-96443313D02*
G01*
X238325242Y-96491976D01*
X238420654Y-96542975D01*
X238473078Y-96570996D01*
X238602659Y-96677341D01*
X238709004Y-96806922D01*
X238709005Y-96806924D01*
X238788024Y-96954758D01*
X238836687Y-97115177D01*
X238853117Y-97282000D01*
X238836687Y-97448823D01*
X238788024Y-97609242D01*
X238717114Y-97741906D01*
X238709004Y-97757078D01*
X238602659Y-97886659D01*
X238473078Y-97993004D01*
X238473076Y-97993005D01*
X238325242Y-98072024D01*
X238164823Y-98120687D01*
X238039804Y-98133000D01*
X237956196Y-98133000D01*
X237831177Y-98120687D01*
X237670758Y-98072024D01*
X237522924Y-97993005D01*
X237522922Y-97993004D01*
X237393341Y-97886659D01*
X237286996Y-97757078D01*
X237278886Y-97741906D01*
X237207976Y-97609242D01*
X237159313Y-97448823D01*
X237142883Y-97282000D01*
X237159313Y-97115177D01*
X237207976Y-96954758D01*
X237286995Y-96806924D01*
X237286996Y-96806922D01*
X237393341Y-96677341D01*
X237522922Y-96570996D01*
X237575346Y-96542975D01*
X237670758Y-96491976D01*
X237831177Y-96443313D01*
X237956196Y-96431000D01*
X238039804Y-96431000D01*
X238164823Y-96443313D01*
X238164823Y-96443313D01*
G37*
G36*
X193816823Y-96417913D02*
G01*
X193977242Y-96466576D01*
X194109906Y-96537486D01*
X194125078Y-96545596D01*
X194254659Y-96651941D01*
X194361004Y-96781522D01*
X194361005Y-96781524D01*
X194440024Y-96929358D01*
X194488687Y-97089777D01*
X194505117Y-97256600D01*
X194488687Y-97423423D01*
X194440024Y-97583842D01*
X194426449Y-97609239D01*
X194361004Y-97731678D01*
X194254659Y-97861259D01*
X194125078Y-97967604D01*
X194125076Y-97967605D01*
X193977242Y-98046624D01*
X193816823Y-98095287D01*
X193691804Y-98107600D01*
X193608196Y-98107600D01*
X193483177Y-98095287D01*
X193322758Y-98046624D01*
X193174924Y-97967605D01*
X193174922Y-97967604D01*
X193045341Y-97861259D01*
X192938996Y-97731678D01*
X192873551Y-97609239D01*
X192859976Y-97583842D01*
X192811313Y-97423423D01*
X192794883Y-97256600D01*
X192811313Y-97089777D01*
X192859976Y-96929358D01*
X192938995Y-96781524D01*
X192938996Y-96781522D01*
X193045341Y-96651941D01*
X193174922Y-96545596D01*
X193190094Y-96537486D01*
X193322758Y-96466576D01*
X193483177Y-96417913D01*
X193608196Y-96405600D01*
X193691804Y-96405600D01*
X193816823Y-96417913D01*
X193816823Y-96417913D01*
G37*
G36*
X205246823Y-96417913D02*
G01*
X205407242Y-96466576D01*
X205539906Y-96537486D01*
X205555078Y-96545596D01*
X205684659Y-96651941D01*
X205791004Y-96781522D01*
X205791005Y-96781524D01*
X205870024Y-96929358D01*
X205918687Y-97089777D01*
X205935117Y-97256600D01*
X205918687Y-97423423D01*
X205870024Y-97583842D01*
X205856449Y-97609239D01*
X205791004Y-97731678D01*
X205684659Y-97861259D01*
X205555078Y-97967604D01*
X205555076Y-97967605D01*
X205407242Y-98046624D01*
X205246823Y-98095287D01*
X205121804Y-98107600D01*
X205038196Y-98107600D01*
X204913177Y-98095287D01*
X204752758Y-98046624D01*
X204604924Y-97967605D01*
X204604922Y-97967604D01*
X204475341Y-97861259D01*
X204368996Y-97731678D01*
X204303551Y-97609239D01*
X204289976Y-97583842D01*
X204241313Y-97423423D01*
X204224883Y-97256600D01*
X204241313Y-97089777D01*
X204289976Y-96929358D01*
X204368995Y-96781524D01*
X204368996Y-96781522D01*
X204475341Y-96651941D01*
X204604922Y-96545596D01*
X204620094Y-96537486D01*
X204752758Y-96466576D01*
X204913177Y-96417913D01*
X205038196Y-96405600D01*
X205121804Y-96405600D01*
X205246823Y-96417913D01*
X205246823Y-96417913D01*
G37*
G36*
X201436823Y-96417913D02*
G01*
X201597242Y-96466576D01*
X201729906Y-96537486D01*
X201745078Y-96545596D01*
X201874659Y-96651941D01*
X201981004Y-96781522D01*
X201981005Y-96781524D01*
X202060024Y-96929358D01*
X202108687Y-97089777D01*
X202125117Y-97256600D01*
X202108687Y-97423423D01*
X202060024Y-97583842D01*
X202046449Y-97609239D01*
X201981004Y-97731678D01*
X201874659Y-97861259D01*
X201745078Y-97967604D01*
X201745076Y-97967605D01*
X201597242Y-98046624D01*
X201436823Y-98095287D01*
X201311804Y-98107600D01*
X201228196Y-98107600D01*
X201103177Y-98095287D01*
X200942758Y-98046624D01*
X200794924Y-97967605D01*
X200794922Y-97967604D01*
X200665341Y-97861259D01*
X200558996Y-97731678D01*
X200493551Y-97609239D01*
X200479976Y-97583842D01*
X200431313Y-97423423D01*
X200414883Y-97256600D01*
X200431313Y-97089777D01*
X200479976Y-96929358D01*
X200558995Y-96781524D01*
X200558996Y-96781522D01*
X200665341Y-96651941D01*
X200794922Y-96545596D01*
X200810094Y-96537486D01*
X200942758Y-96466576D01*
X201103177Y-96417913D01*
X201228196Y-96405600D01*
X201311804Y-96405600D01*
X201436823Y-96417913D01*
X201436823Y-96417913D01*
G37*
G36*
X212866823Y-96417913D02*
G01*
X213027242Y-96466576D01*
X213159906Y-96537486D01*
X213175078Y-96545596D01*
X213304659Y-96651941D01*
X213411004Y-96781522D01*
X213411005Y-96781524D01*
X213490024Y-96929358D01*
X213538687Y-97089777D01*
X213555117Y-97256600D01*
X213538687Y-97423423D01*
X213490024Y-97583842D01*
X213476449Y-97609239D01*
X213411004Y-97731678D01*
X213304659Y-97861259D01*
X213175078Y-97967604D01*
X213175076Y-97967605D01*
X213027242Y-98046624D01*
X212866823Y-98095287D01*
X212741804Y-98107600D01*
X212658196Y-98107600D01*
X212533177Y-98095287D01*
X212372758Y-98046624D01*
X212224924Y-97967605D01*
X212224922Y-97967604D01*
X212095341Y-97861259D01*
X211988996Y-97731678D01*
X211923551Y-97609239D01*
X211909976Y-97583842D01*
X211861313Y-97423423D01*
X211844883Y-97256600D01*
X211861313Y-97089777D01*
X211909976Y-96929358D01*
X211988995Y-96781524D01*
X211988996Y-96781522D01*
X212095341Y-96651941D01*
X212224922Y-96545596D01*
X212240094Y-96537486D01*
X212372758Y-96466576D01*
X212533177Y-96417913D01*
X212658196Y-96405600D01*
X212741804Y-96405600D01*
X212866823Y-96417913D01*
X212866823Y-96417913D01*
G37*
G36*
X187618823Y-93954313D02*
G01*
X187779242Y-94002976D01*
X187911906Y-94073886D01*
X187927078Y-94081996D01*
X188056659Y-94188341D01*
X188163004Y-94317922D01*
X188163005Y-94317924D01*
X188242024Y-94465758D01*
X188290687Y-94626177D01*
X188307117Y-94793000D01*
X188290687Y-94959823D01*
X188242024Y-95120242D01*
X188190265Y-95217076D01*
X188163004Y-95268078D01*
X188056659Y-95397659D01*
X187927078Y-95504004D01*
X187927076Y-95504005D01*
X187779242Y-95583024D01*
X187618823Y-95631687D01*
X187493804Y-95644000D01*
X187410196Y-95644000D01*
X187285177Y-95631687D01*
X187124758Y-95583024D01*
X186976924Y-95504005D01*
X186976922Y-95504004D01*
X186847341Y-95397659D01*
X186740996Y-95268078D01*
X186713735Y-95217076D01*
X186661976Y-95120242D01*
X186613313Y-94959823D01*
X186596883Y-94793000D01*
X186613313Y-94626177D01*
X186661976Y-94465758D01*
X186740995Y-94317924D01*
X186740996Y-94317922D01*
X186847341Y-94188341D01*
X186976922Y-94081996D01*
X186992094Y-94073886D01*
X187124758Y-94002976D01*
X187285177Y-93954313D01*
X187410196Y-93942000D01*
X187493804Y-93942000D01*
X187618823Y-93954313D01*
X187618823Y-93954313D01*
G37*
G36*
X162218823Y-93954313D02*
G01*
X162379242Y-94002976D01*
X162511906Y-94073886D01*
X162527078Y-94081996D01*
X162656659Y-94188341D01*
X162763004Y-94317922D01*
X162763005Y-94317924D01*
X162842024Y-94465758D01*
X162890687Y-94626177D01*
X162907117Y-94793000D01*
X162890687Y-94959823D01*
X162842024Y-95120242D01*
X162790265Y-95217076D01*
X162763004Y-95268078D01*
X162656659Y-95397659D01*
X162527078Y-95504004D01*
X162527076Y-95504005D01*
X162379242Y-95583024D01*
X162218823Y-95631687D01*
X162093804Y-95644000D01*
X162010196Y-95644000D01*
X161885177Y-95631687D01*
X161724758Y-95583024D01*
X161576924Y-95504005D01*
X161576922Y-95504004D01*
X161447341Y-95397659D01*
X161340996Y-95268078D01*
X161313735Y-95217076D01*
X161261976Y-95120242D01*
X161213313Y-94959823D01*
X161196883Y-94793000D01*
X161213313Y-94626177D01*
X161261976Y-94465758D01*
X161340995Y-94317924D01*
X161340996Y-94317922D01*
X161447341Y-94188341D01*
X161576922Y-94081996D01*
X161592094Y-94073886D01*
X161724758Y-94002976D01*
X161885177Y-93954313D01*
X162010196Y-93942000D01*
X162093804Y-93942000D01*
X162218823Y-93954313D01*
X162218823Y-93954313D01*
G37*
G36*
X154598823Y-93954313D02*
G01*
X154759242Y-94002976D01*
X154891906Y-94073886D01*
X154907078Y-94081996D01*
X155036659Y-94188341D01*
X155143004Y-94317922D01*
X155143005Y-94317924D01*
X155222024Y-94465758D01*
X155270687Y-94626177D01*
X155287117Y-94793000D01*
X155270687Y-94959823D01*
X155222024Y-95120242D01*
X155170265Y-95217076D01*
X155143004Y-95268078D01*
X155036659Y-95397659D01*
X154907078Y-95504004D01*
X154907076Y-95504005D01*
X154759242Y-95583024D01*
X154598823Y-95631687D01*
X154473804Y-95644000D01*
X154390196Y-95644000D01*
X154265177Y-95631687D01*
X154104758Y-95583024D01*
X153956924Y-95504005D01*
X153956922Y-95504004D01*
X153827341Y-95397659D01*
X153720996Y-95268078D01*
X153693735Y-95217076D01*
X153641976Y-95120242D01*
X153593313Y-94959823D01*
X153576883Y-94793000D01*
X153593313Y-94626177D01*
X153641976Y-94465758D01*
X153720995Y-94317924D01*
X153720996Y-94317922D01*
X153827341Y-94188341D01*
X153956922Y-94081996D01*
X153972094Y-94073886D01*
X154104758Y-94002976D01*
X154265177Y-93954313D01*
X154390196Y-93942000D01*
X154473804Y-93942000D01*
X154598823Y-93954313D01*
X154598823Y-93954313D01*
G37*
G36*
X179998823Y-93954313D02*
G01*
X180159242Y-94002976D01*
X180291906Y-94073886D01*
X180307078Y-94081996D01*
X180436659Y-94188341D01*
X180543004Y-94317922D01*
X180543005Y-94317924D01*
X180622024Y-94465758D01*
X180670687Y-94626177D01*
X180687117Y-94793000D01*
X180670687Y-94959823D01*
X180622024Y-95120242D01*
X180570265Y-95217076D01*
X180543004Y-95268078D01*
X180436659Y-95397659D01*
X180307078Y-95504004D01*
X180307076Y-95504005D01*
X180159242Y-95583024D01*
X179998823Y-95631687D01*
X179873804Y-95644000D01*
X179790196Y-95644000D01*
X179665177Y-95631687D01*
X179504758Y-95583024D01*
X179356924Y-95504005D01*
X179356922Y-95504004D01*
X179227341Y-95397659D01*
X179120996Y-95268078D01*
X179093735Y-95217076D01*
X179041976Y-95120242D01*
X178993313Y-94959823D01*
X178976883Y-94793000D01*
X178993313Y-94626177D01*
X179041976Y-94465758D01*
X179120995Y-94317924D01*
X179120996Y-94317922D01*
X179227341Y-94188341D01*
X179356922Y-94081996D01*
X179372094Y-94073886D01*
X179504758Y-94002976D01*
X179665177Y-93954313D01*
X179790196Y-93942000D01*
X179873804Y-93942000D01*
X179998823Y-93954313D01*
X179998823Y-93954313D01*
G37*
G36*
X168568823Y-93954313D02*
G01*
X168729242Y-94002976D01*
X168861906Y-94073886D01*
X168877078Y-94081996D01*
X169006659Y-94188341D01*
X169113004Y-94317922D01*
X169113005Y-94317924D01*
X169192024Y-94465758D01*
X169240687Y-94626177D01*
X169257117Y-94793000D01*
X169240687Y-94959823D01*
X169192024Y-95120242D01*
X169140265Y-95217076D01*
X169113004Y-95268078D01*
X169006659Y-95397659D01*
X168877078Y-95504004D01*
X168877076Y-95504005D01*
X168729242Y-95583024D01*
X168568823Y-95631687D01*
X168443804Y-95644000D01*
X168360196Y-95644000D01*
X168235177Y-95631687D01*
X168074758Y-95583024D01*
X167926924Y-95504005D01*
X167926922Y-95504004D01*
X167797341Y-95397659D01*
X167690996Y-95268078D01*
X167663735Y-95217076D01*
X167611976Y-95120242D01*
X167563313Y-94959823D01*
X167546883Y-94793000D01*
X167563313Y-94626177D01*
X167611976Y-94465758D01*
X167690995Y-94317924D01*
X167690996Y-94317922D01*
X167797341Y-94188341D01*
X167926922Y-94081996D01*
X167942094Y-94073886D01*
X168074758Y-94002976D01*
X168235177Y-93954313D01*
X168360196Y-93942000D01*
X168443804Y-93942000D01*
X168568823Y-93954313D01*
X168568823Y-93954313D01*
G37*
G36*
X176188823Y-93954313D02*
G01*
X176349242Y-94002976D01*
X176481906Y-94073886D01*
X176497078Y-94081996D01*
X176626659Y-94188341D01*
X176733004Y-94317922D01*
X176733005Y-94317924D01*
X176812024Y-94465758D01*
X176860687Y-94626177D01*
X176877117Y-94793000D01*
X176860687Y-94959823D01*
X176812024Y-95120242D01*
X176760265Y-95217076D01*
X176733004Y-95268078D01*
X176626659Y-95397659D01*
X176497078Y-95504004D01*
X176497076Y-95504005D01*
X176349242Y-95583024D01*
X176188823Y-95631687D01*
X176063804Y-95644000D01*
X175980196Y-95644000D01*
X175855177Y-95631687D01*
X175694758Y-95583024D01*
X175546924Y-95504005D01*
X175546922Y-95504004D01*
X175417341Y-95397659D01*
X175310996Y-95268078D01*
X175283735Y-95217076D01*
X175231976Y-95120242D01*
X175183313Y-94959823D01*
X175166883Y-94793000D01*
X175183313Y-94626177D01*
X175231976Y-94465758D01*
X175310995Y-94317924D01*
X175310996Y-94317922D01*
X175417341Y-94188341D01*
X175546922Y-94081996D01*
X175562094Y-94073886D01*
X175694758Y-94002976D01*
X175855177Y-93954313D01*
X175980196Y-93942000D01*
X176063804Y-93942000D01*
X176188823Y-93954313D01*
X176188823Y-93954313D01*
G37*
G36*
X143168823Y-93954313D02*
G01*
X143329242Y-94002976D01*
X143461906Y-94073886D01*
X143477078Y-94081996D01*
X143606659Y-94188341D01*
X143713004Y-94317922D01*
X143713005Y-94317924D01*
X143792024Y-94465758D01*
X143840687Y-94626177D01*
X143857117Y-94793000D01*
X143840687Y-94959823D01*
X143792024Y-95120242D01*
X143740265Y-95217076D01*
X143713004Y-95268078D01*
X143606659Y-95397659D01*
X143477078Y-95504004D01*
X143477076Y-95504005D01*
X143329242Y-95583024D01*
X143168823Y-95631687D01*
X143043804Y-95644000D01*
X142960196Y-95644000D01*
X142835177Y-95631687D01*
X142674758Y-95583024D01*
X142526924Y-95504005D01*
X142526922Y-95504004D01*
X142397341Y-95397659D01*
X142290996Y-95268078D01*
X142263735Y-95217076D01*
X142211976Y-95120242D01*
X142163313Y-94959823D01*
X142146883Y-94793000D01*
X142163313Y-94626177D01*
X142211976Y-94465758D01*
X142290995Y-94317924D01*
X142290996Y-94317922D01*
X142397341Y-94188341D01*
X142526922Y-94081996D01*
X142542094Y-94073886D01*
X142674758Y-94002976D01*
X142835177Y-93954313D01*
X142960196Y-93942000D01*
X143043804Y-93942000D01*
X143168823Y-93954313D01*
X143168823Y-93954313D01*
G37*
G36*
X150788823Y-93954313D02*
G01*
X150949242Y-94002976D01*
X151081906Y-94073886D01*
X151097078Y-94081996D01*
X151226659Y-94188341D01*
X151333004Y-94317922D01*
X151333005Y-94317924D01*
X151412024Y-94465758D01*
X151460687Y-94626177D01*
X151477117Y-94793000D01*
X151460687Y-94959823D01*
X151412024Y-95120242D01*
X151360265Y-95217076D01*
X151333004Y-95268078D01*
X151226659Y-95397659D01*
X151097078Y-95504004D01*
X151097076Y-95504005D01*
X150949242Y-95583024D01*
X150788823Y-95631687D01*
X150663804Y-95644000D01*
X150580196Y-95644000D01*
X150455177Y-95631687D01*
X150294758Y-95583024D01*
X150146924Y-95504005D01*
X150146922Y-95504004D01*
X150017341Y-95397659D01*
X149910996Y-95268078D01*
X149883735Y-95217076D01*
X149831976Y-95120242D01*
X149783313Y-94959823D01*
X149766883Y-94793000D01*
X149783313Y-94626177D01*
X149831976Y-94465758D01*
X149910995Y-94317924D01*
X149910996Y-94317922D01*
X150017341Y-94188341D01*
X150146922Y-94081996D01*
X150162094Y-94073886D01*
X150294758Y-94002976D01*
X150455177Y-93954313D01*
X150580196Y-93942000D01*
X150663804Y-93942000D01*
X150788823Y-93954313D01*
X150788823Y-93954313D01*
G37*
G36*
X230544823Y-93903313D02*
G01*
X230705242Y-93951976D01*
X230800654Y-94002975D01*
X230853078Y-94030996D01*
X230982659Y-94137341D01*
X231089004Y-94266922D01*
X231089005Y-94266924D01*
X231168024Y-94414758D01*
X231216687Y-94575177D01*
X231233117Y-94742000D01*
X231216687Y-94908823D01*
X231168024Y-95069242D01*
X231097114Y-95201906D01*
X231089004Y-95217078D01*
X230982659Y-95346659D01*
X230853078Y-95453004D01*
X230853076Y-95453005D01*
X230705242Y-95532024D01*
X230544823Y-95580687D01*
X230419804Y-95593000D01*
X230336196Y-95593000D01*
X230211177Y-95580687D01*
X230050758Y-95532024D01*
X229902924Y-95453005D01*
X229902922Y-95453004D01*
X229773341Y-95346659D01*
X229666996Y-95217078D01*
X229658886Y-95201906D01*
X229587976Y-95069242D01*
X229539313Y-94908823D01*
X229522883Y-94742000D01*
X229539313Y-94575177D01*
X229587976Y-94414758D01*
X229666995Y-94266924D01*
X229666996Y-94266922D01*
X229773341Y-94137341D01*
X229902922Y-94030996D01*
X229955346Y-94002975D01*
X230050758Y-93951976D01*
X230211177Y-93903313D01*
X230336196Y-93891000D01*
X230419804Y-93891000D01*
X230544823Y-93903313D01*
X230544823Y-93903313D01*
G37*
G36*
X226734823Y-93903313D02*
G01*
X226895242Y-93951976D01*
X226990654Y-94002975D01*
X227043078Y-94030996D01*
X227172659Y-94137341D01*
X227279004Y-94266922D01*
X227279005Y-94266924D01*
X227358024Y-94414758D01*
X227406687Y-94575177D01*
X227423117Y-94742000D01*
X227406687Y-94908823D01*
X227358024Y-95069242D01*
X227287114Y-95201906D01*
X227279004Y-95217078D01*
X227172659Y-95346659D01*
X227043078Y-95453004D01*
X227043076Y-95453005D01*
X226895242Y-95532024D01*
X226734823Y-95580687D01*
X226609804Y-95593000D01*
X226526196Y-95593000D01*
X226401177Y-95580687D01*
X226240758Y-95532024D01*
X226092924Y-95453005D01*
X226092922Y-95453004D01*
X225963341Y-95346659D01*
X225856996Y-95217078D01*
X225848886Y-95201906D01*
X225777976Y-95069242D01*
X225729313Y-94908823D01*
X225712883Y-94742000D01*
X225729313Y-94575177D01*
X225777976Y-94414758D01*
X225856995Y-94266924D01*
X225856996Y-94266922D01*
X225963341Y-94137341D01*
X226092922Y-94030996D01*
X226145346Y-94002975D01*
X226240758Y-93951976D01*
X226401177Y-93903313D01*
X226526196Y-93891000D01*
X226609804Y-93891000D01*
X226734823Y-93903313D01*
X226734823Y-93903313D01*
G37*
G36*
X219114823Y-93903313D02*
G01*
X219275242Y-93951976D01*
X219370654Y-94002975D01*
X219423078Y-94030996D01*
X219552659Y-94137341D01*
X219659004Y-94266922D01*
X219659005Y-94266924D01*
X219738024Y-94414758D01*
X219786687Y-94575177D01*
X219803117Y-94742000D01*
X219786687Y-94908823D01*
X219738024Y-95069242D01*
X219667114Y-95201906D01*
X219659004Y-95217078D01*
X219552659Y-95346659D01*
X219423078Y-95453004D01*
X219423076Y-95453005D01*
X219275242Y-95532024D01*
X219114823Y-95580687D01*
X218989804Y-95593000D01*
X218906196Y-95593000D01*
X218781177Y-95580687D01*
X218620758Y-95532024D01*
X218472924Y-95453005D01*
X218472922Y-95453004D01*
X218343341Y-95346659D01*
X218236996Y-95217078D01*
X218228886Y-95201906D01*
X218157976Y-95069242D01*
X218109313Y-94908823D01*
X218092883Y-94742000D01*
X218109313Y-94575177D01*
X218157976Y-94414758D01*
X218236995Y-94266924D01*
X218236996Y-94266922D01*
X218343341Y-94137341D01*
X218472922Y-94030996D01*
X218525346Y-94002975D01*
X218620758Y-93951976D01*
X218781177Y-93903313D01*
X218906196Y-93891000D01*
X218989804Y-93891000D01*
X219114823Y-93903313D01*
X219114823Y-93903313D01*
G37*
G36*
X238164823Y-93903313D02*
G01*
X238325242Y-93951976D01*
X238420654Y-94002975D01*
X238473078Y-94030996D01*
X238602659Y-94137341D01*
X238709004Y-94266922D01*
X238709005Y-94266924D01*
X238788024Y-94414758D01*
X238836687Y-94575177D01*
X238853117Y-94742000D01*
X238836687Y-94908823D01*
X238788024Y-95069242D01*
X238717114Y-95201906D01*
X238709004Y-95217078D01*
X238602659Y-95346659D01*
X238473078Y-95453004D01*
X238473076Y-95453005D01*
X238325242Y-95532024D01*
X238164823Y-95580687D01*
X238039804Y-95593000D01*
X237956196Y-95593000D01*
X237831177Y-95580687D01*
X237670758Y-95532024D01*
X237522924Y-95453005D01*
X237522922Y-95453004D01*
X237393341Y-95346659D01*
X237286996Y-95217078D01*
X237278886Y-95201906D01*
X237207976Y-95069242D01*
X237159313Y-94908823D01*
X237142883Y-94742000D01*
X237159313Y-94575177D01*
X237207976Y-94414758D01*
X237286995Y-94266924D01*
X237286996Y-94266922D01*
X237393341Y-94137341D01*
X237522922Y-94030996D01*
X237575346Y-94002975D01*
X237670758Y-93951976D01*
X237831177Y-93903313D01*
X237956196Y-93891000D01*
X238039804Y-93891000D01*
X238164823Y-93903313D01*
X238164823Y-93903313D01*
G37*
G36*
X205246823Y-93877913D02*
G01*
X205407242Y-93926576D01*
X205539906Y-93997486D01*
X205555078Y-94005596D01*
X205684659Y-94111941D01*
X205791004Y-94241522D01*
X205791005Y-94241524D01*
X205870024Y-94389358D01*
X205918687Y-94549777D01*
X205935117Y-94716600D01*
X205918687Y-94883423D01*
X205870024Y-95043842D01*
X205856449Y-95069239D01*
X205791004Y-95191678D01*
X205684659Y-95321259D01*
X205555078Y-95427604D01*
X205555076Y-95427605D01*
X205407242Y-95506624D01*
X205246823Y-95555287D01*
X205121804Y-95567600D01*
X205038196Y-95567600D01*
X204913177Y-95555287D01*
X204752758Y-95506624D01*
X204604924Y-95427605D01*
X204604922Y-95427604D01*
X204475341Y-95321259D01*
X204368996Y-95191678D01*
X204303551Y-95069239D01*
X204289976Y-95043842D01*
X204241313Y-94883423D01*
X204224883Y-94716600D01*
X204241313Y-94549777D01*
X204289976Y-94389358D01*
X204368995Y-94241524D01*
X204368996Y-94241522D01*
X204475341Y-94111941D01*
X204604922Y-94005596D01*
X204620094Y-93997486D01*
X204752758Y-93926576D01*
X204913177Y-93877913D01*
X205038196Y-93865600D01*
X205121804Y-93865600D01*
X205246823Y-93877913D01*
X205246823Y-93877913D01*
G37*
G36*
X212866823Y-93877913D02*
G01*
X213027242Y-93926576D01*
X213159906Y-93997486D01*
X213175078Y-94005596D01*
X213304659Y-94111941D01*
X213411004Y-94241522D01*
X213411005Y-94241524D01*
X213490024Y-94389358D01*
X213538687Y-94549777D01*
X213555117Y-94716600D01*
X213538687Y-94883423D01*
X213490024Y-95043842D01*
X213476449Y-95069239D01*
X213411004Y-95191678D01*
X213304659Y-95321259D01*
X213175078Y-95427604D01*
X213175076Y-95427605D01*
X213027242Y-95506624D01*
X212866823Y-95555287D01*
X212741804Y-95567600D01*
X212658196Y-95567600D01*
X212533177Y-95555287D01*
X212372758Y-95506624D01*
X212224924Y-95427605D01*
X212224922Y-95427604D01*
X212095341Y-95321259D01*
X211988996Y-95191678D01*
X211923551Y-95069239D01*
X211909976Y-95043842D01*
X211861313Y-94883423D01*
X211844883Y-94716600D01*
X211861313Y-94549777D01*
X211909976Y-94389358D01*
X211988995Y-94241524D01*
X211988996Y-94241522D01*
X212095341Y-94111941D01*
X212224922Y-94005596D01*
X212240094Y-93997486D01*
X212372758Y-93926576D01*
X212533177Y-93877913D01*
X212658196Y-93865600D01*
X212741804Y-93865600D01*
X212866823Y-93877913D01*
X212866823Y-93877913D01*
G37*
G36*
X201436823Y-93877913D02*
G01*
X201597242Y-93926576D01*
X201729906Y-93997486D01*
X201745078Y-94005596D01*
X201874659Y-94111941D01*
X201981004Y-94241522D01*
X201981005Y-94241524D01*
X202060024Y-94389358D01*
X202108687Y-94549777D01*
X202125117Y-94716600D01*
X202108687Y-94883423D01*
X202060024Y-95043842D01*
X202046449Y-95069239D01*
X201981004Y-95191678D01*
X201874659Y-95321259D01*
X201745078Y-95427604D01*
X201745076Y-95427605D01*
X201597242Y-95506624D01*
X201436823Y-95555287D01*
X201311804Y-95567600D01*
X201228196Y-95567600D01*
X201103177Y-95555287D01*
X200942758Y-95506624D01*
X200794924Y-95427605D01*
X200794922Y-95427604D01*
X200665341Y-95321259D01*
X200558996Y-95191678D01*
X200493551Y-95069239D01*
X200479976Y-95043842D01*
X200431313Y-94883423D01*
X200414883Y-94716600D01*
X200431313Y-94549777D01*
X200479976Y-94389358D01*
X200558995Y-94241524D01*
X200558996Y-94241522D01*
X200665341Y-94111941D01*
X200794922Y-94005596D01*
X200810094Y-93997486D01*
X200942758Y-93926576D01*
X201103177Y-93877913D01*
X201228196Y-93865600D01*
X201311804Y-93865600D01*
X201436823Y-93877913D01*
X201436823Y-93877913D01*
G37*
G36*
X193816823Y-93877913D02*
G01*
X193977242Y-93926576D01*
X194109906Y-93997486D01*
X194125078Y-94005596D01*
X194254659Y-94111941D01*
X194361004Y-94241522D01*
X194361005Y-94241524D01*
X194440024Y-94389358D01*
X194488687Y-94549777D01*
X194505117Y-94716600D01*
X194488687Y-94883423D01*
X194440024Y-95043842D01*
X194426449Y-95069239D01*
X194361004Y-95191678D01*
X194254659Y-95321259D01*
X194125078Y-95427604D01*
X194125076Y-95427605D01*
X193977242Y-95506624D01*
X193816823Y-95555287D01*
X193691804Y-95567600D01*
X193608196Y-95567600D01*
X193483177Y-95555287D01*
X193322758Y-95506624D01*
X193174924Y-95427605D01*
X193174922Y-95427604D01*
X193045341Y-95321259D01*
X192938996Y-95191678D01*
X192873551Y-95069239D01*
X192859976Y-95043842D01*
X192811313Y-94883423D01*
X192794883Y-94716600D01*
X192811313Y-94549777D01*
X192859976Y-94389358D01*
X192938995Y-94241524D01*
X192938996Y-94241522D01*
X193045341Y-94111941D01*
X193174922Y-94005596D01*
X193190094Y-93997486D01*
X193322758Y-93926576D01*
X193483177Y-93877913D01*
X193608196Y-93865600D01*
X193691804Y-93865600D01*
X193816823Y-93877913D01*
X193816823Y-93877913D01*
G37*
G36*
X154598823Y-91414313D02*
G01*
X154759242Y-91462976D01*
X154891906Y-91533886D01*
X154907078Y-91541996D01*
X155036659Y-91648341D01*
X155143004Y-91777922D01*
X155143005Y-91777924D01*
X155222024Y-91925758D01*
X155270687Y-92086177D01*
X155287117Y-92253000D01*
X155270687Y-92419823D01*
X155222024Y-92580242D01*
X155170265Y-92677076D01*
X155143004Y-92728078D01*
X155036659Y-92857659D01*
X154907078Y-92964004D01*
X154907076Y-92964005D01*
X154759242Y-93043024D01*
X154598823Y-93091687D01*
X154473804Y-93104000D01*
X154390196Y-93104000D01*
X154265177Y-93091687D01*
X154104758Y-93043024D01*
X153956924Y-92964005D01*
X153956922Y-92964004D01*
X153827341Y-92857659D01*
X153720996Y-92728078D01*
X153693735Y-92677076D01*
X153641976Y-92580242D01*
X153593313Y-92419823D01*
X153576883Y-92253000D01*
X153593313Y-92086177D01*
X153641976Y-91925758D01*
X153720995Y-91777924D01*
X153720996Y-91777922D01*
X153827341Y-91648341D01*
X153956922Y-91541996D01*
X153972094Y-91533886D01*
X154104758Y-91462976D01*
X154265177Y-91414313D01*
X154390196Y-91402000D01*
X154473804Y-91402000D01*
X154598823Y-91414313D01*
X154598823Y-91414313D01*
G37*
G36*
X179998823Y-91414313D02*
G01*
X180159242Y-91462976D01*
X180291906Y-91533886D01*
X180307078Y-91541996D01*
X180436659Y-91648341D01*
X180543004Y-91777922D01*
X180543005Y-91777924D01*
X180622024Y-91925758D01*
X180670687Y-92086177D01*
X180687117Y-92253000D01*
X180670687Y-92419823D01*
X180622024Y-92580242D01*
X180570265Y-92677076D01*
X180543004Y-92728078D01*
X180436659Y-92857659D01*
X180307078Y-92964004D01*
X180307076Y-92964005D01*
X180159242Y-93043024D01*
X179998823Y-93091687D01*
X179873804Y-93104000D01*
X179790196Y-93104000D01*
X179665177Y-93091687D01*
X179504758Y-93043024D01*
X179356924Y-92964005D01*
X179356922Y-92964004D01*
X179227341Y-92857659D01*
X179120996Y-92728078D01*
X179093735Y-92677076D01*
X179041976Y-92580242D01*
X178993313Y-92419823D01*
X178976883Y-92253000D01*
X178993313Y-92086177D01*
X179041976Y-91925758D01*
X179120995Y-91777924D01*
X179120996Y-91777922D01*
X179227341Y-91648341D01*
X179356922Y-91541996D01*
X179372094Y-91533886D01*
X179504758Y-91462976D01*
X179665177Y-91414313D01*
X179790196Y-91402000D01*
X179873804Y-91402000D01*
X179998823Y-91414313D01*
X179998823Y-91414313D01*
G37*
G36*
X162218823Y-91414313D02*
G01*
X162379242Y-91462976D01*
X162511906Y-91533886D01*
X162527078Y-91541996D01*
X162656659Y-91648341D01*
X162763004Y-91777922D01*
X162763005Y-91777924D01*
X162842024Y-91925758D01*
X162890687Y-92086177D01*
X162907117Y-92253000D01*
X162890687Y-92419823D01*
X162842024Y-92580242D01*
X162790265Y-92677076D01*
X162763004Y-92728078D01*
X162656659Y-92857659D01*
X162527078Y-92964004D01*
X162527076Y-92964005D01*
X162379242Y-93043024D01*
X162218823Y-93091687D01*
X162093804Y-93104000D01*
X162010196Y-93104000D01*
X161885177Y-93091687D01*
X161724758Y-93043024D01*
X161576924Y-92964005D01*
X161576922Y-92964004D01*
X161447341Y-92857659D01*
X161340996Y-92728078D01*
X161313735Y-92677076D01*
X161261976Y-92580242D01*
X161213313Y-92419823D01*
X161196883Y-92253000D01*
X161213313Y-92086177D01*
X161261976Y-91925758D01*
X161340995Y-91777924D01*
X161340996Y-91777922D01*
X161447341Y-91648341D01*
X161576922Y-91541996D01*
X161592094Y-91533886D01*
X161724758Y-91462976D01*
X161885177Y-91414313D01*
X162010196Y-91402000D01*
X162093804Y-91402000D01*
X162218823Y-91414313D01*
X162218823Y-91414313D01*
G37*
G36*
X150788823Y-91414313D02*
G01*
X150949242Y-91462976D01*
X151081906Y-91533886D01*
X151097078Y-91541996D01*
X151226659Y-91648341D01*
X151333004Y-91777922D01*
X151333005Y-91777924D01*
X151412024Y-91925758D01*
X151460687Y-92086177D01*
X151477117Y-92253000D01*
X151460687Y-92419823D01*
X151412024Y-92580242D01*
X151360265Y-92677076D01*
X151333004Y-92728078D01*
X151226659Y-92857659D01*
X151097078Y-92964004D01*
X151097076Y-92964005D01*
X150949242Y-93043024D01*
X150788823Y-93091687D01*
X150663804Y-93104000D01*
X150580196Y-93104000D01*
X150455177Y-93091687D01*
X150294758Y-93043024D01*
X150146924Y-92964005D01*
X150146922Y-92964004D01*
X150017341Y-92857659D01*
X149910996Y-92728078D01*
X149883735Y-92677076D01*
X149831976Y-92580242D01*
X149783313Y-92419823D01*
X149766883Y-92253000D01*
X149783313Y-92086177D01*
X149831976Y-91925758D01*
X149910995Y-91777924D01*
X149910996Y-91777922D01*
X150017341Y-91648341D01*
X150146922Y-91541996D01*
X150162094Y-91533886D01*
X150294758Y-91462976D01*
X150455177Y-91414313D01*
X150580196Y-91402000D01*
X150663804Y-91402000D01*
X150788823Y-91414313D01*
X150788823Y-91414313D01*
G37*
G36*
X143168823Y-91414313D02*
G01*
X143329242Y-91462976D01*
X143461906Y-91533886D01*
X143477078Y-91541996D01*
X143606659Y-91648341D01*
X143713004Y-91777922D01*
X143713005Y-91777924D01*
X143792024Y-91925758D01*
X143840687Y-92086177D01*
X143857117Y-92253000D01*
X143840687Y-92419823D01*
X143792024Y-92580242D01*
X143740265Y-92677076D01*
X143713004Y-92728078D01*
X143606659Y-92857659D01*
X143477078Y-92964004D01*
X143477076Y-92964005D01*
X143329242Y-93043024D01*
X143168823Y-93091687D01*
X143043804Y-93104000D01*
X142960196Y-93104000D01*
X142835177Y-93091687D01*
X142674758Y-93043024D01*
X142526924Y-92964005D01*
X142526922Y-92964004D01*
X142397341Y-92857659D01*
X142290996Y-92728078D01*
X142263735Y-92677076D01*
X142211976Y-92580242D01*
X142163313Y-92419823D01*
X142146883Y-92253000D01*
X142163313Y-92086177D01*
X142211976Y-91925758D01*
X142290995Y-91777924D01*
X142290996Y-91777922D01*
X142397341Y-91648341D01*
X142526922Y-91541996D01*
X142542094Y-91533886D01*
X142674758Y-91462976D01*
X142835177Y-91414313D01*
X142960196Y-91402000D01*
X143043804Y-91402000D01*
X143168823Y-91414313D01*
X143168823Y-91414313D01*
G37*
G36*
X187618823Y-91414313D02*
G01*
X187779242Y-91462976D01*
X187911906Y-91533886D01*
X187927078Y-91541996D01*
X188056659Y-91648341D01*
X188163004Y-91777922D01*
X188163005Y-91777924D01*
X188242024Y-91925758D01*
X188290687Y-92086177D01*
X188307117Y-92253000D01*
X188290687Y-92419823D01*
X188242024Y-92580242D01*
X188190265Y-92677076D01*
X188163004Y-92728078D01*
X188056659Y-92857659D01*
X187927078Y-92964004D01*
X187927076Y-92964005D01*
X187779242Y-93043024D01*
X187618823Y-93091687D01*
X187493804Y-93104000D01*
X187410196Y-93104000D01*
X187285177Y-93091687D01*
X187124758Y-93043024D01*
X186976924Y-92964005D01*
X186976922Y-92964004D01*
X186847341Y-92857659D01*
X186740996Y-92728078D01*
X186713735Y-92677076D01*
X186661976Y-92580242D01*
X186613313Y-92419823D01*
X186596883Y-92253000D01*
X186613313Y-92086177D01*
X186661976Y-91925758D01*
X186740995Y-91777924D01*
X186740996Y-91777922D01*
X186847341Y-91648341D01*
X186976922Y-91541996D01*
X186992094Y-91533886D01*
X187124758Y-91462976D01*
X187285177Y-91414313D01*
X187410196Y-91402000D01*
X187493804Y-91402000D01*
X187618823Y-91414313D01*
X187618823Y-91414313D01*
G37*
G36*
X168568823Y-91414313D02*
G01*
X168729242Y-91462976D01*
X168861906Y-91533886D01*
X168877078Y-91541996D01*
X169006659Y-91648341D01*
X169113004Y-91777922D01*
X169113005Y-91777924D01*
X169192024Y-91925758D01*
X169240687Y-92086177D01*
X169257117Y-92253000D01*
X169240687Y-92419823D01*
X169192024Y-92580242D01*
X169140265Y-92677076D01*
X169113004Y-92728078D01*
X169006659Y-92857659D01*
X168877078Y-92964004D01*
X168877076Y-92964005D01*
X168729242Y-93043024D01*
X168568823Y-93091687D01*
X168443804Y-93104000D01*
X168360196Y-93104000D01*
X168235177Y-93091687D01*
X168074758Y-93043024D01*
X167926924Y-92964005D01*
X167926922Y-92964004D01*
X167797341Y-92857659D01*
X167690996Y-92728078D01*
X167663735Y-92677076D01*
X167611976Y-92580242D01*
X167563313Y-92419823D01*
X167546883Y-92253000D01*
X167563313Y-92086177D01*
X167611976Y-91925758D01*
X167690995Y-91777924D01*
X167690996Y-91777922D01*
X167797341Y-91648341D01*
X167926922Y-91541996D01*
X167942094Y-91533886D01*
X168074758Y-91462976D01*
X168235177Y-91414313D01*
X168360196Y-91402000D01*
X168443804Y-91402000D01*
X168568823Y-91414313D01*
X168568823Y-91414313D01*
G37*
G36*
X176188823Y-91414313D02*
G01*
X176349242Y-91462976D01*
X176481906Y-91533886D01*
X176497078Y-91541996D01*
X176626659Y-91648341D01*
X176733004Y-91777922D01*
X176733005Y-91777924D01*
X176812024Y-91925758D01*
X176860687Y-92086177D01*
X176877117Y-92253000D01*
X176860687Y-92419823D01*
X176812024Y-92580242D01*
X176760265Y-92677076D01*
X176733004Y-92728078D01*
X176626659Y-92857659D01*
X176497078Y-92964004D01*
X176497076Y-92964005D01*
X176349242Y-93043024D01*
X176188823Y-93091687D01*
X176063804Y-93104000D01*
X175980196Y-93104000D01*
X175855177Y-93091687D01*
X175694758Y-93043024D01*
X175546924Y-92964005D01*
X175546922Y-92964004D01*
X175417341Y-92857659D01*
X175310996Y-92728078D01*
X175283735Y-92677076D01*
X175231976Y-92580242D01*
X175183313Y-92419823D01*
X175166883Y-92253000D01*
X175183313Y-92086177D01*
X175231976Y-91925758D01*
X175310995Y-91777924D01*
X175310996Y-91777922D01*
X175417341Y-91648341D01*
X175546922Y-91541996D01*
X175562094Y-91533886D01*
X175694758Y-91462976D01*
X175855177Y-91414313D01*
X175980196Y-91402000D01*
X176063804Y-91402000D01*
X176188823Y-91414313D01*
X176188823Y-91414313D01*
G37*
G36*
X230544823Y-91363313D02*
G01*
X230705242Y-91411976D01*
X230800654Y-91462975D01*
X230853078Y-91490996D01*
X230982659Y-91597341D01*
X231089004Y-91726922D01*
X231089005Y-91726924D01*
X231168024Y-91874758D01*
X231216687Y-92035177D01*
X231233117Y-92202000D01*
X231216687Y-92368823D01*
X231168024Y-92529242D01*
X231097114Y-92661906D01*
X231089004Y-92677078D01*
X230982659Y-92806659D01*
X230853078Y-92913004D01*
X230853076Y-92913005D01*
X230705242Y-92992024D01*
X230544823Y-93040687D01*
X230419804Y-93053000D01*
X230336196Y-93053000D01*
X230211177Y-93040687D01*
X230050758Y-92992024D01*
X229902924Y-92913005D01*
X229902922Y-92913004D01*
X229773341Y-92806659D01*
X229666996Y-92677078D01*
X229658886Y-92661906D01*
X229587976Y-92529242D01*
X229539313Y-92368823D01*
X229522883Y-92202000D01*
X229539313Y-92035177D01*
X229587976Y-91874758D01*
X229666995Y-91726924D01*
X229666996Y-91726922D01*
X229773341Y-91597341D01*
X229902922Y-91490996D01*
X229955346Y-91462975D01*
X230050758Y-91411976D01*
X230211177Y-91363313D01*
X230336196Y-91351000D01*
X230419804Y-91351000D01*
X230544823Y-91363313D01*
X230544823Y-91363313D01*
G37*
G36*
X238164823Y-91363313D02*
G01*
X238325242Y-91411976D01*
X238420654Y-91462975D01*
X238473078Y-91490996D01*
X238602659Y-91597341D01*
X238709004Y-91726922D01*
X238709005Y-91726924D01*
X238788024Y-91874758D01*
X238836687Y-92035177D01*
X238853117Y-92202000D01*
X238836687Y-92368823D01*
X238788024Y-92529242D01*
X238717114Y-92661906D01*
X238709004Y-92677078D01*
X238602659Y-92806659D01*
X238473078Y-92913004D01*
X238473076Y-92913005D01*
X238325242Y-92992024D01*
X238164823Y-93040687D01*
X238039804Y-93053000D01*
X237956196Y-93053000D01*
X237831177Y-93040687D01*
X237670758Y-92992024D01*
X237522924Y-92913005D01*
X237522922Y-92913004D01*
X237393341Y-92806659D01*
X237286996Y-92677078D01*
X237278886Y-92661906D01*
X237207976Y-92529242D01*
X237159313Y-92368823D01*
X237142883Y-92202000D01*
X237159313Y-92035177D01*
X237207976Y-91874758D01*
X237286995Y-91726924D01*
X237286996Y-91726922D01*
X237393341Y-91597341D01*
X237522922Y-91490996D01*
X237575346Y-91462975D01*
X237670758Y-91411976D01*
X237831177Y-91363313D01*
X237956196Y-91351000D01*
X238039804Y-91351000D01*
X238164823Y-91363313D01*
X238164823Y-91363313D01*
G37*
G36*
X226734823Y-91363313D02*
G01*
X226895242Y-91411976D01*
X226990654Y-91462975D01*
X227043078Y-91490996D01*
X227172659Y-91597341D01*
X227279004Y-91726922D01*
X227279005Y-91726924D01*
X227358024Y-91874758D01*
X227406687Y-92035177D01*
X227423117Y-92202000D01*
X227406687Y-92368823D01*
X227358024Y-92529242D01*
X227287114Y-92661906D01*
X227279004Y-92677078D01*
X227172659Y-92806659D01*
X227043078Y-92913004D01*
X227043076Y-92913005D01*
X226895242Y-92992024D01*
X226734823Y-93040687D01*
X226609804Y-93053000D01*
X226526196Y-93053000D01*
X226401177Y-93040687D01*
X226240758Y-92992024D01*
X226092924Y-92913005D01*
X226092922Y-92913004D01*
X225963341Y-92806659D01*
X225856996Y-92677078D01*
X225848886Y-92661906D01*
X225777976Y-92529242D01*
X225729313Y-92368823D01*
X225712883Y-92202000D01*
X225729313Y-92035177D01*
X225777976Y-91874758D01*
X225856995Y-91726924D01*
X225856996Y-91726922D01*
X225963341Y-91597341D01*
X226092922Y-91490996D01*
X226145346Y-91462975D01*
X226240758Y-91411976D01*
X226401177Y-91363313D01*
X226526196Y-91351000D01*
X226609804Y-91351000D01*
X226734823Y-91363313D01*
X226734823Y-91363313D01*
G37*
G36*
X219114823Y-91363313D02*
G01*
X219275242Y-91411976D01*
X219370654Y-91462975D01*
X219423078Y-91490996D01*
X219552659Y-91597341D01*
X219659004Y-91726922D01*
X219659005Y-91726924D01*
X219738024Y-91874758D01*
X219786687Y-92035177D01*
X219803117Y-92202000D01*
X219786687Y-92368823D01*
X219738024Y-92529242D01*
X219667114Y-92661906D01*
X219659004Y-92677078D01*
X219552659Y-92806659D01*
X219423078Y-92913004D01*
X219423076Y-92913005D01*
X219275242Y-92992024D01*
X219114823Y-93040687D01*
X218989804Y-93053000D01*
X218906196Y-93053000D01*
X218781177Y-93040687D01*
X218620758Y-92992024D01*
X218472924Y-92913005D01*
X218472922Y-92913004D01*
X218343341Y-92806659D01*
X218236996Y-92677078D01*
X218228886Y-92661906D01*
X218157976Y-92529242D01*
X218109313Y-92368823D01*
X218092883Y-92202000D01*
X218109313Y-92035177D01*
X218157976Y-91874758D01*
X218236995Y-91726924D01*
X218236996Y-91726922D01*
X218343341Y-91597341D01*
X218472922Y-91490996D01*
X218525346Y-91462975D01*
X218620758Y-91411976D01*
X218781177Y-91363313D01*
X218906196Y-91351000D01*
X218989804Y-91351000D01*
X219114823Y-91363313D01*
X219114823Y-91363313D01*
G37*
G36*
X201436823Y-91337913D02*
G01*
X201597242Y-91386576D01*
X201729906Y-91457486D01*
X201745078Y-91465596D01*
X201874659Y-91571941D01*
X201981004Y-91701522D01*
X201981005Y-91701524D01*
X202060024Y-91849358D01*
X202108687Y-92009777D01*
X202125117Y-92176600D01*
X202108687Y-92343423D01*
X202060024Y-92503842D01*
X202046449Y-92529239D01*
X201981004Y-92651678D01*
X201874659Y-92781259D01*
X201745078Y-92887604D01*
X201745076Y-92887605D01*
X201597242Y-92966624D01*
X201436823Y-93015287D01*
X201311804Y-93027600D01*
X201228196Y-93027600D01*
X201103177Y-93015287D01*
X200942758Y-92966624D01*
X200794924Y-92887605D01*
X200794922Y-92887604D01*
X200665341Y-92781259D01*
X200558996Y-92651678D01*
X200493551Y-92529239D01*
X200479976Y-92503842D01*
X200431313Y-92343423D01*
X200414883Y-92176600D01*
X200431313Y-92009777D01*
X200479976Y-91849358D01*
X200558995Y-91701524D01*
X200558996Y-91701522D01*
X200665341Y-91571941D01*
X200794922Y-91465596D01*
X200810094Y-91457486D01*
X200942758Y-91386576D01*
X201103177Y-91337913D01*
X201228196Y-91325600D01*
X201311804Y-91325600D01*
X201436823Y-91337913D01*
X201436823Y-91337913D01*
G37*
G36*
X193816823Y-91337913D02*
G01*
X193977242Y-91386576D01*
X194109906Y-91457486D01*
X194125078Y-91465596D01*
X194254659Y-91571941D01*
X194361004Y-91701522D01*
X194361005Y-91701524D01*
X194440024Y-91849358D01*
X194488687Y-92009777D01*
X194505117Y-92176600D01*
X194488687Y-92343423D01*
X194440024Y-92503842D01*
X194426449Y-92529239D01*
X194361004Y-92651678D01*
X194254659Y-92781259D01*
X194125078Y-92887604D01*
X194125076Y-92887605D01*
X193977242Y-92966624D01*
X193816823Y-93015287D01*
X193691804Y-93027600D01*
X193608196Y-93027600D01*
X193483177Y-93015287D01*
X193322758Y-92966624D01*
X193174924Y-92887605D01*
X193174922Y-92887604D01*
X193045341Y-92781259D01*
X192938996Y-92651678D01*
X192873551Y-92529239D01*
X192859976Y-92503842D01*
X192811313Y-92343423D01*
X192794883Y-92176600D01*
X192811313Y-92009777D01*
X192859976Y-91849358D01*
X192938995Y-91701524D01*
X192938996Y-91701522D01*
X193045341Y-91571941D01*
X193174922Y-91465596D01*
X193190094Y-91457486D01*
X193322758Y-91386576D01*
X193483177Y-91337913D01*
X193608196Y-91325600D01*
X193691804Y-91325600D01*
X193816823Y-91337913D01*
X193816823Y-91337913D01*
G37*
G36*
X212866823Y-91337913D02*
G01*
X213027242Y-91386576D01*
X213159906Y-91457486D01*
X213175078Y-91465596D01*
X213304659Y-91571941D01*
X213411004Y-91701522D01*
X213411005Y-91701524D01*
X213490024Y-91849358D01*
X213538687Y-92009777D01*
X213555117Y-92176600D01*
X213538687Y-92343423D01*
X213490024Y-92503842D01*
X213476449Y-92529239D01*
X213411004Y-92651678D01*
X213304659Y-92781259D01*
X213175078Y-92887604D01*
X213175076Y-92887605D01*
X213027242Y-92966624D01*
X212866823Y-93015287D01*
X212741804Y-93027600D01*
X212658196Y-93027600D01*
X212533177Y-93015287D01*
X212372758Y-92966624D01*
X212224924Y-92887605D01*
X212224922Y-92887604D01*
X212095341Y-92781259D01*
X211988996Y-92651678D01*
X211923551Y-92529239D01*
X211909976Y-92503842D01*
X211861313Y-92343423D01*
X211844883Y-92176600D01*
X211861313Y-92009777D01*
X211909976Y-91849358D01*
X211988995Y-91701524D01*
X211988996Y-91701522D01*
X212095341Y-91571941D01*
X212224922Y-91465596D01*
X212240094Y-91457486D01*
X212372758Y-91386576D01*
X212533177Y-91337913D01*
X212658196Y-91325600D01*
X212741804Y-91325600D01*
X212866823Y-91337913D01*
X212866823Y-91337913D01*
G37*
G36*
X205246823Y-91337913D02*
G01*
X205407242Y-91386576D01*
X205539906Y-91457486D01*
X205555078Y-91465596D01*
X205684659Y-91571941D01*
X205791004Y-91701522D01*
X205791005Y-91701524D01*
X205870024Y-91849358D01*
X205918687Y-92009777D01*
X205935117Y-92176600D01*
X205918687Y-92343423D01*
X205870024Y-92503842D01*
X205856449Y-92529239D01*
X205791004Y-92651678D01*
X205684659Y-92781259D01*
X205555078Y-92887604D01*
X205555076Y-92887605D01*
X205407242Y-92966624D01*
X205246823Y-93015287D01*
X205121804Y-93027600D01*
X205038196Y-93027600D01*
X204913177Y-93015287D01*
X204752758Y-92966624D01*
X204604924Y-92887605D01*
X204604922Y-92887604D01*
X204475341Y-92781259D01*
X204368996Y-92651678D01*
X204303551Y-92529239D01*
X204289976Y-92503842D01*
X204241313Y-92343423D01*
X204224883Y-92176600D01*
X204241313Y-92009777D01*
X204289976Y-91849358D01*
X204368995Y-91701524D01*
X204368996Y-91701522D01*
X204475341Y-91571941D01*
X204604922Y-91465596D01*
X204620094Y-91457486D01*
X204752758Y-91386576D01*
X204913177Y-91337913D01*
X205038196Y-91325600D01*
X205121804Y-91325600D01*
X205246823Y-91337913D01*
X205246823Y-91337913D01*
G37*
G36*
X179998823Y-88874313D02*
G01*
X180159242Y-88922976D01*
X180291906Y-88993886D01*
X180307078Y-89001996D01*
X180436659Y-89108341D01*
X180543004Y-89237922D01*
X180543005Y-89237924D01*
X180622024Y-89385758D01*
X180670687Y-89546177D01*
X180687117Y-89713000D01*
X180670687Y-89879823D01*
X180622024Y-90040242D01*
X180570265Y-90137076D01*
X180543004Y-90188078D01*
X180436659Y-90317659D01*
X180307078Y-90424004D01*
X180307076Y-90424005D01*
X180159242Y-90503024D01*
X179998823Y-90551687D01*
X179873804Y-90564000D01*
X179790196Y-90564000D01*
X179665177Y-90551687D01*
X179504758Y-90503024D01*
X179356924Y-90424005D01*
X179356922Y-90424004D01*
X179227341Y-90317659D01*
X179120996Y-90188078D01*
X179093735Y-90137076D01*
X179041976Y-90040242D01*
X178993313Y-89879823D01*
X178976883Y-89713000D01*
X178993313Y-89546177D01*
X179041976Y-89385758D01*
X179120995Y-89237924D01*
X179120996Y-89237922D01*
X179227341Y-89108341D01*
X179356922Y-89001996D01*
X179372094Y-88993886D01*
X179504758Y-88922976D01*
X179665177Y-88874313D01*
X179790196Y-88862000D01*
X179873804Y-88862000D01*
X179998823Y-88874313D01*
X179998823Y-88874313D01*
G37*
G36*
X162218823Y-88874313D02*
G01*
X162379242Y-88922976D01*
X162511906Y-88993886D01*
X162527078Y-89001996D01*
X162656659Y-89108341D01*
X162763004Y-89237922D01*
X162763005Y-89237924D01*
X162842024Y-89385758D01*
X162890687Y-89546177D01*
X162907117Y-89713000D01*
X162890687Y-89879823D01*
X162842024Y-90040242D01*
X162790265Y-90137076D01*
X162763004Y-90188078D01*
X162656659Y-90317659D01*
X162527078Y-90424004D01*
X162527076Y-90424005D01*
X162379242Y-90503024D01*
X162218823Y-90551687D01*
X162093804Y-90564000D01*
X162010196Y-90564000D01*
X161885177Y-90551687D01*
X161724758Y-90503024D01*
X161576924Y-90424005D01*
X161576922Y-90424004D01*
X161447341Y-90317659D01*
X161340996Y-90188078D01*
X161313735Y-90137076D01*
X161261976Y-90040242D01*
X161213313Y-89879823D01*
X161196883Y-89713000D01*
X161213313Y-89546177D01*
X161261976Y-89385758D01*
X161340995Y-89237924D01*
X161340996Y-89237922D01*
X161447341Y-89108341D01*
X161576922Y-89001996D01*
X161592094Y-88993886D01*
X161724758Y-88922976D01*
X161885177Y-88874313D01*
X162010196Y-88862000D01*
X162093804Y-88862000D01*
X162218823Y-88874313D01*
X162218823Y-88874313D01*
G37*
G36*
X187618823Y-88874313D02*
G01*
X187779242Y-88922976D01*
X187911906Y-88993886D01*
X187927078Y-89001996D01*
X188056659Y-89108341D01*
X188163004Y-89237922D01*
X188163005Y-89237924D01*
X188242024Y-89385758D01*
X188290687Y-89546177D01*
X188307117Y-89713000D01*
X188290687Y-89879823D01*
X188242024Y-90040242D01*
X188190265Y-90137076D01*
X188163004Y-90188078D01*
X188056659Y-90317659D01*
X187927078Y-90424004D01*
X187927076Y-90424005D01*
X187779242Y-90503024D01*
X187618823Y-90551687D01*
X187493804Y-90564000D01*
X187410196Y-90564000D01*
X187285177Y-90551687D01*
X187124758Y-90503024D01*
X186976924Y-90424005D01*
X186976922Y-90424004D01*
X186847341Y-90317659D01*
X186740996Y-90188078D01*
X186713735Y-90137076D01*
X186661976Y-90040242D01*
X186613313Y-89879823D01*
X186596883Y-89713000D01*
X186613313Y-89546177D01*
X186661976Y-89385758D01*
X186740995Y-89237924D01*
X186740996Y-89237922D01*
X186847341Y-89108341D01*
X186976922Y-89001996D01*
X186992094Y-88993886D01*
X187124758Y-88922976D01*
X187285177Y-88874313D01*
X187410196Y-88862000D01*
X187493804Y-88862000D01*
X187618823Y-88874313D01*
X187618823Y-88874313D01*
G37*
G36*
X176188823Y-88874313D02*
G01*
X176349242Y-88922976D01*
X176481906Y-88993886D01*
X176497078Y-89001996D01*
X176626659Y-89108341D01*
X176733004Y-89237922D01*
X176733005Y-89237924D01*
X176812024Y-89385758D01*
X176860687Y-89546177D01*
X176877117Y-89713000D01*
X176860687Y-89879823D01*
X176812024Y-90040242D01*
X176760265Y-90137076D01*
X176733004Y-90188078D01*
X176626659Y-90317659D01*
X176497078Y-90424004D01*
X176497076Y-90424005D01*
X176349242Y-90503024D01*
X176188823Y-90551687D01*
X176063804Y-90564000D01*
X175980196Y-90564000D01*
X175855177Y-90551687D01*
X175694758Y-90503024D01*
X175546924Y-90424005D01*
X175546922Y-90424004D01*
X175417341Y-90317659D01*
X175310996Y-90188078D01*
X175283735Y-90137076D01*
X175231976Y-90040242D01*
X175183313Y-89879823D01*
X175166883Y-89713000D01*
X175183313Y-89546177D01*
X175231976Y-89385758D01*
X175310995Y-89237924D01*
X175310996Y-89237922D01*
X175417341Y-89108341D01*
X175546922Y-89001996D01*
X175562094Y-88993886D01*
X175694758Y-88922976D01*
X175855177Y-88874313D01*
X175980196Y-88862000D01*
X176063804Y-88862000D01*
X176188823Y-88874313D01*
X176188823Y-88874313D01*
G37*
G36*
X168568823Y-88874313D02*
G01*
X168729242Y-88922976D01*
X168861906Y-88993886D01*
X168877078Y-89001996D01*
X169006659Y-89108341D01*
X169113004Y-89237922D01*
X169113005Y-89237924D01*
X169192024Y-89385758D01*
X169240687Y-89546177D01*
X169257117Y-89713000D01*
X169240687Y-89879823D01*
X169192024Y-90040242D01*
X169140265Y-90137076D01*
X169113004Y-90188078D01*
X169006659Y-90317659D01*
X168877078Y-90424004D01*
X168877076Y-90424005D01*
X168729242Y-90503024D01*
X168568823Y-90551687D01*
X168443804Y-90564000D01*
X168360196Y-90564000D01*
X168235177Y-90551687D01*
X168074758Y-90503024D01*
X167926924Y-90424005D01*
X167926922Y-90424004D01*
X167797341Y-90317659D01*
X167690996Y-90188078D01*
X167663735Y-90137076D01*
X167611976Y-90040242D01*
X167563313Y-89879823D01*
X167546883Y-89713000D01*
X167563313Y-89546177D01*
X167611976Y-89385758D01*
X167690995Y-89237924D01*
X167690996Y-89237922D01*
X167797341Y-89108341D01*
X167926922Y-89001996D01*
X167942094Y-88993886D01*
X168074758Y-88922976D01*
X168235177Y-88874313D01*
X168360196Y-88862000D01*
X168443804Y-88862000D01*
X168568823Y-88874313D01*
X168568823Y-88874313D01*
G37*
G36*
X154598823Y-88874313D02*
G01*
X154759242Y-88922976D01*
X154891906Y-88993886D01*
X154907078Y-89001996D01*
X155036659Y-89108341D01*
X155143004Y-89237922D01*
X155143005Y-89237924D01*
X155222024Y-89385758D01*
X155270687Y-89546177D01*
X155287117Y-89713000D01*
X155270687Y-89879823D01*
X155222024Y-90040242D01*
X155170265Y-90137076D01*
X155143004Y-90188078D01*
X155036659Y-90317659D01*
X154907078Y-90424004D01*
X154907076Y-90424005D01*
X154759242Y-90503024D01*
X154598823Y-90551687D01*
X154473804Y-90564000D01*
X154390196Y-90564000D01*
X154265177Y-90551687D01*
X154104758Y-90503024D01*
X153956924Y-90424005D01*
X153956922Y-90424004D01*
X153827341Y-90317659D01*
X153720996Y-90188078D01*
X153693735Y-90137076D01*
X153641976Y-90040242D01*
X153593313Y-89879823D01*
X153576883Y-89713000D01*
X153593313Y-89546177D01*
X153641976Y-89385758D01*
X153720995Y-89237924D01*
X153720996Y-89237922D01*
X153827341Y-89108341D01*
X153956922Y-89001996D01*
X153972094Y-88993886D01*
X154104758Y-88922976D01*
X154265177Y-88874313D01*
X154390196Y-88862000D01*
X154473804Y-88862000D01*
X154598823Y-88874313D01*
X154598823Y-88874313D01*
G37*
G36*
X150788823Y-88874313D02*
G01*
X150949242Y-88922976D01*
X151081906Y-88993886D01*
X151097078Y-89001996D01*
X151226659Y-89108341D01*
X151333004Y-89237922D01*
X151333005Y-89237924D01*
X151412024Y-89385758D01*
X151460687Y-89546177D01*
X151477117Y-89713000D01*
X151460687Y-89879823D01*
X151412024Y-90040242D01*
X151360265Y-90137076D01*
X151333004Y-90188078D01*
X151226659Y-90317659D01*
X151097078Y-90424004D01*
X151097076Y-90424005D01*
X150949242Y-90503024D01*
X150788823Y-90551687D01*
X150663804Y-90564000D01*
X150580196Y-90564000D01*
X150455177Y-90551687D01*
X150294758Y-90503024D01*
X150146924Y-90424005D01*
X150146922Y-90424004D01*
X150017341Y-90317659D01*
X149910996Y-90188078D01*
X149883735Y-90137076D01*
X149831976Y-90040242D01*
X149783313Y-89879823D01*
X149766883Y-89713000D01*
X149783313Y-89546177D01*
X149831976Y-89385758D01*
X149910995Y-89237924D01*
X149910996Y-89237922D01*
X150017341Y-89108341D01*
X150146922Y-89001996D01*
X150162094Y-88993886D01*
X150294758Y-88922976D01*
X150455177Y-88874313D01*
X150580196Y-88862000D01*
X150663804Y-88862000D01*
X150788823Y-88874313D01*
X150788823Y-88874313D01*
G37*
G36*
X143168823Y-88874313D02*
G01*
X143329242Y-88922976D01*
X143461906Y-88993886D01*
X143477078Y-89001996D01*
X143606659Y-89108341D01*
X143713004Y-89237922D01*
X143713005Y-89237924D01*
X143792024Y-89385758D01*
X143840687Y-89546177D01*
X143857117Y-89713000D01*
X143840687Y-89879823D01*
X143792024Y-90040242D01*
X143740265Y-90137076D01*
X143713004Y-90188078D01*
X143606659Y-90317659D01*
X143477078Y-90424004D01*
X143477076Y-90424005D01*
X143329242Y-90503024D01*
X143168823Y-90551687D01*
X143043804Y-90564000D01*
X142960196Y-90564000D01*
X142835177Y-90551687D01*
X142674758Y-90503024D01*
X142526924Y-90424005D01*
X142526922Y-90424004D01*
X142397341Y-90317659D01*
X142290996Y-90188078D01*
X142263735Y-90137076D01*
X142211976Y-90040242D01*
X142163313Y-89879823D01*
X142146883Y-89713000D01*
X142163313Y-89546177D01*
X142211976Y-89385758D01*
X142290995Y-89237924D01*
X142290996Y-89237922D01*
X142397341Y-89108341D01*
X142526922Y-89001996D01*
X142542094Y-88993886D01*
X142674758Y-88922976D01*
X142835177Y-88874313D01*
X142960196Y-88862000D01*
X143043804Y-88862000D01*
X143168823Y-88874313D01*
X143168823Y-88874313D01*
G37*
G36*
X238164823Y-88823313D02*
G01*
X238325242Y-88871976D01*
X238420654Y-88922975D01*
X238473078Y-88950996D01*
X238602659Y-89057341D01*
X238709004Y-89186922D01*
X238709005Y-89186924D01*
X238788024Y-89334758D01*
X238836687Y-89495177D01*
X238853117Y-89662000D01*
X238836687Y-89828823D01*
X238788024Y-89989242D01*
X238717114Y-90121906D01*
X238709004Y-90137078D01*
X238602659Y-90266659D01*
X238473078Y-90373004D01*
X238473076Y-90373005D01*
X238325242Y-90452024D01*
X238164823Y-90500687D01*
X238039804Y-90513000D01*
X237956196Y-90513000D01*
X237831177Y-90500687D01*
X237670758Y-90452024D01*
X237522924Y-90373005D01*
X237522922Y-90373004D01*
X237393341Y-90266659D01*
X237286996Y-90137078D01*
X237278886Y-90121906D01*
X237207976Y-89989242D01*
X237159313Y-89828823D01*
X237142883Y-89662000D01*
X237159313Y-89495177D01*
X237207976Y-89334758D01*
X237286995Y-89186924D01*
X237286996Y-89186922D01*
X237393341Y-89057341D01*
X237522922Y-88950996D01*
X237575346Y-88922975D01*
X237670758Y-88871976D01*
X237831177Y-88823313D01*
X237956196Y-88811000D01*
X238039804Y-88811000D01*
X238164823Y-88823313D01*
X238164823Y-88823313D01*
G37*
G36*
X230544823Y-88823313D02*
G01*
X230705242Y-88871976D01*
X230800654Y-88922975D01*
X230853078Y-88950996D01*
X230982659Y-89057341D01*
X231089004Y-89186922D01*
X231089005Y-89186924D01*
X231168024Y-89334758D01*
X231216687Y-89495177D01*
X231233117Y-89662000D01*
X231216687Y-89828823D01*
X231168024Y-89989242D01*
X231097114Y-90121906D01*
X231089004Y-90137078D01*
X230982659Y-90266659D01*
X230853078Y-90373004D01*
X230853076Y-90373005D01*
X230705242Y-90452024D01*
X230544823Y-90500687D01*
X230419804Y-90513000D01*
X230336196Y-90513000D01*
X230211177Y-90500687D01*
X230050758Y-90452024D01*
X229902924Y-90373005D01*
X229902922Y-90373004D01*
X229773341Y-90266659D01*
X229666996Y-90137078D01*
X229658886Y-90121906D01*
X229587976Y-89989242D01*
X229539313Y-89828823D01*
X229522883Y-89662000D01*
X229539313Y-89495177D01*
X229587976Y-89334758D01*
X229666995Y-89186924D01*
X229666996Y-89186922D01*
X229773341Y-89057341D01*
X229902922Y-88950996D01*
X229955346Y-88922975D01*
X230050758Y-88871976D01*
X230211177Y-88823313D01*
X230336196Y-88811000D01*
X230419804Y-88811000D01*
X230544823Y-88823313D01*
X230544823Y-88823313D01*
G37*
G36*
X219114823Y-88823313D02*
G01*
X219275242Y-88871976D01*
X219370654Y-88922975D01*
X219423078Y-88950996D01*
X219552659Y-89057341D01*
X219659004Y-89186922D01*
X219659005Y-89186924D01*
X219738024Y-89334758D01*
X219786687Y-89495177D01*
X219803117Y-89662000D01*
X219786687Y-89828823D01*
X219738024Y-89989242D01*
X219667114Y-90121906D01*
X219659004Y-90137078D01*
X219552659Y-90266659D01*
X219423078Y-90373004D01*
X219423076Y-90373005D01*
X219275242Y-90452024D01*
X219114823Y-90500687D01*
X218989804Y-90513000D01*
X218906196Y-90513000D01*
X218781177Y-90500687D01*
X218620758Y-90452024D01*
X218472924Y-90373005D01*
X218472922Y-90373004D01*
X218343341Y-90266659D01*
X218236996Y-90137078D01*
X218228886Y-90121906D01*
X218157976Y-89989242D01*
X218109313Y-89828823D01*
X218092883Y-89662000D01*
X218109313Y-89495177D01*
X218157976Y-89334758D01*
X218236995Y-89186924D01*
X218236996Y-89186922D01*
X218343341Y-89057341D01*
X218472922Y-88950996D01*
X218525346Y-88922975D01*
X218620758Y-88871976D01*
X218781177Y-88823313D01*
X218906196Y-88811000D01*
X218989804Y-88811000D01*
X219114823Y-88823313D01*
X219114823Y-88823313D01*
G37*
G36*
X226734823Y-88823313D02*
G01*
X226895242Y-88871976D01*
X226990654Y-88922975D01*
X227043078Y-88950996D01*
X227172659Y-89057341D01*
X227279004Y-89186922D01*
X227279005Y-89186924D01*
X227358024Y-89334758D01*
X227406687Y-89495177D01*
X227423117Y-89662000D01*
X227406687Y-89828823D01*
X227358024Y-89989242D01*
X227287114Y-90121906D01*
X227279004Y-90137078D01*
X227172659Y-90266659D01*
X227043078Y-90373004D01*
X227043076Y-90373005D01*
X226895242Y-90452024D01*
X226734823Y-90500687D01*
X226609804Y-90513000D01*
X226526196Y-90513000D01*
X226401177Y-90500687D01*
X226240758Y-90452024D01*
X226092924Y-90373005D01*
X226092922Y-90373004D01*
X225963341Y-90266659D01*
X225856996Y-90137078D01*
X225848886Y-90121906D01*
X225777976Y-89989242D01*
X225729313Y-89828823D01*
X225712883Y-89662000D01*
X225729313Y-89495177D01*
X225777976Y-89334758D01*
X225856995Y-89186924D01*
X225856996Y-89186922D01*
X225963341Y-89057341D01*
X226092922Y-88950996D01*
X226145346Y-88922975D01*
X226240758Y-88871976D01*
X226401177Y-88823313D01*
X226526196Y-88811000D01*
X226609804Y-88811000D01*
X226734823Y-88823313D01*
X226734823Y-88823313D01*
G37*
G36*
X212866823Y-88797913D02*
G01*
X213027242Y-88846576D01*
X213159906Y-88917486D01*
X213175078Y-88925596D01*
X213304659Y-89031941D01*
X213411004Y-89161522D01*
X213411005Y-89161524D01*
X213490024Y-89309358D01*
X213538687Y-89469777D01*
X213555117Y-89636600D01*
X213538687Y-89803423D01*
X213490024Y-89963842D01*
X213476449Y-89989239D01*
X213411004Y-90111678D01*
X213304659Y-90241259D01*
X213175078Y-90347604D01*
X213175076Y-90347605D01*
X213027242Y-90426624D01*
X212866823Y-90475287D01*
X212741804Y-90487600D01*
X212658196Y-90487600D01*
X212533177Y-90475287D01*
X212372758Y-90426624D01*
X212224924Y-90347605D01*
X212224922Y-90347604D01*
X212095341Y-90241259D01*
X211988996Y-90111678D01*
X211923551Y-89989239D01*
X211909976Y-89963842D01*
X211861313Y-89803423D01*
X211844883Y-89636600D01*
X211861313Y-89469777D01*
X211909976Y-89309358D01*
X211988995Y-89161524D01*
X211988996Y-89161522D01*
X212095341Y-89031941D01*
X212224922Y-88925596D01*
X212240094Y-88917486D01*
X212372758Y-88846576D01*
X212533177Y-88797913D01*
X212658196Y-88785600D01*
X212741804Y-88785600D01*
X212866823Y-88797913D01*
X212866823Y-88797913D01*
G37*
G36*
X205246823Y-88797913D02*
G01*
X205407242Y-88846576D01*
X205539906Y-88917486D01*
X205555078Y-88925596D01*
X205684659Y-89031941D01*
X205791004Y-89161522D01*
X205791005Y-89161524D01*
X205870024Y-89309358D01*
X205918687Y-89469777D01*
X205935117Y-89636600D01*
X205918687Y-89803423D01*
X205870024Y-89963842D01*
X205856449Y-89989239D01*
X205791004Y-90111678D01*
X205684659Y-90241259D01*
X205555078Y-90347604D01*
X205555076Y-90347605D01*
X205407242Y-90426624D01*
X205246823Y-90475287D01*
X205121804Y-90487600D01*
X205038196Y-90487600D01*
X204913177Y-90475287D01*
X204752758Y-90426624D01*
X204604924Y-90347605D01*
X204604922Y-90347604D01*
X204475341Y-90241259D01*
X204368996Y-90111678D01*
X204303551Y-89989239D01*
X204289976Y-89963842D01*
X204241313Y-89803423D01*
X204224883Y-89636600D01*
X204241313Y-89469777D01*
X204289976Y-89309358D01*
X204368995Y-89161524D01*
X204368996Y-89161522D01*
X204475341Y-89031941D01*
X204604922Y-88925596D01*
X204620094Y-88917486D01*
X204752758Y-88846576D01*
X204913177Y-88797913D01*
X205038196Y-88785600D01*
X205121804Y-88785600D01*
X205246823Y-88797913D01*
X205246823Y-88797913D01*
G37*
G36*
X201436823Y-88797913D02*
G01*
X201597242Y-88846576D01*
X201729906Y-88917486D01*
X201745078Y-88925596D01*
X201874659Y-89031941D01*
X201981004Y-89161522D01*
X201981005Y-89161524D01*
X202060024Y-89309358D01*
X202108687Y-89469777D01*
X202125117Y-89636600D01*
X202108687Y-89803423D01*
X202060024Y-89963842D01*
X202046449Y-89989239D01*
X201981004Y-90111678D01*
X201874659Y-90241259D01*
X201745078Y-90347604D01*
X201745076Y-90347605D01*
X201597242Y-90426624D01*
X201436823Y-90475287D01*
X201311804Y-90487600D01*
X201228196Y-90487600D01*
X201103177Y-90475287D01*
X200942758Y-90426624D01*
X200794924Y-90347605D01*
X200794922Y-90347604D01*
X200665341Y-90241259D01*
X200558996Y-90111678D01*
X200493551Y-89989239D01*
X200479976Y-89963842D01*
X200431313Y-89803423D01*
X200414883Y-89636600D01*
X200431313Y-89469777D01*
X200479976Y-89309358D01*
X200558995Y-89161524D01*
X200558996Y-89161522D01*
X200665341Y-89031941D01*
X200794922Y-88925596D01*
X200810094Y-88917486D01*
X200942758Y-88846576D01*
X201103177Y-88797913D01*
X201228196Y-88785600D01*
X201311804Y-88785600D01*
X201436823Y-88797913D01*
X201436823Y-88797913D01*
G37*
G36*
X193816823Y-88797913D02*
G01*
X193977242Y-88846576D01*
X194109906Y-88917486D01*
X194125078Y-88925596D01*
X194254659Y-89031941D01*
X194361004Y-89161522D01*
X194361005Y-89161524D01*
X194440024Y-89309358D01*
X194488687Y-89469777D01*
X194505117Y-89636600D01*
X194488687Y-89803423D01*
X194440024Y-89963842D01*
X194426449Y-89989239D01*
X194361004Y-90111678D01*
X194254659Y-90241259D01*
X194125078Y-90347604D01*
X194125076Y-90347605D01*
X193977242Y-90426624D01*
X193816823Y-90475287D01*
X193691804Y-90487600D01*
X193608196Y-90487600D01*
X193483177Y-90475287D01*
X193322758Y-90426624D01*
X193174924Y-90347605D01*
X193174922Y-90347604D01*
X193045341Y-90241259D01*
X192938996Y-90111678D01*
X192873551Y-89989239D01*
X192859976Y-89963842D01*
X192811313Y-89803423D01*
X192794883Y-89636600D01*
X192811313Y-89469777D01*
X192859976Y-89309358D01*
X192938995Y-89161524D01*
X192938996Y-89161522D01*
X193045341Y-89031941D01*
X193174922Y-88925596D01*
X193190094Y-88917486D01*
X193322758Y-88846576D01*
X193483177Y-88797913D01*
X193608196Y-88785600D01*
X193691804Y-88785600D01*
X193816823Y-88797913D01*
X193816823Y-88797913D01*
G37*
G36*
X162218823Y-86334313D02*
G01*
X162379242Y-86382976D01*
X162511906Y-86453886D01*
X162527078Y-86461996D01*
X162656659Y-86568341D01*
X162763004Y-86697922D01*
X162763005Y-86697924D01*
X162842024Y-86845758D01*
X162890687Y-87006177D01*
X162907117Y-87173000D01*
X162890687Y-87339823D01*
X162842024Y-87500242D01*
X162790265Y-87597076D01*
X162763004Y-87648078D01*
X162656659Y-87777659D01*
X162527078Y-87884004D01*
X162527076Y-87884005D01*
X162379242Y-87963024D01*
X162218823Y-88011687D01*
X162093804Y-88024000D01*
X162010196Y-88024000D01*
X161885177Y-88011687D01*
X161724758Y-87963024D01*
X161576924Y-87884005D01*
X161576922Y-87884004D01*
X161447341Y-87777659D01*
X161340996Y-87648078D01*
X161313735Y-87597076D01*
X161261976Y-87500242D01*
X161213313Y-87339823D01*
X161196883Y-87173000D01*
X161213313Y-87006177D01*
X161261976Y-86845758D01*
X161340995Y-86697924D01*
X161340996Y-86697922D01*
X161447341Y-86568341D01*
X161576922Y-86461996D01*
X161592094Y-86453886D01*
X161724758Y-86382976D01*
X161885177Y-86334313D01*
X162010196Y-86322000D01*
X162093804Y-86322000D01*
X162218823Y-86334313D01*
X162218823Y-86334313D01*
G37*
G36*
X150788823Y-86334313D02*
G01*
X150949242Y-86382976D01*
X151081906Y-86453886D01*
X151097078Y-86461996D01*
X151226659Y-86568341D01*
X151333004Y-86697922D01*
X151333005Y-86697924D01*
X151412024Y-86845758D01*
X151460687Y-87006177D01*
X151477117Y-87173000D01*
X151460687Y-87339823D01*
X151412024Y-87500242D01*
X151360265Y-87597076D01*
X151333004Y-87648078D01*
X151226659Y-87777659D01*
X151097078Y-87884004D01*
X151097076Y-87884005D01*
X150949242Y-87963024D01*
X150788823Y-88011687D01*
X150663804Y-88024000D01*
X150580196Y-88024000D01*
X150455177Y-88011687D01*
X150294758Y-87963024D01*
X150146924Y-87884005D01*
X150146922Y-87884004D01*
X150017341Y-87777659D01*
X149910996Y-87648078D01*
X149883735Y-87597076D01*
X149831976Y-87500242D01*
X149783313Y-87339823D01*
X149766883Y-87173000D01*
X149783313Y-87006177D01*
X149831976Y-86845758D01*
X149910995Y-86697924D01*
X149910996Y-86697922D01*
X150017341Y-86568341D01*
X150146922Y-86461996D01*
X150162094Y-86453886D01*
X150294758Y-86382976D01*
X150455177Y-86334313D01*
X150580196Y-86322000D01*
X150663804Y-86322000D01*
X150788823Y-86334313D01*
X150788823Y-86334313D01*
G37*
G36*
X154598823Y-86334313D02*
G01*
X154759242Y-86382976D01*
X154891906Y-86453886D01*
X154907078Y-86461996D01*
X155036659Y-86568341D01*
X155143004Y-86697922D01*
X155143005Y-86697924D01*
X155222024Y-86845758D01*
X155270687Y-87006177D01*
X155287117Y-87173000D01*
X155270687Y-87339823D01*
X155222024Y-87500242D01*
X155170265Y-87597076D01*
X155143004Y-87648078D01*
X155036659Y-87777659D01*
X154907078Y-87884004D01*
X154907076Y-87884005D01*
X154759242Y-87963024D01*
X154598823Y-88011687D01*
X154473804Y-88024000D01*
X154390196Y-88024000D01*
X154265177Y-88011687D01*
X154104758Y-87963024D01*
X153956924Y-87884005D01*
X153956922Y-87884004D01*
X153827341Y-87777659D01*
X153720996Y-87648078D01*
X153693735Y-87597076D01*
X153641976Y-87500242D01*
X153593313Y-87339823D01*
X153576883Y-87173000D01*
X153593313Y-87006177D01*
X153641976Y-86845758D01*
X153720995Y-86697924D01*
X153720996Y-86697922D01*
X153827341Y-86568341D01*
X153956922Y-86461996D01*
X153972094Y-86453886D01*
X154104758Y-86382976D01*
X154265177Y-86334313D01*
X154390196Y-86322000D01*
X154473804Y-86322000D01*
X154598823Y-86334313D01*
X154598823Y-86334313D01*
G37*
G36*
X179998823Y-86334313D02*
G01*
X180159242Y-86382976D01*
X180291906Y-86453886D01*
X180307078Y-86461996D01*
X180436659Y-86568341D01*
X180543004Y-86697922D01*
X180543005Y-86697924D01*
X180622024Y-86845758D01*
X180670687Y-87006177D01*
X180687117Y-87173000D01*
X180670687Y-87339823D01*
X180622024Y-87500242D01*
X180570265Y-87597076D01*
X180543004Y-87648078D01*
X180436659Y-87777659D01*
X180307078Y-87884004D01*
X180307076Y-87884005D01*
X180159242Y-87963024D01*
X179998823Y-88011687D01*
X179873804Y-88024000D01*
X179790196Y-88024000D01*
X179665177Y-88011687D01*
X179504758Y-87963024D01*
X179356924Y-87884005D01*
X179356922Y-87884004D01*
X179227341Y-87777659D01*
X179120996Y-87648078D01*
X179093735Y-87597076D01*
X179041976Y-87500242D01*
X178993313Y-87339823D01*
X178976883Y-87173000D01*
X178993313Y-87006177D01*
X179041976Y-86845758D01*
X179120995Y-86697924D01*
X179120996Y-86697922D01*
X179227341Y-86568341D01*
X179356922Y-86461996D01*
X179372094Y-86453886D01*
X179504758Y-86382976D01*
X179665177Y-86334313D01*
X179790196Y-86322000D01*
X179873804Y-86322000D01*
X179998823Y-86334313D01*
X179998823Y-86334313D01*
G37*
G36*
X168568823Y-86334313D02*
G01*
X168729242Y-86382976D01*
X168861906Y-86453886D01*
X168877078Y-86461996D01*
X169006659Y-86568341D01*
X169113004Y-86697922D01*
X169113005Y-86697924D01*
X169192024Y-86845758D01*
X169240687Y-87006177D01*
X169257117Y-87173000D01*
X169240687Y-87339823D01*
X169192024Y-87500242D01*
X169140265Y-87597076D01*
X169113004Y-87648078D01*
X169006659Y-87777659D01*
X168877078Y-87884004D01*
X168877076Y-87884005D01*
X168729242Y-87963024D01*
X168568823Y-88011687D01*
X168443804Y-88024000D01*
X168360196Y-88024000D01*
X168235177Y-88011687D01*
X168074758Y-87963024D01*
X167926924Y-87884005D01*
X167926922Y-87884004D01*
X167797341Y-87777659D01*
X167690996Y-87648078D01*
X167663735Y-87597076D01*
X167611976Y-87500242D01*
X167563313Y-87339823D01*
X167546883Y-87173000D01*
X167563313Y-87006177D01*
X167611976Y-86845758D01*
X167690995Y-86697924D01*
X167690996Y-86697922D01*
X167797341Y-86568341D01*
X167926922Y-86461996D01*
X167942094Y-86453886D01*
X168074758Y-86382976D01*
X168235177Y-86334313D01*
X168360196Y-86322000D01*
X168443804Y-86322000D01*
X168568823Y-86334313D01*
X168568823Y-86334313D01*
G37*
G36*
X176188823Y-86334313D02*
G01*
X176349242Y-86382976D01*
X176481906Y-86453886D01*
X176497078Y-86461996D01*
X176626659Y-86568341D01*
X176733004Y-86697922D01*
X176733005Y-86697924D01*
X176812024Y-86845758D01*
X176860687Y-87006177D01*
X176877117Y-87173000D01*
X176860687Y-87339823D01*
X176812024Y-87500242D01*
X176760265Y-87597076D01*
X176733004Y-87648078D01*
X176626659Y-87777659D01*
X176497078Y-87884004D01*
X176497076Y-87884005D01*
X176349242Y-87963024D01*
X176188823Y-88011687D01*
X176063804Y-88024000D01*
X175980196Y-88024000D01*
X175855177Y-88011687D01*
X175694758Y-87963024D01*
X175546924Y-87884005D01*
X175546922Y-87884004D01*
X175417341Y-87777659D01*
X175310996Y-87648078D01*
X175283735Y-87597076D01*
X175231976Y-87500242D01*
X175183313Y-87339823D01*
X175166883Y-87173000D01*
X175183313Y-87006177D01*
X175231976Y-86845758D01*
X175310995Y-86697924D01*
X175310996Y-86697922D01*
X175417341Y-86568341D01*
X175546922Y-86461996D01*
X175562094Y-86453886D01*
X175694758Y-86382976D01*
X175855177Y-86334313D01*
X175980196Y-86322000D01*
X176063804Y-86322000D01*
X176188823Y-86334313D01*
X176188823Y-86334313D01*
G37*
G36*
X187618823Y-86334313D02*
G01*
X187779242Y-86382976D01*
X187911906Y-86453886D01*
X187927078Y-86461996D01*
X188056659Y-86568341D01*
X188163004Y-86697922D01*
X188163005Y-86697924D01*
X188242024Y-86845758D01*
X188290687Y-87006177D01*
X188307117Y-87173000D01*
X188290687Y-87339823D01*
X188242024Y-87500242D01*
X188190265Y-87597076D01*
X188163004Y-87648078D01*
X188056659Y-87777659D01*
X187927078Y-87884004D01*
X187927076Y-87884005D01*
X187779242Y-87963024D01*
X187618823Y-88011687D01*
X187493804Y-88024000D01*
X187410196Y-88024000D01*
X187285177Y-88011687D01*
X187124758Y-87963024D01*
X186976924Y-87884005D01*
X186976922Y-87884004D01*
X186847341Y-87777659D01*
X186740996Y-87648078D01*
X186713735Y-87597076D01*
X186661976Y-87500242D01*
X186613313Y-87339823D01*
X186596883Y-87173000D01*
X186613313Y-87006177D01*
X186661976Y-86845758D01*
X186740995Y-86697924D01*
X186740996Y-86697922D01*
X186847341Y-86568341D01*
X186976922Y-86461996D01*
X186992094Y-86453886D01*
X187124758Y-86382976D01*
X187285177Y-86334313D01*
X187410196Y-86322000D01*
X187493804Y-86322000D01*
X187618823Y-86334313D01*
X187618823Y-86334313D01*
G37*
G36*
X143168823Y-86334313D02*
G01*
X143329242Y-86382976D01*
X143461906Y-86453886D01*
X143477078Y-86461996D01*
X143606659Y-86568341D01*
X143713004Y-86697922D01*
X143713005Y-86697924D01*
X143792024Y-86845758D01*
X143840687Y-87006177D01*
X143857117Y-87173000D01*
X143840687Y-87339823D01*
X143792024Y-87500242D01*
X143740265Y-87597076D01*
X143713004Y-87648078D01*
X143606659Y-87777659D01*
X143477078Y-87884004D01*
X143477076Y-87884005D01*
X143329242Y-87963024D01*
X143168823Y-88011687D01*
X143043804Y-88024000D01*
X142960196Y-88024000D01*
X142835177Y-88011687D01*
X142674758Y-87963024D01*
X142526924Y-87884005D01*
X142526922Y-87884004D01*
X142397341Y-87777659D01*
X142290996Y-87648078D01*
X142263735Y-87597076D01*
X142211976Y-87500242D01*
X142163313Y-87339823D01*
X142146883Y-87173000D01*
X142163313Y-87006177D01*
X142211976Y-86845758D01*
X142290995Y-86697924D01*
X142290996Y-86697922D01*
X142397341Y-86568341D01*
X142526922Y-86461996D01*
X142542094Y-86453886D01*
X142674758Y-86382976D01*
X142835177Y-86334313D01*
X142960196Y-86322000D01*
X143043804Y-86322000D01*
X143168823Y-86334313D01*
X143168823Y-86334313D01*
G37*
G36*
X226734823Y-86283313D02*
G01*
X226895242Y-86331976D01*
X226990654Y-86382975D01*
X227043078Y-86410996D01*
X227172659Y-86517341D01*
X227279004Y-86646922D01*
X227279005Y-86646924D01*
X227358024Y-86794758D01*
X227406687Y-86955177D01*
X227423117Y-87122000D01*
X227406687Y-87288823D01*
X227358024Y-87449242D01*
X227287114Y-87581906D01*
X227279004Y-87597078D01*
X227172659Y-87726659D01*
X227043078Y-87833004D01*
X227043076Y-87833005D01*
X226895242Y-87912024D01*
X226734823Y-87960687D01*
X226609804Y-87973000D01*
X226526196Y-87973000D01*
X226401177Y-87960687D01*
X226240758Y-87912024D01*
X226092924Y-87833005D01*
X226092922Y-87833004D01*
X225963341Y-87726659D01*
X225856996Y-87597078D01*
X225848886Y-87581906D01*
X225777976Y-87449242D01*
X225729313Y-87288823D01*
X225712883Y-87122000D01*
X225729313Y-86955177D01*
X225777976Y-86794758D01*
X225856995Y-86646924D01*
X225856996Y-86646922D01*
X225963341Y-86517341D01*
X226092922Y-86410996D01*
X226145346Y-86382975D01*
X226240758Y-86331976D01*
X226401177Y-86283313D01*
X226526196Y-86271000D01*
X226609804Y-86271000D01*
X226734823Y-86283313D01*
X226734823Y-86283313D01*
G37*
G36*
X230544823Y-86283313D02*
G01*
X230705242Y-86331976D01*
X230800654Y-86382975D01*
X230853078Y-86410996D01*
X230982659Y-86517341D01*
X231089004Y-86646922D01*
X231089005Y-86646924D01*
X231168024Y-86794758D01*
X231216687Y-86955177D01*
X231233117Y-87122000D01*
X231216687Y-87288823D01*
X231168024Y-87449242D01*
X231097114Y-87581906D01*
X231089004Y-87597078D01*
X230982659Y-87726659D01*
X230853078Y-87833004D01*
X230853076Y-87833005D01*
X230705242Y-87912024D01*
X230544823Y-87960687D01*
X230419804Y-87973000D01*
X230336196Y-87973000D01*
X230211177Y-87960687D01*
X230050758Y-87912024D01*
X229902924Y-87833005D01*
X229902922Y-87833004D01*
X229773341Y-87726659D01*
X229666996Y-87597078D01*
X229658886Y-87581906D01*
X229587976Y-87449242D01*
X229539313Y-87288823D01*
X229522883Y-87122000D01*
X229539313Y-86955177D01*
X229587976Y-86794758D01*
X229666995Y-86646924D01*
X229666996Y-86646922D01*
X229773341Y-86517341D01*
X229902922Y-86410996D01*
X229955346Y-86382975D01*
X230050758Y-86331976D01*
X230211177Y-86283313D01*
X230336196Y-86271000D01*
X230419804Y-86271000D01*
X230544823Y-86283313D01*
X230544823Y-86283313D01*
G37*
G36*
X238164823Y-86283313D02*
G01*
X238325242Y-86331976D01*
X238420654Y-86382975D01*
X238473078Y-86410996D01*
X238602659Y-86517341D01*
X238709004Y-86646922D01*
X238709005Y-86646924D01*
X238788024Y-86794758D01*
X238836687Y-86955177D01*
X238853117Y-87122000D01*
X238836687Y-87288823D01*
X238788024Y-87449242D01*
X238717114Y-87581906D01*
X238709004Y-87597078D01*
X238602659Y-87726659D01*
X238473078Y-87833004D01*
X238473076Y-87833005D01*
X238325242Y-87912024D01*
X238164823Y-87960687D01*
X238039804Y-87973000D01*
X237956196Y-87973000D01*
X237831177Y-87960687D01*
X237670758Y-87912024D01*
X237522924Y-87833005D01*
X237522922Y-87833004D01*
X237393341Y-87726659D01*
X237286996Y-87597078D01*
X237278886Y-87581906D01*
X237207976Y-87449242D01*
X237159313Y-87288823D01*
X237142883Y-87122000D01*
X237159313Y-86955177D01*
X237207976Y-86794758D01*
X237286995Y-86646924D01*
X237286996Y-86646922D01*
X237393341Y-86517341D01*
X237522922Y-86410996D01*
X237575346Y-86382975D01*
X237670758Y-86331976D01*
X237831177Y-86283313D01*
X237956196Y-86271000D01*
X238039804Y-86271000D01*
X238164823Y-86283313D01*
X238164823Y-86283313D01*
G37*
G36*
X219114823Y-86283313D02*
G01*
X219275242Y-86331976D01*
X219370654Y-86382975D01*
X219423078Y-86410996D01*
X219552659Y-86517341D01*
X219659004Y-86646922D01*
X219659005Y-86646924D01*
X219738024Y-86794758D01*
X219786687Y-86955177D01*
X219803117Y-87122000D01*
X219786687Y-87288823D01*
X219738024Y-87449242D01*
X219667114Y-87581906D01*
X219659004Y-87597078D01*
X219552659Y-87726659D01*
X219423078Y-87833004D01*
X219423076Y-87833005D01*
X219275242Y-87912024D01*
X219114823Y-87960687D01*
X218989804Y-87973000D01*
X218906196Y-87973000D01*
X218781177Y-87960687D01*
X218620758Y-87912024D01*
X218472924Y-87833005D01*
X218472922Y-87833004D01*
X218343341Y-87726659D01*
X218236996Y-87597078D01*
X218228886Y-87581906D01*
X218157976Y-87449242D01*
X218109313Y-87288823D01*
X218092883Y-87122000D01*
X218109313Y-86955177D01*
X218157976Y-86794758D01*
X218236995Y-86646924D01*
X218236996Y-86646922D01*
X218343341Y-86517341D01*
X218472922Y-86410996D01*
X218525346Y-86382975D01*
X218620758Y-86331976D01*
X218781177Y-86283313D01*
X218906196Y-86271000D01*
X218989804Y-86271000D01*
X219114823Y-86283313D01*
X219114823Y-86283313D01*
G37*
G36*
X212866823Y-86257913D02*
G01*
X213027242Y-86306576D01*
X213159906Y-86377486D01*
X213175078Y-86385596D01*
X213304659Y-86491941D01*
X213411004Y-86621522D01*
X213411005Y-86621524D01*
X213490024Y-86769358D01*
X213538687Y-86929777D01*
X213555117Y-87096600D01*
X213538687Y-87263423D01*
X213490024Y-87423842D01*
X213476449Y-87449239D01*
X213411004Y-87571678D01*
X213304659Y-87701259D01*
X213175078Y-87807604D01*
X213175076Y-87807605D01*
X213027242Y-87886624D01*
X212866823Y-87935287D01*
X212741804Y-87947600D01*
X212658196Y-87947600D01*
X212533177Y-87935287D01*
X212372758Y-87886624D01*
X212224924Y-87807605D01*
X212224922Y-87807604D01*
X212095341Y-87701259D01*
X211988996Y-87571678D01*
X211923551Y-87449239D01*
X211909976Y-87423842D01*
X211861313Y-87263423D01*
X211844883Y-87096600D01*
X211861313Y-86929777D01*
X211909976Y-86769358D01*
X211988995Y-86621524D01*
X211988996Y-86621522D01*
X212095341Y-86491941D01*
X212224922Y-86385596D01*
X212240094Y-86377486D01*
X212372758Y-86306576D01*
X212533177Y-86257913D01*
X212658196Y-86245600D01*
X212741804Y-86245600D01*
X212866823Y-86257913D01*
X212866823Y-86257913D01*
G37*
G36*
X205246823Y-86257913D02*
G01*
X205407242Y-86306576D01*
X205539906Y-86377486D01*
X205555078Y-86385596D01*
X205684659Y-86491941D01*
X205791004Y-86621522D01*
X205791005Y-86621524D01*
X205870024Y-86769358D01*
X205918687Y-86929777D01*
X205935117Y-87096600D01*
X205918687Y-87263423D01*
X205870024Y-87423842D01*
X205856449Y-87449239D01*
X205791004Y-87571678D01*
X205684659Y-87701259D01*
X205555078Y-87807604D01*
X205555076Y-87807605D01*
X205407242Y-87886624D01*
X205246823Y-87935287D01*
X205121804Y-87947600D01*
X205038196Y-87947600D01*
X204913177Y-87935287D01*
X204752758Y-87886624D01*
X204604924Y-87807605D01*
X204604922Y-87807604D01*
X204475341Y-87701259D01*
X204368996Y-87571678D01*
X204303551Y-87449239D01*
X204289976Y-87423842D01*
X204241313Y-87263423D01*
X204224883Y-87096600D01*
X204241313Y-86929777D01*
X204289976Y-86769358D01*
X204368995Y-86621524D01*
X204368996Y-86621522D01*
X204475341Y-86491941D01*
X204604922Y-86385596D01*
X204620094Y-86377486D01*
X204752758Y-86306576D01*
X204913177Y-86257913D01*
X205038196Y-86245600D01*
X205121804Y-86245600D01*
X205246823Y-86257913D01*
X205246823Y-86257913D01*
G37*
G36*
X201436823Y-86257913D02*
G01*
X201597242Y-86306576D01*
X201729906Y-86377486D01*
X201745078Y-86385596D01*
X201874659Y-86491941D01*
X201981004Y-86621522D01*
X201981005Y-86621524D01*
X202060024Y-86769358D01*
X202108687Y-86929777D01*
X202125117Y-87096600D01*
X202108687Y-87263423D01*
X202060024Y-87423842D01*
X202046449Y-87449239D01*
X201981004Y-87571678D01*
X201874659Y-87701259D01*
X201745078Y-87807604D01*
X201745076Y-87807605D01*
X201597242Y-87886624D01*
X201436823Y-87935287D01*
X201311804Y-87947600D01*
X201228196Y-87947600D01*
X201103177Y-87935287D01*
X200942758Y-87886624D01*
X200794924Y-87807605D01*
X200794922Y-87807604D01*
X200665341Y-87701259D01*
X200558996Y-87571678D01*
X200493551Y-87449239D01*
X200479976Y-87423842D01*
X200431313Y-87263423D01*
X200414883Y-87096600D01*
X200431313Y-86929777D01*
X200479976Y-86769358D01*
X200558995Y-86621524D01*
X200558996Y-86621522D01*
X200665341Y-86491941D01*
X200794922Y-86385596D01*
X200810094Y-86377486D01*
X200942758Y-86306576D01*
X201103177Y-86257913D01*
X201228196Y-86245600D01*
X201311804Y-86245600D01*
X201436823Y-86257913D01*
X201436823Y-86257913D01*
G37*
G36*
X193816823Y-86257913D02*
G01*
X193977242Y-86306576D01*
X194109906Y-86377486D01*
X194125078Y-86385596D01*
X194254659Y-86491941D01*
X194361004Y-86621522D01*
X194361005Y-86621524D01*
X194440024Y-86769358D01*
X194488687Y-86929777D01*
X194505117Y-87096600D01*
X194488687Y-87263423D01*
X194440024Y-87423842D01*
X194426449Y-87449239D01*
X194361004Y-87571678D01*
X194254659Y-87701259D01*
X194125078Y-87807604D01*
X194125076Y-87807605D01*
X193977242Y-87886624D01*
X193816823Y-87935287D01*
X193691804Y-87947600D01*
X193608196Y-87947600D01*
X193483177Y-87935287D01*
X193322758Y-87886624D01*
X193174924Y-87807605D01*
X193174922Y-87807604D01*
X193045341Y-87701259D01*
X192938996Y-87571678D01*
X192873551Y-87449239D01*
X192859976Y-87423842D01*
X192811313Y-87263423D01*
X192794883Y-87096600D01*
X192811313Y-86929777D01*
X192859976Y-86769358D01*
X192938995Y-86621524D01*
X192938996Y-86621522D01*
X193045341Y-86491941D01*
X193174922Y-86385596D01*
X193190094Y-86377486D01*
X193322758Y-86306576D01*
X193483177Y-86257913D01*
X193608196Y-86245600D01*
X193691804Y-86245600D01*
X193816823Y-86257913D01*
X193816823Y-86257913D01*
G37*
G36*
X176188823Y-83794313D02*
G01*
X176349242Y-83842976D01*
X176481906Y-83913886D01*
X176497078Y-83921996D01*
X176626659Y-84028341D01*
X176733004Y-84157922D01*
X176733005Y-84157924D01*
X176812024Y-84305758D01*
X176860687Y-84466177D01*
X176877117Y-84633000D01*
X176860687Y-84799823D01*
X176812024Y-84960242D01*
X176760265Y-85057076D01*
X176733004Y-85108078D01*
X176626659Y-85237659D01*
X176497078Y-85344004D01*
X176497076Y-85344005D01*
X176349242Y-85423024D01*
X176188823Y-85471687D01*
X176063804Y-85484000D01*
X175980196Y-85484000D01*
X175855177Y-85471687D01*
X175694758Y-85423024D01*
X175546924Y-85344005D01*
X175546922Y-85344004D01*
X175417341Y-85237659D01*
X175310996Y-85108078D01*
X175283735Y-85057076D01*
X175231976Y-84960242D01*
X175183313Y-84799823D01*
X175166883Y-84633000D01*
X175183313Y-84466177D01*
X175231976Y-84305758D01*
X175310995Y-84157924D01*
X175310996Y-84157922D01*
X175417341Y-84028341D01*
X175546922Y-83921996D01*
X175562094Y-83913886D01*
X175694758Y-83842976D01*
X175855177Y-83794313D01*
X175980196Y-83782000D01*
X176063804Y-83782000D01*
X176188823Y-83794313D01*
X176188823Y-83794313D01*
G37*
G36*
X150788823Y-83794313D02*
G01*
X150949242Y-83842976D01*
X151081906Y-83913886D01*
X151097078Y-83921996D01*
X151226659Y-84028341D01*
X151333004Y-84157922D01*
X151333005Y-84157924D01*
X151412024Y-84305758D01*
X151460687Y-84466177D01*
X151477117Y-84633000D01*
X151460687Y-84799823D01*
X151412024Y-84960242D01*
X151360265Y-85057076D01*
X151333004Y-85108078D01*
X151226659Y-85237659D01*
X151097078Y-85344004D01*
X151097076Y-85344005D01*
X150949242Y-85423024D01*
X150788823Y-85471687D01*
X150663804Y-85484000D01*
X150580196Y-85484000D01*
X150455177Y-85471687D01*
X150294758Y-85423024D01*
X150146924Y-85344005D01*
X150146922Y-85344004D01*
X150017341Y-85237659D01*
X149910996Y-85108078D01*
X149883735Y-85057076D01*
X149831976Y-84960242D01*
X149783313Y-84799823D01*
X149766883Y-84633000D01*
X149783313Y-84466177D01*
X149831976Y-84305758D01*
X149910995Y-84157924D01*
X149910996Y-84157922D01*
X150017341Y-84028341D01*
X150146922Y-83921996D01*
X150162094Y-83913886D01*
X150294758Y-83842976D01*
X150455177Y-83794313D01*
X150580196Y-83782000D01*
X150663804Y-83782000D01*
X150788823Y-83794313D01*
X150788823Y-83794313D01*
G37*
G36*
X187618823Y-83794313D02*
G01*
X187779242Y-83842976D01*
X187911906Y-83913886D01*
X187927078Y-83921996D01*
X188056659Y-84028341D01*
X188163004Y-84157922D01*
X188163005Y-84157924D01*
X188242024Y-84305758D01*
X188290687Y-84466177D01*
X188307117Y-84633000D01*
X188290687Y-84799823D01*
X188242024Y-84960242D01*
X188190265Y-85057076D01*
X188163004Y-85108078D01*
X188056659Y-85237659D01*
X187927078Y-85344004D01*
X187927076Y-85344005D01*
X187779242Y-85423024D01*
X187618823Y-85471687D01*
X187493804Y-85484000D01*
X187410196Y-85484000D01*
X187285177Y-85471687D01*
X187124758Y-85423024D01*
X186976924Y-85344005D01*
X186976922Y-85344004D01*
X186847341Y-85237659D01*
X186740996Y-85108078D01*
X186713735Y-85057076D01*
X186661976Y-84960242D01*
X186613313Y-84799823D01*
X186596883Y-84633000D01*
X186613313Y-84466177D01*
X186661976Y-84305758D01*
X186740995Y-84157924D01*
X186740996Y-84157922D01*
X186847341Y-84028341D01*
X186976922Y-83921996D01*
X186992094Y-83913886D01*
X187124758Y-83842976D01*
X187285177Y-83794313D01*
X187410196Y-83782000D01*
X187493804Y-83782000D01*
X187618823Y-83794313D01*
X187618823Y-83794313D01*
G37*
G36*
X179998823Y-83794313D02*
G01*
X180159242Y-83842976D01*
X180291906Y-83913886D01*
X180307078Y-83921996D01*
X180436659Y-84028341D01*
X180543004Y-84157922D01*
X180543005Y-84157924D01*
X180622024Y-84305758D01*
X180670687Y-84466177D01*
X180687117Y-84633000D01*
X180670687Y-84799823D01*
X180622024Y-84960242D01*
X180570265Y-85057076D01*
X180543004Y-85108078D01*
X180436659Y-85237659D01*
X180307078Y-85344004D01*
X180307076Y-85344005D01*
X180159242Y-85423024D01*
X179998823Y-85471687D01*
X179873804Y-85484000D01*
X179790196Y-85484000D01*
X179665177Y-85471687D01*
X179504758Y-85423024D01*
X179356924Y-85344005D01*
X179356922Y-85344004D01*
X179227341Y-85237659D01*
X179120996Y-85108078D01*
X179093735Y-85057076D01*
X179041976Y-84960242D01*
X178993313Y-84799823D01*
X178976883Y-84633000D01*
X178993313Y-84466177D01*
X179041976Y-84305758D01*
X179120995Y-84157924D01*
X179120996Y-84157922D01*
X179227341Y-84028341D01*
X179356922Y-83921996D01*
X179372094Y-83913886D01*
X179504758Y-83842976D01*
X179665177Y-83794313D01*
X179790196Y-83782000D01*
X179873804Y-83782000D01*
X179998823Y-83794313D01*
X179998823Y-83794313D01*
G37*
G36*
X168568823Y-83794313D02*
G01*
X168729242Y-83842976D01*
X168861906Y-83913886D01*
X168877078Y-83921996D01*
X169006659Y-84028341D01*
X169113004Y-84157922D01*
X169113005Y-84157924D01*
X169192024Y-84305758D01*
X169240687Y-84466177D01*
X169257117Y-84633000D01*
X169240687Y-84799823D01*
X169192024Y-84960242D01*
X169140265Y-85057076D01*
X169113004Y-85108078D01*
X169006659Y-85237659D01*
X168877078Y-85344004D01*
X168877076Y-85344005D01*
X168729242Y-85423024D01*
X168568823Y-85471687D01*
X168443804Y-85484000D01*
X168360196Y-85484000D01*
X168235177Y-85471687D01*
X168074758Y-85423024D01*
X167926924Y-85344005D01*
X167926922Y-85344004D01*
X167797341Y-85237659D01*
X167690996Y-85108078D01*
X167663735Y-85057076D01*
X167611976Y-84960242D01*
X167563313Y-84799823D01*
X167546883Y-84633000D01*
X167563313Y-84466177D01*
X167611976Y-84305758D01*
X167690995Y-84157924D01*
X167690996Y-84157922D01*
X167797341Y-84028341D01*
X167926922Y-83921996D01*
X167942094Y-83913886D01*
X168074758Y-83842976D01*
X168235177Y-83794313D01*
X168360196Y-83782000D01*
X168443804Y-83782000D01*
X168568823Y-83794313D01*
X168568823Y-83794313D01*
G37*
G36*
X162218823Y-83794313D02*
G01*
X162379242Y-83842976D01*
X162511906Y-83913886D01*
X162527078Y-83921996D01*
X162656659Y-84028341D01*
X162763004Y-84157922D01*
X162763005Y-84157924D01*
X162842024Y-84305758D01*
X162890687Y-84466177D01*
X162907117Y-84633000D01*
X162890687Y-84799823D01*
X162842024Y-84960242D01*
X162790265Y-85057076D01*
X162763004Y-85108078D01*
X162656659Y-85237659D01*
X162527078Y-85344004D01*
X162527076Y-85344005D01*
X162379242Y-85423024D01*
X162218823Y-85471687D01*
X162093804Y-85484000D01*
X162010196Y-85484000D01*
X161885177Y-85471687D01*
X161724758Y-85423024D01*
X161576924Y-85344005D01*
X161576922Y-85344004D01*
X161447341Y-85237659D01*
X161340996Y-85108078D01*
X161313735Y-85057076D01*
X161261976Y-84960242D01*
X161213313Y-84799823D01*
X161196883Y-84633000D01*
X161213313Y-84466177D01*
X161261976Y-84305758D01*
X161340995Y-84157924D01*
X161340996Y-84157922D01*
X161447341Y-84028341D01*
X161576922Y-83921996D01*
X161592094Y-83913886D01*
X161724758Y-83842976D01*
X161885177Y-83794313D01*
X162010196Y-83782000D01*
X162093804Y-83782000D01*
X162218823Y-83794313D01*
X162218823Y-83794313D01*
G37*
G36*
X154598823Y-83794313D02*
G01*
X154759242Y-83842976D01*
X154891906Y-83913886D01*
X154907078Y-83921996D01*
X155036659Y-84028341D01*
X155143004Y-84157922D01*
X155143005Y-84157924D01*
X155222024Y-84305758D01*
X155270687Y-84466177D01*
X155287117Y-84633000D01*
X155270687Y-84799823D01*
X155222024Y-84960242D01*
X155170265Y-85057076D01*
X155143004Y-85108078D01*
X155036659Y-85237659D01*
X154907078Y-85344004D01*
X154907076Y-85344005D01*
X154759242Y-85423024D01*
X154598823Y-85471687D01*
X154473804Y-85484000D01*
X154390196Y-85484000D01*
X154265177Y-85471687D01*
X154104758Y-85423024D01*
X153956924Y-85344005D01*
X153956922Y-85344004D01*
X153827341Y-85237659D01*
X153720996Y-85108078D01*
X153693735Y-85057076D01*
X153641976Y-84960242D01*
X153593313Y-84799823D01*
X153576883Y-84633000D01*
X153593313Y-84466177D01*
X153641976Y-84305758D01*
X153720995Y-84157924D01*
X153720996Y-84157922D01*
X153827341Y-84028341D01*
X153956922Y-83921996D01*
X153972094Y-83913886D01*
X154104758Y-83842976D01*
X154265177Y-83794313D01*
X154390196Y-83782000D01*
X154473804Y-83782000D01*
X154598823Y-83794313D01*
X154598823Y-83794313D01*
G37*
G36*
X143168823Y-83794313D02*
G01*
X143329242Y-83842976D01*
X143461906Y-83913886D01*
X143477078Y-83921996D01*
X143606659Y-84028341D01*
X143713004Y-84157922D01*
X143713005Y-84157924D01*
X143792024Y-84305758D01*
X143840687Y-84466177D01*
X143857117Y-84633000D01*
X143840687Y-84799823D01*
X143792024Y-84960242D01*
X143740265Y-85057076D01*
X143713004Y-85108078D01*
X143606659Y-85237659D01*
X143477078Y-85344004D01*
X143477076Y-85344005D01*
X143329242Y-85423024D01*
X143168823Y-85471687D01*
X143043804Y-85484000D01*
X142960196Y-85484000D01*
X142835177Y-85471687D01*
X142674758Y-85423024D01*
X142526924Y-85344005D01*
X142526922Y-85344004D01*
X142397341Y-85237659D01*
X142290996Y-85108078D01*
X142263735Y-85057076D01*
X142211976Y-84960242D01*
X142163313Y-84799823D01*
X142146883Y-84633000D01*
X142163313Y-84466177D01*
X142211976Y-84305758D01*
X142290995Y-84157924D01*
X142290996Y-84157922D01*
X142397341Y-84028341D01*
X142526922Y-83921996D01*
X142542094Y-83913886D01*
X142674758Y-83842976D01*
X142835177Y-83794313D01*
X142960196Y-83782000D01*
X143043804Y-83782000D01*
X143168823Y-83794313D01*
X143168823Y-83794313D01*
G37*
G36*
X226734823Y-83743313D02*
G01*
X226895242Y-83791976D01*
X226990654Y-83842975D01*
X227043078Y-83870996D01*
X227172659Y-83977341D01*
X227279004Y-84106922D01*
X227279005Y-84106924D01*
X227358024Y-84254758D01*
X227406687Y-84415177D01*
X227423117Y-84582000D01*
X227406687Y-84748823D01*
X227358024Y-84909242D01*
X227287114Y-85041906D01*
X227279004Y-85057078D01*
X227172659Y-85186659D01*
X227043078Y-85293004D01*
X227043076Y-85293005D01*
X226895242Y-85372024D01*
X226734823Y-85420687D01*
X226609804Y-85433000D01*
X226526196Y-85433000D01*
X226401177Y-85420687D01*
X226240758Y-85372024D01*
X226092924Y-85293005D01*
X226092922Y-85293004D01*
X225963341Y-85186659D01*
X225856996Y-85057078D01*
X225848886Y-85041906D01*
X225777976Y-84909242D01*
X225729313Y-84748823D01*
X225712883Y-84582000D01*
X225729313Y-84415177D01*
X225777976Y-84254758D01*
X225856995Y-84106924D01*
X225856996Y-84106922D01*
X225963341Y-83977341D01*
X226092922Y-83870996D01*
X226145346Y-83842975D01*
X226240758Y-83791976D01*
X226401177Y-83743313D01*
X226526196Y-83731000D01*
X226609804Y-83731000D01*
X226734823Y-83743313D01*
X226734823Y-83743313D01*
G37*
G36*
X219114823Y-83743313D02*
G01*
X219275242Y-83791976D01*
X219370654Y-83842975D01*
X219423078Y-83870996D01*
X219552659Y-83977341D01*
X219659004Y-84106922D01*
X219659005Y-84106924D01*
X219738024Y-84254758D01*
X219786687Y-84415177D01*
X219803117Y-84582000D01*
X219786687Y-84748823D01*
X219738024Y-84909242D01*
X219667114Y-85041906D01*
X219659004Y-85057078D01*
X219552659Y-85186659D01*
X219423078Y-85293004D01*
X219423076Y-85293005D01*
X219275242Y-85372024D01*
X219114823Y-85420687D01*
X218989804Y-85433000D01*
X218906196Y-85433000D01*
X218781177Y-85420687D01*
X218620758Y-85372024D01*
X218472924Y-85293005D01*
X218472922Y-85293004D01*
X218343341Y-85186659D01*
X218236996Y-85057078D01*
X218228886Y-85041906D01*
X218157976Y-84909242D01*
X218109313Y-84748823D01*
X218092883Y-84582000D01*
X218109313Y-84415177D01*
X218157976Y-84254758D01*
X218236995Y-84106924D01*
X218236996Y-84106922D01*
X218343341Y-83977341D01*
X218472922Y-83870996D01*
X218525346Y-83842975D01*
X218620758Y-83791976D01*
X218781177Y-83743313D01*
X218906196Y-83731000D01*
X218989804Y-83731000D01*
X219114823Y-83743313D01*
X219114823Y-83743313D01*
G37*
G36*
X238164823Y-83743313D02*
G01*
X238325242Y-83791976D01*
X238420654Y-83842975D01*
X238473078Y-83870996D01*
X238602659Y-83977341D01*
X238709004Y-84106922D01*
X238709005Y-84106924D01*
X238788024Y-84254758D01*
X238836687Y-84415177D01*
X238853117Y-84582000D01*
X238836687Y-84748823D01*
X238788024Y-84909242D01*
X238717114Y-85041906D01*
X238709004Y-85057078D01*
X238602659Y-85186659D01*
X238473078Y-85293004D01*
X238473076Y-85293005D01*
X238325242Y-85372024D01*
X238164823Y-85420687D01*
X238039804Y-85433000D01*
X237956196Y-85433000D01*
X237831177Y-85420687D01*
X237670758Y-85372024D01*
X237522924Y-85293005D01*
X237522922Y-85293004D01*
X237393341Y-85186659D01*
X237286996Y-85057078D01*
X237278886Y-85041906D01*
X237207976Y-84909242D01*
X237159313Y-84748823D01*
X237142883Y-84582000D01*
X237159313Y-84415177D01*
X237207976Y-84254758D01*
X237286995Y-84106924D01*
X237286996Y-84106922D01*
X237393341Y-83977341D01*
X237522922Y-83870996D01*
X237575346Y-83842975D01*
X237670758Y-83791976D01*
X237831177Y-83743313D01*
X237956196Y-83731000D01*
X238039804Y-83731000D01*
X238164823Y-83743313D01*
X238164823Y-83743313D01*
G37*
G36*
X230544823Y-83743313D02*
G01*
X230705242Y-83791976D01*
X230800654Y-83842975D01*
X230853078Y-83870996D01*
X230982659Y-83977341D01*
X231089004Y-84106922D01*
X231089005Y-84106924D01*
X231168024Y-84254758D01*
X231216687Y-84415177D01*
X231233117Y-84582000D01*
X231216687Y-84748823D01*
X231168024Y-84909242D01*
X231097114Y-85041906D01*
X231089004Y-85057078D01*
X230982659Y-85186659D01*
X230853078Y-85293004D01*
X230853076Y-85293005D01*
X230705242Y-85372024D01*
X230544823Y-85420687D01*
X230419804Y-85433000D01*
X230336196Y-85433000D01*
X230211177Y-85420687D01*
X230050758Y-85372024D01*
X229902924Y-85293005D01*
X229902922Y-85293004D01*
X229773341Y-85186659D01*
X229666996Y-85057078D01*
X229658886Y-85041906D01*
X229587976Y-84909242D01*
X229539313Y-84748823D01*
X229522883Y-84582000D01*
X229539313Y-84415177D01*
X229587976Y-84254758D01*
X229666995Y-84106924D01*
X229666996Y-84106922D01*
X229773341Y-83977341D01*
X229902922Y-83870996D01*
X229955346Y-83842975D01*
X230050758Y-83791976D01*
X230211177Y-83743313D01*
X230336196Y-83731000D01*
X230419804Y-83731000D01*
X230544823Y-83743313D01*
X230544823Y-83743313D01*
G37*
G36*
X193816823Y-83717913D02*
G01*
X193977242Y-83766576D01*
X194109906Y-83837486D01*
X194125078Y-83845596D01*
X194254659Y-83951941D01*
X194361004Y-84081522D01*
X194361005Y-84081524D01*
X194440024Y-84229358D01*
X194488687Y-84389777D01*
X194505117Y-84556600D01*
X194488687Y-84723423D01*
X194440024Y-84883842D01*
X194426449Y-84909239D01*
X194361004Y-85031678D01*
X194254659Y-85161259D01*
X194125078Y-85267604D01*
X194125076Y-85267605D01*
X193977242Y-85346624D01*
X193816823Y-85395287D01*
X193691804Y-85407600D01*
X193608196Y-85407600D01*
X193483177Y-85395287D01*
X193322758Y-85346624D01*
X193174924Y-85267605D01*
X193174922Y-85267604D01*
X193045341Y-85161259D01*
X192938996Y-85031678D01*
X192873551Y-84909239D01*
X192859976Y-84883842D01*
X192811313Y-84723423D01*
X192794883Y-84556600D01*
X192811313Y-84389777D01*
X192859976Y-84229358D01*
X192938995Y-84081524D01*
X192938996Y-84081522D01*
X193045341Y-83951941D01*
X193174922Y-83845596D01*
X193190094Y-83837486D01*
X193322758Y-83766576D01*
X193483177Y-83717913D01*
X193608196Y-83705600D01*
X193691804Y-83705600D01*
X193816823Y-83717913D01*
X193816823Y-83717913D01*
G37*
G36*
X201436823Y-83717913D02*
G01*
X201597242Y-83766576D01*
X201729906Y-83837486D01*
X201745078Y-83845596D01*
X201874659Y-83951941D01*
X201981004Y-84081522D01*
X201981005Y-84081524D01*
X202060024Y-84229358D01*
X202108687Y-84389777D01*
X202125117Y-84556600D01*
X202108687Y-84723423D01*
X202060024Y-84883842D01*
X202046449Y-84909239D01*
X201981004Y-85031678D01*
X201874659Y-85161259D01*
X201745078Y-85267604D01*
X201745076Y-85267605D01*
X201597242Y-85346624D01*
X201436823Y-85395287D01*
X201311804Y-85407600D01*
X201228196Y-85407600D01*
X201103177Y-85395287D01*
X200942758Y-85346624D01*
X200794924Y-85267605D01*
X200794922Y-85267604D01*
X200665341Y-85161259D01*
X200558996Y-85031678D01*
X200493551Y-84909239D01*
X200479976Y-84883842D01*
X200431313Y-84723423D01*
X200414883Y-84556600D01*
X200431313Y-84389777D01*
X200479976Y-84229358D01*
X200558995Y-84081524D01*
X200558996Y-84081522D01*
X200665341Y-83951941D01*
X200794922Y-83845596D01*
X200810094Y-83837486D01*
X200942758Y-83766576D01*
X201103177Y-83717913D01*
X201228196Y-83705600D01*
X201311804Y-83705600D01*
X201436823Y-83717913D01*
X201436823Y-83717913D01*
G37*
G36*
X205246823Y-83717913D02*
G01*
X205407242Y-83766576D01*
X205539906Y-83837486D01*
X205555078Y-83845596D01*
X205684659Y-83951941D01*
X205791004Y-84081522D01*
X205791005Y-84081524D01*
X205870024Y-84229358D01*
X205918687Y-84389777D01*
X205935117Y-84556600D01*
X205918687Y-84723423D01*
X205870024Y-84883842D01*
X205856449Y-84909239D01*
X205791004Y-85031678D01*
X205684659Y-85161259D01*
X205555078Y-85267604D01*
X205555076Y-85267605D01*
X205407242Y-85346624D01*
X205246823Y-85395287D01*
X205121804Y-85407600D01*
X205038196Y-85407600D01*
X204913177Y-85395287D01*
X204752758Y-85346624D01*
X204604924Y-85267605D01*
X204604922Y-85267604D01*
X204475341Y-85161259D01*
X204368996Y-85031678D01*
X204303551Y-84909239D01*
X204289976Y-84883842D01*
X204241313Y-84723423D01*
X204224883Y-84556600D01*
X204241313Y-84389777D01*
X204289976Y-84229358D01*
X204368995Y-84081524D01*
X204368996Y-84081522D01*
X204475341Y-83951941D01*
X204604922Y-83845596D01*
X204620094Y-83837486D01*
X204752758Y-83766576D01*
X204913177Y-83717913D01*
X205038196Y-83705600D01*
X205121804Y-83705600D01*
X205246823Y-83717913D01*
X205246823Y-83717913D01*
G37*
G36*
X212866823Y-83717913D02*
G01*
X213027242Y-83766576D01*
X213159906Y-83837486D01*
X213175078Y-83845596D01*
X213304659Y-83951941D01*
X213411004Y-84081522D01*
X213411005Y-84081524D01*
X213490024Y-84229358D01*
X213538687Y-84389777D01*
X213555117Y-84556600D01*
X213538687Y-84723423D01*
X213490024Y-84883842D01*
X213476449Y-84909239D01*
X213411004Y-85031678D01*
X213304659Y-85161259D01*
X213175078Y-85267604D01*
X213175076Y-85267605D01*
X213027242Y-85346624D01*
X212866823Y-85395287D01*
X212741804Y-85407600D01*
X212658196Y-85407600D01*
X212533177Y-85395287D01*
X212372758Y-85346624D01*
X212224924Y-85267605D01*
X212224922Y-85267604D01*
X212095341Y-85161259D01*
X211988996Y-85031678D01*
X211923551Y-84909239D01*
X211909976Y-84883842D01*
X211861313Y-84723423D01*
X211844883Y-84556600D01*
X211861313Y-84389777D01*
X211909976Y-84229358D01*
X211988995Y-84081524D01*
X211988996Y-84081522D01*
X212095341Y-83951941D01*
X212224922Y-83845596D01*
X212240094Y-83837486D01*
X212372758Y-83766576D01*
X212533177Y-83717913D01*
X212658196Y-83705600D01*
X212741804Y-83705600D01*
X212866823Y-83717913D01*
X212866823Y-83717913D01*
G37*
G36*
X179998823Y-81254313D02*
G01*
X180159242Y-81302976D01*
X180291906Y-81373886D01*
X180307078Y-81381996D01*
X180436659Y-81488341D01*
X180543004Y-81617922D01*
X180543005Y-81617924D01*
X180622024Y-81765758D01*
X180670687Y-81926177D01*
X180687117Y-82093000D01*
X180670687Y-82259823D01*
X180622024Y-82420242D01*
X180570265Y-82517076D01*
X180543004Y-82568078D01*
X180436659Y-82697659D01*
X180307078Y-82804004D01*
X180307076Y-82804005D01*
X180159242Y-82883024D01*
X179998823Y-82931687D01*
X179873804Y-82944000D01*
X179790196Y-82944000D01*
X179665177Y-82931687D01*
X179504758Y-82883024D01*
X179356924Y-82804005D01*
X179356922Y-82804004D01*
X179227341Y-82697659D01*
X179120996Y-82568078D01*
X179093735Y-82517076D01*
X179041976Y-82420242D01*
X178993313Y-82259823D01*
X178976883Y-82093000D01*
X178993313Y-81926177D01*
X179041976Y-81765758D01*
X179120995Y-81617924D01*
X179120996Y-81617922D01*
X179227341Y-81488341D01*
X179356922Y-81381996D01*
X179372094Y-81373886D01*
X179504758Y-81302976D01*
X179665177Y-81254313D01*
X179790196Y-81242000D01*
X179873804Y-81242000D01*
X179998823Y-81254313D01*
X179998823Y-81254313D01*
G37*
G36*
X187618823Y-81254313D02*
G01*
X187779242Y-81302976D01*
X187911906Y-81373886D01*
X187927078Y-81381996D01*
X188056659Y-81488341D01*
X188163004Y-81617922D01*
X188163005Y-81617924D01*
X188242024Y-81765758D01*
X188290687Y-81926177D01*
X188307117Y-82093000D01*
X188290687Y-82259823D01*
X188242024Y-82420242D01*
X188190265Y-82517076D01*
X188163004Y-82568078D01*
X188056659Y-82697659D01*
X187927078Y-82804004D01*
X187927076Y-82804005D01*
X187779242Y-82883024D01*
X187618823Y-82931687D01*
X187493804Y-82944000D01*
X187410196Y-82944000D01*
X187285177Y-82931687D01*
X187124758Y-82883024D01*
X186976924Y-82804005D01*
X186976922Y-82804004D01*
X186847341Y-82697659D01*
X186740996Y-82568078D01*
X186713735Y-82517076D01*
X186661976Y-82420242D01*
X186613313Y-82259823D01*
X186596883Y-82093000D01*
X186613313Y-81926177D01*
X186661976Y-81765758D01*
X186740995Y-81617924D01*
X186740996Y-81617922D01*
X186847341Y-81488341D01*
X186976922Y-81381996D01*
X186992094Y-81373886D01*
X187124758Y-81302976D01*
X187285177Y-81254313D01*
X187410196Y-81242000D01*
X187493804Y-81242000D01*
X187618823Y-81254313D01*
X187618823Y-81254313D01*
G37*
G36*
X176188823Y-81254313D02*
G01*
X176349242Y-81302976D01*
X176481906Y-81373886D01*
X176497078Y-81381996D01*
X176626659Y-81488341D01*
X176733004Y-81617922D01*
X176733005Y-81617924D01*
X176812024Y-81765758D01*
X176860687Y-81926177D01*
X176877117Y-82093000D01*
X176860687Y-82259823D01*
X176812024Y-82420242D01*
X176760265Y-82517076D01*
X176733004Y-82568078D01*
X176626659Y-82697659D01*
X176497078Y-82804004D01*
X176497076Y-82804005D01*
X176349242Y-82883024D01*
X176188823Y-82931687D01*
X176063804Y-82944000D01*
X175980196Y-82944000D01*
X175855177Y-82931687D01*
X175694758Y-82883024D01*
X175546924Y-82804005D01*
X175546922Y-82804004D01*
X175417341Y-82697659D01*
X175310996Y-82568078D01*
X175283735Y-82517076D01*
X175231976Y-82420242D01*
X175183313Y-82259823D01*
X175166883Y-82093000D01*
X175183313Y-81926177D01*
X175231976Y-81765758D01*
X175310995Y-81617924D01*
X175310996Y-81617922D01*
X175417341Y-81488341D01*
X175546922Y-81381996D01*
X175562094Y-81373886D01*
X175694758Y-81302976D01*
X175855177Y-81254313D01*
X175980196Y-81242000D01*
X176063804Y-81242000D01*
X176188823Y-81254313D01*
X176188823Y-81254313D01*
G37*
G36*
X150788823Y-81254313D02*
G01*
X150949242Y-81302976D01*
X151081906Y-81373886D01*
X151097078Y-81381996D01*
X151226659Y-81488341D01*
X151333004Y-81617922D01*
X151333005Y-81617924D01*
X151412024Y-81765758D01*
X151460687Y-81926177D01*
X151477117Y-82093000D01*
X151460687Y-82259823D01*
X151412024Y-82420242D01*
X151360265Y-82517076D01*
X151333004Y-82568078D01*
X151226659Y-82697659D01*
X151097078Y-82804004D01*
X151097076Y-82804005D01*
X150949242Y-82883024D01*
X150788823Y-82931687D01*
X150663804Y-82944000D01*
X150580196Y-82944000D01*
X150455177Y-82931687D01*
X150294758Y-82883024D01*
X150146924Y-82804005D01*
X150146922Y-82804004D01*
X150017341Y-82697659D01*
X149910996Y-82568078D01*
X149883735Y-82517076D01*
X149831976Y-82420242D01*
X149783313Y-82259823D01*
X149766883Y-82093000D01*
X149783313Y-81926177D01*
X149831976Y-81765758D01*
X149910995Y-81617924D01*
X149910996Y-81617922D01*
X150017341Y-81488341D01*
X150146922Y-81381996D01*
X150162094Y-81373886D01*
X150294758Y-81302976D01*
X150455177Y-81254313D01*
X150580196Y-81242000D01*
X150663804Y-81242000D01*
X150788823Y-81254313D01*
X150788823Y-81254313D01*
G37*
G36*
X168568823Y-81254313D02*
G01*
X168729242Y-81302976D01*
X168861906Y-81373886D01*
X168877078Y-81381996D01*
X169006659Y-81488341D01*
X169113004Y-81617922D01*
X169113005Y-81617924D01*
X169192024Y-81765758D01*
X169240687Y-81926177D01*
X169257117Y-82093000D01*
X169240687Y-82259823D01*
X169192024Y-82420242D01*
X169140265Y-82517076D01*
X169113004Y-82568078D01*
X169006659Y-82697659D01*
X168877078Y-82804004D01*
X168877076Y-82804005D01*
X168729242Y-82883024D01*
X168568823Y-82931687D01*
X168443804Y-82944000D01*
X168360196Y-82944000D01*
X168235177Y-82931687D01*
X168074758Y-82883024D01*
X167926924Y-82804005D01*
X167926922Y-82804004D01*
X167797341Y-82697659D01*
X167690996Y-82568078D01*
X167663735Y-82517076D01*
X167611976Y-82420242D01*
X167563313Y-82259823D01*
X167546883Y-82093000D01*
X167563313Y-81926177D01*
X167611976Y-81765758D01*
X167690995Y-81617924D01*
X167690996Y-81617922D01*
X167797341Y-81488341D01*
X167926922Y-81381996D01*
X167942094Y-81373886D01*
X168074758Y-81302976D01*
X168235177Y-81254313D01*
X168360196Y-81242000D01*
X168443804Y-81242000D01*
X168568823Y-81254313D01*
X168568823Y-81254313D01*
G37*
G36*
X162218823Y-81254313D02*
G01*
X162379242Y-81302976D01*
X162511906Y-81373886D01*
X162527078Y-81381996D01*
X162656659Y-81488341D01*
X162763004Y-81617922D01*
X162763005Y-81617924D01*
X162842024Y-81765758D01*
X162890687Y-81926177D01*
X162907117Y-82093000D01*
X162890687Y-82259823D01*
X162842024Y-82420242D01*
X162790265Y-82517076D01*
X162763004Y-82568078D01*
X162656659Y-82697659D01*
X162527078Y-82804004D01*
X162527076Y-82804005D01*
X162379242Y-82883024D01*
X162218823Y-82931687D01*
X162093804Y-82944000D01*
X162010196Y-82944000D01*
X161885177Y-82931687D01*
X161724758Y-82883024D01*
X161576924Y-82804005D01*
X161576922Y-82804004D01*
X161447341Y-82697659D01*
X161340996Y-82568078D01*
X161313735Y-82517076D01*
X161261976Y-82420242D01*
X161213313Y-82259823D01*
X161196883Y-82093000D01*
X161213313Y-81926177D01*
X161261976Y-81765758D01*
X161340995Y-81617924D01*
X161340996Y-81617922D01*
X161447341Y-81488341D01*
X161576922Y-81381996D01*
X161592094Y-81373886D01*
X161724758Y-81302976D01*
X161885177Y-81254313D01*
X162010196Y-81242000D01*
X162093804Y-81242000D01*
X162218823Y-81254313D01*
X162218823Y-81254313D01*
G37*
G36*
X154598823Y-81254313D02*
G01*
X154759242Y-81302976D01*
X154891906Y-81373886D01*
X154907078Y-81381996D01*
X155036659Y-81488341D01*
X155143004Y-81617922D01*
X155143005Y-81617924D01*
X155222024Y-81765758D01*
X155270687Y-81926177D01*
X155287117Y-82093000D01*
X155270687Y-82259823D01*
X155222024Y-82420242D01*
X155170265Y-82517076D01*
X155143004Y-82568078D01*
X155036659Y-82697659D01*
X154907078Y-82804004D01*
X154907076Y-82804005D01*
X154759242Y-82883024D01*
X154598823Y-82931687D01*
X154473804Y-82944000D01*
X154390196Y-82944000D01*
X154265177Y-82931687D01*
X154104758Y-82883024D01*
X153956924Y-82804005D01*
X153956922Y-82804004D01*
X153827341Y-82697659D01*
X153720996Y-82568078D01*
X153693735Y-82517076D01*
X153641976Y-82420242D01*
X153593313Y-82259823D01*
X153576883Y-82093000D01*
X153593313Y-81926177D01*
X153641976Y-81765758D01*
X153720995Y-81617924D01*
X153720996Y-81617922D01*
X153827341Y-81488341D01*
X153956922Y-81381996D01*
X153972094Y-81373886D01*
X154104758Y-81302976D01*
X154265177Y-81254313D01*
X154390196Y-81242000D01*
X154473804Y-81242000D01*
X154598823Y-81254313D01*
X154598823Y-81254313D01*
G37*
G36*
X143168823Y-81254313D02*
G01*
X143329242Y-81302976D01*
X143461906Y-81373886D01*
X143477078Y-81381996D01*
X143606659Y-81488341D01*
X143713004Y-81617922D01*
X143713005Y-81617924D01*
X143792024Y-81765758D01*
X143840687Y-81926177D01*
X143857117Y-82093000D01*
X143840687Y-82259823D01*
X143792024Y-82420242D01*
X143740265Y-82517076D01*
X143713004Y-82568078D01*
X143606659Y-82697659D01*
X143477078Y-82804004D01*
X143477076Y-82804005D01*
X143329242Y-82883024D01*
X143168823Y-82931687D01*
X143043804Y-82944000D01*
X142960196Y-82944000D01*
X142835177Y-82931687D01*
X142674758Y-82883024D01*
X142526924Y-82804005D01*
X142526922Y-82804004D01*
X142397341Y-82697659D01*
X142290996Y-82568078D01*
X142263735Y-82517076D01*
X142211976Y-82420242D01*
X142163313Y-82259823D01*
X142146883Y-82093000D01*
X142163313Y-81926177D01*
X142211976Y-81765758D01*
X142290995Y-81617924D01*
X142290996Y-81617922D01*
X142397341Y-81488341D01*
X142526922Y-81381996D01*
X142542094Y-81373886D01*
X142674758Y-81302976D01*
X142835177Y-81254313D01*
X142960196Y-81242000D01*
X143043804Y-81242000D01*
X143168823Y-81254313D01*
X143168823Y-81254313D01*
G37*
G36*
X226734823Y-81203313D02*
G01*
X226895242Y-81251976D01*
X226990654Y-81302975D01*
X227043078Y-81330996D01*
X227172659Y-81437341D01*
X227279004Y-81566922D01*
X227279005Y-81566924D01*
X227358024Y-81714758D01*
X227406687Y-81875177D01*
X227423117Y-82042000D01*
X227406687Y-82208823D01*
X227358024Y-82369242D01*
X227287114Y-82501906D01*
X227279004Y-82517078D01*
X227172659Y-82646659D01*
X227043078Y-82753004D01*
X227043076Y-82753005D01*
X226895242Y-82832024D01*
X226734823Y-82880687D01*
X226609804Y-82893000D01*
X226526196Y-82893000D01*
X226401177Y-82880687D01*
X226240758Y-82832024D01*
X226092924Y-82753005D01*
X226092922Y-82753004D01*
X225963341Y-82646659D01*
X225856996Y-82517078D01*
X225848886Y-82501906D01*
X225777976Y-82369242D01*
X225729313Y-82208823D01*
X225712883Y-82042000D01*
X225729313Y-81875177D01*
X225777976Y-81714758D01*
X225856995Y-81566924D01*
X225856996Y-81566922D01*
X225963341Y-81437341D01*
X226092922Y-81330996D01*
X226145346Y-81302975D01*
X226240758Y-81251976D01*
X226401177Y-81203313D01*
X226526196Y-81191000D01*
X226609804Y-81191000D01*
X226734823Y-81203313D01*
X226734823Y-81203313D01*
G37*
G36*
X219114823Y-81203313D02*
G01*
X219275242Y-81251976D01*
X219370654Y-81302975D01*
X219423078Y-81330996D01*
X219552659Y-81437341D01*
X219659004Y-81566922D01*
X219659005Y-81566924D01*
X219738024Y-81714758D01*
X219786687Y-81875177D01*
X219803117Y-82042000D01*
X219786687Y-82208823D01*
X219738024Y-82369242D01*
X219667114Y-82501906D01*
X219659004Y-82517078D01*
X219552659Y-82646659D01*
X219423078Y-82753004D01*
X219423076Y-82753005D01*
X219275242Y-82832024D01*
X219114823Y-82880687D01*
X218989804Y-82893000D01*
X218906196Y-82893000D01*
X218781177Y-82880687D01*
X218620758Y-82832024D01*
X218472924Y-82753005D01*
X218472922Y-82753004D01*
X218343341Y-82646659D01*
X218236996Y-82517078D01*
X218228886Y-82501906D01*
X218157976Y-82369242D01*
X218109313Y-82208823D01*
X218092883Y-82042000D01*
X218109313Y-81875177D01*
X218157976Y-81714758D01*
X218236995Y-81566924D01*
X218236996Y-81566922D01*
X218343341Y-81437341D01*
X218472922Y-81330996D01*
X218525346Y-81302975D01*
X218620758Y-81251976D01*
X218781177Y-81203313D01*
X218906196Y-81191000D01*
X218989804Y-81191000D01*
X219114823Y-81203313D01*
X219114823Y-81203313D01*
G37*
G36*
X230544823Y-81203313D02*
G01*
X230705242Y-81251976D01*
X230800654Y-81302975D01*
X230853078Y-81330996D01*
X230982659Y-81437341D01*
X231089004Y-81566922D01*
X231089005Y-81566924D01*
X231168024Y-81714758D01*
X231216687Y-81875177D01*
X231233117Y-82042000D01*
X231216687Y-82208823D01*
X231168024Y-82369242D01*
X231097114Y-82501906D01*
X231089004Y-82517078D01*
X230982659Y-82646659D01*
X230853078Y-82753004D01*
X230853076Y-82753005D01*
X230705242Y-82832024D01*
X230544823Y-82880687D01*
X230419804Y-82893000D01*
X230336196Y-82893000D01*
X230211177Y-82880687D01*
X230050758Y-82832024D01*
X229902924Y-82753005D01*
X229902922Y-82753004D01*
X229773341Y-82646659D01*
X229666996Y-82517078D01*
X229658886Y-82501906D01*
X229587976Y-82369242D01*
X229539313Y-82208823D01*
X229522883Y-82042000D01*
X229539313Y-81875177D01*
X229587976Y-81714758D01*
X229666995Y-81566924D01*
X229666996Y-81566922D01*
X229773341Y-81437341D01*
X229902922Y-81330996D01*
X229955346Y-81302975D01*
X230050758Y-81251976D01*
X230211177Y-81203313D01*
X230336196Y-81191000D01*
X230419804Y-81191000D01*
X230544823Y-81203313D01*
X230544823Y-81203313D01*
G37*
G36*
X238164823Y-81203313D02*
G01*
X238325242Y-81251976D01*
X238420654Y-81302975D01*
X238473078Y-81330996D01*
X238602659Y-81437341D01*
X238709004Y-81566922D01*
X238709005Y-81566924D01*
X238788024Y-81714758D01*
X238836687Y-81875177D01*
X238853117Y-82042000D01*
X238836687Y-82208823D01*
X238788024Y-82369242D01*
X238717114Y-82501906D01*
X238709004Y-82517078D01*
X238602659Y-82646659D01*
X238473078Y-82753004D01*
X238473076Y-82753005D01*
X238325242Y-82832024D01*
X238164823Y-82880687D01*
X238039804Y-82893000D01*
X237956196Y-82893000D01*
X237831177Y-82880687D01*
X237670758Y-82832024D01*
X237522924Y-82753005D01*
X237522922Y-82753004D01*
X237393341Y-82646659D01*
X237286996Y-82517078D01*
X237278886Y-82501906D01*
X237207976Y-82369242D01*
X237159313Y-82208823D01*
X237142883Y-82042000D01*
X237159313Y-81875177D01*
X237207976Y-81714758D01*
X237286995Y-81566924D01*
X237286996Y-81566922D01*
X237393341Y-81437341D01*
X237522922Y-81330996D01*
X237575346Y-81302975D01*
X237670758Y-81251976D01*
X237831177Y-81203313D01*
X237956196Y-81191000D01*
X238039804Y-81191000D01*
X238164823Y-81203313D01*
X238164823Y-81203313D01*
G37*
G36*
X212866823Y-81177913D02*
G01*
X213027242Y-81226576D01*
X213159906Y-81297486D01*
X213175078Y-81305596D01*
X213304659Y-81411941D01*
X213411004Y-81541522D01*
X213411005Y-81541524D01*
X213490024Y-81689358D01*
X213538687Y-81849777D01*
X213555117Y-82016600D01*
X213538687Y-82183423D01*
X213490024Y-82343842D01*
X213476449Y-82369239D01*
X213411004Y-82491678D01*
X213304659Y-82621259D01*
X213175078Y-82727604D01*
X213175076Y-82727605D01*
X213027242Y-82806624D01*
X212866823Y-82855287D01*
X212741804Y-82867600D01*
X212658196Y-82867600D01*
X212533177Y-82855287D01*
X212372758Y-82806624D01*
X212224924Y-82727605D01*
X212224922Y-82727604D01*
X212095341Y-82621259D01*
X211988996Y-82491678D01*
X211923551Y-82369239D01*
X211909976Y-82343842D01*
X211861313Y-82183423D01*
X211844883Y-82016600D01*
X211861313Y-81849777D01*
X211909976Y-81689358D01*
X211988995Y-81541524D01*
X211988996Y-81541522D01*
X212095341Y-81411941D01*
X212224922Y-81305596D01*
X212240094Y-81297486D01*
X212372758Y-81226576D01*
X212533177Y-81177913D01*
X212658196Y-81165600D01*
X212741804Y-81165600D01*
X212866823Y-81177913D01*
X212866823Y-81177913D01*
G37*
G36*
X205246823Y-81177913D02*
G01*
X205407242Y-81226576D01*
X205539906Y-81297486D01*
X205555078Y-81305596D01*
X205684659Y-81411941D01*
X205791004Y-81541522D01*
X205791005Y-81541524D01*
X205870024Y-81689358D01*
X205918687Y-81849777D01*
X205935117Y-82016600D01*
X205918687Y-82183423D01*
X205870024Y-82343842D01*
X205856449Y-82369239D01*
X205791004Y-82491678D01*
X205684659Y-82621259D01*
X205555078Y-82727604D01*
X205555076Y-82727605D01*
X205407242Y-82806624D01*
X205246823Y-82855287D01*
X205121804Y-82867600D01*
X205038196Y-82867600D01*
X204913177Y-82855287D01*
X204752758Y-82806624D01*
X204604924Y-82727605D01*
X204604922Y-82727604D01*
X204475341Y-82621259D01*
X204368996Y-82491678D01*
X204303551Y-82369239D01*
X204289976Y-82343842D01*
X204241313Y-82183423D01*
X204224883Y-82016600D01*
X204241313Y-81849777D01*
X204289976Y-81689358D01*
X204368995Y-81541524D01*
X204368996Y-81541522D01*
X204475341Y-81411941D01*
X204604922Y-81305596D01*
X204620094Y-81297486D01*
X204752758Y-81226576D01*
X204913177Y-81177913D01*
X205038196Y-81165600D01*
X205121804Y-81165600D01*
X205246823Y-81177913D01*
X205246823Y-81177913D01*
G37*
G36*
X201436823Y-81177913D02*
G01*
X201597242Y-81226576D01*
X201729906Y-81297486D01*
X201745078Y-81305596D01*
X201874659Y-81411941D01*
X201981004Y-81541522D01*
X201981005Y-81541524D01*
X202060024Y-81689358D01*
X202108687Y-81849777D01*
X202125117Y-82016600D01*
X202108687Y-82183423D01*
X202060024Y-82343842D01*
X202046449Y-82369239D01*
X201981004Y-82491678D01*
X201874659Y-82621259D01*
X201745078Y-82727604D01*
X201745076Y-82727605D01*
X201597242Y-82806624D01*
X201436823Y-82855287D01*
X201311804Y-82867600D01*
X201228196Y-82867600D01*
X201103177Y-82855287D01*
X200942758Y-82806624D01*
X200794924Y-82727605D01*
X200794922Y-82727604D01*
X200665341Y-82621259D01*
X200558996Y-82491678D01*
X200493551Y-82369239D01*
X200479976Y-82343842D01*
X200431313Y-82183423D01*
X200414883Y-82016600D01*
X200431313Y-81849777D01*
X200479976Y-81689358D01*
X200558995Y-81541524D01*
X200558996Y-81541522D01*
X200665341Y-81411941D01*
X200794922Y-81305596D01*
X200810094Y-81297486D01*
X200942758Y-81226576D01*
X201103177Y-81177913D01*
X201228196Y-81165600D01*
X201311804Y-81165600D01*
X201436823Y-81177913D01*
X201436823Y-81177913D01*
G37*
G36*
X193816823Y-81177913D02*
G01*
X193977242Y-81226576D01*
X194109906Y-81297486D01*
X194125078Y-81305596D01*
X194254659Y-81411941D01*
X194361004Y-81541522D01*
X194361005Y-81541524D01*
X194440024Y-81689358D01*
X194488687Y-81849777D01*
X194505117Y-82016600D01*
X194488687Y-82183423D01*
X194440024Y-82343842D01*
X194426449Y-82369239D01*
X194361004Y-82491678D01*
X194254659Y-82621259D01*
X194125078Y-82727604D01*
X194125076Y-82727605D01*
X193977242Y-82806624D01*
X193816823Y-82855287D01*
X193691804Y-82867600D01*
X193608196Y-82867600D01*
X193483177Y-82855287D01*
X193322758Y-82806624D01*
X193174924Y-82727605D01*
X193174922Y-82727604D01*
X193045341Y-82621259D01*
X192938996Y-82491678D01*
X192873551Y-82369239D01*
X192859976Y-82343842D01*
X192811313Y-82183423D01*
X192794883Y-82016600D01*
X192811313Y-81849777D01*
X192859976Y-81689358D01*
X192938995Y-81541524D01*
X192938996Y-81541522D01*
X193045341Y-81411941D01*
X193174922Y-81305596D01*
X193190094Y-81297486D01*
X193322758Y-81226576D01*
X193483177Y-81177913D01*
X193608196Y-81165600D01*
X193691804Y-81165600D01*
X193816823Y-81177913D01*
X193816823Y-81177913D01*
G37*
G36*
X150788823Y-78714313D02*
G01*
X150949242Y-78762976D01*
X151081906Y-78833886D01*
X151097078Y-78841996D01*
X151226659Y-78948341D01*
X151333004Y-79077922D01*
X151333005Y-79077924D01*
X151412024Y-79225758D01*
X151460687Y-79386177D01*
X151477117Y-79553000D01*
X151460687Y-79719823D01*
X151412024Y-79880242D01*
X151360265Y-79977076D01*
X151333004Y-80028078D01*
X151226659Y-80157659D01*
X151097078Y-80264004D01*
X151097076Y-80264005D01*
X150949242Y-80343024D01*
X150788823Y-80391687D01*
X150663804Y-80404000D01*
X150580196Y-80404000D01*
X150455177Y-80391687D01*
X150294758Y-80343024D01*
X150146924Y-80264005D01*
X150146922Y-80264004D01*
X150017341Y-80157659D01*
X149910996Y-80028078D01*
X149883735Y-79977076D01*
X149831976Y-79880242D01*
X149783313Y-79719823D01*
X149766883Y-79553000D01*
X149783313Y-79386177D01*
X149831976Y-79225758D01*
X149910995Y-79077924D01*
X149910996Y-79077922D01*
X150017341Y-78948341D01*
X150146922Y-78841996D01*
X150162094Y-78833886D01*
X150294758Y-78762976D01*
X150455177Y-78714313D01*
X150580196Y-78702000D01*
X150663804Y-78702000D01*
X150788823Y-78714313D01*
X150788823Y-78714313D01*
G37*
G36*
X187618823Y-78714313D02*
G01*
X187779242Y-78762976D01*
X187911906Y-78833886D01*
X187927078Y-78841996D01*
X188056659Y-78948341D01*
X188163004Y-79077922D01*
X188163005Y-79077924D01*
X188242024Y-79225758D01*
X188290687Y-79386177D01*
X188307117Y-79553000D01*
X188290687Y-79719823D01*
X188242024Y-79880242D01*
X188190265Y-79977076D01*
X188163004Y-80028078D01*
X188056659Y-80157659D01*
X187927078Y-80264004D01*
X187927076Y-80264005D01*
X187779242Y-80343024D01*
X187618823Y-80391687D01*
X187493804Y-80404000D01*
X187410196Y-80404000D01*
X187285177Y-80391687D01*
X187124758Y-80343024D01*
X186976924Y-80264005D01*
X186976922Y-80264004D01*
X186847341Y-80157659D01*
X186740996Y-80028078D01*
X186713735Y-79977076D01*
X186661976Y-79880242D01*
X186613313Y-79719823D01*
X186596883Y-79553000D01*
X186613313Y-79386177D01*
X186661976Y-79225758D01*
X186740995Y-79077924D01*
X186740996Y-79077922D01*
X186847341Y-78948341D01*
X186976922Y-78841996D01*
X186992094Y-78833886D01*
X187124758Y-78762976D01*
X187285177Y-78714313D01*
X187410196Y-78702000D01*
X187493804Y-78702000D01*
X187618823Y-78714313D01*
X187618823Y-78714313D01*
G37*
G36*
X162218823Y-78714313D02*
G01*
X162379242Y-78762976D01*
X162511906Y-78833886D01*
X162527078Y-78841996D01*
X162656659Y-78948341D01*
X162763004Y-79077922D01*
X162763005Y-79077924D01*
X162842024Y-79225758D01*
X162890687Y-79386177D01*
X162907117Y-79553000D01*
X162890687Y-79719823D01*
X162842024Y-79880242D01*
X162790265Y-79977076D01*
X162763004Y-80028078D01*
X162656659Y-80157659D01*
X162527078Y-80264004D01*
X162527076Y-80264005D01*
X162379242Y-80343024D01*
X162218823Y-80391687D01*
X162093804Y-80404000D01*
X162010196Y-80404000D01*
X161885177Y-80391687D01*
X161724758Y-80343024D01*
X161576924Y-80264005D01*
X161576922Y-80264004D01*
X161447341Y-80157659D01*
X161340996Y-80028078D01*
X161313735Y-79977076D01*
X161261976Y-79880242D01*
X161213313Y-79719823D01*
X161196883Y-79553000D01*
X161213313Y-79386177D01*
X161261976Y-79225758D01*
X161340995Y-79077924D01*
X161340996Y-79077922D01*
X161447341Y-78948341D01*
X161576922Y-78841996D01*
X161592094Y-78833886D01*
X161724758Y-78762976D01*
X161885177Y-78714313D01*
X162010196Y-78702000D01*
X162093804Y-78702000D01*
X162218823Y-78714313D01*
X162218823Y-78714313D01*
G37*
G36*
X154598823Y-78714313D02*
G01*
X154759242Y-78762976D01*
X154891906Y-78833886D01*
X154907078Y-78841996D01*
X155036659Y-78948341D01*
X155143004Y-79077922D01*
X155143005Y-79077924D01*
X155222024Y-79225758D01*
X155270687Y-79386177D01*
X155287117Y-79553000D01*
X155270687Y-79719823D01*
X155222024Y-79880242D01*
X155170265Y-79977076D01*
X155143004Y-80028078D01*
X155036659Y-80157659D01*
X154907078Y-80264004D01*
X154907076Y-80264005D01*
X154759242Y-80343024D01*
X154598823Y-80391687D01*
X154473804Y-80404000D01*
X154390196Y-80404000D01*
X154265177Y-80391687D01*
X154104758Y-80343024D01*
X153956924Y-80264005D01*
X153956922Y-80264004D01*
X153827341Y-80157659D01*
X153720996Y-80028078D01*
X153693735Y-79977076D01*
X153641976Y-79880242D01*
X153593313Y-79719823D01*
X153576883Y-79553000D01*
X153593313Y-79386177D01*
X153641976Y-79225758D01*
X153720995Y-79077924D01*
X153720996Y-79077922D01*
X153827341Y-78948341D01*
X153956922Y-78841996D01*
X153972094Y-78833886D01*
X154104758Y-78762976D01*
X154265177Y-78714313D01*
X154390196Y-78702000D01*
X154473804Y-78702000D01*
X154598823Y-78714313D01*
X154598823Y-78714313D01*
G37*
G36*
X143168823Y-78714313D02*
G01*
X143329242Y-78762976D01*
X143461906Y-78833886D01*
X143477078Y-78841996D01*
X143606659Y-78948341D01*
X143713004Y-79077922D01*
X143713005Y-79077924D01*
X143792024Y-79225758D01*
X143840687Y-79386177D01*
X143857117Y-79553000D01*
X143840687Y-79719823D01*
X143792024Y-79880242D01*
X143740265Y-79977076D01*
X143713004Y-80028078D01*
X143606659Y-80157659D01*
X143477078Y-80264004D01*
X143477076Y-80264005D01*
X143329242Y-80343024D01*
X143168823Y-80391687D01*
X143043804Y-80404000D01*
X142960196Y-80404000D01*
X142835177Y-80391687D01*
X142674758Y-80343024D01*
X142526924Y-80264005D01*
X142526922Y-80264004D01*
X142397341Y-80157659D01*
X142290996Y-80028078D01*
X142263735Y-79977076D01*
X142211976Y-79880242D01*
X142163313Y-79719823D01*
X142146883Y-79553000D01*
X142163313Y-79386177D01*
X142211976Y-79225758D01*
X142290995Y-79077924D01*
X142290996Y-79077922D01*
X142397341Y-78948341D01*
X142526922Y-78841996D01*
X142542094Y-78833886D01*
X142674758Y-78762976D01*
X142835177Y-78714313D01*
X142960196Y-78702000D01*
X143043804Y-78702000D01*
X143168823Y-78714313D01*
X143168823Y-78714313D01*
G37*
G36*
X179998823Y-78714313D02*
G01*
X180159242Y-78762976D01*
X180291906Y-78833886D01*
X180307078Y-78841996D01*
X180436659Y-78948341D01*
X180543004Y-79077922D01*
X180543005Y-79077924D01*
X180622024Y-79225758D01*
X180670687Y-79386177D01*
X180687117Y-79553000D01*
X180670687Y-79719823D01*
X180622024Y-79880242D01*
X180570265Y-79977076D01*
X180543004Y-80028078D01*
X180436659Y-80157659D01*
X180307078Y-80264004D01*
X180307076Y-80264005D01*
X180159242Y-80343024D01*
X179998823Y-80391687D01*
X179873804Y-80404000D01*
X179790196Y-80404000D01*
X179665177Y-80391687D01*
X179504758Y-80343024D01*
X179356924Y-80264005D01*
X179356922Y-80264004D01*
X179227341Y-80157659D01*
X179120996Y-80028078D01*
X179093735Y-79977076D01*
X179041976Y-79880242D01*
X178993313Y-79719823D01*
X178976883Y-79553000D01*
X178993313Y-79386177D01*
X179041976Y-79225758D01*
X179120995Y-79077924D01*
X179120996Y-79077922D01*
X179227341Y-78948341D01*
X179356922Y-78841996D01*
X179372094Y-78833886D01*
X179504758Y-78762976D01*
X179665177Y-78714313D01*
X179790196Y-78702000D01*
X179873804Y-78702000D01*
X179998823Y-78714313D01*
X179998823Y-78714313D01*
G37*
G36*
X176188823Y-78714313D02*
G01*
X176349242Y-78762976D01*
X176481906Y-78833886D01*
X176497078Y-78841996D01*
X176626659Y-78948341D01*
X176733004Y-79077922D01*
X176733005Y-79077924D01*
X176812024Y-79225758D01*
X176860687Y-79386177D01*
X176877117Y-79553000D01*
X176860687Y-79719823D01*
X176812024Y-79880242D01*
X176760265Y-79977076D01*
X176733004Y-80028078D01*
X176626659Y-80157659D01*
X176497078Y-80264004D01*
X176497076Y-80264005D01*
X176349242Y-80343024D01*
X176188823Y-80391687D01*
X176063804Y-80404000D01*
X175980196Y-80404000D01*
X175855177Y-80391687D01*
X175694758Y-80343024D01*
X175546924Y-80264005D01*
X175546922Y-80264004D01*
X175417341Y-80157659D01*
X175310996Y-80028078D01*
X175283735Y-79977076D01*
X175231976Y-79880242D01*
X175183313Y-79719823D01*
X175166883Y-79553000D01*
X175183313Y-79386177D01*
X175231976Y-79225758D01*
X175310995Y-79077924D01*
X175310996Y-79077922D01*
X175417341Y-78948341D01*
X175546922Y-78841996D01*
X175562094Y-78833886D01*
X175694758Y-78762976D01*
X175855177Y-78714313D01*
X175980196Y-78702000D01*
X176063804Y-78702000D01*
X176188823Y-78714313D01*
X176188823Y-78714313D01*
G37*
G36*
X168568823Y-78714313D02*
G01*
X168729242Y-78762976D01*
X168861906Y-78833886D01*
X168877078Y-78841996D01*
X169006659Y-78948341D01*
X169113004Y-79077922D01*
X169113005Y-79077924D01*
X169192024Y-79225758D01*
X169240687Y-79386177D01*
X169257117Y-79553000D01*
X169240687Y-79719823D01*
X169192024Y-79880242D01*
X169140265Y-79977076D01*
X169113004Y-80028078D01*
X169006659Y-80157659D01*
X168877078Y-80264004D01*
X168877076Y-80264005D01*
X168729242Y-80343024D01*
X168568823Y-80391687D01*
X168443804Y-80404000D01*
X168360196Y-80404000D01*
X168235177Y-80391687D01*
X168074758Y-80343024D01*
X167926924Y-80264005D01*
X167926922Y-80264004D01*
X167797341Y-80157659D01*
X167690996Y-80028078D01*
X167663735Y-79977076D01*
X167611976Y-79880242D01*
X167563313Y-79719823D01*
X167546883Y-79553000D01*
X167563313Y-79386177D01*
X167611976Y-79225758D01*
X167690995Y-79077924D01*
X167690996Y-79077922D01*
X167797341Y-78948341D01*
X167926922Y-78841996D01*
X167942094Y-78833886D01*
X168074758Y-78762976D01*
X168235177Y-78714313D01*
X168360196Y-78702000D01*
X168443804Y-78702000D01*
X168568823Y-78714313D01*
X168568823Y-78714313D01*
G37*
G36*
X226734823Y-78663313D02*
G01*
X226895242Y-78711976D01*
X226990654Y-78762975D01*
X227043078Y-78790996D01*
X227172659Y-78897341D01*
X227279004Y-79026922D01*
X227279005Y-79026924D01*
X227358024Y-79174758D01*
X227406687Y-79335177D01*
X227423117Y-79502000D01*
X227406687Y-79668823D01*
X227358024Y-79829242D01*
X227287114Y-79961906D01*
X227279004Y-79977078D01*
X227172659Y-80106659D01*
X227043078Y-80213004D01*
X227043076Y-80213005D01*
X226895242Y-80292024D01*
X226734823Y-80340687D01*
X226609804Y-80353000D01*
X226526196Y-80353000D01*
X226401177Y-80340687D01*
X226240758Y-80292024D01*
X226092924Y-80213005D01*
X226092922Y-80213004D01*
X225963341Y-80106659D01*
X225856996Y-79977078D01*
X225848886Y-79961906D01*
X225777976Y-79829242D01*
X225729313Y-79668823D01*
X225712883Y-79502000D01*
X225729313Y-79335177D01*
X225777976Y-79174758D01*
X225856995Y-79026924D01*
X225856996Y-79026922D01*
X225963341Y-78897341D01*
X226092922Y-78790996D01*
X226145346Y-78762975D01*
X226240758Y-78711976D01*
X226401177Y-78663313D01*
X226526196Y-78651000D01*
X226609804Y-78651000D01*
X226734823Y-78663313D01*
X226734823Y-78663313D01*
G37*
G36*
X219114823Y-78663313D02*
G01*
X219275242Y-78711976D01*
X219370654Y-78762975D01*
X219423078Y-78790996D01*
X219552659Y-78897341D01*
X219659004Y-79026922D01*
X219659005Y-79026924D01*
X219738024Y-79174758D01*
X219786687Y-79335177D01*
X219803117Y-79502000D01*
X219786687Y-79668823D01*
X219738024Y-79829242D01*
X219667114Y-79961906D01*
X219659004Y-79977078D01*
X219552659Y-80106659D01*
X219423078Y-80213004D01*
X219423076Y-80213005D01*
X219275242Y-80292024D01*
X219114823Y-80340687D01*
X218989804Y-80353000D01*
X218906196Y-80353000D01*
X218781177Y-80340687D01*
X218620758Y-80292024D01*
X218472924Y-80213005D01*
X218472922Y-80213004D01*
X218343341Y-80106659D01*
X218236996Y-79977078D01*
X218228886Y-79961906D01*
X218157976Y-79829242D01*
X218109313Y-79668823D01*
X218092883Y-79502000D01*
X218109313Y-79335177D01*
X218157976Y-79174758D01*
X218236995Y-79026924D01*
X218236996Y-79026922D01*
X218343341Y-78897341D01*
X218472922Y-78790996D01*
X218525346Y-78762975D01*
X218620758Y-78711976D01*
X218781177Y-78663313D01*
X218906196Y-78651000D01*
X218989804Y-78651000D01*
X219114823Y-78663313D01*
X219114823Y-78663313D01*
G37*
G36*
X238164823Y-78663313D02*
G01*
X238325242Y-78711976D01*
X238420654Y-78762975D01*
X238473078Y-78790996D01*
X238602659Y-78897341D01*
X238709004Y-79026922D01*
X238709005Y-79026924D01*
X238788024Y-79174758D01*
X238836687Y-79335177D01*
X238853117Y-79502000D01*
X238836687Y-79668823D01*
X238788024Y-79829242D01*
X238717114Y-79961906D01*
X238709004Y-79977078D01*
X238602659Y-80106659D01*
X238473078Y-80213004D01*
X238473076Y-80213005D01*
X238325242Y-80292024D01*
X238164823Y-80340687D01*
X238039804Y-80353000D01*
X237956196Y-80353000D01*
X237831177Y-80340687D01*
X237670758Y-80292024D01*
X237522924Y-80213005D01*
X237522922Y-80213004D01*
X237393341Y-80106659D01*
X237286996Y-79977078D01*
X237278886Y-79961906D01*
X237207976Y-79829242D01*
X237159313Y-79668823D01*
X237142883Y-79502000D01*
X237159313Y-79335177D01*
X237207976Y-79174758D01*
X237286995Y-79026924D01*
X237286996Y-79026922D01*
X237393341Y-78897341D01*
X237522922Y-78790996D01*
X237575346Y-78762975D01*
X237670758Y-78711976D01*
X237831177Y-78663313D01*
X237956196Y-78651000D01*
X238039804Y-78651000D01*
X238164823Y-78663313D01*
X238164823Y-78663313D01*
G37*
G36*
X230544823Y-78663313D02*
G01*
X230705242Y-78711976D01*
X230800654Y-78762975D01*
X230853078Y-78790996D01*
X230982659Y-78897341D01*
X231089004Y-79026922D01*
X231089005Y-79026924D01*
X231168024Y-79174758D01*
X231216687Y-79335177D01*
X231233117Y-79502000D01*
X231216687Y-79668823D01*
X231168024Y-79829242D01*
X231097114Y-79961906D01*
X231089004Y-79977078D01*
X230982659Y-80106659D01*
X230853078Y-80213004D01*
X230853076Y-80213005D01*
X230705242Y-80292024D01*
X230544823Y-80340687D01*
X230419804Y-80353000D01*
X230336196Y-80353000D01*
X230211177Y-80340687D01*
X230050758Y-80292024D01*
X229902924Y-80213005D01*
X229902922Y-80213004D01*
X229773341Y-80106659D01*
X229666996Y-79977078D01*
X229658886Y-79961906D01*
X229587976Y-79829242D01*
X229539313Y-79668823D01*
X229522883Y-79502000D01*
X229539313Y-79335177D01*
X229587976Y-79174758D01*
X229666995Y-79026924D01*
X229666996Y-79026922D01*
X229773341Y-78897341D01*
X229902922Y-78790996D01*
X229955346Y-78762975D01*
X230050758Y-78711976D01*
X230211177Y-78663313D01*
X230336196Y-78651000D01*
X230419804Y-78651000D01*
X230544823Y-78663313D01*
X230544823Y-78663313D01*
G37*
G36*
X201436823Y-78637913D02*
G01*
X201597242Y-78686576D01*
X201729906Y-78757486D01*
X201745078Y-78765596D01*
X201874659Y-78871941D01*
X201981004Y-79001522D01*
X201981005Y-79001524D01*
X202060024Y-79149358D01*
X202108687Y-79309777D01*
X202125117Y-79476600D01*
X202108687Y-79643423D01*
X202060024Y-79803842D01*
X202046449Y-79829239D01*
X201981004Y-79951678D01*
X201874659Y-80081259D01*
X201745078Y-80187604D01*
X201745076Y-80187605D01*
X201597242Y-80266624D01*
X201436823Y-80315287D01*
X201311804Y-80327600D01*
X201228196Y-80327600D01*
X201103177Y-80315287D01*
X200942758Y-80266624D01*
X200794924Y-80187605D01*
X200794922Y-80187604D01*
X200665341Y-80081259D01*
X200558996Y-79951678D01*
X200493551Y-79829239D01*
X200479976Y-79803842D01*
X200431313Y-79643423D01*
X200414883Y-79476600D01*
X200431313Y-79309777D01*
X200479976Y-79149358D01*
X200558995Y-79001524D01*
X200558996Y-79001522D01*
X200665341Y-78871941D01*
X200794922Y-78765596D01*
X200810094Y-78757486D01*
X200942758Y-78686576D01*
X201103177Y-78637913D01*
X201228196Y-78625600D01*
X201311804Y-78625600D01*
X201436823Y-78637913D01*
X201436823Y-78637913D01*
G37*
G36*
X193816823Y-78637913D02*
G01*
X193977242Y-78686576D01*
X194109906Y-78757486D01*
X194125078Y-78765596D01*
X194254659Y-78871941D01*
X194361004Y-79001522D01*
X194361005Y-79001524D01*
X194440024Y-79149358D01*
X194488687Y-79309777D01*
X194505117Y-79476600D01*
X194488687Y-79643423D01*
X194440024Y-79803842D01*
X194426449Y-79829239D01*
X194361004Y-79951678D01*
X194254659Y-80081259D01*
X194125078Y-80187604D01*
X194125076Y-80187605D01*
X193977242Y-80266624D01*
X193816823Y-80315287D01*
X193691804Y-80327600D01*
X193608196Y-80327600D01*
X193483177Y-80315287D01*
X193322758Y-80266624D01*
X193174924Y-80187605D01*
X193174922Y-80187604D01*
X193045341Y-80081259D01*
X192938996Y-79951678D01*
X192873551Y-79829239D01*
X192859976Y-79803842D01*
X192811313Y-79643423D01*
X192794883Y-79476600D01*
X192811313Y-79309777D01*
X192859976Y-79149358D01*
X192938995Y-79001524D01*
X192938996Y-79001522D01*
X193045341Y-78871941D01*
X193174922Y-78765596D01*
X193190094Y-78757486D01*
X193322758Y-78686576D01*
X193483177Y-78637913D01*
X193608196Y-78625600D01*
X193691804Y-78625600D01*
X193816823Y-78637913D01*
X193816823Y-78637913D01*
G37*
G36*
X205246823Y-78637913D02*
G01*
X205407242Y-78686576D01*
X205539906Y-78757486D01*
X205555078Y-78765596D01*
X205684659Y-78871941D01*
X205791004Y-79001522D01*
X205791005Y-79001524D01*
X205870024Y-79149358D01*
X205918687Y-79309777D01*
X205935117Y-79476600D01*
X205918687Y-79643423D01*
X205870024Y-79803842D01*
X205856449Y-79829239D01*
X205791004Y-79951678D01*
X205684659Y-80081259D01*
X205555078Y-80187604D01*
X205555076Y-80187605D01*
X205407242Y-80266624D01*
X205246823Y-80315287D01*
X205121804Y-80327600D01*
X205038196Y-80327600D01*
X204913177Y-80315287D01*
X204752758Y-80266624D01*
X204604924Y-80187605D01*
X204604922Y-80187604D01*
X204475341Y-80081259D01*
X204368996Y-79951678D01*
X204303551Y-79829239D01*
X204289976Y-79803842D01*
X204241313Y-79643423D01*
X204224883Y-79476600D01*
X204241313Y-79309777D01*
X204289976Y-79149358D01*
X204368995Y-79001524D01*
X204368996Y-79001522D01*
X204475341Y-78871941D01*
X204604922Y-78765596D01*
X204620094Y-78757486D01*
X204752758Y-78686576D01*
X204913177Y-78637913D01*
X205038196Y-78625600D01*
X205121804Y-78625600D01*
X205246823Y-78637913D01*
X205246823Y-78637913D01*
G37*
G36*
X212866823Y-78637913D02*
G01*
X213027242Y-78686576D01*
X213159906Y-78757486D01*
X213175078Y-78765596D01*
X213304659Y-78871941D01*
X213411004Y-79001522D01*
X213411005Y-79001524D01*
X213490024Y-79149358D01*
X213538687Y-79309777D01*
X213555117Y-79476600D01*
X213538687Y-79643423D01*
X213490024Y-79803842D01*
X213476449Y-79829239D01*
X213411004Y-79951678D01*
X213304659Y-80081259D01*
X213175078Y-80187604D01*
X213175076Y-80187605D01*
X213027242Y-80266624D01*
X212866823Y-80315287D01*
X212741804Y-80327600D01*
X212658196Y-80327600D01*
X212533177Y-80315287D01*
X212372758Y-80266624D01*
X212224924Y-80187605D01*
X212224922Y-80187604D01*
X212095341Y-80081259D01*
X211988996Y-79951678D01*
X211923551Y-79829239D01*
X211909976Y-79803842D01*
X211861313Y-79643423D01*
X211844883Y-79476600D01*
X211861313Y-79309777D01*
X211909976Y-79149358D01*
X211988995Y-79001524D01*
X211988996Y-79001522D01*
X212095341Y-78871941D01*
X212224922Y-78765596D01*
X212240094Y-78757486D01*
X212372758Y-78686576D01*
X212533177Y-78637913D01*
X212658196Y-78625600D01*
X212741804Y-78625600D01*
X212866823Y-78637913D01*
X212866823Y-78637913D01*
G37*
G36*
X179998823Y-76174313D02*
G01*
X180159242Y-76222976D01*
X180291906Y-76293886D01*
X180307078Y-76301996D01*
X180436659Y-76408341D01*
X180543004Y-76537922D01*
X180543005Y-76537924D01*
X180622024Y-76685758D01*
X180670687Y-76846177D01*
X180687117Y-77013000D01*
X180670687Y-77179823D01*
X180622024Y-77340242D01*
X180570265Y-77437076D01*
X180543004Y-77488078D01*
X180436659Y-77617659D01*
X180307078Y-77724004D01*
X180307076Y-77724005D01*
X180159242Y-77803024D01*
X179998823Y-77851687D01*
X179873804Y-77864000D01*
X179790196Y-77864000D01*
X179665177Y-77851687D01*
X179504758Y-77803024D01*
X179356924Y-77724005D01*
X179356922Y-77724004D01*
X179227341Y-77617659D01*
X179120996Y-77488078D01*
X179093735Y-77437076D01*
X179041976Y-77340242D01*
X178993313Y-77179823D01*
X178976883Y-77013000D01*
X178993313Y-76846177D01*
X179041976Y-76685758D01*
X179120995Y-76537924D01*
X179120996Y-76537922D01*
X179227341Y-76408341D01*
X179356922Y-76301996D01*
X179372094Y-76293886D01*
X179504758Y-76222976D01*
X179665177Y-76174313D01*
X179790196Y-76162000D01*
X179873804Y-76162000D01*
X179998823Y-76174313D01*
X179998823Y-76174313D01*
G37*
G36*
X154598823Y-76174313D02*
G01*
X154759242Y-76222976D01*
X154891906Y-76293886D01*
X154907078Y-76301996D01*
X155036659Y-76408341D01*
X155143004Y-76537922D01*
X155143005Y-76537924D01*
X155222024Y-76685758D01*
X155270687Y-76846177D01*
X155287117Y-77013000D01*
X155270687Y-77179823D01*
X155222024Y-77340242D01*
X155170265Y-77437076D01*
X155143004Y-77488078D01*
X155036659Y-77617659D01*
X154907078Y-77724004D01*
X154907076Y-77724005D01*
X154759242Y-77803024D01*
X154598823Y-77851687D01*
X154473804Y-77864000D01*
X154390196Y-77864000D01*
X154265177Y-77851687D01*
X154104758Y-77803024D01*
X153956924Y-77724005D01*
X153956922Y-77724004D01*
X153827341Y-77617659D01*
X153720996Y-77488078D01*
X153693735Y-77437076D01*
X153641976Y-77340242D01*
X153593313Y-77179823D01*
X153576883Y-77013000D01*
X153593313Y-76846177D01*
X153641976Y-76685758D01*
X153720995Y-76537924D01*
X153720996Y-76537922D01*
X153827341Y-76408341D01*
X153956922Y-76301996D01*
X153972094Y-76293886D01*
X154104758Y-76222976D01*
X154265177Y-76174313D01*
X154390196Y-76162000D01*
X154473804Y-76162000D01*
X154598823Y-76174313D01*
X154598823Y-76174313D01*
G37*
G36*
X143168823Y-76174313D02*
G01*
X143329242Y-76222976D01*
X143461906Y-76293886D01*
X143477078Y-76301996D01*
X143606659Y-76408341D01*
X143713004Y-76537922D01*
X143713005Y-76537924D01*
X143792024Y-76685758D01*
X143840687Y-76846177D01*
X143857117Y-77013000D01*
X143840687Y-77179823D01*
X143792024Y-77340242D01*
X143740265Y-77437076D01*
X143713004Y-77488078D01*
X143606659Y-77617659D01*
X143477078Y-77724004D01*
X143477076Y-77724005D01*
X143329242Y-77803024D01*
X143168823Y-77851687D01*
X143043804Y-77864000D01*
X142960196Y-77864000D01*
X142835177Y-77851687D01*
X142674758Y-77803024D01*
X142526924Y-77724005D01*
X142526922Y-77724004D01*
X142397341Y-77617659D01*
X142290996Y-77488078D01*
X142263735Y-77437076D01*
X142211976Y-77340242D01*
X142163313Y-77179823D01*
X142146883Y-77013000D01*
X142163313Y-76846177D01*
X142211976Y-76685758D01*
X142290995Y-76537924D01*
X142290996Y-76537922D01*
X142397341Y-76408341D01*
X142526922Y-76301996D01*
X142542094Y-76293886D01*
X142674758Y-76222976D01*
X142835177Y-76174313D01*
X142960196Y-76162000D01*
X143043804Y-76162000D01*
X143168823Y-76174313D01*
X143168823Y-76174313D01*
G37*
G36*
X150788823Y-76174313D02*
G01*
X150949242Y-76222976D01*
X151081906Y-76293886D01*
X151097078Y-76301996D01*
X151226659Y-76408341D01*
X151333004Y-76537922D01*
X151333005Y-76537924D01*
X151412024Y-76685758D01*
X151460687Y-76846177D01*
X151477117Y-77013000D01*
X151460687Y-77179823D01*
X151412024Y-77340242D01*
X151360265Y-77437076D01*
X151333004Y-77488078D01*
X151226659Y-77617659D01*
X151097078Y-77724004D01*
X151097076Y-77724005D01*
X150949242Y-77803024D01*
X150788823Y-77851687D01*
X150663804Y-77864000D01*
X150580196Y-77864000D01*
X150455177Y-77851687D01*
X150294758Y-77803024D01*
X150146924Y-77724005D01*
X150146922Y-77724004D01*
X150017341Y-77617659D01*
X149910996Y-77488078D01*
X149883735Y-77437076D01*
X149831976Y-77340242D01*
X149783313Y-77179823D01*
X149766883Y-77013000D01*
X149783313Y-76846177D01*
X149831976Y-76685758D01*
X149910995Y-76537924D01*
X149910996Y-76537922D01*
X150017341Y-76408341D01*
X150146922Y-76301996D01*
X150162094Y-76293886D01*
X150294758Y-76222976D01*
X150455177Y-76174313D01*
X150580196Y-76162000D01*
X150663804Y-76162000D01*
X150788823Y-76174313D01*
X150788823Y-76174313D01*
G37*
G36*
X162218823Y-76174313D02*
G01*
X162379242Y-76222976D01*
X162511906Y-76293886D01*
X162527078Y-76301996D01*
X162656659Y-76408341D01*
X162763004Y-76537922D01*
X162763005Y-76537924D01*
X162842024Y-76685758D01*
X162890687Y-76846177D01*
X162907117Y-77013000D01*
X162890687Y-77179823D01*
X162842024Y-77340242D01*
X162790265Y-77437076D01*
X162763004Y-77488078D01*
X162656659Y-77617659D01*
X162527078Y-77724004D01*
X162527076Y-77724005D01*
X162379242Y-77803024D01*
X162218823Y-77851687D01*
X162093804Y-77864000D01*
X162010196Y-77864000D01*
X161885177Y-77851687D01*
X161724758Y-77803024D01*
X161576924Y-77724005D01*
X161576922Y-77724004D01*
X161447341Y-77617659D01*
X161340996Y-77488078D01*
X161313735Y-77437076D01*
X161261976Y-77340242D01*
X161213313Y-77179823D01*
X161196883Y-77013000D01*
X161213313Y-76846177D01*
X161261976Y-76685758D01*
X161340995Y-76537924D01*
X161340996Y-76537922D01*
X161447341Y-76408341D01*
X161576922Y-76301996D01*
X161592094Y-76293886D01*
X161724758Y-76222976D01*
X161885177Y-76174313D01*
X162010196Y-76162000D01*
X162093804Y-76162000D01*
X162218823Y-76174313D01*
X162218823Y-76174313D01*
G37*
G36*
X187618823Y-76174313D02*
G01*
X187779242Y-76222976D01*
X187911906Y-76293886D01*
X187927078Y-76301996D01*
X188056659Y-76408341D01*
X188163004Y-76537922D01*
X188163005Y-76537924D01*
X188242024Y-76685758D01*
X188290687Y-76846177D01*
X188307117Y-77013000D01*
X188290687Y-77179823D01*
X188242024Y-77340242D01*
X188190265Y-77437076D01*
X188163004Y-77488078D01*
X188056659Y-77617659D01*
X187927078Y-77724004D01*
X187927076Y-77724005D01*
X187779242Y-77803024D01*
X187618823Y-77851687D01*
X187493804Y-77864000D01*
X187410196Y-77864000D01*
X187285177Y-77851687D01*
X187124758Y-77803024D01*
X186976924Y-77724005D01*
X186976922Y-77724004D01*
X186847341Y-77617659D01*
X186740996Y-77488078D01*
X186713735Y-77437076D01*
X186661976Y-77340242D01*
X186613313Y-77179823D01*
X186596883Y-77013000D01*
X186613313Y-76846177D01*
X186661976Y-76685758D01*
X186740995Y-76537924D01*
X186740996Y-76537922D01*
X186847341Y-76408341D01*
X186976922Y-76301996D01*
X186992094Y-76293886D01*
X187124758Y-76222976D01*
X187285177Y-76174313D01*
X187410196Y-76162000D01*
X187493804Y-76162000D01*
X187618823Y-76174313D01*
X187618823Y-76174313D01*
G37*
G36*
X176188823Y-76174313D02*
G01*
X176349242Y-76222976D01*
X176481906Y-76293886D01*
X176497078Y-76301996D01*
X176626659Y-76408341D01*
X176733004Y-76537922D01*
X176733005Y-76537924D01*
X176812024Y-76685758D01*
X176860687Y-76846177D01*
X176877117Y-77013000D01*
X176860687Y-77179823D01*
X176812024Y-77340242D01*
X176760265Y-77437076D01*
X176733004Y-77488078D01*
X176626659Y-77617659D01*
X176497078Y-77724004D01*
X176497076Y-77724005D01*
X176349242Y-77803024D01*
X176188823Y-77851687D01*
X176063804Y-77864000D01*
X175980196Y-77864000D01*
X175855177Y-77851687D01*
X175694758Y-77803024D01*
X175546924Y-77724005D01*
X175546922Y-77724004D01*
X175417341Y-77617659D01*
X175310996Y-77488078D01*
X175283735Y-77437076D01*
X175231976Y-77340242D01*
X175183313Y-77179823D01*
X175166883Y-77013000D01*
X175183313Y-76846177D01*
X175231976Y-76685758D01*
X175310995Y-76537924D01*
X175310996Y-76537922D01*
X175417341Y-76408341D01*
X175546922Y-76301996D01*
X175562094Y-76293886D01*
X175694758Y-76222976D01*
X175855177Y-76174313D01*
X175980196Y-76162000D01*
X176063804Y-76162000D01*
X176188823Y-76174313D01*
X176188823Y-76174313D01*
G37*
G36*
X168568823Y-76174313D02*
G01*
X168729242Y-76222976D01*
X168861906Y-76293886D01*
X168877078Y-76301996D01*
X169006659Y-76408341D01*
X169113004Y-76537922D01*
X169113005Y-76537924D01*
X169192024Y-76685758D01*
X169240687Y-76846177D01*
X169257117Y-77013000D01*
X169240687Y-77179823D01*
X169192024Y-77340242D01*
X169140265Y-77437076D01*
X169113004Y-77488078D01*
X169006659Y-77617659D01*
X168877078Y-77724004D01*
X168877076Y-77724005D01*
X168729242Y-77803024D01*
X168568823Y-77851687D01*
X168443804Y-77864000D01*
X168360196Y-77864000D01*
X168235177Y-77851687D01*
X168074758Y-77803024D01*
X167926924Y-77724005D01*
X167926922Y-77724004D01*
X167797341Y-77617659D01*
X167690996Y-77488078D01*
X167663735Y-77437076D01*
X167611976Y-77340242D01*
X167563313Y-77179823D01*
X167546883Y-77013000D01*
X167563313Y-76846177D01*
X167611976Y-76685758D01*
X167690995Y-76537924D01*
X167690996Y-76537922D01*
X167797341Y-76408341D01*
X167926922Y-76301996D01*
X167942094Y-76293886D01*
X168074758Y-76222976D01*
X168235177Y-76174313D01*
X168360196Y-76162000D01*
X168443804Y-76162000D01*
X168568823Y-76174313D01*
X168568823Y-76174313D01*
G37*
G36*
X230544823Y-76123313D02*
G01*
X230705242Y-76171976D01*
X230800654Y-76222975D01*
X230853078Y-76250996D01*
X230982659Y-76357341D01*
X231089004Y-76486922D01*
X231089005Y-76486924D01*
X231168024Y-76634758D01*
X231216687Y-76795177D01*
X231233117Y-76962000D01*
X231216687Y-77128823D01*
X231168024Y-77289242D01*
X231097114Y-77421906D01*
X231089004Y-77437078D01*
X230982659Y-77566659D01*
X230853078Y-77673004D01*
X230853076Y-77673005D01*
X230705242Y-77752024D01*
X230544823Y-77800687D01*
X230419804Y-77813000D01*
X230336196Y-77813000D01*
X230211177Y-77800687D01*
X230050758Y-77752024D01*
X229902924Y-77673005D01*
X229902922Y-77673004D01*
X229773341Y-77566659D01*
X229666996Y-77437078D01*
X229658886Y-77421906D01*
X229587976Y-77289242D01*
X229539313Y-77128823D01*
X229522883Y-76962000D01*
X229539313Y-76795177D01*
X229587976Y-76634758D01*
X229666995Y-76486924D01*
X229666996Y-76486922D01*
X229773341Y-76357341D01*
X229902922Y-76250996D01*
X229955346Y-76222975D01*
X230050758Y-76171976D01*
X230211177Y-76123313D01*
X230336196Y-76111000D01*
X230419804Y-76111000D01*
X230544823Y-76123313D01*
X230544823Y-76123313D01*
G37*
G36*
X219114823Y-76123313D02*
G01*
X219275242Y-76171976D01*
X219370654Y-76222975D01*
X219423078Y-76250996D01*
X219552659Y-76357341D01*
X219659004Y-76486922D01*
X219659005Y-76486924D01*
X219738024Y-76634758D01*
X219786687Y-76795177D01*
X219803117Y-76962000D01*
X219786687Y-77128823D01*
X219738024Y-77289242D01*
X219667114Y-77421906D01*
X219659004Y-77437078D01*
X219552659Y-77566659D01*
X219423078Y-77673004D01*
X219423076Y-77673005D01*
X219275242Y-77752024D01*
X219114823Y-77800687D01*
X218989804Y-77813000D01*
X218906196Y-77813000D01*
X218781177Y-77800687D01*
X218620758Y-77752024D01*
X218472924Y-77673005D01*
X218472922Y-77673004D01*
X218343341Y-77566659D01*
X218236996Y-77437078D01*
X218228886Y-77421906D01*
X218157976Y-77289242D01*
X218109313Y-77128823D01*
X218092883Y-76962000D01*
X218109313Y-76795177D01*
X218157976Y-76634758D01*
X218236995Y-76486924D01*
X218236996Y-76486922D01*
X218343341Y-76357341D01*
X218472922Y-76250996D01*
X218525346Y-76222975D01*
X218620758Y-76171976D01*
X218781177Y-76123313D01*
X218906196Y-76111000D01*
X218989804Y-76111000D01*
X219114823Y-76123313D01*
X219114823Y-76123313D01*
G37*
G36*
X226734823Y-76123313D02*
G01*
X226895242Y-76171976D01*
X226990654Y-76222975D01*
X227043078Y-76250996D01*
X227172659Y-76357341D01*
X227279004Y-76486922D01*
X227279005Y-76486924D01*
X227358024Y-76634758D01*
X227406687Y-76795177D01*
X227423117Y-76962000D01*
X227406687Y-77128823D01*
X227358024Y-77289242D01*
X227287114Y-77421906D01*
X227279004Y-77437078D01*
X227172659Y-77566659D01*
X227043078Y-77673004D01*
X227043076Y-77673005D01*
X226895242Y-77752024D01*
X226734823Y-77800687D01*
X226609804Y-77813000D01*
X226526196Y-77813000D01*
X226401177Y-77800687D01*
X226240758Y-77752024D01*
X226092924Y-77673005D01*
X226092922Y-77673004D01*
X225963341Y-77566659D01*
X225856996Y-77437078D01*
X225848886Y-77421906D01*
X225777976Y-77289242D01*
X225729313Y-77128823D01*
X225712883Y-76962000D01*
X225729313Y-76795177D01*
X225777976Y-76634758D01*
X225856995Y-76486924D01*
X225856996Y-76486922D01*
X225963341Y-76357341D01*
X226092922Y-76250996D01*
X226145346Y-76222975D01*
X226240758Y-76171976D01*
X226401177Y-76123313D01*
X226526196Y-76111000D01*
X226609804Y-76111000D01*
X226734823Y-76123313D01*
X226734823Y-76123313D01*
G37*
G36*
X238164823Y-76123313D02*
G01*
X238325242Y-76171976D01*
X238420654Y-76222975D01*
X238473078Y-76250996D01*
X238602659Y-76357341D01*
X238709004Y-76486922D01*
X238709005Y-76486924D01*
X238788024Y-76634758D01*
X238836687Y-76795177D01*
X238853117Y-76962000D01*
X238836687Y-77128823D01*
X238788024Y-77289242D01*
X238717114Y-77421906D01*
X238709004Y-77437078D01*
X238602659Y-77566659D01*
X238473078Y-77673004D01*
X238473076Y-77673005D01*
X238325242Y-77752024D01*
X238164823Y-77800687D01*
X238039804Y-77813000D01*
X237956196Y-77813000D01*
X237831177Y-77800687D01*
X237670758Y-77752024D01*
X237522924Y-77673005D01*
X237522922Y-77673004D01*
X237393341Y-77566659D01*
X237286996Y-77437078D01*
X237278886Y-77421906D01*
X237207976Y-77289242D01*
X237159313Y-77128823D01*
X237142883Y-76962000D01*
X237159313Y-76795177D01*
X237207976Y-76634758D01*
X237286995Y-76486924D01*
X237286996Y-76486922D01*
X237393341Y-76357341D01*
X237522922Y-76250996D01*
X237575346Y-76222975D01*
X237670758Y-76171976D01*
X237831177Y-76123313D01*
X237956196Y-76111000D01*
X238039804Y-76111000D01*
X238164823Y-76123313D01*
X238164823Y-76123313D01*
G37*
G36*
X205246823Y-76097913D02*
G01*
X205407242Y-76146576D01*
X205539906Y-76217486D01*
X205555078Y-76225596D01*
X205684659Y-76331941D01*
X205791004Y-76461522D01*
X205791005Y-76461524D01*
X205870024Y-76609358D01*
X205918687Y-76769777D01*
X205935117Y-76936600D01*
X205918687Y-77103423D01*
X205870024Y-77263842D01*
X205856449Y-77289239D01*
X205791004Y-77411678D01*
X205684659Y-77541259D01*
X205555078Y-77647604D01*
X205555076Y-77647605D01*
X205407242Y-77726624D01*
X205246823Y-77775287D01*
X205121804Y-77787600D01*
X205038196Y-77787600D01*
X204913177Y-77775287D01*
X204752758Y-77726624D01*
X204604924Y-77647605D01*
X204604922Y-77647604D01*
X204475341Y-77541259D01*
X204368996Y-77411678D01*
X204303551Y-77289239D01*
X204289976Y-77263842D01*
X204241313Y-77103423D01*
X204224883Y-76936600D01*
X204241313Y-76769777D01*
X204289976Y-76609358D01*
X204368995Y-76461524D01*
X204368996Y-76461522D01*
X204475341Y-76331941D01*
X204604922Y-76225596D01*
X204620094Y-76217486D01*
X204752758Y-76146576D01*
X204913177Y-76097913D01*
X205038196Y-76085600D01*
X205121804Y-76085600D01*
X205246823Y-76097913D01*
X205246823Y-76097913D01*
G37*
G36*
X193816823Y-76097913D02*
G01*
X193977242Y-76146576D01*
X194109906Y-76217486D01*
X194125078Y-76225596D01*
X194254659Y-76331941D01*
X194361004Y-76461522D01*
X194361005Y-76461524D01*
X194440024Y-76609358D01*
X194488687Y-76769777D01*
X194505117Y-76936600D01*
X194488687Y-77103423D01*
X194440024Y-77263842D01*
X194426449Y-77289239D01*
X194361004Y-77411678D01*
X194254659Y-77541259D01*
X194125078Y-77647604D01*
X194125076Y-77647605D01*
X193977242Y-77726624D01*
X193816823Y-77775287D01*
X193691804Y-77787600D01*
X193608196Y-77787600D01*
X193483177Y-77775287D01*
X193322758Y-77726624D01*
X193174924Y-77647605D01*
X193174922Y-77647604D01*
X193045341Y-77541259D01*
X192938996Y-77411678D01*
X192873551Y-77289239D01*
X192859976Y-77263842D01*
X192811313Y-77103423D01*
X192794883Y-76936600D01*
X192811313Y-76769777D01*
X192859976Y-76609358D01*
X192938995Y-76461524D01*
X192938996Y-76461522D01*
X193045341Y-76331941D01*
X193174922Y-76225596D01*
X193190094Y-76217486D01*
X193322758Y-76146576D01*
X193483177Y-76097913D01*
X193608196Y-76085600D01*
X193691804Y-76085600D01*
X193816823Y-76097913D01*
X193816823Y-76097913D01*
G37*
G36*
X201436823Y-76097913D02*
G01*
X201597242Y-76146576D01*
X201729906Y-76217486D01*
X201745078Y-76225596D01*
X201874659Y-76331941D01*
X201981004Y-76461522D01*
X201981005Y-76461524D01*
X202060024Y-76609358D01*
X202108687Y-76769777D01*
X202125117Y-76936600D01*
X202108687Y-77103423D01*
X202060024Y-77263842D01*
X202046449Y-77289239D01*
X201981004Y-77411678D01*
X201874659Y-77541259D01*
X201745078Y-77647604D01*
X201745076Y-77647605D01*
X201597242Y-77726624D01*
X201436823Y-77775287D01*
X201311804Y-77787600D01*
X201228196Y-77787600D01*
X201103177Y-77775287D01*
X200942758Y-77726624D01*
X200794924Y-77647605D01*
X200794922Y-77647604D01*
X200665341Y-77541259D01*
X200558996Y-77411678D01*
X200493551Y-77289239D01*
X200479976Y-77263842D01*
X200431313Y-77103423D01*
X200414883Y-76936600D01*
X200431313Y-76769777D01*
X200479976Y-76609358D01*
X200558995Y-76461524D01*
X200558996Y-76461522D01*
X200665341Y-76331941D01*
X200794922Y-76225596D01*
X200810094Y-76217486D01*
X200942758Y-76146576D01*
X201103177Y-76097913D01*
X201228196Y-76085600D01*
X201311804Y-76085600D01*
X201436823Y-76097913D01*
X201436823Y-76097913D01*
G37*
G36*
X212866823Y-76097913D02*
G01*
X213027242Y-76146576D01*
X213159906Y-76217486D01*
X213175078Y-76225596D01*
X213304659Y-76331941D01*
X213411004Y-76461522D01*
X213411005Y-76461524D01*
X213490024Y-76609358D01*
X213538687Y-76769777D01*
X213555117Y-76936600D01*
X213538687Y-77103423D01*
X213490024Y-77263842D01*
X213476449Y-77289239D01*
X213411004Y-77411678D01*
X213304659Y-77541259D01*
X213175078Y-77647604D01*
X213175076Y-77647605D01*
X213027242Y-77726624D01*
X212866823Y-77775287D01*
X212741804Y-77787600D01*
X212658196Y-77787600D01*
X212533177Y-77775287D01*
X212372758Y-77726624D01*
X212224924Y-77647605D01*
X212224922Y-77647604D01*
X212095341Y-77541259D01*
X211988996Y-77411678D01*
X211923551Y-77289239D01*
X211909976Y-77263842D01*
X211861313Y-77103423D01*
X211844883Y-76936600D01*
X211861313Y-76769777D01*
X211909976Y-76609358D01*
X211988995Y-76461524D01*
X211988996Y-76461522D01*
X212095341Y-76331941D01*
X212224922Y-76225596D01*
X212240094Y-76217486D01*
X212372758Y-76146576D01*
X212533177Y-76097913D01*
X212658196Y-76085600D01*
X212741804Y-76085600D01*
X212866823Y-76097913D01*
X212866823Y-76097913D01*
G37*
G36*
X187618823Y-73634313D02*
G01*
X187779242Y-73682976D01*
X187911906Y-73753886D01*
X187927078Y-73761996D01*
X188056659Y-73868341D01*
X188163004Y-73997922D01*
X188163005Y-73997924D01*
X188242024Y-74145758D01*
X188290687Y-74306177D01*
X188307117Y-74473000D01*
X188290687Y-74639823D01*
X188242024Y-74800242D01*
X188190265Y-74897076D01*
X188163004Y-74948078D01*
X188056659Y-75077659D01*
X187927078Y-75184004D01*
X187927076Y-75184005D01*
X187779242Y-75263024D01*
X187618823Y-75311687D01*
X187493804Y-75324000D01*
X187410196Y-75324000D01*
X187285177Y-75311687D01*
X187124758Y-75263024D01*
X186976924Y-75184005D01*
X186976922Y-75184004D01*
X186847341Y-75077659D01*
X186740996Y-74948078D01*
X186713735Y-74897076D01*
X186661976Y-74800242D01*
X186613313Y-74639823D01*
X186596883Y-74473000D01*
X186613313Y-74306177D01*
X186661976Y-74145758D01*
X186740995Y-73997924D01*
X186740996Y-73997922D01*
X186847341Y-73868341D01*
X186976922Y-73761996D01*
X186992094Y-73753886D01*
X187124758Y-73682976D01*
X187285177Y-73634313D01*
X187410196Y-73622000D01*
X187493804Y-73622000D01*
X187618823Y-73634313D01*
X187618823Y-73634313D01*
G37*
G36*
X143853000Y-75324000D02*
G01*
X142151000Y-75324000D01*
X142151000Y-73622000D01*
X143853000Y-73622000D01*
X143853000Y-75324000D01*
X143853000Y-75324000D01*
G37*
G36*
X150788823Y-73634313D02*
G01*
X150949242Y-73682976D01*
X151081906Y-73753886D01*
X151097078Y-73761996D01*
X151226659Y-73868341D01*
X151333004Y-73997922D01*
X151333005Y-73997924D01*
X151412024Y-74145758D01*
X151460687Y-74306177D01*
X151477117Y-74473000D01*
X151460687Y-74639823D01*
X151412024Y-74800242D01*
X151360265Y-74897076D01*
X151333004Y-74948078D01*
X151226659Y-75077659D01*
X151097078Y-75184004D01*
X151097076Y-75184005D01*
X150949242Y-75263024D01*
X150788823Y-75311687D01*
X150663804Y-75324000D01*
X150580196Y-75324000D01*
X150455177Y-75311687D01*
X150294758Y-75263024D01*
X150146924Y-75184005D01*
X150146922Y-75184004D01*
X150017341Y-75077659D01*
X149910996Y-74948078D01*
X149883735Y-74897076D01*
X149831976Y-74800242D01*
X149783313Y-74639823D01*
X149766883Y-74473000D01*
X149783313Y-74306177D01*
X149831976Y-74145758D01*
X149910995Y-73997924D01*
X149910996Y-73997922D01*
X150017341Y-73868341D01*
X150146922Y-73761996D01*
X150162094Y-73753886D01*
X150294758Y-73682976D01*
X150455177Y-73634313D01*
X150580196Y-73622000D01*
X150663804Y-73622000D01*
X150788823Y-73634313D01*
X150788823Y-73634313D01*
G37*
G36*
X169253000Y-75324000D02*
G01*
X167551000Y-75324000D01*
X167551000Y-73622000D01*
X169253000Y-73622000D01*
X169253000Y-75324000D01*
X169253000Y-75324000D01*
G37*
G36*
X176188823Y-73634313D02*
G01*
X176349242Y-73682976D01*
X176481906Y-73753886D01*
X176497078Y-73761996D01*
X176626659Y-73868341D01*
X176733004Y-73997922D01*
X176733005Y-73997924D01*
X176812024Y-74145758D01*
X176860687Y-74306177D01*
X176877117Y-74473000D01*
X176860687Y-74639823D01*
X176812024Y-74800242D01*
X176760265Y-74897076D01*
X176733004Y-74948078D01*
X176626659Y-75077659D01*
X176497078Y-75184004D01*
X176497076Y-75184005D01*
X176349242Y-75263024D01*
X176188823Y-75311687D01*
X176063804Y-75324000D01*
X175980196Y-75324000D01*
X175855177Y-75311687D01*
X175694758Y-75263024D01*
X175546924Y-75184005D01*
X175546922Y-75184004D01*
X175417341Y-75077659D01*
X175310996Y-74948078D01*
X175283735Y-74897076D01*
X175231976Y-74800242D01*
X175183313Y-74639823D01*
X175166883Y-74473000D01*
X175183313Y-74306177D01*
X175231976Y-74145758D01*
X175310995Y-73997924D01*
X175310996Y-73997922D01*
X175417341Y-73868341D01*
X175546922Y-73761996D01*
X175562094Y-73753886D01*
X175694758Y-73682976D01*
X175855177Y-73634313D01*
X175980196Y-73622000D01*
X176063804Y-73622000D01*
X176188823Y-73634313D01*
X176188823Y-73634313D01*
G37*
G36*
X180683000Y-75324000D02*
G01*
X178981000Y-75324000D01*
X178981000Y-73622000D01*
X180683000Y-73622000D01*
X180683000Y-75324000D01*
X180683000Y-75324000D01*
G37*
G36*
X162218823Y-73634313D02*
G01*
X162379242Y-73682976D01*
X162511906Y-73753886D01*
X162527078Y-73761996D01*
X162656659Y-73868341D01*
X162763004Y-73997922D01*
X162763005Y-73997924D01*
X162842024Y-74145758D01*
X162890687Y-74306177D01*
X162907117Y-74473000D01*
X162890687Y-74639823D01*
X162842024Y-74800242D01*
X162790265Y-74897076D01*
X162763004Y-74948078D01*
X162656659Y-75077659D01*
X162527078Y-75184004D01*
X162527076Y-75184005D01*
X162379242Y-75263024D01*
X162218823Y-75311687D01*
X162093804Y-75324000D01*
X162010196Y-75324000D01*
X161885177Y-75311687D01*
X161724758Y-75263024D01*
X161576924Y-75184005D01*
X161576922Y-75184004D01*
X161447341Y-75077659D01*
X161340996Y-74948078D01*
X161313735Y-74897076D01*
X161261976Y-74800242D01*
X161213313Y-74639823D01*
X161196883Y-74473000D01*
X161213313Y-74306177D01*
X161261976Y-74145758D01*
X161340995Y-73997924D01*
X161340996Y-73997922D01*
X161447341Y-73868341D01*
X161576922Y-73761996D01*
X161592094Y-73753886D01*
X161724758Y-73682976D01*
X161885177Y-73634313D01*
X162010196Y-73622000D01*
X162093804Y-73622000D01*
X162218823Y-73634313D01*
X162218823Y-73634313D01*
G37*
G36*
X155283000Y-75324000D02*
G01*
X153581000Y-75324000D01*
X153581000Y-73622000D01*
X155283000Y-73622000D01*
X155283000Y-75324000D01*
X155283000Y-75324000D01*
G37*
G36*
X226734823Y-73583313D02*
G01*
X226895242Y-73631976D01*
X226990654Y-73682975D01*
X227043078Y-73710996D01*
X227172659Y-73817341D01*
X227279004Y-73946922D01*
X227279005Y-73946924D01*
X227358024Y-74094758D01*
X227406687Y-74255177D01*
X227423117Y-74422000D01*
X227406687Y-74588823D01*
X227358024Y-74749242D01*
X227287114Y-74881906D01*
X227279004Y-74897078D01*
X227172659Y-75026659D01*
X227043078Y-75133004D01*
X227043076Y-75133005D01*
X226895242Y-75212024D01*
X226734823Y-75260687D01*
X226609804Y-75273000D01*
X226526196Y-75273000D01*
X226401177Y-75260687D01*
X226240758Y-75212024D01*
X226092924Y-75133005D01*
X226092922Y-75133004D01*
X225963341Y-75026659D01*
X225856996Y-74897078D01*
X225848886Y-74881906D01*
X225777976Y-74749242D01*
X225729313Y-74588823D01*
X225712883Y-74422000D01*
X225729313Y-74255177D01*
X225777976Y-74094758D01*
X225856995Y-73946924D01*
X225856996Y-73946922D01*
X225963341Y-73817341D01*
X226092922Y-73710996D01*
X226145346Y-73682975D01*
X226240758Y-73631976D01*
X226401177Y-73583313D01*
X226526196Y-73571000D01*
X226609804Y-73571000D01*
X226734823Y-73583313D01*
X226734823Y-73583313D01*
G37*
G36*
X231229000Y-75273000D02*
G01*
X229527000Y-75273000D01*
X229527000Y-73571000D01*
X231229000Y-73571000D01*
X231229000Y-75273000D01*
X231229000Y-75273000D01*
G37*
G36*
X238164823Y-73583313D02*
G01*
X238325242Y-73631976D01*
X238420654Y-73682975D01*
X238473078Y-73710996D01*
X238602659Y-73817341D01*
X238709004Y-73946922D01*
X238709005Y-73946924D01*
X238788024Y-74094758D01*
X238836687Y-74255177D01*
X238853117Y-74422000D01*
X238836687Y-74588823D01*
X238788024Y-74749242D01*
X238717114Y-74881906D01*
X238709004Y-74897078D01*
X238602659Y-75026659D01*
X238473078Y-75133004D01*
X238473076Y-75133005D01*
X238325242Y-75212024D01*
X238164823Y-75260687D01*
X238039804Y-75273000D01*
X237956196Y-75273000D01*
X237831177Y-75260687D01*
X237670758Y-75212024D01*
X237522924Y-75133005D01*
X237522922Y-75133004D01*
X237393341Y-75026659D01*
X237286996Y-74897078D01*
X237278886Y-74881906D01*
X237207976Y-74749242D01*
X237159313Y-74588823D01*
X237142883Y-74422000D01*
X237159313Y-74255177D01*
X237207976Y-74094758D01*
X237286995Y-73946924D01*
X237286996Y-73946922D01*
X237393341Y-73817341D01*
X237522922Y-73710996D01*
X237575346Y-73682975D01*
X237670758Y-73631976D01*
X237831177Y-73583313D01*
X237956196Y-73571000D01*
X238039804Y-73571000D01*
X238164823Y-73583313D01*
X238164823Y-73583313D01*
G37*
G36*
X219799000Y-75273000D02*
G01*
X218097000Y-75273000D01*
X218097000Y-73571000D01*
X219799000Y-73571000D01*
X219799000Y-75273000D01*
X219799000Y-75273000D01*
G37*
G36*
X212866823Y-73557913D02*
G01*
X213027242Y-73606576D01*
X213159906Y-73677486D01*
X213175078Y-73685596D01*
X213304659Y-73791941D01*
X213411004Y-73921522D01*
X213411005Y-73921524D01*
X213490024Y-74069358D01*
X213538687Y-74229777D01*
X213555117Y-74396600D01*
X213538687Y-74563423D01*
X213490024Y-74723842D01*
X213476449Y-74749239D01*
X213411004Y-74871678D01*
X213304659Y-75001259D01*
X213175078Y-75107604D01*
X213175076Y-75107605D01*
X213027242Y-75186624D01*
X212866823Y-75235287D01*
X212741804Y-75247600D01*
X212658196Y-75247600D01*
X212533177Y-75235287D01*
X212372758Y-75186624D01*
X212224924Y-75107605D01*
X212224922Y-75107604D01*
X212095341Y-75001259D01*
X211988996Y-74871678D01*
X211923551Y-74749239D01*
X211909976Y-74723842D01*
X211861313Y-74563423D01*
X211844883Y-74396600D01*
X211861313Y-74229777D01*
X211909976Y-74069358D01*
X211988995Y-73921524D01*
X211988996Y-73921522D01*
X212095341Y-73791941D01*
X212224922Y-73685596D01*
X212240094Y-73677486D01*
X212372758Y-73606576D01*
X212533177Y-73557913D01*
X212658196Y-73545600D01*
X212741804Y-73545600D01*
X212866823Y-73557913D01*
X212866823Y-73557913D01*
G37*
G36*
X205931000Y-75247600D02*
G01*
X204229000Y-75247600D01*
X204229000Y-73545600D01*
X205931000Y-73545600D01*
X205931000Y-75247600D01*
X205931000Y-75247600D01*
G37*
G36*
X194501000Y-75247600D02*
G01*
X192799000Y-75247600D01*
X192799000Y-73545600D01*
X194501000Y-73545600D01*
X194501000Y-75247600D01*
X194501000Y-75247600D01*
G37*
G36*
X201436823Y-73557913D02*
G01*
X201597242Y-73606576D01*
X201729906Y-73677486D01*
X201745078Y-73685596D01*
X201874659Y-73791941D01*
X201981004Y-73921522D01*
X201981005Y-73921524D01*
X202060024Y-74069358D01*
X202108687Y-74229777D01*
X202125117Y-74396600D01*
X202108687Y-74563423D01*
X202060024Y-74723842D01*
X202046449Y-74749239D01*
X201981004Y-74871678D01*
X201874659Y-75001259D01*
X201745078Y-75107604D01*
X201745076Y-75107605D01*
X201597242Y-75186624D01*
X201436823Y-75235287D01*
X201311804Y-75247600D01*
X201228196Y-75247600D01*
X201103177Y-75235287D01*
X200942758Y-75186624D01*
X200794924Y-75107605D01*
X200794922Y-75107604D01*
X200665341Y-75001259D01*
X200558996Y-74871678D01*
X200493551Y-74749239D01*
X200479976Y-74723842D01*
X200431313Y-74563423D01*
X200414883Y-74396600D01*
X200431313Y-74229777D01*
X200479976Y-74069358D01*
X200558995Y-73921524D01*
X200558996Y-73921522D01*
X200665341Y-73791941D01*
X200794922Y-73685596D01*
X200810094Y-73677486D01*
X200942758Y-73606576D01*
X201103177Y-73557913D01*
X201228196Y-73545600D01*
X201311804Y-73545600D01*
X201436823Y-73557913D01*
X201436823Y-73557913D01*
G37*
M02*
