G04 #@! TF.GenerationSoftware,KiCad,Pcbnew,(5.1.2-1)-1*
G04 #@! TF.CreationDate,2019-05-17T19:40:02+01:00*
G04 #@! TF.ProjectId,SRAM Board,5352414d-2042-46f6-9172-642e6b696361,rev?*
G04 #@! TF.SameCoordinates,Original*
G04 #@! TF.FileFunction,Copper,L2,Bot*
G04 #@! TF.FilePolarity,Positive*
%FSLAX46Y46*%
G04 Gerber Fmt 4.6, Leading zero omitted, Abs format (unit mm)*
G04 Created by KiCad (PCBNEW (5.1.2-1)-1) date 2019-05-17 19:40:02*
%MOMM*%
%LPD*%
G04 APERTURE LIST*
%ADD10O,1.600000X1.600000*%
%ADD11R,1.600000X1.600000*%
%ADD12C,0.800000*%
%ADD13C,0.250000*%
G04 APERTURE END LIST*
D10*
X226568000Y-74422000D03*
X218948000Y-97282000D03*
X226568000Y-76962000D03*
X218948000Y-94742000D03*
X226568000Y-79502000D03*
X218948000Y-92202000D03*
X226568000Y-82042000D03*
X218948000Y-89662000D03*
X226568000Y-84582000D03*
X218948000Y-87122000D03*
X226568000Y-87122000D03*
X218948000Y-84582000D03*
X226568000Y-89662000D03*
X218948000Y-82042000D03*
X226568000Y-92202000D03*
X218948000Y-79502000D03*
X226568000Y-94742000D03*
X218948000Y-76962000D03*
X226568000Y-97282000D03*
D11*
X218948000Y-74422000D03*
D10*
X201270000Y-74396600D03*
X193650000Y-97256600D03*
X201270000Y-76936600D03*
X193650000Y-94716600D03*
X201270000Y-79476600D03*
X193650000Y-92176600D03*
X201270000Y-82016600D03*
X193650000Y-89636600D03*
X201270000Y-84556600D03*
X193650000Y-87096600D03*
X201270000Y-87096600D03*
X193650000Y-84556600D03*
X201270000Y-89636600D03*
X193650000Y-82016600D03*
X201270000Y-92176600D03*
X193650000Y-79476600D03*
X201270000Y-94716600D03*
X193650000Y-76936600D03*
X201270000Y-97256600D03*
D11*
X193650000Y-74396600D03*
D10*
X176022000Y-74473000D03*
X168402000Y-97333000D03*
X176022000Y-77013000D03*
X168402000Y-94793000D03*
X176022000Y-79553000D03*
X168402000Y-92253000D03*
X176022000Y-82093000D03*
X168402000Y-89713000D03*
X176022000Y-84633000D03*
X168402000Y-87173000D03*
X176022000Y-87173000D03*
X168402000Y-84633000D03*
X176022000Y-89713000D03*
X168402000Y-82093000D03*
X176022000Y-92253000D03*
X168402000Y-79553000D03*
X176022000Y-94793000D03*
X168402000Y-77013000D03*
X176022000Y-97333000D03*
D11*
X168402000Y-74473000D03*
D10*
X150622000Y-74473000D03*
X143002000Y-97333000D03*
X150622000Y-77013000D03*
X143002000Y-94793000D03*
X150622000Y-79553000D03*
X143002000Y-92253000D03*
X150622000Y-82093000D03*
X143002000Y-89713000D03*
X150622000Y-84633000D03*
X143002000Y-87173000D03*
X150622000Y-87173000D03*
X143002000Y-84633000D03*
X150622000Y-89713000D03*
X143002000Y-82093000D03*
X150622000Y-92253000D03*
X143002000Y-79553000D03*
X150622000Y-94793000D03*
X143002000Y-77013000D03*
X150622000Y-97333000D03*
D11*
X143002000Y-74473000D03*
D10*
X237998000Y-74422000D03*
X230378000Y-97282000D03*
X237998000Y-76962000D03*
X230378000Y-94742000D03*
X237998000Y-79502000D03*
X230378000Y-92202000D03*
X237998000Y-82042000D03*
X230378000Y-89662000D03*
X237998000Y-84582000D03*
X230378000Y-87122000D03*
X237998000Y-87122000D03*
X230378000Y-84582000D03*
X237998000Y-89662000D03*
X230378000Y-82042000D03*
X237998000Y-92202000D03*
X230378000Y-79502000D03*
X237998000Y-94742000D03*
X230378000Y-76962000D03*
X237998000Y-97282000D03*
D11*
X230378000Y-74422000D03*
D10*
X212700000Y-74396600D03*
X205080000Y-97256600D03*
X212700000Y-76936600D03*
X205080000Y-94716600D03*
X212700000Y-79476600D03*
X205080000Y-92176600D03*
X212700000Y-82016600D03*
X205080000Y-89636600D03*
X212700000Y-84556600D03*
X205080000Y-87096600D03*
X212700000Y-87096600D03*
X205080000Y-84556600D03*
X212700000Y-89636600D03*
X205080000Y-82016600D03*
X212700000Y-92176600D03*
X205080000Y-79476600D03*
X212700000Y-94716600D03*
X205080000Y-76936600D03*
X212700000Y-97256600D03*
D11*
X205080000Y-74396600D03*
D10*
X187452000Y-74473000D03*
X179832000Y-97333000D03*
X187452000Y-77013000D03*
X179832000Y-94793000D03*
X187452000Y-79553000D03*
X179832000Y-92253000D03*
X187452000Y-82093000D03*
X179832000Y-89713000D03*
X187452000Y-84633000D03*
X179832000Y-87173000D03*
X187452000Y-87173000D03*
X179832000Y-84633000D03*
X187452000Y-89713000D03*
X179832000Y-82093000D03*
X187452000Y-92253000D03*
X179832000Y-79553000D03*
X187452000Y-94793000D03*
X179832000Y-77013000D03*
X187452000Y-97333000D03*
D11*
X179832000Y-74473000D03*
D10*
X162052000Y-74473000D03*
X154432000Y-97333000D03*
X162052000Y-77013000D03*
X154432000Y-94793000D03*
X162052000Y-79553000D03*
X154432000Y-92253000D03*
X162052000Y-82093000D03*
X154432000Y-89713000D03*
X162052000Y-84633000D03*
X154432000Y-87173000D03*
X162052000Y-87173000D03*
X154432000Y-84633000D03*
X162052000Y-89713000D03*
X154432000Y-82093000D03*
X162052000Y-92253000D03*
X154432000Y-79553000D03*
X162052000Y-94793000D03*
X154432000Y-77013000D03*
X162052000Y-97333000D03*
D11*
X154432000Y-74473000D03*
D12*
X225210400Y-65603900D03*
X224485100Y-66573900D03*
X227284500Y-66411500D03*
X227400000Y-65375400D03*
X227102300Y-62631400D03*
X221621800Y-62083400D03*
X230206500Y-62089100D03*
X218311800Y-61946100D03*
X204745400Y-62514700D03*
X184593500Y-72999900D03*
X186052000Y-73658100D03*
X186769800Y-64733600D03*
X217531900Y-67208300D03*
X205835500Y-58150800D03*
X192711800Y-67285800D03*
X200685600Y-63186800D03*
X199000400Y-63801400D03*
X237559700Y-65279900D03*
X236595400Y-65929700D03*
X191078600Y-66330800D03*
X237287300Y-67695000D03*
X192096200Y-64699300D03*
X191490300Y-71341200D03*
X186158500Y-65819900D03*
X234930500Y-65372900D03*
X213059600Y-61530400D03*
X208307500Y-62541000D03*
X218227600Y-58823600D03*
X226858400Y-56202900D03*
X229508700Y-54667000D03*
X228143600Y-54214300D03*
X181497600Y-71752100D03*
X225616900Y-55144700D03*
X226187800Y-54218400D03*
X221310100Y-55755600D03*
X224504700Y-54205300D03*
X200489200Y-58600200D03*
X205962200Y-62536100D03*
X190999500Y-55971400D03*
X204860400Y-53002100D03*
X219294500Y-52235500D03*
X232940900Y-54199800D03*
X213776000Y-60618500D03*
X220031200Y-62638900D03*
D13*
X226568000Y-78376700D02*
X226286700Y-78376700D01*
X226286700Y-78376700D02*
X225210400Y-77300400D01*
X225210400Y-77300400D02*
X225210400Y-65603900D01*
X226568000Y-79502000D02*
X226568000Y-78376700D01*
X218948000Y-76962000D02*
X218948000Y-75836700D01*
X224485100Y-66573900D02*
X224485100Y-71002900D01*
X224485100Y-71002900D02*
X219651300Y-75836700D01*
X219651300Y-75836700D02*
X218948000Y-75836700D01*
X226568000Y-76962000D02*
X226568000Y-75836700D01*
X226568000Y-75836700D02*
X226849300Y-75836700D01*
X226849300Y-75836700D02*
X227712500Y-74973500D01*
X227712500Y-74973500D02*
X227712500Y-66839500D01*
X227712500Y-66839500D02*
X227284500Y-66411500D01*
X230378000Y-74422000D02*
X230378000Y-68353400D01*
X230378000Y-68353400D02*
X227400000Y-65375400D01*
X212700000Y-78351300D02*
X212981300Y-78351300D01*
X212981300Y-78351300D02*
X217822600Y-73510000D01*
X217822600Y-73510000D02*
X217822600Y-71911100D01*
X217822600Y-71911100D02*
X227102300Y-62631400D01*
X201270000Y-79476600D02*
X202395300Y-79476600D01*
X212700000Y-78351300D02*
X203520600Y-78351300D01*
X203520600Y-78351300D02*
X202395300Y-79476600D01*
X212700000Y-78463900D02*
X212700000Y-78351300D01*
X212700000Y-79476600D02*
X212700000Y-78463900D01*
X206205300Y-76936600D02*
X206768600Y-76936600D01*
X206768600Y-76936600D02*
X221621800Y-62083400D01*
X205080000Y-76936600D02*
X206205300Y-76936600D01*
X212700000Y-76936600D02*
X212700000Y-75811300D01*
X230206500Y-62089100D02*
X229963800Y-61846400D01*
X229963800Y-61846400D02*
X226841800Y-61846400D01*
X226841800Y-61846400D02*
X212876900Y-75811300D01*
X212876900Y-75811300D02*
X212700000Y-75811300D01*
X206205300Y-74396600D02*
X206205300Y-74052600D01*
X206205300Y-74052600D02*
X218311800Y-61946100D01*
X205080000Y-74396600D02*
X206205300Y-74396600D01*
X230378000Y-79502000D02*
X229252700Y-79502000D01*
X229252700Y-79502000D02*
X228068200Y-80686500D01*
X228068200Y-80686500D02*
X225699000Y-80686500D01*
X225699000Y-80686500D02*
X224514500Y-79502000D01*
X224514500Y-79502000D02*
X218948000Y-79502000D01*
X197216700Y-82016600D02*
X197216700Y-70043400D01*
X197216700Y-70043400D02*
X204745400Y-62514700D01*
X197216700Y-82016600D02*
X197216700Y-82164300D01*
X197216700Y-82164300D02*
X200779200Y-85726800D01*
X200779200Y-85726800D02*
X214137900Y-85726800D01*
X214137900Y-85726800D02*
X217822700Y-82042000D01*
X194775300Y-82016600D02*
X197216700Y-82016600D01*
X218948000Y-82042000D02*
X217822700Y-82042000D01*
X193650000Y-82016600D02*
X194775300Y-82016600D01*
X230378000Y-87122000D02*
X229252700Y-87122000D01*
X218948000Y-87122000D02*
X220073300Y-87122000D01*
X220073300Y-87122000D02*
X221198600Y-85996700D01*
X221198600Y-85996700D02*
X228127400Y-85996700D01*
X228127400Y-85996700D02*
X229252700Y-87122000D01*
X218385400Y-87122000D02*
X218948000Y-87122000D01*
X218385400Y-87122000D02*
X217822700Y-87122000D01*
X179832000Y-86047700D02*
X180113300Y-86047700D01*
X180113300Y-86047700D02*
X184593500Y-81567500D01*
X184593500Y-81567500D02*
X184593500Y-72999900D01*
X179832000Y-87173000D02*
X179832000Y-86047700D01*
X205080000Y-87096600D02*
X206205300Y-87096600D01*
X217822700Y-87122000D02*
X216722800Y-88221900D01*
X216722800Y-88221900D02*
X207330600Y-88221900D01*
X207330600Y-88221900D02*
X206205300Y-87096600D01*
X185826800Y-88587700D02*
X185826800Y-73883300D01*
X185826800Y-73883300D02*
X186052000Y-73658100D01*
X185826800Y-88587700D02*
X182082600Y-88587700D01*
X182082600Y-88587700D02*
X180957300Y-89713000D01*
X193650000Y-89636600D02*
X190404000Y-89636600D01*
X190404000Y-89636600D02*
X189355100Y-88587700D01*
X189355100Y-88587700D02*
X185826800Y-88587700D01*
X218948000Y-89662000D02*
X220073300Y-89662000D01*
X230378000Y-89662000D02*
X229252700Y-89662000D01*
X229252700Y-89662000D02*
X228127400Y-88536700D01*
X228127400Y-88536700D02*
X221198600Y-88536700D01*
X221198600Y-88536700D02*
X220073300Y-89662000D01*
X205080000Y-89636600D02*
X206205300Y-89636600D01*
X218948000Y-89662000D02*
X217822700Y-89662000D01*
X217822700Y-89662000D02*
X216722800Y-90761900D01*
X216722800Y-90761900D02*
X207330600Y-90761900D01*
X207330600Y-90761900D02*
X206205300Y-89636600D01*
X193650000Y-89636600D02*
X194775300Y-89636600D01*
X205080000Y-89636600D02*
X203954700Y-89636600D01*
X203954700Y-89636600D02*
X202829400Y-90761900D01*
X202829400Y-90761900D02*
X195900600Y-90761900D01*
X195900600Y-90761900D02*
X194775300Y-89636600D01*
X179832000Y-89713000D02*
X180957300Y-89713000D01*
X168402000Y-91127700D02*
X168683400Y-91127700D01*
X168683400Y-91127700D02*
X169527300Y-90283800D01*
X169527300Y-90283800D02*
X169527300Y-89479900D01*
X169527300Y-89479900D02*
X175644200Y-83363000D01*
X175644200Y-83363000D02*
X176422700Y-83363000D01*
X176422700Y-83363000D02*
X178559700Y-81226000D01*
X178559700Y-81226000D02*
X178559700Y-73652600D01*
X178559700Y-73652600D02*
X181185600Y-71026700D01*
X181185600Y-71026700D02*
X182006900Y-71026700D01*
X182006900Y-71026700D02*
X186883800Y-66149800D01*
X186883800Y-66149800D02*
X186883800Y-64847600D01*
X186883800Y-64847600D02*
X186769800Y-64733600D01*
X168402000Y-92253000D02*
X168402000Y-91127700D01*
X230378000Y-92202000D02*
X229252700Y-92202000D01*
X218948000Y-92202000D02*
X220073300Y-92202000D01*
X220073300Y-92202000D02*
X221198600Y-91076700D01*
X221198600Y-91076700D02*
X228127400Y-91076700D01*
X228127400Y-91076700D02*
X229252700Y-92202000D01*
X218385400Y-92202000D02*
X218948000Y-92202000D01*
X218385400Y-92202000D02*
X217822700Y-92202000D01*
X205080000Y-92176600D02*
X206205300Y-92176600D01*
X217822700Y-92202000D02*
X216722800Y-93301900D01*
X216722800Y-93301900D02*
X207330600Y-93301900D01*
X207330600Y-93301900D02*
X206205300Y-92176600D01*
X204517400Y-92176600D02*
X205080000Y-92176600D01*
X204517400Y-92176600D02*
X203954700Y-92176600D01*
X193650000Y-92176600D02*
X192524700Y-92176600D01*
X179832000Y-92253000D02*
X180957300Y-92253000D01*
X180957300Y-92253000D02*
X182112600Y-91097700D01*
X182112600Y-91097700D02*
X191445800Y-91097700D01*
X191445800Y-91097700D02*
X192524700Y-92176600D01*
X193650000Y-92176600D02*
X194775300Y-92176600D01*
X203954700Y-92176600D02*
X202829400Y-93301900D01*
X202829400Y-93301900D02*
X195900600Y-93301900D01*
X195900600Y-93301900D02*
X194775300Y-92176600D01*
X230378000Y-93616700D02*
X230659300Y-93616700D01*
X230659300Y-93616700D02*
X231530600Y-92745400D01*
X231530600Y-92745400D02*
X231530600Y-62379200D01*
X231530600Y-62379200D02*
X230489400Y-61338000D01*
X230489400Y-61338000D02*
X223402200Y-61338000D01*
X223402200Y-61338000D02*
X217531900Y-67208300D01*
X218948000Y-94742000D02*
X220073300Y-94742000D01*
X230378000Y-93616700D02*
X221198600Y-93616700D01*
X221198600Y-93616700D02*
X220073300Y-94742000D01*
X230378000Y-94742000D02*
X230378000Y-93616700D01*
X218385400Y-94742000D02*
X218948000Y-94742000D01*
X218385400Y-94742000D02*
X217822700Y-94742000D01*
X205080000Y-94716600D02*
X206205300Y-94716600D01*
X217822700Y-94742000D02*
X216722800Y-95841900D01*
X216722800Y-95841900D02*
X207330600Y-95841900D01*
X207330600Y-95841900D02*
X206205300Y-94716600D01*
X204517400Y-94716600D02*
X205080000Y-94716600D01*
X204517400Y-94716600D02*
X203954700Y-94716600D01*
X193650000Y-94716600D02*
X192524700Y-94716600D01*
X179832000Y-94793000D02*
X180957300Y-94793000D01*
X180957300Y-94793000D02*
X182112600Y-93637700D01*
X182112600Y-93637700D02*
X191445800Y-93637700D01*
X191445800Y-93637700D02*
X192524700Y-94716600D01*
X193650000Y-94716600D02*
X194775300Y-94716600D01*
X203954700Y-94716600D02*
X202829400Y-95841900D01*
X202829400Y-95841900D02*
X195900600Y-95841900D01*
X195900600Y-95841900D02*
X194775300Y-94716600D01*
X192825900Y-67399900D02*
X202075000Y-58150800D01*
X202075000Y-58150800D02*
X205835500Y-58150800D01*
X192825900Y-67399900D02*
X187452000Y-72773800D01*
X187452000Y-72773800D02*
X187452000Y-73347700D01*
X192825900Y-67399900D02*
X192711800Y-67285800D01*
X187452000Y-74473000D02*
X187452000Y-73347700D01*
X233093100Y-96189800D02*
X233093100Y-63276200D01*
X233093100Y-63276200D02*
X229816100Y-59999200D01*
X229816100Y-59999200D02*
X217740600Y-59999200D01*
X217740600Y-59999200D02*
X217634600Y-59893200D01*
X217634600Y-59893200D02*
X213352500Y-59893200D01*
X213352500Y-59893200D02*
X212335600Y-60910100D01*
X212335600Y-60910100D02*
X202962300Y-60910100D01*
X202962300Y-60910100D02*
X200685600Y-63186800D01*
X233093100Y-96189800D02*
X230875600Y-98407300D01*
X230875600Y-98407300D02*
X228818600Y-98407300D01*
X228818600Y-98407300D02*
X227693300Y-97282000D01*
X236985300Y-97282000D02*
X234185300Y-97282000D01*
X234185300Y-97282000D02*
X233093100Y-96189800D01*
X237998000Y-97282000D02*
X236985300Y-97282000D01*
X226568000Y-97282000D02*
X227693300Y-97282000D01*
X162052000Y-97333000D02*
X163177300Y-97333000D01*
X176022000Y-97333000D02*
X174896700Y-97333000D01*
X174896700Y-97333000D02*
X173771400Y-98458300D01*
X173771400Y-98458300D02*
X164302600Y-98458300D01*
X164302600Y-98458300D02*
X163177300Y-97333000D01*
X150622000Y-97333000D02*
X151747300Y-97333000D01*
X162052000Y-97333000D02*
X160926700Y-97333000D01*
X160926700Y-97333000D02*
X159801400Y-96207700D01*
X159801400Y-96207700D02*
X152872600Y-96207700D01*
X152872600Y-96207700D02*
X151747300Y-97333000D01*
X199000400Y-63801400D02*
X202567200Y-60234600D01*
X202567200Y-60234600D02*
X211737300Y-60234600D01*
X211737300Y-60234600D02*
X212529100Y-59442800D01*
X212529100Y-59442800D02*
X217821100Y-59442800D01*
X217821100Y-59442800D02*
X217927200Y-59548900D01*
X217927200Y-59548900D02*
X231828700Y-59548900D01*
X231828700Y-59548900D02*
X237559700Y-65279900D01*
X237998000Y-93616700D02*
X238279300Y-93616700D01*
X238279300Y-93616700D02*
X240062700Y-91833300D01*
X240062700Y-91833300D02*
X240062700Y-67782900D01*
X240062700Y-67782900D02*
X237559700Y-65279900D01*
X237998000Y-94742000D02*
X237998000Y-93616700D01*
X150622000Y-94793000D02*
X151747300Y-94793000D01*
X162052000Y-94793000D02*
X160926700Y-94793000D01*
X160926700Y-94793000D02*
X159801400Y-93667700D01*
X159801400Y-93667700D02*
X152872600Y-93667700D01*
X152872600Y-93667700D02*
X151747300Y-94793000D01*
X191078600Y-66330800D02*
X185326700Y-72082700D01*
X185326700Y-72082700D02*
X185326700Y-83273700D01*
X185326700Y-83273700D02*
X180157400Y-88443000D01*
X180157400Y-88443000D02*
X179427200Y-88443000D01*
X179427200Y-88443000D02*
X176742500Y-91127700D01*
X176742500Y-91127700D02*
X176022000Y-91127700D01*
X237998000Y-91076700D02*
X238279300Y-91076700D01*
X238279300Y-91076700D02*
X239573700Y-89782300D01*
X239573700Y-89782300D02*
X239573700Y-68908000D01*
X239573700Y-68908000D02*
X236595400Y-65929700D01*
X237998000Y-92202000D02*
X237998000Y-91076700D01*
X176022000Y-92253000D02*
X176022000Y-91127700D01*
X150622000Y-92253000D02*
X151747300Y-92253000D01*
X162052000Y-92253000D02*
X160926700Y-92253000D01*
X160926700Y-92253000D02*
X159801400Y-91127700D01*
X159801400Y-91127700D02*
X152872600Y-91127700D01*
X152872600Y-91127700D02*
X151747300Y-92253000D01*
X237998000Y-89662000D02*
X237998000Y-88536700D01*
X237287300Y-67695000D02*
X239123300Y-69531000D01*
X239123300Y-69531000D02*
X239123300Y-87692800D01*
X239123300Y-87692800D02*
X238279400Y-88536700D01*
X238279400Y-88536700D02*
X237998000Y-88536700D01*
X176022000Y-89713000D02*
X174896700Y-89713000D01*
X162052000Y-89713000D02*
X162052000Y-90838300D01*
X162052000Y-90838300D02*
X162770000Y-90838300D01*
X162770000Y-90838300D02*
X167870000Y-95938300D01*
X167870000Y-95938300D02*
X168952700Y-95938300D01*
X168952700Y-95938300D02*
X174896700Y-89994300D01*
X174896700Y-89994300D02*
X174896700Y-89713000D01*
X176022000Y-89713000D02*
X176022000Y-88587700D01*
X176022000Y-88587700D02*
X176303300Y-88587700D01*
X176303300Y-88587700D02*
X178566700Y-86324300D01*
X178566700Y-86324300D02*
X178566700Y-84232400D01*
X178566700Y-84232400D02*
X179436100Y-83363000D01*
X179436100Y-83363000D02*
X180155300Y-83363000D01*
X180155300Y-83363000D02*
X183862700Y-79655600D01*
X183862700Y-79655600D02*
X183862700Y-72521000D01*
X183862700Y-72521000D02*
X191684400Y-64699300D01*
X191684400Y-64699300D02*
X192096200Y-64699300D01*
X191490300Y-71341200D02*
X191490300Y-77177200D01*
X191490300Y-77177200D02*
X187844500Y-80823000D01*
X187844500Y-80823000D02*
X187124500Y-80823000D01*
X187124500Y-80823000D02*
X186326600Y-81620900D01*
X186326600Y-81620900D02*
X186326600Y-85812600D01*
X186326600Y-85812600D02*
X187687000Y-87173000D01*
X162052000Y-87173000D02*
X162052000Y-86047700D01*
X162052000Y-86047700D02*
X162770000Y-86047700D01*
X162770000Y-86047700D02*
X167850100Y-80967600D01*
X167850100Y-80967600D02*
X169378300Y-80967600D01*
X169378300Y-80967600D02*
X174458300Y-75887600D01*
X174458300Y-75887600D02*
X176245300Y-75887600D01*
X176245300Y-75887600D02*
X177469100Y-74663800D01*
X177469100Y-74663800D02*
X177469100Y-74095200D01*
X177469100Y-74095200D02*
X185744400Y-65819900D01*
X185744400Y-65819900D02*
X186158500Y-65819900D01*
X187687000Y-87173000D02*
X188577300Y-87173000D01*
X187452000Y-87173000D02*
X187687000Y-87173000D01*
X200144700Y-87096600D02*
X199019400Y-88221900D01*
X199019400Y-88221900D02*
X189626200Y-88221900D01*
X189626200Y-88221900D02*
X188577300Y-87173000D01*
X237998000Y-85996700D02*
X237716700Y-85996700D01*
X237716700Y-85996700D02*
X234930500Y-83210500D01*
X234930500Y-83210500D02*
X234930500Y-65372900D01*
X201270000Y-87096600D02*
X200144700Y-87096600D01*
X237998000Y-87122000D02*
X237998000Y-85996700D01*
X212700000Y-84556600D02*
X211574700Y-84556600D01*
X201270000Y-84556600D02*
X202544700Y-84556600D01*
X202544700Y-84556600D02*
X203670000Y-83431300D01*
X203670000Y-83431300D02*
X210449400Y-83431300D01*
X210449400Y-83431300D02*
X211574700Y-84556600D01*
X226568000Y-84582000D02*
X225442700Y-84582000D01*
X212700000Y-84556600D02*
X213825300Y-84556600D01*
X213825300Y-84556600D02*
X217501400Y-80880500D01*
X217501400Y-80880500D02*
X221741200Y-80880500D01*
X221741200Y-80880500D02*
X225442700Y-84582000D01*
X150622000Y-84633000D02*
X151747300Y-84633000D01*
X162052000Y-84633000D02*
X160926700Y-84633000D01*
X160926700Y-84633000D02*
X159801400Y-85758300D01*
X159801400Y-85758300D02*
X152872600Y-85758300D01*
X152872600Y-85758300D02*
X151747300Y-84633000D01*
X187452000Y-82093000D02*
X192299400Y-77245600D01*
X192299400Y-77245600D02*
X192299400Y-73675700D01*
X192299400Y-73675700D02*
X204444700Y-61530400D01*
X204444700Y-61530400D02*
X213059600Y-61530400D01*
X150622000Y-82093000D02*
X151747300Y-82093000D01*
X162052000Y-82093000D02*
X160926700Y-82093000D01*
X160926700Y-82093000D02*
X159801400Y-80967700D01*
X159801400Y-80967700D02*
X152872600Y-80967700D01*
X152872600Y-80967700D02*
X151747300Y-82093000D01*
X212700000Y-82016600D02*
X211574700Y-82016600D01*
X211574700Y-82016600D02*
X210449400Y-80891300D01*
X210449400Y-80891300D02*
X201270000Y-80891300D01*
X201270000Y-82016600D02*
X201270000Y-80891300D01*
X208307500Y-62541000D02*
X200144700Y-70703800D01*
X200144700Y-70703800D02*
X200144700Y-80047400D01*
X200144700Y-80047400D02*
X200988600Y-80891300D01*
X200988600Y-80891300D02*
X201270000Y-80891300D01*
X187452000Y-78427700D02*
X187733300Y-78427700D01*
X187733300Y-78427700D02*
X190729100Y-75431900D01*
X190729100Y-75431900D02*
X190729100Y-71006300D01*
X190729100Y-71006300D02*
X201959600Y-59775800D01*
X201959600Y-59775800D02*
X210928300Y-59775800D01*
X210928300Y-59775800D02*
X211880500Y-58823600D01*
X211880500Y-58823600D02*
X218227600Y-58823600D01*
X187452000Y-79553000D02*
X187452000Y-78427700D01*
X226858400Y-56202900D02*
X225636800Y-57424500D01*
X225636800Y-57424500D02*
X197685400Y-57424500D01*
X197685400Y-57424500D02*
X182961900Y-72148000D01*
X182961900Y-72148000D02*
X182961900Y-73461100D01*
X182961900Y-73461100D02*
X180535300Y-75887700D01*
X180535300Y-75887700D02*
X179832000Y-75887700D01*
X179832000Y-77013000D02*
X179832000Y-75887700D01*
X187452000Y-77013000D02*
X187452000Y-75887700D01*
X187452000Y-75887700D02*
X187733400Y-75887700D01*
X187733400Y-75887700D02*
X188577300Y-75043800D01*
X188577300Y-75043800D02*
X188577300Y-72521200D01*
X188577300Y-72521200D02*
X201838400Y-59260100D01*
X201838400Y-59260100D02*
X205919000Y-59260100D01*
X205919000Y-59260100D02*
X207214400Y-57964700D01*
X207214400Y-57964700D02*
X226211000Y-57964700D01*
X226211000Y-57964700D02*
X229508700Y-54667000D01*
X228143600Y-54214300D02*
X227573200Y-54214300D01*
X227573200Y-54214300D02*
X224856200Y-56931300D01*
X224856200Y-56931300D02*
X197541700Y-56931300D01*
X197541700Y-56931300D02*
X180957300Y-73515700D01*
X180957300Y-73515700D02*
X180957300Y-74473000D01*
X179832000Y-74473000D02*
X180957300Y-74473000D01*
X181497600Y-71752100D02*
X182084000Y-71752100D01*
X182084000Y-71752100D02*
X197355200Y-56480900D01*
X197355200Y-56480900D02*
X224280700Y-56480900D01*
X224280700Y-56480900D02*
X225616900Y-55144700D01*
X226187800Y-54218400D02*
X225517500Y-54218400D01*
X225517500Y-54218400D02*
X224739200Y-54996700D01*
X224739200Y-54996700D02*
X194844100Y-54996700D01*
X194844100Y-54996700D02*
X185594200Y-64246600D01*
X185594200Y-64246600D02*
X185594200Y-64463200D01*
X185594200Y-64463200D02*
X178060500Y-71996900D01*
X178060500Y-71996900D02*
X160573400Y-71996900D01*
X160573400Y-71996900D02*
X155557300Y-77013000D01*
X154432000Y-77013000D02*
X155557300Y-77013000D01*
X221310100Y-55755600D02*
X194722100Y-55755600D01*
X194722100Y-55755600D02*
X186044500Y-64433200D01*
X186044500Y-64433200D02*
X186044500Y-64649800D01*
X186044500Y-64649800D02*
X178148300Y-72546000D01*
X178148300Y-72546000D02*
X167644300Y-72546000D01*
X167644300Y-72546000D02*
X163177300Y-77013000D01*
X162052000Y-77013000D02*
X163177300Y-77013000D01*
X155557300Y-74473000D02*
X158574900Y-71455400D01*
X158574900Y-71455400D02*
X177965100Y-71455400D01*
X177965100Y-71455400D02*
X182434000Y-66986500D01*
X182434000Y-66986500D02*
X182434000Y-66753500D01*
X182434000Y-66753500D02*
X194982200Y-54205300D01*
X194982200Y-54205300D02*
X224504700Y-54205300D01*
X154432000Y-74473000D02*
X155557300Y-74473000D01*
X179832000Y-80967700D02*
X180113300Y-80967700D01*
X180113300Y-80967700D02*
X183412300Y-77668700D01*
X183412300Y-77668700D02*
X183412300Y-72334500D01*
X183412300Y-72334500D02*
X197146600Y-58600200D01*
X197146600Y-58600200D02*
X200489200Y-58600200D01*
X203954700Y-82016600D02*
X202829400Y-83141900D01*
X202829400Y-83141900D02*
X200799100Y-83141900D01*
X200799100Y-83141900D02*
X199672500Y-82015300D01*
X199672500Y-82015300D02*
X199672500Y-68825800D01*
X199672500Y-68825800D02*
X205962200Y-62536100D01*
X154432000Y-82093000D02*
X153306700Y-82093000D01*
X153306700Y-82093000D02*
X152181400Y-83218300D01*
X152181400Y-83218300D02*
X150412600Y-83218300D01*
X150412600Y-83218300D02*
X149496200Y-84134700D01*
X149496200Y-84134700D02*
X149496200Y-87655200D01*
X149496200Y-87655200D02*
X150284000Y-88443000D01*
X150284000Y-88443000D02*
X162378800Y-88443000D01*
X162378800Y-88443000D02*
X167346200Y-93410400D01*
X167346200Y-93410400D02*
X168916500Y-93410400D01*
X168916500Y-93410400D02*
X174495500Y-87831400D01*
X174495500Y-87831400D02*
X174495500Y-87050000D01*
X174495500Y-87050000D02*
X175497900Y-86047600D01*
X175497900Y-86047600D02*
X176204900Y-86047600D01*
X176204900Y-86047600D02*
X177472500Y-84780000D01*
X177472500Y-84780000D02*
X177472500Y-84452500D01*
X177472500Y-84452500D02*
X179832000Y-82093000D01*
X179832000Y-82093000D02*
X179832000Y-80967700D01*
X205080000Y-82016600D02*
X203954700Y-82016600D01*
X230378000Y-97282000D02*
X229252700Y-97282000D01*
X218948000Y-97282000D02*
X220073300Y-97282000D01*
X220073300Y-97282000D02*
X221198600Y-96156700D01*
X221198600Y-96156700D02*
X228127400Y-96156700D01*
X228127400Y-96156700D02*
X229252700Y-97282000D01*
X218385400Y-97282000D02*
X218948000Y-97282000D01*
X218385400Y-97282000D02*
X217822700Y-97282000D01*
X168402000Y-97333000D02*
X169527300Y-97333000D01*
X179832000Y-97333000D02*
X178706700Y-97333000D01*
X178706700Y-97333000D02*
X177581400Y-96207700D01*
X177581400Y-96207700D02*
X170652600Y-96207700D01*
X170652600Y-96207700D02*
X169527300Y-97333000D01*
X205080000Y-97256600D02*
X206205300Y-97256600D01*
X217822700Y-97282000D02*
X216722800Y-98381900D01*
X216722800Y-98381900D02*
X207330600Y-98381900D01*
X207330600Y-98381900D02*
X206205300Y-97256600D01*
X204517400Y-97256600D02*
X205080000Y-97256600D01*
X204517400Y-97256600D02*
X203954700Y-97256600D01*
X193650000Y-97256600D02*
X194775300Y-97256600D01*
X203954700Y-97256600D02*
X202829400Y-98381900D01*
X202829400Y-98381900D02*
X195900600Y-98381900D01*
X195900600Y-98381900D02*
X194775300Y-97256600D01*
X190999500Y-55971400D02*
X193968800Y-53002100D01*
X193968800Y-53002100D02*
X204860400Y-53002100D01*
X232940900Y-54199800D02*
X230976600Y-52235500D01*
X230976600Y-52235500D02*
X219294500Y-52235500D01*
X213776000Y-60618500D02*
X218010800Y-60618500D01*
X218010800Y-60618500D02*
X220031200Y-62638900D01*
M02*
