M48
; DRILL file {KiCad (5.1.2-1)-1} date Saturday, 18 May 2019 at 22:44:09
; FORMAT={3:3/ absolute / metric / suppress leading zeros}
; #@! TF.CreationDate,2019-05-18T22:44:09+01:00
; #@! TF.GenerationSoftware,Kicad,Pcbnew,(5.1.2-1)-1
FMAT,2
METRIC,TZ
T1C0.400
T2C0.800
%
G90
G05
T1
X171307Y-83218
X177821Y-74863
X182830Y-63186
X185649Y-69861
X187347Y-67291
X187504Y-58031
X188056Y-64849
X188817Y-56547
X190362Y-59067
X195131Y-75780
X200005Y-56354
X203431Y-67593
X204476Y-66505
X205629Y-68771
X206287Y-71719
X208496Y-64197
X208719Y-65810
X208911Y-58141
X209067Y-72447
X209386Y-65063
X209629Y-61386
X211050Y-64064
X214661Y-60480
X215988Y-58392
X216884Y-58910
X217104Y-60902
X220679Y-60122
X222713Y-58600
X223653Y-68787
X224754Y-54768
X226169Y-56119
X226231Y-54196
X228144Y-76070
X228794Y-62634
X228910Y-55951
X229540Y-54204
X229762Y-65499
X230260Y-61574
X230866Y-68207
X230921Y-62627
X231119Y-54197
X231350Y-65373
X232200Y-54213
X235177Y-54362
X236200Y-54196
X237058Y-65903
X237539Y-54111
X237603Y-67563
X237967Y-64701
T2
X179832Y-74473
X179832Y-77013
X179832Y-79553
X179832Y-82093
X179832Y-84633
X179832Y-87173
X179832Y-89713
X179832Y-92253
X179832Y-94793
X179832Y-97333
X187452Y-74473
X187452Y-77013
X187452Y-79553
X187452Y-82093
X187452Y-84633
X187452Y-87173
X187452Y-89713
X187452Y-92253
X187452Y-94793
X187452Y-97333
X218948Y-74422
X218948Y-76962
X218948Y-79502
X218948Y-82042
X218948Y-84582
X218948Y-87122
X218948Y-89662
X218948Y-92202
X218948Y-94742
X218948Y-97282
X226568Y-74422
X226568Y-76962
X226568Y-79502
X226568Y-82042
X226568Y-84582
X226568Y-87122
X226568Y-89662
X226568Y-92202
X226568Y-94742
X226568Y-97282
X193650Y-74397
X193650Y-76937
X193650Y-79477
X193650Y-82017
X193650Y-84557
X193650Y-87097
X193650Y-89637
X193650Y-92177
X193650Y-94717
X193650Y-97257
X201270Y-74397
X201270Y-76937
X201270Y-79477
X201270Y-82017
X201270Y-84557
X201270Y-87097
X201270Y-89637
X201270Y-92177
X201270Y-94717
X201270Y-97257
X154432Y-74473
X154432Y-77013
X154432Y-79553
X154432Y-82093
X154432Y-84633
X154432Y-87173
X154432Y-89713
X154432Y-92253
X154432Y-94793
X154432Y-97333
X162052Y-74473
X162052Y-77013
X162052Y-79553
X162052Y-82093
X162052Y-84633
X162052Y-87173
X162052Y-89713
X162052Y-92253
X162052Y-94793
X162052Y-97333
X168402Y-74473
X168402Y-77013
X168402Y-79553
X168402Y-82093
X168402Y-84633
X168402Y-87173
X168402Y-89713
X168402Y-92253
X168402Y-94793
X168402Y-97333
X176022Y-74473
X176022Y-77013
X176022Y-79553
X176022Y-82093
X176022Y-84633
X176022Y-87173
X176022Y-89713
X176022Y-92253
X176022Y-94793
X176022Y-97333
X205080Y-74397
X205080Y-76937
X205080Y-79477
X205080Y-82017
X205080Y-84557
X205080Y-87097
X205080Y-89637
X205080Y-92177
X205080Y-94717
X205080Y-97257
X212700Y-74397
X212700Y-76937
X212700Y-79477
X212700Y-82017
X212700Y-84557
X212700Y-87097
X212700Y-89637
X212700Y-92177
X212700Y-94717
X212700Y-97257
X230378Y-74422
X230378Y-76962
X230378Y-79502
X230378Y-82042
X230378Y-84582
X230378Y-87122
X230378Y-89662
X230378Y-92202
X230378Y-94742
X230378Y-97282
X237998Y-74422
X237998Y-76962
X237998Y-79502
X237998Y-82042
X237998Y-84582
X237998Y-87122
X237998Y-89662
X237998Y-92202
X237998Y-94742
X237998Y-97282
X143002Y-74473
X143002Y-77013
X143002Y-79553
X143002Y-82093
X143002Y-84633
X143002Y-87173
X143002Y-89713
X143002Y-92253
X143002Y-94793
X143002Y-97333
X150622Y-74473
X150622Y-77013
X150622Y-79553
X150622Y-82093
X150622Y-84633
X150622Y-87173
X150622Y-89713
X150622Y-92253
X150622Y-94793
X150622Y-97333
T0
M30
