M48
; DRILL file {KiCad (5.1.2-1)-1} date Thursday, 06 June 2019 at 20:45:45
; FORMAT={3:3/ absolute / metric / suppress leading zeros}
; #@! TF.CreationDate,2019-06-06T20:45:45+01:00
; #@! TF.GenerationSoftware,Kicad,Pcbnew,(5.1.2-1)-1
FMAT,2
METRIC,TZ
T1C0.300
T2C0.400
T3C0.800
T4C1.000
%
G90
G05
T1
X155544Y-93294
X156422Y-93314
X159323Y-94129
X163790Y-86297
X165680Y-93352
X168634Y-87277
X168729Y-90271
X168891Y-88727
X169227Y-97083
X170253Y-87094
X171357Y-87026
X173844Y-86807
X173864Y-93909
X174643Y-94597
X174644Y-86562
X174722Y-91176
X174828Y-89925
X175059Y-93259
X177634Y-84752
X178169Y-89018
X178528Y-79434
X178590Y-94031
X178776Y-80670
X178994Y-97741
X179522Y-88588
X179576Y-79507
X179576Y-80358
X179891Y-84881
X180364Y-90897
X180612Y-83889
X180649Y-81054
X180883Y-86544
X181324Y-96254
X181998Y-84039
X182085Y-96695
X183320Y-95592
X183886Y-96172
X185869Y-95413
X186258Y-83944
X186270Y-93453
X189642Y-84485
X189904Y-93970
X190547Y-82322
X190704Y-93519
X191245Y-83421
X191505Y-93069
X192266Y-83871
X193077Y-84211
X194104Y-87573
X194820Y-84563
X195164Y-88024
X195403Y-96203
X196053Y-95578
X196185Y-87567
X197528Y-85025
X197626Y-96140
X197820Y-92166
X198521Y-96170
X199553Y-96166
X200461Y-97409
X202114Y-92269
X203729Y-86966
X204556Y-90287
X206058Y-85033
X207154Y-84529
X207661Y-95562
X208960Y-96177
X209343Y-84447
X209870Y-96184
X210272Y-88567
X210685Y-96076
X210706Y-83950
X211043Y-87569
X212236Y-95795
X212577Y-94321
X212694Y-95121
X213828Y-93987
X214459Y-93420
X215242Y-98755
X215325Y-91161
X216863Y-91739
X217388Y-87671
X217791Y-84506
X218433Y-98745
X220109Y-98747
X221205Y-96198
X252264Y-84455
X252461Y-81915
X252530Y-79375
X253214Y-77825
T2
X159186Y-83012
X162389Y-90459
X187725Y-87663
X187725Y-90270
X191374Y-91305
X192361Y-87924
X198838Y-77589
X209282Y-76130
X212417Y-87691
X248117Y-74295
T3
X255270Y-74930
X255270Y-77470
X255270Y-80010
X255270Y-82550
X255270Y-85090
X255270Y-87630
X255270Y-90170
X255270Y-92710
X255270Y-95250
X255270Y-97790
X262890Y-74930
X262890Y-77470
X262890Y-80010
X262890Y-82550
X262890Y-85090
X262890Y-87630
X262890Y-90170
X262890Y-92710
X262890Y-95250
X262890Y-97790
T4
X218948Y-76962
X150622Y-76962
X168402Y-77089
X212725Y-79502
X218948Y-74422
X143002Y-79502
X143002Y-92202
X143002Y-76962
X150622Y-74422
X143002Y-74422
X205105Y-76962
X150622Y-89662
X150622Y-92202
X176022Y-79502
X205080Y-74397
X226568Y-82042
X150622Y-82042
X143002Y-89662
X143002Y-97282
X168402Y-74473
X176022Y-76962
X150622Y-87122
X150622Y-97282
X212725Y-76962
X143002Y-87122
X143002Y-94742
X150622Y-79502
X226568Y-79502
X143002Y-82042
X154432Y-82042
X150622Y-94742
X226568Y-76962
T0
M30
