M48
; DRILL file {KiCad (5.1.2-1)-1} date Saturday, 25 May 2019 at 19:46:23
; FORMAT={3:3/ absolute / metric / suppress leading zeros}
; #@! TF.CreationDate,2019-05-25T19:46:23+01:00
; #@! TF.GenerationSoftware,Kicad,Pcbnew,(5.1.2-1)-1
FMAT,2
METRIC,TZ
T1C0.400
T2C0.800
T3C1.000
%
G90
G05
T1
X141698Y-100994
X153746Y-98684
X155898Y-88858
X159488Y-95212
X160073Y-98336
X163549Y-91560
X168825Y-93236
X169285Y-95608
X169557Y-92003
X170548Y-93236
X170718Y-90751
X171764Y-84201
X173729Y-94057
X174134Y-89122
X174351Y-92341
X174798Y-90107
X175110Y-94862
X175259Y-80922
X175297Y-96331
X177406Y-84254
X177440Y-89164
X177540Y-81316
X178295Y-83031
X178319Y-81951
X178559Y-98336
X178637Y-90654
X179033Y-93298
X179314Y-84197
X181963Y-86415
X182792Y-84931
X183054Y-83290
X184664Y-81354
X184786Y-78186
X185470Y-82245
X185483Y-88309
X186142Y-83706
X187165Y-82646
X187784Y-99156
X187815Y-96008
X187958Y-94688
X188892Y-81745
X189550Y-98844
X189715Y-88471
X190561Y-98837
X191317Y-99663
X191458Y-95997
X191620Y-84811
X191823Y-90864
X192197Y-89279
X193360Y-84933
X193928Y-89279
X193977Y-91180
X193999Y-96071
X194621Y-98876
X194778Y-83185
X195311Y-96089
X195955Y-84060
X196053Y-95357
X196143Y-91576
X197176Y-84260
X197763Y-89279
X198936Y-91126
X199149Y-79552
X200088Y-88936
X202514Y-96876
X202589Y-81736
X203357Y-85007
X203562Y-83009
X204060Y-86362
X204609Y-89039
X204971Y-83307
X205785Y-93676
X207145Y-93809
X208219Y-94127
X209447Y-96043
X209573Y-84839
X209767Y-75565
X210022Y-98848
X211022Y-98873
X211073Y-94648
X211242Y-84864
X211611Y-96099
X212016Y-84149
X212755Y-94355
X213434Y-84898
X213451Y-81376
X213779Y-98889
X216440Y-90243
X217153Y-93827
X217515Y-87679
X252662Y-79303
X252936Y-81969
X253105Y-76719
T2
X255270Y-74930
X255270Y-77470
X255270Y-80010
X255270Y-82550
X255270Y-85090
X255270Y-87630
X255270Y-90170
X255270Y-92710
X255270Y-95250
X255270Y-97790
X262890Y-74930
X262890Y-77470
X262890Y-80010
X262890Y-82550
X262890Y-85090
X262890Y-87630
X262890Y-90170
X262890Y-92710
X262890Y-95250
X262890Y-97790
T3
X150622Y-76962
X212725Y-79502
X143002Y-97282
X143002Y-79502
X150622Y-94742
X143002Y-92202
X150622Y-87122
X226568Y-79502
X205080Y-74397
X176022Y-76962
X143002Y-76962
X143002Y-82042
X218948Y-74422
X212725Y-76962
X226568Y-82042
X150622Y-97282
X143002Y-89662
X150622Y-89662
X150622Y-82042
X168402Y-77089
X150622Y-79502
X143002Y-74422
X226568Y-76962
X205105Y-76962
X150622Y-74422
X143002Y-87122
X150622Y-92202
X154432Y-82042
X218948Y-76962
X176022Y-79502
X168402Y-74473
X143002Y-94742
T0
M30
