M48
; DRILL file {KiCad (5.1.2-1)-1} date Sunday, 09 June 2019 at 21:32:53
; FORMAT={3:3/ absolute / metric / suppress leading zeros}
; #@! TF.CreationDate,2019-06-09T21:32:53+01:00
; #@! TF.GenerationSoftware,Kicad,Pcbnew,(5.1.2-1)-1
FMAT,2
METRIC,TZ
T1C0.300
T2C0.400
T3C0.800
T4C1.000
%
G90
G05
T1
X160150Y-75992
X160915Y-77641
X161346Y-78362
X161504Y-75208
X165195Y-78910
X165356Y-86389
X167782Y-86407
X175222Y-98109
X175654Y-98808
X175989Y-72753
X176661Y-83055
X176934Y-99053
X177599Y-83790
X179549Y-73182
X179567Y-90134
X180804Y-98742
X180841Y-84229
X181312Y-87563
X182124Y-76319
X182162Y-98741
X182302Y-80071
X182684Y-87567
X183336Y-99096
X186174Y-94320
X187634Y-78894
X187956Y-88211
X188455Y-96169
X188759Y-87918
X188898Y-84340
X189344Y-81563
X190320Y-88149
X190522Y-96116
X190892Y-81454
X191121Y-88340
X191482Y-96116
X191894Y-80382
X192132Y-85021
X193586Y-97209
X194595Y-92663
X195575Y-101080
X196036Y-91490
X197082Y-100274
X198006Y-90001
X198321Y-89201
X198561Y-98088
X198831Y-94404
X201917Y-84079
X203211Y-90918
X203959Y-94871
X204155Y-90439
X204327Y-99766
X204598Y-81574
X205185Y-98751
X205809Y-93752
X206452Y-94282
X207181Y-98794
X207539Y-96208
X209910Y-85022
X210973Y-85018
X212074Y-83499
X212249Y-84829
X213643Y-87582
X214874Y-90779
X214903Y-87570
X216868Y-90932
X251681Y-83820
X252452Y-82944
X252830Y-78754
T2
X169907Y-97233
X173201Y-76390
X174599Y-80295
X184494Y-84914
X185711Y-76780
X188316Y-82318
X212276Y-100041
X245518Y-88894
T3
X255270Y-74930
X255270Y-77470
X255270Y-80010
X255270Y-82550
X255270Y-85090
X255270Y-87630
X255270Y-90170
X255270Y-92710
X255270Y-95250
X255270Y-97790
X262890Y-74930
X262890Y-77470
X262890Y-80010
X262890Y-82550
X262890Y-85090
X262890Y-87630
X262890Y-90170
X262890Y-92710
X262890Y-95250
X262890Y-97790
T4
X168402Y-74473
X212725Y-79502
X143002Y-97282
X143002Y-79502
X143002Y-94742
X150622Y-74422
X150622Y-92202
X143002Y-82042
X143002Y-87122
X150622Y-89662
X205080Y-74397
X176022Y-76962
X226568Y-82042
X218948Y-82042
X218948Y-74422
X143002Y-74422
X212725Y-76962
X150622Y-94742
X150622Y-82042
X143002Y-89662
X143002Y-92202
X226568Y-79502
X150622Y-97282
X218948Y-76962
X168402Y-77089
X150622Y-79502
X143002Y-76962
X205105Y-76962
X226568Y-76962
X150622Y-87122
X150622Y-76962
X176022Y-79502
T0
M30
