M48
; DRILL file {KiCad (5.1.2-1)-1} date Saturday, 25 May 2019 at 20:49:54
; FORMAT={3:3/ absolute / metric / suppress leading zeros}
; #@! TF.CreationDate,2019-05-25T20:49:54+01:00
; #@! TF.GenerationSoftware,Kicad,Pcbnew,(5.1.2-1)-1
FMAT,2
METRIC,TZ
T1C0.400
T2C0.800
T3C1.000
%
G90
G05
T1
X157783Y-80381
X165187Y-89233
X168569Y-85650
X168719Y-90107
X168737Y-87753
X169527Y-83529
X171564Y-87587
X171929Y-83907
X174030Y-91660
X174103Y-95187
X174194Y-88436
X174264Y-92737
X174820Y-97727
X175517Y-96457
X178774Y-80244
X179957Y-84851
X180509Y-77470
X180707Y-76205
X182088Y-85253
X182643Y-94914
X183478Y-84894
X183657Y-94926
X184513Y-84847
X184883Y-81458
X185234Y-94285
X185262Y-95356
X185576Y-87681
X186323Y-94325
X186862Y-96082
X186900Y-83672
X188116Y-83981
X188164Y-87824
X189358Y-83991
X189378Y-87824
X189918Y-79239
X190440Y-95600
X190778Y-87674
X192462Y-83866
X193201Y-98877
X193798Y-83857
X194809Y-83902
X194815Y-98858
X195815Y-96072
X196588Y-101394
X196887Y-88754
X196896Y-87719
X196903Y-96058
X197996Y-87689
X198862Y-88515
X198933Y-98855
X199927Y-99647
X201218Y-82668
X201657Y-100666
X201729Y-88303
X202126Y-97090
X202777Y-83812
X204056Y-86052
X205376Y-94108
X205939Y-87926
X206376Y-94108
X206427Y-83793
X208151Y-84873
X209680Y-96065
X209685Y-84240
X210425Y-84923
X211360Y-84414
X211379Y-94718
X212094Y-93510
X212288Y-84913
X212589Y-95735
X212803Y-94215
X213607Y-87666
X213726Y-84709
X213804Y-94055
X214096Y-98855
X215254Y-94049
X215970Y-92636
X217173Y-96024
X221760Y-98853
X251473Y-84455
X251504Y-79184
X251574Y-81915
X253108Y-76732
T2
X255270Y-74930
X255270Y-77470
X255270Y-80010
X255270Y-82550
X255270Y-85090
X255270Y-87630
X255270Y-90170
X255270Y-92710
X255270Y-95250
X255270Y-97790
X262890Y-74930
X262890Y-77470
X262890Y-80010
X262890Y-82550
X262890Y-85090
X262890Y-87630
X262890Y-90170
X262890Y-92710
X262890Y-95250
X262890Y-97790
T3
X150622Y-79502
X143002Y-74422
X226568Y-76962
X205105Y-76962
X150622Y-74422
X143002Y-87122
X150622Y-92202
X154432Y-82042
X218948Y-76962
X176022Y-79502
X168402Y-74473
X143002Y-94742
X150622Y-76962
X212725Y-79502
X143002Y-97282
X143002Y-79502
X150622Y-94742
X143002Y-92202
X150622Y-87122
X226568Y-79502
X205080Y-74397
X176022Y-76962
X143002Y-76962
X143002Y-82042
X218948Y-74422
X212725Y-76962
X226568Y-82042
X150622Y-97282
X143002Y-89662
X150622Y-89662
X150622Y-82042
X168402Y-77089
T0
M30
