G04 #@! TF.GenerationSoftware,KiCad,Pcbnew,(5.1.2-1)-1*
G04 #@! TF.CreationDate,2019-06-06T20:45:53+01:00*
G04 #@! TF.ProjectId,SRAM Board 2MB,5352414d-2042-46f6-9172-6420324d422e,rev?*
G04 #@! TF.SameCoordinates,Original*
G04 #@! TF.FileFunction,Copper,L2,Bot*
G04 #@! TF.FilePolarity,Positive*
%FSLAX46Y46*%
G04 Gerber Fmt 4.6, Leading zero omitted, Abs format (unit mm)*
G04 Created by KiCad (PCBNEW (5.1.2-1)-1) date 2019-06-06 20:45:53*
%MOMM*%
%LPD*%
G04 APERTURE LIST*
%ADD10C,0.100000*%
%ADD11C,1.600000*%
%ADD12O,2.400000X1.600000*%
%ADD13R,2.400000X1.600000*%
%ADD14C,0.600000*%
%ADD15C,0.800000*%
%ADD16C,0.250000*%
%ADD17C,0.381000*%
%ADD18C,0.254000*%
G04 APERTURE END LIST*
D10*
G36*
X151241603Y-96482963D02*
G01*
X151261018Y-96485843D01*
X151280057Y-96490612D01*
X151298537Y-96497224D01*
X151316279Y-96505616D01*
X151333114Y-96515706D01*
X151348879Y-96527398D01*
X151363421Y-96540579D01*
X151376602Y-96555121D01*
X151388294Y-96570886D01*
X151398384Y-96587721D01*
X151406776Y-96605463D01*
X151413388Y-96623943D01*
X151418157Y-96642982D01*
X151421037Y-96662397D01*
X151422000Y-96682000D01*
X151422000Y-97882000D01*
X151421037Y-97901603D01*
X151418157Y-97921018D01*
X151413388Y-97940057D01*
X151406776Y-97958537D01*
X151398384Y-97976279D01*
X151388294Y-97993114D01*
X151376602Y-98008879D01*
X151363421Y-98023421D01*
X151348879Y-98036602D01*
X151333114Y-98048294D01*
X151316279Y-98058384D01*
X151298537Y-98066776D01*
X151280057Y-98073388D01*
X151261018Y-98078157D01*
X151241603Y-98081037D01*
X151222000Y-98082000D01*
X150022000Y-98082000D01*
X150002397Y-98081037D01*
X149982982Y-98078157D01*
X149963943Y-98073388D01*
X149945463Y-98066776D01*
X149927721Y-98058384D01*
X149910886Y-98048294D01*
X149895121Y-98036602D01*
X149880579Y-98023421D01*
X149867398Y-98008879D01*
X149855706Y-97993114D01*
X149845616Y-97976279D01*
X149837224Y-97958537D01*
X149830612Y-97940057D01*
X149825843Y-97921018D01*
X149822963Y-97901603D01*
X149822000Y-97882000D01*
X149822000Y-96682000D01*
X149822963Y-96662397D01*
X149825843Y-96642982D01*
X149830612Y-96623943D01*
X149837224Y-96605463D01*
X149845616Y-96587721D01*
X149855706Y-96570886D01*
X149867398Y-96555121D01*
X149880579Y-96540579D01*
X149895121Y-96527398D01*
X149910886Y-96515706D01*
X149927721Y-96505616D01*
X149945463Y-96497224D01*
X149963943Y-96490612D01*
X149982982Y-96485843D01*
X150002397Y-96482963D01*
X150022000Y-96482000D01*
X151222000Y-96482000D01*
X151241603Y-96482963D01*
X151241603Y-96482963D01*
G37*
D11*
X150622000Y-97282000D03*
D10*
G36*
X151241603Y-93942963D02*
G01*
X151261018Y-93945843D01*
X151280057Y-93950612D01*
X151298537Y-93957224D01*
X151316279Y-93965616D01*
X151333114Y-93975706D01*
X151348879Y-93987398D01*
X151363421Y-94000579D01*
X151376602Y-94015121D01*
X151388294Y-94030886D01*
X151398384Y-94047721D01*
X151406776Y-94065463D01*
X151413388Y-94083943D01*
X151418157Y-94102982D01*
X151421037Y-94122397D01*
X151422000Y-94142000D01*
X151422000Y-95342000D01*
X151421037Y-95361603D01*
X151418157Y-95381018D01*
X151413388Y-95400057D01*
X151406776Y-95418537D01*
X151398384Y-95436279D01*
X151388294Y-95453114D01*
X151376602Y-95468879D01*
X151363421Y-95483421D01*
X151348879Y-95496602D01*
X151333114Y-95508294D01*
X151316279Y-95518384D01*
X151298537Y-95526776D01*
X151280057Y-95533388D01*
X151261018Y-95538157D01*
X151241603Y-95541037D01*
X151222000Y-95542000D01*
X150022000Y-95542000D01*
X150002397Y-95541037D01*
X149982982Y-95538157D01*
X149963943Y-95533388D01*
X149945463Y-95526776D01*
X149927721Y-95518384D01*
X149910886Y-95508294D01*
X149895121Y-95496602D01*
X149880579Y-95483421D01*
X149867398Y-95468879D01*
X149855706Y-95453114D01*
X149845616Y-95436279D01*
X149837224Y-95418537D01*
X149830612Y-95400057D01*
X149825843Y-95381018D01*
X149822963Y-95361603D01*
X149822000Y-95342000D01*
X149822000Y-94142000D01*
X149822963Y-94122397D01*
X149825843Y-94102982D01*
X149830612Y-94083943D01*
X149837224Y-94065463D01*
X149845616Y-94047721D01*
X149855706Y-94030886D01*
X149867398Y-94015121D01*
X149880579Y-94000579D01*
X149895121Y-93987398D01*
X149910886Y-93975706D01*
X149927721Y-93965616D01*
X149945463Y-93957224D01*
X149963943Y-93950612D01*
X149982982Y-93945843D01*
X150002397Y-93942963D01*
X150022000Y-93942000D01*
X151222000Y-93942000D01*
X151241603Y-93942963D01*
X151241603Y-93942963D01*
G37*
D11*
X150622000Y-94742000D03*
D10*
G36*
X151241603Y-91402963D02*
G01*
X151261018Y-91405843D01*
X151280057Y-91410612D01*
X151298537Y-91417224D01*
X151316279Y-91425616D01*
X151333114Y-91435706D01*
X151348879Y-91447398D01*
X151363421Y-91460579D01*
X151376602Y-91475121D01*
X151388294Y-91490886D01*
X151398384Y-91507721D01*
X151406776Y-91525463D01*
X151413388Y-91543943D01*
X151418157Y-91562982D01*
X151421037Y-91582397D01*
X151422000Y-91602000D01*
X151422000Y-92802000D01*
X151421037Y-92821603D01*
X151418157Y-92841018D01*
X151413388Y-92860057D01*
X151406776Y-92878537D01*
X151398384Y-92896279D01*
X151388294Y-92913114D01*
X151376602Y-92928879D01*
X151363421Y-92943421D01*
X151348879Y-92956602D01*
X151333114Y-92968294D01*
X151316279Y-92978384D01*
X151298537Y-92986776D01*
X151280057Y-92993388D01*
X151261018Y-92998157D01*
X151241603Y-93001037D01*
X151222000Y-93002000D01*
X150022000Y-93002000D01*
X150002397Y-93001037D01*
X149982982Y-92998157D01*
X149963943Y-92993388D01*
X149945463Y-92986776D01*
X149927721Y-92978384D01*
X149910886Y-92968294D01*
X149895121Y-92956602D01*
X149880579Y-92943421D01*
X149867398Y-92928879D01*
X149855706Y-92913114D01*
X149845616Y-92896279D01*
X149837224Y-92878537D01*
X149830612Y-92860057D01*
X149825843Y-92841018D01*
X149822963Y-92821603D01*
X149822000Y-92802000D01*
X149822000Y-91602000D01*
X149822963Y-91582397D01*
X149825843Y-91562982D01*
X149830612Y-91543943D01*
X149837224Y-91525463D01*
X149845616Y-91507721D01*
X149855706Y-91490886D01*
X149867398Y-91475121D01*
X149880579Y-91460579D01*
X149895121Y-91447398D01*
X149910886Y-91435706D01*
X149927721Y-91425616D01*
X149945463Y-91417224D01*
X149963943Y-91410612D01*
X149982982Y-91405843D01*
X150002397Y-91402963D01*
X150022000Y-91402000D01*
X151222000Y-91402000D01*
X151241603Y-91402963D01*
X151241603Y-91402963D01*
G37*
D11*
X150622000Y-92202000D03*
D10*
G36*
X151241603Y-88862963D02*
G01*
X151261018Y-88865843D01*
X151280057Y-88870612D01*
X151298537Y-88877224D01*
X151316279Y-88885616D01*
X151333114Y-88895706D01*
X151348879Y-88907398D01*
X151363421Y-88920579D01*
X151376602Y-88935121D01*
X151388294Y-88950886D01*
X151398384Y-88967721D01*
X151406776Y-88985463D01*
X151413388Y-89003943D01*
X151418157Y-89022982D01*
X151421037Y-89042397D01*
X151422000Y-89062000D01*
X151422000Y-90262000D01*
X151421037Y-90281603D01*
X151418157Y-90301018D01*
X151413388Y-90320057D01*
X151406776Y-90338537D01*
X151398384Y-90356279D01*
X151388294Y-90373114D01*
X151376602Y-90388879D01*
X151363421Y-90403421D01*
X151348879Y-90416602D01*
X151333114Y-90428294D01*
X151316279Y-90438384D01*
X151298537Y-90446776D01*
X151280057Y-90453388D01*
X151261018Y-90458157D01*
X151241603Y-90461037D01*
X151222000Y-90462000D01*
X150022000Y-90462000D01*
X150002397Y-90461037D01*
X149982982Y-90458157D01*
X149963943Y-90453388D01*
X149945463Y-90446776D01*
X149927721Y-90438384D01*
X149910886Y-90428294D01*
X149895121Y-90416602D01*
X149880579Y-90403421D01*
X149867398Y-90388879D01*
X149855706Y-90373114D01*
X149845616Y-90356279D01*
X149837224Y-90338537D01*
X149830612Y-90320057D01*
X149825843Y-90301018D01*
X149822963Y-90281603D01*
X149822000Y-90262000D01*
X149822000Y-89062000D01*
X149822963Y-89042397D01*
X149825843Y-89022982D01*
X149830612Y-89003943D01*
X149837224Y-88985463D01*
X149845616Y-88967721D01*
X149855706Y-88950886D01*
X149867398Y-88935121D01*
X149880579Y-88920579D01*
X149895121Y-88907398D01*
X149910886Y-88895706D01*
X149927721Y-88885616D01*
X149945463Y-88877224D01*
X149963943Y-88870612D01*
X149982982Y-88865843D01*
X150002397Y-88862963D01*
X150022000Y-88862000D01*
X151222000Y-88862000D01*
X151241603Y-88862963D01*
X151241603Y-88862963D01*
G37*
D11*
X150622000Y-89662000D03*
D10*
G36*
X151241603Y-86322963D02*
G01*
X151261018Y-86325843D01*
X151280057Y-86330612D01*
X151298537Y-86337224D01*
X151316279Y-86345616D01*
X151333114Y-86355706D01*
X151348879Y-86367398D01*
X151363421Y-86380579D01*
X151376602Y-86395121D01*
X151388294Y-86410886D01*
X151398384Y-86427721D01*
X151406776Y-86445463D01*
X151413388Y-86463943D01*
X151418157Y-86482982D01*
X151421037Y-86502397D01*
X151422000Y-86522000D01*
X151422000Y-87722000D01*
X151421037Y-87741603D01*
X151418157Y-87761018D01*
X151413388Y-87780057D01*
X151406776Y-87798537D01*
X151398384Y-87816279D01*
X151388294Y-87833114D01*
X151376602Y-87848879D01*
X151363421Y-87863421D01*
X151348879Y-87876602D01*
X151333114Y-87888294D01*
X151316279Y-87898384D01*
X151298537Y-87906776D01*
X151280057Y-87913388D01*
X151261018Y-87918157D01*
X151241603Y-87921037D01*
X151222000Y-87922000D01*
X150022000Y-87922000D01*
X150002397Y-87921037D01*
X149982982Y-87918157D01*
X149963943Y-87913388D01*
X149945463Y-87906776D01*
X149927721Y-87898384D01*
X149910886Y-87888294D01*
X149895121Y-87876602D01*
X149880579Y-87863421D01*
X149867398Y-87848879D01*
X149855706Y-87833114D01*
X149845616Y-87816279D01*
X149837224Y-87798537D01*
X149830612Y-87780057D01*
X149825843Y-87761018D01*
X149822963Y-87741603D01*
X149822000Y-87722000D01*
X149822000Y-86522000D01*
X149822963Y-86502397D01*
X149825843Y-86482982D01*
X149830612Y-86463943D01*
X149837224Y-86445463D01*
X149845616Y-86427721D01*
X149855706Y-86410886D01*
X149867398Y-86395121D01*
X149880579Y-86380579D01*
X149895121Y-86367398D01*
X149910886Y-86355706D01*
X149927721Y-86345616D01*
X149945463Y-86337224D01*
X149963943Y-86330612D01*
X149982982Y-86325843D01*
X150002397Y-86322963D01*
X150022000Y-86322000D01*
X151222000Y-86322000D01*
X151241603Y-86322963D01*
X151241603Y-86322963D01*
G37*
D11*
X150622000Y-87122000D03*
D10*
G36*
X155051603Y-81242963D02*
G01*
X155071018Y-81245843D01*
X155090057Y-81250612D01*
X155108537Y-81257224D01*
X155126279Y-81265616D01*
X155143114Y-81275706D01*
X155158879Y-81287398D01*
X155173421Y-81300579D01*
X155186602Y-81315121D01*
X155198294Y-81330886D01*
X155208384Y-81347721D01*
X155216776Y-81365463D01*
X155223388Y-81383943D01*
X155228157Y-81402982D01*
X155231037Y-81422397D01*
X155232000Y-81442000D01*
X155232000Y-82642000D01*
X155231037Y-82661603D01*
X155228157Y-82681018D01*
X155223388Y-82700057D01*
X155216776Y-82718537D01*
X155208384Y-82736279D01*
X155198294Y-82753114D01*
X155186602Y-82768879D01*
X155173421Y-82783421D01*
X155158879Y-82796602D01*
X155143114Y-82808294D01*
X155126279Y-82818384D01*
X155108537Y-82826776D01*
X155090057Y-82833388D01*
X155071018Y-82838157D01*
X155051603Y-82841037D01*
X155032000Y-82842000D01*
X153832000Y-82842000D01*
X153812397Y-82841037D01*
X153792982Y-82838157D01*
X153773943Y-82833388D01*
X153755463Y-82826776D01*
X153737721Y-82818384D01*
X153720886Y-82808294D01*
X153705121Y-82796602D01*
X153690579Y-82783421D01*
X153677398Y-82768879D01*
X153665706Y-82753114D01*
X153655616Y-82736279D01*
X153647224Y-82718537D01*
X153640612Y-82700057D01*
X153635843Y-82681018D01*
X153632963Y-82661603D01*
X153632000Y-82642000D01*
X153632000Y-81442000D01*
X153632963Y-81422397D01*
X153635843Y-81402982D01*
X153640612Y-81383943D01*
X153647224Y-81365463D01*
X153655616Y-81347721D01*
X153665706Y-81330886D01*
X153677398Y-81315121D01*
X153690579Y-81300579D01*
X153705121Y-81287398D01*
X153720886Y-81275706D01*
X153737721Y-81265616D01*
X153755463Y-81257224D01*
X153773943Y-81250612D01*
X153792982Y-81245843D01*
X153812397Y-81242963D01*
X153832000Y-81242000D01*
X155032000Y-81242000D01*
X155051603Y-81242963D01*
X155051603Y-81242963D01*
G37*
D11*
X154432000Y-82042000D03*
D10*
G36*
X151241603Y-81242963D02*
G01*
X151261018Y-81245843D01*
X151280057Y-81250612D01*
X151298537Y-81257224D01*
X151316279Y-81265616D01*
X151333114Y-81275706D01*
X151348879Y-81287398D01*
X151363421Y-81300579D01*
X151376602Y-81315121D01*
X151388294Y-81330886D01*
X151398384Y-81347721D01*
X151406776Y-81365463D01*
X151413388Y-81383943D01*
X151418157Y-81402982D01*
X151421037Y-81422397D01*
X151422000Y-81442000D01*
X151422000Y-82642000D01*
X151421037Y-82661603D01*
X151418157Y-82681018D01*
X151413388Y-82700057D01*
X151406776Y-82718537D01*
X151398384Y-82736279D01*
X151388294Y-82753114D01*
X151376602Y-82768879D01*
X151363421Y-82783421D01*
X151348879Y-82796602D01*
X151333114Y-82808294D01*
X151316279Y-82818384D01*
X151298537Y-82826776D01*
X151280057Y-82833388D01*
X151261018Y-82838157D01*
X151241603Y-82841037D01*
X151222000Y-82842000D01*
X150022000Y-82842000D01*
X150002397Y-82841037D01*
X149982982Y-82838157D01*
X149963943Y-82833388D01*
X149945463Y-82826776D01*
X149927721Y-82818384D01*
X149910886Y-82808294D01*
X149895121Y-82796602D01*
X149880579Y-82783421D01*
X149867398Y-82768879D01*
X149855706Y-82753114D01*
X149845616Y-82736279D01*
X149837224Y-82718537D01*
X149830612Y-82700057D01*
X149825843Y-82681018D01*
X149822963Y-82661603D01*
X149822000Y-82642000D01*
X149822000Y-81442000D01*
X149822963Y-81422397D01*
X149825843Y-81402982D01*
X149830612Y-81383943D01*
X149837224Y-81365463D01*
X149845616Y-81347721D01*
X149855706Y-81330886D01*
X149867398Y-81315121D01*
X149880579Y-81300579D01*
X149895121Y-81287398D01*
X149910886Y-81275706D01*
X149927721Y-81265616D01*
X149945463Y-81257224D01*
X149963943Y-81250612D01*
X149982982Y-81245843D01*
X150002397Y-81242963D01*
X150022000Y-81242000D01*
X151222000Y-81242000D01*
X151241603Y-81242963D01*
X151241603Y-81242963D01*
G37*
D11*
X150622000Y-82042000D03*
D10*
G36*
X227187603Y-78702963D02*
G01*
X227207018Y-78705843D01*
X227226057Y-78710612D01*
X227244537Y-78717224D01*
X227262279Y-78725616D01*
X227279114Y-78735706D01*
X227294879Y-78747398D01*
X227309421Y-78760579D01*
X227322602Y-78775121D01*
X227334294Y-78790886D01*
X227344384Y-78807721D01*
X227352776Y-78825463D01*
X227359388Y-78843943D01*
X227364157Y-78862982D01*
X227367037Y-78882397D01*
X227368000Y-78902000D01*
X227368000Y-80102000D01*
X227367037Y-80121603D01*
X227364157Y-80141018D01*
X227359388Y-80160057D01*
X227352776Y-80178537D01*
X227344384Y-80196279D01*
X227334294Y-80213114D01*
X227322602Y-80228879D01*
X227309421Y-80243421D01*
X227294879Y-80256602D01*
X227279114Y-80268294D01*
X227262279Y-80278384D01*
X227244537Y-80286776D01*
X227226057Y-80293388D01*
X227207018Y-80298157D01*
X227187603Y-80301037D01*
X227168000Y-80302000D01*
X225968000Y-80302000D01*
X225948397Y-80301037D01*
X225928982Y-80298157D01*
X225909943Y-80293388D01*
X225891463Y-80286776D01*
X225873721Y-80278384D01*
X225856886Y-80268294D01*
X225841121Y-80256602D01*
X225826579Y-80243421D01*
X225813398Y-80228879D01*
X225801706Y-80213114D01*
X225791616Y-80196279D01*
X225783224Y-80178537D01*
X225776612Y-80160057D01*
X225771843Y-80141018D01*
X225768963Y-80121603D01*
X225768000Y-80102000D01*
X225768000Y-78902000D01*
X225768963Y-78882397D01*
X225771843Y-78862982D01*
X225776612Y-78843943D01*
X225783224Y-78825463D01*
X225791616Y-78807721D01*
X225801706Y-78790886D01*
X225813398Y-78775121D01*
X225826579Y-78760579D01*
X225841121Y-78747398D01*
X225856886Y-78735706D01*
X225873721Y-78725616D01*
X225891463Y-78717224D01*
X225909943Y-78710612D01*
X225928982Y-78705843D01*
X225948397Y-78702963D01*
X225968000Y-78702000D01*
X227168000Y-78702000D01*
X227187603Y-78702963D01*
X227187603Y-78702963D01*
G37*
D11*
X226568000Y-79502000D03*
D10*
G36*
X219567603Y-76162963D02*
G01*
X219587018Y-76165843D01*
X219606057Y-76170612D01*
X219624537Y-76177224D01*
X219642279Y-76185616D01*
X219659114Y-76195706D01*
X219674879Y-76207398D01*
X219689421Y-76220579D01*
X219702602Y-76235121D01*
X219714294Y-76250886D01*
X219724384Y-76267721D01*
X219732776Y-76285463D01*
X219739388Y-76303943D01*
X219744157Y-76322982D01*
X219747037Y-76342397D01*
X219748000Y-76362000D01*
X219748000Y-77562000D01*
X219747037Y-77581603D01*
X219744157Y-77601018D01*
X219739388Y-77620057D01*
X219732776Y-77638537D01*
X219724384Y-77656279D01*
X219714294Y-77673114D01*
X219702602Y-77688879D01*
X219689421Y-77703421D01*
X219674879Y-77716602D01*
X219659114Y-77728294D01*
X219642279Y-77738384D01*
X219624537Y-77746776D01*
X219606057Y-77753388D01*
X219587018Y-77758157D01*
X219567603Y-77761037D01*
X219548000Y-77762000D01*
X218348000Y-77762000D01*
X218328397Y-77761037D01*
X218308982Y-77758157D01*
X218289943Y-77753388D01*
X218271463Y-77746776D01*
X218253721Y-77738384D01*
X218236886Y-77728294D01*
X218221121Y-77716602D01*
X218206579Y-77703421D01*
X218193398Y-77688879D01*
X218181706Y-77673114D01*
X218171616Y-77656279D01*
X218163224Y-77638537D01*
X218156612Y-77620057D01*
X218151843Y-77601018D01*
X218148963Y-77581603D01*
X218148000Y-77562000D01*
X218148000Y-76362000D01*
X218148963Y-76342397D01*
X218151843Y-76322982D01*
X218156612Y-76303943D01*
X218163224Y-76285463D01*
X218171616Y-76267721D01*
X218181706Y-76250886D01*
X218193398Y-76235121D01*
X218206579Y-76220579D01*
X218221121Y-76207398D01*
X218236886Y-76195706D01*
X218253721Y-76185616D01*
X218271463Y-76177224D01*
X218289943Y-76170612D01*
X218308982Y-76165843D01*
X218328397Y-76162963D01*
X218348000Y-76162000D01*
X219548000Y-76162000D01*
X219567603Y-76162963D01*
X219567603Y-76162963D01*
G37*
D11*
X218948000Y-76962000D03*
D10*
G36*
X227187603Y-76162963D02*
G01*
X227207018Y-76165843D01*
X227226057Y-76170612D01*
X227244537Y-76177224D01*
X227262279Y-76185616D01*
X227279114Y-76195706D01*
X227294879Y-76207398D01*
X227309421Y-76220579D01*
X227322602Y-76235121D01*
X227334294Y-76250886D01*
X227344384Y-76267721D01*
X227352776Y-76285463D01*
X227359388Y-76303943D01*
X227364157Y-76322982D01*
X227367037Y-76342397D01*
X227368000Y-76362000D01*
X227368000Y-77562000D01*
X227367037Y-77581603D01*
X227364157Y-77601018D01*
X227359388Y-77620057D01*
X227352776Y-77638537D01*
X227344384Y-77656279D01*
X227334294Y-77673114D01*
X227322602Y-77688879D01*
X227309421Y-77703421D01*
X227294879Y-77716602D01*
X227279114Y-77728294D01*
X227262279Y-77738384D01*
X227244537Y-77746776D01*
X227226057Y-77753388D01*
X227207018Y-77758157D01*
X227187603Y-77761037D01*
X227168000Y-77762000D01*
X225968000Y-77762000D01*
X225948397Y-77761037D01*
X225928982Y-77758157D01*
X225909943Y-77753388D01*
X225891463Y-77746776D01*
X225873721Y-77738384D01*
X225856886Y-77728294D01*
X225841121Y-77716602D01*
X225826579Y-77703421D01*
X225813398Y-77688879D01*
X225801706Y-77673114D01*
X225791616Y-77656279D01*
X225783224Y-77638537D01*
X225776612Y-77620057D01*
X225771843Y-77601018D01*
X225768963Y-77581603D01*
X225768000Y-77562000D01*
X225768000Y-76362000D01*
X225768963Y-76342397D01*
X225771843Y-76322982D01*
X225776612Y-76303943D01*
X225783224Y-76285463D01*
X225791616Y-76267721D01*
X225801706Y-76250886D01*
X225813398Y-76235121D01*
X225826579Y-76220579D01*
X225841121Y-76207398D01*
X225856886Y-76195706D01*
X225873721Y-76185616D01*
X225891463Y-76177224D01*
X225909943Y-76170612D01*
X225928982Y-76165843D01*
X225948397Y-76162963D01*
X225968000Y-76162000D01*
X227168000Y-76162000D01*
X227187603Y-76162963D01*
X227187603Y-76162963D01*
G37*
D11*
X226568000Y-76962000D03*
D10*
G36*
X219567603Y-73622963D02*
G01*
X219587018Y-73625843D01*
X219606057Y-73630612D01*
X219624537Y-73637224D01*
X219642279Y-73645616D01*
X219659114Y-73655706D01*
X219674879Y-73667398D01*
X219689421Y-73680579D01*
X219702602Y-73695121D01*
X219714294Y-73710886D01*
X219724384Y-73727721D01*
X219732776Y-73745463D01*
X219739388Y-73763943D01*
X219744157Y-73782982D01*
X219747037Y-73802397D01*
X219748000Y-73822000D01*
X219748000Y-75022000D01*
X219747037Y-75041603D01*
X219744157Y-75061018D01*
X219739388Y-75080057D01*
X219732776Y-75098537D01*
X219724384Y-75116279D01*
X219714294Y-75133114D01*
X219702602Y-75148879D01*
X219689421Y-75163421D01*
X219674879Y-75176602D01*
X219659114Y-75188294D01*
X219642279Y-75198384D01*
X219624537Y-75206776D01*
X219606057Y-75213388D01*
X219587018Y-75218157D01*
X219567603Y-75221037D01*
X219548000Y-75222000D01*
X218348000Y-75222000D01*
X218328397Y-75221037D01*
X218308982Y-75218157D01*
X218289943Y-75213388D01*
X218271463Y-75206776D01*
X218253721Y-75198384D01*
X218236886Y-75188294D01*
X218221121Y-75176602D01*
X218206579Y-75163421D01*
X218193398Y-75148879D01*
X218181706Y-75133114D01*
X218171616Y-75116279D01*
X218163224Y-75098537D01*
X218156612Y-75080057D01*
X218151843Y-75061018D01*
X218148963Y-75041603D01*
X218148000Y-75022000D01*
X218148000Y-73822000D01*
X218148963Y-73802397D01*
X218151843Y-73782982D01*
X218156612Y-73763943D01*
X218163224Y-73745463D01*
X218171616Y-73727721D01*
X218181706Y-73710886D01*
X218193398Y-73695121D01*
X218206579Y-73680579D01*
X218221121Y-73667398D01*
X218236886Y-73655706D01*
X218253721Y-73645616D01*
X218271463Y-73637224D01*
X218289943Y-73630612D01*
X218308982Y-73625843D01*
X218328397Y-73622963D01*
X218348000Y-73622000D01*
X219548000Y-73622000D01*
X219567603Y-73622963D01*
X219567603Y-73622963D01*
G37*
D11*
X218948000Y-74422000D03*
D10*
G36*
X213344603Y-78702963D02*
G01*
X213364018Y-78705843D01*
X213383057Y-78710612D01*
X213401537Y-78717224D01*
X213419279Y-78725616D01*
X213436114Y-78735706D01*
X213451879Y-78747398D01*
X213466421Y-78760579D01*
X213479602Y-78775121D01*
X213491294Y-78790886D01*
X213501384Y-78807721D01*
X213509776Y-78825463D01*
X213516388Y-78843943D01*
X213521157Y-78862982D01*
X213524037Y-78882397D01*
X213525000Y-78902000D01*
X213525000Y-80102000D01*
X213524037Y-80121603D01*
X213521157Y-80141018D01*
X213516388Y-80160057D01*
X213509776Y-80178537D01*
X213501384Y-80196279D01*
X213491294Y-80213114D01*
X213479602Y-80228879D01*
X213466421Y-80243421D01*
X213451879Y-80256602D01*
X213436114Y-80268294D01*
X213419279Y-80278384D01*
X213401537Y-80286776D01*
X213383057Y-80293388D01*
X213364018Y-80298157D01*
X213344603Y-80301037D01*
X213325000Y-80302000D01*
X212125000Y-80302000D01*
X212105397Y-80301037D01*
X212085982Y-80298157D01*
X212066943Y-80293388D01*
X212048463Y-80286776D01*
X212030721Y-80278384D01*
X212013886Y-80268294D01*
X211998121Y-80256602D01*
X211983579Y-80243421D01*
X211970398Y-80228879D01*
X211958706Y-80213114D01*
X211948616Y-80196279D01*
X211940224Y-80178537D01*
X211933612Y-80160057D01*
X211928843Y-80141018D01*
X211925963Y-80121603D01*
X211925000Y-80102000D01*
X211925000Y-78902000D01*
X211925963Y-78882397D01*
X211928843Y-78862982D01*
X211933612Y-78843943D01*
X211940224Y-78825463D01*
X211948616Y-78807721D01*
X211958706Y-78790886D01*
X211970398Y-78775121D01*
X211983579Y-78760579D01*
X211998121Y-78747398D01*
X212013886Y-78735706D01*
X212030721Y-78725616D01*
X212048463Y-78717224D01*
X212066943Y-78710612D01*
X212085982Y-78705843D01*
X212105397Y-78702963D01*
X212125000Y-78702000D01*
X213325000Y-78702000D01*
X213344603Y-78702963D01*
X213344603Y-78702963D01*
G37*
D11*
X212725000Y-79502000D03*
D10*
G36*
X205724603Y-76162963D02*
G01*
X205744018Y-76165843D01*
X205763057Y-76170612D01*
X205781537Y-76177224D01*
X205799279Y-76185616D01*
X205816114Y-76195706D01*
X205831879Y-76207398D01*
X205846421Y-76220579D01*
X205859602Y-76235121D01*
X205871294Y-76250886D01*
X205881384Y-76267721D01*
X205889776Y-76285463D01*
X205896388Y-76303943D01*
X205901157Y-76322982D01*
X205904037Y-76342397D01*
X205905000Y-76362000D01*
X205905000Y-77562000D01*
X205904037Y-77581603D01*
X205901157Y-77601018D01*
X205896388Y-77620057D01*
X205889776Y-77638537D01*
X205881384Y-77656279D01*
X205871294Y-77673114D01*
X205859602Y-77688879D01*
X205846421Y-77703421D01*
X205831879Y-77716602D01*
X205816114Y-77728294D01*
X205799279Y-77738384D01*
X205781537Y-77746776D01*
X205763057Y-77753388D01*
X205744018Y-77758157D01*
X205724603Y-77761037D01*
X205705000Y-77762000D01*
X204505000Y-77762000D01*
X204485397Y-77761037D01*
X204465982Y-77758157D01*
X204446943Y-77753388D01*
X204428463Y-77746776D01*
X204410721Y-77738384D01*
X204393886Y-77728294D01*
X204378121Y-77716602D01*
X204363579Y-77703421D01*
X204350398Y-77688879D01*
X204338706Y-77673114D01*
X204328616Y-77656279D01*
X204320224Y-77638537D01*
X204313612Y-77620057D01*
X204308843Y-77601018D01*
X204305963Y-77581603D01*
X204305000Y-77562000D01*
X204305000Y-76362000D01*
X204305963Y-76342397D01*
X204308843Y-76322982D01*
X204313612Y-76303943D01*
X204320224Y-76285463D01*
X204328616Y-76267721D01*
X204338706Y-76250886D01*
X204350398Y-76235121D01*
X204363579Y-76220579D01*
X204378121Y-76207398D01*
X204393886Y-76195706D01*
X204410721Y-76185616D01*
X204428463Y-76177224D01*
X204446943Y-76170612D01*
X204465982Y-76165843D01*
X204485397Y-76162963D01*
X204505000Y-76162000D01*
X205705000Y-76162000D01*
X205724603Y-76162963D01*
X205724603Y-76162963D01*
G37*
D11*
X205105000Y-76962000D03*
D10*
G36*
X213344603Y-76162963D02*
G01*
X213364018Y-76165843D01*
X213383057Y-76170612D01*
X213401537Y-76177224D01*
X213419279Y-76185616D01*
X213436114Y-76195706D01*
X213451879Y-76207398D01*
X213466421Y-76220579D01*
X213479602Y-76235121D01*
X213491294Y-76250886D01*
X213501384Y-76267721D01*
X213509776Y-76285463D01*
X213516388Y-76303943D01*
X213521157Y-76322982D01*
X213524037Y-76342397D01*
X213525000Y-76362000D01*
X213525000Y-77562000D01*
X213524037Y-77581603D01*
X213521157Y-77601018D01*
X213516388Y-77620057D01*
X213509776Y-77638537D01*
X213501384Y-77656279D01*
X213491294Y-77673114D01*
X213479602Y-77688879D01*
X213466421Y-77703421D01*
X213451879Y-77716602D01*
X213436114Y-77728294D01*
X213419279Y-77738384D01*
X213401537Y-77746776D01*
X213383057Y-77753388D01*
X213364018Y-77758157D01*
X213344603Y-77761037D01*
X213325000Y-77762000D01*
X212125000Y-77762000D01*
X212105397Y-77761037D01*
X212085982Y-77758157D01*
X212066943Y-77753388D01*
X212048463Y-77746776D01*
X212030721Y-77738384D01*
X212013886Y-77728294D01*
X211998121Y-77716602D01*
X211983579Y-77703421D01*
X211970398Y-77688879D01*
X211958706Y-77673114D01*
X211948616Y-77656279D01*
X211940224Y-77638537D01*
X211933612Y-77620057D01*
X211928843Y-77601018D01*
X211925963Y-77581603D01*
X211925000Y-77562000D01*
X211925000Y-76362000D01*
X211925963Y-76342397D01*
X211928843Y-76322982D01*
X211933612Y-76303943D01*
X211940224Y-76285463D01*
X211948616Y-76267721D01*
X211958706Y-76250886D01*
X211970398Y-76235121D01*
X211983579Y-76220579D01*
X211998121Y-76207398D01*
X212013886Y-76195706D01*
X212030721Y-76185616D01*
X212048463Y-76177224D01*
X212066943Y-76170612D01*
X212085982Y-76165843D01*
X212105397Y-76162963D01*
X212125000Y-76162000D01*
X213325000Y-76162000D01*
X213344603Y-76162963D01*
X213344603Y-76162963D01*
G37*
D11*
X212725000Y-76962000D03*
D10*
G36*
X205699603Y-73597563D02*
G01*
X205719018Y-73600443D01*
X205738057Y-73605212D01*
X205756537Y-73611824D01*
X205774279Y-73620216D01*
X205791114Y-73630306D01*
X205806879Y-73641998D01*
X205821421Y-73655179D01*
X205834602Y-73669721D01*
X205846294Y-73685486D01*
X205856384Y-73702321D01*
X205864776Y-73720063D01*
X205871388Y-73738543D01*
X205876157Y-73757582D01*
X205879037Y-73776997D01*
X205880000Y-73796600D01*
X205880000Y-74996600D01*
X205879037Y-75016203D01*
X205876157Y-75035618D01*
X205871388Y-75054657D01*
X205864776Y-75073137D01*
X205856384Y-75090879D01*
X205846294Y-75107714D01*
X205834602Y-75123479D01*
X205821421Y-75138021D01*
X205806879Y-75151202D01*
X205791114Y-75162894D01*
X205774279Y-75172984D01*
X205756537Y-75181376D01*
X205738057Y-75187988D01*
X205719018Y-75192757D01*
X205699603Y-75195637D01*
X205680000Y-75196600D01*
X204480000Y-75196600D01*
X204460397Y-75195637D01*
X204440982Y-75192757D01*
X204421943Y-75187988D01*
X204403463Y-75181376D01*
X204385721Y-75172984D01*
X204368886Y-75162894D01*
X204353121Y-75151202D01*
X204338579Y-75138021D01*
X204325398Y-75123479D01*
X204313706Y-75107714D01*
X204303616Y-75090879D01*
X204295224Y-75073137D01*
X204288612Y-75054657D01*
X204283843Y-75035618D01*
X204280963Y-75016203D01*
X204280000Y-74996600D01*
X204280000Y-73796600D01*
X204280963Y-73776997D01*
X204283843Y-73757582D01*
X204288612Y-73738543D01*
X204295224Y-73720063D01*
X204303616Y-73702321D01*
X204313706Y-73685486D01*
X204325398Y-73669721D01*
X204338579Y-73655179D01*
X204353121Y-73641998D01*
X204368886Y-73630306D01*
X204385721Y-73620216D01*
X204403463Y-73611824D01*
X204421943Y-73605212D01*
X204440982Y-73600443D01*
X204460397Y-73597563D01*
X204480000Y-73596600D01*
X205680000Y-73596600D01*
X205699603Y-73597563D01*
X205699603Y-73597563D01*
G37*
D11*
X205080000Y-74396600D03*
D10*
G36*
X176641603Y-78702963D02*
G01*
X176661018Y-78705843D01*
X176680057Y-78710612D01*
X176698537Y-78717224D01*
X176716279Y-78725616D01*
X176733114Y-78735706D01*
X176748879Y-78747398D01*
X176763421Y-78760579D01*
X176776602Y-78775121D01*
X176788294Y-78790886D01*
X176798384Y-78807721D01*
X176806776Y-78825463D01*
X176813388Y-78843943D01*
X176818157Y-78862982D01*
X176821037Y-78882397D01*
X176822000Y-78902000D01*
X176822000Y-80102000D01*
X176821037Y-80121603D01*
X176818157Y-80141018D01*
X176813388Y-80160057D01*
X176806776Y-80178537D01*
X176798384Y-80196279D01*
X176788294Y-80213114D01*
X176776602Y-80228879D01*
X176763421Y-80243421D01*
X176748879Y-80256602D01*
X176733114Y-80268294D01*
X176716279Y-80278384D01*
X176698537Y-80286776D01*
X176680057Y-80293388D01*
X176661018Y-80298157D01*
X176641603Y-80301037D01*
X176622000Y-80302000D01*
X175422000Y-80302000D01*
X175402397Y-80301037D01*
X175382982Y-80298157D01*
X175363943Y-80293388D01*
X175345463Y-80286776D01*
X175327721Y-80278384D01*
X175310886Y-80268294D01*
X175295121Y-80256602D01*
X175280579Y-80243421D01*
X175267398Y-80228879D01*
X175255706Y-80213114D01*
X175245616Y-80196279D01*
X175237224Y-80178537D01*
X175230612Y-80160057D01*
X175225843Y-80141018D01*
X175222963Y-80121603D01*
X175222000Y-80102000D01*
X175222000Y-78902000D01*
X175222963Y-78882397D01*
X175225843Y-78862982D01*
X175230612Y-78843943D01*
X175237224Y-78825463D01*
X175245616Y-78807721D01*
X175255706Y-78790886D01*
X175267398Y-78775121D01*
X175280579Y-78760579D01*
X175295121Y-78747398D01*
X175310886Y-78735706D01*
X175327721Y-78725616D01*
X175345463Y-78717224D01*
X175363943Y-78710612D01*
X175382982Y-78705843D01*
X175402397Y-78702963D01*
X175422000Y-78702000D01*
X176622000Y-78702000D01*
X176641603Y-78702963D01*
X176641603Y-78702963D01*
G37*
D11*
X176022000Y-79502000D03*
D10*
G36*
X169021603Y-76289963D02*
G01*
X169041018Y-76292843D01*
X169060057Y-76297612D01*
X169078537Y-76304224D01*
X169096279Y-76312616D01*
X169113114Y-76322706D01*
X169128879Y-76334398D01*
X169143421Y-76347579D01*
X169156602Y-76362121D01*
X169168294Y-76377886D01*
X169178384Y-76394721D01*
X169186776Y-76412463D01*
X169193388Y-76430943D01*
X169198157Y-76449982D01*
X169201037Y-76469397D01*
X169202000Y-76489000D01*
X169202000Y-77689000D01*
X169201037Y-77708603D01*
X169198157Y-77728018D01*
X169193388Y-77747057D01*
X169186776Y-77765537D01*
X169178384Y-77783279D01*
X169168294Y-77800114D01*
X169156602Y-77815879D01*
X169143421Y-77830421D01*
X169128879Y-77843602D01*
X169113114Y-77855294D01*
X169096279Y-77865384D01*
X169078537Y-77873776D01*
X169060057Y-77880388D01*
X169041018Y-77885157D01*
X169021603Y-77888037D01*
X169002000Y-77889000D01*
X167802000Y-77889000D01*
X167782397Y-77888037D01*
X167762982Y-77885157D01*
X167743943Y-77880388D01*
X167725463Y-77873776D01*
X167707721Y-77865384D01*
X167690886Y-77855294D01*
X167675121Y-77843602D01*
X167660579Y-77830421D01*
X167647398Y-77815879D01*
X167635706Y-77800114D01*
X167625616Y-77783279D01*
X167617224Y-77765537D01*
X167610612Y-77747057D01*
X167605843Y-77728018D01*
X167602963Y-77708603D01*
X167602000Y-77689000D01*
X167602000Y-76489000D01*
X167602963Y-76469397D01*
X167605843Y-76449982D01*
X167610612Y-76430943D01*
X167617224Y-76412463D01*
X167625616Y-76394721D01*
X167635706Y-76377886D01*
X167647398Y-76362121D01*
X167660579Y-76347579D01*
X167675121Y-76334398D01*
X167690886Y-76322706D01*
X167707721Y-76312616D01*
X167725463Y-76304224D01*
X167743943Y-76297612D01*
X167762982Y-76292843D01*
X167782397Y-76289963D01*
X167802000Y-76289000D01*
X169002000Y-76289000D01*
X169021603Y-76289963D01*
X169021603Y-76289963D01*
G37*
D11*
X168402000Y-77089000D03*
D10*
G36*
X176641603Y-76162963D02*
G01*
X176661018Y-76165843D01*
X176680057Y-76170612D01*
X176698537Y-76177224D01*
X176716279Y-76185616D01*
X176733114Y-76195706D01*
X176748879Y-76207398D01*
X176763421Y-76220579D01*
X176776602Y-76235121D01*
X176788294Y-76250886D01*
X176798384Y-76267721D01*
X176806776Y-76285463D01*
X176813388Y-76303943D01*
X176818157Y-76322982D01*
X176821037Y-76342397D01*
X176822000Y-76362000D01*
X176822000Y-77562000D01*
X176821037Y-77581603D01*
X176818157Y-77601018D01*
X176813388Y-77620057D01*
X176806776Y-77638537D01*
X176798384Y-77656279D01*
X176788294Y-77673114D01*
X176776602Y-77688879D01*
X176763421Y-77703421D01*
X176748879Y-77716602D01*
X176733114Y-77728294D01*
X176716279Y-77738384D01*
X176698537Y-77746776D01*
X176680057Y-77753388D01*
X176661018Y-77758157D01*
X176641603Y-77761037D01*
X176622000Y-77762000D01*
X175422000Y-77762000D01*
X175402397Y-77761037D01*
X175382982Y-77758157D01*
X175363943Y-77753388D01*
X175345463Y-77746776D01*
X175327721Y-77738384D01*
X175310886Y-77728294D01*
X175295121Y-77716602D01*
X175280579Y-77703421D01*
X175267398Y-77688879D01*
X175255706Y-77673114D01*
X175245616Y-77656279D01*
X175237224Y-77638537D01*
X175230612Y-77620057D01*
X175225843Y-77601018D01*
X175222963Y-77581603D01*
X175222000Y-77562000D01*
X175222000Y-76362000D01*
X175222963Y-76342397D01*
X175225843Y-76322982D01*
X175230612Y-76303943D01*
X175237224Y-76285463D01*
X175245616Y-76267721D01*
X175255706Y-76250886D01*
X175267398Y-76235121D01*
X175280579Y-76220579D01*
X175295121Y-76207398D01*
X175310886Y-76195706D01*
X175327721Y-76185616D01*
X175345463Y-76177224D01*
X175363943Y-76170612D01*
X175382982Y-76165843D01*
X175402397Y-76162963D01*
X175422000Y-76162000D01*
X176622000Y-76162000D01*
X176641603Y-76162963D01*
X176641603Y-76162963D01*
G37*
D11*
X176022000Y-76962000D03*
D10*
G36*
X169021603Y-73673963D02*
G01*
X169041018Y-73676843D01*
X169060057Y-73681612D01*
X169078537Y-73688224D01*
X169096279Y-73696616D01*
X169113114Y-73706706D01*
X169128879Y-73718398D01*
X169143421Y-73731579D01*
X169156602Y-73746121D01*
X169168294Y-73761886D01*
X169178384Y-73778721D01*
X169186776Y-73796463D01*
X169193388Y-73814943D01*
X169198157Y-73833982D01*
X169201037Y-73853397D01*
X169202000Y-73873000D01*
X169202000Y-75073000D01*
X169201037Y-75092603D01*
X169198157Y-75112018D01*
X169193388Y-75131057D01*
X169186776Y-75149537D01*
X169178384Y-75167279D01*
X169168294Y-75184114D01*
X169156602Y-75199879D01*
X169143421Y-75214421D01*
X169128879Y-75227602D01*
X169113114Y-75239294D01*
X169096279Y-75249384D01*
X169078537Y-75257776D01*
X169060057Y-75264388D01*
X169041018Y-75269157D01*
X169021603Y-75272037D01*
X169002000Y-75273000D01*
X167802000Y-75273000D01*
X167782397Y-75272037D01*
X167762982Y-75269157D01*
X167743943Y-75264388D01*
X167725463Y-75257776D01*
X167707721Y-75249384D01*
X167690886Y-75239294D01*
X167675121Y-75227602D01*
X167660579Y-75214421D01*
X167647398Y-75199879D01*
X167635706Y-75184114D01*
X167625616Y-75167279D01*
X167617224Y-75149537D01*
X167610612Y-75131057D01*
X167605843Y-75112018D01*
X167602963Y-75092603D01*
X167602000Y-75073000D01*
X167602000Y-73873000D01*
X167602963Y-73853397D01*
X167605843Y-73833982D01*
X167610612Y-73814943D01*
X167617224Y-73796463D01*
X167625616Y-73778721D01*
X167635706Y-73761886D01*
X167647398Y-73746121D01*
X167660579Y-73731579D01*
X167675121Y-73718398D01*
X167690886Y-73706706D01*
X167707721Y-73696616D01*
X167725463Y-73688224D01*
X167743943Y-73681612D01*
X167762982Y-73676843D01*
X167782397Y-73673963D01*
X167802000Y-73673000D01*
X169002000Y-73673000D01*
X169021603Y-73673963D01*
X169021603Y-73673963D01*
G37*
D11*
X168402000Y-74473000D03*
D10*
G36*
X151241603Y-78702963D02*
G01*
X151261018Y-78705843D01*
X151280057Y-78710612D01*
X151298537Y-78717224D01*
X151316279Y-78725616D01*
X151333114Y-78735706D01*
X151348879Y-78747398D01*
X151363421Y-78760579D01*
X151376602Y-78775121D01*
X151388294Y-78790886D01*
X151398384Y-78807721D01*
X151406776Y-78825463D01*
X151413388Y-78843943D01*
X151418157Y-78862982D01*
X151421037Y-78882397D01*
X151422000Y-78902000D01*
X151422000Y-80102000D01*
X151421037Y-80121603D01*
X151418157Y-80141018D01*
X151413388Y-80160057D01*
X151406776Y-80178537D01*
X151398384Y-80196279D01*
X151388294Y-80213114D01*
X151376602Y-80228879D01*
X151363421Y-80243421D01*
X151348879Y-80256602D01*
X151333114Y-80268294D01*
X151316279Y-80278384D01*
X151298537Y-80286776D01*
X151280057Y-80293388D01*
X151261018Y-80298157D01*
X151241603Y-80301037D01*
X151222000Y-80302000D01*
X150022000Y-80302000D01*
X150002397Y-80301037D01*
X149982982Y-80298157D01*
X149963943Y-80293388D01*
X149945463Y-80286776D01*
X149927721Y-80278384D01*
X149910886Y-80268294D01*
X149895121Y-80256602D01*
X149880579Y-80243421D01*
X149867398Y-80228879D01*
X149855706Y-80213114D01*
X149845616Y-80196279D01*
X149837224Y-80178537D01*
X149830612Y-80160057D01*
X149825843Y-80141018D01*
X149822963Y-80121603D01*
X149822000Y-80102000D01*
X149822000Y-78902000D01*
X149822963Y-78882397D01*
X149825843Y-78862982D01*
X149830612Y-78843943D01*
X149837224Y-78825463D01*
X149845616Y-78807721D01*
X149855706Y-78790886D01*
X149867398Y-78775121D01*
X149880579Y-78760579D01*
X149895121Y-78747398D01*
X149910886Y-78735706D01*
X149927721Y-78725616D01*
X149945463Y-78717224D01*
X149963943Y-78710612D01*
X149982982Y-78705843D01*
X150002397Y-78702963D01*
X150022000Y-78702000D01*
X151222000Y-78702000D01*
X151241603Y-78702963D01*
X151241603Y-78702963D01*
G37*
D11*
X150622000Y-79502000D03*
D10*
G36*
X143621603Y-76162963D02*
G01*
X143641018Y-76165843D01*
X143660057Y-76170612D01*
X143678537Y-76177224D01*
X143696279Y-76185616D01*
X143713114Y-76195706D01*
X143728879Y-76207398D01*
X143743421Y-76220579D01*
X143756602Y-76235121D01*
X143768294Y-76250886D01*
X143778384Y-76267721D01*
X143786776Y-76285463D01*
X143793388Y-76303943D01*
X143798157Y-76322982D01*
X143801037Y-76342397D01*
X143802000Y-76362000D01*
X143802000Y-77562000D01*
X143801037Y-77581603D01*
X143798157Y-77601018D01*
X143793388Y-77620057D01*
X143786776Y-77638537D01*
X143778384Y-77656279D01*
X143768294Y-77673114D01*
X143756602Y-77688879D01*
X143743421Y-77703421D01*
X143728879Y-77716602D01*
X143713114Y-77728294D01*
X143696279Y-77738384D01*
X143678537Y-77746776D01*
X143660057Y-77753388D01*
X143641018Y-77758157D01*
X143621603Y-77761037D01*
X143602000Y-77762000D01*
X142402000Y-77762000D01*
X142382397Y-77761037D01*
X142362982Y-77758157D01*
X142343943Y-77753388D01*
X142325463Y-77746776D01*
X142307721Y-77738384D01*
X142290886Y-77728294D01*
X142275121Y-77716602D01*
X142260579Y-77703421D01*
X142247398Y-77688879D01*
X142235706Y-77673114D01*
X142225616Y-77656279D01*
X142217224Y-77638537D01*
X142210612Y-77620057D01*
X142205843Y-77601018D01*
X142202963Y-77581603D01*
X142202000Y-77562000D01*
X142202000Y-76362000D01*
X142202963Y-76342397D01*
X142205843Y-76322982D01*
X142210612Y-76303943D01*
X142217224Y-76285463D01*
X142225616Y-76267721D01*
X142235706Y-76250886D01*
X142247398Y-76235121D01*
X142260579Y-76220579D01*
X142275121Y-76207398D01*
X142290886Y-76195706D01*
X142307721Y-76185616D01*
X142325463Y-76177224D01*
X142343943Y-76170612D01*
X142362982Y-76165843D01*
X142382397Y-76162963D01*
X142402000Y-76162000D01*
X143602000Y-76162000D01*
X143621603Y-76162963D01*
X143621603Y-76162963D01*
G37*
D11*
X143002000Y-76962000D03*
D10*
G36*
X151241603Y-76162963D02*
G01*
X151261018Y-76165843D01*
X151280057Y-76170612D01*
X151298537Y-76177224D01*
X151316279Y-76185616D01*
X151333114Y-76195706D01*
X151348879Y-76207398D01*
X151363421Y-76220579D01*
X151376602Y-76235121D01*
X151388294Y-76250886D01*
X151398384Y-76267721D01*
X151406776Y-76285463D01*
X151413388Y-76303943D01*
X151418157Y-76322982D01*
X151421037Y-76342397D01*
X151422000Y-76362000D01*
X151422000Y-77562000D01*
X151421037Y-77581603D01*
X151418157Y-77601018D01*
X151413388Y-77620057D01*
X151406776Y-77638537D01*
X151398384Y-77656279D01*
X151388294Y-77673114D01*
X151376602Y-77688879D01*
X151363421Y-77703421D01*
X151348879Y-77716602D01*
X151333114Y-77728294D01*
X151316279Y-77738384D01*
X151298537Y-77746776D01*
X151280057Y-77753388D01*
X151261018Y-77758157D01*
X151241603Y-77761037D01*
X151222000Y-77762000D01*
X150022000Y-77762000D01*
X150002397Y-77761037D01*
X149982982Y-77758157D01*
X149963943Y-77753388D01*
X149945463Y-77746776D01*
X149927721Y-77738384D01*
X149910886Y-77728294D01*
X149895121Y-77716602D01*
X149880579Y-77703421D01*
X149867398Y-77688879D01*
X149855706Y-77673114D01*
X149845616Y-77656279D01*
X149837224Y-77638537D01*
X149830612Y-77620057D01*
X149825843Y-77601018D01*
X149822963Y-77581603D01*
X149822000Y-77562000D01*
X149822000Y-76362000D01*
X149822963Y-76342397D01*
X149825843Y-76322982D01*
X149830612Y-76303943D01*
X149837224Y-76285463D01*
X149845616Y-76267721D01*
X149855706Y-76250886D01*
X149867398Y-76235121D01*
X149880579Y-76220579D01*
X149895121Y-76207398D01*
X149910886Y-76195706D01*
X149927721Y-76185616D01*
X149945463Y-76177224D01*
X149963943Y-76170612D01*
X149982982Y-76165843D01*
X150002397Y-76162963D01*
X150022000Y-76162000D01*
X151222000Y-76162000D01*
X151241603Y-76162963D01*
X151241603Y-76162963D01*
G37*
D11*
X150622000Y-76962000D03*
D10*
G36*
X143621603Y-73622963D02*
G01*
X143641018Y-73625843D01*
X143660057Y-73630612D01*
X143678537Y-73637224D01*
X143696279Y-73645616D01*
X143713114Y-73655706D01*
X143728879Y-73667398D01*
X143743421Y-73680579D01*
X143756602Y-73695121D01*
X143768294Y-73710886D01*
X143778384Y-73727721D01*
X143786776Y-73745463D01*
X143793388Y-73763943D01*
X143798157Y-73782982D01*
X143801037Y-73802397D01*
X143802000Y-73822000D01*
X143802000Y-75022000D01*
X143801037Y-75041603D01*
X143798157Y-75061018D01*
X143793388Y-75080057D01*
X143786776Y-75098537D01*
X143778384Y-75116279D01*
X143768294Y-75133114D01*
X143756602Y-75148879D01*
X143743421Y-75163421D01*
X143728879Y-75176602D01*
X143713114Y-75188294D01*
X143696279Y-75198384D01*
X143678537Y-75206776D01*
X143660057Y-75213388D01*
X143641018Y-75218157D01*
X143621603Y-75221037D01*
X143602000Y-75222000D01*
X142402000Y-75222000D01*
X142382397Y-75221037D01*
X142362982Y-75218157D01*
X142343943Y-75213388D01*
X142325463Y-75206776D01*
X142307721Y-75198384D01*
X142290886Y-75188294D01*
X142275121Y-75176602D01*
X142260579Y-75163421D01*
X142247398Y-75148879D01*
X142235706Y-75133114D01*
X142225616Y-75116279D01*
X142217224Y-75098537D01*
X142210612Y-75080057D01*
X142205843Y-75061018D01*
X142202963Y-75041603D01*
X142202000Y-75022000D01*
X142202000Y-73822000D01*
X142202963Y-73802397D01*
X142205843Y-73782982D01*
X142210612Y-73763943D01*
X142217224Y-73745463D01*
X142225616Y-73727721D01*
X142235706Y-73710886D01*
X142247398Y-73695121D01*
X142260579Y-73680579D01*
X142275121Y-73667398D01*
X142290886Y-73655706D01*
X142307721Y-73645616D01*
X142325463Y-73637224D01*
X142343943Y-73630612D01*
X142362982Y-73625843D01*
X142382397Y-73622963D01*
X142402000Y-73622000D01*
X143602000Y-73622000D01*
X143621603Y-73622963D01*
X143621603Y-73622963D01*
G37*
D11*
X143002000Y-74422000D03*
D10*
G36*
X143621603Y-81242963D02*
G01*
X143641018Y-81245843D01*
X143660057Y-81250612D01*
X143678537Y-81257224D01*
X143696279Y-81265616D01*
X143713114Y-81275706D01*
X143728879Y-81287398D01*
X143743421Y-81300579D01*
X143756602Y-81315121D01*
X143768294Y-81330886D01*
X143778384Y-81347721D01*
X143786776Y-81365463D01*
X143793388Y-81383943D01*
X143798157Y-81402982D01*
X143801037Y-81422397D01*
X143802000Y-81442000D01*
X143802000Y-82642000D01*
X143801037Y-82661603D01*
X143798157Y-82681018D01*
X143793388Y-82700057D01*
X143786776Y-82718537D01*
X143778384Y-82736279D01*
X143768294Y-82753114D01*
X143756602Y-82768879D01*
X143743421Y-82783421D01*
X143728879Y-82796602D01*
X143713114Y-82808294D01*
X143696279Y-82818384D01*
X143678537Y-82826776D01*
X143660057Y-82833388D01*
X143641018Y-82838157D01*
X143621603Y-82841037D01*
X143602000Y-82842000D01*
X142402000Y-82842000D01*
X142382397Y-82841037D01*
X142362982Y-82838157D01*
X142343943Y-82833388D01*
X142325463Y-82826776D01*
X142307721Y-82818384D01*
X142290886Y-82808294D01*
X142275121Y-82796602D01*
X142260579Y-82783421D01*
X142247398Y-82768879D01*
X142235706Y-82753114D01*
X142225616Y-82736279D01*
X142217224Y-82718537D01*
X142210612Y-82700057D01*
X142205843Y-82681018D01*
X142202963Y-82661603D01*
X142202000Y-82642000D01*
X142202000Y-81442000D01*
X142202963Y-81422397D01*
X142205843Y-81402982D01*
X142210612Y-81383943D01*
X142217224Y-81365463D01*
X142225616Y-81347721D01*
X142235706Y-81330886D01*
X142247398Y-81315121D01*
X142260579Y-81300579D01*
X142275121Y-81287398D01*
X142290886Y-81275706D01*
X142307721Y-81265616D01*
X142325463Y-81257224D01*
X142343943Y-81250612D01*
X142362982Y-81245843D01*
X142382397Y-81242963D01*
X142402000Y-81242000D01*
X143602000Y-81242000D01*
X143621603Y-81242963D01*
X143621603Y-81242963D01*
G37*
D11*
X143002000Y-82042000D03*
D10*
G36*
X143621603Y-96482963D02*
G01*
X143641018Y-96485843D01*
X143660057Y-96490612D01*
X143678537Y-96497224D01*
X143696279Y-96505616D01*
X143713114Y-96515706D01*
X143728879Y-96527398D01*
X143743421Y-96540579D01*
X143756602Y-96555121D01*
X143768294Y-96570886D01*
X143778384Y-96587721D01*
X143786776Y-96605463D01*
X143793388Y-96623943D01*
X143798157Y-96642982D01*
X143801037Y-96662397D01*
X143802000Y-96682000D01*
X143802000Y-97882000D01*
X143801037Y-97901603D01*
X143798157Y-97921018D01*
X143793388Y-97940057D01*
X143786776Y-97958537D01*
X143778384Y-97976279D01*
X143768294Y-97993114D01*
X143756602Y-98008879D01*
X143743421Y-98023421D01*
X143728879Y-98036602D01*
X143713114Y-98048294D01*
X143696279Y-98058384D01*
X143678537Y-98066776D01*
X143660057Y-98073388D01*
X143641018Y-98078157D01*
X143621603Y-98081037D01*
X143602000Y-98082000D01*
X142402000Y-98082000D01*
X142382397Y-98081037D01*
X142362982Y-98078157D01*
X142343943Y-98073388D01*
X142325463Y-98066776D01*
X142307721Y-98058384D01*
X142290886Y-98048294D01*
X142275121Y-98036602D01*
X142260579Y-98023421D01*
X142247398Y-98008879D01*
X142235706Y-97993114D01*
X142225616Y-97976279D01*
X142217224Y-97958537D01*
X142210612Y-97940057D01*
X142205843Y-97921018D01*
X142202963Y-97901603D01*
X142202000Y-97882000D01*
X142202000Y-96682000D01*
X142202963Y-96662397D01*
X142205843Y-96642982D01*
X142210612Y-96623943D01*
X142217224Y-96605463D01*
X142225616Y-96587721D01*
X142235706Y-96570886D01*
X142247398Y-96555121D01*
X142260579Y-96540579D01*
X142275121Y-96527398D01*
X142290886Y-96515706D01*
X142307721Y-96505616D01*
X142325463Y-96497224D01*
X142343943Y-96490612D01*
X142362982Y-96485843D01*
X142382397Y-96482963D01*
X142402000Y-96482000D01*
X143602000Y-96482000D01*
X143621603Y-96482963D01*
X143621603Y-96482963D01*
G37*
D11*
X143002000Y-97282000D03*
D10*
G36*
X151241603Y-73622963D02*
G01*
X151261018Y-73625843D01*
X151280057Y-73630612D01*
X151298537Y-73637224D01*
X151316279Y-73645616D01*
X151333114Y-73655706D01*
X151348879Y-73667398D01*
X151363421Y-73680579D01*
X151376602Y-73695121D01*
X151388294Y-73710886D01*
X151398384Y-73727721D01*
X151406776Y-73745463D01*
X151413388Y-73763943D01*
X151418157Y-73782982D01*
X151421037Y-73802397D01*
X151422000Y-73822000D01*
X151422000Y-75022000D01*
X151421037Y-75041603D01*
X151418157Y-75061018D01*
X151413388Y-75080057D01*
X151406776Y-75098537D01*
X151398384Y-75116279D01*
X151388294Y-75133114D01*
X151376602Y-75148879D01*
X151363421Y-75163421D01*
X151348879Y-75176602D01*
X151333114Y-75188294D01*
X151316279Y-75198384D01*
X151298537Y-75206776D01*
X151280057Y-75213388D01*
X151261018Y-75218157D01*
X151241603Y-75221037D01*
X151222000Y-75222000D01*
X150022000Y-75222000D01*
X150002397Y-75221037D01*
X149982982Y-75218157D01*
X149963943Y-75213388D01*
X149945463Y-75206776D01*
X149927721Y-75198384D01*
X149910886Y-75188294D01*
X149895121Y-75176602D01*
X149880579Y-75163421D01*
X149867398Y-75148879D01*
X149855706Y-75133114D01*
X149845616Y-75116279D01*
X149837224Y-75098537D01*
X149830612Y-75080057D01*
X149825843Y-75061018D01*
X149822963Y-75041603D01*
X149822000Y-75022000D01*
X149822000Y-73822000D01*
X149822963Y-73802397D01*
X149825843Y-73782982D01*
X149830612Y-73763943D01*
X149837224Y-73745463D01*
X149845616Y-73727721D01*
X149855706Y-73710886D01*
X149867398Y-73695121D01*
X149880579Y-73680579D01*
X149895121Y-73667398D01*
X149910886Y-73655706D01*
X149927721Y-73645616D01*
X149945463Y-73637224D01*
X149963943Y-73630612D01*
X149982982Y-73625843D01*
X150002397Y-73622963D01*
X150022000Y-73622000D01*
X151222000Y-73622000D01*
X151241603Y-73622963D01*
X151241603Y-73622963D01*
G37*
D11*
X150622000Y-74422000D03*
D10*
G36*
X227187603Y-81242963D02*
G01*
X227207018Y-81245843D01*
X227226057Y-81250612D01*
X227244537Y-81257224D01*
X227262279Y-81265616D01*
X227279114Y-81275706D01*
X227294879Y-81287398D01*
X227309421Y-81300579D01*
X227322602Y-81315121D01*
X227334294Y-81330886D01*
X227344384Y-81347721D01*
X227352776Y-81365463D01*
X227359388Y-81383943D01*
X227364157Y-81402982D01*
X227367037Y-81422397D01*
X227368000Y-81442000D01*
X227368000Y-82642000D01*
X227367037Y-82661603D01*
X227364157Y-82681018D01*
X227359388Y-82700057D01*
X227352776Y-82718537D01*
X227344384Y-82736279D01*
X227334294Y-82753114D01*
X227322602Y-82768879D01*
X227309421Y-82783421D01*
X227294879Y-82796602D01*
X227279114Y-82808294D01*
X227262279Y-82818384D01*
X227244537Y-82826776D01*
X227226057Y-82833388D01*
X227207018Y-82838157D01*
X227187603Y-82841037D01*
X227168000Y-82842000D01*
X225968000Y-82842000D01*
X225948397Y-82841037D01*
X225928982Y-82838157D01*
X225909943Y-82833388D01*
X225891463Y-82826776D01*
X225873721Y-82818384D01*
X225856886Y-82808294D01*
X225841121Y-82796602D01*
X225826579Y-82783421D01*
X225813398Y-82768879D01*
X225801706Y-82753114D01*
X225791616Y-82736279D01*
X225783224Y-82718537D01*
X225776612Y-82700057D01*
X225771843Y-82681018D01*
X225768963Y-82661603D01*
X225768000Y-82642000D01*
X225768000Y-81442000D01*
X225768963Y-81422397D01*
X225771843Y-81402982D01*
X225776612Y-81383943D01*
X225783224Y-81365463D01*
X225791616Y-81347721D01*
X225801706Y-81330886D01*
X225813398Y-81315121D01*
X225826579Y-81300579D01*
X225841121Y-81287398D01*
X225856886Y-81275706D01*
X225873721Y-81265616D01*
X225891463Y-81257224D01*
X225909943Y-81250612D01*
X225928982Y-81245843D01*
X225948397Y-81242963D01*
X225968000Y-81242000D01*
X227168000Y-81242000D01*
X227187603Y-81242963D01*
X227187603Y-81242963D01*
G37*
D11*
X226568000Y-82042000D03*
D10*
G36*
X143621603Y-78702963D02*
G01*
X143641018Y-78705843D01*
X143660057Y-78710612D01*
X143678537Y-78717224D01*
X143696279Y-78725616D01*
X143713114Y-78735706D01*
X143728879Y-78747398D01*
X143743421Y-78760579D01*
X143756602Y-78775121D01*
X143768294Y-78790886D01*
X143778384Y-78807721D01*
X143786776Y-78825463D01*
X143793388Y-78843943D01*
X143798157Y-78862982D01*
X143801037Y-78882397D01*
X143802000Y-78902000D01*
X143802000Y-80102000D01*
X143801037Y-80121603D01*
X143798157Y-80141018D01*
X143793388Y-80160057D01*
X143786776Y-80178537D01*
X143778384Y-80196279D01*
X143768294Y-80213114D01*
X143756602Y-80228879D01*
X143743421Y-80243421D01*
X143728879Y-80256602D01*
X143713114Y-80268294D01*
X143696279Y-80278384D01*
X143678537Y-80286776D01*
X143660057Y-80293388D01*
X143641018Y-80298157D01*
X143621603Y-80301037D01*
X143602000Y-80302000D01*
X142402000Y-80302000D01*
X142382397Y-80301037D01*
X142362982Y-80298157D01*
X142343943Y-80293388D01*
X142325463Y-80286776D01*
X142307721Y-80278384D01*
X142290886Y-80268294D01*
X142275121Y-80256602D01*
X142260579Y-80243421D01*
X142247398Y-80228879D01*
X142235706Y-80213114D01*
X142225616Y-80196279D01*
X142217224Y-80178537D01*
X142210612Y-80160057D01*
X142205843Y-80141018D01*
X142202963Y-80121603D01*
X142202000Y-80102000D01*
X142202000Y-78902000D01*
X142202963Y-78882397D01*
X142205843Y-78862982D01*
X142210612Y-78843943D01*
X142217224Y-78825463D01*
X142225616Y-78807721D01*
X142235706Y-78790886D01*
X142247398Y-78775121D01*
X142260579Y-78760579D01*
X142275121Y-78747398D01*
X142290886Y-78735706D01*
X142307721Y-78725616D01*
X142325463Y-78717224D01*
X142343943Y-78710612D01*
X142362982Y-78705843D01*
X142382397Y-78702963D01*
X142402000Y-78702000D01*
X143602000Y-78702000D01*
X143621603Y-78702963D01*
X143621603Y-78702963D01*
G37*
D11*
X143002000Y-79502000D03*
D10*
G36*
X143621603Y-86322963D02*
G01*
X143641018Y-86325843D01*
X143660057Y-86330612D01*
X143678537Y-86337224D01*
X143696279Y-86345616D01*
X143713114Y-86355706D01*
X143728879Y-86367398D01*
X143743421Y-86380579D01*
X143756602Y-86395121D01*
X143768294Y-86410886D01*
X143778384Y-86427721D01*
X143786776Y-86445463D01*
X143793388Y-86463943D01*
X143798157Y-86482982D01*
X143801037Y-86502397D01*
X143802000Y-86522000D01*
X143802000Y-87722000D01*
X143801037Y-87741603D01*
X143798157Y-87761018D01*
X143793388Y-87780057D01*
X143786776Y-87798537D01*
X143778384Y-87816279D01*
X143768294Y-87833114D01*
X143756602Y-87848879D01*
X143743421Y-87863421D01*
X143728879Y-87876602D01*
X143713114Y-87888294D01*
X143696279Y-87898384D01*
X143678537Y-87906776D01*
X143660057Y-87913388D01*
X143641018Y-87918157D01*
X143621603Y-87921037D01*
X143602000Y-87922000D01*
X142402000Y-87922000D01*
X142382397Y-87921037D01*
X142362982Y-87918157D01*
X142343943Y-87913388D01*
X142325463Y-87906776D01*
X142307721Y-87898384D01*
X142290886Y-87888294D01*
X142275121Y-87876602D01*
X142260579Y-87863421D01*
X142247398Y-87848879D01*
X142235706Y-87833114D01*
X142225616Y-87816279D01*
X142217224Y-87798537D01*
X142210612Y-87780057D01*
X142205843Y-87761018D01*
X142202963Y-87741603D01*
X142202000Y-87722000D01*
X142202000Y-86522000D01*
X142202963Y-86502397D01*
X142205843Y-86482982D01*
X142210612Y-86463943D01*
X142217224Y-86445463D01*
X142225616Y-86427721D01*
X142235706Y-86410886D01*
X142247398Y-86395121D01*
X142260579Y-86380579D01*
X142275121Y-86367398D01*
X142290886Y-86355706D01*
X142307721Y-86345616D01*
X142325463Y-86337224D01*
X142343943Y-86330612D01*
X142362982Y-86325843D01*
X142382397Y-86322963D01*
X142402000Y-86322000D01*
X143602000Y-86322000D01*
X143621603Y-86322963D01*
X143621603Y-86322963D01*
G37*
D11*
X143002000Y-87122000D03*
D10*
G36*
X143621603Y-88862963D02*
G01*
X143641018Y-88865843D01*
X143660057Y-88870612D01*
X143678537Y-88877224D01*
X143696279Y-88885616D01*
X143713114Y-88895706D01*
X143728879Y-88907398D01*
X143743421Y-88920579D01*
X143756602Y-88935121D01*
X143768294Y-88950886D01*
X143778384Y-88967721D01*
X143786776Y-88985463D01*
X143793388Y-89003943D01*
X143798157Y-89022982D01*
X143801037Y-89042397D01*
X143802000Y-89062000D01*
X143802000Y-90262000D01*
X143801037Y-90281603D01*
X143798157Y-90301018D01*
X143793388Y-90320057D01*
X143786776Y-90338537D01*
X143778384Y-90356279D01*
X143768294Y-90373114D01*
X143756602Y-90388879D01*
X143743421Y-90403421D01*
X143728879Y-90416602D01*
X143713114Y-90428294D01*
X143696279Y-90438384D01*
X143678537Y-90446776D01*
X143660057Y-90453388D01*
X143641018Y-90458157D01*
X143621603Y-90461037D01*
X143602000Y-90462000D01*
X142402000Y-90462000D01*
X142382397Y-90461037D01*
X142362982Y-90458157D01*
X142343943Y-90453388D01*
X142325463Y-90446776D01*
X142307721Y-90438384D01*
X142290886Y-90428294D01*
X142275121Y-90416602D01*
X142260579Y-90403421D01*
X142247398Y-90388879D01*
X142235706Y-90373114D01*
X142225616Y-90356279D01*
X142217224Y-90338537D01*
X142210612Y-90320057D01*
X142205843Y-90301018D01*
X142202963Y-90281603D01*
X142202000Y-90262000D01*
X142202000Y-89062000D01*
X142202963Y-89042397D01*
X142205843Y-89022982D01*
X142210612Y-89003943D01*
X142217224Y-88985463D01*
X142225616Y-88967721D01*
X142235706Y-88950886D01*
X142247398Y-88935121D01*
X142260579Y-88920579D01*
X142275121Y-88907398D01*
X142290886Y-88895706D01*
X142307721Y-88885616D01*
X142325463Y-88877224D01*
X142343943Y-88870612D01*
X142362982Y-88865843D01*
X142382397Y-88862963D01*
X142402000Y-88862000D01*
X143602000Y-88862000D01*
X143621603Y-88862963D01*
X143621603Y-88862963D01*
G37*
D11*
X143002000Y-89662000D03*
D10*
G36*
X143621603Y-91402963D02*
G01*
X143641018Y-91405843D01*
X143660057Y-91410612D01*
X143678537Y-91417224D01*
X143696279Y-91425616D01*
X143713114Y-91435706D01*
X143728879Y-91447398D01*
X143743421Y-91460579D01*
X143756602Y-91475121D01*
X143768294Y-91490886D01*
X143778384Y-91507721D01*
X143786776Y-91525463D01*
X143793388Y-91543943D01*
X143798157Y-91562982D01*
X143801037Y-91582397D01*
X143802000Y-91602000D01*
X143802000Y-92802000D01*
X143801037Y-92821603D01*
X143798157Y-92841018D01*
X143793388Y-92860057D01*
X143786776Y-92878537D01*
X143778384Y-92896279D01*
X143768294Y-92913114D01*
X143756602Y-92928879D01*
X143743421Y-92943421D01*
X143728879Y-92956602D01*
X143713114Y-92968294D01*
X143696279Y-92978384D01*
X143678537Y-92986776D01*
X143660057Y-92993388D01*
X143641018Y-92998157D01*
X143621603Y-93001037D01*
X143602000Y-93002000D01*
X142402000Y-93002000D01*
X142382397Y-93001037D01*
X142362982Y-92998157D01*
X142343943Y-92993388D01*
X142325463Y-92986776D01*
X142307721Y-92978384D01*
X142290886Y-92968294D01*
X142275121Y-92956602D01*
X142260579Y-92943421D01*
X142247398Y-92928879D01*
X142235706Y-92913114D01*
X142225616Y-92896279D01*
X142217224Y-92878537D01*
X142210612Y-92860057D01*
X142205843Y-92841018D01*
X142202963Y-92821603D01*
X142202000Y-92802000D01*
X142202000Y-91602000D01*
X142202963Y-91582397D01*
X142205843Y-91562982D01*
X142210612Y-91543943D01*
X142217224Y-91525463D01*
X142225616Y-91507721D01*
X142235706Y-91490886D01*
X142247398Y-91475121D01*
X142260579Y-91460579D01*
X142275121Y-91447398D01*
X142290886Y-91435706D01*
X142307721Y-91425616D01*
X142325463Y-91417224D01*
X142343943Y-91410612D01*
X142362982Y-91405843D01*
X142382397Y-91402963D01*
X142402000Y-91402000D01*
X143602000Y-91402000D01*
X143621603Y-91402963D01*
X143621603Y-91402963D01*
G37*
D11*
X143002000Y-92202000D03*
D10*
G36*
X143621603Y-93942963D02*
G01*
X143641018Y-93945843D01*
X143660057Y-93950612D01*
X143678537Y-93957224D01*
X143696279Y-93965616D01*
X143713114Y-93975706D01*
X143728879Y-93987398D01*
X143743421Y-94000579D01*
X143756602Y-94015121D01*
X143768294Y-94030886D01*
X143778384Y-94047721D01*
X143786776Y-94065463D01*
X143793388Y-94083943D01*
X143798157Y-94102982D01*
X143801037Y-94122397D01*
X143802000Y-94142000D01*
X143802000Y-95342000D01*
X143801037Y-95361603D01*
X143798157Y-95381018D01*
X143793388Y-95400057D01*
X143786776Y-95418537D01*
X143778384Y-95436279D01*
X143768294Y-95453114D01*
X143756602Y-95468879D01*
X143743421Y-95483421D01*
X143728879Y-95496602D01*
X143713114Y-95508294D01*
X143696279Y-95518384D01*
X143678537Y-95526776D01*
X143660057Y-95533388D01*
X143641018Y-95538157D01*
X143621603Y-95541037D01*
X143602000Y-95542000D01*
X142402000Y-95542000D01*
X142382397Y-95541037D01*
X142362982Y-95538157D01*
X142343943Y-95533388D01*
X142325463Y-95526776D01*
X142307721Y-95518384D01*
X142290886Y-95508294D01*
X142275121Y-95496602D01*
X142260579Y-95483421D01*
X142247398Y-95468879D01*
X142235706Y-95453114D01*
X142225616Y-95436279D01*
X142217224Y-95418537D01*
X142210612Y-95400057D01*
X142205843Y-95381018D01*
X142202963Y-95361603D01*
X142202000Y-95342000D01*
X142202000Y-94142000D01*
X142202963Y-94122397D01*
X142205843Y-94102982D01*
X142210612Y-94083943D01*
X142217224Y-94065463D01*
X142225616Y-94047721D01*
X142235706Y-94030886D01*
X142247398Y-94015121D01*
X142260579Y-94000579D01*
X142275121Y-93987398D01*
X142290886Y-93975706D01*
X142307721Y-93965616D01*
X142325463Y-93957224D01*
X142343943Y-93950612D01*
X142362982Y-93945843D01*
X142382397Y-93942963D01*
X142402000Y-93942000D01*
X143602000Y-93942000D01*
X143621603Y-93942963D01*
X143621603Y-93942963D01*
G37*
D11*
X143002000Y-94742000D03*
D12*
X262890000Y-74930000D03*
X255270000Y-97790000D03*
X262890000Y-77470000D03*
X255270000Y-95250000D03*
X262890000Y-80010000D03*
X255270000Y-92710000D03*
X262890000Y-82550000D03*
X255270000Y-90170000D03*
X262890000Y-85090000D03*
X255270000Y-87630000D03*
X262890000Y-87630000D03*
X255270000Y-85090000D03*
X262890000Y-90170000D03*
X255270000Y-82550000D03*
X262890000Y-92710000D03*
X255270000Y-80010000D03*
X262890000Y-95250000D03*
X255270000Y-77470000D03*
X262890000Y-97790000D03*
D13*
X255270000Y-74930000D03*
D14*
X189903900Y-93969800D03*
X209869700Y-96184400D03*
X190704300Y-93519500D03*
X210685200Y-96076400D03*
X207660800Y-95561600D03*
X191504700Y-93069200D03*
X212236000Y-95794600D03*
X197820300Y-92166100D03*
X212694200Y-95120900D03*
X202114100Y-92268800D03*
X212577500Y-94320500D03*
X213828200Y-93986900D03*
X214458700Y-93420000D03*
X215242100Y-98754600D03*
X195402800Y-96203300D03*
X175059100Y-93258900D03*
X173843700Y-86807200D03*
X196184700Y-87567300D03*
X210706400Y-83949900D03*
X163790500Y-86296500D03*
X197528200Y-85025300D03*
X215324900Y-91161100D03*
X217791300Y-84506100D03*
X221204500Y-96198100D03*
X200460800Y-97408800D03*
X155544000Y-93294500D03*
X220109300Y-98747000D03*
X199552500Y-96165600D03*
X156422400Y-93314400D03*
X198521300Y-96170000D03*
X159322600Y-94128600D03*
X197626000Y-96139900D03*
X216863300Y-91739200D03*
X217388100Y-87670800D03*
X180363800Y-90896500D03*
X181998400Y-84038700D03*
X178994000Y-97741400D03*
X207154100Y-84528800D03*
X178589500Y-94030600D03*
X203729200Y-86966200D03*
X194104200Y-87573400D03*
X204556300Y-90287200D03*
X194820400Y-84563400D03*
X210271900Y-88566800D03*
X195163700Y-88023700D03*
X209342600Y-84446700D03*
X193077200Y-84211300D03*
X192265700Y-83871200D03*
X211043100Y-87569100D03*
X191245000Y-83420900D03*
X189642300Y-84485400D03*
X190546900Y-82322000D03*
X169226600Y-97082500D03*
X171357200Y-87025900D03*
X185869300Y-95413100D03*
X170252700Y-87093800D03*
X183319800Y-95592400D03*
X168634300Y-87276700D03*
X183885600Y-96172200D03*
X168891400Y-88727200D03*
X181323500Y-96254000D03*
X168729200Y-90271300D03*
X182085000Y-96695000D03*
X179522400Y-88588200D03*
X180612500Y-83889400D03*
X180883000Y-86544500D03*
X178169000Y-89018200D03*
X179891400Y-84881200D03*
X165679800Y-93351500D03*
X206057800Y-85033200D03*
X186257500Y-83944000D03*
X174722000Y-91176100D03*
X174644100Y-86562400D03*
X174828200Y-89925300D03*
X179576400Y-80358000D03*
X253213800Y-77824700D03*
X252529800Y-79375000D03*
X252461300Y-81915000D03*
X252263600Y-84455000D03*
X174643400Y-94597400D03*
X178776000Y-80670000D03*
X173863800Y-93909500D03*
X178528400Y-79433900D03*
X179576400Y-79507200D03*
X186269900Y-93452800D03*
X180649200Y-81054200D03*
X208960000Y-96177400D03*
D15*
X187724900Y-90270400D03*
X162389200Y-90459000D03*
X159186400Y-83011800D03*
X248116900Y-74295000D03*
X187724900Y-87662800D03*
X198838000Y-77588900D03*
X191373900Y-91304800D03*
X192361100Y-87923700D03*
X209281900Y-76130300D03*
X212417300Y-87690500D03*
D14*
X177633600Y-84751700D03*
X218433200Y-98744900D03*
X196052800Y-95578100D03*
D16*
X209869700Y-96184400D02*
X207930300Y-94245000D01*
X207930300Y-94245000D02*
X201295300Y-94245000D01*
X201295300Y-94245000D02*
X201195200Y-94144900D01*
X201195200Y-94144900D02*
X190079000Y-94144900D01*
X190079000Y-94144900D02*
X189903900Y-93969800D01*
X226568000Y-79502000D02*
X219790600Y-86279400D01*
X219790600Y-86279400D02*
X219790600Y-90439900D01*
X219790600Y-90439900D02*
X213305800Y-96924700D01*
X213305800Y-96924700D02*
X210610000Y-96924700D01*
X210610000Y-96924700D02*
X209869700Y-96184400D01*
X210685200Y-96076400D02*
X208403500Y-93794700D01*
X208403500Y-93794700D02*
X201481900Y-93794700D01*
X201481900Y-93794700D02*
X201381800Y-93694600D01*
X201381800Y-93694600D02*
X190879400Y-93694600D01*
X190879400Y-93694600D02*
X190704300Y-93519500D01*
X218948000Y-76962000D02*
X218948000Y-90645600D01*
X218948000Y-90645600D02*
X213173700Y-96419900D01*
X213173700Y-96419900D02*
X211028700Y-96419900D01*
X211028700Y-96419900D02*
X210685200Y-96076400D01*
X226568000Y-76962000D02*
X227716700Y-78110700D01*
X227716700Y-78110700D02*
X227716700Y-83197000D01*
X227716700Y-83197000D02*
X213538600Y-97375100D01*
X213538600Y-97375100D02*
X209200600Y-97375100D01*
X209200600Y-97375100D02*
X207660800Y-95835300D01*
X207660800Y-95835300D02*
X207660800Y-95561600D01*
X212236000Y-95794600D02*
X209785800Y-93344400D01*
X209785800Y-93344400D02*
X201668500Y-93344400D01*
X201668500Y-93344400D02*
X201393300Y-93069200D01*
X201393300Y-93069200D02*
X191504700Y-93069200D01*
X212236000Y-95794600D02*
X212968500Y-95794600D01*
X212968500Y-95794600D02*
X216237900Y-92525200D01*
X216237900Y-92525200D02*
X216237900Y-87913500D01*
X216237900Y-87913500D02*
X218437400Y-85714000D01*
X218437400Y-85714000D02*
X218437400Y-79362900D01*
X218437400Y-79362900D02*
X217816400Y-78741900D01*
X217816400Y-78741900D02*
X217816400Y-75553600D01*
X217816400Y-75553600D02*
X218948000Y-74422000D01*
X212694200Y-95069300D02*
X212147600Y-95069300D01*
X212147600Y-95069300D02*
X209972400Y-92894100D01*
X209972400Y-92894100D02*
X201855100Y-92894100D01*
X201855100Y-92894100D02*
X201127100Y-92166100D01*
X201127100Y-92166100D02*
X197820300Y-92166100D01*
X212725000Y-79502000D02*
X213678500Y-80455500D01*
X213678500Y-80455500D02*
X213678500Y-92419200D01*
X213678500Y-92419200D02*
X213202900Y-92894800D01*
X213202900Y-92894800D02*
X213202900Y-94582700D01*
X213202900Y-94582700D02*
X212716300Y-95069300D01*
X212716300Y-95069300D02*
X212694200Y-95069300D01*
X212694200Y-95069300D02*
X212694200Y-95120900D01*
X210737500Y-92268800D02*
X213185500Y-89820800D01*
X213185500Y-89820800D02*
X213185500Y-84687300D01*
X213185500Y-84687300D02*
X210007200Y-81509000D01*
X210007200Y-81509000D02*
X210007200Y-75829800D01*
X210007200Y-75829800D02*
X209564500Y-75387100D01*
X209564500Y-75387100D02*
X206679900Y-75387100D01*
X206679900Y-75387100D02*
X205105000Y-76962000D01*
X212577500Y-94320500D02*
X210737500Y-92480500D01*
X210737500Y-92480500D02*
X210737500Y-92268800D01*
X210737500Y-92268800D02*
X202114100Y-92268800D01*
X212725000Y-76962000D02*
X214199700Y-78436700D01*
X214199700Y-78436700D02*
X214199700Y-92534900D01*
X214199700Y-92534900D02*
X213828200Y-92906400D01*
X213828200Y-92906400D02*
X213828200Y-93986900D01*
X205080000Y-74396600D02*
X212109000Y-74396600D01*
X212109000Y-74396600D02*
X214682800Y-76970400D01*
X214682800Y-76970400D02*
X214682800Y-93195900D01*
X214682800Y-93195900D02*
X214458700Y-93420000D01*
X143002000Y-79502000D02*
X146055000Y-79502000D01*
X146055000Y-79502000D02*
X164979700Y-98426700D01*
X164979700Y-98426700D02*
X193179400Y-98426700D01*
X193179400Y-98426700D02*
X195402800Y-96203300D01*
X195402800Y-96203300D02*
X195482300Y-96282800D01*
X195482300Y-96282800D02*
X196598800Y-96282800D01*
X196598800Y-96282800D02*
X197372600Y-95509000D01*
X197372600Y-95509000D02*
X200648600Y-95509000D01*
X200648600Y-95509000D02*
X203894200Y-98754600D01*
X203894200Y-98754600D02*
X215242100Y-98754600D01*
X173843700Y-86807200D02*
X173648300Y-87002600D01*
X173648300Y-87002600D02*
X173648300Y-91848100D01*
X173648300Y-91848100D02*
X175059100Y-93258900D01*
X210706400Y-83949900D02*
X205444300Y-78687800D01*
X205444300Y-78687800D02*
X188067800Y-78687800D01*
X188067800Y-78687800D02*
X180837400Y-71457400D01*
X180837400Y-71457400D02*
X143962600Y-71457400D01*
X143962600Y-71457400D02*
X141858600Y-73561400D01*
X141858600Y-73561400D02*
X141858600Y-85978600D01*
X141858600Y-85978600D02*
X143002000Y-87122000D01*
X210706400Y-83949900D02*
X211692000Y-84935500D01*
X211692000Y-84935500D02*
X211692000Y-87851500D01*
X211692000Y-87851500D02*
X211344100Y-88199400D01*
X211344100Y-88199400D02*
X210788900Y-88199400D01*
X210788900Y-88199400D02*
X210531000Y-87941500D01*
X210531000Y-87941500D02*
X196558900Y-87941500D01*
X196558900Y-87941500D02*
X196184700Y-87567300D01*
X197528200Y-85025300D02*
X197156300Y-85397200D01*
X197156300Y-85397200D02*
X191314300Y-85397200D01*
X191314300Y-85397200D02*
X191126800Y-85584700D01*
X191126800Y-85584700D02*
X189220200Y-85584700D01*
X189220200Y-85584700D02*
X178494300Y-74858800D01*
X178494300Y-74858800D02*
X174908500Y-74858800D01*
X174908500Y-74858800D02*
X163790500Y-85976800D01*
X163790500Y-85976800D02*
X163790500Y-86296500D01*
X217791300Y-84506100D02*
X217791300Y-79434200D01*
X217791300Y-79434200D02*
X209364200Y-71007100D01*
X209364200Y-71007100D02*
X143776000Y-71007100D01*
X143776000Y-71007100D02*
X141408300Y-73374800D01*
X141408300Y-73374800D02*
X141408300Y-97677700D01*
X141408300Y-97677700D02*
X142155000Y-98424400D01*
X142155000Y-98424400D02*
X149479600Y-98424400D01*
X149479600Y-98424400D02*
X150622000Y-97282000D01*
X217791300Y-84506100D02*
X215324900Y-86972500D01*
X215324900Y-86972500D02*
X215324900Y-91161100D01*
X150622000Y-94742000D02*
X156186300Y-100306300D01*
X156186300Y-100306300D02*
X197563300Y-100306300D01*
X197563300Y-100306300D02*
X200460800Y-97408800D01*
X200460800Y-97408800D02*
X202962900Y-99910900D01*
X202962900Y-99910900D02*
X219849000Y-99910900D01*
X219849000Y-99910900D02*
X221204500Y-98555400D01*
X221204500Y-98555400D02*
X221204500Y-96198100D01*
X155484200Y-93354300D02*
X161976800Y-99847000D01*
X161976800Y-99847000D02*
X195871100Y-99847000D01*
X195871100Y-99847000D02*
X199552500Y-96165600D01*
X155484200Y-93354300D02*
X155544000Y-93294500D01*
X150622000Y-92202000D02*
X151774400Y-93354400D01*
X151774400Y-93354400D02*
X155484100Y-93354400D01*
X155484100Y-93354400D02*
X155484200Y-93354300D01*
X199552500Y-96165600D02*
X200243200Y-96165600D01*
X200243200Y-96165600D02*
X203476800Y-99399200D01*
X203476800Y-99399200D02*
X219457100Y-99399200D01*
X219457100Y-99399200D02*
X220109300Y-98747000D01*
X156422400Y-93314400D02*
X162495600Y-99387600D01*
X162495600Y-99387600D02*
X195303700Y-99387600D01*
X195303700Y-99387600D02*
X198521300Y-96170000D01*
X156422400Y-93314400D02*
X156422400Y-93252400D01*
X156422400Y-93252400D02*
X152832000Y-89662000D01*
X152832000Y-89662000D02*
X150622000Y-89662000D01*
X159322600Y-94128600D02*
X164130800Y-98936800D01*
X164130800Y-98936800D02*
X194829100Y-98936800D01*
X194829100Y-98936800D02*
X197626000Y-96139900D01*
X159322600Y-94128600D02*
X152316000Y-87122000D01*
X152316000Y-87122000D02*
X150622000Y-87122000D01*
X216863300Y-91739200D02*
X216863300Y-88195600D01*
X216863300Y-88195600D02*
X217388100Y-87670800D01*
X150622000Y-82042000D02*
X166544100Y-97964100D01*
X166544100Y-97964100D02*
X178771300Y-97964100D01*
X178771300Y-97964100D02*
X178994000Y-97741400D01*
X181998400Y-84038700D02*
X181998400Y-89261900D01*
X181998400Y-89261900D02*
X180363800Y-90896500D01*
X203729200Y-86966200D02*
X203060800Y-86297800D01*
X203060800Y-86297800D02*
X191687500Y-86297800D01*
X191687500Y-86297800D02*
X191500000Y-86485300D01*
X191500000Y-86485300D02*
X188847000Y-86485300D01*
X188847000Y-86485300D02*
X188398600Y-86036900D01*
X188398600Y-86036900D02*
X187465900Y-86036900D01*
X187465900Y-86036900D02*
X183908700Y-82479700D01*
X183908700Y-82479700D02*
X183908700Y-81681300D01*
X183908700Y-81681300D02*
X178024100Y-75796700D01*
X178024100Y-75796700D02*
X175244400Y-75796700D01*
X175244400Y-75796700D02*
X172295400Y-78745700D01*
X172295400Y-78745700D02*
X172295400Y-93245400D01*
X172295400Y-93245400D02*
X174272700Y-95222700D01*
X174272700Y-95222700D02*
X174902500Y-95222700D01*
X174902500Y-95222700D02*
X176094600Y-94030600D01*
X176094600Y-94030600D02*
X178589500Y-94030600D01*
X207154100Y-84528800D02*
X207154100Y-84860500D01*
X207154100Y-84860500D02*
X205048400Y-86966200D01*
X205048400Y-86966200D02*
X203729200Y-86966200D01*
X194104200Y-87573400D02*
X193729200Y-87198400D01*
X193729200Y-87198400D02*
X192060700Y-87198400D01*
X192060700Y-87198400D02*
X191873200Y-87385900D01*
X191873200Y-87385900D02*
X188473800Y-87385900D01*
X188473800Y-87385900D02*
X188025400Y-86937500D01*
X188025400Y-86937500D02*
X187092600Y-86937500D01*
X187092600Y-86937500D02*
X183008100Y-82853000D01*
X183008100Y-82853000D02*
X183008100Y-82054500D01*
X183008100Y-82054500D02*
X179725700Y-78772100D01*
X179725700Y-78772100D02*
X176751900Y-78772100D01*
X176751900Y-78772100D02*
X176022000Y-79502000D01*
X204556300Y-90287200D02*
X196476400Y-90287200D01*
X196476400Y-90287200D02*
X194104200Y-87915000D01*
X194104200Y-87915000D02*
X194104200Y-87573400D01*
X194820400Y-84563400D02*
X194436900Y-84946900D01*
X194436900Y-84946900D02*
X191127700Y-84946900D01*
X191127700Y-84946900D02*
X190940200Y-85134400D01*
X190940200Y-85134400D02*
X189406800Y-85134400D01*
X189406800Y-85134400D02*
X178680900Y-74408500D01*
X178680900Y-74408500D02*
X174721900Y-74408500D01*
X174721900Y-74408500D02*
X172041400Y-77089000D01*
X172041400Y-77089000D02*
X168402000Y-77089000D01*
X195163700Y-88023700D02*
X195163700Y-87748500D01*
X195163700Y-87748500D02*
X194163300Y-86748100D01*
X194163300Y-86748100D02*
X191874100Y-86748100D01*
X191874100Y-86748100D02*
X191686600Y-86935600D01*
X191686600Y-86935600D02*
X188660400Y-86935600D01*
X188660400Y-86935600D02*
X188212000Y-86487200D01*
X188212000Y-86487200D02*
X187279300Y-86487200D01*
X187279300Y-86487200D02*
X183458400Y-82666300D01*
X183458400Y-82666300D02*
X183458400Y-81867900D01*
X183458400Y-81867900D02*
X178552500Y-76962000D01*
X178552500Y-76962000D02*
X176022000Y-76962000D01*
X210271900Y-88566800D02*
X195706800Y-88566800D01*
X195706800Y-88566800D02*
X195163700Y-88023700D01*
X193077200Y-84211300D02*
X192791900Y-84496600D01*
X192791900Y-84496600D02*
X190537900Y-84496600D01*
X190537900Y-84496600D02*
X179549200Y-73507900D01*
X179549200Y-73507900D02*
X169367100Y-73507900D01*
X169367100Y-73507900D02*
X168402000Y-74473000D01*
X209342600Y-84446700D02*
X208792200Y-83896300D01*
X208792200Y-83896300D02*
X193392200Y-83896300D01*
X193392200Y-83896300D02*
X193077200Y-84211300D01*
X192265700Y-83871200D02*
X192090600Y-84046300D01*
X192090600Y-84046300D02*
X190724500Y-84046300D01*
X190724500Y-84046300D02*
X179489600Y-72811400D01*
X179489600Y-72811400D02*
X149571900Y-72811400D01*
X149571900Y-72811400D02*
X149002800Y-73380500D01*
X149002800Y-73380500D02*
X149002800Y-77882800D01*
X149002800Y-77882800D02*
X150622000Y-79502000D01*
X143002000Y-76962000D02*
X147602900Y-72361100D01*
X147602900Y-72361100D02*
X179701700Y-72361100D01*
X179701700Y-72361100D02*
X190761500Y-83420900D01*
X190761500Y-83420900D02*
X191245000Y-83420900D01*
X211043100Y-87569100D02*
X211043100Y-85262800D01*
X211043100Y-85262800D02*
X209026200Y-83245900D01*
X209026200Y-83245900D02*
X191420000Y-83245900D01*
X191420000Y-83245900D02*
X191245000Y-83420900D01*
X189642300Y-84485400D02*
X179115100Y-73958200D01*
X179115100Y-73958200D02*
X174535300Y-73958200D01*
X174535300Y-73958200D02*
X172889800Y-75603700D01*
X172889800Y-75603700D02*
X167098500Y-75603700D01*
X167098500Y-75603700D02*
X164787600Y-73292800D01*
X164787600Y-73292800D02*
X149760100Y-73292800D01*
X149760100Y-73292800D02*
X149484100Y-73568800D01*
X149484100Y-73568800D02*
X149484100Y-75824100D01*
X149484100Y-75824100D02*
X150622000Y-76962000D01*
X190546900Y-82322000D02*
X180132600Y-71907700D01*
X180132600Y-71907700D02*
X145516300Y-71907700D01*
X145516300Y-71907700D02*
X143002000Y-74422000D01*
X169226600Y-97082500D02*
X167979600Y-97082500D01*
X167979600Y-97082500D02*
X154432000Y-83534900D01*
X154432000Y-83534900D02*
X154432000Y-82042000D01*
X171357200Y-87025900D02*
X171357200Y-92944600D01*
X171357200Y-92944600D02*
X174085600Y-95673000D01*
X174085600Y-95673000D02*
X175089100Y-95673000D01*
X175089100Y-95673000D02*
X175795000Y-94967100D01*
X175795000Y-94967100D02*
X185423300Y-94967100D01*
X185423300Y-94967100D02*
X185869300Y-95413100D01*
X183319800Y-95592400D02*
X176240300Y-95592400D01*
X176240300Y-95592400D02*
X175709400Y-96123300D01*
X175709400Y-96123300D02*
X173832600Y-96123300D01*
X173832600Y-96123300D02*
X170252700Y-92543400D01*
X170252700Y-92543400D02*
X170252700Y-87093800D01*
X168634300Y-87276700D02*
X168073700Y-87837300D01*
X168073700Y-87837300D02*
X168073700Y-92329600D01*
X168073700Y-92329600D02*
X173253900Y-97509800D01*
X173253900Y-97509800D02*
X176458600Y-97509800D01*
X176458600Y-97509800D02*
X176855300Y-97113100D01*
X176855300Y-97113100D02*
X180661400Y-97113100D01*
X180661400Y-97113100D02*
X180877900Y-97329600D01*
X180877900Y-97329600D02*
X182728200Y-97329600D01*
X182728200Y-97329600D02*
X183885600Y-96172200D01*
X168891400Y-88727200D02*
X169677300Y-89513100D01*
X169677300Y-89513100D02*
X169677300Y-92636900D01*
X169677300Y-92636900D02*
X173614000Y-96573600D01*
X173614000Y-96573600D02*
X175896000Y-96573600D01*
X175896000Y-96573600D02*
X176291200Y-96178400D01*
X176291200Y-96178400D02*
X181247900Y-96178400D01*
X181247900Y-96178400D02*
X181323500Y-96254000D01*
X168729200Y-90271300D02*
X168729200Y-92347100D01*
X168729200Y-92347100D02*
X173420900Y-97038800D01*
X173420900Y-97038800D02*
X176292600Y-97038800D01*
X176292600Y-97038800D02*
X176698300Y-96633100D01*
X176698300Y-96633100D02*
X180818300Y-96633100D01*
X180818300Y-96633100D02*
X181064500Y-96879300D01*
X181064500Y-96879300D02*
X181900700Y-96879300D01*
X181900700Y-96879300D02*
X182085000Y-96695000D01*
X180612500Y-83889400D02*
X180883000Y-84159900D01*
X180883000Y-84159900D02*
X180883000Y-86544500D01*
X180883000Y-86544500D02*
X179522500Y-87905000D01*
X179522500Y-87905000D02*
X179522500Y-88588200D01*
X179522500Y-88588200D02*
X179522400Y-88588200D01*
X179891400Y-84881200D02*
X178169000Y-86603600D01*
X178169000Y-86603600D02*
X178169000Y-89018200D01*
X186257500Y-83944000D02*
X186257500Y-83393200D01*
X186257500Y-83393200D02*
X178210700Y-75346400D01*
X178210700Y-75346400D02*
X175057800Y-75346400D01*
X175057800Y-75346400D02*
X165679800Y-84724400D01*
X165679800Y-84724400D02*
X165679800Y-93351500D01*
X206057800Y-85033200D02*
X205243500Y-85847500D01*
X205243500Y-85847500D02*
X191500900Y-85847500D01*
X191500900Y-85847500D02*
X191313400Y-86035000D01*
X191313400Y-86035000D02*
X189033600Y-86035000D01*
X189033600Y-86035000D02*
X186942600Y-83944000D01*
X186942600Y-83944000D02*
X186257500Y-83944000D01*
X174722000Y-91176100D02*
X174185900Y-90640000D01*
X174185900Y-90640000D02*
X174185900Y-88335000D01*
X174185900Y-88335000D02*
X174644100Y-87876800D01*
X174644100Y-87876800D02*
X174644100Y-86562400D01*
X174828200Y-89925300D02*
X175349300Y-89404200D01*
X175349300Y-89404200D02*
X175349300Y-84981100D01*
X175349300Y-84981100D02*
X179401300Y-80929100D01*
X179401300Y-80929100D02*
X179401300Y-80533100D01*
X179401300Y-80533100D02*
X179576400Y-80358000D01*
X262890000Y-80010000D02*
X261364700Y-80010000D01*
X253213800Y-77824700D02*
X254129100Y-78740000D01*
X254129100Y-78740000D02*
X260094700Y-78740000D01*
X260094700Y-78740000D02*
X261364700Y-80010000D01*
X261364700Y-85090000D02*
X257410100Y-81135400D01*
X257410100Y-81135400D02*
X254290200Y-81135400D01*
X254290200Y-81135400D02*
X252529800Y-79375000D01*
X262890000Y-85090000D02*
X261364700Y-85090000D01*
X262890000Y-90170000D02*
X261364700Y-90170000D01*
X261364700Y-90170000D02*
X261364700Y-89121400D01*
X261364700Y-89121400D02*
X256063300Y-83820000D01*
X256063300Y-83820000D02*
X254366300Y-83820000D01*
X254366300Y-83820000D02*
X252461300Y-81915000D01*
X262890000Y-95250000D02*
X261364700Y-95250000D01*
X252263600Y-84455000D02*
X252263600Y-86617600D01*
X252263600Y-86617600D02*
X254401400Y-88755400D01*
X254401400Y-88755400D02*
X255918700Y-88755400D01*
X255918700Y-88755400D02*
X261364700Y-94201400D01*
X261364700Y-94201400D02*
X261364700Y-95250000D01*
X174643400Y-94597400D02*
X174643400Y-93727800D01*
X174643400Y-93727800D02*
X173198000Y-92282400D01*
X173198000Y-92282400D02*
X173198000Y-86248000D01*
X173198000Y-86248000D02*
X178776000Y-80670000D01*
X173863800Y-93909500D02*
X172747700Y-92793400D01*
X172747700Y-92793400D02*
X172747700Y-85214600D01*
X172747700Y-85214600D02*
X178528400Y-79433900D01*
X186269900Y-93452800D02*
X186269900Y-87407100D01*
X186269900Y-87407100D02*
X180730600Y-81867800D01*
X180730600Y-81867800D02*
X180571600Y-81867800D01*
X180571600Y-81867800D02*
X180004700Y-81300900D01*
X180004700Y-81300900D02*
X180004700Y-80814100D01*
X180004700Y-80814100D02*
X180201700Y-80617100D01*
X180201700Y-80617100D02*
X180201700Y-80098900D01*
X180201700Y-80098900D02*
X179610000Y-79507200D01*
X179610000Y-79507200D02*
X179576400Y-79507200D01*
X208960000Y-96177400D02*
X208960000Y-95945400D01*
X208960000Y-95945400D02*
X207709900Y-94695300D01*
X207709900Y-94695300D02*
X201108700Y-94695300D01*
X201108700Y-94695300D02*
X201008600Y-94595200D01*
X201008600Y-94595200D02*
X189642300Y-94595200D01*
X189642300Y-94595200D02*
X186999500Y-91952400D01*
X186999500Y-91952400D02*
X186999500Y-87499800D01*
X186999500Y-87499800D02*
X180649200Y-81149500D01*
X180649200Y-81149500D02*
X180649200Y-81054200D01*
D17*
X187724900Y-90270400D02*
X187724900Y-87662800D01*
X159186400Y-83011800D02*
X159186400Y-87256200D01*
X159186400Y-87256200D02*
X162389200Y-90459000D01*
X150622000Y-74422000D02*
X150622000Y-74447400D01*
X150622000Y-74447400D02*
X159186400Y-83011800D01*
X251272300Y-76910900D02*
X248656400Y-74295000D01*
X248656400Y-74295000D02*
X248116900Y-74295000D01*
X251272300Y-76910900D02*
X251272300Y-95383100D01*
X251272300Y-95383100D02*
X253679200Y-97790000D01*
X253679200Y-74930000D02*
X253253200Y-74930000D01*
X253253200Y-74930000D02*
X251272300Y-76910900D01*
X255270000Y-97790000D02*
X253679200Y-97790000D01*
X255270000Y-74930000D02*
X253679200Y-74930000D01*
X207249400Y-78162800D02*
X199411900Y-78162800D01*
X199411900Y-78162800D02*
X198838000Y-77588900D01*
X209281900Y-76130300D02*
X207249400Y-78162800D01*
X207249400Y-78162800D02*
X207249400Y-79480700D01*
X207249400Y-79480700D02*
X212417300Y-84648600D01*
X212417300Y-84648600D02*
X212417300Y-87690500D01*
X192544400Y-90134300D02*
X193413300Y-91003200D01*
X193413300Y-91003200D02*
X209293000Y-91003200D01*
X209293000Y-91003200D02*
X212417300Y-87878900D01*
X212417300Y-87878900D02*
X212417300Y-87690500D01*
X192361100Y-87923700D02*
X192361100Y-89951000D01*
X192361100Y-89951000D02*
X192544400Y-90134300D01*
X191373900Y-91304800D02*
X192544400Y-90134300D01*
D16*
X177633600Y-84751700D02*
X177543700Y-84841600D01*
X177543700Y-84841600D02*
X177543700Y-89321900D01*
X177543700Y-89321900D02*
X179969300Y-91747500D01*
X179969300Y-91747500D02*
X183113300Y-91747500D01*
X183113300Y-91747500D02*
X186924700Y-95558900D01*
X186924700Y-95558900D02*
X196033600Y-95558900D01*
X196033600Y-95558900D02*
X196052800Y-95578100D01*
X196052800Y-95578100D02*
X196572300Y-95058600D01*
X196572300Y-95058600D02*
X200835100Y-95058600D01*
X200835100Y-95058600D02*
X203620600Y-97844100D01*
X203620600Y-97844100D02*
X217532400Y-97844100D01*
X217532400Y-97844100D02*
X218433200Y-98744900D01*
D18*
G36*
X140897303Y-72810996D02*
G01*
X140868299Y-72834799D01*
X140831521Y-72879614D01*
X140773326Y-72950524D01*
X140711257Y-73066646D01*
X140702754Y-73082554D01*
X140659297Y-73225815D01*
X140648300Y-73337468D01*
X140648300Y-73337478D01*
X140644624Y-73374800D01*
X140648300Y-73412122D01*
X140648301Y-97640367D01*
X140644624Y-97677700D01*
X140648301Y-97715033D01*
X140659298Y-97826686D01*
X140672316Y-97869601D01*
X140702754Y-97969946D01*
X140773326Y-98101976D01*
X140840879Y-98184289D01*
X140868300Y-98217701D01*
X140897298Y-98241499D01*
X141591201Y-98935402D01*
X141614999Y-98964401D01*
X141730724Y-99059374D01*
X141862753Y-99129946D01*
X142006014Y-99173403D01*
X142117667Y-99184400D01*
X142117676Y-99184400D01*
X142154999Y-99188076D01*
X142192322Y-99184400D01*
X149442278Y-99184400D01*
X149479600Y-99188076D01*
X149516922Y-99184400D01*
X149516933Y-99184400D01*
X149628586Y-99173403D01*
X149771847Y-99129946D01*
X149903876Y-99059374D01*
X150019601Y-98964401D01*
X150043404Y-98935398D01*
X150258729Y-98720072D01*
X151222000Y-98720072D01*
X151385500Y-98703969D01*
X151542716Y-98656278D01*
X151687608Y-98578831D01*
X151814606Y-98474606D01*
X151918831Y-98347608D01*
X151996278Y-98202716D01*
X152043969Y-98045500D01*
X152060072Y-97882000D01*
X152060072Y-97254873D01*
X155622501Y-100817303D01*
X155646299Y-100846301D01*
X155675297Y-100870099D01*
X155762024Y-100941274D01*
X155894053Y-101011846D01*
X156037314Y-101055303D01*
X156186300Y-101069977D01*
X156223633Y-101066300D01*
X197525978Y-101066300D01*
X197563300Y-101069976D01*
X197600622Y-101066300D01*
X197600633Y-101066300D01*
X197712286Y-101055303D01*
X197855547Y-101011846D01*
X197987576Y-100941274D01*
X198103301Y-100846301D01*
X198127104Y-100817297D01*
X200460800Y-98483602D01*
X202399101Y-100421903D01*
X202422899Y-100450901D01*
X202538624Y-100545874D01*
X202670653Y-100616446D01*
X202813914Y-100659903D01*
X202925567Y-100670900D01*
X202925575Y-100670900D01*
X202962900Y-100674576D01*
X203000225Y-100670900D01*
X219811678Y-100670900D01*
X219849000Y-100674576D01*
X219886322Y-100670900D01*
X219886333Y-100670900D01*
X219997986Y-100659903D01*
X220141247Y-100616446D01*
X220273276Y-100545874D01*
X220389001Y-100450901D01*
X220412803Y-100421898D01*
X221715509Y-99119194D01*
X221744501Y-99095401D01*
X221768295Y-99066408D01*
X221768299Y-99066404D01*
X221839473Y-98979677D01*
X221839474Y-98979676D01*
X221910046Y-98847647D01*
X221953503Y-98704386D01*
X221964500Y-98592733D01*
X221964500Y-98592724D01*
X221968176Y-98555401D01*
X221964500Y-98518078D01*
X221964500Y-98139039D01*
X253478096Y-98139039D01*
X253495633Y-98221818D01*
X253606285Y-98481646D01*
X253765500Y-98714895D01*
X253967161Y-98912601D01*
X254203517Y-99067166D01*
X254465486Y-99172650D01*
X254743000Y-99225000D01*
X255143000Y-99225000D01*
X255143000Y-97917000D01*
X255397000Y-97917000D01*
X255397000Y-99225000D01*
X255797000Y-99225000D01*
X256074514Y-99172650D01*
X256336483Y-99067166D01*
X256572839Y-98912601D01*
X256774500Y-98714895D01*
X256933715Y-98481646D01*
X257044367Y-98221818D01*
X257061904Y-98139039D01*
X256939915Y-97917000D01*
X255397000Y-97917000D01*
X255143000Y-97917000D01*
X253600085Y-97917000D01*
X253478096Y-98139039D01*
X221964500Y-98139039D01*
X221964500Y-96743635D01*
X222033086Y-96640989D01*
X222103568Y-96470829D01*
X222139500Y-96290189D01*
X222139500Y-96106011D01*
X222103568Y-95925371D01*
X222033086Y-95755211D01*
X221930762Y-95602072D01*
X221800528Y-95471838D01*
X221647389Y-95369514D01*
X221477229Y-95299032D01*
X221296589Y-95263100D01*
X221112411Y-95263100D01*
X220931771Y-95299032D01*
X220761611Y-95369514D01*
X220608472Y-95471838D01*
X220478238Y-95602072D01*
X220375914Y-95755211D01*
X220305432Y-95925371D01*
X220269500Y-96106011D01*
X220269500Y-96290189D01*
X220305432Y-96470829D01*
X220375914Y-96640989D01*
X220444501Y-96743637D01*
X220444500Y-97873808D01*
X220382029Y-97847932D01*
X220201389Y-97812000D01*
X220017211Y-97812000D01*
X219836571Y-97847932D01*
X219666411Y-97918414D01*
X219513272Y-98020738D01*
X219383038Y-98150972D01*
X219280714Y-98304111D01*
X219271685Y-98325909D01*
X219261786Y-98302011D01*
X219159462Y-98148872D01*
X219029228Y-98018638D01*
X218876089Y-97916314D01*
X218705929Y-97845832D01*
X218584849Y-97821747D01*
X218096203Y-97333102D01*
X218072401Y-97304099D01*
X217956676Y-97209126D01*
X217824647Y-97138554D01*
X217681386Y-97095097D01*
X217569733Y-97084100D01*
X217569722Y-97084100D01*
X217532400Y-97080424D01*
X217495078Y-97084100D01*
X214904401Y-97084100D01*
X228227703Y-83760799D01*
X228256701Y-83737001D01*
X228351674Y-83621276D01*
X228422246Y-83489247D01*
X228465703Y-83345986D01*
X228476700Y-83234333D01*
X228476700Y-83234324D01*
X228480376Y-83197001D01*
X228476700Y-83159678D01*
X228476700Y-78148022D01*
X228480376Y-78110699D01*
X228476700Y-78073376D01*
X228476700Y-78073367D01*
X228465703Y-77961714D01*
X228422246Y-77818453D01*
X228409467Y-77794546D01*
X228351674Y-77686423D01*
X228280499Y-77599697D01*
X228256701Y-77570699D01*
X228227704Y-77546902D01*
X228006072Y-77325270D01*
X228006072Y-76362000D01*
X227989969Y-76198500D01*
X227942278Y-76041284D01*
X227864831Y-75896392D01*
X227760606Y-75769394D01*
X227633608Y-75665169D01*
X227488716Y-75587722D01*
X227331500Y-75540031D01*
X227168000Y-75523928D01*
X225968000Y-75523928D01*
X225804500Y-75540031D01*
X225647284Y-75587722D01*
X225502392Y-75665169D01*
X225375394Y-75769394D01*
X225271169Y-75896392D01*
X225193722Y-76041284D01*
X225146031Y-76198500D01*
X225129928Y-76362000D01*
X225129928Y-77562000D01*
X225146031Y-77725500D01*
X225193722Y-77882716D01*
X225271169Y-78027608D01*
X225375394Y-78154606D01*
X225469698Y-78232000D01*
X225375394Y-78309394D01*
X225271169Y-78436392D01*
X225193722Y-78581284D01*
X225146031Y-78738500D01*
X225129928Y-78902000D01*
X225129928Y-79865270D01*
X219708000Y-85287199D01*
X219708000Y-78384314D01*
X219711500Y-78383969D01*
X219868716Y-78336278D01*
X220013608Y-78258831D01*
X220140606Y-78154606D01*
X220244831Y-78027608D01*
X220322278Y-77882716D01*
X220369969Y-77725500D01*
X220386072Y-77562000D01*
X220386072Y-76362000D01*
X220369969Y-76198500D01*
X220322278Y-76041284D01*
X220244831Y-75896392D01*
X220140606Y-75769394D01*
X220046302Y-75692000D01*
X220140606Y-75614606D01*
X220244831Y-75487608D01*
X220322278Y-75342716D01*
X220369969Y-75185500D01*
X220386072Y-75022000D01*
X220386072Y-74130000D01*
X253431928Y-74130000D01*
X253435000Y-74644250D01*
X253593750Y-74803000D01*
X255143000Y-74803000D01*
X255143000Y-73653750D01*
X255397000Y-73653750D01*
X255397000Y-74803000D01*
X256946250Y-74803000D01*
X257105000Y-74644250D01*
X257108072Y-74130000D01*
X257095812Y-74005518D01*
X257059502Y-73885820D01*
X257000537Y-73775506D01*
X256921185Y-73678815D01*
X256824494Y-73599463D01*
X256714180Y-73540498D01*
X256594482Y-73504188D01*
X256470000Y-73491928D01*
X255555750Y-73495000D01*
X255397000Y-73653750D01*
X255143000Y-73653750D01*
X254984250Y-73495000D01*
X254070000Y-73491928D01*
X253945518Y-73504188D01*
X253825820Y-73540498D01*
X253715506Y-73599463D01*
X253618815Y-73678815D01*
X253539463Y-73775506D01*
X253480498Y-73885820D01*
X253444188Y-74005518D01*
X253431928Y-74130000D01*
X220386072Y-74130000D01*
X220386072Y-73822000D01*
X220369969Y-73658500D01*
X220322278Y-73501284D01*
X220244831Y-73356392D01*
X220140606Y-73229394D01*
X220013608Y-73125169D01*
X219868716Y-73047722D01*
X219711500Y-73000031D01*
X219548000Y-72983928D01*
X218348000Y-72983928D01*
X218184500Y-73000031D01*
X218027284Y-73047722D01*
X217882392Y-73125169D01*
X217755394Y-73229394D01*
X217651169Y-73356392D01*
X217573722Y-73501284D01*
X217526031Y-73658500D01*
X217509928Y-73822000D01*
X217509928Y-74785271D01*
X217305398Y-74989801D01*
X217276400Y-75013599D01*
X217252602Y-75042597D01*
X217252601Y-75042598D01*
X217181426Y-75129324D01*
X217110854Y-75261354D01*
X217091135Y-75326363D01*
X217067398Y-75404614D01*
X217056401Y-75516267D01*
X217052724Y-75553600D01*
X217056401Y-75590932D01*
X217056400Y-77624499D01*
X210043901Y-70612000D01*
X223348620Y-70612000D01*
X224300388Y-71563769D01*
X224321052Y-71588948D01*
X224346231Y-71609612D01*
X224346233Y-71609614D01*
X224421549Y-71671425D01*
X224461487Y-71692772D01*
X224536207Y-71732710D01*
X224610702Y-71755308D01*
X224700197Y-71844803D01*
X224719443Y-71860597D01*
X224741399Y-71872333D01*
X224765224Y-71879560D01*
X224790000Y-71882000D01*
X263988620Y-71882000D01*
X264174400Y-72067781D01*
X264668000Y-73054980D01*
X264668000Y-74529235D01*
X264622182Y-74378192D01*
X264488932Y-74128899D01*
X264309608Y-73910392D01*
X264091101Y-73731068D01*
X263841808Y-73597818D01*
X263571309Y-73515764D01*
X263360492Y-73495000D01*
X262419508Y-73495000D01*
X262208691Y-73515764D01*
X261938192Y-73597818D01*
X261688899Y-73731068D01*
X261470392Y-73910392D01*
X261291068Y-74128899D01*
X261157818Y-74378192D01*
X261075764Y-74648691D01*
X261048057Y-74930000D01*
X261075764Y-75211309D01*
X261157818Y-75481808D01*
X261291068Y-75731101D01*
X261470392Y-75949608D01*
X261688899Y-76128932D01*
X261821858Y-76200000D01*
X261688899Y-76271068D01*
X261470392Y-76450392D01*
X261291068Y-76668899D01*
X261157818Y-76918192D01*
X261075764Y-77188691D01*
X261048057Y-77470000D01*
X261075764Y-77751309D01*
X261157818Y-78021808D01*
X261291068Y-78271101D01*
X261470392Y-78489608D01*
X261688899Y-78668932D01*
X261821858Y-78740000D01*
X261688899Y-78811068D01*
X261470392Y-78990392D01*
X261447630Y-79018128D01*
X260658504Y-78229003D01*
X260634701Y-78199999D01*
X260518976Y-78105026D01*
X260386947Y-78034454D01*
X260243686Y-77990997D01*
X260132033Y-77980000D01*
X260132022Y-77980000D01*
X260094700Y-77976324D01*
X260057378Y-77980000D01*
X257014864Y-77980000D01*
X257084236Y-77751309D01*
X257111943Y-77470000D01*
X257084236Y-77188691D01*
X257002182Y-76918192D01*
X256868932Y-76668899D01*
X256689608Y-76450392D01*
X256576518Y-76357581D01*
X256594482Y-76355812D01*
X256714180Y-76319502D01*
X256824494Y-76260537D01*
X256921185Y-76181185D01*
X257000537Y-76084494D01*
X257059502Y-75974180D01*
X257095812Y-75854482D01*
X257108072Y-75730000D01*
X257105000Y-75215750D01*
X256946250Y-75057000D01*
X255397000Y-75057000D01*
X255397000Y-75077000D01*
X255143000Y-75077000D01*
X255143000Y-75057000D01*
X253593750Y-75057000D01*
X253435000Y-75215750D01*
X253431928Y-75730000D01*
X253444188Y-75854482D01*
X253480498Y-75974180D01*
X253539463Y-76084494D01*
X253618815Y-76181185D01*
X253715506Y-76260537D01*
X253825820Y-76319502D01*
X253945518Y-76355812D01*
X253963482Y-76357581D01*
X253850392Y-76450392D01*
X253671068Y-76668899D01*
X253537818Y-76918192D01*
X253530088Y-76943675D01*
X253486529Y-76925632D01*
X253305889Y-76889700D01*
X253121711Y-76889700D01*
X252941071Y-76925632D01*
X252770911Y-76996114D01*
X252617772Y-77098438D01*
X252487538Y-77228672D01*
X252385214Y-77381811D01*
X252314732Y-77551971D01*
X252278800Y-77732611D01*
X252278800Y-77916789D01*
X252314732Y-78097429D01*
X252385214Y-78267589D01*
X252487538Y-78420728D01*
X252506810Y-78440000D01*
X252437711Y-78440000D01*
X252257071Y-78475932D01*
X252086911Y-78546414D01*
X251933772Y-78648738D01*
X251803538Y-78778972D01*
X251701214Y-78932111D01*
X251630732Y-79102271D01*
X251594800Y-79282911D01*
X251594800Y-79467089D01*
X251630732Y-79647729D01*
X251701214Y-79817889D01*
X251803538Y-79971028D01*
X251933772Y-80101262D01*
X252086911Y-80203586D01*
X252257071Y-80274068D01*
X252378151Y-80298153D01*
X253726400Y-81646402D01*
X253740793Y-81663939D01*
X253671068Y-81748899D01*
X253566198Y-81945097D01*
X253384453Y-81763352D01*
X253360368Y-81642271D01*
X253289886Y-81472111D01*
X253187562Y-81318972D01*
X253057328Y-81188738D01*
X252904189Y-81086414D01*
X252734029Y-81015932D01*
X252553389Y-80980000D01*
X252369211Y-80980000D01*
X252188571Y-81015932D01*
X252018411Y-81086414D01*
X251865272Y-81188738D01*
X251735038Y-81318972D01*
X251632714Y-81472111D01*
X251562232Y-81642271D01*
X251526300Y-81822911D01*
X251526300Y-82007089D01*
X251562232Y-82187729D01*
X251632714Y-82357889D01*
X251735038Y-82511028D01*
X251865272Y-82641262D01*
X252018411Y-82743586D01*
X252188571Y-82814068D01*
X252309652Y-82838153D01*
X253711333Y-84239835D01*
X253671068Y-84288899D01*
X253537818Y-84538192D01*
X253455764Y-84808691D01*
X253428057Y-85090000D01*
X253455764Y-85371309D01*
X253537818Y-85641808D01*
X253671068Y-85891101D01*
X253850392Y-86109608D01*
X254068899Y-86288932D01*
X254201858Y-86360000D01*
X254068899Y-86431068D01*
X253850392Y-86610392D01*
X253671068Y-86828899D01*
X253628792Y-86907991D01*
X253023600Y-86302799D01*
X253023600Y-85000535D01*
X253092186Y-84897889D01*
X253162668Y-84727729D01*
X253198600Y-84547089D01*
X253198600Y-84362911D01*
X253162668Y-84182271D01*
X253092186Y-84012111D01*
X252989862Y-83858972D01*
X252859628Y-83728738D01*
X252706489Y-83626414D01*
X252536329Y-83555932D01*
X252355689Y-83520000D01*
X252171511Y-83520000D01*
X251990871Y-83555932D01*
X251820711Y-83626414D01*
X251667572Y-83728738D01*
X251537338Y-83858972D01*
X251435014Y-84012111D01*
X251364532Y-84182271D01*
X251328600Y-84362911D01*
X251328600Y-84547089D01*
X251364532Y-84727729D01*
X251435014Y-84897889D01*
X251503600Y-85000536D01*
X251503601Y-86580268D01*
X251499924Y-86617600D01*
X251503601Y-86654933D01*
X251514598Y-86766586D01*
X251524332Y-86798676D01*
X251558054Y-86909846D01*
X251628626Y-87041876D01*
X251699801Y-87128602D01*
X251723600Y-87157601D01*
X251752598Y-87181399D01*
X253792334Y-89221136D01*
X253671068Y-89368899D01*
X253537818Y-89618192D01*
X253455764Y-89888691D01*
X253428057Y-90170000D01*
X253455764Y-90451309D01*
X253537818Y-90721808D01*
X253671068Y-90971101D01*
X253850392Y-91189608D01*
X254068899Y-91368932D01*
X254201858Y-91440000D01*
X254068899Y-91511068D01*
X253850392Y-91690392D01*
X253671068Y-91908899D01*
X253537818Y-92158192D01*
X253455764Y-92428691D01*
X253428057Y-92710000D01*
X253455764Y-92991309D01*
X253537818Y-93261808D01*
X253671068Y-93511101D01*
X253850392Y-93729608D01*
X254068899Y-93908932D01*
X254201858Y-93980000D01*
X254068899Y-94051068D01*
X253850392Y-94230392D01*
X253671068Y-94448899D01*
X253537818Y-94698192D01*
X253455764Y-94968691D01*
X253428057Y-95250000D01*
X253455764Y-95531309D01*
X253537818Y-95801808D01*
X253671068Y-96051101D01*
X253850392Y-96269608D01*
X254068899Y-96448932D01*
X254196741Y-96517265D01*
X253967161Y-96667399D01*
X253765500Y-96865105D01*
X253606285Y-97098354D01*
X253495633Y-97358182D01*
X253478096Y-97440961D01*
X253600085Y-97663000D01*
X255143000Y-97663000D01*
X255143000Y-97643000D01*
X255397000Y-97643000D01*
X255397000Y-97663000D01*
X256939915Y-97663000D01*
X257061904Y-97440961D01*
X257044367Y-97358182D01*
X256933715Y-97098354D01*
X256774500Y-96865105D01*
X256572839Y-96667399D01*
X256343259Y-96517265D01*
X256471101Y-96448932D01*
X256689608Y-96269608D01*
X256868932Y-96051101D01*
X257002182Y-95801808D01*
X257084236Y-95531309D01*
X257111943Y-95250000D01*
X257084236Y-94968691D01*
X257002182Y-94698192D01*
X256868932Y-94448899D01*
X256689608Y-94230392D01*
X256471101Y-94051068D01*
X256338142Y-93980000D01*
X256471101Y-93908932D01*
X256689608Y-93729608D01*
X256868932Y-93511101D01*
X257002182Y-93261808D01*
X257084236Y-92991309D01*
X257111943Y-92710000D01*
X257084236Y-92428691D01*
X257002182Y-92158192D01*
X256868932Y-91908899D01*
X256689608Y-91690392D01*
X256471101Y-91511068D01*
X256338142Y-91440000D01*
X256471101Y-91368932D01*
X256689608Y-91189608D01*
X256868932Y-90971101D01*
X256935347Y-90846848D01*
X260604700Y-94516202D01*
X260604701Y-95212658D01*
X260601023Y-95250000D01*
X260615697Y-95398986D01*
X260659154Y-95542247D01*
X260729726Y-95674276D01*
X260824699Y-95790001D01*
X260940424Y-95884974D01*
X261072453Y-95955546D01*
X261215714Y-95999003D01*
X261265861Y-96003942D01*
X261291068Y-96051101D01*
X261470392Y-96269608D01*
X261688899Y-96448932D01*
X261821858Y-96520000D01*
X261688899Y-96591068D01*
X261470392Y-96770392D01*
X261291068Y-96988899D01*
X261157818Y-97238192D01*
X261075764Y-97508691D01*
X261048057Y-97790000D01*
X261075764Y-98071309D01*
X261157818Y-98341808D01*
X261291068Y-98591101D01*
X261470392Y-98809608D01*
X261688899Y-98988932D01*
X261938192Y-99122182D01*
X262208691Y-99204236D01*
X262419508Y-99225000D01*
X263360492Y-99225000D01*
X263571309Y-99204236D01*
X263841808Y-99122182D01*
X264091101Y-98988932D01*
X264309608Y-98809608D01*
X264488932Y-98591101D01*
X264622182Y-98341808D01*
X264668000Y-98190765D01*
X264668000Y-99642394D01*
X263472394Y-100838000D01*
X224155000Y-100838000D01*
X224130224Y-100840440D01*
X224106399Y-100847667D01*
X224084443Y-100859403D01*
X224065197Y-100875197D01*
X222832394Y-102108000D01*
X141657606Y-102108000D01*
X140462000Y-100912394D01*
X140462000Y-71807606D01*
X141657606Y-70612000D01*
X143096297Y-70612000D01*
X140897303Y-72810996D01*
X140897303Y-72810996D01*
G37*
X140897303Y-72810996D02*
X140868299Y-72834799D01*
X140831521Y-72879614D01*
X140773326Y-72950524D01*
X140711257Y-73066646D01*
X140702754Y-73082554D01*
X140659297Y-73225815D01*
X140648300Y-73337468D01*
X140648300Y-73337478D01*
X140644624Y-73374800D01*
X140648300Y-73412122D01*
X140648301Y-97640367D01*
X140644624Y-97677700D01*
X140648301Y-97715033D01*
X140659298Y-97826686D01*
X140672316Y-97869601D01*
X140702754Y-97969946D01*
X140773326Y-98101976D01*
X140840879Y-98184289D01*
X140868300Y-98217701D01*
X140897298Y-98241499D01*
X141591201Y-98935402D01*
X141614999Y-98964401D01*
X141730724Y-99059374D01*
X141862753Y-99129946D01*
X142006014Y-99173403D01*
X142117667Y-99184400D01*
X142117676Y-99184400D01*
X142154999Y-99188076D01*
X142192322Y-99184400D01*
X149442278Y-99184400D01*
X149479600Y-99188076D01*
X149516922Y-99184400D01*
X149516933Y-99184400D01*
X149628586Y-99173403D01*
X149771847Y-99129946D01*
X149903876Y-99059374D01*
X150019601Y-98964401D01*
X150043404Y-98935398D01*
X150258729Y-98720072D01*
X151222000Y-98720072D01*
X151385500Y-98703969D01*
X151542716Y-98656278D01*
X151687608Y-98578831D01*
X151814606Y-98474606D01*
X151918831Y-98347608D01*
X151996278Y-98202716D01*
X152043969Y-98045500D01*
X152060072Y-97882000D01*
X152060072Y-97254873D01*
X155622501Y-100817303D01*
X155646299Y-100846301D01*
X155675297Y-100870099D01*
X155762024Y-100941274D01*
X155894053Y-101011846D01*
X156037314Y-101055303D01*
X156186300Y-101069977D01*
X156223633Y-101066300D01*
X197525978Y-101066300D01*
X197563300Y-101069976D01*
X197600622Y-101066300D01*
X197600633Y-101066300D01*
X197712286Y-101055303D01*
X197855547Y-101011846D01*
X197987576Y-100941274D01*
X198103301Y-100846301D01*
X198127104Y-100817297D01*
X200460800Y-98483602D01*
X202399101Y-100421903D01*
X202422899Y-100450901D01*
X202538624Y-100545874D01*
X202670653Y-100616446D01*
X202813914Y-100659903D01*
X202925567Y-100670900D01*
X202925575Y-100670900D01*
X202962900Y-100674576D01*
X203000225Y-100670900D01*
X219811678Y-100670900D01*
X219849000Y-100674576D01*
X219886322Y-100670900D01*
X219886333Y-100670900D01*
X219997986Y-100659903D01*
X220141247Y-100616446D01*
X220273276Y-100545874D01*
X220389001Y-100450901D01*
X220412803Y-100421898D01*
X221715509Y-99119194D01*
X221744501Y-99095401D01*
X221768295Y-99066408D01*
X221768299Y-99066404D01*
X221839473Y-98979677D01*
X221839474Y-98979676D01*
X221910046Y-98847647D01*
X221953503Y-98704386D01*
X221964500Y-98592733D01*
X221964500Y-98592724D01*
X221968176Y-98555401D01*
X221964500Y-98518078D01*
X221964500Y-98139039D01*
X253478096Y-98139039D01*
X253495633Y-98221818D01*
X253606285Y-98481646D01*
X253765500Y-98714895D01*
X253967161Y-98912601D01*
X254203517Y-99067166D01*
X254465486Y-99172650D01*
X254743000Y-99225000D01*
X255143000Y-99225000D01*
X255143000Y-97917000D01*
X255397000Y-97917000D01*
X255397000Y-99225000D01*
X255797000Y-99225000D01*
X256074514Y-99172650D01*
X256336483Y-99067166D01*
X256572839Y-98912601D01*
X256774500Y-98714895D01*
X256933715Y-98481646D01*
X257044367Y-98221818D01*
X257061904Y-98139039D01*
X256939915Y-97917000D01*
X255397000Y-97917000D01*
X255143000Y-97917000D01*
X253600085Y-97917000D01*
X253478096Y-98139039D01*
X221964500Y-98139039D01*
X221964500Y-96743635D01*
X222033086Y-96640989D01*
X222103568Y-96470829D01*
X222139500Y-96290189D01*
X222139500Y-96106011D01*
X222103568Y-95925371D01*
X222033086Y-95755211D01*
X221930762Y-95602072D01*
X221800528Y-95471838D01*
X221647389Y-95369514D01*
X221477229Y-95299032D01*
X221296589Y-95263100D01*
X221112411Y-95263100D01*
X220931771Y-95299032D01*
X220761611Y-95369514D01*
X220608472Y-95471838D01*
X220478238Y-95602072D01*
X220375914Y-95755211D01*
X220305432Y-95925371D01*
X220269500Y-96106011D01*
X220269500Y-96290189D01*
X220305432Y-96470829D01*
X220375914Y-96640989D01*
X220444501Y-96743637D01*
X220444500Y-97873808D01*
X220382029Y-97847932D01*
X220201389Y-97812000D01*
X220017211Y-97812000D01*
X219836571Y-97847932D01*
X219666411Y-97918414D01*
X219513272Y-98020738D01*
X219383038Y-98150972D01*
X219280714Y-98304111D01*
X219271685Y-98325909D01*
X219261786Y-98302011D01*
X219159462Y-98148872D01*
X219029228Y-98018638D01*
X218876089Y-97916314D01*
X218705929Y-97845832D01*
X218584849Y-97821747D01*
X218096203Y-97333102D01*
X218072401Y-97304099D01*
X217956676Y-97209126D01*
X217824647Y-97138554D01*
X217681386Y-97095097D01*
X217569733Y-97084100D01*
X217569722Y-97084100D01*
X217532400Y-97080424D01*
X217495078Y-97084100D01*
X214904401Y-97084100D01*
X228227703Y-83760799D01*
X228256701Y-83737001D01*
X228351674Y-83621276D01*
X228422246Y-83489247D01*
X228465703Y-83345986D01*
X228476700Y-83234333D01*
X228476700Y-83234324D01*
X228480376Y-83197001D01*
X228476700Y-83159678D01*
X228476700Y-78148022D01*
X228480376Y-78110699D01*
X228476700Y-78073376D01*
X228476700Y-78073367D01*
X228465703Y-77961714D01*
X228422246Y-77818453D01*
X228409467Y-77794546D01*
X228351674Y-77686423D01*
X228280499Y-77599697D01*
X228256701Y-77570699D01*
X228227704Y-77546902D01*
X228006072Y-77325270D01*
X228006072Y-76362000D01*
X227989969Y-76198500D01*
X227942278Y-76041284D01*
X227864831Y-75896392D01*
X227760606Y-75769394D01*
X227633608Y-75665169D01*
X227488716Y-75587722D01*
X227331500Y-75540031D01*
X227168000Y-75523928D01*
X225968000Y-75523928D01*
X225804500Y-75540031D01*
X225647284Y-75587722D01*
X225502392Y-75665169D01*
X225375394Y-75769394D01*
X225271169Y-75896392D01*
X225193722Y-76041284D01*
X225146031Y-76198500D01*
X225129928Y-76362000D01*
X225129928Y-77562000D01*
X225146031Y-77725500D01*
X225193722Y-77882716D01*
X225271169Y-78027608D01*
X225375394Y-78154606D01*
X225469698Y-78232000D01*
X225375394Y-78309394D01*
X225271169Y-78436392D01*
X225193722Y-78581284D01*
X225146031Y-78738500D01*
X225129928Y-78902000D01*
X225129928Y-79865270D01*
X219708000Y-85287199D01*
X219708000Y-78384314D01*
X219711500Y-78383969D01*
X219868716Y-78336278D01*
X220013608Y-78258831D01*
X220140606Y-78154606D01*
X220244831Y-78027608D01*
X220322278Y-77882716D01*
X220369969Y-77725500D01*
X220386072Y-77562000D01*
X220386072Y-76362000D01*
X220369969Y-76198500D01*
X220322278Y-76041284D01*
X220244831Y-75896392D01*
X220140606Y-75769394D01*
X220046302Y-75692000D01*
X220140606Y-75614606D01*
X220244831Y-75487608D01*
X220322278Y-75342716D01*
X220369969Y-75185500D01*
X220386072Y-75022000D01*
X220386072Y-74130000D01*
X253431928Y-74130000D01*
X253435000Y-74644250D01*
X253593750Y-74803000D01*
X255143000Y-74803000D01*
X255143000Y-73653750D01*
X255397000Y-73653750D01*
X255397000Y-74803000D01*
X256946250Y-74803000D01*
X257105000Y-74644250D01*
X257108072Y-74130000D01*
X257095812Y-74005518D01*
X257059502Y-73885820D01*
X257000537Y-73775506D01*
X256921185Y-73678815D01*
X256824494Y-73599463D01*
X256714180Y-73540498D01*
X256594482Y-73504188D01*
X256470000Y-73491928D01*
X255555750Y-73495000D01*
X255397000Y-73653750D01*
X255143000Y-73653750D01*
X254984250Y-73495000D01*
X254070000Y-73491928D01*
X253945518Y-73504188D01*
X253825820Y-73540498D01*
X253715506Y-73599463D01*
X253618815Y-73678815D01*
X253539463Y-73775506D01*
X253480498Y-73885820D01*
X253444188Y-74005518D01*
X253431928Y-74130000D01*
X220386072Y-74130000D01*
X220386072Y-73822000D01*
X220369969Y-73658500D01*
X220322278Y-73501284D01*
X220244831Y-73356392D01*
X220140606Y-73229394D01*
X220013608Y-73125169D01*
X219868716Y-73047722D01*
X219711500Y-73000031D01*
X219548000Y-72983928D01*
X218348000Y-72983928D01*
X218184500Y-73000031D01*
X218027284Y-73047722D01*
X217882392Y-73125169D01*
X217755394Y-73229394D01*
X217651169Y-73356392D01*
X217573722Y-73501284D01*
X217526031Y-73658500D01*
X217509928Y-73822000D01*
X217509928Y-74785271D01*
X217305398Y-74989801D01*
X217276400Y-75013599D01*
X217252602Y-75042597D01*
X217252601Y-75042598D01*
X217181426Y-75129324D01*
X217110854Y-75261354D01*
X217091135Y-75326363D01*
X217067398Y-75404614D01*
X217056401Y-75516267D01*
X217052724Y-75553600D01*
X217056401Y-75590932D01*
X217056400Y-77624499D01*
X210043901Y-70612000D01*
X223348620Y-70612000D01*
X224300388Y-71563769D01*
X224321052Y-71588948D01*
X224346231Y-71609612D01*
X224346233Y-71609614D01*
X224421549Y-71671425D01*
X224461487Y-71692772D01*
X224536207Y-71732710D01*
X224610702Y-71755308D01*
X224700197Y-71844803D01*
X224719443Y-71860597D01*
X224741399Y-71872333D01*
X224765224Y-71879560D01*
X224790000Y-71882000D01*
X263988620Y-71882000D01*
X264174400Y-72067781D01*
X264668000Y-73054980D01*
X264668000Y-74529235D01*
X264622182Y-74378192D01*
X264488932Y-74128899D01*
X264309608Y-73910392D01*
X264091101Y-73731068D01*
X263841808Y-73597818D01*
X263571309Y-73515764D01*
X263360492Y-73495000D01*
X262419508Y-73495000D01*
X262208691Y-73515764D01*
X261938192Y-73597818D01*
X261688899Y-73731068D01*
X261470392Y-73910392D01*
X261291068Y-74128899D01*
X261157818Y-74378192D01*
X261075764Y-74648691D01*
X261048057Y-74930000D01*
X261075764Y-75211309D01*
X261157818Y-75481808D01*
X261291068Y-75731101D01*
X261470392Y-75949608D01*
X261688899Y-76128932D01*
X261821858Y-76200000D01*
X261688899Y-76271068D01*
X261470392Y-76450392D01*
X261291068Y-76668899D01*
X261157818Y-76918192D01*
X261075764Y-77188691D01*
X261048057Y-77470000D01*
X261075764Y-77751309D01*
X261157818Y-78021808D01*
X261291068Y-78271101D01*
X261470392Y-78489608D01*
X261688899Y-78668932D01*
X261821858Y-78740000D01*
X261688899Y-78811068D01*
X261470392Y-78990392D01*
X261447630Y-79018128D01*
X260658504Y-78229003D01*
X260634701Y-78199999D01*
X260518976Y-78105026D01*
X260386947Y-78034454D01*
X260243686Y-77990997D01*
X260132033Y-77980000D01*
X260132022Y-77980000D01*
X260094700Y-77976324D01*
X260057378Y-77980000D01*
X257014864Y-77980000D01*
X257084236Y-77751309D01*
X257111943Y-77470000D01*
X257084236Y-77188691D01*
X257002182Y-76918192D01*
X256868932Y-76668899D01*
X256689608Y-76450392D01*
X256576518Y-76357581D01*
X256594482Y-76355812D01*
X256714180Y-76319502D01*
X256824494Y-76260537D01*
X256921185Y-76181185D01*
X257000537Y-76084494D01*
X257059502Y-75974180D01*
X257095812Y-75854482D01*
X257108072Y-75730000D01*
X257105000Y-75215750D01*
X256946250Y-75057000D01*
X255397000Y-75057000D01*
X255397000Y-75077000D01*
X255143000Y-75077000D01*
X255143000Y-75057000D01*
X253593750Y-75057000D01*
X253435000Y-75215750D01*
X253431928Y-75730000D01*
X253444188Y-75854482D01*
X253480498Y-75974180D01*
X253539463Y-76084494D01*
X253618815Y-76181185D01*
X253715506Y-76260537D01*
X253825820Y-76319502D01*
X253945518Y-76355812D01*
X253963482Y-76357581D01*
X253850392Y-76450392D01*
X253671068Y-76668899D01*
X253537818Y-76918192D01*
X253530088Y-76943675D01*
X253486529Y-76925632D01*
X253305889Y-76889700D01*
X253121711Y-76889700D01*
X252941071Y-76925632D01*
X252770911Y-76996114D01*
X252617772Y-77098438D01*
X252487538Y-77228672D01*
X252385214Y-77381811D01*
X252314732Y-77551971D01*
X252278800Y-77732611D01*
X252278800Y-77916789D01*
X252314732Y-78097429D01*
X252385214Y-78267589D01*
X252487538Y-78420728D01*
X252506810Y-78440000D01*
X252437711Y-78440000D01*
X252257071Y-78475932D01*
X252086911Y-78546414D01*
X251933772Y-78648738D01*
X251803538Y-78778972D01*
X251701214Y-78932111D01*
X251630732Y-79102271D01*
X251594800Y-79282911D01*
X251594800Y-79467089D01*
X251630732Y-79647729D01*
X251701214Y-79817889D01*
X251803538Y-79971028D01*
X251933772Y-80101262D01*
X252086911Y-80203586D01*
X252257071Y-80274068D01*
X252378151Y-80298153D01*
X253726400Y-81646402D01*
X253740793Y-81663939D01*
X253671068Y-81748899D01*
X253566198Y-81945097D01*
X253384453Y-81763352D01*
X253360368Y-81642271D01*
X253289886Y-81472111D01*
X253187562Y-81318972D01*
X253057328Y-81188738D01*
X252904189Y-81086414D01*
X252734029Y-81015932D01*
X252553389Y-80980000D01*
X252369211Y-80980000D01*
X252188571Y-81015932D01*
X252018411Y-81086414D01*
X251865272Y-81188738D01*
X251735038Y-81318972D01*
X251632714Y-81472111D01*
X251562232Y-81642271D01*
X251526300Y-81822911D01*
X251526300Y-82007089D01*
X251562232Y-82187729D01*
X251632714Y-82357889D01*
X251735038Y-82511028D01*
X251865272Y-82641262D01*
X252018411Y-82743586D01*
X252188571Y-82814068D01*
X252309652Y-82838153D01*
X253711333Y-84239835D01*
X253671068Y-84288899D01*
X253537818Y-84538192D01*
X253455764Y-84808691D01*
X253428057Y-85090000D01*
X253455764Y-85371309D01*
X253537818Y-85641808D01*
X253671068Y-85891101D01*
X253850392Y-86109608D01*
X254068899Y-86288932D01*
X254201858Y-86360000D01*
X254068899Y-86431068D01*
X253850392Y-86610392D01*
X253671068Y-86828899D01*
X253628792Y-86907991D01*
X253023600Y-86302799D01*
X253023600Y-85000535D01*
X253092186Y-84897889D01*
X253162668Y-84727729D01*
X253198600Y-84547089D01*
X253198600Y-84362911D01*
X253162668Y-84182271D01*
X253092186Y-84012111D01*
X252989862Y-83858972D01*
X252859628Y-83728738D01*
X252706489Y-83626414D01*
X252536329Y-83555932D01*
X252355689Y-83520000D01*
X252171511Y-83520000D01*
X251990871Y-83555932D01*
X251820711Y-83626414D01*
X251667572Y-83728738D01*
X251537338Y-83858972D01*
X251435014Y-84012111D01*
X251364532Y-84182271D01*
X251328600Y-84362911D01*
X251328600Y-84547089D01*
X251364532Y-84727729D01*
X251435014Y-84897889D01*
X251503600Y-85000536D01*
X251503601Y-86580268D01*
X251499924Y-86617600D01*
X251503601Y-86654933D01*
X251514598Y-86766586D01*
X251524332Y-86798676D01*
X251558054Y-86909846D01*
X251628626Y-87041876D01*
X251699801Y-87128602D01*
X251723600Y-87157601D01*
X251752598Y-87181399D01*
X253792334Y-89221136D01*
X253671068Y-89368899D01*
X253537818Y-89618192D01*
X253455764Y-89888691D01*
X253428057Y-90170000D01*
X253455764Y-90451309D01*
X253537818Y-90721808D01*
X253671068Y-90971101D01*
X253850392Y-91189608D01*
X254068899Y-91368932D01*
X254201858Y-91440000D01*
X254068899Y-91511068D01*
X253850392Y-91690392D01*
X253671068Y-91908899D01*
X253537818Y-92158192D01*
X253455764Y-92428691D01*
X253428057Y-92710000D01*
X253455764Y-92991309D01*
X253537818Y-93261808D01*
X253671068Y-93511101D01*
X253850392Y-93729608D01*
X254068899Y-93908932D01*
X254201858Y-93980000D01*
X254068899Y-94051068D01*
X253850392Y-94230392D01*
X253671068Y-94448899D01*
X253537818Y-94698192D01*
X253455764Y-94968691D01*
X253428057Y-95250000D01*
X253455764Y-95531309D01*
X253537818Y-95801808D01*
X253671068Y-96051101D01*
X253850392Y-96269608D01*
X254068899Y-96448932D01*
X254196741Y-96517265D01*
X253967161Y-96667399D01*
X253765500Y-96865105D01*
X253606285Y-97098354D01*
X253495633Y-97358182D01*
X253478096Y-97440961D01*
X253600085Y-97663000D01*
X255143000Y-97663000D01*
X255143000Y-97643000D01*
X255397000Y-97643000D01*
X255397000Y-97663000D01*
X256939915Y-97663000D01*
X257061904Y-97440961D01*
X257044367Y-97358182D01*
X256933715Y-97098354D01*
X256774500Y-96865105D01*
X256572839Y-96667399D01*
X256343259Y-96517265D01*
X256471101Y-96448932D01*
X256689608Y-96269608D01*
X256868932Y-96051101D01*
X257002182Y-95801808D01*
X257084236Y-95531309D01*
X257111943Y-95250000D01*
X257084236Y-94968691D01*
X257002182Y-94698192D01*
X256868932Y-94448899D01*
X256689608Y-94230392D01*
X256471101Y-94051068D01*
X256338142Y-93980000D01*
X256471101Y-93908932D01*
X256689608Y-93729608D01*
X256868932Y-93511101D01*
X257002182Y-93261808D01*
X257084236Y-92991309D01*
X257111943Y-92710000D01*
X257084236Y-92428691D01*
X257002182Y-92158192D01*
X256868932Y-91908899D01*
X256689608Y-91690392D01*
X256471101Y-91511068D01*
X256338142Y-91440000D01*
X256471101Y-91368932D01*
X256689608Y-91189608D01*
X256868932Y-90971101D01*
X256935347Y-90846848D01*
X260604700Y-94516202D01*
X260604701Y-95212658D01*
X260601023Y-95250000D01*
X260615697Y-95398986D01*
X260659154Y-95542247D01*
X260729726Y-95674276D01*
X260824699Y-95790001D01*
X260940424Y-95884974D01*
X261072453Y-95955546D01*
X261215714Y-95999003D01*
X261265861Y-96003942D01*
X261291068Y-96051101D01*
X261470392Y-96269608D01*
X261688899Y-96448932D01*
X261821858Y-96520000D01*
X261688899Y-96591068D01*
X261470392Y-96770392D01*
X261291068Y-96988899D01*
X261157818Y-97238192D01*
X261075764Y-97508691D01*
X261048057Y-97790000D01*
X261075764Y-98071309D01*
X261157818Y-98341808D01*
X261291068Y-98591101D01*
X261470392Y-98809608D01*
X261688899Y-98988932D01*
X261938192Y-99122182D01*
X262208691Y-99204236D01*
X262419508Y-99225000D01*
X263360492Y-99225000D01*
X263571309Y-99204236D01*
X263841808Y-99122182D01*
X264091101Y-98988932D01*
X264309608Y-98809608D01*
X264488932Y-98591101D01*
X264622182Y-98341808D01*
X264668000Y-98190765D01*
X264668000Y-99642394D01*
X263472394Y-100838000D01*
X224155000Y-100838000D01*
X224130224Y-100840440D01*
X224106399Y-100847667D01*
X224084443Y-100859403D01*
X224065197Y-100875197D01*
X222832394Y-102108000D01*
X141657606Y-102108000D01*
X140462000Y-100912394D01*
X140462000Y-71807606D01*
X141657606Y-70612000D01*
X143096297Y-70612000D01*
X140897303Y-72810996D01*
G36*
X166534701Y-76114703D02*
G01*
X166558499Y-76143701D01*
X166590583Y-76170032D01*
X166674223Y-76238674D01*
X166774226Y-76292127D01*
X166806253Y-76309246D01*
X166949514Y-76352703D01*
X166977084Y-76355418D01*
X166963928Y-76489000D01*
X166963928Y-77689000D01*
X166980031Y-77852500D01*
X167027722Y-78009716D01*
X167105169Y-78154608D01*
X167209394Y-78281606D01*
X167336392Y-78385831D01*
X167481284Y-78463278D01*
X167638500Y-78510969D01*
X167802000Y-78527072D01*
X169002000Y-78527072D01*
X169165500Y-78510969D01*
X169322716Y-78463278D01*
X169467608Y-78385831D01*
X169594606Y-78281606D01*
X169698831Y-78154608D01*
X169776278Y-78009716D01*
X169823969Y-77852500D01*
X169824314Y-77849000D01*
X170843498Y-77849000D01*
X163279503Y-85412996D01*
X163250499Y-85436799D01*
X163202736Y-85494999D01*
X163155526Y-85552524D01*
X163090464Y-85674246D01*
X163064238Y-85700472D01*
X162961914Y-85853611D01*
X162891432Y-86023771D01*
X162855500Y-86204411D01*
X162855500Y-86388589D01*
X162891432Y-86569229D01*
X162961914Y-86739389D01*
X163064238Y-86892528D01*
X163194472Y-87022762D01*
X163347611Y-87125086D01*
X163517771Y-87195568D01*
X163698411Y-87231500D01*
X163882589Y-87231500D01*
X164063229Y-87195568D01*
X164233389Y-87125086D01*
X164386528Y-87022762D01*
X164516762Y-86892528D01*
X164619086Y-86739389D01*
X164689568Y-86569229D01*
X164725500Y-86388589D01*
X164725500Y-86204411D01*
X164710931Y-86131170D01*
X164919800Y-85922301D01*
X164919801Y-92805963D01*
X164862949Y-92891048D01*
X155375826Y-83403925D01*
X155497608Y-83338831D01*
X155624606Y-83234606D01*
X155728831Y-83107608D01*
X155806278Y-82962716D01*
X155853969Y-82805500D01*
X155870072Y-82642000D01*
X155870072Y-81442000D01*
X155853969Y-81278500D01*
X155806278Y-81121284D01*
X155728831Y-80976392D01*
X155624606Y-80849394D01*
X155497608Y-80745169D01*
X155352716Y-80667722D01*
X155195500Y-80620031D01*
X155032000Y-80603928D01*
X153832000Y-80603928D01*
X153668500Y-80620031D01*
X153511284Y-80667722D01*
X153366392Y-80745169D01*
X153239394Y-80849394D01*
X153135169Y-80976392D01*
X153057722Y-81121284D01*
X153010031Y-81278500D01*
X152993928Y-81442000D01*
X152993928Y-82642000D01*
X153010031Y-82805500D01*
X153057722Y-82962716D01*
X153135169Y-83107608D01*
X153239394Y-83234606D01*
X153366392Y-83338831D01*
X153511284Y-83416278D01*
X153668500Y-83463969D01*
X153672000Y-83464314D01*
X153672000Y-83497577D01*
X153668324Y-83534900D01*
X153672000Y-83572222D01*
X153672000Y-83572232D01*
X153682997Y-83683885D01*
X153722587Y-83814398D01*
X153726454Y-83827146D01*
X153797026Y-83959176D01*
X153832744Y-84002698D01*
X153891999Y-84074901D01*
X153921003Y-84098704D01*
X167026398Y-97204100D01*
X166858902Y-97204100D01*
X152060072Y-82405271D01*
X152060072Y-81442000D01*
X152043969Y-81278500D01*
X151996278Y-81121284D01*
X151918831Y-80976392D01*
X151814606Y-80849394D01*
X151720302Y-80772000D01*
X151814606Y-80694606D01*
X151918831Y-80567608D01*
X151996278Y-80422716D01*
X152043969Y-80265500D01*
X152060072Y-80102000D01*
X152060072Y-78902000D01*
X152043969Y-78738500D01*
X151996278Y-78581284D01*
X151918831Y-78436392D01*
X151814606Y-78309394D01*
X151720302Y-78232000D01*
X151814606Y-78154606D01*
X151918831Y-78027608D01*
X151996278Y-77882716D01*
X152043969Y-77725500D01*
X152060072Y-77562000D01*
X152060072Y-76362000D01*
X152043969Y-76198500D01*
X151996278Y-76041284D01*
X151918831Y-75896392D01*
X151814606Y-75769394D01*
X151785280Y-75745327D01*
X151873185Y-75673185D01*
X151952537Y-75576494D01*
X152011502Y-75466180D01*
X152047812Y-75346482D01*
X152060072Y-75222000D01*
X152057000Y-74707750D01*
X151898250Y-74549000D01*
X150749000Y-74549000D01*
X150749000Y-74569000D01*
X150495000Y-74569000D01*
X150495000Y-74549000D01*
X150475000Y-74549000D01*
X150475000Y-74295000D01*
X150495000Y-74295000D01*
X150495000Y-74275000D01*
X150749000Y-74275000D01*
X150749000Y-74295000D01*
X151898250Y-74295000D01*
X152057000Y-74136250D01*
X152057499Y-74052800D01*
X164472799Y-74052800D01*
X166534701Y-76114703D01*
X166534701Y-76114703D01*
G37*
X166534701Y-76114703D02*
X166558499Y-76143701D01*
X166590583Y-76170032D01*
X166674223Y-76238674D01*
X166774226Y-76292127D01*
X166806253Y-76309246D01*
X166949514Y-76352703D01*
X166977084Y-76355418D01*
X166963928Y-76489000D01*
X166963928Y-77689000D01*
X166980031Y-77852500D01*
X167027722Y-78009716D01*
X167105169Y-78154608D01*
X167209394Y-78281606D01*
X167336392Y-78385831D01*
X167481284Y-78463278D01*
X167638500Y-78510969D01*
X167802000Y-78527072D01*
X169002000Y-78527072D01*
X169165500Y-78510969D01*
X169322716Y-78463278D01*
X169467608Y-78385831D01*
X169594606Y-78281606D01*
X169698831Y-78154608D01*
X169776278Y-78009716D01*
X169823969Y-77852500D01*
X169824314Y-77849000D01*
X170843498Y-77849000D01*
X163279503Y-85412996D01*
X163250499Y-85436799D01*
X163202736Y-85494999D01*
X163155526Y-85552524D01*
X163090464Y-85674246D01*
X163064238Y-85700472D01*
X162961914Y-85853611D01*
X162891432Y-86023771D01*
X162855500Y-86204411D01*
X162855500Y-86388589D01*
X162891432Y-86569229D01*
X162961914Y-86739389D01*
X163064238Y-86892528D01*
X163194472Y-87022762D01*
X163347611Y-87125086D01*
X163517771Y-87195568D01*
X163698411Y-87231500D01*
X163882589Y-87231500D01*
X164063229Y-87195568D01*
X164233389Y-87125086D01*
X164386528Y-87022762D01*
X164516762Y-86892528D01*
X164619086Y-86739389D01*
X164689568Y-86569229D01*
X164725500Y-86388589D01*
X164725500Y-86204411D01*
X164710931Y-86131170D01*
X164919800Y-85922301D01*
X164919801Y-92805963D01*
X164862949Y-92891048D01*
X155375826Y-83403925D01*
X155497608Y-83338831D01*
X155624606Y-83234606D01*
X155728831Y-83107608D01*
X155806278Y-82962716D01*
X155853969Y-82805500D01*
X155870072Y-82642000D01*
X155870072Y-81442000D01*
X155853969Y-81278500D01*
X155806278Y-81121284D01*
X155728831Y-80976392D01*
X155624606Y-80849394D01*
X155497608Y-80745169D01*
X155352716Y-80667722D01*
X155195500Y-80620031D01*
X155032000Y-80603928D01*
X153832000Y-80603928D01*
X153668500Y-80620031D01*
X153511284Y-80667722D01*
X153366392Y-80745169D01*
X153239394Y-80849394D01*
X153135169Y-80976392D01*
X153057722Y-81121284D01*
X153010031Y-81278500D01*
X152993928Y-81442000D01*
X152993928Y-82642000D01*
X153010031Y-82805500D01*
X153057722Y-82962716D01*
X153135169Y-83107608D01*
X153239394Y-83234606D01*
X153366392Y-83338831D01*
X153511284Y-83416278D01*
X153668500Y-83463969D01*
X153672000Y-83464314D01*
X153672000Y-83497577D01*
X153668324Y-83534900D01*
X153672000Y-83572222D01*
X153672000Y-83572232D01*
X153682997Y-83683885D01*
X153722587Y-83814398D01*
X153726454Y-83827146D01*
X153797026Y-83959176D01*
X153832744Y-84002698D01*
X153891999Y-84074901D01*
X153921003Y-84098704D01*
X167026398Y-97204100D01*
X166858902Y-97204100D01*
X152060072Y-82405271D01*
X152060072Y-81442000D01*
X152043969Y-81278500D01*
X151996278Y-81121284D01*
X151918831Y-80976392D01*
X151814606Y-80849394D01*
X151720302Y-80772000D01*
X151814606Y-80694606D01*
X151918831Y-80567608D01*
X151996278Y-80422716D01*
X152043969Y-80265500D01*
X152060072Y-80102000D01*
X152060072Y-78902000D01*
X152043969Y-78738500D01*
X151996278Y-78581284D01*
X151918831Y-78436392D01*
X151814606Y-78309394D01*
X151720302Y-78232000D01*
X151814606Y-78154606D01*
X151918831Y-78027608D01*
X151996278Y-77882716D01*
X152043969Y-77725500D01*
X152060072Y-77562000D01*
X152060072Y-76362000D01*
X152043969Y-76198500D01*
X151996278Y-76041284D01*
X151918831Y-75896392D01*
X151814606Y-75769394D01*
X151785280Y-75745327D01*
X151873185Y-75673185D01*
X151952537Y-75576494D01*
X152011502Y-75466180D01*
X152047812Y-75346482D01*
X152060072Y-75222000D01*
X152057000Y-74707750D01*
X151898250Y-74549000D01*
X150749000Y-74549000D01*
X150749000Y-74569000D01*
X150495000Y-74569000D01*
X150495000Y-74549000D01*
X150475000Y-74549000D01*
X150475000Y-74295000D01*
X150495000Y-74295000D01*
X150495000Y-74275000D01*
X150749000Y-74275000D01*
X150749000Y-74295000D01*
X151898250Y-74295000D01*
X152057000Y-74136250D01*
X152057499Y-74052800D01*
X164472799Y-74052800D01*
X166534701Y-76114703D01*
G36*
X187909996Y-87896897D02*
G01*
X187933799Y-87925901D01*
X188049524Y-88020874D01*
X188181553Y-88091446D01*
X188324814Y-88134903D01*
X188436467Y-88145900D01*
X188436476Y-88145900D01*
X188473799Y-88149576D01*
X188511122Y-88145900D01*
X191350021Y-88145900D01*
X191365874Y-88225598D01*
X191443895Y-88413956D01*
X191535600Y-88551203D01*
X191535601Y-89910440D01*
X191531606Y-89951000D01*
X191534176Y-89977091D01*
X191233896Y-90277372D01*
X191072002Y-90309574D01*
X190883644Y-90387595D01*
X190714126Y-90500863D01*
X190569963Y-90645026D01*
X190456695Y-90814544D01*
X190378674Y-91002902D01*
X190338900Y-91202861D01*
X190338900Y-91406739D01*
X190378674Y-91606698D01*
X190456695Y-91795056D01*
X190569963Y-91964574D01*
X190714126Y-92108737D01*
X190883644Y-92222005D01*
X191010822Y-92274684D01*
X190908672Y-92342938D01*
X190778438Y-92473172D01*
X190704051Y-92584500D01*
X190612211Y-92584500D01*
X190431571Y-92620432D01*
X190261411Y-92690914D01*
X190108272Y-92793238D01*
X189978038Y-92923472D01*
X189903651Y-93034800D01*
X189811811Y-93034800D01*
X189631171Y-93070732D01*
X189461011Y-93141214D01*
X189342381Y-93220480D01*
X187759500Y-91637599D01*
X187759500Y-87746401D01*
X187909996Y-87896897D01*
X187909996Y-87896897D01*
G37*
X187909996Y-87896897D02*
X187933799Y-87925901D01*
X188049524Y-88020874D01*
X188181553Y-88091446D01*
X188324814Y-88134903D01*
X188436467Y-88145900D01*
X188436476Y-88145900D01*
X188473799Y-88149576D01*
X188511122Y-88145900D01*
X191350021Y-88145900D01*
X191365874Y-88225598D01*
X191443895Y-88413956D01*
X191535600Y-88551203D01*
X191535601Y-89910440D01*
X191531606Y-89951000D01*
X191534176Y-89977091D01*
X191233896Y-90277372D01*
X191072002Y-90309574D01*
X190883644Y-90387595D01*
X190714126Y-90500863D01*
X190569963Y-90645026D01*
X190456695Y-90814544D01*
X190378674Y-91002902D01*
X190338900Y-91202861D01*
X190338900Y-91406739D01*
X190378674Y-91606698D01*
X190456695Y-91795056D01*
X190569963Y-91964574D01*
X190714126Y-92108737D01*
X190883644Y-92222005D01*
X191010822Y-92274684D01*
X190908672Y-92342938D01*
X190778438Y-92473172D01*
X190704051Y-92584500D01*
X190612211Y-92584500D01*
X190431571Y-92620432D01*
X190261411Y-92690914D01*
X190108272Y-92793238D01*
X189978038Y-92923472D01*
X189903651Y-93034800D01*
X189811811Y-93034800D01*
X189631171Y-93070732D01*
X189461011Y-93141214D01*
X189342381Y-93220480D01*
X187759500Y-91637599D01*
X187759500Y-87746401D01*
X187909996Y-87896897D01*
M02*
