G04 #@! TF.GenerationSoftware,KiCad,Pcbnew,(5.1.2-1)-1*
G04 #@! TF.CreationDate,2019-05-25T20:49:50+01:00*
G04 #@! TF.ProjectId,SRAM Board 2MB,5352414d-2042-46f6-9172-6420324d422e,rev?*
G04 #@! TF.SameCoordinates,Original*
G04 #@! TF.FileFunction,Copper,L3,Inr*
G04 #@! TF.FilePolarity,Positive*
%FSLAX46Y46*%
G04 Gerber Fmt 4.6, Leading zero omitted, Abs format (unit mm)*
G04 Created by KiCad (PCBNEW (5.1.2-1)-1) date 2019-05-25 20:49:50*
%MOMM*%
%LPD*%
G04 APERTURE LIST*
%ADD10C,0.100000*%
%ADD11C,1.600000*%
%ADD12O,2.400000X1.600000*%
%ADD13R,2.400000X1.600000*%
%ADD14C,0.800000*%
%ADD15C,0.250000*%
G04 APERTURE END LIST*
D10*
G36*
X151241603Y-96482963D02*
G01*
X151261018Y-96485843D01*
X151280057Y-96490612D01*
X151298537Y-96497224D01*
X151316279Y-96505616D01*
X151333114Y-96515706D01*
X151348879Y-96527398D01*
X151363421Y-96540579D01*
X151376602Y-96555121D01*
X151388294Y-96570886D01*
X151398384Y-96587721D01*
X151406776Y-96605463D01*
X151413388Y-96623943D01*
X151418157Y-96642982D01*
X151421037Y-96662397D01*
X151422000Y-96682000D01*
X151422000Y-97882000D01*
X151421037Y-97901603D01*
X151418157Y-97921018D01*
X151413388Y-97940057D01*
X151406776Y-97958537D01*
X151398384Y-97976279D01*
X151388294Y-97993114D01*
X151376602Y-98008879D01*
X151363421Y-98023421D01*
X151348879Y-98036602D01*
X151333114Y-98048294D01*
X151316279Y-98058384D01*
X151298537Y-98066776D01*
X151280057Y-98073388D01*
X151261018Y-98078157D01*
X151241603Y-98081037D01*
X151222000Y-98082000D01*
X150022000Y-98082000D01*
X150002397Y-98081037D01*
X149982982Y-98078157D01*
X149963943Y-98073388D01*
X149945463Y-98066776D01*
X149927721Y-98058384D01*
X149910886Y-98048294D01*
X149895121Y-98036602D01*
X149880579Y-98023421D01*
X149867398Y-98008879D01*
X149855706Y-97993114D01*
X149845616Y-97976279D01*
X149837224Y-97958537D01*
X149830612Y-97940057D01*
X149825843Y-97921018D01*
X149822963Y-97901603D01*
X149822000Y-97882000D01*
X149822000Y-96682000D01*
X149822963Y-96662397D01*
X149825843Y-96642982D01*
X149830612Y-96623943D01*
X149837224Y-96605463D01*
X149845616Y-96587721D01*
X149855706Y-96570886D01*
X149867398Y-96555121D01*
X149880579Y-96540579D01*
X149895121Y-96527398D01*
X149910886Y-96515706D01*
X149927721Y-96505616D01*
X149945463Y-96497224D01*
X149963943Y-96490612D01*
X149982982Y-96485843D01*
X150002397Y-96482963D01*
X150022000Y-96482000D01*
X151222000Y-96482000D01*
X151241603Y-96482963D01*
X151241603Y-96482963D01*
G37*
D11*
X150622000Y-97282000D03*
D10*
G36*
X151241603Y-93942963D02*
G01*
X151261018Y-93945843D01*
X151280057Y-93950612D01*
X151298537Y-93957224D01*
X151316279Y-93965616D01*
X151333114Y-93975706D01*
X151348879Y-93987398D01*
X151363421Y-94000579D01*
X151376602Y-94015121D01*
X151388294Y-94030886D01*
X151398384Y-94047721D01*
X151406776Y-94065463D01*
X151413388Y-94083943D01*
X151418157Y-94102982D01*
X151421037Y-94122397D01*
X151422000Y-94142000D01*
X151422000Y-95342000D01*
X151421037Y-95361603D01*
X151418157Y-95381018D01*
X151413388Y-95400057D01*
X151406776Y-95418537D01*
X151398384Y-95436279D01*
X151388294Y-95453114D01*
X151376602Y-95468879D01*
X151363421Y-95483421D01*
X151348879Y-95496602D01*
X151333114Y-95508294D01*
X151316279Y-95518384D01*
X151298537Y-95526776D01*
X151280057Y-95533388D01*
X151261018Y-95538157D01*
X151241603Y-95541037D01*
X151222000Y-95542000D01*
X150022000Y-95542000D01*
X150002397Y-95541037D01*
X149982982Y-95538157D01*
X149963943Y-95533388D01*
X149945463Y-95526776D01*
X149927721Y-95518384D01*
X149910886Y-95508294D01*
X149895121Y-95496602D01*
X149880579Y-95483421D01*
X149867398Y-95468879D01*
X149855706Y-95453114D01*
X149845616Y-95436279D01*
X149837224Y-95418537D01*
X149830612Y-95400057D01*
X149825843Y-95381018D01*
X149822963Y-95361603D01*
X149822000Y-95342000D01*
X149822000Y-94142000D01*
X149822963Y-94122397D01*
X149825843Y-94102982D01*
X149830612Y-94083943D01*
X149837224Y-94065463D01*
X149845616Y-94047721D01*
X149855706Y-94030886D01*
X149867398Y-94015121D01*
X149880579Y-94000579D01*
X149895121Y-93987398D01*
X149910886Y-93975706D01*
X149927721Y-93965616D01*
X149945463Y-93957224D01*
X149963943Y-93950612D01*
X149982982Y-93945843D01*
X150002397Y-93942963D01*
X150022000Y-93942000D01*
X151222000Y-93942000D01*
X151241603Y-93942963D01*
X151241603Y-93942963D01*
G37*
D11*
X150622000Y-94742000D03*
D10*
G36*
X151241603Y-91402963D02*
G01*
X151261018Y-91405843D01*
X151280057Y-91410612D01*
X151298537Y-91417224D01*
X151316279Y-91425616D01*
X151333114Y-91435706D01*
X151348879Y-91447398D01*
X151363421Y-91460579D01*
X151376602Y-91475121D01*
X151388294Y-91490886D01*
X151398384Y-91507721D01*
X151406776Y-91525463D01*
X151413388Y-91543943D01*
X151418157Y-91562982D01*
X151421037Y-91582397D01*
X151422000Y-91602000D01*
X151422000Y-92802000D01*
X151421037Y-92821603D01*
X151418157Y-92841018D01*
X151413388Y-92860057D01*
X151406776Y-92878537D01*
X151398384Y-92896279D01*
X151388294Y-92913114D01*
X151376602Y-92928879D01*
X151363421Y-92943421D01*
X151348879Y-92956602D01*
X151333114Y-92968294D01*
X151316279Y-92978384D01*
X151298537Y-92986776D01*
X151280057Y-92993388D01*
X151261018Y-92998157D01*
X151241603Y-93001037D01*
X151222000Y-93002000D01*
X150022000Y-93002000D01*
X150002397Y-93001037D01*
X149982982Y-92998157D01*
X149963943Y-92993388D01*
X149945463Y-92986776D01*
X149927721Y-92978384D01*
X149910886Y-92968294D01*
X149895121Y-92956602D01*
X149880579Y-92943421D01*
X149867398Y-92928879D01*
X149855706Y-92913114D01*
X149845616Y-92896279D01*
X149837224Y-92878537D01*
X149830612Y-92860057D01*
X149825843Y-92841018D01*
X149822963Y-92821603D01*
X149822000Y-92802000D01*
X149822000Y-91602000D01*
X149822963Y-91582397D01*
X149825843Y-91562982D01*
X149830612Y-91543943D01*
X149837224Y-91525463D01*
X149845616Y-91507721D01*
X149855706Y-91490886D01*
X149867398Y-91475121D01*
X149880579Y-91460579D01*
X149895121Y-91447398D01*
X149910886Y-91435706D01*
X149927721Y-91425616D01*
X149945463Y-91417224D01*
X149963943Y-91410612D01*
X149982982Y-91405843D01*
X150002397Y-91402963D01*
X150022000Y-91402000D01*
X151222000Y-91402000D01*
X151241603Y-91402963D01*
X151241603Y-91402963D01*
G37*
D11*
X150622000Y-92202000D03*
D10*
G36*
X151241603Y-88862963D02*
G01*
X151261018Y-88865843D01*
X151280057Y-88870612D01*
X151298537Y-88877224D01*
X151316279Y-88885616D01*
X151333114Y-88895706D01*
X151348879Y-88907398D01*
X151363421Y-88920579D01*
X151376602Y-88935121D01*
X151388294Y-88950886D01*
X151398384Y-88967721D01*
X151406776Y-88985463D01*
X151413388Y-89003943D01*
X151418157Y-89022982D01*
X151421037Y-89042397D01*
X151422000Y-89062000D01*
X151422000Y-90262000D01*
X151421037Y-90281603D01*
X151418157Y-90301018D01*
X151413388Y-90320057D01*
X151406776Y-90338537D01*
X151398384Y-90356279D01*
X151388294Y-90373114D01*
X151376602Y-90388879D01*
X151363421Y-90403421D01*
X151348879Y-90416602D01*
X151333114Y-90428294D01*
X151316279Y-90438384D01*
X151298537Y-90446776D01*
X151280057Y-90453388D01*
X151261018Y-90458157D01*
X151241603Y-90461037D01*
X151222000Y-90462000D01*
X150022000Y-90462000D01*
X150002397Y-90461037D01*
X149982982Y-90458157D01*
X149963943Y-90453388D01*
X149945463Y-90446776D01*
X149927721Y-90438384D01*
X149910886Y-90428294D01*
X149895121Y-90416602D01*
X149880579Y-90403421D01*
X149867398Y-90388879D01*
X149855706Y-90373114D01*
X149845616Y-90356279D01*
X149837224Y-90338537D01*
X149830612Y-90320057D01*
X149825843Y-90301018D01*
X149822963Y-90281603D01*
X149822000Y-90262000D01*
X149822000Y-89062000D01*
X149822963Y-89042397D01*
X149825843Y-89022982D01*
X149830612Y-89003943D01*
X149837224Y-88985463D01*
X149845616Y-88967721D01*
X149855706Y-88950886D01*
X149867398Y-88935121D01*
X149880579Y-88920579D01*
X149895121Y-88907398D01*
X149910886Y-88895706D01*
X149927721Y-88885616D01*
X149945463Y-88877224D01*
X149963943Y-88870612D01*
X149982982Y-88865843D01*
X150002397Y-88862963D01*
X150022000Y-88862000D01*
X151222000Y-88862000D01*
X151241603Y-88862963D01*
X151241603Y-88862963D01*
G37*
D11*
X150622000Y-89662000D03*
D10*
G36*
X151241603Y-86322963D02*
G01*
X151261018Y-86325843D01*
X151280057Y-86330612D01*
X151298537Y-86337224D01*
X151316279Y-86345616D01*
X151333114Y-86355706D01*
X151348879Y-86367398D01*
X151363421Y-86380579D01*
X151376602Y-86395121D01*
X151388294Y-86410886D01*
X151398384Y-86427721D01*
X151406776Y-86445463D01*
X151413388Y-86463943D01*
X151418157Y-86482982D01*
X151421037Y-86502397D01*
X151422000Y-86522000D01*
X151422000Y-87722000D01*
X151421037Y-87741603D01*
X151418157Y-87761018D01*
X151413388Y-87780057D01*
X151406776Y-87798537D01*
X151398384Y-87816279D01*
X151388294Y-87833114D01*
X151376602Y-87848879D01*
X151363421Y-87863421D01*
X151348879Y-87876602D01*
X151333114Y-87888294D01*
X151316279Y-87898384D01*
X151298537Y-87906776D01*
X151280057Y-87913388D01*
X151261018Y-87918157D01*
X151241603Y-87921037D01*
X151222000Y-87922000D01*
X150022000Y-87922000D01*
X150002397Y-87921037D01*
X149982982Y-87918157D01*
X149963943Y-87913388D01*
X149945463Y-87906776D01*
X149927721Y-87898384D01*
X149910886Y-87888294D01*
X149895121Y-87876602D01*
X149880579Y-87863421D01*
X149867398Y-87848879D01*
X149855706Y-87833114D01*
X149845616Y-87816279D01*
X149837224Y-87798537D01*
X149830612Y-87780057D01*
X149825843Y-87761018D01*
X149822963Y-87741603D01*
X149822000Y-87722000D01*
X149822000Y-86522000D01*
X149822963Y-86502397D01*
X149825843Y-86482982D01*
X149830612Y-86463943D01*
X149837224Y-86445463D01*
X149845616Y-86427721D01*
X149855706Y-86410886D01*
X149867398Y-86395121D01*
X149880579Y-86380579D01*
X149895121Y-86367398D01*
X149910886Y-86355706D01*
X149927721Y-86345616D01*
X149945463Y-86337224D01*
X149963943Y-86330612D01*
X149982982Y-86325843D01*
X150002397Y-86322963D01*
X150022000Y-86322000D01*
X151222000Y-86322000D01*
X151241603Y-86322963D01*
X151241603Y-86322963D01*
G37*
D11*
X150622000Y-87122000D03*
D10*
G36*
X155051603Y-81242963D02*
G01*
X155071018Y-81245843D01*
X155090057Y-81250612D01*
X155108537Y-81257224D01*
X155126279Y-81265616D01*
X155143114Y-81275706D01*
X155158879Y-81287398D01*
X155173421Y-81300579D01*
X155186602Y-81315121D01*
X155198294Y-81330886D01*
X155208384Y-81347721D01*
X155216776Y-81365463D01*
X155223388Y-81383943D01*
X155228157Y-81402982D01*
X155231037Y-81422397D01*
X155232000Y-81442000D01*
X155232000Y-82642000D01*
X155231037Y-82661603D01*
X155228157Y-82681018D01*
X155223388Y-82700057D01*
X155216776Y-82718537D01*
X155208384Y-82736279D01*
X155198294Y-82753114D01*
X155186602Y-82768879D01*
X155173421Y-82783421D01*
X155158879Y-82796602D01*
X155143114Y-82808294D01*
X155126279Y-82818384D01*
X155108537Y-82826776D01*
X155090057Y-82833388D01*
X155071018Y-82838157D01*
X155051603Y-82841037D01*
X155032000Y-82842000D01*
X153832000Y-82842000D01*
X153812397Y-82841037D01*
X153792982Y-82838157D01*
X153773943Y-82833388D01*
X153755463Y-82826776D01*
X153737721Y-82818384D01*
X153720886Y-82808294D01*
X153705121Y-82796602D01*
X153690579Y-82783421D01*
X153677398Y-82768879D01*
X153665706Y-82753114D01*
X153655616Y-82736279D01*
X153647224Y-82718537D01*
X153640612Y-82700057D01*
X153635843Y-82681018D01*
X153632963Y-82661603D01*
X153632000Y-82642000D01*
X153632000Y-81442000D01*
X153632963Y-81422397D01*
X153635843Y-81402982D01*
X153640612Y-81383943D01*
X153647224Y-81365463D01*
X153655616Y-81347721D01*
X153665706Y-81330886D01*
X153677398Y-81315121D01*
X153690579Y-81300579D01*
X153705121Y-81287398D01*
X153720886Y-81275706D01*
X153737721Y-81265616D01*
X153755463Y-81257224D01*
X153773943Y-81250612D01*
X153792982Y-81245843D01*
X153812397Y-81242963D01*
X153832000Y-81242000D01*
X155032000Y-81242000D01*
X155051603Y-81242963D01*
X155051603Y-81242963D01*
G37*
D11*
X154432000Y-82042000D03*
D10*
G36*
X151241603Y-81242963D02*
G01*
X151261018Y-81245843D01*
X151280057Y-81250612D01*
X151298537Y-81257224D01*
X151316279Y-81265616D01*
X151333114Y-81275706D01*
X151348879Y-81287398D01*
X151363421Y-81300579D01*
X151376602Y-81315121D01*
X151388294Y-81330886D01*
X151398384Y-81347721D01*
X151406776Y-81365463D01*
X151413388Y-81383943D01*
X151418157Y-81402982D01*
X151421037Y-81422397D01*
X151422000Y-81442000D01*
X151422000Y-82642000D01*
X151421037Y-82661603D01*
X151418157Y-82681018D01*
X151413388Y-82700057D01*
X151406776Y-82718537D01*
X151398384Y-82736279D01*
X151388294Y-82753114D01*
X151376602Y-82768879D01*
X151363421Y-82783421D01*
X151348879Y-82796602D01*
X151333114Y-82808294D01*
X151316279Y-82818384D01*
X151298537Y-82826776D01*
X151280057Y-82833388D01*
X151261018Y-82838157D01*
X151241603Y-82841037D01*
X151222000Y-82842000D01*
X150022000Y-82842000D01*
X150002397Y-82841037D01*
X149982982Y-82838157D01*
X149963943Y-82833388D01*
X149945463Y-82826776D01*
X149927721Y-82818384D01*
X149910886Y-82808294D01*
X149895121Y-82796602D01*
X149880579Y-82783421D01*
X149867398Y-82768879D01*
X149855706Y-82753114D01*
X149845616Y-82736279D01*
X149837224Y-82718537D01*
X149830612Y-82700057D01*
X149825843Y-82681018D01*
X149822963Y-82661603D01*
X149822000Y-82642000D01*
X149822000Y-81442000D01*
X149822963Y-81422397D01*
X149825843Y-81402982D01*
X149830612Y-81383943D01*
X149837224Y-81365463D01*
X149845616Y-81347721D01*
X149855706Y-81330886D01*
X149867398Y-81315121D01*
X149880579Y-81300579D01*
X149895121Y-81287398D01*
X149910886Y-81275706D01*
X149927721Y-81265616D01*
X149945463Y-81257224D01*
X149963943Y-81250612D01*
X149982982Y-81245843D01*
X150002397Y-81242963D01*
X150022000Y-81242000D01*
X151222000Y-81242000D01*
X151241603Y-81242963D01*
X151241603Y-81242963D01*
G37*
D11*
X150622000Y-82042000D03*
D10*
G36*
X227187603Y-78702963D02*
G01*
X227207018Y-78705843D01*
X227226057Y-78710612D01*
X227244537Y-78717224D01*
X227262279Y-78725616D01*
X227279114Y-78735706D01*
X227294879Y-78747398D01*
X227309421Y-78760579D01*
X227322602Y-78775121D01*
X227334294Y-78790886D01*
X227344384Y-78807721D01*
X227352776Y-78825463D01*
X227359388Y-78843943D01*
X227364157Y-78862982D01*
X227367037Y-78882397D01*
X227368000Y-78902000D01*
X227368000Y-80102000D01*
X227367037Y-80121603D01*
X227364157Y-80141018D01*
X227359388Y-80160057D01*
X227352776Y-80178537D01*
X227344384Y-80196279D01*
X227334294Y-80213114D01*
X227322602Y-80228879D01*
X227309421Y-80243421D01*
X227294879Y-80256602D01*
X227279114Y-80268294D01*
X227262279Y-80278384D01*
X227244537Y-80286776D01*
X227226057Y-80293388D01*
X227207018Y-80298157D01*
X227187603Y-80301037D01*
X227168000Y-80302000D01*
X225968000Y-80302000D01*
X225948397Y-80301037D01*
X225928982Y-80298157D01*
X225909943Y-80293388D01*
X225891463Y-80286776D01*
X225873721Y-80278384D01*
X225856886Y-80268294D01*
X225841121Y-80256602D01*
X225826579Y-80243421D01*
X225813398Y-80228879D01*
X225801706Y-80213114D01*
X225791616Y-80196279D01*
X225783224Y-80178537D01*
X225776612Y-80160057D01*
X225771843Y-80141018D01*
X225768963Y-80121603D01*
X225768000Y-80102000D01*
X225768000Y-78902000D01*
X225768963Y-78882397D01*
X225771843Y-78862982D01*
X225776612Y-78843943D01*
X225783224Y-78825463D01*
X225791616Y-78807721D01*
X225801706Y-78790886D01*
X225813398Y-78775121D01*
X225826579Y-78760579D01*
X225841121Y-78747398D01*
X225856886Y-78735706D01*
X225873721Y-78725616D01*
X225891463Y-78717224D01*
X225909943Y-78710612D01*
X225928982Y-78705843D01*
X225948397Y-78702963D01*
X225968000Y-78702000D01*
X227168000Y-78702000D01*
X227187603Y-78702963D01*
X227187603Y-78702963D01*
G37*
D11*
X226568000Y-79502000D03*
D10*
G36*
X219567603Y-76162963D02*
G01*
X219587018Y-76165843D01*
X219606057Y-76170612D01*
X219624537Y-76177224D01*
X219642279Y-76185616D01*
X219659114Y-76195706D01*
X219674879Y-76207398D01*
X219689421Y-76220579D01*
X219702602Y-76235121D01*
X219714294Y-76250886D01*
X219724384Y-76267721D01*
X219732776Y-76285463D01*
X219739388Y-76303943D01*
X219744157Y-76322982D01*
X219747037Y-76342397D01*
X219748000Y-76362000D01*
X219748000Y-77562000D01*
X219747037Y-77581603D01*
X219744157Y-77601018D01*
X219739388Y-77620057D01*
X219732776Y-77638537D01*
X219724384Y-77656279D01*
X219714294Y-77673114D01*
X219702602Y-77688879D01*
X219689421Y-77703421D01*
X219674879Y-77716602D01*
X219659114Y-77728294D01*
X219642279Y-77738384D01*
X219624537Y-77746776D01*
X219606057Y-77753388D01*
X219587018Y-77758157D01*
X219567603Y-77761037D01*
X219548000Y-77762000D01*
X218348000Y-77762000D01*
X218328397Y-77761037D01*
X218308982Y-77758157D01*
X218289943Y-77753388D01*
X218271463Y-77746776D01*
X218253721Y-77738384D01*
X218236886Y-77728294D01*
X218221121Y-77716602D01*
X218206579Y-77703421D01*
X218193398Y-77688879D01*
X218181706Y-77673114D01*
X218171616Y-77656279D01*
X218163224Y-77638537D01*
X218156612Y-77620057D01*
X218151843Y-77601018D01*
X218148963Y-77581603D01*
X218148000Y-77562000D01*
X218148000Y-76362000D01*
X218148963Y-76342397D01*
X218151843Y-76322982D01*
X218156612Y-76303943D01*
X218163224Y-76285463D01*
X218171616Y-76267721D01*
X218181706Y-76250886D01*
X218193398Y-76235121D01*
X218206579Y-76220579D01*
X218221121Y-76207398D01*
X218236886Y-76195706D01*
X218253721Y-76185616D01*
X218271463Y-76177224D01*
X218289943Y-76170612D01*
X218308982Y-76165843D01*
X218328397Y-76162963D01*
X218348000Y-76162000D01*
X219548000Y-76162000D01*
X219567603Y-76162963D01*
X219567603Y-76162963D01*
G37*
D11*
X218948000Y-76962000D03*
D10*
G36*
X227187603Y-76162963D02*
G01*
X227207018Y-76165843D01*
X227226057Y-76170612D01*
X227244537Y-76177224D01*
X227262279Y-76185616D01*
X227279114Y-76195706D01*
X227294879Y-76207398D01*
X227309421Y-76220579D01*
X227322602Y-76235121D01*
X227334294Y-76250886D01*
X227344384Y-76267721D01*
X227352776Y-76285463D01*
X227359388Y-76303943D01*
X227364157Y-76322982D01*
X227367037Y-76342397D01*
X227368000Y-76362000D01*
X227368000Y-77562000D01*
X227367037Y-77581603D01*
X227364157Y-77601018D01*
X227359388Y-77620057D01*
X227352776Y-77638537D01*
X227344384Y-77656279D01*
X227334294Y-77673114D01*
X227322602Y-77688879D01*
X227309421Y-77703421D01*
X227294879Y-77716602D01*
X227279114Y-77728294D01*
X227262279Y-77738384D01*
X227244537Y-77746776D01*
X227226057Y-77753388D01*
X227207018Y-77758157D01*
X227187603Y-77761037D01*
X227168000Y-77762000D01*
X225968000Y-77762000D01*
X225948397Y-77761037D01*
X225928982Y-77758157D01*
X225909943Y-77753388D01*
X225891463Y-77746776D01*
X225873721Y-77738384D01*
X225856886Y-77728294D01*
X225841121Y-77716602D01*
X225826579Y-77703421D01*
X225813398Y-77688879D01*
X225801706Y-77673114D01*
X225791616Y-77656279D01*
X225783224Y-77638537D01*
X225776612Y-77620057D01*
X225771843Y-77601018D01*
X225768963Y-77581603D01*
X225768000Y-77562000D01*
X225768000Y-76362000D01*
X225768963Y-76342397D01*
X225771843Y-76322982D01*
X225776612Y-76303943D01*
X225783224Y-76285463D01*
X225791616Y-76267721D01*
X225801706Y-76250886D01*
X225813398Y-76235121D01*
X225826579Y-76220579D01*
X225841121Y-76207398D01*
X225856886Y-76195706D01*
X225873721Y-76185616D01*
X225891463Y-76177224D01*
X225909943Y-76170612D01*
X225928982Y-76165843D01*
X225948397Y-76162963D01*
X225968000Y-76162000D01*
X227168000Y-76162000D01*
X227187603Y-76162963D01*
X227187603Y-76162963D01*
G37*
D11*
X226568000Y-76962000D03*
D10*
G36*
X219567603Y-73622963D02*
G01*
X219587018Y-73625843D01*
X219606057Y-73630612D01*
X219624537Y-73637224D01*
X219642279Y-73645616D01*
X219659114Y-73655706D01*
X219674879Y-73667398D01*
X219689421Y-73680579D01*
X219702602Y-73695121D01*
X219714294Y-73710886D01*
X219724384Y-73727721D01*
X219732776Y-73745463D01*
X219739388Y-73763943D01*
X219744157Y-73782982D01*
X219747037Y-73802397D01*
X219748000Y-73822000D01*
X219748000Y-75022000D01*
X219747037Y-75041603D01*
X219744157Y-75061018D01*
X219739388Y-75080057D01*
X219732776Y-75098537D01*
X219724384Y-75116279D01*
X219714294Y-75133114D01*
X219702602Y-75148879D01*
X219689421Y-75163421D01*
X219674879Y-75176602D01*
X219659114Y-75188294D01*
X219642279Y-75198384D01*
X219624537Y-75206776D01*
X219606057Y-75213388D01*
X219587018Y-75218157D01*
X219567603Y-75221037D01*
X219548000Y-75222000D01*
X218348000Y-75222000D01*
X218328397Y-75221037D01*
X218308982Y-75218157D01*
X218289943Y-75213388D01*
X218271463Y-75206776D01*
X218253721Y-75198384D01*
X218236886Y-75188294D01*
X218221121Y-75176602D01*
X218206579Y-75163421D01*
X218193398Y-75148879D01*
X218181706Y-75133114D01*
X218171616Y-75116279D01*
X218163224Y-75098537D01*
X218156612Y-75080057D01*
X218151843Y-75061018D01*
X218148963Y-75041603D01*
X218148000Y-75022000D01*
X218148000Y-73822000D01*
X218148963Y-73802397D01*
X218151843Y-73782982D01*
X218156612Y-73763943D01*
X218163224Y-73745463D01*
X218171616Y-73727721D01*
X218181706Y-73710886D01*
X218193398Y-73695121D01*
X218206579Y-73680579D01*
X218221121Y-73667398D01*
X218236886Y-73655706D01*
X218253721Y-73645616D01*
X218271463Y-73637224D01*
X218289943Y-73630612D01*
X218308982Y-73625843D01*
X218328397Y-73622963D01*
X218348000Y-73622000D01*
X219548000Y-73622000D01*
X219567603Y-73622963D01*
X219567603Y-73622963D01*
G37*
D11*
X218948000Y-74422000D03*
D10*
G36*
X213344603Y-78702963D02*
G01*
X213364018Y-78705843D01*
X213383057Y-78710612D01*
X213401537Y-78717224D01*
X213419279Y-78725616D01*
X213436114Y-78735706D01*
X213451879Y-78747398D01*
X213466421Y-78760579D01*
X213479602Y-78775121D01*
X213491294Y-78790886D01*
X213501384Y-78807721D01*
X213509776Y-78825463D01*
X213516388Y-78843943D01*
X213521157Y-78862982D01*
X213524037Y-78882397D01*
X213525000Y-78902000D01*
X213525000Y-80102000D01*
X213524037Y-80121603D01*
X213521157Y-80141018D01*
X213516388Y-80160057D01*
X213509776Y-80178537D01*
X213501384Y-80196279D01*
X213491294Y-80213114D01*
X213479602Y-80228879D01*
X213466421Y-80243421D01*
X213451879Y-80256602D01*
X213436114Y-80268294D01*
X213419279Y-80278384D01*
X213401537Y-80286776D01*
X213383057Y-80293388D01*
X213364018Y-80298157D01*
X213344603Y-80301037D01*
X213325000Y-80302000D01*
X212125000Y-80302000D01*
X212105397Y-80301037D01*
X212085982Y-80298157D01*
X212066943Y-80293388D01*
X212048463Y-80286776D01*
X212030721Y-80278384D01*
X212013886Y-80268294D01*
X211998121Y-80256602D01*
X211983579Y-80243421D01*
X211970398Y-80228879D01*
X211958706Y-80213114D01*
X211948616Y-80196279D01*
X211940224Y-80178537D01*
X211933612Y-80160057D01*
X211928843Y-80141018D01*
X211925963Y-80121603D01*
X211925000Y-80102000D01*
X211925000Y-78902000D01*
X211925963Y-78882397D01*
X211928843Y-78862982D01*
X211933612Y-78843943D01*
X211940224Y-78825463D01*
X211948616Y-78807721D01*
X211958706Y-78790886D01*
X211970398Y-78775121D01*
X211983579Y-78760579D01*
X211998121Y-78747398D01*
X212013886Y-78735706D01*
X212030721Y-78725616D01*
X212048463Y-78717224D01*
X212066943Y-78710612D01*
X212085982Y-78705843D01*
X212105397Y-78702963D01*
X212125000Y-78702000D01*
X213325000Y-78702000D01*
X213344603Y-78702963D01*
X213344603Y-78702963D01*
G37*
D11*
X212725000Y-79502000D03*
D10*
G36*
X205724603Y-76162963D02*
G01*
X205744018Y-76165843D01*
X205763057Y-76170612D01*
X205781537Y-76177224D01*
X205799279Y-76185616D01*
X205816114Y-76195706D01*
X205831879Y-76207398D01*
X205846421Y-76220579D01*
X205859602Y-76235121D01*
X205871294Y-76250886D01*
X205881384Y-76267721D01*
X205889776Y-76285463D01*
X205896388Y-76303943D01*
X205901157Y-76322982D01*
X205904037Y-76342397D01*
X205905000Y-76362000D01*
X205905000Y-77562000D01*
X205904037Y-77581603D01*
X205901157Y-77601018D01*
X205896388Y-77620057D01*
X205889776Y-77638537D01*
X205881384Y-77656279D01*
X205871294Y-77673114D01*
X205859602Y-77688879D01*
X205846421Y-77703421D01*
X205831879Y-77716602D01*
X205816114Y-77728294D01*
X205799279Y-77738384D01*
X205781537Y-77746776D01*
X205763057Y-77753388D01*
X205744018Y-77758157D01*
X205724603Y-77761037D01*
X205705000Y-77762000D01*
X204505000Y-77762000D01*
X204485397Y-77761037D01*
X204465982Y-77758157D01*
X204446943Y-77753388D01*
X204428463Y-77746776D01*
X204410721Y-77738384D01*
X204393886Y-77728294D01*
X204378121Y-77716602D01*
X204363579Y-77703421D01*
X204350398Y-77688879D01*
X204338706Y-77673114D01*
X204328616Y-77656279D01*
X204320224Y-77638537D01*
X204313612Y-77620057D01*
X204308843Y-77601018D01*
X204305963Y-77581603D01*
X204305000Y-77562000D01*
X204305000Y-76362000D01*
X204305963Y-76342397D01*
X204308843Y-76322982D01*
X204313612Y-76303943D01*
X204320224Y-76285463D01*
X204328616Y-76267721D01*
X204338706Y-76250886D01*
X204350398Y-76235121D01*
X204363579Y-76220579D01*
X204378121Y-76207398D01*
X204393886Y-76195706D01*
X204410721Y-76185616D01*
X204428463Y-76177224D01*
X204446943Y-76170612D01*
X204465982Y-76165843D01*
X204485397Y-76162963D01*
X204505000Y-76162000D01*
X205705000Y-76162000D01*
X205724603Y-76162963D01*
X205724603Y-76162963D01*
G37*
D11*
X205105000Y-76962000D03*
D10*
G36*
X213344603Y-76162963D02*
G01*
X213364018Y-76165843D01*
X213383057Y-76170612D01*
X213401537Y-76177224D01*
X213419279Y-76185616D01*
X213436114Y-76195706D01*
X213451879Y-76207398D01*
X213466421Y-76220579D01*
X213479602Y-76235121D01*
X213491294Y-76250886D01*
X213501384Y-76267721D01*
X213509776Y-76285463D01*
X213516388Y-76303943D01*
X213521157Y-76322982D01*
X213524037Y-76342397D01*
X213525000Y-76362000D01*
X213525000Y-77562000D01*
X213524037Y-77581603D01*
X213521157Y-77601018D01*
X213516388Y-77620057D01*
X213509776Y-77638537D01*
X213501384Y-77656279D01*
X213491294Y-77673114D01*
X213479602Y-77688879D01*
X213466421Y-77703421D01*
X213451879Y-77716602D01*
X213436114Y-77728294D01*
X213419279Y-77738384D01*
X213401537Y-77746776D01*
X213383057Y-77753388D01*
X213364018Y-77758157D01*
X213344603Y-77761037D01*
X213325000Y-77762000D01*
X212125000Y-77762000D01*
X212105397Y-77761037D01*
X212085982Y-77758157D01*
X212066943Y-77753388D01*
X212048463Y-77746776D01*
X212030721Y-77738384D01*
X212013886Y-77728294D01*
X211998121Y-77716602D01*
X211983579Y-77703421D01*
X211970398Y-77688879D01*
X211958706Y-77673114D01*
X211948616Y-77656279D01*
X211940224Y-77638537D01*
X211933612Y-77620057D01*
X211928843Y-77601018D01*
X211925963Y-77581603D01*
X211925000Y-77562000D01*
X211925000Y-76362000D01*
X211925963Y-76342397D01*
X211928843Y-76322982D01*
X211933612Y-76303943D01*
X211940224Y-76285463D01*
X211948616Y-76267721D01*
X211958706Y-76250886D01*
X211970398Y-76235121D01*
X211983579Y-76220579D01*
X211998121Y-76207398D01*
X212013886Y-76195706D01*
X212030721Y-76185616D01*
X212048463Y-76177224D01*
X212066943Y-76170612D01*
X212085982Y-76165843D01*
X212105397Y-76162963D01*
X212125000Y-76162000D01*
X213325000Y-76162000D01*
X213344603Y-76162963D01*
X213344603Y-76162963D01*
G37*
D11*
X212725000Y-76962000D03*
D10*
G36*
X205699603Y-73597563D02*
G01*
X205719018Y-73600443D01*
X205738057Y-73605212D01*
X205756537Y-73611824D01*
X205774279Y-73620216D01*
X205791114Y-73630306D01*
X205806879Y-73641998D01*
X205821421Y-73655179D01*
X205834602Y-73669721D01*
X205846294Y-73685486D01*
X205856384Y-73702321D01*
X205864776Y-73720063D01*
X205871388Y-73738543D01*
X205876157Y-73757582D01*
X205879037Y-73776997D01*
X205880000Y-73796600D01*
X205880000Y-74996600D01*
X205879037Y-75016203D01*
X205876157Y-75035618D01*
X205871388Y-75054657D01*
X205864776Y-75073137D01*
X205856384Y-75090879D01*
X205846294Y-75107714D01*
X205834602Y-75123479D01*
X205821421Y-75138021D01*
X205806879Y-75151202D01*
X205791114Y-75162894D01*
X205774279Y-75172984D01*
X205756537Y-75181376D01*
X205738057Y-75187988D01*
X205719018Y-75192757D01*
X205699603Y-75195637D01*
X205680000Y-75196600D01*
X204480000Y-75196600D01*
X204460397Y-75195637D01*
X204440982Y-75192757D01*
X204421943Y-75187988D01*
X204403463Y-75181376D01*
X204385721Y-75172984D01*
X204368886Y-75162894D01*
X204353121Y-75151202D01*
X204338579Y-75138021D01*
X204325398Y-75123479D01*
X204313706Y-75107714D01*
X204303616Y-75090879D01*
X204295224Y-75073137D01*
X204288612Y-75054657D01*
X204283843Y-75035618D01*
X204280963Y-75016203D01*
X204280000Y-74996600D01*
X204280000Y-73796600D01*
X204280963Y-73776997D01*
X204283843Y-73757582D01*
X204288612Y-73738543D01*
X204295224Y-73720063D01*
X204303616Y-73702321D01*
X204313706Y-73685486D01*
X204325398Y-73669721D01*
X204338579Y-73655179D01*
X204353121Y-73641998D01*
X204368886Y-73630306D01*
X204385721Y-73620216D01*
X204403463Y-73611824D01*
X204421943Y-73605212D01*
X204440982Y-73600443D01*
X204460397Y-73597563D01*
X204480000Y-73596600D01*
X205680000Y-73596600D01*
X205699603Y-73597563D01*
X205699603Y-73597563D01*
G37*
D11*
X205080000Y-74396600D03*
D10*
G36*
X176641603Y-78702963D02*
G01*
X176661018Y-78705843D01*
X176680057Y-78710612D01*
X176698537Y-78717224D01*
X176716279Y-78725616D01*
X176733114Y-78735706D01*
X176748879Y-78747398D01*
X176763421Y-78760579D01*
X176776602Y-78775121D01*
X176788294Y-78790886D01*
X176798384Y-78807721D01*
X176806776Y-78825463D01*
X176813388Y-78843943D01*
X176818157Y-78862982D01*
X176821037Y-78882397D01*
X176822000Y-78902000D01*
X176822000Y-80102000D01*
X176821037Y-80121603D01*
X176818157Y-80141018D01*
X176813388Y-80160057D01*
X176806776Y-80178537D01*
X176798384Y-80196279D01*
X176788294Y-80213114D01*
X176776602Y-80228879D01*
X176763421Y-80243421D01*
X176748879Y-80256602D01*
X176733114Y-80268294D01*
X176716279Y-80278384D01*
X176698537Y-80286776D01*
X176680057Y-80293388D01*
X176661018Y-80298157D01*
X176641603Y-80301037D01*
X176622000Y-80302000D01*
X175422000Y-80302000D01*
X175402397Y-80301037D01*
X175382982Y-80298157D01*
X175363943Y-80293388D01*
X175345463Y-80286776D01*
X175327721Y-80278384D01*
X175310886Y-80268294D01*
X175295121Y-80256602D01*
X175280579Y-80243421D01*
X175267398Y-80228879D01*
X175255706Y-80213114D01*
X175245616Y-80196279D01*
X175237224Y-80178537D01*
X175230612Y-80160057D01*
X175225843Y-80141018D01*
X175222963Y-80121603D01*
X175222000Y-80102000D01*
X175222000Y-78902000D01*
X175222963Y-78882397D01*
X175225843Y-78862982D01*
X175230612Y-78843943D01*
X175237224Y-78825463D01*
X175245616Y-78807721D01*
X175255706Y-78790886D01*
X175267398Y-78775121D01*
X175280579Y-78760579D01*
X175295121Y-78747398D01*
X175310886Y-78735706D01*
X175327721Y-78725616D01*
X175345463Y-78717224D01*
X175363943Y-78710612D01*
X175382982Y-78705843D01*
X175402397Y-78702963D01*
X175422000Y-78702000D01*
X176622000Y-78702000D01*
X176641603Y-78702963D01*
X176641603Y-78702963D01*
G37*
D11*
X176022000Y-79502000D03*
D10*
G36*
X169021603Y-76289963D02*
G01*
X169041018Y-76292843D01*
X169060057Y-76297612D01*
X169078537Y-76304224D01*
X169096279Y-76312616D01*
X169113114Y-76322706D01*
X169128879Y-76334398D01*
X169143421Y-76347579D01*
X169156602Y-76362121D01*
X169168294Y-76377886D01*
X169178384Y-76394721D01*
X169186776Y-76412463D01*
X169193388Y-76430943D01*
X169198157Y-76449982D01*
X169201037Y-76469397D01*
X169202000Y-76489000D01*
X169202000Y-77689000D01*
X169201037Y-77708603D01*
X169198157Y-77728018D01*
X169193388Y-77747057D01*
X169186776Y-77765537D01*
X169178384Y-77783279D01*
X169168294Y-77800114D01*
X169156602Y-77815879D01*
X169143421Y-77830421D01*
X169128879Y-77843602D01*
X169113114Y-77855294D01*
X169096279Y-77865384D01*
X169078537Y-77873776D01*
X169060057Y-77880388D01*
X169041018Y-77885157D01*
X169021603Y-77888037D01*
X169002000Y-77889000D01*
X167802000Y-77889000D01*
X167782397Y-77888037D01*
X167762982Y-77885157D01*
X167743943Y-77880388D01*
X167725463Y-77873776D01*
X167707721Y-77865384D01*
X167690886Y-77855294D01*
X167675121Y-77843602D01*
X167660579Y-77830421D01*
X167647398Y-77815879D01*
X167635706Y-77800114D01*
X167625616Y-77783279D01*
X167617224Y-77765537D01*
X167610612Y-77747057D01*
X167605843Y-77728018D01*
X167602963Y-77708603D01*
X167602000Y-77689000D01*
X167602000Y-76489000D01*
X167602963Y-76469397D01*
X167605843Y-76449982D01*
X167610612Y-76430943D01*
X167617224Y-76412463D01*
X167625616Y-76394721D01*
X167635706Y-76377886D01*
X167647398Y-76362121D01*
X167660579Y-76347579D01*
X167675121Y-76334398D01*
X167690886Y-76322706D01*
X167707721Y-76312616D01*
X167725463Y-76304224D01*
X167743943Y-76297612D01*
X167762982Y-76292843D01*
X167782397Y-76289963D01*
X167802000Y-76289000D01*
X169002000Y-76289000D01*
X169021603Y-76289963D01*
X169021603Y-76289963D01*
G37*
D11*
X168402000Y-77089000D03*
D10*
G36*
X176641603Y-76162963D02*
G01*
X176661018Y-76165843D01*
X176680057Y-76170612D01*
X176698537Y-76177224D01*
X176716279Y-76185616D01*
X176733114Y-76195706D01*
X176748879Y-76207398D01*
X176763421Y-76220579D01*
X176776602Y-76235121D01*
X176788294Y-76250886D01*
X176798384Y-76267721D01*
X176806776Y-76285463D01*
X176813388Y-76303943D01*
X176818157Y-76322982D01*
X176821037Y-76342397D01*
X176822000Y-76362000D01*
X176822000Y-77562000D01*
X176821037Y-77581603D01*
X176818157Y-77601018D01*
X176813388Y-77620057D01*
X176806776Y-77638537D01*
X176798384Y-77656279D01*
X176788294Y-77673114D01*
X176776602Y-77688879D01*
X176763421Y-77703421D01*
X176748879Y-77716602D01*
X176733114Y-77728294D01*
X176716279Y-77738384D01*
X176698537Y-77746776D01*
X176680057Y-77753388D01*
X176661018Y-77758157D01*
X176641603Y-77761037D01*
X176622000Y-77762000D01*
X175422000Y-77762000D01*
X175402397Y-77761037D01*
X175382982Y-77758157D01*
X175363943Y-77753388D01*
X175345463Y-77746776D01*
X175327721Y-77738384D01*
X175310886Y-77728294D01*
X175295121Y-77716602D01*
X175280579Y-77703421D01*
X175267398Y-77688879D01*
X175255706Y-77673114D01*
X175245616Y-77656279D01*
X175237224Y-77638537D01*
X175230612Y-77620057D01*
X175225843Y-77601018D01*
X175222963Y-77581603D01*
X175222000Y-77562000D01*
X175222000Y-76362000D01*
X175222963Y-76342397D01*
X175225843Y-76322982D01*
X175230612Y-76303943D01*
X175237224Y-76285463D01*
X175245616Y-76267721D01*
X175255706Y-76250886D01*
X175267398Y-76235121D01*
X175280579Y-76220579D01*
X175295121Y-76207398D01*
X175310886Y-76195706D01*
X175327721Y-76185616D01*
X175345463Y-76177224D01*
X175363943Y-76170612D01*
X175382982Y-76165843D01*
X175402397Y-76162963D01*
X175422000Y-76162000D01*
X176622000Y-76162000D01*
X176641603Y-76162963D01*
X176641603Y-76162963D01*
G37*
D11*
X176022000Y-76962000D03*
D10*
G36*
X169021603Y-73673963D02*
G01*
X169041018Y-73676843D01*
X169060057Y-73681612D01*
X169078537Y-73688224D01*
X169096279Y-73696616D01*
X169113114Y-73706706D01*
X169128879Y-73718398D01*
X169143421Y-73731579D01*
X169156602Y-73746121D01*
X169168294Y-73761886D01*
X169178384Y-73778721D01*
X169186776Y-73796463D01*
X169193388Y-73814943D01*
X169198157Y-73833982D01*
X169201037Y-73853397D01*
X169202000Y-73873000D01*
X169202000Y-75073000D01*
X169201037Y-75092603D01*
X169198157Y-75112018D01*
X169193388Y-75131057D01*
X169186776Y-75149537D01*
X169178384Y-75167279D01*
X169168294Y-75184114D01*
X169156602Y-75199879D01*
X169143421Y-75214421D01*
X169128879Y-75227602D01*
X169113114Y-75239294D01*
X169096279Y-75249384D01*
X169078537Y-75257776D01*
X169060057Y-75264388D01*
X169041018Y-75269157D01*
X169021603Y-75272037D01*
X169002000Y-75273000D01*
X167802000Y-75273000D01*
X167782397Y-75272037D01*
X167762982Y-75269157D01*
X167743943Y-75264388D01*
X167725463Y-75257776D01*
X167707721Y-75249384D01*
X167690886Y-75239294D01*
X167675121Y-75227602D01*
X167660579Y-75214421D01*
X167647398Y-75199879D01*
X167635706Y-75184114D01*
X167625616Y-75167279D01*
X167617224Y-75149537D01*
X167610612Y-75131057D01*
X167605843Y-75112018D01*
X167602963Y-75092603D01*
X167602000Y-75073000D01*
X167602000Y-73873000D01*
X167602963Y-73853397D01*
X167605843Y-73833982D01*
X167610612Y-73814943D01*
X167617224Y-73796463D01*
X167625616Y-73778721D01*
X167635706Y-73761886D01*
X167647398Y-73746121D01*
X167660579Y-73731579D01*
X167675121Y-73718398D01*
X167690886Y-73706706D01*
X167707721Y-73696616D01*
X167725463Y-73688224D01*
X167743943Y-73681612D01*
X167762982Y-73676843D01*
X167782397Y-73673963D01*
X167802000Y-73673000D01*
X169002000Y-73673000D01*
X169021603Y-73673963D01*
X169021603Y-73673963D01*
G37*
D11*
X168402000Y-74473000D03*
D10*
G36*
X151241603Y-78702963D02*
G01*
X151261018Y-78705843D01*
X151280057Y-78710612D01*
X151298537Y-78717224D01*
X151316279Y-78725616D01*
X151333114Y-78735706D01*
X151348879Y-78747398D01*
X151363421Y-78760579D01*
X151376602Y-78775121D01*
X151388294Y-78790886D01*
X151398384Y-78807721D01*
X151406776Y-78825463D01*
X151413388Y-78843943D01*
X151418157Y-78862982D01*
X151421037Y-78882397D01*
X151422000Y-78902000D01*
X151422000Y-80102000D01*
X151421037Y-80121603D01*
X151418157Y-80141018D01*
X151413388Y-80160057D01*
X151406776Y-80178537D01*
X151398384Y-80196279D01*
X151388294Y-80213114D01*
X151376602Y-80228879D01*
X151363421Y-80243421D01*
X151348879Y-80256602D01*
X151333114Y-80268294D01*
X151316279Y-80278384D01*
X151298537Y-80286776D01*
X151280057Y-80293388D01*
X151261018Y-80298157D01*
X151241603Y-80301037D01*
X151222000Y-80302000D01*
X150022000Y-80302000D01*
X150002397Y-80301037D01*
X149982982Y-80298157D01*
X149963943Y-80293388D01*
X149945463Y-80286776D01*
X149927721Y-80278384D01*
X149910886Y-80268294D01*
X149895121Y-80256602D01*
X149880579Y-80243421D01*
X149867398Y-80228879D01*
X149855706Y-80213114D01*
X149845616Y-80196279D01*
X149837224Y-80178537D01*
X149830612Y-80160057D01*
X149825843Y-80141018D01*
X149822963Y-80121603D01*
X149822000Y-80102000D01*
X149822000Y-78902000D01*
X149822963Y-78882397D01*
X149825843Y-78862982D01*
X149830612Y-78843943D01*
X149837224Y-78825463D01*
X149845616Y-78807721D01*
X149855706Y-78790886D01*
X149867398Y-78775121D01*
X149880579Y-78760579D01*
X149895121Y-78747398D01*
X149910886Y-78735706D01*
X149927721Y-78725616D01*
X149945463Y-78717224D01*
X149963943Y-78710612D01*
X149982982Y-78705843D01*
X150002397Y-78702963D01*
X150022000Y-78702000D01*
X151222000Y-78702000D01*
X151241603Y-78702963D01*
X151241603Y-78702963D01*
G37*
D11*
X150622000Y-79502000D03*
D10*
G36*
X143621603Y-76162963D02*
G01*
X143641018Y-76165843D01*
X143660057Y-76170612D01*
X143678537Y-76177224D01*
X143696279Y-76185616D01*
X143713114Y-76195706D01*
X143728879Y-76207398D01*
X143743421Y-76220579D01*
X143756602Y-76235121D01*
X143768294Y-76250886D01*
X143778384Y-76267721D01*
X143786776Y-76285463D01*
X143793388Y-76303943D01*
X143798157Y-76322982D01*
X143801037Y-76342397D01*
X143802000Y-76362000D01*
X143802000Y-77562000D01*
X143801037Y-77581603D01*
X143798157Y-77601018D01*
X143793388Y-77620057D01*
X143786776Y-77638537D01*
X143778384Y-77656279D01*
X143768294Y-77673114D01*
X143756602Y-77688879D01*
X143743421Y-77703421D01*
X143728879Y-77716602D01*
X143713114Y-77728294D01*
X143696279Y-77738384D01*
X143678537Y-77746776D01*
X143660057Y-77753388D01*
X143641018Y-77758157D01*
X143621603Y-77761037D01*
X143602000Y-77762000D01*
X142402000Y-77762000D01*
X142382397Y-77761037D01*
X142362982Y-77758157D01*
X142343943Y-77753388D01*
X142325463Y-77746776D01*
X142307721Y-77738384D01*
X142290886Y-77728294D01*
X142275121Y-77716602D01*
X142260579Y-77703421D01*
X142247398Y-77688879D01*
X142235706Y-77673114D01*
X142225616Y-77656279D01*
X142217224Y-77638537D01*
X142210612Y-77620057D01*
X142205843Y-77601018D01*
X142202963Y-77581603D01*
X142202000Y-77562000D01*
X142202000Y-76362000D01*
X142202963Y-76342397D01*
X142205843Y-76322982D01*
X142210612Y-76303943D01*
X142217224Y-76285463D01*
X142225616Y-76267721D01*
X142235706Y-76250886D01*
X142247398Y-76235121D01*
X142260579Y-76220579D01*
X142275121Y-76207398D01*
X142290886Y-76195706D01*
X142307721Y-76185616D01*
X142325463Y-76177224D01*
X142343943Y-76170612D01*
X142362982Y-76165843D01*
X142382397Y-76162963D01*
X142402000Y-76162000D01*
X143602000Y-76162000D01*
X143621603Y-76162963D01*
X143621603Y-76162963D01*
G37*
D11*
X143002000Y-76962000D03*
D10*
G36*
X151241603Y-76162963D02*
G01*
X151261018Y-76165843D01*
X151280057Y-76170612D01*
X151298537Y-76177224D01*
X151316279Y-76185616D01*
X151333114Y-76195706D01*
X151348879Y-76207398D01*
X151363421Y-76220579D01*
X151376602Y-76235121D01*
X151388294Y-76250886D01*
X151398384Y-76267721D01*
X151406776Y-76285463D01*
X151413388Y-76303943D01*
X151418157Y-76322982D01*
X151421037Y-76342397D01*
X151422000Y-76362000D01*
X151422000Y-77562000D01*
X151421037Y-77581603D01*
X151418157Y-77601018D01*
X151413388Y-77620057D01*
X151406776Y-77638537D01*
X151398384Y-77656279D01*
X151388294Y-77673114D01*
X151376602Y-77688879D01*
X151363421Y-77703421D01*
X151348879Y-77716602D01*
X151333114Y-77728294D01*
X151316279Y-77738384D01*
X151298537Y-77746776D01*
X151280057Y-77753388D01*
X151261018Y-77758157D01*
X151241603Y-77761037D01*
X151222000Y-77762000D01*
X150022000Y-77762000D01*
X150002397Y-77761037D01*
X149982982Y-77758157D01*
X149963943Y-77753388D01*
X149945463Y-77746776D01*
X149927721Y-77738384D01*
X149910886Y-77728294D01*
X149895121Y-77716602D01*
X149880579Y-77703421D01*
X149867398Y-77688879D01*
X149855706Y-77673114D01*
X149845616Y-77656279D01*
X149837224Y-77638537D01*
X149830612Y-77620057D01*
X149825843Y-77601018D01*
X149822963Y-77581603D01*
X149822000Y-77562000D01*
X149822000Y-76362000D01*
X149822963Y-76342397D01*
X149825843Y-76322982D01*
X149830612Y-76303943D01*
X149837224Y-76285463D01*
X149845616Y-76267721D01*
X149855706Y-76250886D01*
X149867398Y-76235121D01*
X149880579Y-76220579D01*
X149895121Y-76207398D01*
X149910886Y-76195706D01*
X149927721Y-76185616D01*
X149945463Y-76177224D01*
X149963943Y-76170612D01*
X149982982Y-76165843D01*
X150002397Y-76162963D01*
X150022000Y-76162000D01*
X151222000Y-76162000D01*
X151241603Y-76162963D01*
X151241603Y-76162963D01*
G37*
D11*
X150622000Y-76962000D03*
D10*
G36*
X143621603Y-73622963D02*
G01*
X143641018Y-73625843D01*
X143660057Y-73630612D01*
X143678537Y-73637224D01*
X143696279Y-73645616D01*
X143713114Y-73655706D01*
X143728879Y-73667398D01*
X143743421Y-73680579D01*
X143756602Y-73695121D01*
X143768294Y-73710886D01*
X143778384Y-73727721D01*
X143786776Y-73745463D01*
X143793388Y-73763943D01*
X143798157Y-73782982D01*
X143801037Y-73802397D01*
X143802000Y-73822000D01*
X143802000Y-75022000D01*
X143801037Y-75041603D01*
X143798157Y-75061018D01*
X143793388Y-75080057D01*
X143786776Y-75098537D01*
X143778384Y-75116279D01*
X143768294Y-75133114D01*
X143756602Y-75148879D01*
X143743421Y-75163421D01*
X143728879Y-75176602D01*
X143713114Y-75188294D01*
X143696279Y-75198384D01*
X143678537Y-75206776D01*
X143660057Y-75213388D01*
X143641018Y-75218157D01*
X143621603Y-75221037D01*
X143602000Y-75222000D01*
X142402000Y-75222000D01*
X142382397Y-75221037D01*
X142362982Y-75218157D01*
X142343943Y-75213388D01*
X142325463Y-75206776D01*
X142307721Y-75198384D01*
X142290886Y-75188294D01*
X142275121Y-75176602D01*
X142260579Y-75163421D01*
X142247398Y-75148879D01*
X142235706Y-75133114D01*
X142225616Y-75116279D01*
X142217224Y-75098537D01*
X142210612Y-75080057D01*
X142205843Y-75061018D01*
X142202963Y-75041603D01*
X142202000Y-75022000D01*
X142202000Y-73822000D01*
X142202963Y-73802397D01*
X142205843Y-73782982D01*
X142210612Y-73763943D01*
X142217224Y-73745463D01*
X142225616Y-73727721D01*
X142235706Y-73710886D01*
X142247398Y-73695121D01*
X142260579Y-73680579D01*
X142275121Y-73667398D01*
X142290886Y-73655706D01*
X142307721Y-73645616D01*
X142325463Y-73637224D01*
X142343943Y-73630612D01*
X142362982Y-73625843D01*
X142382397Y-73622963D01*
X142402000Y-73622000D01*
X143602000Y-73622000D01*
X143621603Y-73622963D01*
X143621603Y-73622963D01*
G37*
D11*
X143002000Y-74422000D03*
D10*
G36*
X143621603Y-81242963D02*
G01*
X143641018Y-81245843D01*
X143660057Y-81250612D01*
X143678537Y-81257224D01*
X143696279Y-81265616D01*
X143713114Y-81275706D01*
X143728879Y-81287398D01*
X143743421Y-81300579D01*
X143756602Y-81315121D01*
X143768294Y-81330886D01*
X143778384Y-81347721D01*
X143786776Y-81365463D01*
X143793388Y-81383943D01*
X143798157Y-81402982D01*
X143801037Y-81422397D01*
X143802000Y-81442000D01*
X143802000Y-82642000D01*
X143801037Y-82661603D01*
X143798157Y-82681018D01*
X143793388Y-82700057D01*
X143786776Y-82718537D01*
X143778384Y-82736279D01*
X143768294Y-82753114D01*
X143756602Y-82768879D01*
X143743421Y-82783421D01*
X143728879Y-82796602D01*
X143713114Y-82808294D01*
X143696279Y-82818384D01*
X143678537Y-82826776D01*
X143660057Y-82833388D01*
X143641018Y-82838157D01*
X143621603Y-82841037D01*
X143602000Y-82842000D01*
X142402000Y-82842000D01*
X142382397Y-82841037D01*
X142362982Y-82838157D01*
X142343943Y-82833388D01*
X142325463Y-82826776D01*
X142307721Y-82818384D01*
X142290886Y-82808294D01*
X142275121Y-82796602D01*
X142260579Y-82783421D01*
X142247398Y-82768879D01*
X142235706Y-82753114D01*
X142225616Y-82736279D01*
X142217224Y-82718537D01*
X142210612Y-82700057D01*
X142205843Y-82681018D01*
X142202963Y-82661603D01*
X142202000Y-82642000D01*
X142202000Y-81442000D01*
X142202963Y-81422397D01*
X142205843Y-81402982D01*
X142210612Y-81383943D01*
X142217224Y-81365463D01*
X142225616Y-81347721D01*
X142235706Y-81330886D01*
X142247398Y-81315121D01*
X142260579Y-81300579D01*
X142275121Y-81287398D01*
X142290886Y-81275706D01*
X142307721Y-81265616D01*
X142325463Y-81257224D01*
X142343943Y-81250612D01*
X142362982Y-81245843D01*
X142382397Y-81242963D01*
X142402000Y-81242000D01*
X143602000Y-81242000D01*
X143621603Y-81242963D01*
X143621603Y-81242963D01*
G37*
D11*
X143002000Y-82042000D03*
D10*
G36*
X143621603Y-96482963D02*
G01*
X143641018Y-96485843D01*
X143660057Y-96490612D01*
X143678537Y-96497224D01*
X143696279Y-96505616D01*
X143713114Y-96515706D01*
X143728879Y-96527398D01*
X143743421Y-96540579D01*
X143756602Y-96555121D01*
X143768294Y-96570886D01*
X143778384Y-96587721D01*
X143786776Y-96605463D01*
X143793388Y-96623943D01*
X143798157Y-96642982D01*
X143801037Y-96662397D01*
X143802000Y-96682000D01*
X143802000Y-97882000D01*
X143801037Y-97901603D01*
X143798157Y-97921018D01*
X143793388Y-97940057D01*
X143786776Y-97958537D01*
X143778384Y-97976279D01*
X143768294Y-97993114D01*
X143756602Y-98008879D01*
X143743421Y-98023421D01*
X143728879Y-98036602D01*
X143713114Y-98048294D01*
X143696279Y-98058384D01*
X143678537Y-98066776D01*
X143660057Y-98073388D01*
X143641018Y-98078157D01*
X143621603Y-98081037D01*
X143602000Y-98082000D01*
X142402000Y-98082000D01*
X142382397Y-98081037D01*
X142362982Y-98078157D01*
X142343943Y-98073388D01*
X142325463Y-98066776D01*
X142307721Y-98058384D01*
X142290886Y-98048294D01*
X142275121Y-98036602D01*
X142260579Y-98023421D01*
X142247398Y-98008879D01*
X142235706Y-97993114D01*
X142225616Y-97976279D01*
X142217224Y-97958537D01*
X142210612Y-97940057D01*
X142205843Y-97921018D01*
X142202963Y-97901603D01*
X142202000Y-97882000D01*
X142202000Y-96682000D01*
X142202963Y-96662397D01*
X142205843Y-96642982D01*
X142210612Y-96623943D01*
X142217224Y-96605463D01*
X142225616Y-96587721D01*
X142235706Y-96570886D01*
X142247398Y-96555121D01*
X142260579Y-96540579D01*
X142275121Y-96527398D01*
X142290886Y-96515706D01*
X142307721Y-96505616D01*
X142325463Y-96497224D01*
X142343943Y-96490612D01*
X142362982Y-96485843D01*
X142382397Y-96482963D01*
X142402000Y-96482000D01*
X143602000Y-96482000D01*
X143621603Y-96482963D01*
X143621603Y-96482963D01*
G37*
D11*
X143002000Y-97282000D03*
D10*
G36*
X151241603Y-73622963D02*
G01*
X151261018Y-73625843D01*
X151280057Y-73630612D01*
X151298537Y-73637224D01*
X151316279Y-73645616D01*
X151333114Y-73655706D01*
X151348879Y-73667398D01*
X151363421Y-73680579D01*
X151376602Y-73695121D01*
X151388294Y-73710886D01*
X151398384Y-73727721D01*
X151406776Y-73745463D01*
X151413388Y-73763943D01*
X151418157Y-73782982D01*
X151421037Y-73802397D01*
X151422000Y-73822000D01*
X151422000Y-75022000D01*
X151421037Y-75041603D01*
X151418157Y-75061018D01*
X151413388Y-75080057D01*
X151406776Y-75098537D01*
X151398384Y-75116279D01*
X151388294Y-75133114D01*
X151376602Y-75148879D01*
X151363421Y-75163421D01*
X151348879Y-75176602D01*
X151333114Y-75188294D01*
X151316279Y-75198384D01*
X151298537Y-75206776D01*
X151280057Y-75213388D01*
X151261018Y-75218157D01*
X151241603Y-75221037D01*
X151222000Y-75222000D01*
X150022000Y-75222000D01*
X150002397Y-75221037D01*
X149982982Y-75218157D01*
X149963943Y-75213388D01*
X149945463Y-75206776D01*
X149927721Y-75198384D01*
X149910886Y-75188294D01*
X149895121Y-75176602D01*
X149880579Y-75163421D01*
X149867398Y-75148879D01*
X149855706Y-75133114D01*
X149845616Y-75116279D01*
X149837224Y-75098537D01*
X149830612Y-75080057D01*
X149825843Y-75061018D01*
X149822963Y-75041603D01*
X149822000Y-75022000D01*
X149822000Y-73822000D01*
X149822963Y-73802397D01*
X149825843Y-73782982D01*
X149830612Y-73763943D01*
X149837224Y-73745463D01*
X149845616Y-73727721D01*
X149855706Y-73710886D01*
X149867398Y-73695121D01*
X149880579Y-73680579D01*
X149895121Y-73667398D01*
X149910886Y-73655706D01*
X149927721Y-73645616D01*
X149945463Y-73637224D01*
X149963943Y-73630612D01*
X149982982Y-73625843D01*
X150002397Y-73622963D01*
X150022000Y-73622000D01*
X151222000Y-73622000D01*
X151241603Y-73622963D01*
X151241603Y-73622963D01*
G37*
D11*
X150622000Y-74422000D03*
D10*
G36*
X227187603Y-81242963D02*
G01*
X227207018Y-81245843D01*
X227226057Y-81250612D01*
X227244537Y-81257224D01*
X227262279Y-81265616D01*
X227279114Y-81275706D01*
X227294879Y-81287398D01*
X227309421Y-81300579D01*
X227322602Y-81315121D01*
X227334294Y-81330886D01*
X227344384Y-81347721D01*
X227352776Y-81365463D01*
X227359388Y-81383943D01*
X227364157Y-81402982D01*
X227367037Y-81422397D01*
X227368000Y-81442000D01*
X227368000Y-82642000D01*
X227367037Y-82661603D01*
X227364157Y-82681018D01*
X227359388Y-82700057D01*
X227352776Y-82718537D01*
X227344384Y-82736279D01*
X227334294Y-82753114D01*
X227322602Y-82768879D01*
X227309421Y-82783421D01*
X227294879Y-82796602D01*
X227279114Y-82808294D01*
X227262279Y-82818384D01*
X227244537Y-82826776D01*
X227226057Y-82833388D01*
X227207018Y-82838157D01*
X227187603Y-82841037D01*
X227168000Y-82842000D01*
X225968000Y-82842000D01*
X225948397Y-82841037D01*
X225928982Y-82838157D01*
X225909943Y-82833388D01*
X225891463Y-82826776D01*
X225873721Y-82818384D01*
X225856886Y-82808294D01*
X225841121Y-82796602D01*
X225826579Y-82783421D01*
X225813398Y-82768879D01*
X225801706Y-82753114D01*
X225791616Y-82736279D01*
X225783224Y-82718537D01*
X225776612Y-82700057D01*
X225771843Y-82681018D01*
X225768963Y-82661603D01*
X225768000Y-82642000D01*
X225768000Y-81442000D01*
X225768963Y-81422397D01*
X225771843Y-81402982D01*
X225776612Y-81383943D01*
X225783224Y-81365463D01*
X225791616Y-81347721D01*
X225801706Y-81330886D01*
X225813398Y-81315121D01*
X225826579Y-81300579D01*
X225841121Y-81287398D01*
X225856886Y-81275706D01*
X225873721Y-81265616D01*
X225891463Y-81257224D01*
X225909943Y-81250612D01*
X225928982Y-81245843D01*
X225948397Y-81242963D01*
X225968000Y-81242000D01*
X227168000Y-81242000D01*
X227187603Y-81242963D01*
X227187603Y-81242963D01*
G37*
D11*
X226568000Y-82042000D03*
D10*
G36*
X143621603Y-78702963D02*
G01*
X143641018Y-78705843D01*
X143660057Y-78710612D01*
X143678537Y-78717224D01*
X143696279Y-78725616D01*
X143713114Y-78735706D01*
X143728879Y-78747398D01*
X143743421Y-78760579D01*
X143756602Y-78775121D01*
X143768294Y-78790886D01*
X143778384Y-78807721D01*
X143786776Y-78825463D01*
X143793388Y-78843943D01*
X143798157Y-78862982D01*
X143801037Y-78882397D01*
X143802000Y-78902000D01*
X143802000Y-80102000D01*
X143801037Y-80121603D01*
X143798157Y-80141018D01*
X143793388Y-80160057D01*
X143786776Y-80178537D01*
X143778384Y-80196279D01*
X143768294Y-80213114D01*
X143756602Y-80228879D01*
X143743421Y-80243421D01*
X143728879Y-80256602D01*
X143713114Y-80268294D01*
X143696279Y-80278384D01*
X143678537Y-80286776D01*
X143660057Y-80293388D01*
X143641018Y-80298157D01*
X143621603Y-80301037D01*
X143602000Y-80302000D01*
X142402000Y-80302000D01*
X142382397Y-80301037D01*
X142362982Y-80298157D01*
X142343943Y-80293388D01*
X142325463Y-80286776D01*
X142307721Y-80278384D01*
X142290886Y-80268294D01*
X142275121Y-80256602D01*
X142260579Y-80243421D01*
X142247398Y-80228879D01*
X142235706Y-80213114D01*
X142225616Y-80196279D01*
X142217224Y-80178537D01*
X142210612Y-80160057D01*
X142205843Y-80141018D01*
X142202963Y-80121603D01*
X142202000Y-80102000D01*
X142202000Y-78902000D01*
X142202963Y-78882397D01*
X142205843Y-78862982D01*
X142210612Y-78843943D01*
X142217224Y-78825463D01*
X142225616Y-78807721D01*
X142235706Y-78790886D01*
X142247398Y-78775121D01*
X142260579Y-78760579D01*
X142275121Y-78747398D01*
X142290886Y-78735706D01*
X142307721Y-78725616D01*
X142325463Y-78717224D01*
X142343943Y-78710612D01*
X142362982Y-78705843D01*
X142382397Y-78702963D01*
X142402000Y-78702000D01*
X143602000Y-78702000D01*
X143621603Y-78702963D01*
X143621603Y-78702963D01*
G37*
D11*
X143002000Y-79502000D03*
D10*
G36*
X143621603Y-86322963D02*
G01*
X143641018Y-86325843D01*
X143660057Y-86330612D01*
X143678537Y-86337224D01*
X143696279Y-86345616D01*
X143713114Y-86355706D01*
X143728879Y-86367398D01*
X143743421Y-86380579D01*
X143756602Y-86395121D01*
X143768294Y-86410886D01*
X143778384Y-86427721D01*
X143786776Y-86445463D01*
X143793388Y-86463943D01*
X143798157Y-86482982D01*
X143801037Y-86502397D01*
X143802000Y-86522000D01*
X143802000Y-87722000D01*
X143801037Y-87741603D01*
X143798157Y-87761018D01*
X143793388Y-87780057D01*
X143786776Y-87798537D01*
X143778384Y-87816279D01*
X143768294Y-87833114D01*
X143756602Y-87848879D01*
X143743421Y-87863421D01*
X143728879Y-87876602D01*
X143713114Y-87888294D01*
X143696279Y-87898384D01*
X143678537Y-87906776D01*
X143660057Y-87913388D01*
X143641018Y-87918157D01*
X143621603Y-87921037D01*
X143602000Y-87922000D01*
X142402000Y-87922000D01*
X142382397Y-87921037D01*
X142362982Y-87918157D01*
X142343943Y-87913388D01*
X142325463Y-87906776D01*
X142307721Y-87898384D01*
X142290886Y-87888294D01*
X142275121Y-87876602D01*
X142260579Y-87863421D01*
X142247398Y-87848879D01*
X142235706Y-87833114D01*
X142225616Y-87816279D01*
X142217224Y-87798537D01*
X142210612Y-87780057D01*
X142205843Y-87761018D01*
X142202963Y-87741603D01*
X142202000Y-87722000D01*
X142202000Y-86522000D01*
X142202963Y-86502397D01*
X142205843Y-86482982D01*
X142210612Y-86463943D01*
X142217224Y-86445463D01*
X142225616Y-86427721D01*
X142235706Y-86410886D01*
X142247398Y-86395121D01*
X142260579Y-86380579D01*
X142275121Y-86367398D01*
X142290886Y-86355706D01*
X142307721Y-86345616D01*
X142325463Y-86337224D01*
X142343943Y-86330612D01*
X142362982Y-86325843D01*
X142382397Y-86322963D01*
X142402000Y-86322000D01*
X143602000Y-86322000D01*
X143621603Y-86322963D01*
X143621603Y-86322963D01*
G37*
D11*
X143002000Y-87122000D03*
D10*
G36*
X143621603Y-88862963D02*
G01*
X143641018Y-88865843D01*
X143660057Y-88870612D01*
X143678537Y-88877224D01*
X143696279Y-88885616D01*
X143713114Y-88895706D01*
X143728879Y-88907398D01*
X143743421Y-88920579D01*
X143756602Y-88935121D01*
X143768294Y-88950886D01*
X143778384Y-88967721D01*
X143786776Y-88985463D01*
X143793388Y-89003943D01*
X143798157Y-89022982D01*
X143801037Y-89042397D01*
X143802000Y-89062000D01*
X143802000Y-90262000D01*
X143801037Y-90281603D01*
X143798157Y-90301018D01*
X143793388Y-90320057D01*
X143786776Y-90338537D01*
X143778384Y-90356279D01*
X143768294Y-90373114D01*
X143756602Y-90388879D01*
X143743421Y-90403421D01*
X143728879Y-90416602D01*
X143713114Y-90428294D01*
X143696279Y-90438384D01*
X143678537Y-90446776D01*
X143660057Y-90453388D01*
X143641018Y-90458157D01*
X143621603Y-90461037D01*
X143602000Y-90462000D01*
X142402000Y-90462000D01*
X142382397Y-90461037D01*
X142362982Y-90458157D01*
X142343943Y-90453388D01*
X142325463Y-90446776D01*
X142307721Y-90438384D01*
X142290886Y-90428294D01*
X142275121Y-90416602D01*
X142260579Y-90403421D01*
X142247398Y-90388879D01*
X142235706Y-90373114D01*
X142225616Y-90356279D01*
X142217224Y-90338537D01*
X142210612Y-90320057D01*
X142205843Y-90301018D01*
X142202963Y-90281603D01*
X142202000Y-90262000D01*
X142202000Y-89062000D01*
X142202963Y-89042397D01*
X142205843Y-89022982D01*
X142210612Y-89003943D01*
X142217224Y-88985463D01*
X142225616Y-88967721D01*
X142235706Y-88950886D01*
X142247398Y-88935121D01*
X142260579Y-88920579D01*
X142275121Y-88907398D01*
X142290886Y-88895706D01*
X142307721Y-88885616D01*
X142325463Y-88877224D01*
X142343943Y-88870612D01*
X142362982Y-88865843D01*
X142382397Y-88862963D01*
X142402000Y-88862000D01*
X143602000Y-88862000D01*
X143621603Y-88862963D01*
X143621603Y-88862963D01*
G37*
D11*
X143002000Y-89662000D03*
D10*
G36*
X143621603Y-91402963D02*
G01*
X143641018Y-91405843D01*
X143660057Y-91410612D01*
X143678537Y-91417224D01*
X143696279Y-91425616D01*
X143713114Y-91435706D01*
X143728879Y-91447398D01*
X143743421Y-91460579D01*
X143756602Y-91475121D01*
X143768294Y-91490886D01*
X143778384Y-91507721D01*
X143786776Y-91525463D01*
X143793388Y-91543943D01*
X143798157Y-91562982D01*
X143801037Y-91582397D01*
X143802000Y-91602000D01*
X143802000Y-92802000D01*
X143801037Y-92821603D01*
X143798157Y-92841018D01*
X143793388Y-92860057D01*
X143786776Y-92878537D01*
X143778384Y-92896279D01*
X143768294Y-92913114D01*
X143756602Y-92928879D01*
X143743421Y-92943421D01*
X143728879Y-92956602D01*
X143713114Y-92968294D01*
X143696279Y-92978384D01*
X143678537Y-92986776D01*
X143660057Y-92993388D01*
X143641018Y-92998157D01*
X143621603Y-93001037D01*
X143602000Y-93002000D01*
X142402000Y-93002000D01*
X142382397Y-93001037D01*
X142362982Y-92998157D01*
X142343943Y-92993388D01*
X142325463Y-92986776D01*
X142307721Y-92978384D01*
X142290886Y-92968294D01*
X142275121Y-92956602D01*
X142260579Y-92943421D01*
X142247398Y-92928879D01*
X142235706Y-92913114D01*
X142225616Y-92896279D01*
X142217224Y-92878537D01*
X142210612Y-92860057D01*
X142205843Y-92841018D01*
X142202963Y-92821603D01*
X142202000Y-92802000D01*
X142202000Y-91602000D01*
X142202963Y-91582397D01*
X142205843Y-91562982D01*
X142210612Y-91543943D01*
X142217224Y-91525463D01*
X142225616Y-91507721D01*
X142235706Y-91490886D01*
X142247398Y-91475121D01*
X142260579Y-91460579D01*
X142275121Y-91447398D01*
X142290886Y-91435706D01*
X142307721Y-91425616D01*
X142325463Y-91417224D01*
X142343943Y-91410612D01*
X142362982Y-91405843D01*
X142382397Y-91402963D01*
X142402000Y-91402000D01*
X143602000Y-91402000D01*
X143621603Y-91402963D01*
X143621603Y-91402963D01*
G37*
D11*
X143002000Y-92202000D03*
D10*
G36*
X143621603Y-93942963D02*
G01*
X143641018Y-93945843D01*
X143660057Y-93950612D01*
X143678537Y-93957224D01*
X143696279Y-93965616D01*
X143713114Y-93975706D01*
X143728879Y-93987398D01*
X143743421Y-94000579D01*
X143756602Y-94015121D01*
X143768294Y-94030886D01*
X143778384Y-94047721D01*
X143786776Y-94065463D01*
X143793388Y-94083943D01*
X143798157Y-94102982D01*
X143801037Y-94122397D01*
X143802000Y-94142000D01*
X143802000Y-95342000D01*
X143801037Y-95361603D01*
X143798157Y-95381018D01*
X143793388Y-95400057D01*
X143786776Y-95418537D01*
X143778384Y-95436279D01*
X143768294Y-95453114D01*
X143756602Y-95468879D01*
X143743421Y-95483421D01*
X143728879Y-95496602D01*
X143713114Y-95508294D01*
X143696279Y-95518384D01*
X143678537Y-95526776D01*
X143660057Y-95533388D01*
X143641018Y-95538157D01*
X143621603Y-95541037D01*
X143602000Y-95542000D01*
X142402000Y-95542000D01*
X142382397Y-95541037D01*
X142362982Y-95538157D01*
X142343943Y-95533388D01*
X142325463Y-95526776D01*
X142307721Y-95518384D01*
X142290886Y-95508294D01*
X142275121Y-95496602D01*
X142260579Y-95483421D01*
X142247398Y-95468879D01*
X142235706Y-95453114D01*
X142225616Y-95436279D01*
X142217224Y-95418537D01*
X142210612Y-95400057D01*
X142205843Y-95381018D01*
X142202963Y-95361603D01*
X142202000Y-95342000D01*
X142202000Y-94142000D01*
X142202963Y-94122397D01*
X142205843Y-94102982D01*
X142210612Y-94083943D01*
X142217224Y-94065463D01*
X142225616Y-94047721D01*
X142235706Y-94030886D01*
X142247398Y-94015121D01*
X142260579Y-94000579D01*
X142275121Y-93987398D01*
X142290886Y-93975706D01*
X142307721Y-93965616D01*
X142325463Y-93957224D01*
X142343943Y-93950612D01*
X142362982Y-93945843D01*
X142382397Y-93942963D01*
X142402000Y-93942000D01*
X143602000Y-93942000D01*
X143621603Y-93942963D01*
X143621603Y-93942963D01*
G37*
D11*
X143002000Y-94742000D03*
D12*
X262890000Y-74930000D03*
X255270000Y-97790000D03*
X262890000Y-77470000D03*
X255270000Y-95250000D03*
X262890000Y-80010000D03*
X255270000Y-92710000D03*
X262890000Y-82550000D03*
X255270000Y-90170000D03*
X262890000Y-85090000D03*
X255270000Y-87630000D03*
X262890000Y-87630000D03*
X255270000Y-85090000D03*
X262890000Y-90170000D03*
X255270000Y-82550000D03*
X262890000Y-92710000D03*
X255270000Y-80010000D03*
X262890000Y-95250000D03*
X255270000Y-77470000D03*
X262890000Y-97790000D03*
D13*
X255270000Y-74930000D03*
D14*
X209680000Y-96064800D03*
X215970400Y-92636000D03*
X211379300Y-94717800D03*
X190440300Y-95600100D03*
X212589200Y-95735300D03*
X193200800Y-98877300D03*
X213803500Y-94055100D03*
X212093700Y-93509600D03*
X194815300Y-98857500D03*
X215254200Y-94049000D03*
X202125600Y-97089500D03*
X195815100Y-96071900D03*
X174820300Y-97726500D03*
X169526700Y-83528800D03*
X196887300Y-88753700D03*
X196895600Y-87719500D03*
X197996500Y-87689200D03*
X198862000Y-88514700D03*
X201729000Y-88303400D03*
X221760000Y-98853200D03*
X199926600Y-99646600D03*
X217172600Y-96024400D03*
X198933200Y-98855000D03*
X196588200Y-101394200D03*
X205939200Y-87925800D03*
X201657000Y-100665500D03*
X185575600Y-87681100D03*
X208151200Y-84873300D03*
X186899900Y-83671900D03*
X194809400Y-83902400D03*
X193797600Y-83856700D03*
X188163500Y-87824400D03*
X192462000Y-83866000D03*
X213726200Y-84709000D03*
X190778000Y-87673700D03*
X212288100Y-84912800D03*
X189357800Y-83991100D03*
X211360000Y-84414300D03*
X210424900Y-84922600D03*
X189378100Y-87824400D03*
X209685400Y-84239700D03*
X188115500Y-83981300D03*
X175517400Y-96456500D03*
X168568500Y-85649600D03*
X186322600Y-94324700D03*
X171564100Y-87587000D03*
X185262000Y-95355600D03*
X205375800Y-94108200D03*
X168737000Y-87753200D03*
X182642800Y-94914500D03*
X165187300Y-89233500D03*
X183656800Y-94926200D03*
X168719300Y-90106500D03*
X185233700Y-94284900D03*
X182088100Y-85253100D03*
X204055600Y-86051900D03*
X183477900Y-84894200D03*
X202776700Y-83812000D03*
X184512500Y-84847300D03*
X201218400Y-82668500D03*
X174030000Y-91660000D03*
X171929400Y-83906600D03*
X174194400Y-88436200D03*
X180509100Y-77470000D03*
X253108100Y-76731700D03*
X251503900Y-79183800D03*
X251574000Y-81915000D03*
X251473200Y-84455000D03*
X174102600Y-95186500D03*
X184882500Y-81457900D03*
X174264100Y-92737200D03*
X178774100Y-80244100D03*
X180707400Y-76205300D03*
X186862000Y-96081500D03*
X206376200Y-94108200D03*
X189918200Y-79239200D03*
X157783000Y-80380700D03*
X214095800Y-98855000D03*
X213606700Y-87666300D03*
X206427300Y-83792600D03*
X212803100Y-94215100D03*
X196903000Y-96058400D03*
X179957000Y-84851000D03*
D15*
X190440300Y-95600100D02*
X191206900Y-94833500D01*
X191206900Y-94833500D02*
X211263600Y-94833500D01*
X211263600Y-94833500D02*
X211379300Y-94717800D01*
X193200800Y-98877300D02*
X194810600Y-97267500D01*
X194810600Y-97267500D02*
X200824800Y-97267500D01*
X200824800Y-97267500D02*
X201756100Y-96336200D01*
X201756100Y-96336200D02*
X202495200Y-96336200D01*
X202495200Y-96336200D02*
X202978800Y-96819800D01*
X202978800Y-96819800D02*
X210479000Y-96819800D01*
X210479000Y-96819800D02*
X212358400Y-94940400D01*
X212358400Y-94940400D02*
X213103600Y-94940400D01*
X213103600Y-94940400D02*
X213803500Y-94240500D01*
X213803500Y-94240500D02*
X213803500Y-94055100D01*
X194815300Y-98857500D02*
X195683600Y-97989200D01*
X195683600Y-97989200D02*
X211361500Y-97989200D01*
X211361500Y-97989200D02*
X215254200Y-94096500D01*
X215254200Y-94096500D02*
X215254200Y-94049000D01*
X143002000Y-87122000D02*
X144358500Y-88478500D01*
X144358500Y-88478500D02*
X170400600Y-88478500D01*
X170400600Y-88478500D02*
X171570500Y-89648400D01*
X171570500Y-89648400D02*
X195992600Y-89648400D01*
X195992600Y-89648400D02*
X196887300Y-88753700D01*
X143002000Y-89662000D02*
X141860000Y-88520000D01*
X141860000Y-88520000D02*
X141860000Y-86264500D01*
X141860000Y-86264500D02*
X142138600Y-85985900D01*
X142138600Y-85985900D02*
X166839700Y-85985900D01*
X166839700Y-85985900D02*
X167881600Y-87027800D01*
X167881600Y-87027800D02*
X169586800Y-87027800D01*
X169586800Y-87027800D02*
X171742800Y-89183800D01*
X171742800Y-89183800D02*
X195431300Y-89183800D01*
X195431300Y-89183800D02*
X196895600Y-87719500D01*
X197996500Y-87689200D02*
X197301500Y-86994200D01*
X197301500Y-86994200D02*
X193345000Y-86994200D01*
X193345000Y-86994200D02*
X191764300Y-88574900D01*
X191764300Y-88574900D02*
X176632600Y-88574900D01*
X176632600Y-88574900D02*
X174476100Y-86418400D01*
X174476100Y-86418400D02*
X168134400Y-86418400D01*
X168134400Y-86418400D02*
X167251500Y-85535500D01*
X167251500Y-85535500D02*
X141898600Y-85535500D01*
X141898600Y-85535500D02*
X141384200Y-86049900D01*
X141384200Y-86049900D02*
X141384200Y-90584200D01*
X141384200Y-90584200D02*
X143002000Y-92202000D01*
X198862000Y-88514700D02*
X196493700Y-90883000D01*
X196493700Y-90883000D02*
X146861000Y-90883000D01*
X146861000Y-90883000D02*
X143002000Y-94742000D01*
X150622000Y-97282000D02*
X149474600Y-96134600D01*
X149474600Y-96134600D02*
X149474600Y-93915900D01*
X149474600Y-93915900D02*
X149918500Y-93472000D01*
X149918500Y-93472000D02*
X196560400Y-93472000D01*
X196560400Y-93472000D02*
X201729000Y-88303400D01*
X150622000Y-94742000D02*
X155526600Y-99646600D01*
X155526600Y-99646600D02*
X199926600Y-99646600D01*
X199926600Y-99646600D02*
X220966600Y-99646600D01*
X220966600Y-99646600D02*
X221760000Y-98853200D01*
X185575600Y-87681100D02*
X187613400Y-85643300D01*
X187613400Y-85643300D02*
X202633400Y-85643300D01*
X202633400Y-85643300D02*
X203403400Y-84873300D01*
X203403400Y-84873300D02*
X205845400Y-84873300D01*
X205845400Y-84873300D02*
X205940300Y-84968200D01*
X205940300Y-84968200D02*
X208056300Y-84968200D01*
X208056300Y-84968200D02*
X208151200Y-84873300D01*
X185575600Y-87681100D02*
X177518500Y-87681100D01*
X177518500Y-87681100D02*
X174699100Y-84861700D01*
X174699100Y-84861700D02*
X153441700Y-84861700D01*
X153441700Y-84861700D02*
X150622000Y-82042000D01*
X226568000Y-82042000D02*
X226430700Y-81904700D01*
X226430700Y-81904700D02*
X188667100Y-81904700D01*
X188667100Y-81904700D02*
X186899900Y-83671900D01*
X213726200Y-84709000D02*
X211634100Y-82616900D01*
X211634100Y-82616900D02*
X202308900Y-82616900D01*
X202308900Y-82616900D02*
X201484900Y-83440900D01*
X201484900Y-83440900D02*
X195573500Y-83440900D01*
X195573500Y-83440900D02*
X195179800Y-83047200D01*
X195179800Y-83047200D02*
X193280800Y-83047200D01*
X193280800Y-83047200D02*
X192462000Y-83866000D01*
X212288100Y-84912800D02*
X210366100Y-86834800D01*
X210366100Y-86834800D02*
X198310500Y-86834800D01*
X198310500Y-86834800D02*
X198019600Y-86543900D01*
X198019600Y-86543900D02*
X191907800Y-86543900D01*
X191907800Y-86543900D02*
X190778000Y-87673700D01*
X189357800Y-83991100D02*
X189994600Y-84627900D01*
X189994600Y-84627900D02*
X200934800Y-84627900D01*
X200934800Y-84627900D02*
X202495500Y-83067200D01*
X202495500Y-83067200D02*
X210012900Y-83067200D01*
X210012900Y-83067200D02*
X211360000Y-84414300D01*
X189378100Y-87824400D02*
X191108900Y-86093600D01*
X191108900Y-86093600D02*
X202820000Y-86093600D01*
X202820000Y-86093600D02*
X203587000Y-85326600D01*
X203587000Y-85326600D02*
X204356100Y-85326600D01*
X204356100Y-85326600D02*
X204628200Y-85598700D01*
X204628200Y-85598700D02*
X209748800Y-85598700D01*
X209748800Y-85598700D02*
X210424900Y-84922600D01*
X188115500Y-83981300D02*
X189245700Y-85111500D01*
X189245700Y-85111500D02*
X202503000Y-85111500D01*
X202503000Y-85111500D02*
X203283600Y-84330900D01*
X203283600Y-84330900D02*
X205939900Y-84330900D01*
X205939900Y-84330900D02*
X206126900Y-84517900D01*
X206126900Y-84517900D02*
X206727800Y-84517900D01*
X206727800Y-84517900D02*
X207101700Y-84144000D01*
X207101700Y-84144000D02*
X209589700Y-84144000D01*
X209589700Y-84144000D02*
X209685400Y-84239700D01*
X188115500Y-83981300D02*
X187640700Y-84456100D01*
X187640700Y-84456100D02*
X186056300Y-84456100D01*
X186056300Y-84456100D02*
X177436000Y-75835800D01*
X177436000Y-75835800D02*
X144415800Y-75835800D01*
X144415800Y-75835800D02*
X143002000Y-74422000D01*
X185262000Y-95355600D02*
X186517200Y-95355600D01*
X186517200Y-95355600D02*
X187764600Y-94108200D01*
X187764600Y-94108200D02*
X205375800Y-94108200D01*
X253744700Y-77470000D02*
X252947400Y-78267300D01*
X252947400Y-78267300D02*
X188073100Y-78267300D01*
X188073100Y-78267300D02*
X184882500Y-81457900D01*
X255270000Y-77470000D02*
X253744700Y-77470000D01*
X213606700Y-87666300D02*
X244047200Y-87666300D01*
X244047200Y-87666300D02*
X252973500Y-78740000D01*
X252973500Y-78740000D02*
X257554700Y-78740000D01*
X257554700Y-78740000D02*
X261364700Y-74930000D01*
X262890000Y-74930000D02*
X261364700Y-74930000D01*
M02*
