G04 #@! TF.GenerationSoftware,KiCad,Pcbnew,(5.1.2-1)-1*
G04 #@! TF.CreationDate,2019-06-09T21:32:49+01:00*
G04 #@! TF.ProjectId,SRAM Board 2MB,5352414d-2042-46f6-9172-6420324d422e,rev?*
G04 #@! TF.SameCoordinates,Original*
G04 #@! TF.FileFunction,Legend,Top*
G04 #@! TF.FilePolarity,Positive*
%FSLAX46Y46*%
G04 Gerber Fmt 4.6, Leading zero omitted, Abs format (unit mm)*
G04 Created by KiCad (PCBNEW (5.1.2-1)-1) date 2019-06-09 21:32:49*
%MOMM*%
%LPD*%
G04 APERTURE LIST*
%ADD10C,0.075000*%
%ADD11C,0.125000*%
%ADD12C,0.100000*%
%ADD13C,0.150000*%
%ADD14C,0.120000*%
G04 APERTURE END LIST*
D10*
X171402952Y-71830380D02*
X171474380Y-71854190D01*
X171593428Y-71854190D01*
X171641047Y-71830380D01*
X171664857Y-71806571D01*
X171688666Y-71758952D01*
X171688666Y-71711333D01*
X171664857Y-71663714D01*
X171641047Y-71639904D01*
X171593428Y-71616095D01*
X171498190Y-71592285D01*
X171450571Y-71568476D01*
X171426761Y-71544666D01*
X171402952Y-71497047D01*
X171402952Y-71449428D01*
X171426761Y-71401809D01*
X171450571Y-71378000D01*
X171498190Y-71354190D01*
X171617238Y-71354190D01*
X171688666Y-71378000D01*
X171902952Y-71854190D02*
X171902952Y-71520857D01*
X171902952Y-71354190D02*
X171879142Y-71378000D01*
X171902952Y-71401809D01*
X171926761Y-71378000D01*
X171902952Y-71354190D01*
X171902952Y-71401809D01*
X172141047Y-71520857D02*
X172141047Y-71854190D01*
X172141047Y-71568476D02*
X172164857Y-71544666D01*
X172212476Y-71520857D01*
X172283904Y-71520857D01*
X172331523Y-71544666D01*
X172355333Y-71592285D01*
X172355333Y-71854190D01*
X172807714Y-71520857D02*
X172807714Y-71925619D01*
X172783904Y-71973238D01*
X172760095Y-71997047D01*
X172712476Y-72020857D01*
X172641047Y-72020857D01*
X172593428Y-71997047D01*
X172807714Y-71830380D02*
X172760095Y-71854190D01*
X172664857Y-71854190D01*
X172617238Y-71830380D01*
X172593428Y-71806571D01*
X172569619Y-71758952D01*
X172569619Y-71616095D01*
X172593428Y-71568476D01*
X172617238Y-71544666D01*
X172664857Y-71520857D01*
X172760095Y-71520857D01*
X172807714Y-71544666D01*
X173117238Y-71854190D02*
X173069619Y-71830380D01*
X173045809Y-71782761D01*
X173045809Y-71354190D01*
X173498190Y-71830380D02*
X173450571Y-71854190D01*
X173355333Y-71854190D01*
X173307714Y-71830380D01*
X173283904Y-71782761D01*
X173283904Y-71592285D01*
X173307714Y-71544666D01*
X173355333Y-71520857D01*
X173450571Y-71520857D01*
X173498190Y-71544666D01*
X173522000Y-71592285D01*
X173522000Y-71639904D01*
X173283904Y-71687523D01*
X174117238Y-71854190D02*
X174117238Y-71354190D01*
X174236285Y-71354190D01*
X174307714Y-71378000D01*
X174355333Y-71425619D01*
X174379142Y-71473238D01*
X174402952Y-71568476D01*
X174402952Y-71639904D01*
X174379142Y-71735142D01*
X174355333Y-71782761D01*
X174307714Y-71830380D01*
X174236285Y-71854190D01*
X174117238Y-71854190D01*
X174617238Y-71663714D02*
X174998190Y-71663714D01*
X175164857Y-71354190D02*
X175450571Y-71354190D01*
X175307714Y-71854190D02*
X175307714Y-71354190D01*
X175569619Y-71520857D02*
X175688666Y-71854190D01*
X175807714Y-71520857D02*
X175688666Y-71854190D01*
X175641047Y-71973238D01*
X175617238Y-71997047D01*
X175569619Y-72020857D01*
X175998190Y-71520857D02*
X175998190Y-72020857D01*
X175998190Y-71544666D02*
X176045809Y-71520857D01*
X176141047Y-71520857D01*
X176188666Y-71544666D01*
X176212476Y-71568476D01*
X176236285Y-71616095D01*
X176236285Y-71758952D01*
X176212476Y-71806571D01*
X176188666Y-71830380D01*
X176141047Y-71854190D01*
X176045809Y-71854190D01*
X175998190Y-71830380D01*
X176641047Y-71830380D02*
X176593428Y-71854190D01*
X176498190Y-71854190D01*
X176450571Y-71830380D01*
X176426761Y-71782761D01*
X176426761Y-71592285D01*
X176450571Y-71544666D01*
X176498190Y-71520857D01*
X176593428Y-71520857D01*
X176641047Y-71544666D01*
X176664857Y-71592285D01*
X176664857Y-71639904D01*
X176426761Y-71687523D01*
X177426761Y-71592285D02*
X177260095Y-71592285D01*
X177260095Y-71854190D02*
X177260095Y-71354190D01*
X177498190Y-71354190D01*
X177760095Y-71854190D02*
X177712476Y-71830380D01*
X177688666Y-71782761D01*
X177688666Y-71354190D01*
X177950571Y-71854190D02*
X177950571Y-71520857D01*
X177950571Y-71354190D02*
X177926761Y-71378000D01*
X177950571Y-71401809D01*
X177974380Y-71378000D01*
X177950571Y-71354190D01*
X177950571Y-71401809D01*
X178188666Y-71520857D02*
X178188666Y-72020857D01*
X178188666Y-71544666D02*
X178236285Y-71520857D01*
X178331523Y-71520857D01*
X178379142Y-71544666D01*
X178402952Y-71568476D01*
X178426761Y-71616095D01*
X178426761Y-71758952D01*
X178402952Y-71806571D01*
X178379142Y-71830380D01*
X178331523Y-71854190D01*
X178236285Y-71854190D01*
X178188666Y-71830380D01*
X178641047Y-71663714D02*
X179022000Y-71663714D01*
X179426761Y-71592285D02*
X179260095Y-71592285D01*
X179260095Y-71854190D02*
X179260095Y-71354190D01*
X179498190Y-71354190D01*
X179760095Y-71854190D02*
X179712476Y-71830380D01*
X179688666Y-71782761D01*
X179688666Y-71354190D01*
X180022000Y-71854190D02*
X179974380Y-71830380D01*
X179950571Y-71806571D01*
X179926761Y-71758952D01*
X179926761Y-71616095D01*
X179950571Y-71568476D01*
X179974380Y-71544666D01*
X180022000Y-71520857D01*
X180093428Y-71520857D01*
X180141047Y-71544666D01*
X180164857Y-71568476D01*
X180188666Y-71616095D01*
X180188666Y-71758952D01*
X180164857Y-71806571D01*
X180141047Y-71830380D01*
X180093428Y-71854190D01*
X180022000Y-71854190D01*
X180402952Y-71520857D02*
X180402952Y-72020857D01*
X180402952Y-71544666D02*
X180450571Y-71520857D01*
X180545809Y-71520857D01*
X180593428Y-71544666D01*
X180617238Y-71568476D01*
X180641047Y-71616095D01*
X180641047Y-71758952D01*
X180617238Y-71806571D01*
X180593428Y-71830380D01*
X180545809Y-71854190D01*
X180450571Y-71854190D01*
X180402952Y-71830380D01*
X178803285Y-74221952D02*
X178574714Y-74221952D01*
X178689000Y-74221952D02*
X178689000Y-73821952D01*
X178650904Y-73879095D01*
X178612809Y-73917190D01*
X178574714Y-73936238D01*
X173279142Y-70410428D02*
X173679142Y-70410428D01*
X173422000Y-71010428D01*
X174164857Y-70610428D02*
X174164857Y-71010428D01*
X174022000Y-70381857D02*
X173879142Y-70810428D01*
X174250571Y-70810428D01*
X174450571Y-70839000D02*
X174736285Y-70839000D01*
X174393428Y-71010428D02*
X174593428Y-70410428D01*
X174793428Y-71010428D01*
X174993428Y-71010428D02*
X174993428Y-70410428D01*
X174993428Y-70696142D02*
X175336285Y-70696142D01*
X175336285Y-71010428D02*
X175336285Y-70410428D01*
X175964857Y-70953285D02*
X175936285Y-70981857D01*
X175850571Y-71010428D01*
X175793428Y-71010428D01*
X175707714Y-70981857D01*
X175650571Y-70924714D01*
X175622000Y-70867571D01*
X175593428Y-70753285D01*
X175593428Y-70667571D01*
X175622000Y-70553285D01*
X175650571Y-70496142D01*
X175707714Y-70439000D01*
X175793428Y-70410428D01*
X175850571Y-70410428D01*
X175936285Y-70439000D01*
X175964857Y-70467571D01*
X176136285Y-70410428D02*
X176479142Y-70410428D01*
X176307714Y-71010428D02*
X176307714Y-70410428D01*
X176993428Y-71010428D02*
X176650571Y-71010428D01*
X176822000Y-71010428D02*
X176822000Y-70410428D01*
X176764857Y-70496142D01*
X176707714Y-70553285D01*
X176650571Y-70581857D01*
X177564857Y-70439000D02*
X177507714Y-70410428D01*
X177422000Y-70410428D01*
X177336285Y-70439000D01*
X177279142Y-70496142D01*
X177250571Y-70553285D01*
X177222000Y-70667571D01*
X177222000Y-70753285D01*
X177250571Y-70867571D01*
X177279142Y-70924714D01*
X177336285Y-70981857D01*
X177422000Y-71010428D01*
X177479142Y-71010428D01*
X177564857Y-70981857D01*
X177593428Y-70953285D01*
X177593428Y-70753285D01*
X177479142Y-70753285D01*
X177793428Y-70410428D02*
X178193428Y-70410428D01*
X177936285Y-71010428D01*
X178450571Y-71010428D02*
X178564857Y-71010428D01*
X178622000Y-70981857D01*
X178650571Y-70953285D01*
X178707714Y-70867571D01*
X178736285Y-70753285D01*
X178736285Y-70524714D01*
X178707714Y-70467571D01*
X178679142Y-70439000D01*
X178622000Y-70410428D01*
X178507714Y-70410428D01*
X178450571Y-70439000D01*
X178422000Y-70467571D01*
X178393428Y-70524714D01*
X178393428Y-70667571D01*
X178422000Y-70724714D01*
X178450571Y-70753285D01*
X178507714Y-70781857D01*
X178622000Y-70781857D01*
X178679142Y-70753285D01*
X178707714Y-70724714D01*
X178736285Y-70667571D01*
D11*
X178619857Y-91725714D02*
X178581761Y-91763809D01*
X178467476Y-91801904D01*
X178391285Y-91801904D01*
X178277000Y-91763809D01*
X178200809Y-91687619D01*
X178162714Y-91611428D01*
X178124619Y-91459047D01*
X178124619Y-91344761D01*
X178162714Y-91192380D01*
X178200809Y-91116190D01*
X178277000Y-91040000D01*
X178391285Y-91001904D01*
X178467476Y-91001904D01*
X178581761Y-91040000D01*
X178619857Y-91078095D01*
X179115095Y-91420952D02*
X179115095Y-91801904D01*
X178848428Y-91001904D02*
X179115095Y-91420952D01*
X179381761Y-91001904D01*
X179991285Y-91001904D02*
X179838904Y-91001904D01*
X179762714Y-91040000D01*
X179724619Y-91078095D01*
X179648428Y-91192380D01*
X179610333Y-91344761D01*
X179610333Y-91649523D01*
X179648428Y-91725714D01*
X179686523Y-91763809D01*
X179762714Y-91801904D01*
X179915095Y-91801904D01*
X179991285Y-91763809D01*
X180029380Y-91725714D01*
X180067476Y-91649523D01*
X180067476Y-91459047D01*
X180029380Y-91382857D01*
X179991285Y-91344761D01*
X179915095Y-91306666D01*
X179762714Y-91306666D01*
X179686523Y-91344761D01*
X179648428Y-91382857D01*
X179610333Y-91459047D01*
X180372238Y-91078095D02*
X180410333Y-91040000D01*
X180486523Y-91001904D01*
X180677000Y-91001904D01*
X180753190Y-91040000D01*
X180791285Y-91078095D01*
X180829380Y-91154285D01*
X180829380Y-91230476D01*
X180791285Y-91344761D01*
X180334142Y-91801904D01*
X180829380Y-91801904D01*
X181591285Y-91801904D02*
X181134142Y-91801904D01*
X181362714Y-91801904D02*
X181362714Y-91001904D01*
X181286523Y-91116190D01*
X181210333Y-91192380D01*
X181134142Y-91230476D01*
X182315095Y-91001904D02*
X181934142Y-91001904D01*
X181896047Y-91382857D01*
X181934142Y-91344761D01*
X182010333Y-91306666D01*
X182200809Y-91306666D01*
X182277000Y-91344761D01*
X182315095Y-91382857D01*
X182353190Y-91459047D01*
X182353190Y-91649523D01*
X182315095Y-91725714D01*
X182277000Y-91763809D01*
X182200809Y-91801904D01*
X182010333Y-91801904D01*
X181934142Y-91763809D01*
X181896047Y-91725714D01*
X182619857Y-91001904D02*
X183153190Y-91001904D01*
X182810333Y-91801904D01*
X183457952Y-91382857D02*
X183724619Y-91382857D01*
X183838904Y-91801904D02*
X183457952Y-91801904D01*
X183457952Y-91001904D01*
X183838904Y-91001904D01*
X184143666Y-91763809D02*
X184257952Y-91801904D01*
X184448428Y-91801904D01*
X184524619Y-91763809D01*
X184562714Y-91725714D01*
X184600809Y-91649523D01*
X184600809Y-91573333D01*
X184562714Y-91497142D01*
X184524619Y-91459047D01*
X184448428Y-91420952D01*
X184296047Y-91382857D01*
X184219857Y-91344761D01*
X184181761Y-91306666D01*
X184143666Y-91230476D01*
X184143666Y-91154285D01*
X184181761Y-91078095D01*
X184219857Y-91040000D01*
X184296047Y-91001904D01*
X184486523Y-91001904D01*
X184600809Y-91040000D01*
X185324619Y-91801904D02*
X184943666Y-91801904D01*
X184943666Y-91001904D01*
X185591285Y-91497142D02*
X186200809Y-91497142D01*
X186924619Y-91268571D02*
X186924619Y-91801904D01*
X186734142Y-90963809D02*
X186543666Y-91535238D01*
X187038904Y-91535238D01*
X187724619Y-91001904D02*
X187343666Y-91001904D01*
X187305571Y-91382857D01*
X187343666Y-91344761D01*
X187419857Y-91306666D01*
X187610333Y-91306666D01*
X187686523Y-91344761D01*
X187724619Y-91382857D01*
X187762714Y-91459047D01*
X187762714Y-91649523D01*
X187724619Y-91725714D01*
X187686523Y-91763809D01*
X187610333Y-91801904D01*
X187419857Y-91801904D01*
X187343666Y-91763809D01*
X187305571Y-91725714D01*
X188029380Y-91001904D02*
X188562714Y-91001904D01*
X188029380Y-91801904D01*
X188562714Y-91801904D01*
X188829380Y-91763809D02*
X188943666Y-91801904D01*
X189134142Y-91801904D01*
X189210333Y-91763809D01*
X189248428Y-91725714D01*
X189286523Y-91649523D01*
X189286523Y-91573333D01*
X189248428Y-91497142D01*
X189210333Y-91459047D01*
X189134142Y-91420952D01*
X188981761Y-91382857D01*
X188905571Y-91344761D01*
X188867476Y-91306666D01*
X188829380Y-91230476D01*
X188829380Y-91154285D01*
X188867476Y-91078095D01*
X188905571Y-91040000D01*
X188981761Y-91001904D01*
X189172238Y-91001904D01*
X189286523Y-91040000D01*
X189553190Y-91001904D02*
X190086523Y-91801904D01*
X190086523Y-91001904D02*
X189553190Y-91801904D01*
X190391285Y-91801904D02*
X190391285Y-91001904D01*
X202622857Y-91725714D02*
X202584761Y-91763809D01*
X202470476Y-91801904D01*
X202394285Y-91801904D01*
X202280000Y-91763809D01*
X202203809Y-91687619D01*
X202165714Y-91611428D01*
X202127619Y-91459047D01*
X202127619Y-91344761D01*
X202165714Y-91192380D01*
X202203809Y-91116190D01*
X202280000Y-91040000D01*
X202394285Y-91001904D01*
X202470476Y-91001904D01*
X202584761Y-91040000D01*
X202622857Y-91078095D01*
X203118095Y-91420952D02*
X203118095Y-91801904D01*
X202851428Y-91001904D02*
X203118095Y-91420952D01*
X203384761Y-91001904D01*
X203994285Y-91001904D02*
X203841904Y-91001904D01*
X203765714Y-91040000D01*
X203727619Y-91078095D01*
X203651428Y-91192380D01*
X203613333Y-91344761D01*
X203613333Y-91649523D01*
X203651428Y-91725714D01*
X203689523Y-91763809D01*
X203765714Y-91801904D01*
X203918095Y-91801904D01*
X203994285Y-91763809D01*
X204032380Y-91725714D01*
X204070476Y-91649523D01*
X204070476Y-91459047D01*
X204032380Y-91382857D01*
X203994285Y-91344761D01*
X203918095Y-91306666D01*
X203765714Y-91306666D01*
X203689523Y-91344761D01*
X203651428Y-91382857D01*
X203613333Y-91459047D01*
X204375238Y-91078095D02*
X204413333Y-91040000D01*
X204489523Y-91001904D01*
X204680000Y-91001904D01*
X204756190Y-91040000D01*
X204794285Y-91078095D01*
X204832380Y-91154285D01*
X204832380Y-91230476D01*
X204794285Y-91344761D01*
X204337142Y-91801904D01*
X204832380Y-91801904D01*
X205594285Y-91801904D02*
X205137142Y-91801904D01*
X205365714Y-91801904D02*
X205365714Y-91001904D01*
X205289523Y-91116190D01*
X205213333Y-91192380D01*
X205137142Y-91230476D01*
X206318095Y-91001904D02*
X205937142Y-91001904D01*
X205899047Y-91382857D01*
X205937142Y-91344761D01*
X206013333Y-91306666D01*
X206203809Y-91306666D01*
X206280000Y-91344761D01*
X206318095Y-91382857D01*
X206356190Y-91459047D01*
X206356190Y-91649523D01*
X206318095Y-91725714D01*
X206280000Y-91763809D01*
X206203809Y-91801904D01*
X206013333Y-91801904D01*
X205937142Y-91763809D01*
X205899047Y-91725714D01*
X206622857Y-91001904D02*
X207156190Y-91001904D01*
X206813333Y-91801904D01*
X207460952Y-91382857D02*
X207727619Y-91382857D01*
X207841904Y-91801904D02*
X207460952Y-91801904D01*
X207460952Y-91001904D01*
X207841904Y-91001904D01*
X208146666Y-91763809D02*
X208260952Y-91801904D01*
X208451428Y-91801904D01*
X208527619Y-91763809D01*
X208565714Y-91725714D01*
X208603809Y-91649523D01*
X208603809Y-91573333D01*
X208565714Y-91497142D01*
X208527619Y-91459047D01*
X208451428Y-91420952D01*
X208299047Y-91382857D01*
X208222857Y-91344761D01*
X208184761Y-91306666D01*
X208146666Y-91230476D01*
X208146666Y-91154285D01*
X208184761Y-91078095D01*
X208222857Y-91040000D01*
X208299047Y-91001904D01*
X208489523Y-91001904D01*
X208603809Y-91040000D01*
X209327619Y-91801904D02*
X208946666Y-91801904D01*
X208946666Y-91001904D01*
X209594285Y-91497142D02*
X210203809Y-91497142D01*
X210927619Y-91268571D02*
X210927619Y-91801904D01*
X210737142Y-90963809D02*
X210546666Y-91535238D01*
X211041904Y-91535238D01*
X211727619Y-91001904D02*
X211346666Y-91001904D01*
X211308571Y-91382857D01*
X211346666Y-91344761D01*
X211422857Y-91306666D01*
X211613333Y-91306666D01*
X211689523Y-91344761D01*
X211727619Y-91382857D01*
X211765714Y-91459047D01*
X211765714Y-91649523D01*
X211727619Y-91725714D01*
X211689523Y-91763809D01*
X211613333Y-91801904D01*
X211422857Y-91801904D01*
X211346666Y-91763809D01*
X211308571Y-91725714D01*
X212032380Y-91001904D02*
X212565714Y-91001904D01*
X212032380Y-91801904D01*
X212565714Y-91801904D01*
X212832380Y-91763809D02*
X212946666Y-91801904D01*
X213137142Y-91801904D01*
X213213333Y-91763809D01*
X213251428Y-91725714D01*
X213289523Y-91649523D01*
X213289523Y-91573333D01*
X213251428Y-91497142D01*
X213213333Y-91459047D01*
X213137142Y-91420952D01*
X212984761Y-91382857D01*
X212908571Y-91344761D01*
X212870476Y-91306666D01*
X212832380Y-91230476D01*
X212832380Y-91154285D01*
X212870476Y-91078095D01*
X212908571Y-91040000D01*
X212984761Y-91001904D01*
X213175238Y-91001904D01*
X213289523Y-91040000D01*
X213556190Y-91001904D02*
X214089523Y-91801904D01*
X214089523Y-91001904D02*
X213556190Y-91801904D01*
X214394285Y-91801904D02*
X214394285Y-91001904D01*
D10*
X182486285Y-72062952D02*
X182257714Y-72062952D01*
X182372000Y-72062952D02*
X182372000Y-71662952D01*
X182333904Y-71720095D01*
X182295809Y-71758190D01*
X182257714Y-71777238D01*
X168729047Y-86474285D02*
X168729047Y-86245714D01*
X168729047Y-86360000D02*
X169129047Y-86360000D01*
X169071904Y-86321904D01*
X169033809Y-86283809D01*
X169014761Y-86245714D01*
X164452285Y-79682952D02*
X164223714Y-79682952D01*
X164338000Y-79682952D02*
X164338000Y-79282952D01*
X164299904Y-79340095D01*
X164261809Y-79378190D01*
X164223714Y-79397238D01*
X176202952Y-98564714D02*
X176202952Y-98793285D01*
X176202952Y-98679000D02*
X175802952Y-98679000D01*
X175860095Y-98717095D01*
X175898190Y-98755190D01*
X175917238Y-98793285D01*
X200078952Y-98564714D02*
X200078952Y-98793285D01*
X200078952Y-98679000D02*
X199678952Y-98679000D01*
X199736095Y-98717095D01*
X199774190Y-98755190D01*
X199793238Y-98793285D01*
X239001285Y-75110952D02*
X238772714Y-75110952D01*
X238887000Y-75110952D02*
X238887000Y-74710952D01*
X238848904Y-74768095D01*
X238810809Y-74806190D01*
X238772714Y-74825238D01*
X228152380Y-81803904D02*
X227809523Y-82318190D01*
X228342857Y-82222952D02*
X228304761Y-82203904D01*
X228285714Y-82165809D01*
X228285714Y-81822952D01*
X228666666Y-82203904D02*
X228628571Y-82222952D01*
X228552380Y-82222952D01*
X228514285Y-82203904D01*
X228495238Y-82184857D01*
X228476190Y-82146761D01*
X228476190Y-82032476D01*
X228495238Y-81994380D01*
X228514285Y-81975333D01*
X228552380Y-81956285D01*
X228628571Y-81956285D01*
X228666666Y-81975333D01*
X229009523Y-82222952D02*
X229009523Y-82013428D01*
X228990476Y-81975333D01*
X228952380Y-81956285D01*
X228876190Y-81956285D01*
X228838095Y-81975333D01*
X229009523Y-82203904D02*
X228971428Y-82222952D01*
X228876190Y-82222952D01*
X228838095Y-82203904D01*
X228819047Y-82165809D01*
X228819047Y-82127714D01*
X228838095Y-82089619D01*
X228876190Y-82070571D01*
X228971428Y-82070571D01*
X229009523Y-82051523D01*
X229180952Y-82203904D02*
X229219047Y-82222952D01*
X229295238Y-82222952D01*
X229333333Y-82203904D01*
X229352380Y-82165809D01*
X229352380Y-82146761D01*
X229333333Y-82108666D01*
X229295238Y-82089619D01*
X229238095Y-82089619D01*
X229200000Y-82070571D01*
X229180952Y-82032476D01*
X229180952Y-82013428D01*
X229200000Y-81975333D01*
X229238095Y-81956285D01*
X229295238Y-81956285D01*
X229333333Y-81975333D01*
X228241238Y-79682952D02*
X228241238Y-79282952D01*
X228241238Y-79663904D02*
X228203142Y-79682952D01*
X228126952Y-79682952D01*
X228088857Y-79663904D01*
X228069809Y-79644857D01*
X228050761Y-79606761D01*
X228050761Y-79492476D01*
X228069809Y-79454380D01*
X228088857Y-79435333D01*
X228126952Y-79416285D01*
X228203142Y-79416285D01*
X228241238Y-79435333D01*
X228507904Y-79282952D02*
X228546000Y-79282952D01*
X228584095Y-79302000D01*
X228603142Y-79321047D01*
X228622190Y-79359142D01*
X228641238Y-79435333D01*
X228641238Y-79530571D01*
X228622190Y-79606761D01*
X228603142Y-79644857D01*
X228584095Y-79663904D01*
X228546000Y-79682952D01*
X228507904Y-79682952D01*
X228469809Y-79663904D01*
X228450761Y-79644857D01*
X228431714Y-79606761D01*
X228412666Y-79530571D01*
X228412666Y-79435333D01*
X228431714Y-79359142D01*
X228450761Y-79321047D01*
X228469809Y-79302000D01*
X228507904Y-79282952D01*
X228241238Y-77142952D02*
X228241238Y-76742952D01*
X228241238Y-77123904D02*
X228203142Y-77142952D01*
X228126952Y-77142952D01*
X228088857Y-77123904D01*
X228069809Y-77104857D01*
X228050761Y-77066761D01*
X228050761Y-76952476D01*
X228069809Y-76914380D01*
X228088857Y-76895333D01*
X228126952Y-76876285D01*
X228203142Y-76876285D01*
X228241238Y-76895333D01*
X228412666Y-76781047D02*
X228431714Y-76762000D01*
X228469809Y-76742952D01*
X228565047Y-76742952D01*
X228603142Y-76762000D01*
X228622190Y-76781047D01*
X228641238Y-76819142D01*
X228641238Y-76857238D01*
X228622190Y-76914380D01*
X228393619Y-77142952D01*
X228641238Y-77142952D01*
X217065238Y-77142952D02*
X217065238Y-76742952D01*
X217065238Y-77123904D02*
X217027142Y-77142952D01*
X216950952Y-77142952D01*
X216912857Y-77123904D01*
X216893809Y-77104857D01*
X216874761Y-77066761D01*
X216874761Y-76952476D01*
X216893809Y-76914380D01*
X216912857Y-76895333D01*
X216950952Y-76876285D01*
X217027142Y-76876285D01*
X217065238Y-76895333D01*
X217465238Y-77142952D02*
X217236666Y-77142952D01*
X217350952Y-77142952D02*
X217350952Y-76742952D01*
X217312857Y-76800095D01*
X217274761Y-76838190D01*
X217236666Y-76857238D01*
X217065238Y-74602952D02*
X217065238Y-74202952D01*
X217065238Y-74583904D02*
X217027142Y-74602952D01*
X216950952Y-74602952D01*
X216912857Y-74583904D01*
X216893809Y-74564857D01*
X216874761Y-74526761D01*
X216874761Y-74412476D01*
X216893809Y-74374380D01*
X216912857Y-74355333D01*
X216950952Y-74336285D01*
X217027142Y-74336285D01*
X217065238Y-74355333D01*
X217217619Y-74202952D02*
X217465238Y-74202952D01*
X217331904Y-74355333D01*
X217389047Y-74355333D01*
X217427142Y-74374380D01*
X217446190Y-74393428D01*
X217465238Y-74431523D01*
X217465238Y-74526761D01*
X217446190Y-74564857D01*
X217427142Y-74583904D01*
X217389047Y-74602952D01*
X217274761Y-74602952D01*
X217236666Y-74583904D01*
X217217619Y-74564857D01*
X210715238Y-79682952D02*
X210715238Y-79282952D01*
X210715238Y-79663904D02*
X210677142Y-79682952D01*
X210600952Y-79682952D01*
X210562857Y-79663904D01*
X210543809Y-79644857D01*
X210524761Y-79606761D01*
X210524761Y-79492476D01*
X210543809Y-79454380D01*
X210562857Y-79435333D01*
X210600952Y-79416285D01*
X210677142Y-79416285D01*
X210715238Y-79435333D01*
X211077142Y-79416285D02*
X211077142Y-79682952D01*
X210981904Y-79263904D02*
X210886666Y-79549619D01*
X211134285Y-79549619D01*
X210715238Y-77142952D02*
X210715238Y-76742952D01*
X210715238Y-77123904D02*
X210677142Y-77142952D01*
X210600952Y-77142952D01*
X210562857Y-77123904D01*
X210543809Y-77104857D01*
X210524761Y-77066761D01*
X210524761Y-76952476D01*
X210543809Y-76914380D01*
X210562857Y-76895333D01*
X210600952Y-76876285D01*
X210677142Y-76876285D01*
X210715238Y-76895333D01*
X211077142Y-76742952D02*
X211000952Y-76742952D01*
X210962857Y-76762000D01*
X210943809Y-76781047D01*
X210905714Y-76838190D01*
X210886666Y-76914380D01*
X210886666Y-77066761D01*
X210905714Y-77104857D01*
X210924761Y-77123904D01*
X210962857Y-77142952D01*
X211039047Y-77142952D01*
X211077142Y-77123904D01*
X211096190Y-77104857D01*
X211115238Y-77066761D01*
X211115238Y-76971523D01*
X211096190Y-76933428D01*
X211077142Y-76914380D01*
X211039047Y-76895333D01*
X210962857Y-76895333D01*
X210924761Y-76914380D01*
X210905714Y-76933428D01*
X210886666Y-76971523D01*
X206905238Y-77142952D02*
X206905238Y-76742952D01*
X206905238Y-77123904D02*
X206867142Y-77142952D01*
X206790952Y-77142952D01*
X206752857Y-77123904D01*
X206733809Y-77104857D01*
X206714761Y-77066761D01*
X206714761Y-76952476D01*
X206733809Y-76914380D01*
X206752857Y-76895333D01*
X206790952Y-76876285D01*
X206867142Y-76876285D01*
X206905238Y-76895333D01*
X207286190Y-76742952D02*
X207095714Y-76742952D01*
X207076666Y-76933428D01*
X207095714Y-76914380D01*
X207133809Y-76895333D01*
X207229047Y-76895333D01*
X207267142Y-76914380D01*
X207286190Y-76933428D01*
X207305238Y-76971523D01*
X207305238Y-77066761D01*
X207286190Y-77104857D01*
X207267142Y-77123904D01*
X207229047Y-77142952D01*
X207133809Y-77142952D01*
X207095714Y-77123904D01*
X207076666Y-77104857D01*
X206905238Y-74602952D02*
X206905238Y-74202952D01*
X206905238Y-74583904D02*
X206867142Y-74602952D01*
X206790952Y-74602952D01*
X206752857Y-74583904D01*
X206733809Y-74564857D01*
X206714761Y-74526761D01*
X206714761Y-74412476D01*
X206733809Y-74374380D01*
X206752857Y-74355333D01*
X206790952Y-74336285D01*
X206867142Y-74336285D01*
X206905238Y-74355333D01*
X207057619Y-74202952D02*
X207324285Y-74202952D01*
X207152857Y-74602952D01*
X174139238Y-79682952D02*
X174139238Y-79282952D01*
X174139238Y-79663904D02*
X174101142Y-79682952D01*
X174024952Y-79682952D01*
X173986857Y-79663904D01*
X173967809Y-79644857D01*
X173948761Y-79606761D01*
X173948761Y-79492476D01*
X173967809Y-79454380D01*
X173986857Y-79435333D01*
X174024952Y-79416285D01*
X174101142Y-79416285D01*
X174139238Y-79435333D01*
X174386857Y-79454380D02*
X174348761Y-79435333D01*
X174329714Y-79416285D01*
X174310666Y-79378190D01*
X174310666Y-79359142D01*
X174329714Y-79321047D01*
X174348761Y-79302000D01*
X174386857Y-79282952D01*
X174463047Y-79282952D01*
X174501142Y-79302000D01*
X174520190Y-79321047D01*
X174539238Y-79359142D01*
X174539238Y-79378190D01*
X174520190Y-79416285D01*
X174501142Y-79435333D01*
X174463047Y-79454380D01*
X174386857Y-79454380D01*
X174348761Y-79473428D01*
X174329714Y-79492476D01*
X174310666Y-79530571D01*
X174310666Y-79606761D01*
X174329714Y-79644857D01*
X174348761Y-79663904D01*
X174386857Y-79682952D01*
X174463047Y-79682952D01*
X174501142Y-79663904D01*
X174520190Y-79644857D01*
X174539238Y-79606761D01*
X174539238Y-79530571D01*
X174520190Y-79492476D01*
X174501142Y-79473428D01*
X174463047Y-79454380D01*
X173948761Y-77142952D02*
X173948761Y-76742952D01*
X173948761Y-77123904D02*
X173910666Y-77142952D01*
X173834476Y-77142952D01*
X173796380Y-77123904D01*
X173777333Y-77104857D01*
X173758285Y-77066761D01*
X173758285Y-76952476D01*
X173777333Y-76914380D01*
X173796380Y-76895333D01*
X173834476Y-76876285D01*
X173910666Y-76876285D01*
X173948761Y-76895333D01*
X174348761Y-77142952D02*
X174120190Y-77142952D01*
X174234476Y-77142952D02*
X174234476Y-76742952D01*
X174196380Y-76800095D01*
X174158285Y-76838190D01*
X174120190Y-76857238D01*
X174596380Y-76742952D02*
X174634476Y-76742952D01*
X174672571Y-76762000D01*
X174691619Y-76781047D01*
X174710666Y-76819142D01*
X174729714Y-76895333D01*
X174729714Y-76990571D01*
X174710666Y-77066761D01*
X174691619Y-77104857D01*
X174672571Y-77123904D01*
X174634476Y-77142952D01*
X174596380Y-77142952D01*
X174558285Y-77123904D01*
X174539238Y-77104857D01*
X174520190Y-77066761D01*
X174501142Y-76990571D01*
X174501142Y-76895333D01*
X174520190Y-76819142D01*
X174539238Y-76781047D01*
X174558285Y-76762000D01*
X174596380Y-76742952D01*
X170075238Y-77396952D02*
X170075238Y-76996952D01*
X170075238Y-77377904D02*
X170037142Y-77396952D01*
X169960952Y-77396952D01*
X169922857Y-77377904D01*
X169903809Y-77358857D01*
X169884761Y-77320761D01*
X169884761Y-77206476D01*
X169903809Y-77168380D01*
X169922857Y-77149333D01*
X169960952Y-77130285D01*
X170037142Y-77130285D01*
X170075238Y-77149333D01*
X170284761Y-77396952D02*
X170360952Y-77396952D01*
X170399047Y-77377904D01*
X170418095Y-77358857D01*
X170456190Y-77301714D01*
X170475238Y-77225523D01*
X170475238Y-77073142D01*
X170456190Y-77035047D01*
X170437142Y-77016000D01*
X170399047Y-76996952D01*
X170322857Y-76996952D01*
X170284761Y-77016000D01*
X170265714Y-77035047D01*
X170246666Y-77073142D01*
X170246666Y-77168380D01*
X170265714Y-77206476D01*
X170284761Y-77225523D01*
X170322857Y-77244571D01*
X170399047Y-77244571D01*
X170437142Y-77225523D01*
X170456190Y-77206476D01*
X170475238Y-77168380D01*
X169884761Y-74602952D02*
X169884761Y-74202952D01*
X169884761Y-74583904D02*
X169846666Y-74602952D01*
X169770476Y-74602952D01*
X169732380Y-74583904D01*
X169713333Y-74564857D01*
X169694285Y-74526761D01*
X169694285Y-74412476D01*
X169713333Y-74374380D01*
X169732380Y-74355333D01*
X169770476Y-74336285D01*
X169846666Y-74336285D01*
X169884761Y-74355333D01*
X170284761Y-74602952D02*
X170056190Y-74602952D01*
X170170476Y-74602952D02*
X170170476Y-74202952D01*
X170132380Y-74260095D01*
X170094285Y-74298190D01*
X170056190Y-74317238D01*
X170665714Y-74602952D02*
X170437142Y-74602952D01*
X170551428Y-74602952D02*
X170551428Y-74202952D01*
X170513333Y-74260095D01*
X170475238Y-74298190D01*
X170437142Y-74317238D01*
X220440333Y-81803904D02*
X220097476Y-82318190D01*
X220573666Y-82222952D02*
X220573666Y-81822952D01*
X220573666Y-81975333D02*
X220611761Y-81956285D01*
X220687952Y-81956285D01*
X220726047Y-81975333D01*
X220745095Y-81994380D01*
X220764142Y-82032476D01*
X220764142Y-82146761D01*
X220745095Y-82184857D01*
X220726047Y-82203904D01*
X220687952Y-82222952D01*
X220611761Y-82222952D01*
X220573666Y-82203904D01*
X220935571Y-82222952D02*
X220935571Y-81956285D01*
X220935571Y-82032476D02*
X220954619Y-81994380D01*
X220973666Y-81975333D01*
X221011761Y-81956285D01*
X221049857Y-81956285D01*
X221354619Y-82222952D02*
X221354619Y-82013428D01*
X221335571Y-81975333D01*
X221297476Y-81956285D01*
X221221285Y-81956285D01*
X221183190Y-81975333D01*
X221354619Y-82203904D02*
X221316523Y-82222952D01*
X221221285Y-82222952D01*
X221183190Y-82203904D01*
X221164142Y-82165809D01*
X221164142Y-82127714D01*
X221183190Y-82089619D01*
X221221285Y-82070571D01*
X221316523Y-82070571D01*
X221354619Y-82051523D01*
X221526047Y-82203904D02*
X221564142Y-82222952D01*
X221640333Y-82222952D01*
X221678428Y-82203904D01*
X221697476Y-82165809D01*
X221697476Y-82146761D01*
X221678428Y-82108666D01*
X221640333Y-82089619D01*
X221583190Y-82089619D01*
X221545095Y-82070571D01*
X221526047Y-82032476D01*
X221526047Y-82013428D01*
X221545095Y-81975333D01*
X221583190Y-81956285D01*
X221640333Y-81956285D01*
X221678428Y-81975333D01*
X222078428Y-82222952D02*
X221849857Y-82222952D01*
X221964142Y-82222952D02*
X221964142Y-81822952D01*
X221926047Y-81880095D01*
X221887952Y-81918190D01*
X221849857Y-81937238D01*
X148567809Y-74336285D02*
X148567809Y-74660095D01*
X148548761Y-74698190D01*
X148529714Y-74717238D01*
X148491619Y-74736285D01*
X148434476Y-74736285D01*
X148396380Y-74717238D01*
X148567809Y-74583904D02*
X148529714Y-74602952D01*
X148453523Y-74602952D01*
X148415428Y-74583904D01*
X148396380Y-74564857D01*
X148377333Y-74526761D01*
X148377333Y-74412476D01*
X148396380Y-74374380D01*
X148415428Y-74355333D01*
X148453523Y-74336285D01*
X148529714Y-74336285D01*
X148567809Y-74355333D01*
X148758285Y-74336285D02*
X148758285Y-74602952D01*
X148758285Y-74374380D02*
X148777333Y-74355333D01*
X148815428Y-74336285D01*
X148872571Y-74336285D01*
X148910666Y-74355333D01*
X148929714Y-74393428D01*
X148929714Y-74602952D01*
X149291619Y-74602952D02*
X149291619Y-74202952D01*
X149291619Y-74583904D02*
X149253523Y-74602952D01*
X149177333Y-74602952D01*
X149139238Y-74583904D01*
X149120190Y-74564857D01*
X149101142Y-74526761D01*
X149101142Y-74412476D01*
X149120190Y-74374380D01*
X149139238Y-74355333D01*
X149177333Y-74336285D01*
X149253523Y-74336285D01*
X149291619Y-74355333D01*
X148548761Y-77142952D02*
X148548761Y-76742952D01*
X148548761Y-77123904D02*
X148510666Y-77142952D01*
X148434476Y-77142952D01*
X148396380Y-77123904D01*
X148377333Y-77104857D01*
X148358285Y-77066761D01*
X148358285Y-76952476D01*
X148377333Y-76914380D01*
X148396380Y-76895333D01*
X148434476Y-76876285D01*
X148510666Y-76876285D01*
X148548761Y-76895333D01*
X148948761Y-77142952D02*
X148720190Y-77142952D01*
X148834476Y-77142952D02*
X148834476Y-76742952D01*
X148796380Y-76800095D01*
X148758285Y-76838190D01*
X148720190Y-76857238D01*
X149291619Y-76876285D02*
X149291619Y-77142952D01*
X149196380Y-76723904D02*
X149101142Y-77009619D01*
X149348761Y-77009619D01*
X148548761Y-79682952D02*
X148548761Y-79282952D01*
X148548761Y-79663904D02*
X148510666Y-79682952D01*
X148434476Y-79682952D01*
X148396380Y-79663904D01*
X148377333Y-79644857D01*
X148358285Y-79606761D01*
X148358285Y-79492476D01*
X148377333Y-79454380D01*
X148396380Y-79435333D01*
X148434476Y-79416285D01*
X148510666Y-79416285D01*
X148548761Y-79435333D01*
X148948761Y-79682952D02*
X148720190Y-79682952D01*
X148834476Y-79682952D02*
X148834476Y-79282952D01*
X148796380Y-79340095D01*
X148758285Y-79378190D01*
X148720190Y-79397238D01*
X149101142Y-79321047D02*
X149120190Y-79302000D01*
X149158285Y-79282952D01*
X149253523Y-79282952D01*
X149291619Y-79302000D01*
X149310666Y-79321047D01*
X149329714Y-79359142D01*
X149329714Y-79397238D01*
X149310666Y-79454380D01*
X149082095Y-79682952D01*
X149329714Y-79682952D01*
X148066190Y-81803904D02*
X147723333Y-82318190D01*
X148370952Y-81956285D02*
X148370952Y-82222952D01*
X148199523Y-81956285D02*
X148199523Y-82165809D01*
X148218571Y-82203904D01*
X148256666Y-82222952D01*
X148313809Y-82222952D01*
X148351904Y-82203904D01*
X148370952Y-82184857D01*
X148732857Y-82203904D02*
X148694761Y-82222952D01*
X148618571Y-82222952D01*
X148580476Y-82203904D01*
X148561428Y-82184857D01*
X148542380Y-82146761D01*
X148542380Y-82032476D01*
X148561428Y-81994380D01*
X148580476Y-81975333D01*
X148618571Y-81956285D01*
X148694761Y-81956285D01*
X148732857Y-81975333D01*
X149075714Y-82222952D02*
X149075714Y-82013428D01*
X149056666Y-81975333D01*
X149018571Y-81956285D01*
X148942380Y-81956285D01*
X148904285Y-81975333D01*
X149075714Y-82203904D02*
X149037619Y-82222952D01*
X148942380Y-82222952D01*
X148904285Y-82203904D01*
X148885238Y-82165809D01*
X148885238Y-82127714D01*
X148904285Y-82089619D01*
X148942380Y-82070571D01*
X149037619Y-82070571D01*
X149075714Y-82051523D01*
X149247142Y-82203904D02*
X149285238Y-82222952D01*
X149361428Y-82222952D01*
X149399523Y-82203904D01*
X149418571Y-82165809D01*
X149418571Y-82146761D01*
X149399523Y-82108666D01*
X149361428Y-82089619D01*
X149304285Y-82089619D01*
X149266190Y-82070571D01*
X149247142Y-82032476D01*
X149247142Y-82013428D01*
X149266190Y-81975333D01*
X149304285Y-81956285D01*
X149361428Y-81956285D01*
X149399523Y-81975333D01*
X148739238Y-87302952D02*
X148739238Y-87093428D01*
X148720190Y-87055333D01*
X148682095Y-87036285D01*
X148605904Y-87036285D01*
X148567809Y-87055333D01*
X148739238Y-87283904D02*
X148701142Y-87302952D01*
X148605904Y-87302952D01*
X148567809Y-87283904D01*
X148548761Y-87245809D01*
X148548761Y-87207714D01*
X148567809Y-87169619D01*
X148605904Y-87150571D01*
X148701142Y-87150571D01*
X148739238Y-87131523D01*
X148986857Y-87074380D02*
X148948761Y-87055333D01*
X148929714Y-87036285D01*
X148910666Y-86998190D01*
X148910666Y-86979142D01*
X148929714Y-86941047D01*
X148948761Y-86922000D01*
X148986857Y-86902952D01*
X149063047Y-86902952D01*
X149101142Y-86922000D01*
X149120190Y-86941047D01*
X149139238Y-86979142D01*
X149139238Y-86998190D01*
X149120190Y-87036285D01*
X149101142Y-87055333D01*
X149063047Y-87074380D01*
X148986857Y-87074380D01*
X148948761Y-87093428D01*
X148929714Y-87112476D01*
X148910666Y-87150571D01*
X148910666Y-87226761D01*
X148929714Y-87264857D01*
X148948761Y-87283904D01*
X148986857Y-87302952D01*
X149063047Y-87302952D01*
X149101142Y-87283904D01*
X149120190Y-87264857D01*
X149139238Y-87226761D01*
X149139238Y-87150571D01*
X149120190Y-87112476D01*
X149101142Y-87093428D01*
X149063047Y-87074380D01*
X148739238Y-89842952D02*
X148739238Y-89633428D01*
X148720190Y-89595333D01*
X148682095Y-89576285D01*
X148605904Y-89576285D01*
X148567809Y-89595333D01*
X148739238Y-89823904D02*
X148701142Y-89842952D01*
X148605904Y-89842952D01*
X148567809Y-89823904D01*
X148548761Y-89785809D01*
X148548761Y-89747714D01*
X148567809Y-89709619D01*
X148605904Y-89690571D01*
X148701142Y-89690571D01*
X148739238Y-89671523D01*
X148891619Y-89442952D02*
X149158285Y-89442952D01*
X148986857Y-89842952D01*
X148739238Y-92382952D02*
X148739238Y-92173428D01*
X148720190Y-92135333D01*
X148682095Y-92116285D01*
X148605904Y-92116285D01*
X148567809Y-92135333D01*
X148739238Y-92363904D02*
X148701142Y-92382952D01*
X148605904Y-92382952D01*
X148567809Y-92363904D01*
X148548761Y-92325809D01*
X148548761Y-92287714D01*
X148567809Y-92249619D01*
X148605904Y-92230571D01*
X148701142Y-92230571D01*
X148739238Y-92211523D01*
X149101142Y-91982952D02*
X149024952Y-91982952D01*
X148986857Y-92002000D01*
X148967809Y-92021047D01*
X148929714Y-92078190D01*
X148910666Y-92154380D01*
X148910666Y-92306761D01*
X148929714Y-92344857D01*
X148948761Y-92363904D01*
X148986857Y-92382952D01*
X149063047Y-92382952D01*
X149101142Y-92363904D01*
X149120190Y-92344857D01*
X149139238Y-92306761D01*
X149139238Y-92211523D01*
X149120190Y-92173428D01*
X149101142Y-92154380D01*
X149063047Y-92135333D01*
X148986857Y-92135333D01*
X148948761Y-92154380D01*
X148929714Y-92173428D01*
X148910666Y-92211523D01*
X148739238Y-94922952D02*
X148739238Y-94713428D01*
X148720190Y-94675333D01*
X148682095Y-94656285D01*
X148605904Y-94656285D01*
X148567809Y-94675333D01*
X148739238Y-94903904D02*
X148701142Y-94922952D01*
X148605904Y-94922952D01*
X148567809Y-94903904D01*
X148548761Y-94865809D01*
X148548761Y-94827714D01*
X148567809Y-94789619D01*
X148605904Y-94770571D01*
X148701142Y-94770571D01*
X148739238Y-94751523D01*
X149120190Y-94522952D02*
X148929714Y-94522952D01*
X148910666Y-94713428D01*
X148929714Y-94694380D01*
X148967809Y-94675333D01*
X149063047Y-94675333D01*
X149101142Y-94694380D01*
X149120190Y-94713428D01*
X149139238Y-94751523D01*
X149139238Y-94846761D01*
X149120190Y-94884857D01*
X149101142Y-94903904D01*
X149063047Y-94922952D01*
X148967809Y-94922952D01*
X148929714Y-94903904D01*
X148910666Y-94884857D01*
X148739238Y-97462952D02*
X148739238Y-97253428D01*
X148720190Y-97215333D01*
X148682095Y-97196285D01*
X148605904Y-97196285D01*
X148567809Y-97215333D01*
X148739238Y-97443904D02*
X148701142Y-97462952D01*
X148605904Y-97462952D01*
X148567809Y-97443904D01*
X148548761Y-97405809D01*
X148548761Y-97367714D01*
X148567809Y-97329619D01*
X148605904Y-97310571D01*
X148701142Y-97310571D01*
X148739238Y-97291523D01*
X149101142Y-97196285D02*
X149101142Y-97462952D01*
X149005904Y-97043904D02*
X148910666Y-97329619D01*
X149158285Y-97329619D01*
X140785904Y-97196285D02*
X140881142Y-97462952D01*
X140976380Y-97196285D01*
X141300190Y-97443904D02*
X141262095Y-97462952D01*
X141185904Y-97462952D01*
X141147809Y-97443904D01*
X141128761Y-97424857D01*
X141109714Y-97386761D01*
X141109714Y-97272476D01*
X141128761Y-97234380D01*
X141147809Y-97215333D01*
X141185904Y-97196285D01*
X141262095Y-97196285D01*
X141300190Y-97215333D01*
X141643047Y-97443904D02*
X141604952Y-97462952D01*
X141528761Y-97462952D01*
X141490666Y-97443904D01*
X141471619Y-97424857D01*
X141452571Y-97386761D01*
X141452571Y-97272476D01*
X141471619Y-97234380D01*
X141490666Y-97215333D01*
X141528761Y-97196285D01*
X141604952Y-97196285D01*
X141643047Y-97215333D01*
X141119238Y-94922952D02*
X141119238Y-94713428D01*
X141100190Y-94675333D01*
X141062095Y-94656285D01*
X140985904Y-94656285D01*
X140947809Y-94675333D01*
X141119238Y-94903904D02*
X141081142Y-94922952D01*
X140985904Y-94922952D01*
X140947809Y-94903904D01*
X140928761Y-94865809D01*
X140928761Y-94827714D01*
X140947809Y-94789619D01*
X140985904Y-94770571D01*
X141081142Y-94770571D01*
X141119238Y-94751523D01*
X141271619Y-94522952D02*
X141519238Y-94522952D01*
X141385904Y-94675333D01*
X141443047Y-94675333D01*
X141481142Y-94694380D01*
X141500190Y-94713428D01*
X141519238Y-94751523D01*
X141519238Y-94846761D01*
X141500190Y-94884857D01*
X141481142Y-94903904D01*
X141443047Y-94922952D01*
X141328761Y-94922952D01*
X141290666Y-94903904D01*
X141271619Y-94884857D01*
X141119238Y-92382952D02*
X141119238Y-92173428D01*
X141100190Y-92135333D01*
X141062095Y-92116285D01*
X140985904Y-92116285D01*
X140947809Y-92135333D01*
X141119238Y-92363904D02*
X141081142Y-92382952D01*
X140985904Y-92382952D01*
X140947809Y-92363904D01*
X140928761Y-92325809D01*
X140928761Y-92287714D01*
X140947809Y-92249619D01*
X140985904Y-92230571D01*
X141081142Y-92230571D01*
X141119238Y-92211523D01*
X141290666Y-92021047D02*
X141309714Y-92002000D01*
X141347809Y-91982952D01*
X141443047Y-91982952D01*
X141481142Y-92002000D01*
X141500190Y-92021047D01*
X141519238Y-92059142D01*
X141519238Y-92097238D01*
X141500190Y-92154380D01*
X141271619Y-92382952D01*
X141519238Y-92382952D01*
X141119238Y-89842952D02*
X141119238Y-89633428D01*
X141100190Y-89595333D01*
X141062095Y-89576285D01*
X140985904Y-89576285D01*
X140947809Y-89595333D01*
X141119238Y-89823904D02*
X141081142Y-89842952D01*
X140985904Y-89842952D01*
X140947809Y-89823904D01*
X140928761Y-89785809D01*
X140928761Y-89747714D01*
X140947809Y-89709619D01*
X140985904Y-89690571D01*
X141081142Y-89690571D01*
X141119238Y-89671523D01*
X141519238Y-89842952D02*
X141290666Y-89842952D01*
X141404952Y-89842952D02*
X141404952Y-89442952D01*
X141366857Y-89500095D01*
X141328761Y-89538190D01*
X141290666Y-89557238D01*
X141119238Y-87302952D02*
X141119238Y-87093428D01*
X141100190Y-87055333D01*
X141062095Y-87036285D01*
X140985904Y-87036285D01*
X140947809Y-87055333D01*
X141119238Y-87283904D02*
X141081142Y-87302952D01*
X140985904Y-87302952D01*
X140947809Y-87283904D01*
X140928761Y-87245809D01*
X140928761Y-87207714D01*
X140947809Y-87169619D01*
X140985904Y-87150571D01*
X141081142Y-87150571D01*
X141119238Y-87131523D01*
X141385904Y-86902952D02*
X141424000Y-86902952D01*
X141462095Y-86922000D01*
X141481142Y-86941047D01*
X141500190Y-86979142D01*
X141519238Y-87055333D01*
X141519238Y-87150571D01*
X141500190Y-87226761D01*
X141481142Y-87264857D01*
X141462095Y-87283904D01*
X141424000Y-87302952D01*
X141385904Y-87302952D01*
X141347809Y-87283904D01*
X141328761Y-87264857D01*
X141309714Y-87226761D01*
X141290666Y-87150571D01*
X141290666Y-87055333D01*
X141309714Y-86979142D01*
X141328761Y-86941047D01*
X141347809Y-86922000D01*
X141385904Y-86902952D01*
X140176333Y-81803904D02*
X139833476Y-82318190D01*
X140309666Y-82222952D02*
X140309666Y-81822952D01*
X140309666Y-81975333D02*
X140347761Y-81956285D01*
X140423952Y-81956285D01*
X140462047Y-81975333D01*
X140481095Y-81994380D01*
X140500142Y-82032476D01*
X140500142Y-82146761D01*
X140481095Y-82184857D01*
X140462047Y-82203904D01*
X140423952Y-82222952D01*
X140347761Y-82222952D01*
X140309666Y-82203904D01*
X140671571Y-82222952D02*
X140671571Y-81956285D01*
X140671571Y-82032476D02*
X140690619Y-81994380D01*
X140709666Y-81975333D01*
X140747761Y-81956285D01*
X140785857Y-81956285D01*
X141090619Y-82222952D02*
X141090619Y-82013428D01*
X141071571Y-81975333D01*
X141033476Y-81956285D01*
X140957285Y-81956285D01*
X140919190Y-81975333D01*
X141090619Y-82203904D02*
X141052523Y-82222952D01*
X140957285Y-82222952D01*
X140919190Y-82203904D01*
X140900142Y-82165809D01*
X140900142Y-82127714D01*
X140919190Y-82089619D01*
X140957285Y-82070571D01*
X141052523Y-82070571D01*
X141090619Y-82051523D01*
X141262047Y-82203904D02*
X141300142Y-82222952D01*
X141376333Y-82222952D01*
X141414428Y-82203904D01*
X141433476Y-82165809D01*
X141433476Y-82146761D01*
X141414428Y-82108666D01*
X141376333Y-82089619D01*
X141319190Y-82089619D01*
X141281095Y-82070571D01*
X141262047Y-82032476D01*
X141262047Y-82013428D01*
X141281095Y-81975333D01*
X141319190Y-81956285D01*
X141376333Y-81956285D01*
X141414428Y-81975333D01*
X141681095Y-81822952D02*
X141719190Y-81822952D01*
X141757285Y-81842000D01*
X141776333Y-81861047D01*
X141795380Y-81899142D01*
X141814428Y-81975333D01*
X141814428Y-82070571D01*
X141795380Y-82146761D01*
X141776333Y-82184857D01*
X141757285Y-82203904D01*
X141719190Y-82222952D01*
X141681095Y-82222952D01*
X141643000Y-82203904D01*
X141623952Y-82184857D01*
X141604904Y-82146761D01*
X141585857Y-82070571D01*
X141585857Y-81975333D01*
X141604904Y-81899142D01*
X141623952Y-81861047D01*
X141643000Y-81842000D01*
X141681095Y-81822952D01*
X141014476Y-79263904D02*
X140671619Y-79778190D01*
X141109714Y-79416285D02*
X141185904Y-79682952D01*
X141262095Y-79492476D01*
X141338285Y-79682952D01*
X141414476Y-79416285D01*
X141719238Y-79663904D02*
X141681142Y-79682952D01*
X141604952Y-79682952D01*
X141566857Y-79663904D01*
X141547809Y-79625809D01*
X141547809Y-79473428D01*
X141566857Y-79435333D01*
X141604952Y-79416285D01*
X141681142Y-79416285D01*
X141719238Y-79435333D01*
X141738285Y-79473428D01*
X141738285Y-79511523D01*
X141547809Y-79549619D01*
X140928761Y-77142952D02*
X140928761Y-76742952D01*
X140928761Y-77123904D02*
X140890666Y-77142952D01*
X140814476Y-77142952D01*
X140776380Y-77123904D01*
X140757333Y-77104857D01*
X140738285Y-77066761D01*
X140738285Y-76952476D01*
X140757333Y-76914380D01*
X140776380Y-76895333D01*
X140814476Y-76876285D01*
X140890666Y-76876285D01*
X140928761Y-76895333D01*
X141328761Y-77142952D02*
X141100190Y-77142952D01*
X141214476Y-77142952D02*
X141214476Y-76742952D01*
X141176380Y-76800095D01*
X141138285Y-76838190D01*
X141100190Y-76857238D01*
X141462095Y-76742952D02*
X141709714Y-76742952D01*
X141576380Y-76895333D01*
X141633523Y-76895333D01*
X141671619Y-76914380D01*
X141690666Y-76933428D01*
X141709714Y-76971523D01*
X141709714Y-77066761D01*
X141690666Y-77104857D01*
X141671619Y-77123904D01*
X141633523Y-77142952D01*
X141519238Y-77142952D01*
X141481142Y-77123904D01*
X141462095Y-77104857D01*
X140928761Y-74602952D02*
X140928761Y-74202952D01*
X140928761Y-74583904D02*
X140890666Y-74602952D01*
X140814476Y-74602952D01*
X140776380Y-74583904D01*
X140757333Y-74564857D01*
X140738285Y-74526761D01*
X140738285Y-74412476D01*
X140757333Y-74374380D01*
X140776380Y-74355333D01*
X140814476Y-74336285D01*
X140890666Y-74336285D01*
X140928761Y-74355333D01*
X141328761Y-74602952D02*
X141100190Y-74602952D01*
X141214476Y-74602952D02*
X141214476Y-74202952D01*
X141176380Y-74260095D01*
X141138285Y-74298190D01*
X141100190Y-74317238D01*
X141690666Y-74202952D02*
X141500190Y-74202952D01*
X141481142Y-74393428D01*
X141500190Y-74374380D01*
X141538285Y-74355333D01*
X141633523Y-74355333D01*
X141671619Y-74374380D01*
X141690666Y-74393428D01*
X141709714Y-74431523D01*
X141709714Y-74526761D01*
X141690666Y-74564857D01*
X141671619Y-74583904D01*
X141633523Y-74602952D01*
X141538285Y-74602952D01*
X141500190Y-74583904D01*
X141481142Y-74564857D01*
D11*
X186251904Y-78022142D02*
X186251904Y-77488809D01*
X187051904Y-77831666D01*
X186518571Y-76841190D02*
X187051904Y-76841190D01*
X186213809Y-77031666D02*
X186785238Y-77222142D01*
X186785238Y-76726904D01*
X186823333Y-76460238D02*
X186823333Y-76079285D01*
X187051904Y-76536428D02*
X186251904Y-76269761D01*
X187051904Y-76003095D01*
X186632857Y-75469761D02*
X186670952Y-75355476D01*
X186709047Y-75317380D01*
X186785238Y-75279285D01*
X186899523Y-75279285D01*
X186975714Y-75317380D01*
X187013809Y-75355476D01*
X187051904Y-75431666D01*
X187051904Y-75736428D01*
X186251904Y-75736428D01*
X186251904Y-75469761D01*
X186290000Y-75393571D01*
X186328095Y-75355476D01*
X186404285Y-75317380D01*
X186480476Y-75317380D01*
X186556666Y-75355476D01*
X186594761Y-75393571D01*
X186632857Y-75469761D01*
X186632857Y-75736428D01*
X186251904Y-75050714D02*
X186251904Y-74593571D01*
X187051904Y-74822142D02*
X186251904Y-74822142D01*
X186251904Y-74403095D02*
X186251904Y-73907857D01*
X186556666Y-74174523D01*
X186556666Y-74060238D01*
X186594761Y-73984047D01*
X186632857Y-73945952D01*
X186709047Y-73907857D01*
X186899523Y-73907857D01*
X186975714Y-73945952D01*
X187013809Y-73984047D01*
X187051904Y-74060238D01*
X187051904Y-74288809D01*
X187013809Y-74365000D01*
X186975714Y-74403095D01*
X186328095Y-73603095D02*
X186290000Y-73565000D01*
X186251904Y-73488809D01*
X186251904Y-73298333D01*
X186290000Y-73222142D01*
X186328095Y-73184047D01*
X186404285Y-73145952D01*
X186480476Y-73145952D01*
X186594761Y-73184047D01*
X187051904Y-73641190D01*
X187051904Y-73145952D01*
D12*
X203119196Y-93273571D02*
X203065625Y-93245000D01*
X203040625Y-93216428D01*
X203019196Y-93159285D01*
X203022767Y-93130714D01*
X203058482Y-93073571D01*
X203090625Y-93045000D01*
X203151339Y-93016428D01*
X203265625Y-93016428D01*
X203319196Y-93045000D01*
X203344196Y-93073571D01*
X203365625Y-93130714D01*
X203362053Y-93159285D01*
X203326339Y-93216428D01*
X203294196Y-93245000D01*
X203233482Y-93273571D01*
X203119196Y-93273571D01*
X203058482Y-93302142D01*
X203026339Y-93330714D01*
X202990625Y-93387857D01*
X202976339Y-93502142D01*
X202997767Y-93559285D01*
X203022767Y-93587857D01*
X203076339Y-93616428D01*
X203190625Y-93616428D01*
X203251339Y-93587857D01*
X203283482Y-93559285D01*
X203319196Y-93502142D01*
X203333482Y-93387857D01*
X203312053Y-93330714D01*
X203287053Y-93302142D01*
X203233482Y-93273571D01*
X203562053Y-93616428D02*
X203637053Y-93016428D01*
X203783482Y-93445000D01*
X204037053Y-93016428D01*
X203962053Y-93616428D01*
X204247767Y-93616428D02*
X204322767Y-93016428D01*
X204294196Y-93245000D02*
X204354910Y-93216428D01*
X204469196Y-93216428D01*
X204522767Y-93245000D01*
X204547767Y-93273571D01*
X204569196Y-93330714D01*
X204547767Y-93502142D01*
X204512053Y-93559285D01*
X204479910Y-93587857D01*
X204419196Y-93616428D01*
X204304910Y-93616428D01*
X204251339Y-93587857D01*
X205390625Y-93845000D02*
X205365625Y-93816428D01*
X205319196Y-93730714D01*
X205297767Y-93673571D01*
X205279910Y-93587857D01*
X205269196Y-93445000D01*
X205283482Y-93330714D01*
X205329910Y-93187857D01*
X205369196Y-93102142D01*
X205404910Y-93045000D01*
X205472767Y-92959285D01*
X205504910Y-92930714D01*
X206008482Y-93016428D02*
X205722767Y-93016428D01*
X205658482Y-93302142D01*
X205690625Y-93273571D01*
X205751339Y-93245000D01*
X205894196Y-93245000D01*
X205947767Y-93273571D01*
X205972767Y-93302142D01*
X205994196Y-93359285D01*
X205976339Y-93502142D01*
X205940625Y-93559285D01*
X205908482Y-93587857D01*
X205847767Y-93616428D01*
X205704910Y-93616428D01*
X205651339Y-93587857D01*
X205626339Y-93559285D01*
X206533482Y-93616428D02*
X206190625Y-93616428D01*
X206362053Y-93616428D02*
X206437053Y-93016428D01*
X206369196Y-93102142D01*
X206304910Y-93159285D01*
X206244196Y-93187857D01*
X206829910Y-93073571D02*
X206862053Y-93045000D01*
X206922767Y-93016428D01*
X207065625Y-93016428D01*
X207119196Y-93045000D01*
X207144196Y-93073571D01*
X207165625Y-93130714D01*
X207158482Y-93187857D01*
X207119196Y-93273571D01*
X206733482Y-93616428D01*
X207104910Y-93616428D01*
X207362053Y-93616428D02*
X207437053Y-93016428D01*
X207704910Y-93616428D02*
X207490625Y-93273571D01*
X207779910Y-93016428D02*
X207394196Y-93359285D01*
X208362053Y-93616428D02*
X208726339Y-93216428D01*
X208412053Y-93216428D02*
X208676339Y-93616428D01*
X209676339Y-93616428D02*
X209333482Y-93616428D01*
X209504910Y-93616428D02*
X209579910Y-93016428D01*
X209512053Y-93102142D01*
X209447767Y-93159285D01*
X209387053Y-93187857D01*
X210265625Y-93016428D02*
X210151339Y-93016428D01*
X210090625Y-93045000D01*
X210058482Y-93073571D01*
X209990625Y-93159285D01*
X209947767Y-93273571D01*
X209919196Y-93502142D01*
X209940625Y-93559285D01*
X209965625Y-93587857D01*
X210019196Y-93616428D01*
X210133482Y-93616428D01*
X210194196Y-93587857D01*
X210226339Y-93559285D01*
X210262053Y-93502142D01*
X210279910Y-93359285D01*
X210258482Y-93302142D01*
X210233482Y-93273571D01*
X210179910Y-93245000D01*
X210065625Y-93245000D01*
X210004910Y-93273571D01*
X209972767Y-93302142D01*
X209937053Y-93359285D01*
X210419196Y-93845000D02*
X210451339Y-93816428D01*
X210519196Y-93730714D01*
X210554910Y-93673571D01*
X210594196Y-93587857D01*
X210640625Y-93445000D01*
X210654910Y-93330714D01*
X210644196Y-93187857D01*
X210626339Y-93102142D01*
X210604910Y-93045000D01*
X210558482Y-92959285D01*
X210533482Y-92930714D01*
X211337053Y-93587857D02*
X211419196Y-93616428D01*
X211562053Y-93616428D01*
X211622767Y-93587857D01*
X211654910Y-93559285D01*
X211690625Y-93502142D01*
X211697767Y-93445000D01*
X211676339Y-93387857D01*
X211651339Y-93359285D01*
X211597767Y-93330714D01*
X211487053Y-93302142D01*
X211433482Y-93273571D01*
X211408482Y-93245000D01*
X211387053Y-93187857D01*
X211394196Y-93130714D01*
X211429910Y-93073571D01*
X211462053Y-93045000D01*
X211522767Y-93016428D01*
X211665625Y-93016428D01*
X211747767Y-93045000D01*
X212276339Y-93616428D02*
X212112053Y-93330714D01*
X211933482Y-93616428D02*
X212008482Y-93016428D01*
X212237053Y-93016428D01*
X212290625Y-93045000D01*
X212315625Y-93073571D01*
X212337053Y-93130714D01*
X212326339Y-93216428D01*
X212290625Y-93273571D01*
X212258482Y-93302142D01*
X212197767Y-93330714D01*
X211969196Y-93330714D01*
X212526339Y-93445000D02*
X212812053Y-93445000D01*
X212447767Y-93616428D02*
X212722767Y-93016428D01*
X212847767Y-93616428D01*
X213047767Y-93616428D02*
X213122767Y-93016428D01*
X213269196Y-93445000D01*
X213522767Y-93016428D01*
X213447767Y-93616428D01*
D11*
X230107938Y-99091666D02*
X230074605Y-99053571D01*
X230012700Y-98939285D01*
X229984129Y-98863095D01*
X229960319Y-98748809D01*
X229946034Y-98558333D01*
X229965081Y-98405952D01*
X230026986Y-98215476D01*
X230079367Y-98101190D01*
X230126986Y-98025000D01*
X230217462Y-97910714D01*
X230260319Y-97872619D01*
X230917462Y-98710714D02*
X230874605Y-98748809D01*
X230755558Y-98786904D01*
X230679367Y-98786904D01*
X230569843Y-98748809D01*
X230503177Y-98672619D01*
X230474605Y-98596428D01*
X230455558Y-98444047D01*
X230469843Y-98329761D01*
X230526986Y-98177380D01*
X230574605Y-98101190D01*
X230660319Y-98025000D01*
X230779367Y-97986904D01*
X230855558Y-97986904D01*
X230965081Y-98025000D01*
X230998415Y-98063095D01*
X231136510Y-99091666D02*
X231179367Y-99053571D01*
X231269843Y-98939285D01*
X231317462Y-98863095D01*
X231369843Y-98748809D01*
X231431748Y-98558333D01*
X231450796Y-98405952D01*
X231436510Y-98215476D01*
X231412700Y-98101190D01*
X231384129Y-98025000D01*
X231322224Y-97910714D01*
X231288891Y-97872619D01*
X232446034Y-98063095D02*
X232488891Y-98025000D01*
X232569843Y-97986904D01*
X232760319Y-97986904D01*
X232831748Y-98025000D01*
X232865081Y-98063095D01*
X232893653Y-98139285D01*
X232884129Y-98215476D01*
X232831748Y-98329761D01*
X232317462Y-98786904D01*
X232812700Y-98786904D01*
X233407938Y-97986904D02*
X233484129Y-97986904D01*
X233555558Y-98025000D01*
X233588891Y-98063095D01*
X233617462Y-98139285D01*
X233636510Y-98291666D01*
X233612700Y-98482142D01*
X233555558Y-98634523D01*
X233507938Y-98710714D01*
X233465081Y-98748809D01*
X233384129Y-98786904D01*
X233307938Y-98786904D01*
X233236510Y-98748809D01*
X233203177Y-98710714D01*
X233174605Y-98634523D01*
X233155558Y-98482142D01*
X233179367Y-98291666D01*
X233236510Y-98139285D01*
X233284129Y-98063095D01*
X233326986Y-98025000D01*
X233407938Y-97986904D01*
X234336510Y-98786904D02*
X233879367Y-98786904D01*
X234107938Y-98786904D02*
X234207938Y-97986904D01*
X234117462Y-98101190D01*
X234031748Y-98177380D01*
X233950796Y-98215476D01*
X234717462Y-98786904D02*
X234869843Y-98786904D01*
X234950796Y-98748809D01*
X234993653Y-98710714D01*
X235084129Y-98596428D01*
X235141272Y-98444047D01*
X235179367Y-98139285D01*
X235150796Y-98063095D01*
X235117462Y-98025000D01*
X235046034Y-97986904D01*
X234893653Y-97986904D01*
X234812700Y-98025000D01*
X234769843Y-98063095D01*
X234722224Y-98139285D01*
X234698415Y-98329761D01*
X234726986Y-98405952D01*
X234760319Y-98444047D01*
X234831748Y-98482142D01*
X234984129Y-98482142D01*
X235065081Y-98444047D01*
X235107938Y-98405952D01*
X235155558Y-98329761D01*
X236050796Y-98786904D02*
X236150796Y-97986904D01*
X236507938Y-98786904D02*
X236222224Y-98329761D01*
X236607938Y-97986904D02*
X236093653Y-98444047D01*
X237193653Y-98786904D02*
X237246034Y-98367857D01*
X237217462Y-98291666D01*
X237146034Y-98253571D01*
X236993653Y-98253571D01*
X236912700Y-98291666D01*
X237198415Y-98748809D02*
X237117462Y-98786904D01*
X236926986Y-98786904D01*
X236855558Y-98748809D01*
X236826986Y-98672619D01*
X236836510Y-98596428D01*
X236884129Y-98520238D01*
X236965081Y-98482142D01*
X237155558Y-98482142D01*
X237236510Y-98444047D01*
X237574605Y-98786904D02*
X237641272Y-98253571D01*
X237674605Y-97986904D02*
X237631748Y-98025000D01*
X237665081Y-98063095D01*
X237707938Y-98025000D01*
X237674605Y-97986904D01*
X237665081Y-98063095D01*
X239022224Y-98786904D02*
X238803177Y-98405952D01*
X238565081Y-98786904D02*
X238665081Y-97986904D01*
X238969843Y-97986904D01*
X239041272Y-98025000D01*
X239074605Y-98063095D01*
X239103177Y-98139285D01*
X239088891Y-98253571D01*
X239041272Y-98329761D01*
X238998415Y-98367857D01*
X238917462Y-98405952D01*
X238612700Y-98405952D01*
X239479367Y-98786904D02*
X239407938Y-98748809D01*
X239374605Y-98710714D01*
X239346034Y-98634523D01*
X239374605Y-98405952D01*
X239422224Y-98329761D01*
X239465081Y-98291666D01*
X239546034Y-98253571D01*
X239660319Y-98253571D01*
X239731748Y-98291666D01*
X239765081Y-98329761D01*
X239793653Y-98405952D01*
X239765081Y-98634523D01*
X239717462Y-98710714D01*
X239674605Y-98748809D01*
X239593653Y-98786904D01*
X239479367Y-98786904D01*
X240088891Y-98786904D02*
X240188891Y-97986904D01*
X240150796Y-98291666D02*
X240231748Y-98253571D01*
X240384129Y-98253571D01*
X240455558Y-98291666D01*
X240488891Y-98329761D01*
X240517462Y-98405952D01*
X240488891Y-98634523D01*
X240441272Y-98710714D01*
X240398415Y-98748809D01*
X240317462Y-98786904D01*
X240165081Y-98786904D01*
X240093653Y-98748809D01*
X240812700Y-98786904D02*
X240879367Y-98253571D01*
X240912700Y-97986904D02*
X240869843Y-98025000D01*
X240903177Y-98063095D01*
X240946034Y-98025000D01*
X240912700Y-97986904D01*
X240903177Y-98063095D01*
X241260319Y-98253571D02*
X241193653Y-98786904D01*
X241250796Y-98329761D02*
X241293653Y-98291666D01*
X241374605Y-98253571D01*
X241488891Y-98253571D01*
X241560319Y-98291666D01*
X241588891Y-98367857D01*
X241536510Y-98786904D01*
X241884129Y-98748809D02*
X241955558Y-98786904D01*
X242107938Y-98786904D01*
X242188891Y-98748809D01*
X242236510Y-98672619D01*
X242241272Y-98634523D01*
X242212700Y-98558333D01*
X242141272Y-98520238D01*
X242026986Y-98520238D01*
X241955558Y-98482142D01*
X241926986Y-98405952D01*
X241931748Y-98367857D01*
X241979367Y-98291666D01*
X242060319Y-98253571D01*
X242174605Y-98253571D01*
X242246034Y-98291666D01*
X242679367Y-98786904D02*
X242607938Y-98748809D01*
X242574605Y-98710714D01*
X242546034Y-98634523D01*
X242574605Y-98405952D01*
X242622224Y-98329761D01*
X242665081Y-98291666D01*
X242746034Y-98253571D01*
X242860319Y-98253571D01*
X242931748Y-98291666D01*
X242965081Y-98329761D01*
X242993653Y-98405952D01*
X242965081Y-98634523D01*
X242917462Y-98710714D01*
X242874605Y-98748809D01*
X242793653Y-98786904D01*
X242679367Y-98786904D01*
X243355558Y-98253571D02*
X243288891Y-98786904D01*
X243346034Y-98329761D02*
X243388891Y-98291666D01*
X243469843Y-98253571D01*
X243584129Y-98253571D01*
X243655558Y-98291666D01*
X243684129Y-98367857D01*
X243631748Y-98786904D01*
D12*
X246308571Y-85005803D02*
X246280000Y-85059375D01*
X246251428Y-85084375D01*
X246194285Y-85105803D01*
X246165714Y-85102232D01*
X246108571Y-85066517D01*
X246080000Y-85034375D01*
X246051428Y-84973660D01*
X246051428Y-84859375D01*
X246080000Y-84805803D01*
X246108571Y-84780803D01*
X246165714Y-84759375D01*
X246194285Y-84762946D01*
X246251428Y-84798660D01*
X246280000Y-84830803D01*
X246308571Y-84891517D01*
X246308571Y-85005803D01*
X246337142Y-85066517D01*
X246365714Y-85098660D01*
X246422857Y-85134375D01*
X246537142Y-85148660D01*
X246594285Y-85127232D01*
X246622857Y-85102232D01*
X246651428Y-85048660D01*
X246651428Y-84934375D01*
X246622857Y-84873660D01*
X246594285Y-84841517D01*
X246537142Y-84805803D01*
X246422857Y-84791517D01*
X246365714Y-84812946D01*
X246337142Y-84837946D01*
X246308571Y-84891517D01*
X246422857Y-84534375D02*
X246422857Y-84077232D01*
X246651428Y-83820089D02*
X246051428Y-83745089D01*
X246280000Y-83773660D02*
X246251428Y-83712946D01*
X246251428Y-83598660D01*
X246280000Y-83545089D01*
X246308571Y-83520089D01*
X246365714Y-83498660D01*
X246537142Y-83520089D01*
X246594285Y-83555803D01*
X246622857Y-83587946D01*
X246651428Y-83648660D01*
X246651428Y-83762946D01*
X246622857Y-83816517D01*
X246651428Y-83277232D02*
X246251428Y-83227232D01*
X246051428Y-83202232D02*
X246080000Y-83234375D01*
X246108571Y-83209375D01*
X246080000Y-83177232D01*
X246051428Y-83202232D01*
X246108571Y-83209375D01*
X246251428Y-83027232D02*
X246251428Y-82798660D01*
X246051428Y-82916517D02*
X246565714Y-82980803D01*
X246622857Y-82959375D01*
X246651428Y-82905803D01*
X246651428Y-82848660D01*
X246651428Y-82191517D02*
X246051428Y-82116517D01*
X246051428Y-81973660D01*
X246080000Y-81891517D01*
X246137142Y-81841517D01*
X246194285Y-81820089D01*
X246308571Y-81805803D01*
X246394285Y-81816517D01*
X246508571Y-81859375D01*
X246565714Y-81895089D01*
X246622857Y-81959375D01*
X246651428Y-82048660D01*
X246651428Y-82191517D01*
X246422857Y-81562946D02*
X246422857Y-81105803D01*
X246051428Y-80859375D02*
X246051428Y-80516517D01*
X246651428Y-80762946D02*
X246051428Y-80687946D01*
X246251428Y-80398660D02*
X246651428Y-80305803D01*
X246251428Y-80112946D02*
X246651428Y-80305803D01*
X246794285Y-80380803D01*
X246822857Y-80412946D01*
X246851428Y-80473660D01*
X246251428Y-79884375D02*
X246851428Y-79959375D01*
X246280000Y-79887946D02*
X246251428Y-79827232D01*
X246251428Y-79712946D01*
X246280000Y-79659375D01*
X246308571Y-79634375D01*
X246365714Y-79612946D01*
X246537142Y-79634375D01*
X246594285Y-79670089D01*
X246622857Y-79702232D01*
X246651428Y-79762946D01*
X246651428Y-79877232D01*
X246622857Y-79930803D01*
X246622857Y-79159375D02*
X246651428Y-79220089D01*
X246651428Y-79334375D01*
X246622857Y-79387946D01*
X246565714Y-79409375D01*
X246337142Y-79380803D01*
X246280000Y-79345089D01*
X246251428Y-79284375D01*
X246251428Y-79170089D01*
X246280000Y-79116517D01*
X246337142Y-79095089D01*
X246394285Y-79102232D01*
X246451428Y-79395089D01*
X246651428Y-78134375D02*
X246651428Y-78420089D01*
X246051428Y-78345089D01*
X246651428Y-77677232D02*
X246337142Y-77637946D01*
X246280000Y-77659375D01*
X246251428Y-77712946D01*
X246251428Y-77827232D01*
X246280000Y-77887946D01*
X246622857Y-77673660D02*
X246651428Y-77734375D01*
X246651428Y-77877232D01*
X246622857Y-77930803D01*
X246565714Y-77952232D01*
X246508571Y-77945089D01*
X246451428Y-77909375D01*
X246422857Y-77848660D01*
X246422857Y-77705803D01*
X246394285Y-77645089D01*
X246251428Y-77427232D02*
X246251428Y-77198660D01*
X246051428Y-77316517D02*
X246565714Y-77380803D01*
X246622857Y-77359375D01*
X246651428Y-77305803D01*
X246651428Y-77248660D01*
X246622857Y-76787946D02*
X246651428Y-76848660D01*
X246651428Y-76962946D01*
X246622857Y-77016517D01*
X246594285Y-77041517D01*
X246537142Y-77062946D01*
X246365714Y-77041517D01*
X246308571Y-77005803D01*
X246280000Y-76973660D01*
X246251428Y-76912946D01*
X246251428Y-76798660D01*
X246280000Y-76745089D01*
X246651428Y-76534375D02*
X246051428Y-76459375D01*
X246651428Y-76277232D02*
X246337142Y-76237946D01*
X246280000Y-76259375D01*
X246251428Y-76312946D01*
X246251428Y-76398660D01*
X246280000Y-76459375D01*
X246308571Y-76491517D01*
X179116196Y-93273571D02*
X179062625Y-93245000D01*
X179037625Y-93216428D01*
X179016196Y-93159285D01*
X179019767Y-93130714D01*
X179055482Y-93073571D01*
X179087625Y-93045000D01*
X179148339Y-93016428D01*
X179262625Y-93016428D01*
X179316196Y-93045000D01*
X179341196Y-93073571D01*
X179362625Y-93130714D01*
X179359053Y-93159285D01*
X179323339Y-93216428D01*
X179291196Y-93245000D01*
X179230482Y-93273571D01*
X179116196Y-93273571D01*
X179055482Y-93302142D01*
X179023339Y-93330714D01*
X178987625Y-93387857D01*
X178973339Y-93502142D01*
X178994767Y-93559285D01*
X179019767Y-93587857D01*
X179073339Y-93616428D01*
X179187625Y-93616428D01*
X179248339Y-93587857D01*
X179280482Y-93559285D01*
X179316196Y-93502142D01*
X179330482Y-93387857D01*
X179309053Y-93330714D01*
X179284053Y-93302142D01*
X179230482Y-93273571D01*
X179559053Y-93616428D02*
X179634053Y-93016428D01*
X179780482Y-93445000D01*
X180034053Y-93016428D01*
X179959053Y-93616428D01*
X180244767Y-93616428D02*
X180319767Y-93016428D01*
X180291196Y-93245000D02*
X180351910Y-93216428D01*
X180466196Y-93216428D01*
X180519767Y-93245000D01*
X180544767Y-93273571D01*
X180566196Y-93330714D01*
X180544767Y-93502142D01*
X180509053Y-93559285D01*
X180476910Y-93587857D01*
X180416196Y-93616428D01*
X180301910Y-93616428D01*
X180248339Y-93587857D01*
X181387625Y-93845000D02*
X181362625Y-93816428D01*
X181316196Y-93730714D01*
X181294767Y-93673571D01*
X181276910Y-93587857D01*
X181266196Y-93445000D01*
X181280482Y-93330714D01*
X181326910Y-93187857D01*
X181366196Y-93102142D01*
X181401910Y-93045000D01*
X181469767Y-92959285D01*
X181501910Y-92930714D01*
X182005482Y-93016428D02*
X181719767Y-93016428D01*
X181655482Y-93302142D01*
X181687625Y-93273571D01*
X181748339Y-93245000D01*
X181891196Y-93245000D01*
X181944767Y-93273571D01*
X181969767Y-93302142D01*
X181991196Y-93359285D01*
X181973339Y-93502142D01*
X181937625Y-93559285D01*
X181905482Y-93587857D01*
X181844767Y-93616428D01*
X181701910Y-93616428D01*
X181648339Y-93587857D01*
X181623339Y-93559285D01*
X182530482Y-93616428D02*
X182187625Y-93616428D01*
X182359053Y-93616428D02*
X182434053Y-93016428D01*
X182366196Y-93102142D01*
X182301910Y-93159285D01*
X182241196Y-93187857D01*
X182826910Y-93073571D02*
X182859053Y-93045000D01*
X182919767Y-93016428D01*
X183062625Y-93016428D01*
X183116196Y-93045000D01*
X183141196Y-93073571D01*
X183162625Y-93130714D01*
X183155482Y-93187857D01*
X183116196Y-93273571D01*
X182730482Y-93616428D01*
X183101910Y-93616428D01*
X183359053Y-93616428D02*
X183434053Y-93016428D01*
X183701910Y-93616428D02*
X183487625Y-93273571D01*
X183776910Y-93016428D02*
X183391196Y-93359285D01*
X184359053Y-93616428D02*
X184723339Y-93216428D01*
X184409053Y-93216428D02*
X184673339Y-93616428D01*
X185673339Y-93616428D02*
X185330482Y-93616428D01*
X185501910Y-93616428D02*
X185576910Y-93016428D01*
X185509053Y-93102142D01*
X185444767Y-93159285D01*
X185384053Y-93187857D01*
X186262625Y-93016428D02*
X186148339Y-93016428D01*
X186087625Y-93045000D01*
X186055482Y-93073571D01*
X185987625Y-93159285D01*
X185944767Y-93273571D01*
X185916196Y-93502142D01*
X185937625Y-93559285D01*
X185962625Y-93587857D01*
X186016196Y-93616428D01*
X186130482Y-93616428D01*
X186191196Y-93587857D01*
X186223339Y-93559285D01*
X186259053Y-93502142D01*
X186276910Y-93359285D01*
X186255482Y-93302142D01*
X186230482Y-93273571D01*
X186176910Y-93245000D01*
X186062625Y-93245000D01*
X186001910Y-93273571D01*
X185969767Y-93302142D01*
X185934053Y-93359285D01*
X186416196Y-93845000D02*
X186448339Y-93816428D01*
X186516196Y-93730714D01*
X186551910Y-93673571D01*
X186591196Y-93587857D01*
X186637625Y-93445000D01*
X186651910Y-93330714D01*
X186641196Y-93187857D01*
X186623339Y-93102142D01*
X186601910Y-93045000D01*
X186555482Y-92959285D01*
X186530482Y-92930714D01*
X187334053Y-93587857D02*
X187416196Y-93616428D01*
X187559053Y-93616428D01*
X187619767Y-93587857D01*
X187651910Y-93559285D01*
X187687625Y-93502142D01*
X187694767Y-93445000D01*
X187673339Y-93387857D01*
X187648339Y-93359285D01*
X187594767Y-93330714D01*
X187484053Y-93302142D01*
X187430482Y-93273571D01*
X187405482Y-93245000D01*
X187384053Y-93187857D01*
X187391196Y-93130714D01*
X187426910Y-93073571D01*
X187459053Y-93045000D01*
X187519767Y-93016428D01*
X187662625Y-93016428D01*
X187744767Y-93045000D01*
X188273339Y-93616428D02*
X188109053Y-93330714D01*
X187930482Y-93616428D02*
X188005482Y-93016428D01*
X188234053Y-93016428D01*
X188287625Y-93045000D01*
X188312625Y-93073571D01*
X188334053Y-93130714D01*
X188323339Y-93216428D01*
X188287625Y-93273571D01*
X188255482Y-93302142D01*
X188194767Y-93330714D01*
X187966196Y-93330714D01*
X188523339Y-93445000D02*
X188809053Y-93445000D01*
X188444767Y-93616428D02*
X188719767Y-93016428D01*
X188844767Y-93616428D01*
X189044767Y-93616428D02*
X189119767Y-93016428D01*
X189266196Y-93445000D01*
X189519767Y-93016428D01*
X189444767Y-93616428D01*
D10*
X157366227Y-94251428D02*
X157023370Y-94251428D01*
X157194799Y-94251428D02*
X157269799Y-93651428D01*
X157201941Y-93737142D01*
X157137656Y-93794285D01*
X157076941Y-93822857D01*
X157812656Y-93651428D02*
X157869799Y-93651428D01*
X157923370Y-93680000D01*
X157948370Y-93708571D01*
X157969799Y-93765714D01*
X157984084Y-93880000D01*
X157966227Y-94022857D01*
X157923370Y-94137142D01*
X157887656Y-94194285D01*
X157855513Y-94222857D01*
X157794799Y-94251428D01*
X157737656Y-94251428D01*
X157684084Y-94222857D01*
X157659084Y-94194285D01*
X157637656Y-94137142D01*
X157623370Y-94022857D01*
X157641227Y-93880000D01*
X157684084Y-93765714D01*
X157719799Y-93708571D01*
X157751941Y-93680000D01*
X157812656Y-93651428D01*
X158223370Y-94022857D02*
X158680513Y-94022857D01*
X158937656Y-94251428D02*
X159012656Y-93651428D01*
X158984084Y-93880000D02*
X159044799Y-93851428D01*
X159159084Y-93851428D01*
X159212656Y-93880000D01*
X159237656Y-93908571D01*
X159259084Y-93965714D01*
X159237656Y-94137142D01*
X159201941Y-94194285D01*
X159169799Y-94222857D01*
X159109084Y-94251428D01*
X158994799Y-94251428D01*
X158941227Y-94222857D01*
X159480513Y-94251428D02*
X159530513Y-93851428D01*
X159555513Y-93651428D02*
X159523370Y-93680000D01*
X159548370Y-93708571D01*
X159580513Y-93680000D01*
X159555513Y-93651428D01*
X159548370Y-93708571D01*
X159730513Y-93851428D02*
X159959084Y-93851428D01*
X159841227Y-93651428D02*
X159776941Y-94165714D01*
X159798370Y-94222857D01*
X159851941Y-94251428D01*
X159909084Y-94251428D01*
X160805513Y-93937142D02*
X160887656Y-93965714D01*
X160912656Y-93994285D01*
X160934084Y-94051428D01*
X160923370Y-94137142D01*
X160887656Y-94194285D01*
X160855513Y-94222857D01*
X160794799Y-94251428D01*
X160566227Y-94251428D01*
X160641227Y-93651428D01*
X160841227Y-93651428D01*
X160894799Y-93680000D01*
X160919799Y-93708571D01*
X160941227Y-93765714D01*
X160934084Y-93822857D01*
X160898370Y-93880000D01*
X160866227Y-93908571D01*
X160805513Y-93937142D01*
X160605513Y-93937142D01*
X161473370Y-93851428D02*
X161423370Y-94251428D01*
X161216227Y-93851428D02*
X161176941Y-94165714D01*
X161198370Y-94222857D01*
X161251941Y-94251428D01*
X161337656Y-94251428D01*
X161398370Y-94222857D01*
X161430513Y-94194285D01*
X161684084Y-94222857D02*
X161737656Y-94251428D01*
X161851941Y-94251428D01*
X161912656Y-94222857D01*
X161948370Y-94165714D01*
X161951941Y-94137142D01*
X161930513Y-94080000D01*
X161876941Y-94051428D01*
X161791227Y-94051428D01*
X161737656Y-94022857D01*
X161716227Y-93965714D01*
X161719799Y-93937142D01*
X161755513Y-93880000D01*
X161816227Y-93851428D01*
X161901941Y-93851428D01*
X161955513Y-93880000D01*
X162891227Y-93937142D02*
X162691227Y-93937142D01*
X162651941Y-94251428D02*
X162726941Y-93651428D01*
X163012656Y-93651428D01*
X163251941Y-94251428D02*
X163198370Y-94222857D01*
X163176941Y-94165714D01*
X163241227Y-93651428D01*
X163480513Y-94251428D02*
X163530513Y-93851428D01*
X163555513Y-93651428D02*
X163523370Y-93680000D01*
X163548370Y-93708571D01*
X163580513Y-93680000D01*
X163555513Y-93651428D01*
X163548370Y-93708571D01*
X163816227Y-93851428D02*
X163741227Y-94451428D01*
X163812656Y-93880000D02*
X163873370Y-93851428D01*
X163987656Y-93851428D01*
X164041227Y-93880000D01*
X164066227Y-93908571D01*
X164087656Y-93965714D01*
X164066227Y-94137142D01*
X164030513Y-94194285D01*
X163998370Y-94222857D01*
X163937656Y-94251428D01*
X163823370Y-94251428D01*
X163769799Y-94222857D01*
X164337656Y-94022857D02*
X164794799Y-94022857D01*
X165291227Y-93937142D02*
X165091227Y-93937142D01*
X165051941Y-94251428D02*
X165126941Y-93651428D01*
X165412656Y-93651428D01*
X165651941Y-94251428D02*
X165598370Y-94222857D01*
X165576941Y-94165714D01*
X165641227Y-93651428D01*
X165966227Y-94251428D02*
X165912656Y-94222857D01*
X165887656Y-94194285D01*
X165866227Y-94137142D01*
X165887656Y-93965714D01*
X165923370Y-93908571D01*
X165955513Y-93880000D01*
X166016227Y-93851428D01*
X166101941Y-93851428D01*
X166155513Y-93880000D01*
X166180513Y-93908571D01*
X166201941Y-93965714D01*
X166180513Y-94137142D01*
X166144799Y-94194285D01*
X166112656Y-94222857D01*
X166051941Y-94251428D01*
X165966227Y-94251428D01*
X166473370Y-93851428D02*
X166398370Y-94451428D01*
X166469799Y-93880000D02*
X166530513Y-93851428D01*
X166644799Y-93851428D01*
X166698370Y-93880000D01*
X166723370Y-93908571D01*
X166744799Y-93965714D01*
X166723370Y-94137142D01*
X166687656Y-94194285D01*
X166655513Y-94222857D01*
X166594799Y-94251428D01*
X166480513Y-94251428D01*
X166426941Y-94222857D01*
D13*
X259487142Y-93265491D02*
X258587142Y-93152991D01*
X259015714Y-93206562D02*
X259015714Y-92692276D01*
X259487142Y-92751205D02*
X258587142Y-92638705D01*
X259444285Y-91974419D02*
X259487142Y-92065491D01*
X259487142Y-92236919D01*
X259444285Y-92317276D01*
X259358571Y-92349419D01*
X259015714Y-92306562D01*
X258930000Y-92252991D01*
X258887142Y-92161919D01*
X258887142Y-91990491D01*
X258930000Y-91910133D01*
X259015714Y-91877991D01*
X259101428Y-91888705D01*
X259187142Y-92327991D01*
X259487142Y-91422633D02*
X259444285Y-91502991D01*
X259358571Y-91535133D01*
X258587142Y-91438705D01*
X259487142Y-90951205D02*
X259444285Y-91031562D01*
X259358571Y-91063705D01*
X258587142Y-90967276D01*
X259487142Y-90479776D02*
X259444285Y-90560133D01*
X259401428Y-90597633D01*
X259315714Y-90629776D01*
X259058571Y-90597633D01*
X258972857Y-90544062D01*
X258930000Y-90495848D01*
X258887142Y-90404776D01*
X258887142Y-90276205D01*
X258930000Y-90195848D01*
X258972857Y-90158348D01*
X259058571Y-90126205D01*
X259315714Y-90158348D01*
X259401428Y-90211919D01*
X259444285Y-90260133D01*
X259487142Y-90351205D01*
X259487142Y-90479776D01*
X259401428Y-88583348D02*
X259444285Y-88631562D01*
X259487142Y-88765491D01*
X259487142Y-88851205D01*
X259444285Y-88974419D01*
X259358571Y-89049419D01*
X259272857Y-89081562D01*
X259101428Y-89102991D01*
X258972857Y-89086919D01*
X258801428Y-89022633D01*
X258715714Y-88969062D01*
X258630000Y-88872633D01*
X258587142Y-88738705D01*
X258587142Y-88652991D01*
X258630000Y-88529776D01*
X258672857Y-88492276D01*
X259487142Y-87822633D02*
X259015714Y-87763705D01*
X258930000Y-87795848D01*
X258887142Y-87876205D01*
X258887142Y-88047633D01*
X258930000Y-88138705D01*
X259444285Y-87817276D02*
X259487142Y-87908348D01*
X259487142Y-88122633D01*
X259444285Y-88202991D01*
X259358571Y-88235133D01*
X259272857Y-88224419D01*
X259187142Y-88170848D01*
X259144285Y-88079776D01*
X259144285Y-87865491D01*
X259101428Y-87774419D01*
X258887142Y-87404776D02*
X259487142Y-87265491D01*
X258887142Y-86976205D01*
X259444285Y-86360133D02*
X259487142Y-86451205D01*
X259487142Y-86622633D01*
X259444285Y-86702991D01*
X259358571Y-86735133D01*
X259015714Y-86692276D01*
X258930000Y-86638705D01*
X258887142Y-86547633D01*
X258887142Y-86376205D01*
X258930000Y-86295848D01*
X259015714Y-86263705D01*
X259101428Y-86274419D01*
X259187142Y-86713705D01*
X259487142Y-85251205D02*
X258587142Y-85138705D01*
X258587142Y-84924419D01*
X258630000Y-84801205D01*
X258715714Y-84726205D01*
X258801428Y-84694062D01*
X258972857Y-84672633D01*
X259101428Y-84688705D01*
X259272857Y-84752991D01*
X259358571Y-84806562D01*
X259444285Y-84902991D01*
X259487142Y-85036919D01*
X259487142Y-85251205D01*
X258887142Y-84361919D02*
X259487142Y-84265491D01*
X259058571Y-84040491D01*
X259487142Y-83922633D01*
X258887142Y-83676205D01*
X259444285Y-83060133D02*
X259487142Y-83151205D01*
X259487142Y-83322633D01*
X259444285Y-83402991D01*
X259358571Y-83435133D01*
X259015714Y-83392276D01*
X258930000Y-83338705D01*
X258887142Y-83247633D01*
X258887142Y-83076205D01*
X258930000Y-82995848D01*
X259015714Y-82963705D01*
X259101428Y-82974419D01*
X259187142Y-83413705D01*
X259487142Y-82508348D02*
X259444285Y-82588705D01*
X259358571Y-82620848D01*
X258587142Y-82524419D01*
X259487142Y-82036919D02*
X259444285Y-82117276D01*
X259358571Y-82149419D01*
X258587142Y-82052991D01*
X259444285Y-81345848D02*
X259487142Y-81436919D01*
X259487142Y-81608348D01*
X259444285Y-81688705D01*
X259358571Y-81720848D01*
X259015714Y-81677991D01*
X258930000Y-81624419D01*
X258887142Y-81533348D01*
X258887142Y-81361919D01*
X258930000Y-81281562D01*
X259015714Y-81249419D01*
X259101428Y-81260133D01*
X259187142Y-81699419D01*
X259487142Y-80922633D02*
X258887142Y-80847633D01*
X259058571Y-80869062D02*
X258972857Y-80815491D01*
X258930000Y-80767276D01*
X258887142Y-80676205D01*
X258887142Y-80590491D01*
X259444285Y-80402991D02*
X259487142Y-80322633D01*
X259487142Y-80151205D01*
X259444285Y-80060133D01*
X259358571Y-80006562D01*
X259315714Y-80001205D01*
X259230000Y-80033348D01*
X259187142Y-80113705D01*
X259187142Y-80242276D01*
X259144285Y-80322633D01*
X259058571Y-80354776D01*
X259015714Y-80349419D01*
X258930000Y-80295848D01*
X258887142Y-80204776D01*
X258887142Y-80076205D01*
X258930000Y-79995848D01*
X259401428Y-79626205D02*
X259444285Y-79588705D01*
X259487142Y-79636919D01*
X259444285Y-79674419D01*
X259401428Y-79626205D01*
X259487142Y-79636919D01*
X259144285Y-79594062D02*
X258630000Y-79572633D01*
X258587142Y-79524419D01*
X258630000Y-79486919D01*
X259144285Y-79594062D01*
X258587142Y-79524419D01*
D11*
X222323653Y-96881904D02*
X222423653Y-96081904D01*
X222728415Y-96081904D01*
X222799843Y-96120000D01*
X222833177Y-96158095D01*
X222861748Y-96234285D01*
X222847462Y-96348571D01*
X222799843Y-96424761D01*
X222756986Y-96462857D01*
X222676034Y-96500952D01*
X222371272Y-96500952D01*
X223533177Y-96348571D02*
X223466510Y-96881904D01*
X223190319Y-96348571D02*
X223137938Y-96767619D01*
X223166510Y-96843809D01*
X223237938Y-96881904D01*
X223352224Y-96881904D01*
X223433177Y-96843809D01*
X223476034Y-96805714D01*
X223847462Y-96881904D02*
X223947462Y-96081904D01*
X223909367Y-96386666D02*
X223990319Y-96348571D01*
X224142700Y-96348571D01*
X224214129Y-96386666D01*
X224247462Y-96424761D01*
X224276034Y-96500952D01*
X224247462Y-96729523D01*
X224199843Y-96805714D01*
X224156986Y-96843809D01*
X224076034Y-96881904D01*
X223923653Y-96881904D01*
X223852224Y-96843809D01*
X224685558Y-96881904D02*
X224614129Y-96843809D01*
X224585558Y-96767619D01*
X224671272Y-96081904D01*
X224990319Y-96881904D02*
X225056986Y-96348571D01*
X225090319Y-96081904D02*
X225047462Y-96120000D01*
X225080796Y-96158095D01*
X225123653Y-96120000D01*
X225090319Y-96081904D01*
X225080796Y-96158095D01*
X225337938Y-96843809D02*
X225409367Y-96881904D01*
X225561748Y-96881904D01*
X225642700Y-96843809D01*
X225690319Y-96767619D01*
X225695081Y-96729523D01*
X225666510Y-96653333D01*
X225595081Y-96615238D01*
X225480796Y-96615238D01*
X225409367Y-96577142D01*
X225380796Y-96500952D01*
X225385558Y-96462857D01*
X225433177Y-96386666D01*
X225514129Y-96348571D01*
X225628415Y-96348571D01*
X225699843Y-96386666D01*
X226018891Y-96881904D02*
X226118891Y-96081904D01*
X226361748Y-96881904D02*
X226414129Y-96462857D01*
X226385558Y-96386666D01*
X226314129Y-96348571D01*
X226199843Y-96348571D01*
X226118891Y-96386666D01*
X226076034Y-96424761D01*
X227052224Y-96843809D02*
X226971272Y-96881904D01*
X226818891Y-96881904D01*
X226747462Y-96843809D01*
X226718891Y-96767619D01*
X226756986Y-96462857D01*
X226804605Y-96386666D01*
X226885558Y-96348571D01*
X227037938Y-96348571D01*
X227109367Y-96386666D01*
X227137938Y-96462857D01*
X227128415Y-96539047D01*
X226737938Y-96615238D01*
X227771272Y-96881904D02*
X227871272Y-96081904D01*
X227776034Y-96843809D02*
X227695081Y-96881904D01*
X227542700Y-96881904D01*
X227471272Y-96843809D01*
X227437938Y-96805714D01*
X227409367Y-96729523D01*
X227437938Y-96500952D01*
X227485558Y-96424761D01*
X227528415Y-96386666D01*
X227609367Y-96348571D01*
X227761748Y-96348571D01*
X227833177Y-96386666D01*
X229171272Y-96348571D02*
X229104605Y-96881904D01*
X228828415Y-96348571D02*
X228776034Y-96767619D01*
X228804605Y-96843809D01*
X228876034Y-96881904D01*
X228990319Y-96881904D01*
X229071272Y-96843809D01*
X229114129Y-96805714D01*
X229552224Y-96348571D02*
X229485558Y-96881904D01*
X229542700Y-96424761D02*
X229585558Y-96386666D01*
X229666510Y-96348571D01*
X229780796Y-96348571D01*
X229852224Y-96386666D01*
X229880796Y-96462857D01*
X229828415Y-96881904D01*
X230552224Y-96881904D02*
X230652224Y-96081904D01*
X230556986Y-96843809D02*
X230476034Y-96881904D01*
X230323653Y-96881904D01*
X230252224Y-96843809D01*
X230218891Y-96805714D01*
X230190319Y-96729523D01*
X230218891Y-96500952D01*
X230266510Y-96424761D01*
X230309367Y-96386666D01*
X230390319Y-96348571D01*
X230542700Y-96348571D01*
X230614129Y-96386666D01*
X231242700Y-96843809D02*
X231161748Y-96881904D01*
X231009367Y-96881904D01*
X230937938Y-96843809D01*
X230909367Y-96767619D01*
X230947462Y-96462857D01*
X230995081Y-96386666D01*
X231076034Y-96348571D01*
X231228415Y-96348571D01*
X231299843Y-96386666D01*
X231328415Y-96462857D01*
X231318891Y-96539047D01*
X230928415Y-96615238D01*
X231618891Y-96881904D02*
X231685558Y-96348571D01*
X231666510Y-96500952D02*
X231714129Y-96424761D01*
X231756986Y-96386666D01*
X231837938Y-96348571D01*
X231914129Y-96348571D01*
X232676034Y-96348571D02*
X232980796Y-96348571D01*
X232823653Y-96081904D02*
X232737938Y-96767619D01*
X232766510Y-96843809D01*
X232837938Y-96881904D01*
X232914129Y-96881904D01*
X233180796Y-96881904D02*
X233280796Y-96081904D01*
X233523653Y-96881904D02*
X233576034Y-96462857D01*
X233547462Y-96386666D01*
X233476034Y-96348571D01*
X233361748Y-96348571D01*
X233280796Y-96386666D01*
X233237938Y-96424761D01*
X234214129Y-96843809D02*
X234133177Y-96881904D01*
X233980796Y-96881904D01*
X233909367Y-96843809D01*
X233880796Y-96767619D01*
X233918891Y-96462857D01*
X233966510Y-96386666D01*
X234047462Y-96348571D01*
X234199843Y-96348571D01*
X234271272Y-96386666D01*
X234299843Y-96462857D01*
X234290319Y-96539047D01*
X233899843Y-96615238D01*
X235714129Y-96120000D02*
X235642700Y-96081904D01*
X235528415Y-96081904D01*
X235409367Y-96120000D01*
X235323653Y-96196190D01*
X235276034Y-96272380D01*
X235218891Y-96424761D01*
X235204605Y-96539047D01*
X235223653Y-96691428D01*
X235252224Y-96767619D01*
X235318891Y-96843809D01*
X235428415Y-96881904D01*
X235504605Y-96881904D01*
X235623653Y-96843809D01*
X235666510Y-96805714D01*
X235699843Y-96539047D01*
X235547462Y-96539047D01*
X235999843Y-96881904D02*
X236099843Y-96081904D01*
X236456986Y-96881904D01*
X236556986Y-96081904D01*
X236937938Y-96081904D02*
X236856986Y-96729523D01*
X236885558Y-96805714D01*
X236918891Y-96843809D01*
X236990319Y-96881904D01*
X237142700Y-96881904D01*
X237223653Y-96843809D01*
X237266510Y-96805714D01*
X237314129Y-96729523D01*
X237395081Y-96081904D01*
X238285558Y-96881904D02*
X238385558Y-96081904D01*
X238690319Y-96081904D01*
X238761748Y-96120000D01*
X238795081Y-96158095D01*
X238823653Y-96234285D01*
X238809367Y-96348571D01*
X238761748Y-96424761D01*
X238718891Y-96462857D01*
X238637938Y-96500952D01*
X238333177Y-96500952D01*
X239495081Y-96348571D02*
X239428415Y-96881904D01*
X239152224Y-96348571D02*
X239099843Y-96767619D01*
X239128415Y-96843809D01*
X239199843Y-96881904D01*
X239314129Y-96881904D01*
X239395081Y-96843809D01*
X239437938Y-96805714D01*
X239809367Y-96881904D02*
X239909367Y-96081904D01*
X239871272Y-96386666D02*
X239952224Y-96348571D01*
X240104605Y-96348571D01*
X240176034Y-96386666D01*
X240209367Y-96424761D01*
X240237938Y-96500952D01*
X240209367Y-96729523D01*
X240161748Y-96805714D01*
X240118891Y-96843809D01*
X240037938Y-96881904D01*
X239885558Y-96881904D01*
X239814129Y-96843809D01*
X240647462Y-96881904D02*
X240576034Y-96843809D01*
X240547462Y-96767619D01*
X240633177Y-96081904D01*
X240952224Y-96881904D02*
X241018891Y-96348571D01*
X241052224Y-96081904D02*
X241009367Y-96120000D01*
X241042700Y-96158095D01*
X241085558Y-96120000D01*
X241052224Y-96081904D01*
X241042700Y-96158095D01*
X241680796Y-96843809D02*
X241599843Y-96881904D01*
X241447462Y-96881904D01*
X241376034Y-96843809D01*
X241342700Y-96805714D01*
X241314129Y-96729523D01*
X241342700Y-96500952D01*
X241390319Y-96424761D01*
X241433177Y-96386666D01*
X241514129Y-96348571D01*
X241666510Y-96348571D01*
X241737938Y-96386666D01*
X243009367Y-96881904D02*
X242628415Y-96881904D01*
X242728415Y-96081904D01*
X243276034Y-96881904D02*
X243342700Y-96348571D01*
X243376034Y-96081904D02*
X243333177Y-96120000D01*
X243366510Y-96158095D01*
X243409367Y-96120000D01*
X243376034Y-96081904D01*
X243366510Y-96158095D01*
X244004605Y-96843809D02*
X243923653Y-96881904D01*
X243771272Y-96881904D01*
X243699843Y-96843809D01*
X243666510Y-96805714D01*
X243637938Y-96729523D01*
X243666510Y-96500952D01*
X243714129Y-96424761D01*
X243756986Y-96386666D01*
X243837938Y-96348571D01*
X243990319Y-96348571D01*
X244061748Y-96386666D01*
X244652224Y-96843809D02*
X244571272Y-96881904D01*
X244418891Y-96881904D01*
X244347462Y-96843809D01*
X244318891Y-96767619D01*
X244356986Y-96462857D01*
X244404605Y-96386666D01*
X244485558Y-96348571D01*
X244637938Y-96348571D01*
X244709367Y-96386666D01*
X244737938Y-96462857D01*
X244728415Y-96539047D01*
X244337938Y-96615238D01*
X245095081Y-96348571D02*
X245028415Y-96881904D01*
X245085558Y-96424761D02*
X245128415Y-96386666D01*
X245209367Y-96348571D01*
X245323653Y-96348571D01*
X245395081Y-96386666D01*
X245423653Y-96462857D01*
X245371272Y-96881904D01*
X245718891Y-96843809D02*
X245790319Y-96881904D01*
X245942700Y-96881904D01*
X246023653Y-96843809D01*
X246071272Y-96767619D01*
X246076034Y-96729523D01*
X246047462Y-96653333D01*
X245976034Y-96615238D01*
X245861748Y-96615238D01*
X245790319Y-96577142D01*
X245761748Y-96500952D01*
X245766510Y-96462857D01*
X245814129Y-96386666D01*
X245895081Y-96348571D01*
X246009367Y-96348571D01*
X246080796Y-96386666D01*
X246709367Y-96843809D02*
X246628415Y-96881904D01*
X246476034Y-96881904D01*
X246404605Y-96843809D01*
X246376034Y-96767619D01*
X246414129Y-96462857D01*
X246461748Y-96386666D01*
X246542700Y-96348571D01*
X246695081Y-96348571D01*
X246766510Y-96386666D01*
X246795081Y-96462857D01*
X246785558Y-96539047D01*
X246395081Y-96615238D01*
X247685558Y-96348571D02*
X247809367Y-96881904D01*
X248066510Y-96348571D01*
X248356986Y-96158095D02*
X248399843Y-96120000D01*
X248480796Y-96081904D01*
X248671272Y-96081904D01*
X248742700Y-96120000D01*
X248776034Y-96158095D01*
X248804605Y-96234285D01*
X248795081Y-96310476D01*
X248742700Y-96424761D01*
X248228415Y-96881904D01*
X248723653Y-96881904D01*
X221495081Y-94748333D02*
X221876034Y-94748333D01*
X221390319Y-94976904D02*
X221756986Y-94176904D01*
X221923653Y-94976904D01*
X222190319Y-94976904D02*
X222256986Y-94443571D01*
X222247462Y-94519761D02*
X222290319Y-94481666D01*
X222371272Y-94443571D01*
X222485558Y-94443571D01*
X222556986Y-94481666D01*
X222585558Y-94557857D01*
X222533177Y-94976904D01*
X222585558Y-94557857D02*
X222633177Y-94481666D01*
X222714129Y-94443571D01*
X222828415Y-94443571D01*
X222899843Y-94481666D01*
X222928415Y-94557857D01*
X222876034Y-94976904D01*
X223256986Y-94976904D02*
X223323653Y-94443571D01*
X223356986Y-94176904D02*
X223314129Y-94215000D01*
X223347462Y-94253095D01*
X223390319Y-94215000D01*
X223356986Y-94176904D01*
X223347462Y-94253095D01*
X224047462Y-94443571D02*
X223966510Y-95091190D01*
X223918891Y-95167380D01*
X223876034Y-95205476D01*
X223795081Y-95243571D01*
X223680796Y-95243571D01*
X223609367Y-95205476D01*
X223985558Y-94938809D02*
X223904605Y-94976904D01*
X223752224Y-94976904D01*
X223680796Y-94938809D01*
X223647462Y-94900714D01*
X223618891Y-94824523D01*
X223647462Y-94595952D01*
X223695081Y-94519761D01*
X223737938Y-94481666D01*
X223818891Y-94443571D01*
X223971272Y-94443571D01*
X224042700Y-94481666D01*
X224704605Y-94976904D02*
X224756986Y-94557857D01*
X224728415Y-94481666D01*
X224656986Y-94443571D01*
X224504605Y-94443571D01*
X224423653Y-94481666D01*
X224709367Y-94938809D02*
X224628415Y-94976904D01*
X224437938Y-94976904D01*
X224366510Y-94938809D01*
X224337938Y-94862619D01*
X224347462Y-94786428D01*
X224395081Y-94710238D01*
X224476034Y-94672142D01*
X224666510Y-94672142D01*
X224747462Y-94634047D01*
X226176034Y-94176904D02*
X225795081Y-94176904D01*
X225709367Y-94557857D01*
X225752224Y-94519761D01*
X225833177Y-94481666D01*
X226023653Y-94481666D01*
X226095081Y-94519761D01*
X226128415Y-94557857D01*
X226156986Y-94634047D01*
X226133177Y-94824523D01*
X226085558Y-94900714D01*
X226042700Y-94938809D01*
X225961748Y-94976904D01*
X225771272Y-94976904D01*
X225699843Y-94938809D01*
X225666510Y-94900714D01*
X226709367Y-94176904D02*
X226785558Y-94176904D01*
X226856986Y-94215000D01*
X226890319Y-94253095D01*
X226918891Y-94329285D01*
X226937938Y-94481666D01*
X226914129Y-94672142D01*
X226856986Y-94824523D01*
X226809367Y-94900714D01*
X226766510Y-94938809D01*
X226685558Y-94976904D01*
X226609367Y-94976904D01*
X226537938Y-94938809D01*
X226504605Y-94900714D01*
X226476034Y-94824523D01*
X226456986Y-94672142D01*
X226480796Y-94481666D01*
X226537938Y-94329285D01*
X226585558Y-94253095D01*
X226628415Y-94215000D01*
X226709367Y-94176904D01*
X227471272Y-94176904D02*
X227547462Y-94176904D01*
X227618891Y-94215000D01*
X227652224Y-94253095D01*
X227680796Y-94329285D01*
X227699843Y-94481666D01*
X227676034Y-94672142D01*
X227618891Y-94824523D01*
X227571272Y-94900714D01*
X227528415Y-94938809D01*
X227447462Y-94976904D01*
X227371272Y-94976904D01*
X227299843Y-94938809D01*
X227266510Y-94900714D01*
X227237938Y-94824523D01*
X227218891Y-94672142D01*
X227242700Y-94481666D01*
X227299843Y-94329285D01*
X227347462Y-94253095D01*
X227390319Y-94215000D01*
X227471272Y-94176904D01*
X229056986Y-94900714D02*
X229014129Y-94938809D01*
X228895081Y-94976904D01*
X228818891Y-94976904D01*
X228709367Y-94938809D01*
X228642700Y-94862619D01*
X228614129Y-94786428D01*
X228595081Y-94634047D01*
X228609367Y-94519761D01*
X228666510Y-94367380D01*
X228714129Y-94291190D01*
X228799843Y-94215000D01*
X228918891Y-94176904D01*
X228995081Y-94176904D01*
X229104605Y-94215000D01*
X229137938Y-94253095D01*
X229390319Y-94976904D02*
X229490319Y-94176904D01*
X229442700Y-94557857D02*
X229899843Y-94557857D01*
X229847462Y-94976904D02*
X229947462Y-94176904D01*
X230228415Y-94976904D02*
X230328415Y-94176904D01*
X230609367Y-94976904D02*
X230709367Y-94176904D01*
X231014129Y-94176904D01*
X231085558Y-94215000D01*
X231118891Y-94253095D01*
X231147462Y-94329285D01*
X231133177Y-94443571D01*
X231085558Y-94519761D01*
X231042700Y-94557857D01*
X230961748Y-94595952D01*
X230656986Y-94595952D01*
X232476034Y-94976904D02*
X232256986Y-94595952D01*
X232018891Y-94976904D02*
X232118891Y-94176904D01*
X232423653Y-94176904D01*
X232495081Y-94215000D01*
X232528415Y-94253095D01*
X232556986Y-94329285D01*
X232542700Y-94443571D01*
X232495081Y-94519761D01*
X232452224Y-94557857D01*
X232371272Y-94595952D01*
X232066510Y-94595952D01*
X232809367Y-94748333D02*
X233190319Y-94748333D01*
X232704605Y-94976904D02*
X233071272Y-94176904D01*
X233237938Y-94976904D01*
X233504605Y-94976904D02*
X233604605Y-94176904D01*
X233799843Y-94748333D01*
X234137938Y-94176904D01*
X234037938Y-94976904D01*
X235485558Y-94976904D02*
X235266510Y-94595952D01*
X235028415Y-94976904D02*
X235128415Y-94176904D01*
X235433177Y-94176904D01*
X235504605Y-94215000D01*
X235537938Y-94253095D01*
X235566510Y-94329285D01*
X235552224Y-94443571D01*
X235504605Y-94519761D01*
X235461748Y-94557857D01*
X235380796Y-94595952D01*
X235076034Y-94595952D01*
X236137938Y-94938809D02*
X236056986Y-94976904D01*
X235904605Y-94976904D01*
X235833177Y-94938809D01*
X235804605Y-94862619D01*
X235842700Y-94557857D01*
X235890319Y-94481666D01*
X235971272Y-94443571D01*
X236123653Y-94443571D01*
X236195081Y-94481666D01*
X236223653Y-94557857D01*
X236214129Y-94634047D01*
X235823653Y-94710238D01*
X236580796Y-94443571D02*
X236480796Y-95243571D01*
X236576034Y-94481666D02*
X236656986Y-94443571D01*
X236809367Y-94443571D01*
X236880796Y-94481666D01*
X236914129Y-94519761D01*
X236942700Y-94595952D01*
X236914129Y-94824523D01*
X236866510Y-94900714D01*
X236823653Y-94938809D01*
X236742700Y-94976904D01*
X236590319Y-94976904D01*
X236518891Y-94938809D01*
X237352224Y-94976904D02*
X237280796Y-94938809D01*
X237252224Y-94862619D01*
X237337938Y-94176904D01*
X237999843Y-94976904D02*
X238052224Y-94557857D01*
X238023653Y-94481666D01*
X237952224Y-94443571D01*
X237799843Y-94443571D01*
X237718891Y-94481666D01*
X238004605Y-94938809D02*
X237923653Y-94976904D01*
X237733177Y-94976904D01*
X237661748Y-94938809D01*
X237633177Y-94862619D01*
X237642700Y-94786428D01*
X237690319Y-94710238D01*
X237771272Y-94672142D01*
X237961748Y-94672142D01*
X238042700Y-94634047D01*
X238728415Y-94938809D02*
X238647462Y-94976904D01*
X238495081Y-94976904D01*
X238423653Y-94938809D01*
X238390319Y-94900714D01*
X238361748Y-94824523D01*
X238390319Y-94595952D01*
X238437938Y-94519761D01*
X238480796Y-94481666D01*
X238561748Y-94443571D01*
X238714129Y-94443571D01*
X238785558Y-94481666D01*
X239376034Y-94938809D02*
X239295081Y-94976904D01*
X239142700Y-94976904D01*
X239071272Y-94938809D01*
X239042700Y-94862619D01*
X239080796Y-94557857D01*
X239128415Y-94481666D01*
X239209367Y-94443571D01*
X239361748Y-94443571D01*
X239433177Y-94481666D01*
X239461748Y-94557857D01*
X239452224Y-94634047D01*
X239061748Y-94710238D01*
X239752224Y-94976904D02*
X239818891Y-94443571D01*
X239809367Y-94519761D02*
X239852224Y-94481666D01*
X239933177Y-94443571D01*
X240047462Y-94443571D01*
X240118891Y-94481666D01*
X240147462Y-94557857D01*
X240095081Y-94976904D01*
X240147462Y-94557857D02*
X240195081Y-94481666D01*
X240276034Y-94443571D01*
X240390319Y-94443571D01*
X240461748Y-94481666D01*
X240490319Y-94557857D01*
X240437938Y-94976904D01*
X241128415Y-94938809D02*
X241047462Y-94976904D01*
X240895081Y-94976904D01*
X240823653Y-94938809D01*
X240795081Y-94862619D01*
X240833177Y-94557857D01*
X240880796Y-94481666D01*
X240961748Y-94443571D01*
X241114129Y-94443571D01*
X241185558Y-94481666D01*
X241214129Y-94557857D01*
X241204605Y-94634047D01*
X240814129Y-94710238D01*
X241571272Y-94443571D02*
X241504605Y-94976904D01*
X241561748Y-94519761D02*
X241604605Y-94481666D01*
X241685558Y-94443571D01*
X241799843Y-94443571D01*
X241871272Y-94481666D01*
X241899843Y-94557857D01*
X241847462Y-94976904D01*
X242180796Y-94443571D02*
X242485558Y-94443571D01*
X242328415Y-94176904D02*
X242242700Y-94862619D01*
X242271272Y-94938809D01*
X242342700Y-94976904D01*
X242418891Y-94976904D01*
X243614129Y-94557857D02*
X243723653Y-94595952D01*
X243756986Y-94634047D01*
X243785558Y-94710238D01*
X243771272Y-94824523D01*
X243723653Y-94900714D01*
X243680796Y-94938809D01*
X243599843Y-94976904D01*
X243295081Y-94976904D01*
X243395081Y-94176904D01*
X243661748Y-94176904D01*
X243733177Y-94215000D01*
X243766510Y-94253095D01*
X243795081Y-94329285D01*
X243785558Y-94405476D01*
X243737938Y-94481666D01*
X243695081Y-94519761D01*
X243614129Y-94557857D01*
X243347462Y-94557857D01*
X244209367Y-94976904D02*
X244137938Y-94938809D01*
X244104605Y-94900714D01*
X244076034Y-94824523D01*
X244104605Y-94595952D01*
X244152224Y-94519761D01*
X244195081Y-94481666D01*
X244276034Y-94443571D01*
X244390319Y-94443571D01*
X244461748Y-94481666D01*
X244495081Y-94519761D01*
X244523653Y-94595952D01*
X244495081Y-94824523D01*
X244447462Y-94900714D01*
X244404605Y-94938809D01*
X244323653Y-94976904D01*
X244209367Y-94976904D01*
X245161748Y-94976904D02*
X245214129Y-94557857D01*
X245185558Y-94481666D01*
X245114129Y-94443571D01*
X244961748Y-94443571D01*
X244880796Y-94481666D01*
X245166510Y-94938809D02*
X245085558Y-94976904D01*
X244895081Y-94976904D01*
X244823653Y-94938809D01*
X244795081Y-94862619D01*
X244804605Y-94786428D01*
X244852224Y-94710238D01*
X244933177Y-94672142D01*
X245123653Y-94672142D01*
X245204605Y-94634047D01*
X245542700Y-94976904D02*
X245609367Y-94443571D01*
X245590319Y-94595952D02*
X245637938Y-94519761D01*
X245680796Y-94481666D01*
X245761748Y-94443571D01*
X245837938Y-94443571D01*
X246380796Y-94976904D02*
X246480796Y-94176904D01*
X246385558Y-94938809D02*
X246304605Y-94976904D01*
X246152224Y-94976904D01*
X246080796Y-94938809D01*
X246047462Y-94900714D01*
X246018891Y-94824523D01*
X246047462Y-94595952D01*
X246095081Y-94519761D01*
X246137938Y-94481666D01*
X246218891Y-94443571D01*
X246371272Y-94443571D01*
X246442700Y-94481666D01*
X247361748Y-94443571D02*
X247485558Y-94976904D01*
X247742700Y-94443571D01*
X248399843Y-94976904D02*
X247942700Y-94976904D01*
X248171272Y-94976904D02*
X248271272Y-94176904D01*
X248180796Y-94291190D01*
X248095081Y-94367380D01*
X248014129Y-94405476D01*
X248752224Y-94900714D02*
X248785558Y-94938809D01*
X248742700Y-94976904D01*
X248709367Y-94938809D01*
X248752224Y-94900714D01*
X248742700Y-94976904D01*
X249147462Y-94176904D02*
X249642700Y-94176904D01*
X249337938Y-94481666D01*
X249452224Y-94481666D01*
X249523653Y-94519761D01*
X249556986Y-94557857D01*
X249585558Y-94634047D01*
X249561748Y-94824523D01*
X249514129Y-94900714D01*
X249471272Y-94938809D01*
X249390319Y-94976904D01*
X249161748Y-94976904D01*
X249090319Y-94938809D01*
X249056986Y-94900714D01*
D14*
X264330000Y-73540000D02*
X253830000Y-73540000D01*
X264330000Y-99180000D02*
X264330000Y-73540000D01*
X253830000Y-99180000D02*
X264330000Y-99180000D01*
X253830000Y-73540000D02*
X253830000Y-99180000D01*
X261330000Y-73600000D02*
X260080000Y-73600000D01*
X261330000Y-99120000D02*
X261330000Y-73600000D01*
X256830000Y-99120000D02*
X261330000Y-99120000D01*
X256830000Y-73600000D02*
X256830000Y-99120000D01*
X258080000Y-73600000D02*
X256830000Y-73600000D01*
X260080000Y-73600000D02*
G75*
G02X258080000Y-73600000I-1000000J0D01*
G01*
X241250000Y-74370000D02*
X239435000Y-74370000D01*
X241250000Y-74135000D02*
X241250000Y-74370000D01*
X245110000Y-74135000D02*
X241250000Y-74135000D01*
X248970000Y-74135000D02*
X248970000Y-74370000D01*
X245110000Y-74135000D02*
X248970000Y-74135000D01*
X241250000Y-87155000D02*
X241250000Y-86920000D01*
X245110000Y-87155000D02*
X241250000Y-87155000D01*
X248970000Y-87155000D02*
X248970000Y-86920000D01*
X245110000Y-87155000D02*
X248970000Y-87155000D01*
X169533000Y-88723000D02*
X169533000Y-86908000D01*
X169798000Y-88723000D02*
X169533000Y-88723000D01*
X169798000Y-92583000D02*
X169798000Y-88723000D01*
X169798000Y-96443000D02*
X169533000Y-96443000D01*
X169798000Y-92583000D02*
X169798000Y-96443000D01*
X154178000Y-88723000D02*
X154443000Y-88723000D01*
X154178000Y-92583000D02*
X154178000Y-88723000D01*
X154178000Y-96443000D02*
X154443000Y-96443000D01*
X154178000Y-92583000D02*
X154178000Y-96443000D01*
X157066064Y-84053000D02*
X155861936Y-84053000D01*
X157066064Y-85873000D02*
X155861936Y-85873000D01*
X166632000Y-74033464D02*
X166632000Y-72829336D01*
X164812000Y-74033464D02*
X164812000Y-72829336D01*
X184881936Y-101494000D02*
X186086064Y-101494000D01*
X184881936Y-99674000D02*
X186086064Y-99674000D01*
X160401000Y-80190500D02*
X163851000Y-80190500D01*
X160401000Y-80190500D02*
X158451000Y-80190500D01*
X160401000Y-71320500D02*
X162351000Y-71320500D01*
X160401000Y-71320500D02*
X158451000Y-71320500D01*
X186098064Y-82275000D02*
X184893936Y-82275000D01*
X186098064Y-84095000D02*
X184893936Y-84095000D01*
X191368000Y-72803936D02*
X191368000Y-74008064D01*
X193188000Y-72803936D02*
X193188000Y-74008064D01*
X208757936Y-101494000D02*
X209962064Y-101494000D01*
X208757936Y-99674000D02*
X209962064Y-99674000D01*
X209962064Y-82275000D02*
X208757936Y-82275000D01*
X209962064Y-84095000D02*
X208757936Y-84095000D01*
X245966064Y-89810000D02*
X244761936Y-89810000D01*
X245966064Y-87990000D02*
X244761936Y-87990000D01*
X186477000Y-80157500D02*
X188427000Y-80157500D01*
X186477000Y-80157500D02*
X184527000Y-80157500D01*
X186477000Y-71287500D02*
X188427000Y-71287500D01*
X186477000Y-71287500D02*
X183027000Y-71287500D01*
X175469000Y-97074500D02*
X175469000Y-98234500D01*
X175089000Y-97074500D02*
X175469000Y-97074500D01*
X175089000Y-91884500D02*
X175089000Y-97074500D01*
X175089000Y-86694500D02*
X175469000Y-86694500D01*
X175089000Y-91884500D02*
X175089000Y-86694500D01*
X193719000Y-97074500D02*
X193339000Y-97074500D01*
X193719000Y-91884500D02*
X193719000Y-97074500D01*
X193719000Y-86694500D02*
X193339000Y-86694500D01*
X193719000Y-91884500D02*
X193719000Y-86694500D01*
X217595000Y-91884500D02*
X217595000Y-86694500D01*
X217595000Y-86694500D02*
X217215000Y-86694500D01*
X217595000Y-91884500D02*
X217595000Y-97074500D01*
X217595000Y-97074500D02*
X217215000Y-97074500D01*
X198965000Y-91884500D02*
X198965000Y-86694500D01*
X198965000Y-86694500D02*
X199345000Y-86694500D01*
X198965000Y-91884500D02*
X198965000Y-97074500D01*
X198965000Y-97074500D02*
X199345000Y-97074500D01*
X199345000Y-97074500D02*
X199345000Y-98234500D01*
X175322000Y-74566000D02*
X177222000Y-74566000D01*
X176722000Y-72246000D02*
X175322000Y-72246000D01*
D11*
X258089523Y-72161904D02*
X258089523Y-72809523D01*
X258127619Y-72885714D01*
X258165714Y-72923809D01*
X258241904Y-72961904D01*
X258394285Y-72961904D01*
X258470476Y-72923809D01*
X258508571Y-72885714D01*
X258546666Y-72809523D01*
X258546666Y-72161904D01*
X258851428Y-72161904D02*
X259346666Y-72161904D01*
X259080000Y-72466666D01*
X259194285Y-72466666D01*
X259270476Y-72504761D01*
X259308571Y-72542857D01*
X259346666Y-72619047D01*
X259346666Y-72809523D01*
X259308571Y-72885714D01*
X259270476Y-72923809D01*
X259194285Y-72961904D01*
X258965714Y-72961904D01*
X258889523Y-72923809D01*
X258851428Y-72885714D01*
X260032380Y-72428571D02*
X260032380Y-72961904D01*
X259841904Y-72123809D02*
X259651428Y-72695238D01*
X260146666Y-72695238D01*
X244500476Y-72856904D02*
X244500476Y-73504523D01*
X244538571Y-73580714D01*
X244576666Y-73618809D01*
X244652857Y-73656904D01*
X244805238Y-73656904D01*
X244881428Y-73618809D01*
X244919523Y-73580714D01*
X244957619Y-73504523D01*
X244957619Y-72856904D01*
X245681428Y-72856904D02*
X245529047Y-72856904D01*
X245452857Y-72895000D01*
X245414761Y-72933095D01*
X245338571Y-73047380D01*
X245300476Y-73199761D01*
X245300476Y-73504523D01*
X245338571Y-73580714D01*
X245376666Y-73618809D01*
X245452857Y-73656904D01*
X245605238Y-73656904D01*
X245681428Y-73618809D01*
X245719523Y-73580714D01*
X245757619Y-73504523D01*
X245757619Y-73314047D01*
X245719523Y-73237857D01*
X245681428Y-73199761D01*
X245605238Y-73161666D01*
X245452857Y-73161666D01*
X245376666Y-73199761D01*
X245338571Y-73237857D01*
X245300476Y-73314047D01*
D13*
X243927380Y-84192619D02*
X243927380Y-83525952D01*
X244927380Y-83954523D01*
X244260714Y-82716428D02*
X244927380Y-82716428D01*
X243879761Y-82954523D02*
X244594047Y-83192619D01*
X244594047Y-82573571D01*
X244641666Y-82240238D02*
X244641666Y-81764047D01*
X244927380Y-82335476D02*
X243927380Y-82002142D01*
X244927380Y-81668809D01*
X244403571Y-81002142D02*
X244451190Y-80859285D01*
X244498809Y-80811666D01*
X244594047Y-80764047D01*
X244736904Y-80764047D01*
X244832142Y-80811666D01*
X244879761Y-80859285D01*
X244927380Y-80954523D01*
X244927380Y-81335476D01*
X243927380Y-81335476D01*
X243927380Y-81002142D01*
X243975000Y-80906904D01*
X244022619Y-80859285D01*
X244117857Y-80811666D01*
X244213095Y-80811666D01*
X244308333Y-80859285D01*
X244355952Y-80906904D01*
X244403571Y-81002142D01*
X244403571Y-81335476D01*
X243927380Y-80478333D02*
X243927380Y-79906904D01*
X244927380Y-80192619D02*
X243927380Y-80192619D01*
X243927380Y-79668809D02*
X243927380Y-79049761D01*
X244308333Y-79383095D01*
X244308333Y-79240238D01*
X244355952Y-79145000D01*
X244403571Y-79097380D01*
X244498809Y-79049761D01*
X244736904Y-79049761D01*
X244832142Y-79097380D01*
X244879761Y-79145000D01*
X244927380Y-79240238D01*
X244927380Y-79525952D01*
X244879761Y-79621190D01*
X244832142Y-79668809D01*
X243927380Y-78716428D02*
X243927380Y-78049761D01*
X244927380Y-78478333D01*
X243927380Y-77764047D02*
X243927380Y-77145000D01*
X244308333Y-77478333D01*
X244308333Y-77335476D01*
X244355952Y-77240238D01*
X244403571Y-77192619D01*
X244498809Y-77145000D01*
X244736904Y-77145000D01*
X244832142Y-77192619D01*
X244879761Y-77240238D01*
X244927380Y-77335476D01*
X244927380Y-77621190D01*
X244879761Y-77716428D01*
X244832142Y-77764047D01*
D11*
X170199904Y-93192523D02*
X170847523Y-93192523D01*
X170923714Y-93154428D01*
X170961809Y-93116333D01*
X170999904Y-93040142D01*
X170999904Y-92887761D01*
X170961809Y-92811571D01*
X170923714Y-92773476D01*
X170847523Y-92735380D01*
X170199904Y-92735380D01*
X170276095Y-92392523D02*
X170238000Y-92354428D01*
X170199904Y-92278238D01*
X170199904Y-92087761D01*
X170238000Y-92011571D01*
X170276095Y-91973476D01*
X170352285Y-91935380D01*
X170428476Y-91935380D01*
X170542761Y-91973476D01*
X170999904Y-92430619D01*
X170999904Y-91935380D01*
D13*
X156876880Y-92162380D02*
X157543547Y-92162380D01*
X157114976Y-93162380D01*
X158353071Y-92495714D02*
X158353071Y-93162380D01*
X158114976Y-92114761D02*
X157876880Y-92829047D01*
X158495928Y-92829047D01*
X158829261Y-92876666D02*
X159305452Y-92876666D01*
X158734023Y-93162380D02*
X159067357Y-92162380D01*
X159400690Y-93162380D01*
X160067357Y-92638571D02*
X160210214Y-92686190D01*
X160257833Y-92733809D01*
X160305452Y-92829047D01*
X160305452Y-92971904D01*
X160257833Y-93067142D01*
X160210214Y-93114761D01*
X160114976Y-93162380D01*
X159734023Y-93162380D01*
X159734023Y-92162380D01*
X160067357Y-92162380D01*
X160162595Y-92210000D01*
X160210214Y-92257619D01*
X160257833Y-92352857D01*
X160257833Y-92448095D01*
X160210214Y-92543333D01*
X160162595Y-92590952D01*
X160067357Y-92638571D01*
X159734023Y-92638571D01*
X160591166Y-92162380D02*
X161162595Y-92162380D01*
X160876880Y-93162380D02*
X160876880Y-92162380D01*
X161638785Y-92590952D02*
X161543547Y-92543333D01*
X161495928Y-92495714D01*
X161448309Y-92400476D01*
X161448309Y-92352857D01*
X161495928Y-92257619D01*
X161543547Y-92210000D01*
X161638785Y-92162380D01*
X161829261Y-92162380D01*
X161924500Y-92210000D01*
X161972119Y-92257619D01*
X162019738Y-92352857D01*
X162019738Y-92400476D01*
X161972119Y-92495714D01*
X161924500Y-92543333D01*
X161829261Y-92590952D01*
X161638785Y-92590952D01*
X161543547Y-92638571D01*
X161495928Y-92686190D01*
X161448309Y-92781428D01*
X161448309Y-92971904D01*
X161495928Y-93067142D01*
X161543547Y-93114761D01*
X161638785Y-93162380D01*
X161829261Y-93162380D01*
X161924500Y-93114761D01*
X161972119Y-93067142D01*
X162019738Y-92971904D01*
X162019738Y-92781428D01*
X161972119Y-92686190D01*
X161924500Y-92638571D01*
X161829261Y-92590952D01*
X162400690Y-92257619D02*
X162448309Y-92210000D01*
X162543547Y-92162380D01*
X162781642Y-92162380D01*
X162876880Y-92210000D01*
X162924500Y-92257619D01*
X162972119Y-92352857D01*
X162972119Y-92448095D01*
X162924500Y-92590952D01*
X162353071Y-93162380D01*
X162972119Y-93162380D01*
X163924500Y-93162380D02*
X163353071Y-93162380D01*
X163638785Y-93162380D02*
X163638785Y-92162380D01*
X163543547Y-92305238D01*
X163448309Y-92400476D01*
X163353071Y-92448095D01*
X164305452Y-92876666D02*
X164781642Y-92876666D01*
X164210214Y-93162380D02*
X164543547Y-92162380D01*
X164876880Y-93162380D01*
X165210214Y-93162380D02*
X165210214Y-92162380D01*
X165448309Y-92162380D01*
X165591166Y-92210000D01*
X165686404Y-92305238D01*
X165734023Y-92400476D01*
X165781642Y-92590952D01*
X165781642Y-92733809D01*
X165734023Y-92924285D01*
X165686404Y-93019523D01*
X165591166Y-93114761D01*
X165448309Y-93162380D01*
X165210214Y-93162380D01*
X166114976Y-92162380D02*
X166353071Y-93162380D01*
X166543547Y-92448095D01*
X166734023Y-93162380D01*
X166972119Y-92162380D01*
D10*
X156678285Y-85063000D02*
X156706857Y-85091571D01*
X156735428Y-85177285D01*
X156735428Y-85234428D01*
X156706857Y-85320142D01*
X156649714Y-85377285D01*
X156592571Y-85405857D01*
X156478285Y-85434428D01*
X156392571Y-85434428D01*
X156278285Y-85405857D01*
X156221142Y-85377285D01*
X156164000Y-85320142D01*
X156135428Y-85234428D01*
X156135428Y-85177285D01*
X156164000Y-85091571D01*
X156192571Y-85063000D01*
X156735428Y-84491571D02*
X156735428Y-84834428D01*
X156735428Y-84663000D02*
X156135428Y-84663000D01*
X156221142Y-84720142D01*
X156278285Y-84777285D01*
X156306857Y-84834428D01*
X165622000Y-73645685D02*
X165593428Y-73674257D01*
X165507714Y-73702828D01*
X165450571Y-73702828D01*
X165364857Y-73674257D01*
X165307714Y-73617114D01*
X165279142Y-73559971D01*
X165250571Y-73445685D01*
X165250571Y-73359971D01*
X165279142Y-73245685D01*
X165307714Y-73188542D01*
X165364857Y-73131400D01*
X165450571Y-73102828D01*
X165507714Y-73102828D01*
X165593428Y-73131400D01*
X165622000Y-73159971D01*
X165850571Y-73159971D02*
X165879142Y-73131400D01*
X165936285Y-73102828D01*
X166079142Y-73102828D01*
X166136285Y-73131400D01*
X166164857Y-73159971D01*
X166193428Y-73217114D01*
X166193428Y-73274257D01*
X166164857Y-73359971D01*
X165822000Y-73702828D01*
X166193428Y-73702828D01*
X185698285Y-100684000D02*
X185726857Y-100712571D01*
X185755428Y-100798285D01*
X185755428Y-100855428D01*
X185726857Y-100941142D01*
X185669714Y-100998285D01*
X185612571Y-101026857D01*
X185498285Y-101055428D01*
X185412571Y-101055428D01*
X185298285Y-101026857D01*
X185241142Y-100998285D01*
X185184000Y-100941142D01*
X185155428Y-100855428D01*
X185155428Y-100798285D01*
X185184000Y-100712571D01*
X185212571Y-100684000D01*
X185155428Y-100484000D02*
X185155428Y-100112571D01*
X185384000Y-100312571D01*
X185384000Y-100226857D01*
X185412571Y-100169714D01*
X185441142Y-100141142D01*
X185498285Y-100112571D01*
X185641142Y-100112571D01*
X185698285Y-100141142D01*
X185726857Y-100169714D01*
X185755428Y-100226857D01*
X185755428Y-100398285D01*
X185726857Y-100455428D01*
X185698285Y-100484000D01*
D11*
X159791476Y-70237404D02*
X159791476Y-70885023D01*
X159829571Y-70961214D01*
X159867666Y-70999309D01*
X159943857Y-71037404D01*
X160096238Y-71037404D01*
X160172428Y-70999309D01*
X160210523Y-70961214D01*
X160248619Y-70885023D01*
X160248619Y-70237404D01*
X161048619Y-71037404D02*
X160591476Y-71037404D01*
X160820047Y-71037404D02*
X160820047Y-70237404D01*
X160743857Y-70351690D01*
X160667666Y-70427880D01*
X160591476Y-70465976D01*
X159962904Y-78276142D02*
X159962904Y-77742809D01*
X160762904Y-78085666D01*
X160229571Y-77095190D02*
X160762904Y-77095190D01*
X159924809Y-77285666D02*
X160496238Y-77476142D01*
X160496238Y-76980904D01*
X160534333Y-76714238D02*
X160534333Y-76333285D01*
X160762904Y-76790428D02*
X159962904Y-76523761D01*
X160762904Y-76257095D01*
X160343857Y-75723761D02*
X160381952Y-75609476D01*
X160420047Y-75571380D01*
X160496238Y-75533285D01*
X160610523Y-75533285D01*
X160686714Y-75571380D01*
X160724809Y-75609476D01*
X160762904Y-75685666D01*
X160762904Y-75990428D01*
X159962904Y-75990428D01*
X159962904Y-75723761D01*
X160001000Y-75647571D01*
X160039095Y-75609476D01*
X160115285Y-75571380D01*
X160191476Y-75571380D01*
X160267666Y-75609476D01*
X160305761Y-75647571D01*
X160343857Y-75723761D01*
X160343857Y-75990428D01*
X159962904Y-75304714D02*
X159962904Y-74847571D01*
X160762904Y-75076142D02*
X159962904Y-75076142D01*
X159962904Y-74428523D02*
X159962904Y-74352333D01*
X160001000Y-74276142D01*
X160039095Y-74238047D01*
X160115285Y-74199952D01*
X160267666Y-74161857D01*
X160458142Y-74161857D01*
X160610523Y-74199952D01*
X160686714Y-74238047D01*
X160724809Y-74276142D01*
X160762904Y-74352333D01*
X160762904Y-74428523D01*
X160724809Y-74504714D01*
X160686714Y-74542809D01*
X160610523Y-74580904D01*
X160458142Y-74619000D01*
X160267666Y-74619000D01*
X160115285Y-74580904D01*
X160039095Y-74542809D01*
X160001000Y-74504714D01*
X159962904Y-74428523D01*
X159962904Y-73666619D02*
X159962904Y-73590428D01*
X160001000Y-73514238D01*
X160039095Y-73476142D01*
X160115285Y-73438047D01*
X160267666Y-73399952D01*
X160458142Y-73399952D01*
X160610523Y-73438047D01*
X160686714Y-73476142D01*
X160724809Y-73514238D01*
X160762904Y-73590428D01*
X160762904Y-73666619D01*
X160724809Y-73742809D01*
X160686714Y-73780904D01*
X160610523Y-73819000D01*
X160458142Y-73857095D01*
X160267666Y-73857095D01*
X160115285Y-73819000D01*
X160039095Y-73780904D01*
X160001000Y-73742809D01*
X159962904Y-73666619D01*
D10*
X185710285Y-83348500D02*
X185738857Y-83377071D01*
X185767428Y-83462785D01*
X185767428Y-83519928D01*
X185738857Y-83605642D01*
X185681714Y-83662785D01*
X185624571Y-83691357D01*
X185510285Y-83719928D01*
X185424571Y-83719928D01*
X185310285Y-83691357D01*
X185253142Y-83662785D01*
X185196000Y-83605642D01*
X185167428Y-83519928D01*
X185167428Y-83462785D01*
X185196000Y-83377071D01*
X185224571Y-83348500D01*
X185367428Y-82834214D02*
X185767428Y-82834214D01*
X185138857Y-82977071D02*
X185567428Y-83119928D01*
X185567428Y-82748500D01*
X192178000Y-73620285D02*
X192149428Y-73648857D01*
X192063714Y-73677428D01*
X192006571Y-73677428D01*
X191920857Y-73648857D01*
X191863714Y-73591714D01*
X191835142Y-73534571D01*
X191806571Y-73420285D01*
X191806571Y-73334571D01*
X191835142Y-73220285D01*
X191863714Y-73163142D01*
X191920857Y-73106000D01*
X192006571Y-73077428D01*
X192063714Y-73077428D01*
X192149428Y-73106000D01*
X192178000Y-73134571D01*
X192720857Y-73077428D02*
X192435142Y-73077428D01*
X192406571Y-73363142D01*
X192435142Y-73334571D01*
X192492285Y-73306000D01*
X192635142Y-73306000D01*
X192692285Y-73334571D01*
X192720857Y-73363142D01*
X192749428Y-73420285D01*
X192749428Y-73563142D01*
X192720857Y-73620285D01*
X192692285Y-73648857D01*
X192635142Y-73677428D01*
X192492285Y-73677428D01*
X192435142Y-73648857D01*
X192406571Y-73620285D01*
X209574285Y-100684000D02*
X209602857Y-100712571D01*
X209631428Y-100798285D01*
X209631428Y-100855428D01*
X209602857Y-100941142D01*
X209545714Y-100998285D01*
X209488571Y-101026857D01*
X209374285Y-101055428D01*
X209288571Y-101055428D01*
X209174285Y-101026857D01*
X209117142Y-100998285D01*
X209060000Y-100941142D01*
X209031428Y-100855428D01*
X209031428Y-100798285D01*
X209060000Y-100712571D01*
X209088571Y-100684000D01*
X209031428Y-100169714D02*
X209031428Y-100284000D01*
X209060000Y-100341142D01*
X209088571Y-100369714D01*
X209174285Y-100426857D01*
X209288571Y-100455428D01*
X209517142Y-100455428D01*
X209574285Y-100426857D01*
X209602857Y-100398285D01*
X209631428Y-100341142D01*
X209631428Y-100226857D01*
X209602857Y-100169714D01*
X209574285Y-100141142D01*
X209517142Y-100112571D01*
X209374285Y-100112571D01*
X209317142Y-100141142D01*
X209288571Y-100169714D01*
X209260000Y-100226857D01*
X209260000Y-100341142D01*
X209288571Y-100398285D01*
X209317142Y-100426857D01*
X209374285Y-100455428D01*
X209548885Y-83285000D02*
X209577457Y-83313571D01*
X209606028Y-83399285D01*
X209606028Y-83456428D01*
X209577457Y-83542142D01*
X209520314Y-83599285D01*
X209463171Y-83627857D01*
X209348885Y-83656428D01*
X209263171Y-83656428D01*
X209148885Y-83627857D01*
X209091742Y-83599285D01*
X209034600Y-83542142D01*
X209006028Y-83456428D01*
X209006028Y-83399285D01*
X209034600Y-83313571D01*
X209063171Y-83285000D01*
X209006028Y-83085000D02*
X209006028Y-82685000D01*
X209606028Y-82942142D01*
X245578285Y-89000000D02*
X245606857Y-89028571D01*
X245635428Y-89114285D01*
X245635428Y-89171428D01*
X245606857Y-89257142D01*
X245549714Y-89314285D01*
X245492571Y-89342857D01*
X245378285Y-89371428D01*
X245292571Y-89371428D01*
X245178285Y-89342857D01*
X245121142Y-89314285D01*
X245064000Y-89257142D01*
X245035428Y-89171428D01*
X245035428Y-89114285D01*
X245064000Y-89028571D01*
X245092571Y-89000000D01*
X245292571Y-88657142D02*
X245264000Y-88714285D01*
X245235428Y-88742857D01*
X245178285Y-88771428D01*
X245149714Y-88771428D01*
X245092571Y-88742857D01*
X245064000Y-88714285D01*
X245035428Y-88657142D01*
X245035428Y-88542857D01*
X245064000Y-88485714D01*
X245092571Y-88457142D01*
X245149714Y-88428571D01*
X245178285Y-88428571D01*
X245235428Y-88457142D01*
X245264000Y-88485714D01*
X245292571Y-88542857D01*
X245292571Y-88657142D01*
X245321142Y-88714285D01*
X245349714Y-88742857D01*
X245406857Y-88771428D01*
X245521142Y-88771428D01*
X245578285Y-88742857D01*
X245606857Y-88714285D01*
X245635428Y-88657142D01*
X245635428Y-88542857D01*
X245606857Y-88485714D01*
X245578285Y-88457142D01*
X245521142Y-88428571D01*
X245406857Y-88428571D01*
X245349714Y-88457142D01*
X245321142Y-88485714D01*
X245292571Y-88542857D01*
D11*
X185867476Y-70173924D02*
X185867476Y-70821543D01*
X185905571Y-70897734D01*
X185943666Y-70935829D01*
X186019857Y-70973924D01*
X186172238Y-70973924D01*
X186248428Y-70935829D01*
X186286523Y-70897734D01*
X186324619Y-70821543D01*
X186324619Y-70173924D01*
X186629380Y-70173924D02*
X187124619Y-70173924D01*
X186857952Y-70478686D01*
X186972238Y-70478686D01*
X187048428Y-70516781D01*
X187086523Y-70554877D01*
X187124619Y-70631067D01*
X187124619Y-70821543D01*
X187086523Y-70897734D01*
X187048428Y-70935829D01*
X186972238Y-70973924D01*
X186743666Y-70973924D01*
X186667476Y-70935829D01*
X186629380Y-70897734D01*
X173805904Y-92494023D02*
X174453523Y-92494023D01*
X174529714Y-92455928D01*
X174567809Y-92417833D01*
X174605904Y-92341642D01*
X174605904Y-92189261D01*
X174567809Y-92113071D01*
X174529714Y-92074976D01*
X174453523Y-92036880D01*
X173805904Y-92036880D01*
X174072571Y-91313071D02*
X174605904Y-91313071D01*
X173767809Y-91503547D02*
X174339238Y-91694023D01*
X174339238Y-91198785D01*
X197681904Y-92494023D02*
X198329523Y-92494023D01*
X198405714Y-92455928D01*
X198443809Y-92417833D01*
X198481904Y-92341642D01*
X198481904Y-92189261D01*
X198443809Y-92113071D01*
X198405714Y-92074976D01*
X198329523Y-92036880D01*
X197681904Y-92036880D01*
X197681904Y-91274976D02*
X197681904Y-91655928D01*
X198062857Y-91694023D01*
X198024761Y-91655928D01*
X197986666Y-91579738D01*
X197986666Y-91389261D01*
X198024761Y-91313071D01*
X198062857Y-91274976D01*
X198139047Y-91236880D01*
X198329523Y-91236880D01*
X198405714Y-91274976D01*
X198443809Y-91313071D01*
X198481904Y-91389261D01*
X198481904Y-91579738D01*
X198443809Y-91655928D01*
X198405714Y-91694023D01*
X175412476Y-74967904D02*
X175412476Y-75615523D01*
X175450571Y-75691714D01*
X175488666Y-75729809D01*
X175564857Y-75767904D01*
X175717238Y-75767904D01*
X175793428Y-75729809D01*
X175831523Y-75691714D01*
X175869619Y-75615523D01*
X175869619Y-74967904D01*
X176174380Y-74967904D02*
X176707714Y-74967904D01*
X176364857Y-75767904D01*
M02*
