G04 #@! TF.GenerationSoftware,KiCad,Pcbnew,(5.1.2-1)-1*
G04 #@! TF.CreationDate,2019-05-25T19:46:16+01:00*
G04 #@! TF.ProjectId,SRAM Board 2MB,5352414d-2042-46f6-9172-6420324d422e,rev?*
G04 #@! TF.SameCoordinates,Original*
G04 #@! TF.FileFunction,Copper,L2,Bot*
G04 #@! TF.FilePolarity,Positive*
%FSLAX46Y46*%
G04 Gerber Fmt 4.6, Leading zero omitted, Abs format (unit mm)*
G04 Created by KiCad (PCBNEW (5.1.2-1)-1) date 2019-05-25 19:46:16*
%MOMM*%
%LPD*%
G04 APERTURE LIST*
%ADD10C,0.100000*%
%ADD11C,1.600000*%
%ADD12O,2.400000X1.600000*%
%ADD13R,2.400000X1.600000*%
%ADD14C,0.800000*%
%ADD15C,0.250000*%
G04 APERTURE END LIST*
D10*
G36*
X151241603Y-96482963D02*
G01*
X151261018Y-96485843D01*
X151280057Y-96490612D01*
X151298537Y-96497224D01*
X151316279Y-96505616D01*
X151333114Y-96515706D01*
X151348879Y-96527398D01*
X151363421Y-96540579D01*
X151376602Y-96555121D01*
X151388294Y-96570886D01*
X151398384Y-96587721D01*
X151406776Y-96605463D01*
X151413388Y-96623943D01*
X151418157Y-96642982D01*
X151421037Y-96662397D01*
X151422000Y-96682000D01*
X151422000Y-97882000D01*
X151421037Y-97901603D01*
X151418157Y-97921018D01*
X151413388Y-97940057D01*
X151406776Y-97958537D01*
X151398384Y-97976279D01*
X151388294Y-97993114D01*
X151376602Y-98008879D01*
X151363421Y-98023421D01*
X151348879Y-98036602D01*
X151333114Y-98048294D01*
X151316279Y-98058384D01*
X151298537Y-98066776D01*
X151280057Y-98073388D01*
X151261018Y-98078157D01*
X151241603Y-98081037D01*
X151222000Y-98082000D01*
X150022000Y-98082000D01*
X150002397Y-98081037D01*
X149982982Y-98078157D01*
X149963943Y-98073388D01*
X149945463Y-98066776D01*
X149927721Y-98058384D01*
X149910886Y-98048294D01*
X149895121Y-98036602D01*
X149880579Y-98023421D01*
X149867398Y-98008879D01*
X149855706Y-97993114D01*
X149845616Y-97976279D01*
X149837224Y-97958537D01*
X149830612Y-97940057D01*
X149825843Y-97921018D01*
X149822963Y-97901603D01*
X149822000Y-97882000D01*
X149822000Y-96682000D01*
X149822963Y-96662397D01*
X149825843Y-96642982D01*
X149830612Y-96623943D01*
X149837224Y-96605463D01*
X149845616Y-96587721D01*
X149855706Y-96570886D01*
X149867398Y-96555121D01*
X149880579Y-96540579D01*
X149895121Y-96527398D01*
X149910886Y-96515706D01*
X149927721Y-96505616D01*
X149945463Y-96497224D01*
X149963943Y-96490612D01*
X149982982Y-96485843D01*
X150002397Y-96482963D01*
X150022000Y-96482000D01*
X151222000Y-96482000D01*
X151241603Y-96482963D01*
X151241603Y-96482963D01*
G37*
D11*
X150622000Y-97282000D03*
D10*
G36*
X151241603Y-93942963D02*
G01*
X151261018Y-93945843D01*
X151280057Y-93950612D01*
X151298537Y-93957224D01*
X151316279Y-93965616D01*
X151333114Y-93975706D01*
X151348879Y-93987398D01*
X151363421Y-94000579D01*
X151376602Y-94015121D01*
X151388294Y-94030886D01*
X151398384Y-94047721D01*
X151406776Y-94065463D01*
X151413388Y-94083943D01*
X151418157Y-94102982D01*
X151421037Y-94122397D01*
X151422000Y-94142000D01*
X151422000Y-95342000D01*
X151421037Y-95361603D01*
X151418157Y-95381018D01*
X151413388Y-95400057D01*
X151406776Y-95418537D01*
X151398384Y-95436279D01*
X151388294Y-95453114D01*
X151376602Y-95468879D01*
X151363421Y-95483421D01*
X151348879Y-95496602D01*
X151333114Y-95508294D01*
X151316279Y-95518384D01*
X151298537Y-95526776D01*
X151280057Y-95533388D01*
X151261018Y-95538157D01*
X151241603Y-95541037D01*
X151222000Y-95542000D01*
X150022000Y-95542000D01*
X150002397Y-95541037D01*
X149982982Y-95538157D01*
X149963943Y-95533388D01*
X149945463Y-95526776D01*
X149927721Y-95518384D01*
X149910886Y-95508294D01*
X149895121Y-95496602D01*
X149880579Y-95483421D01*
X149867398Y-95468879D01*
X149855706Y-95453114D01*
X149845616Y-95436279D01*
X149837224Y-95418537D01*
X149830612Y-95400057D01*
X149825843Y-95381018D01*
X149822963Y-95361603D01*
X149822000Y-95342000D01*
X149822000Y-94142000D01*
X149822963Y-94122397D01*
X149825843Y-94102982D01*
X149830612Y-94083943D01*
X149837224Y-94065463D01*
X149845616Y-94047721D01*
X149855706Y-94030886D01*
X149867398Y-94015121D01*
X149880579Y-94000579D01*
X149895121Y-93987398D01*
X149910886Y-93975706D01*
X149927721Y-93965616D01*
X149945463Y-93957224D01*
X149963943Y-93950612D01*
X149982982Y-93945843D01*
X150002397Y-93942963D01*
X150022000Y-93942000D01*
X151222000Y-93942000D01*
X151241603Y-93942963D01*
X151241603Y-93942963D01*
G37*
D11*
X150622000Y-94742000D03*
D10*
G36*
X151241603Y-91402963D02*
G01*
X151261018Y-91405843D01*
X151280057Y-91410612D01*
X151298537Y-91417224D01*
X151316279Y-91425616D01*
X151333114Y-91435706D01*
X151348879Y-91447398D01*
X151363421Y-91460579D01*
X151376602Y-91475121D01*
X151388294Y-91490886D01*
X151398384Y-91507721D01*
X151406776Y-91525463D01*
X151413388Y-91543943D01*
X151418157Y-91562982D01*
X151421037Y-91582397D01*
X151422000Y-91602000D01*
X151422000Y-92802000D01*
X151421037Y-92821603D01*
X151418157Y-92841018D01*
X151413388Y-92860057D01*
X151406776Y-92878537D01*
X151398384Y-92896279D01*
X151388294Y-92913114D01*
X151376602Y-92928879D01*
X151363421Y-92943421D01*
X151348879Y-92956602D01*
X151333114Y-92968294D01*
X151316279Y-92978384D01*
X151298537Y-92986776D01*
X151280057Y-92993388D01*
X151261018Y-92998157D01*
X151241603Y-93001037D01*
X151222000Y-93002000D01*
X150022000Y-93002000D01*
X150002397Y-93001037D01*
X149982982Y-92998157D01*
X149963943Y-92993388D01*
X149945463Y-92986776D01*
X149927721Y-92978384D01*
X149910886Y-92968294D01*
X149895121Y-92956602D01*
X149880579Y-92943421D01*
X149867398Y-92928879D01*
X149855706Y-92913114D01*
X149845616Y-92896279D01*
X149837224Y-92878537D01*
X149830612Y-92860057D01*
X149825843Y-92841018D01*
X149822963Y-92821603D01*
X149822000Y-92802000D01*
X149822000Y-91602000D01*
X149822963Y-91582397D01*
X149825843Y-91562982D01*
X149830612Y-91543943D01*
X149837224Y-91525463D01*
X149845616Y-91507721D01*
X149855706Y-91490886D01*
X149867398Y-91475121D01*
X149880579Y-91460579D01*
X149895121Y-91447398D01*
X149910886Y-91435706D01*
X149927721Y-91425616D01*
X149945463Y-91417224D01*
X149963943Y-91410612D01*
X149982982Y-91405843D01*
X150002397Y-91402963D01*
X150022000Y-91402000D01*
X151222000Y-91402000D01*
X151241603Y-91402963D01*
X151241603Y-91402963D01*
G37*
D11*
X150622000Y-92202000D03*
D10*
G36*
X151241603Y-88862963D02*
G01*
X151261018Y-88865843D01*
X151280057Y-88870612D01*
X151298537Y-88877224D01*
X151316279Y-88885616D01*
X151333114Y-88895706D01*
X151348879Y-88907398D01*
X151363421Y-88920579D01*
X151376602Y-88935121D01*
X151388294Y-88950886D01*
X151398384Y-88967721D01*
X151406776Y-88985463D01*
X151413388Y-89003943D01*
X151418157Y-89022982D01*
X151421037Y-89042397D01*
X151422000Y-89062000D01*
X151422000Y-90262000D01*
X151421037Y-90281603D01*
X151418157Y-90301018D01*
X151413388Y-90320057D01*
X151406776Y-90338537D01*
X151398384Y-90356279D01*
X151388294Y-90373114D01*
X151376602Y-90388879D01*
X151363421Y-90403421D01*
X151348879Y-90416602D01*
X151333114Y-90428294D01*
X151316279Y-90438384D01*
X151298537Y-90446776D01*
X151280057Y-90453388D01*
X151261018Y-90458157D01*
X151241603Y-90461037D01*
X151222000Y-90462000D01*
X150022000Y-90462000D01*
X150002397Y-90461037D01*
X149982982Y-90458157D01*
X149963943Y-90453388D01*
X149945463Y-90446776D01*
X149927721Y-90438384D01*
X149910886Y-90428294D01*
X149895121Y-90416602D01*
X149880579Y-90403421D01*
X149867398Y-90388879D01*
X149855706Y-90373114D01*
X149845616Y-90356279D01*
X149837224Y-90338537D01*
X149830612Y-90320057D01*
X149825843Y-90301018D01*
X149822963Y-90281603D01*
X149822000Y-90262000D01*
X149822000Y-89062000D01*
X149822963Y-89042397D01*
X149825843Y-89022982D01*
X149830612Y-89003943D01*
X149837224Y-88985463D01*
X149845616Y-88967721D01*
X149855706Y-88950886D01*
X149867398Y-88935121D01*
X149880579Y-88920579D01*
X149895121Y-88907398D01*
X149910886Y-88895706D01*
X149927721Y-88885616D01*
X149945463Y-88877224D01*
X149963943Y-88870612D01*
X149982982Y-88865843D01*
X150002397Y-88862963D01*
X150022000Y-88862000D01*
X151222000Y-88862000D01*
X151241603Y-88862963D01*
X151241603Y-88862963D01*
G37*
D11*
X150622000Y-89662000D03*
D10*
G36*
X151241603Y-86322963D02*
G01*
X151261018Y-86325843D01*
X151280057Y-86330612D01*
X151298537Y-86337224D01*
X151316279Y-86345616D01*
X151333114Y-86355706D01*
X151348879Y-86367398D01*
X151363421Y-86380579D01*
X151376602Y-86395121D01*
X151388294Y-86410886D01*
X151398384Y-86427721D01*
X151406776Y-86445463D01*
X151413388Y-86463943D01*
X151418157Y-86482982D01*
X151421037Y-86502397D01*
X151422000Y-86522000D01*
X151422000Y-87722000D01*
X151421037Y-87741603D01*
X151418157Y-87761018D01*
X151413388Y-87780057D01*
X151406776Y-87798537D01*
X151398384Y-87816279D01*
X151388294Y-87833114D01*
X151376602Y-87848879D01*
X151363421Y-87863421D01*
X151348879Y-87876602D01*
X151333114Y-87888294D01*
X151316279Y-87898384D01*
X151298537Y-87906776D01*
X151280057Y-87913388D01*
X151261018Y-87918157D01*
X151241603Y-87921037D01*
X151222000Y-87922000D01*
X150022000Y-87922000D01*
X150002397Y-87921037D01*
X149982982Y-87918157D01*
X149963943Y-87913388D01*
X149945463Y-87906776D01*
X149927721Y-87898384D01*
X149910886Y-87888294D01*
X149895121Y-87876602D01*
X149880579Y-87863421D01*
X149867398Y-87848879D01*
X149855706Y-87833114D01*
X149845616Y-87816279D01*
X149837224Y-87798537D01*
X149830612Y-87780057D01*
X149825843Y-87761018D01*
X149822963Y-87741603D01*
X149822000Y-87722000D01*
X149822000Y-86522000D01*
X149822963Y-86502397D01*
X149825843Y-86482982D01*
X149830612Y-86463943D01*
X149837224Y-86445463D01*
X149845616Y-86427721D01*
X149855706Y-86410886D01*
X149867398Y-86395121D01*
X149880579Y-86380579D01*
X149895121Y-86367398D01*
X149910886Y-86355706D01*
X149927721Y-86345616D01*
X149945463Y-86337224D01*
X149963943Y-86330612D01*
X149982982Y-86325843D01*
X150002397Y-86322963D01*
X150022000Y-86322000D01*
X151222000Y-86322000D01*
X151241603Y-86322963D01*
X151241603Y-86322963D01*
G37*
D11*
X150622000Y-87122000D03*
D10*
G36*
X155051603Y-81242963D02*
G01*
X155071018Y-81245843D01*
X155090057Y-81250612D01*
X155108537Y-81257224D01*
X155126279Y-81265616D01*
X155143114Y-81275706D01*
X155158879Y-81287398D01*
X155173421Y-81300579D01*
X155186602Y-81315121D01*
X155198294Y-81330886D01*
X155208384Y-81347721D01*
X155216776Y-81365463D01*
X155223388Y-81383943D01*
X155228157Y-81402982D01*
X155231037Y-81422397D01*
X155232000Y-81442000D01*
X155232000Y-82642000D01*
X155231037Y-82661603D01*
X155228157Y-82681018D01*
X155223388Y-82700057D01*
X155216776Y-82718537D01*
X155208384Y-82736279D01*
X155198294Y-82753114D01*
X155186602Y-82768879D01*
X155173421Y-82783421D01*
X155158879Y-82796602D01*
X155143114Y-82808294D01*
X155126279Y-82818384D01*
X155108537Y-82826776D01*
X155090057Y-82833388D01*
X155071018Y-82838157D01*
X155051603Y-82841037D01*
X155032000Y-82842000D01*
X153832000Y-82842000D01*
X153812397Y-82841037D01*
X153792982Y-82838157D01*
X153773943Y-82833388D01*
X153755463Y-82826776D01*
X153737721Y-82818384D01*
X153720886Y-82808294D01*
X153705121Y-82796602D01*
X153690579Y-82783421D01*
X153677398Y-82768879D01*
X153665706Y-82753114D01*
X153655616Y-82736279D01*
X153647224Y-82718537D01*
X153640612Y-82700057D01*
X153635843Y-82681018D01*
X153632963Y-82661603D01*
X153632000Y-82642000D01*
X153632000Y-81442000D01*
X153632963Y-81422397D01*
X153635843Y-81402982D01*
X153640612Y-81383943D01*
X153647224Y-81365463D01*
X153655616Y-81347721D01*
X153665706Y-81330886D01*
X153677398Y-81315121D01*
X153690579Y-81300579D01*
X153705121Y-81287398D01*
X153720886Y-81275706D01*
X153737721Y-81265616D01*
X153755463Y-81257224D01*
X153773943Y-81250612D01*
X153792982Y-81245843D01*
X153812397Y-81242963D01*
X153832000Y-81242000D01*
X155032000Y-81242000D01*
X155051603Y-81242963D01*
X155051603Y-81242963D01*
G37*
D11*
X154432000Y-82042000D03*
D10*
G36*
X151241603Y-81242963D02*
G01*
X151261018Y-81245843D01*
X151280057Y-81250612D01*
X151298537Y-81257224D01*
X151316279Y-81265616D01*
X151333114Y-81275706D01*
X151348879Y-81287398D01*
X151363421Y-81300579D01*
X151376602Y-81315121D01*
X151388294Y-81330886D01*
X151398384Y-81347721D01*
X151406776Y-81365463D01*
X151413388Y-81383943D01*
X151418157Y-81402982D01*
X151421037Y-81422397D01*
X151422000Y-81442000D01*
X151422000Y-82642000D01*
X151421037Y-82661603D01*
X151418157Y-82681018D01*
X151413388Y-82700057D01*
X151406776Y-82718537D01*
X151398384Y-82736279D01*
X151388294Y-82753114D01*
X151376602Y-82768879D01*
X151363421Y-82783421D01*
X151348879Y-82796602D01*
X151333114Y-82808294D01*
X151316279Y-82818384D01*
X151298537Y-82826776D01*
X151280057Y-82833388D01*
X151261018Y-82838157D01*
X151241603Y-82841037D01*
X151222000Y-82842000D01*
X150022000Y-82842000D01*
X150002397Y-82841037D01*
X149982982Y-82838157D01*
X149963943Y-82833388D01*
X149945463Y-82826776D01*
X149927721Y-82818384D01*
X149910886Y-82808294D01*
X149895121Y-82796602D01*
X149880579Y-82783421D01*
X149867398Y-82768879D01*
X149855706Y-82753114D01*
X149845616Y-82736279D01*
X149837224Y-82718537D01*
X149830612Y-82700057D01*
X149825843Y-82681018D01*
X149822963Y-82661603D01*
X149822000Y-82642000D01*
X149822000Y-81442000D01*
X149822963Y-81422397D01*
X149825843Y-81402982D01*
X149830612Y-81383943D01*
X149837224Y-81365463D01*
X149845616Y-81347721D01*
X149855706Y-81330886D01*
X149867398Y-81315121D01*
X149880579Y-81300579D01*
X149895121Y-81287398D01*
X149910886Y-81275706D01*
X149927721Y-81265616D01*
X149945463Y-81257224D01*
X149963943Y-81250612D01*
X149982982Y-81245843D01*
X150002397Y-81242963D01*
X150022000Y-81242000D01*
X151222000Y-81242000D01*
X151241603Y-81242963D01*
X151241603Y-81242963D01*
G37*
D11*
X150622000Y-82042000D03*
D10*
G36*
X227187603Y-78702963D02*
G01*
X227207018Y-78705843D01*
X227226057Y-78710612D01*
X227244537Y-78717224D01*
X227262279Y-78725616D01*
X227279114Y-78735706D01*
X227294879Y-78747398D01*
X227309421Y-78760579D01*
X227322602Y-78775121D01*
X227334294Y-78790886D01*
X227344384Y-78807721D01*
X227352776Y-78825463D01*
X227359388Y-78843943D01*
X227364157Y-78862982D01*
X227367037Y-78882397D01*
X227368000Y-78902000D01*
X227368000Y-80102000D01*
X227367037Y-80121603D01*
X227364157Y-80141018D01*
X227359388Y-80160057D01*
X227352776Y-80178537D01*
X227344384Y-80196279D01*
X227334294Y-80213114D01*
X227322602Y-80228879D01*
X227309421Y-80243421D01*
X227294879Y-80256602D01*
X227279114Y-80268294D01*
X227262279Y-80278384D01*
X227244537Y-80286776D01*
X227226057Y-80293388D01*
X227207018Y-80298157D01*
X227187603Y-80301037D01*
X227168000Y-80302000D01*
X225968000Y-80302000D01*
X225948397Y-80301037D01*
X225928982Y-80298157D01*
X225909943Y-80293388D01*
X225891463Y-80286776D01*
X225873721Y-80278384D01*
X225856886Y-80268294D01*
X225841121Y-80256602D01*
X225826579Y-80243421D01*
X225813398Y-80228879D01*
X225801706Y-80213114D01*
X225791616Y-80196279D01*
X225783224Y-80178537D01*
X225776612Y-80160057D01*
X225771843Y-80141018D01*
X225768963Y-80121603D01*
X225768000Y-80102000D01*
X225768000Y-78902000D01*
X225768963Y-78882397D01*
X225771843Y-78862982D01*
X225776612Y-78843943D01*
X225783224Y-78825463D01*
X225791616Y-78807721D01*
X225801706Y-78790886D01*
X225813398Y-78775121D01*
X225826579Y-78760579D01*
X225841121Y-78747398D01*
X225856886Y-78735706D01*
X225873721Y-78725616D01*
X225891463Y-78717224D01*
X225909943Y-78710612D01*
X225928982Y-78705843D01*
X225948397Y-78702963D01*
X225968000Y-78702000D01*
X227168000Y-78702000D01*
X227187603Y-78702963D01*
X227187603Y-78702963D01*
G37*
D11*
X226568000Y-79502000D03*
D10*
G36*
X219567603Y-76162963D02*
G01*
X219587018Y-76165843D01*
X219606057Y-76170612D01*
X219624537Y-76177224D01*
X219642279Y-76185616D01*
X219659114Y-76195706D01*
X219674879Y-76207398D01*
X219689421Y-76220579D01*
X219702602Y-76235121D01*
X219714294Y-76250886D01*
X219724384Y-76267721D01*
X219732776Y-76285463D01*
X219739388Y-76303943D01*
X219744157Y-76322982D01*
X219747037Y-76342397D01*
X219748000Y-76362000D01*
X219748000Y-77562000D01*
X219747037Y-77581603D01*
X219744157Y-77601018D01*
X219739388Y-77620057D01*
X219732776Y-77638537D01*
X219724384Y-77656279D01*
X219714294Y-77673114D01*
X219702602Y-77688879D01*
X219689421Y-77703421D01*
X219674879Y-77716602D01*
X219659114Y-77728294D01*
X219642279Y-77738384D01*
X219624537Y-77746776D01*
X219606057Y-77753388D01*
X219587018Y-77758157D01*
X219567603Y-77761037D01*
X219548000Y-77762000D01*
X218348000Y-77762000D01*
X218328397Y-77761037D01*
X218308982Y-77758157D01*
X218289943Y-77753388D01*
X218271463Y-77746776D01*
X218253721Y-77738384D01*
X218236886Y-77728294D01*
X218221121Y-77716602D01*
X218206579Y-77703421D01*
X218193398Y-77688879D01*
X218181706Y-77673114D01*
X218171616Y-77656279D01*
X218163224Y-77638537D01*
X218156612Y-77620057D01*
X218151843Y-77601018D01*
X218148963Y-77581603D01*
X218148000Y-77562000D01*
X218148000Y-76362000D01*
X218148963Y-76342397D01*
X218151843Y-76322982D01*
X218156612Y-76303943D01*
X218163224Y-76285463D01*
X218171616Y-76267721D01*
X218181706Y-76250886D01*
X218193398Y-76235121D01*
X218206579Y-76220579D01*
X218221121Y-76207398D01*
X218236886Y-76195706D01*
X218253721Y-76185616D01*
X218271463Y-76177224D01*
X218289943Y-76170612D01*
X218308982Y-76165843D01*
X218328397Y-76162963D01*
X218348000Y-76162000D01*
X219548000Y-76162000D01*
X219567603Y-76162963D01*
X219567603Y-76162963D01*
G37*
D11*
X218948000Y-76962000D03*
D10*
G36*
X227187603Y-76162963D02*
G01*
X227207018Y-76165843D01*
X227226057Y-76170612D01*
X227244537Y-76177224D01*
X227262279Y-76185616D01*
X227279114Y-76195706D01*
X227294879Y-76207398D01*
X227309421Y-76220579D01*
X227322602Y-76235121D01*
X227334294Y-76250886D01*
X227344384Y-76267721D01*
X227352776Y-76285463D01*
X227359388Y-76303943D01*
X227364157Y-76322982D01*
X227367037Y-76342397D01*
X227368000Y-76362000D01*
X227368000Y-77562000D01*
X227367037Y-77581603D01*
X227364157Y-77601018D01*
X227359388Y-77620057D01*
X227352776Y-77638537D01*
X227344384Y-77656279D01*
X227334294Y-77673114D01*
X227322602Y-77688879D01*
X227309421Y-77703421D01*
X227294879Y-77716602D01*
X227279114Y-77728294D01*
X227262279Y-77738384D01*
X227244537Y-77746776D01*
X227226057Y-77753388D01*
X227207018Y-77758157D01*
X227187603Y-77761037D01*
X227168000Y-77762000D01*
X225968000Y-77762000D01*
X225948397Y-77761037D01*
X225928982Y-77758157D01*
X225909943Y-77753388D01*
X225891463Y-77746776D01*
X225873721Y-77738384D01*
X225856886Y-77728294D01*
X225841121Y-77716602D01*
X225826579Y-77703421D01*
X225813398Y-77688879D01*
X225801706Y-77673114D01*
X225791616Y-77656279D01*
X225783224Y-77638537D01*
X225776612Y-77620057D01*
X225771843Y-77601018D01*
X225768963Y-77581603D01*
X225768000Y-77562000D01*
X225768000Y-76362000D01*
X225768963Y-76342397D01*
X225771843Y-76322982D01*
X225776612Y-76303943D01*
X225783224Y-76285463D01*
X225791616Y-76267721D01*
X225801706Y-76250886D01*
X225813398Y-76235121D01*
X225826579Y-76220579D01*
X225841121Y-76207398D01*
X225856886Y-76195706D01*
X225873721Y-76185616D01*
X225891463Y-76177224D01*
X225909943Y-76170612D01*
X225928982Y-76165843D01*
X225948397Y-76162963D01*
X225968000Y-76162000D01*
X227168000Y-76162000D01*
X227187603Y-76162963D01*
X227187603Y-76162963D01*
G37*
D11*
X226568000Y-76962000D03*
D10*
G36*
X219567603Y-73622963D02*
G01*
X219587018Y-73625843D01*
X219606057Y-73630612D01*
X219624537Y-73637224D01*
X219642279Y-73645616D01*
X219659114Y-73655706D01*
X219674879Y-73667398D01*
X219689421Y-73680579D01*
X219702602Y-73695121D01*
X219714294Y-73710886D01*
X219724384Y-73727721D01*
X219732776Y-73745463D01*
X219739388Y-73763943D01*
X219744157Y-73782982D01*
X219747037Y-73802397D01*
X219748000Y-73822000D01*
X219748000Y-75022000D01*
X219747037Y-75041603D01*
X219744157Y-75061018D01*
X219739388Y-75080057D01*
X219732776Y-75098537D01*
X219724384Y-75116279D01*
X219714294Y-75133114D01*
X219702602Y-75148879D01*
X219689421Y-75163421D01*
X219674879Y-75176602D01*
X219659114Y-75188294D01*
X219642279Y-75198384D01*
X219624537Y-75206776D01*
X219606057Y-75213388D01*
X219587018Y-75218157D01*
X219567603Y-75221037D01*
X219548000Y-75222000D01*
X218348000Y-75222000D01*
X218328397Y-75221037D01*
X218308982Y-75218157D01*
X218289943Y-75213388D01*
X218271463Y-75206776D01*
X218253721Y-75198384D01*
X218236886Y-75188294D01*
X218221121Y-75176602D01*
X218206579Y-75163421D01*
X218193398Y-75148879D01*
X218181706Y-75133114D01*
X218171616Y-75116279D01*
X218163224Y-75098537D01*
X218156612Y-75080057D01*
X218151843Y-75061018D01*
X218148963Y-75041603D01*
X218148000Y-75022000D01*
X218148000Y-73822000D01*
X218148963Y-73802397D01*
X218151843Y-73782982D01*
X218156612Y-73763943D01*
X218163224Y-73745463D01*
X218171616Y-73727721D01*
X218181706Y-73710886D01*
X218193398Y-73695121D01*
X218206579Y-73680579D01*
X218221121Y-73667398D01*
X218236886Y-73655706D01*
X218253721Y-73645616D01*
X218271463Y-73637224D01*
X218289943Y-73630612D01*
X218308982Y-73625843D01*
X218328397Y-73622963D01*
X218348000Y-73622000D01*
X219548000Y-73622000D01*
X219567603Y-73622963D01*
X219567603Y-73622963D01*
G37*
D11*
X218948000Y-74422000D03*
D10*
G36*
X213344603Y-78702963D02*
G01*
X213364018Y-78705843D01*
X213383057Y-78710612D01*
X213401537Y-78717224D01*
X213419279Y-78725616D01*
X213436114Y-78735706D01*
X213451879Y-78747398D01*
X213466421Y-78760579D01*
X213479602Y-78775121D01*
X213491294Y-78790886D01*
X213501384Y-78807721D01*
X213509776Y-78825463D01*
X213516388Y-78843943D01*
X213521157Y-78862982D01*
X213524037Y-78882397D01*
X213525000Y-78902000D01*
X213525000Y-80102000D01*
X213524037Y-80121603D01*
X213521157Y-80141018D01*
X213516388Y-80160057D01*
X213509776Y-80178537D01*
X213501384Y-80196279D01*
X213491294Y-80213114D01*
X213479602Y-80228879D01*
X213466421Y-80243421D01*
X213451879Y-80256602D01*
X213436114Y-80268294D01*
X213419279Y-80278384D01*
X213401537Y-80286776D01*
X213383057Y-80293388D01*
X213364018Y-80298157D01*
X213344603Y-80301037D01*
X213325000Y-80302000D01*
X212125000Y-80302000D01*
X212105397Y-80301037D01*
X212085982Y-80298157D01*
X212066943Y-80293388D01*
X212048463Y-80286776D01*
X212030721Y-80278384D01*
X212013886Y-80268294D01*
X211998121Y-80256602D01*
X211983579Y-80243421D01*
X211970398Y-80228879D01*
X211958706Y-80213114D01*
X211948616Y-80196279D01*
X211940224Y-80178537D01*
X211933612Y-80160057D01*
X211928843Y-80141018D01*
X211925963Y-80121603D01*
X211925000Y-80102000D01*
X211925000Y-78902000D01*
X211925963Y-78882397D01*
X211928843Y-78862982D01*
X211933612Y-78843943D01*
X211940224Y-78825463D01*
X211948616Y-78807721D01*
X211958706Y-78790886D01*
X211970398Y-78775121D01*
X211983579Y-78760579D01*
X211998121Y-78747398D01*
X212013886Y-78735706D01*
X212030721Y-78725616D01*
X212048463Y-78717224D01*
X212066943Y-78710612D01*
X212085982Y-78705843D01*
X212105397Y-78702963D01*
X212125000Y-78702000D01*
X213325000Y-78702000D01*
X213344603Y-78702963D01*
X213344603Y-78702963D01*
G37*
D11*
X212725000Y-79502000D03*
D10*
G36*
X205724603Y-76162963D02*
G01*
X205744018Y-76165843D01*
X205763057Y-76170612D01*
X205781537Y-76177224D01*
X205799279Y-76185616D01*
X205816114Y-76195706D01*
X205831879Y-76207398D01*
X205846421Y-76220579D01*
X205859602Y-76235121D01*
X205871294Y-76250886D01*
X205881384Y-76267721D01*
X205889776Y-76285463D01*
X205896388Y-76303943D01*
X205901157Y-76322982D01*
X205904037Y-76342397D01*
X205905000Y-76362000D01*
X205905000Y-77562000D01*
X205904037Y-77581603D01*
X205901157Y-77601018D01*
X205896388Y-77620057D01*
X205889776Y-77638537D01*
X205881384Y-77656279D01*
X205871294Y-77673114D01*
X205859602Y-77688879D01*
X205846421Y-77703421D01*
X205831879Y-77716602D01*
X205816114Y-77728294D01*
X205799279Y-77738384D01*
X205781537Y-77746776D01*
X205763057Y-77753388D01*
X205744018Y-77758157D01*
X205724603Y-77761037D01*
X205705000Y-77762000D01*
X204505000Y-77762000D01*
X204485397Y-77761037D01*
X204465982Y-77758157D01*
X204446943Y-77753388D01*
X204428463Y-77746776D01*
X204410721Y-77738384D01*
X204393886Y-77728294D01*
X204378121Y-77716602D01*
X204363579Y-77703421D01*
X204350398Y-77688879D01*
X204338706Y-77673114D01*
X204328616Y-77656279D01*
X204320224Y-77638537D01*
X204313612Y-77620057D01*
X204308843Y-77601018D01*
X204305963Y-77581603D01*
X204305000Y-77562000D01*
X204305000Y-76362000D01*
X204305963Y-76342397D01*
X204308843Y-76322982D01*
X204313612Y-76303943D01*
X204320224Y-76285463D01*
X204328616Y-76267721D01*
X204338706Y-76250886D01*
X204350398Y-76235121D01*
X204363579Y-76220579D01*
X204378121Y-76207398D01*
X204393886Y-76195706D01*
X204410721Y-76185616D01*
X204428463Y-76177224D01*
X204446943Y-76170612D01*
X204465982Y-76165843D01*
X204485397Y-76162963D01*
X204505000Y-76162000D01*
X205705000Y-76162000D01*
X205724603Y-76162963D01*
X205724603Y-76162963D01*
G37*
D11*
X205105000Y-76962000D03*
D10*
G36*
X213344603Y-76162963D02*
G01*
X213364018Y-76165843D01*
X213383057Y-76170612D01*
X213401537Y-76177224D01*
X213419279Y-76185616D01*
X213436114Y-76195706D01*
X213451879Y-76207398D01*
X213466421Y-76220579D01*
X213479602Y-76235121D01*
X213491294Y-76250886D01*
X213501384Y-76267721D01*
X213509776Y-76285463D01*
X213516388Y-76303943D01*
X213521157Y-76322982D01*
X213524037Y-76342397D01*
X213525000Y-76362000D01*
X213525000Y-77562000D01*
X213524037Y-77581603D01*
X213521157Y-77601018D01*
X213516388Y-77620057D01*
X213509776Y-77638537D01*
X213501384Y-77656279D01*
X213491294Y-77673114D01*
X213479602Y-77688879D01*
X213466421Y-77703421D01*
X213451879Y-77716602D01*
X213436114Y-77728294D01*
X213419279Y-77738384D01*
X213401537Y-77746776D01*
X213383057Y-77753388D01*
X213364018Y-77758157D01*
X213344603Y-77761037D01*
X213325000Y-77762000D01*
X212125000Y-77762000D01*
X212105397Y-77761037D01*
X212085982Y-77758157D01*
X212066943Y-77753388D01*
X212048463Y-77746776D01*
X212030721Y-77738384D01*
X212013886Y-77728294D01*
X211998121Y-77716602D01*
X211983579Y-77703421D01*
X211970398Y-77688879D01*
X211958706Y-77673114D01*
X211948616Y-77656279D01*
X211940224Y-77638537D01*
X211933612Y-77620057D01*
X211928843Y-77601018D01*
X211925963Y-77581603D01*
X211925000Y-77562000D01*
X211925000Y-76362000D01*
X211925963Y-76342397D01*
X211928843Y-76322982D01*
X211933612Y-76303943D01*
X211940224Y-76285463D01*
X211948616Y-76267721D01*
X211958706Y-76250886D01*
X211970398Y-76235121D01*
X211983579Y-76220579D01*
X211998121Y-76207398D01*
X212013886Y-76195706D01*
X212030721Y-76185616D01*
X212048463Y-76177224D01*
X212066943Y-76170612D01*
X212085982Y-76165843D01*
X212105397Y-76162963D01*
X212125000Y-76162000D01*
X213325000Y-76162000D01*
X213344603Y-76162963D01*
X213344603Y-76162963D01*
G37*
D11*
X212725000Y-76962000D03*
D10*
G36*
X205699603Y-73597563D02*
G01*
X205719018Y-73600443D01*
X205738057Y-73605212D01*
X205756537Y-73611824D01*
X205774279Y-73620216D01*
X205791114Y-73630306D01*
X205806879Y-73641998D01*
X205821421Y-73655179D01*
X205834602Y-73669721D01*
X205846294Y-73685486D01*
X205856384Y-73702321D01*
X205864776Y-73720063D01*
X205871388Y-73738543D01*
X205876157Y-73757582D01*
X205879037Y-73776997D01*
X205880000Y-73796600D01*
X205880000Y-74996600D01*
X205879037Y-75016203D01*
X205876157Y-75035618D01*
X205871388Y-75054657D01*
X205864776Y-75073137D01*
X205856384Y-75090879D01*
X205846294Y-75107714D01*
X205834602Y-75123479D01*
X205821421Y-75138021D01*
X205806879Y-75151202D01*
X205791114Y-75162894D01*
X205774279Y-75172984D01*
X205756537Y-75181376D01*
X205738057Y-75187988D01*
X205719018Y-75192757D01*
X205699603Y-75195637D01*
X205680000Y-75196600D01*
X204480000Y-75196600D01*
X204460397Y-75195637D01*
X204440982Y-75192757D01*
X204421943Y-75187988D01*
X204403463Y-75181376D01*
X204385721Y-75172984D01*
X204368886Y-75162894D01*
X204353121Y-75151202D01*
X204338579Y-75138021D01*
X204325398Y-75123479D01*
X204313706Y-75107714D01*
X204303616Y-75090879D01*
X204295224Y-75073137D01*
X204288612Y-75054657D01*
X204283843Y-75035618D01*
X204280963Y-75016203D01*
X204280000Y-74996600D01*
X204280000Y-73796600D01*
X204280963Y-73776997D01*
X204283843Y-73757582D01*
X204288612Y-73738543D01*
X204295224Y-73720063D01*
X204303616Y-73702321D01*
X204313706Y-73685486D01*
X204325398Y-73669721D01*
X204338579Y-73655179D01*
X204353121Y-73641998D01*
X204368886Y-73630306D01*
X204385721Y-73620216D01*
X204403463Y-73611824D01*
X204421943Y-73605212D01*
X204440982Y-73600443D01*
X204460397Y-73597563D01*
X204480000Y-73596600D01*
X205680000Y-73596600D01*
X205699603Y-73597563D01*
X205699603Y-73597563D01*
G37*
D11*
X205080000Y-74396600D03*
D10*
G36*
X176641603Y-78702963D02*
G01*
X176661018Y-78705843D01*
X176680057Y-78710612D01*
X176698537Y-78717224D01*
X176716279Y-78725616D01*
X176733114Y-78735706D01*
X176748879Y-78747398D01*
X176763421Y-78760579D01*
X176776602Y-78775121D01*
X176788294Y-78790886D01*
X176798384Y-78807721D01*
X176806776Y-78825463D01*
X176813388Y-78843943D01*
X176818157Y-78862982D01*
X176821037Y-78882397D01*
X176822000Y-78902000D01*
X176822000Y-80102000D01*
X176821037Y-80121603D01*
X176818157Y-80141018D01*
X176813388Y-80160057D01*
X176806776Y-80178537D01*
X176798384Y-80196279D01*
X176788294Y-80213114D01*
X176776602Y-80228879D01*
X176763421Y-80243421D01*
X176748879Y-80256602D01*
X176733114Y-80268294D01*
X176716279Y-80278384D01*
X176698537Y-80286776D01*
X176680057Y-80293388D01*
X176661018Y-80298157D01*
X176641603Y-80301037D01*
X176622000Y-80302000D01*
X175422000Y-80302000D01*
X175402397Y-80301037D01*
X175382982Y-80298157D01*
X175363943Y-80293388D01*
X175345463Y-80286776D01*
X175327721Y-80278384D01*
X175310886Y-80268294D01*
X175295121Y-80256602D01*
X175280579Y-80243421D01*
X175267398Y-80228879D01*
X175255706Y-80213114D01*
X175245616Y-80196279D01*
X175237224Y-80178537D01*
X175230612Y-80160057D01*
X175225843Y-80141018D01*
X175222963Y-80121603D01*
X175222000Y-80102000D01*
X175222000Y-78902000D01*
X175222963Y-78882397D01*
X175225843Y-78862982D01*
X175230612Y-78843943D01*
X175237224Y-78825463D01*
X175245616Y-78807721D01*
X175255706Y-78790886D01*
X175267398Y-78775121D01*
X175280579Y-78760579D01*
X175295121Y-78747398D01*
X175310886Y-78735706D01*
X175327721Y-78725616D01*
X175345463Y-78717224D01*
X175363943Y-78710612D01*
X175382982Y-78705843D01*
X175402397Y-78702963D01*
X175422000Y-78702000D01*
X176622000Y-78702000D01*
X176641603Y-78702963D01*
X176641603Y-78702963D01*
G37*
D11*
X176022000Y-79502000D03*
D10*
G36*
X169021603Y-76289963D02*
G01*
X169041018Y-76292843D01*
X169060057Y-76297612D01*
X169078537Y-76304224D01*
X169096279Y-76312616D01*
X169113114Y-76322706D01*
X169128879Y-76334398D01*
X169143421Y-76347579D01*
X169156602Y-76362121D01*
X169168294Y-76377886D01*
X169178384Y-76394721D01*
X169186776Y-76412463D01*
X169193388Y-76430943D01*
X169198157Y-76449982D01*
X169201037Y-76469397D01*
X169202000Y-76489000D01*
X169202000Y-77689000D01*
X169201037Y-77708603D01*
X169198157Y-77728018D01*
X169193388Y-77747057D01*
X169186776Y-77765537D01*
X169178384Y-77783279D01*
X169168294Y-77800114D01*
X169156602Y-77815879D01*
X169143421Y-77830421D01*
X169128879Y-77843602D01*
X169113114Y-77855294D01*
X169096279Y-77865384D01*
X169078537Y-77873776D01*
X169060057Y-77880388D01*
X169041018Y-77885157D01*
X169021603Y-77888037D01*
X169002000Y-77889000D01*
X167802000Y-77889000D01*
X167782397Y-77888037D01*
X167762982Y-77885157D01*
X167743943Y-77880388D01*
X167725463Y-77873776D01*
X167707721Y-77865384D01*
X167690886Y-77855294D01*
X167675121Y-77843602D01*
X167660579Y-77830421D01*
X167647398Y-77815879D01*
X167635706Y-77800114D01*
X167625616Y-77783279D01*
X167617224Y-77765537D01*
X167610612Y-77747057D01*
X167605843Y-77728018D01*
X167602963Y-77708603D01*
X167602000Y-77689000D01*
X167602000Y-76489000D01*
X167602963Y-76469397D01*
X167605843Y-76449982D01*
X167610612Y-76430943D01*
X167617224Y-76412463D01*
X167625616Y-76394721D01*
X167635706Y-76377886D01*
X167647398Y-76362121D01*
X167660579Y-76347579D01*
X167675121Y-76334398D01*
X167690886Y-76322706D01*
X167707721Y-76312616D01*
X167725463Y-76304224D01*
X167743943Y-76297612D01*
X167762982Y-76292843D01*
X167782397Y-76289963D01*
X167802000Y-76289000D01*
X169002000Y-76289000D01*
X169021603Y-76289963D01*
X169021603Y-76289963D01*
G37*
D11*
X168402000Y-77089000D03*
D10*
G36*
X176641603Y-76162963D02*
G01*
X176661018Y-76165843D01*
X176680057Y-76170612D01*
X176698537Y-76177224D01*
X176716279Y-76185616D01*
X176733114Y-76195706D01*
X176748879Y-76207398D01*
X176763421Y-76220579D01*
X176776602Y-76235121D01*
X176788294Y-76250886D01*
X176798384Y-76267721D01*
X176806776Y-76285463D01*
X176813388Y-76303943D01*
X176818157Y-76322982D01*
X176821037Y-76342397D01*
X176822000Y-76362000D01*
X176822000Y-77562000D01*
X176821037Y-77581603D01*
X176818157Y-77601018D01*
X176813388Y-77620057D01*
X176806776Y-77638537D01*
X176798384Y-77656279D01*
X176788294Y-77673114D01*
X176776602Y-77688879D01*
X176763421Y-77703421D01*
X176748879Y-77716602D01*
X176733114Y-77728294D01*
X176716279Y-77738384D01*
X176698537Y-77746776D01*
X176680057Y-77753388D01*
X176661018Y-77758157D01*
X176641603Y-77761037D01*
X176622000Y-77762000D01*
X175422000Y-77762000D01*
X175402397Y-77761037D01*
X175382982Y-77758157D01*
X175363943Y-77753388D01*
X175345463Y-77746776D01*
X175327721Y-77738384D01*
X175310886Y-77728294D01*
X175295121Y-77716602D01*
X175280579Y-77703421D01*
X175267398Y-77688879D01*
X175255706Y-77673114D01*
X175245616Y-77656279D01*
X175237224Y-77638537D01*
X175230612Y-77620057D01*
X175225843Y-77601018D01*
X175222963Y-77581603D01*
X175222000Y-77562000D01*
X175222000Y-76362000D01*
X175222963Y-76342397D01*
X175225843Y-76322982D01*
X175230612Y-76303943D01*
X175237224Y-76285463D01*
X175245616Y-76267721D01*
X175255706Y-76250886D01*
X175267398Y-76235121D01*
X175280579Y-76220579D01*
X175295121Y-76207398D01*
X175310886Y-76195706D01*
X175327721Y-76185616D01*
X175345463Y-76177224D01*
X175363943Y-76170612D01*
X175382982Y-76165843D01*
X175402397Y-76162963D01*
X175422000Y-76162000D01*
X176622000Y-76162000D01*
X176641603Y-76162963D01*
X176641603Y-76162963D01*
G37*
D11*
X176022000Y-76962000D03*
D10*
G36*
X169021603Y-73673963D02*
G01*
X169041018Y-73676843D01*
X169060057Y-73681612D01*
X169078537Y-73688224D01*
X169096279Y-73696616D01*
X169113114Y-73706706D01*
X169128879Y-73718398D01*
X169143421Y-73731579D01*
X169156602Y-73746121D01*
X169168294Y-73761886D01*
X169178384Y-73778721D01*
X169186776Y-73796463D01*
X169193388Y-73814943D01*
X169198157Y-73833982D01*
X169201037Y-73853397D01*
X169202000Y-73873000D01*
X169202000Y-75073000D01*
X169201037Y-75092603D01*
X169198157Y-75112018D01*
X169193388Y-75131057D01*
X169186776Y-75149537D01*
X169178384Y-75167279D01*
X169168294Y-75184114D01*
X169156602Y-75199879D01*
X169143421Y-75214421D01*
X169128879Y-75227602D01*
X169113114Y-75239294D01*
X169096279Y-75249384D01*
X169078537Y-75257776D01*
X169060057Y-75264388D01*
X169041018Y-75269157D01*
X169021603Y-75272037D01*
X169002000Y-75273000D01*
X167802000Y-75273000D01*
X167782397Y-75272037D01*
X167762982Y-75269157D01*
X167743943Y-75264388D01*
X167725463Y-75257776D01*
X167707721Y-75249384D01*
X167690886Y-75239294D01*
X167675121Y-75227602D01*
X167660579Y-75214421D01*
X167647398Y-75199879D01*
X167635706Y-75184114D01*
X167625616Y-75167279D01*
X167617224Y-75149537D01*
X167610612Y-75131057D01*
X167605843Y-75112018D01*
X167602963Y-75092603D01*
X167602000Y-75073000D01*
X167602000Y-73873000D01*
X167602963Y-73853397D01*
X167605843Y-73833982D01*
X167610612Y-73814943D01*
X167617224Y-73796463D01*
X167625616Y-73778721D01*
X167635706Y-73761886D01*
X167647398Y-73746121D01*
X167660579Y-73731579D01*
X167675121Y-73718398D01*
X167690886Y-73706706D01*
X167707721Y-73696616D01*
X167725463Y-73688224D01*
X167743943Y-73681612D01*
X167762982Y-73676843D01*
X167782397Y-73673963D01*
X167802000Y-73673000D01*
X169002000Y-73673000D01*
X169021603Y-73673963D01*
X169021603Y-73673963D01*
G37*
D11*
X168402000Y-74473000D03*
D10*
G36*
X151241603Y-78702963D02*
G01*
X151261018Y-78705843D01*
X151280057Y-78710612D01*
X151298537Y-78717224D01*
X151316279Y-78725616D01*
X151333114Y-78735706D01*
X151348879Y-78747398D01*
X151363421Y-78760579D01*
X151376602Y-78775121D01*
X151388294Y-78790886D01*
X151398384Y-78807721D01*
X151406776Y-78825463D01*
X151413388Y-78843943D01*
X151418157Y-78862982D01*
X151421037Y-78882397D01*
X151422000Y-78902000D01*
X151422000Y-80102000D01*
X151421037Y-80121603D01*
X151418157Y-80141018D01*
X151413388Y-80160057D01*
X151406776Y-80178537D01*
X151398384Y-80196279D01*
X151388294Y-80213114D01*
X151376602Y-80228879D01*
X151363421Y-80243421D01*
X151348879Y-80256602D01*
X151333114Y-80268294D01*
X151316279Y-80278384D01*
X151298537Y-80286776D01*
X151280057Y-80293388D01*
X151261018Y-80298157D01*
X151241603Y-80301037D01*
X151222000Y-80302000D01*
X150022000Y-80302000D01*
X150002397Y-80301037D01*
X149982982Y-80298157D01*
X149963943Y-80293388D01*
X149945463Y-80286776D01*
X149927721Y-80278384D01*
X149910886Y-80268294D01*
X149895121Y-80256602D01*
X149880579Y-80243421D01*
X149867398Y-80228879D01*
X149855706Y-80213114D01*
X149845616Y-80196279D01*
X149837224Y-80178537D01*
X149830612Y-80160057D01*
X149825843Y-80141018D01*
X149822963Y-80121603D01*
X149822000Y-80102000D01*
X149822000Y-78902000D01*
X149822963Y-78882397D01*
X149825843Y-78862982D01*
X149830612Y-78843943D01*
X149837224Y-78825463D01*
X149845616Y-78807721D01*
X149855706Y-78790886D01*
X149867398Y-78775121D01*
X149880579Y-78760579D01*
X149895121Y-78747398D01*
X149910886Y-78735706D01*
X149927721Y-78725616D01*
X149945463Y-78717224D01*
X149963943Y-78710612D01*
X149982982Y-78705843D01*
X150002397Y-78702963D01*
X150022000Y-78702000D01*
X151222000Y-78702000D01*
X151241603Y-78702963D01*
X151241603Y-78702963D01*
G37*
D11*
X150622000Y-79502000D03*
D10*
G36*
X143621603Y-76162963D02*
G01*
X143641018Y-76165843D01*
X143660057Y-76170612D01*
X143678537Y-76177224D01*
X143696279Y-76185616D01*
X143713114Y-76195706D01*
X143728879Y-76207398D01*
X143743421Y-76220579D01*
X143756602Y-76235121D01*
X143768294Y-76250886D01*
X143778384Y-76267721D01*
X143786776Y-76285463D01*
X143793388Y-76303943D01*
X143798157Y-76322982D01*
X143801037Y-76342397D01*
X143802000Y-76362000D01*
X143802000Y-77562000D01*
X143801037Y-77581603D01*
X143798157Y-77601018D01*
X143793388Y-77620057D01*
X143786776Y-77638537D01*
X143778384Y-77656279D01*
X143768294Y-77673114D01*
X143756602Y-77688879D01*
X143743421Y-77703421D01*
X143728879Y-77716602D01*
X143713114Y-77728294D01*
X143696279Y-77738384D01*
X143678537Y-77746776D01*
X143660057Y-77753388D01*
X143641018Y-77758157D01*
X143621603Y-77761037D01*
X143602000Y-77762000D01*
X142402000Y-77762000D01*
X142382397Y-77761037D01*
X142362982Y-77758157D01*
X142343943Y-77753388D01*
X142325463Y-77746776D01*
X142307721Y-77738384D01*
X142290886Y-77728294D01*
X142275121Y-77716602D01*
X142260579Y-77703421D01*
X142247398Y-77688879D01*
X142235706Y-77673114D01*
X142225616Y-77656279D01*
X142217224Y-77638537D01*
X142210612Y-77620057D01*
X142205843Y-77601018D01*
X142202963Y-77581603D01*
X142202000Y-77562000D01*
X142202000Y-76362000D01*
X142202963Y-76342397D01*
X142205843Y-76322982D01*
X142210612Y-76303943D01*
X142217224Y-76285463D01*
X142225616Y-76267721D01*
X142235706Y-76250886D01*
X142247398Y-76235121D01*
X142260579Y-76220579D01*
X142275121Y-76207398D01*
X142290886Y-76195706D01*
X142307721Y-76185616D01*
X142325463Y-76177224D01*
X142343943Y-76170612D01*
X142362982Y-76165843D01*
X142382397Y-76162963D01*
X142402000Y-76162000D01*
X143602000Y-76162000D01*
X143621603Y-76162963D01*
X143621603Y-76162963D01*
G37*
D11*
X143002000Y-76962000D03*
D10*
G36*
X151241603Y-76162963D02*
G01*
X151261018Y-76165843D01*
X151280057Y-76170612D01*
X151298537Y-76177224D01*
X151316279Y-76185616D01*
X151333114Y-76195706D01*
X151348879Y-76207398D01*
X151363421Y-76220579D01*
X151376602Y-76235121D01*
X151388294Y-76250886D01*
X151398384Y-76267721D01*
X151406776Y-76285463D01*
X151413388Y-76303943D01*
X151418157Y-76322982D01*
X151421037Y-76342397D01*
X151422000Y-76362000D01*
X151422000Y-77562000D01*
X151421037Y-77581603D01*
X151418157Y-77601018D01*
X151413388Y-77620057D01*
X151406776Y-77638537D01*
X151398384Y-77656279D01*
X151388294Y-77673114D01*
X151376602Y-77688879D01*
X151363421Y-77703421D01*
X151348879Y-77716602D01*
X151333114Y-77728294D01*
X151316279Y-77738384D01*
X151298537Y-77746776D01*
X151280057Y-77753388D01*
X151261018Y-77758157D01*
X151241603Y-77761037D01*
X151222000Y-77762000D01*
X150022000Y-77762000D01*
X150002397Y-77761037D01*
X149982982Y-77758157D01*
X149963943Y-77753388D01*
X149945463Y-77746776D01*
X149927721Y-77738384D01*
X149910886Y-77728294D01*
X149895121Y-77716602D01*
X149880579Y-77703421D01*
X149867398Y-77688879D01*
X149855706Y-77673114D01*
X149845616Y-77656279D01*
X149837224Y-77638537D01*
X149830612Y-77620057D01*
X149825843Y-77601018D01*
X149822963Y-77581603D01*
X149822000Y-77562000D01*
X149822000Y-76362000D01*
X149822963Y-76342397D01*
X149825843Y-76322982D01*
X149830612Y-76303943D01*
X149837224Y-76285463D01*
X149845616Y-76267721D01*
X149855706Y-76250886D01*
X149867398Y-76235121D01*
X149880579Y-76220579D01*
X149895121Y-76207398D01*
X149910886Y-76195706D01*
X149927721Y-76185616D01*
X149945463Y-76177224D01*
X149963943Y-76170612D01*
X149982982Y-76165843D01*
X150002397Y-76162963D01*
X150022000Y-76162000D01*
X151222000Y-76162000D01*
X151241603Y-76162963D01*
X151241603Y-76162963D01*
G37*
D11*
X150622000Y-76962000D03*
D10*
G36*
X143621603Y-73622963D02*
G01*
X143641018Y-73625843D01*
X143660057Y-73630612D01*
X143678537Y-73637224D01*
X143696279Y-73645616D01*
X143713114Y-73655706D01*
X143728879Y-73667398D01*
X143743421Y-73680579D01*
X143756602Y-73695121D01*
X143768294Y-73710886D01*
X143778384Y-73727721D01*
X143786776Y-73745463D01*
X143793388Y-73763943D01*
X143798157Y-73782982D01*
X143801037Y-73802397D01*
X143802000Y-73822000D01*
X143802000Y-75022000D01*
X143801037Y-75041603D01*
X143798157Y-75061018D01*
X143793388Y-75080057D01*
X143786776Y-75098537D01*
X143778384Y-75116279D01*
X143768294Y-75133114D01*
X143756602Y-75148879D01*
X143743421Y-75163421D01*
X143728879Y-75176602D01*
X143713114Y-75188294D01*
X143696279Y-75198384D01*
X143678537Y-75206776D01*
X143660057Y-75213388D01*
X143641018Y-75218157D01*
X143621603Y-75221037D01*
X143602000Y-75222000D01*
X142402000Y-75222000D01*
X142382397Y-75221037D01*
X142362982Y-75218157D01*
X142343943Y-75213388D01*
X142325463Y-75206776D01*
X142307721Y-75198384D01*
X142290886Y-75188294D01*
X142275121Y-75176602D01*
X142260579Y-75163421D01*
X142247398Y-75148879D01*
X142235706Y-75133114D01*
X142225616Y-75116279D01*
X142217224Y-75098537D01*
X142210612Y-75080057D01*
X142205843Y-75061018D01*
X142202963Y-75041603D01*
X142202000Y-75022000D01*
X142202000Y-73822000D01*
X142202963Y-73802397D01*
X142205843Y-73782982D01*
X142210612Y-73763943D01*
X142217224Y-73745463D01*
X142225616Y-73727721D01*
X142235706Y-73710886D01*
X142247398Y-73695121D01*
X142260579Y-73680579D01*
X142275121Y-73667398D01*
X142290886Y-73655706D01*
X142307721Y-73645616D01*
X142325463Y-73637224D01*
X142343943Y-73630612D01*
X142362982Y-73625843D01*
X142382397Y-73622963D01*
X142402000Y-73622000D01*
X143602000Y-73622000D01*
X143621603Y-73622963D01*
X143621603Y-73622963D01*
G37*
D11*
X143002000Y-74422000D03*
D10*
G36*
X143621603Y-81242963D02*
G01*
X143641018Y-81245843D01*
X143660057Y-81250612D01*
X143678537Y-81257224D01*
X143696279Y-81265616D01*
X143713114Y-81275706D01*
X143728879Y-81287398D01*
X143743421Y-81300579D01*
X143756602Y-81315121D01*
X143768294Y-81330886D01*
X143778384Y-81347721D01*
X143786776Y-81365463D01*
X143793388Y-81383943D01*
X143798157Y-81402982D01*
X143801037Y-81422397D01*
X143802000Y-81442000D01*
X143802000Y-82642000D01*
X143801037Y-82661603D01*
X143798157Y-82681018D01*
X143793388Y-82700057D01*
X143786776Y-82718537D01*
X143778384Y-82736279D01*
X143768294Y-82753114D01*
X143756602Y-82768879D01*
X143743421Y-82783421D01*
X143728879Y-82796602D01*
X143713114Y-82808294D01*
X143696279Y-82818384D01*
X143678537Y-82826776D01*
X143660057Y-82833388D01*
X143641018Y-82838157D01*
X143621603Y-82841037D01*
X143602000Y-82842000D01*
X142402000Y-82842000D01*
X142382397Y-82841037D01*
X142362982Y-82838157D01*
X142343943Y-82833388D01*
X142325463Y-82826776D01*
X142307721Y-82818384D01*
X142290886Y-82808294D01*
X142275121Y-82796602D01*
X142260579Y-82783421D01*
X142247398Y-82768879D01*
X142235706Y-82753114D01*
X142225616Y-82736279D01*
X142217224Y-82718537D01*
X142210612Y-82700057D01*
X142205843Y-82681018D01*
X142202963Y-82661603D01*
X142202000Y-82642000D01*
X142202000Y-81442000D01*
X142202963Y-81422397D01*
X142205843Y-81402982D01*
X142210612Y-81383943D01*
X142217224Y-81365463D01*
X142225616Y-81347721D01*
X142235706Y-81330886D01*
X142247398Y-81315121D01*
X142260579Y-81300579D01*
X142275121Y-81287398D01*
X142290886Y-81275706D01*
X142307721Y-81265616D01*
X142325463Y-81257224D01*
X142343943Y-81250612D01*
X142362982Y-81245843D01*
X142382397Y-81242963D01*
X142402000Y-81242000D01*
X143602000Y-81242000D01*
X143621603Y-81242963D01*
X143621603Y-81242963D01*
G37*
D11*
X143002000Y-82042000D03*
D10*
G36*
X143621603Y-96482963D02*
G01*
X143641018Y-96485843D01*
X143660057Y-96490612D01*
X143678537Y-96497224D01*
X143696279Y-96505616D01*
X143713114Y-96515706D01*
X143728879Y-96527398D01*
X143743421Y-96540579D01*
X143756602Y-96555121D01*
X143768294Y-96570886D01*
X143778384Y-96587721D01*
X143786776Y-96605463D01*
X143793388Y-96623943D01*
X143798157Y-96642982D01*
X143801037Y-96662397D01*
X143802000Y-96682000D01*
X143802000Y-97882000D01*
X143801037Y-97901603D01*
X143798157Y-97921018D01*
X143793388Y-97940057D01*
X143786776Y-97958537D01*
X143778384Y-97976279D01*
X143768294Y-97993114D01*
X143756602Y-98008879D01*
X143743421Y-98023421D01*
X143728879Y-98036602D01*
X143713114Y-98048294D01*
X143696279Y-98058384D01*
X143678537Y-98066776D01*
X143660057Y-98073388D01*
X143641018Y-98078157D01*
X143621603Y-98081037D01*
X143602000Y-98082000D01*
X142402000Y-98082000D01*
X142382397Y-98081037D01*
X142362982Y-98078157D01*
X142343943Y-98073388D01*
X142325463Y-98066776D01*
X142307721Y-98058384D01*
X142290886Y-98048294D01*
X142275121Y-98036602D01*
X142260579Y-98023421D01*
X142247398Y-98008879D01*
X142235706Y-97993114D01*
X142225616Y-97976279D01*
X142217224Y-97958537D01*
X142210612Y-97940057D01*
X142205843Y-97921018D01*
X142202963Y-97901603D01*
X142202000Y-97882000D01*
X142202000Y-96682000D01*
X142202963Y-96662397D01*
X142205843Y-96642982D01*
X142210612Y-96623943D01*
X142217224Y-96605463D01*
X142225616Y-96587721D01*
X142235706Y-96570886D01*
X142247398Y-96555121D01*
X142260579Y-96540579D01*
X142275121Y-96527398D01*
X142290886Y-96515706D01*
X142307721Y-96505616D01*
X142325463Y-96497224D01*
X142343943Y-96490612D01*
X142362982Y-96485843D01*
X142382397Y-96482963D01*
X142402000Y-96482000D01*
X143602000Y-96482000D01*
X143621603Y-96482963D01*
X143621603Y-96482963D01*
G37*
D11*
X143002000Y-97282000D03*
D10*
G36*
X151241603Y-73622963D02*
G01*
X151261018Y-73625843D01*
X151280057Y-73630612D01*
X151298537Y-73637224D01*
X151316279Y-73645616D01*
X151333114Y-73655706D01*
X151348879Y-73667398D01*
X151363421Y-73680579D01*
X151376602Y-73695121D01*
X151388294Y-73710886D01*
X151398384Y-73727721D01*
X151406776Y-73745463D01*
X151413388Y-73763943D01*
X151418157Y-73782982D01*
X151421037Y-73802397D01*
X151422000Y-73822000D01*
X151422000Y-75022000D01*
X151421037Y-75041603D01*
X151418157Y-75061018D01*
X151413388Y-75080057D01*
X151406776Y-75098537D01*
X151398384Y-75116279D01*
X151388294Y-75133114D01*
X151376602Y-75148879D01*
X151363421Y-75163421D01*
X151348879Y-75176602D01*
X151333114Y-75188294D01*
X151316279Y-75198384D01*
X151298537Y-75206776D01*
X151280057Y-75213388D01*
X151261018Y-75218157D01*
X151241603Y-75221037D01*
X151222000Y-75222000D01*
X150022000Y-75222000D01*
X150002397Y-75221037D01*
X149982982Y-75218157D01*
X149963943Y-75213388D01*
X149945463Y-75206776D01*
X149927721Y-75198384D01*
X149910886Y-75188294D01*
X149895121Y-75176602D01*
X149880579Y-75163421D01*
X149867398Y-75148879D01*
X149855706Y-75133114D01*
X149845616Y-75116279D01*
X149837224Y-75098537D01*
X149830612Y-75080057D01*
X149825843Y-75061018D01*
X149822963Y-75041603D01*
X149822000Y-75022000D01*
X149822000Y-73822000D01*
X149822963Y-73802397D01*
X149825843Y-73782982D01*
X149830612Y-73763943D01*
X149837224Y-73745463D01*
X149845616Y-73727721D01*
X149855706Y-73710886D01*
X149867398Y-73695121D01*
X149880579Y-73680579D01*
X149895121Y-73667398D01*
X149910886Y-73655706D01*
X149927721Y-73645616D01*
X149945463Y-73637224D01*
X149963943Y-73630612D01*
X149982982Y-73625843D01*
X150002397Y-73622963D01*
X150022000Y-73622000D01*
X151222000Y-73622000D01*
X151241603Y-73622963D01*
X151241603Y-73622963D01*
G37*
D11*
X150622000Y-74422000D03*
D10*
G36*
X227187603Y-81242963D02*
G01*
X227207018Y-81245843D01*
X227226057Y-81250612D01*
X227244537Y-81257224D01*
X227262279Y-81265616D01*
X227279114Y-81275706D01*
X227294879Y-81287398D01*
X227309421Y-81300579D01*
X227322602Y-81315121D01*
X227334294Y-81330886D01*
X227344384Y-81347721D01*
X227352776Y-81365463D01*
X227359388Y-81383943D01*
X227364157Y-81402982D01*
X227367037Y-81422397D01*
X227368000Y-81442000D01*
X227368000Y-82642000D01*
X227367037Y-82661603D01*
X227364157Y-82681018D01*
X227359388Y-82700057D01*
X227352776Y-82718537D01*
X227344384Y-82736279D01*
X227334294Y-82753114D01*
X227322602Y-82768879D01*
X227309421Y-82783421D01*
X227294879Y-82796602D01*
X227279114Y-82808294D01*
X227262279Y-82818384D01*
X227244537Y-82826776D01*
X227226057Y-82833388D01*
X227207018Y-82838157D01*
X227187603Y-82841037D01*
X227168000Y-82842000D01*
X225968000Y-82842000D01*
X225948397Y-82841037D01*
X225928982Y-82838157D01*
X225909943Y-82833388D01*
X225891463Y-82826776D01*
X225873721Y-82818384D01*
X225856886Y-82808294D01*
X225841121Y-82796602D01*
X225826579Y-82783421D01*
X225813398Y-82768879D01*
X225801706Y-82753114D01*
X225791616Y-82736279D01*
X225783224Y-82718537D01*
X225776612Y-82700057D01*
X225771843Y-82681018D01*
X225768963Y-82661603D01*
X225768000Y-82642000D01*
X225768000Y-81442000D01*
X225768963Y-81422397D01*
X225771843Y-81402982D01*
X225776612Y-81383943D01*
X225783224Y-81365463D01*
X225791616Y-81347721D01*
X225801706Y-81330886D01*
X225813398Y-81315121D01*
X225826579Y-81300579D01*
X225841121Y-81287398D01*
X225856886Y-81275706D01*
X225873721Y-81265616D01*
X225891463Y-81257224D01*
X225909943Y-81250612D01*
X225928982Y-81245843D01*
X225948397Y-81242963D01*
X225968000Y-81242000D01*
X227168000Y-81242000D01*
X227187603Y-81242963D01*
X227187603Y-81242963D01*
G37*
D11*
X226568000Y-82042000D03*
D10*
G36*
X143621603Y-78702963D02*
G01*
X143641018Y-78705843D01*
X143660057Y-78710612D01*
X143678537Y-78717224D01*
X143696279Y-78725616D01*
X143713114Y-78735706D01*
X143728879Y-78747398D01*
X143743421Y-78760579D01*
X143756602Y-78775121D01*
X143768294Y-78790886D01*
X143778384Y-78807721D01*
X143786776Y-78825463D01*
X143793388Y-78843943D01*
X143798157Y-78862982D01*
X143801037Y-78882397D01*
X143802000Y-78902000D01*
X143802000Y-80102000D01*
X143801037Y-80121603D01*
X143798157Y-80141018D01*
X143793388Y-80160057D01*
X143786776Y-80178537D01*
X143778384Y-80196279D01*
X143768294Y-80213114D01*
X143756602Y-80228879D01*
X143743421Y-80243421D01*
X143728879Y-80256602D01*
X143713114Y-80268294D01*
X143696279Y-80278384D01*
X143678537Y-80286776D01*
X143660057Y-80293388D01*
X143641018Y-80298157D01*
X143621603Y-80301037D01*
X143602000Y-80302000D01*
X142402000Y-80302000D01*
X142382397Y-80301037D01*
X142362982Y-80298157D01*
X142343943Y-80293388D01*
X142325463Y-80286776D01*
X142307721Y-80278384D01*
X142290886Y-80268294D01*
X142275121Y-80256602D01*
X142260579Y-80243421D01*
X142247398Y-80228879D01*
X142235706Y-80213114D01*
X142225616Y-80196279D01*
X142217224Y-80178537D01*
X142210612Y-80160057D01*
X142205843Y-80141018D01*
X142202963Y-80121603D01*
X142202000Y-80102000D01*
X142202000Y-78902000D01*
X142202963Y-78882397D01*
X142205843Y-78862982D01*
X142210612Y-78843943D01*
X142217224Y-78825463D01*
X142225616Y-78807721D01*
X142235706Y-78790886D01*
X142247398Y-78775121D01*
X142260579Y-78760579D01*
X142275121Y-78747398D01*
X142290886Y-78735706D01*
X142307721Y-78725616D01*
X142325463Y-78717224D01*
X142343943Y-78710612D01*
X142362982Y-78705843D01*
X142382397Y-78702963D01*
X142402000Y-78702000D01*
X143602000Y-78702000D01*
X143621603Y-78702963D01*
X143621603Y-78702963D01*
G37*
D11*
X143002000Y-79502000D03*
D10*
G36*
X143621603Y-86322963D02*
G01*
X143641018Y-86325843D01*
X143660057Y-86330612D01*
X143678537Y-86337224D01*
X143696279Y-86345616D01*
X143713114Y-86355706D01*
X143728879Y-86367398D01*
X143743421Y-86380579D01*
X143756602Y-86395121D01*
X143768294Y-86410886D01*
X143778384Y-86427721D01*
X143786776Y-86445463D01*
X143793388Y-86463943D01*
X143798157Y-86482982D01*
X143801037Y-86502397D01*
X143802000Y-86522000D01*
X143802000Y-87722000D01*
X143801037Y-87741603D01*
X143798157Y-87761018D01*
X143793388Y-87780057D01*
X143786776Y-87798537D01*
X143778384Y-87816279D01*
X143768294Y-87833114D01*
X143756602Y-87848879D01*
X143743421Y-87863421D01*
X143728879Y-87876602D01*
X143713114Y-87888294D01*
X143696279Y-87898384D01*
X143678537Y-87906776D01*
X143660057Y-87913388D01*
X143641018Y-87918157D01*
X143621603Y-87921037D01*
X143602000Y-87922000D01*
X142402000Y-87922000D01*
X142382397Y-87921037D01*
X142362982Y-87918157D01*
X142343943Y-87913388D01*
X142325463Y-87906776D01*
X142307721Y-87898384D01*
X142290886Y-87888294D01*
X142275121Y-87876602D01*
X142260579Y-87863421D01*
X142247398Y-87848879D01*
X142235706Y-87833114D01*
X142225616Y-87816279D01*
X142217224Y-87798537D01*
X142210612Y-87780057D01*
X142205843Y-87761018D01*
X142202963Y-87741603D01*
X142202000Y-87722000D01*
X142202000Y-86522000D01*
X142202963Y-86502397D01*
X142205843Y-86482982D01*
X142210612Y-86463943D01*
X142217224Y-86445463D01*
X142225616Y-86427721D01*
X142235706Y-86410886D01*
X142247398Y-86395121D01*
X142260579Y-86380579D01*
X142275121Y-86367398D01*
X142290886Y-86355706D01*
X142307721Y-86345616D01*
X142325463Y-86337224D01*
X142343943Y-86330612D01*
X142362982Y-86325843D01*
X142382397Y-86322963D01*
X142402000Y-86322000D01*
X143602000Y-86322000D01*
X143621603Y-86322963D01*
X143621603Y-86322963D01*
G37*
D11*
X143002000Y-87122000D03*
D10*
G36*
X143621603Y-88862963D02*
G01*
X143641018Y-88865843D01*
X143660057Y-88870612D01*
X143678537Y-88877224D01*
X143696279Y-88885616D01*
X143713114Y-88895706D01*
X143728879Y-88907398D01*
X143743421Y-88920579D01*
X143756602Y-88935121D01*
X143768294Y-88950886D01*
X143778384Y-88967721D01*
X143786776Y-88985463D01*
X143793388Y-89003943D01*
X143798157Y-89022982D01*
X143801037Y-89042397D01*
X143802000Y-89062000D01*
X143802000Y-90262000D01*
X143801037Y-90281603D01*
X143798157Y-90301018D01*
X143793388Y-90320057D01*
X143786776Y-90338537D01*
X143778384Y-90356279D01*
X143768294Y-90373114D01*
X143756602Y-90388879D01*
X143743421Y-90403421D01*
X143728879Y-90416602D01*
X143713114Y-90428294D01*
X143696279Y-90438384D01*
X143678537Y-90446776D01*
X143660057Y-90453388D01*
X143641018Y-90458157D01*
X143621603Y-90461037D01*
X143602000Y-90462000D01*
X142402000Y-90462000D01*
X142382397Y-90461037D01*
X142362982Y-90458157D01*
X142343943Y-90453388D01*
X142325463Y-90446776D01*
X142307721Y-90438384D01*
X142290886Y-90428294D01*
X142275121Y-90416602D01*
X142260579Y-90403421D01*
X142247398Y-90388879D01*
X142235706Y-90373114D01*
X142225616Y-90356279D01*
X142217224Y-90338537D01*
X142210612Y-90320057D01*
X142205843Y-90301018D01*
X142202963Y-90281603D01*
X142202000Y-90262000D01*
X142202000Y-89062000D01*
X142202963Y-89042397D01*
X142205843Y-89022982D01*
X142210612Y-89003943D01*
X142217224Y-88985463D01*
X142225616Y-88967721D01*
X142235706Y-88950886D01*
X142247398Y-88935121D01*
X142260579Y-88920579D01*
X142275121Y-88907398D01*
X142290886Y-88895706D01*
X142307721Y-88885616D01*
X142325463Y-88877224D01*
X142343943Y-88870612D01*
X142362982Y-88865843D01*
X142382397Y-88862963D01*
X142402000Y-88862000D01*
X143602000Y-88862000D01*
X143621603Y-88862963D01*
X143621603Y-88862963D01*
G37*
D11*
X143002000Y-89662000D03*
D10*
G36*
X143621603Y-91402963D02*
G01*
X143641018Y-91405843D01*
X143660057Y-91410612D01*
X143678537Y-91417224D01*
X143696279Y-91425616D01*
X143713114Y-91435706D01*
X143728879Y-91447398D01*
X143743421Y-91460579D01*
X143756602Y-91475121D01*
X143768294Y-91490886D01*
X143778384Y-91507721D01*
X143786776Y-91525463D01*
X143793388Y-91543943D01*
X143798157Y-91562982D01*
X143801037Y-91582397D01*
X143802000Y-91602000D01*
X143802000Y-92802000D01*
X143801037Y-92821603D01*
X143798157Y-92841018D01*
X143793388Y-92860057D01*
X143786776Y-92878537D01*
X143778384Y-92896279D01*
X143768294Y-92913114D01*
X143756602Y-92928879D01*
X143743421Y-92943421D01*
X143728879Y-92956602D01*
X143713114Y-92968294D01*
X143696279Y-92978384D01*
X143678537Y-92986776D01*
X143660057Y-92993388D01*
X143641018Y-92998157D01*
X143621603Y-93001037D01*
X143602000Y-93002000D01*
X142402000Y-93002000D01*
X142382397Y-93001037D01*
X142362982Y-92998157D01*
X142343943Y-92993388D01*
X142325463Y-92986776D01*
X142307721Y-92978384D01*
X142290886Y-92968294D01*
X142275121Y-92956602D01*
X142260579Y-92943421D01*
X142247398Y-92928879D01*
X142235706Y-92913114D01*
X142225616Y-92896279D01*
X142217224Y-92878537D01*
X142210612Y-92860057D01*
X142205843Y-92841018D01*
X142202963Y-92821603D01*
X142202000Y-92802000D01*
X142202000Y-91602000D01*
X142202963Y-91582397D01*
X142205843Y-91562982D01*
X142210612Y-91543943D01*
X142217224Y-91525463D01*
X142225616Y-91507721D01*
X142235706Y-91490886D01*
X142247398Y-91475121D01*
X142260579Y-91460579D01*
X142275121Y-91447398D01*
X142290886Y-91435706D01*
X142307721Y-91425616D01*
X142325463Y-91417224D01*
X142343943Y-91410612D01*
X142362982Y-91405843D01*
X142382397Y-91402963D01*
X142402000Y-91402000D01*
X143602000Y-91402000D01*
X143621603Y-91402963D01*
X143621603Y-91402963D01*
G37*
D11*
X143002000Y-92202000D03*
D10*
G36*
X143621603Y-93942963D02*
G01*
X143641018Y-93945843D01*
X143660057Y-93950612D01*
X143678537Y-93957224D01*
X143696279Y-93965616D01*
X143713114Y-93975706D01*
X143728879Y-93987398D01*
X143743421Y-94000579D01*
X143756602Y-94015121D01*
X143768294Y-94030886D01*
X143778384Y-94047721D01*
X143786776Y-94065463D01*
X143793388Y-94083943D01*
X143798157Y-94102982D01*
X143801037Y-94122397D01*
X143802000Y-94142000D01*
X143802000Y-95342000D01*
X143801037Y-95361603D01*
X143798157Y-95381018D01*
X143793388Y-95400057D01*
X143786776Y-95418537D01*
X143778384Y-95436279D01*
X143768294Y-95453114D01*
X143756602Y-95468879D01*
X143743421Y-95483421D01*
X143728879Y-95496602D01*
X143713114Y-95508294D01*
X143696279Y-95518384D01*
X143678537Y-95526776D01*
X143660057Y-95533388D01*
X143641018Y-95538157D01*
X143621603Y-95541037D01*
X143602000Y-95542000D01*
X142402000Y-95542000D01*
X142382397Y-95541037D01*
X142362982Y-95538157D01*
X142343943Y-95533388D01*
X142325463Y-95526776D01*
X142307721Y-95518384D01*
X142290886Y-95508294D01*
X142275121Y-95496602D01*
X142260579Y-95483421D01*
X142247398Y-95468879D01*
X142235706Y-95453114D01*
X142225616Y-95436279D01*
X142217224Y-95418537D01*
X142210612Y-95400057D01*
X142205843Y-95381018D01*
X142202963Y-95361603D01*
X142202000Y-95342000D01*
X142202000Y-94142000D01*
X142202963Y-94122397D01*
X142205843Y-94102982D01*
X142210612Y-94083943D01*
X142217224Y-94065463D01*
X142225616Y-94047721D01*
X142235706Y-94030886D01*
X142247398Y-94015121D01*
X142260579Y-94000579D01*
X142275121Y-93987398D01*
X142290886Y-93975706D01*
X142307721Y-93965616D01*
X142325463Y-93957224D01*
X142343943Y-93950612D01*
X142362982Y-93945843D01*
X142382397Y-93942963D01*
X142402000Y-93942000D01*
X143602000Y-93942000D01*
X143621603Y-93942963D01*
X143621603Y-93942963D01*
G37*
D11*
X143002000Y-94742000D03*
D12*
X262890000Y-74930000D03*
X255270000Y-97790000D03*
X262890000Y-77470000D03*
X255270000Y-95250000D03*
X262890000Y-80010000D03*
X255270000Y-92710000D03*
X262890000Y-82550000D03*
X255270000Y-90170000D03*
X262890000Y-85090000D03*
X255270000Y-87630000D03*
X262890000Y-87630000D03*
X255270000Y-85090000D03*
X262890000Y-90170000D03*
X255270000Y-82550000D03*
X262890000Y-92710000D03*
X255270000Y-80010000D03*
X262890000Y-95250000D03*
X255270000Y-77470000D03*
X262890000Y-97790000D03*
D13*
X255270000Y-74930000D03*
D14*
X209446900Y-96043300D03*
X187783500Y-99156300D03*
X191316700Y-99662500D03*
X210021900Y-98847800D03*
X189550300Y-98843600D03*
X211022300Y-98873100D03*
X190561200Y-98837500D03*
X211610700Y-96099100D03*
X202514100Y-96875500D03*
X193998600Y-96070600D03*
X208219400Y-94126600D03*
X194621000Y-98876300D03*
X212755100Y-94355200D03*
X207144900Y-93809200D03*
X195311400Y-96089400D03*
X196053000Y-95356800D03*
X178559500Y-98335800D03*
X163548900Y-91559900D03*
X191823400Y-90863500D03*
X216439600Y-90242700D03*
X155897800Y-88857800D03*
X197762800Y-89279200D03*
X200088300Y-88936100D03*
X153746100Y-98684200D03*
X160073300Y-98335800D03*
X169284700Y-95608200D03*
X193928000Y-89279200D03*
X175297200Y-96331400D03*
X193976600Y-91180200D03*
X217514700Y-87678600D03*
X217152600Y-93826800D03*
X174350700Y-92341100D03*
X204971300Y-83306500D03*
X186142400Y-83706100D03*
X203561900Y-83008800D03*
X179032500Y-93298100D03*
X185482900Y-88308900D03*
X197175600Y-84259900D03*
X204608800Y-89038800D03*
X195955400Y-84059600D03*
X193360200Y-84932700D03*
X194778300Y-83185000D03*
X188891900Y-81745200D03*
X212015600Y-84148600D03*
X184664100Y-81354200D03*
X187165000Y-82645800D03*
X211242100Y-84863700D03*
X202588800Y-81736400D03*
X185469900Y-82245300D03*
X189714800Y-88470800D03*
X209573400Y-84838600D03*
X175109800Y-94862300D03*
X187815500Y-96008100D03*
X198936400Y-91125600D03*
X192196900Y-89278600D03*
X187958200Y-94687600D03*
X196143300Y-91575900D03*
X174134300Y-89122100D03*
X181963400Y-86415300D03*
X204059900Y-86361500D03*
X169557000Y-92002500D03*
X182792000Y-84930700D03*
X203357200Y-85007300D03*
X168824900Y-93236300D03*
X183054500Y-83290200D03*
X191620100Y-84811000D03*
X170718200Y-90750600D03*
X171764100Y-84201000D03*
X174797700Y-90106500D03*
X177539800Y-81315900D03*
X253105100Y-76719200D03*
X252662300Y-79302700D03*
X252935900Y-81969300D03*
X209767100Y-75565000D03*
X184785600Y-78185700D03*
X173728600Y-94057100D03*
X178319300Y-81951100D03*
X170548100Y-93236300D03*
X175259300Y-80922300D03*
X178295400Y-83031200D03*
X177439700Y-89163800D03*
X199148600Y-79552400D03*
X205785100Y-93676300D03*
X178637100Y-90653600D03*
X179313900Y-84196800D03*
X177406400Y-84253600D03*
X159488000Y-95212400D03*
X213778900Y-98888900D03*
X191457800Y-95997400D03*
X141698200Y-100993900D03*
X213450900Y-81375600D03*
X211073200Y-94648400D03*
X213433600Y-84898400D03*
D15*
X209446900Y-96043300D02*
X207392900Y-98097300D01*
X207392900Y-98097300D02*
X188842500Y-98097300D01*
X188842500Y-98097300D02*
X187783500Y-99156300D01*
X187783500Y-99156300D02*
X189621600Y-100994400D01*
X189621600Y-100994400D02*
X209926800Y-100994400D01*
X209926800Y-100994400D02*
X215418700Y-95502500D01*
X215418700Y-95502500D02*
X215418700Y-88748200D01*
X215418700Y-88748200D02*
X224664900Y-79502000D01*
X224664900Y-79502000D02*
X226568000Y-79502000D01*
X218948000Y-76962000D02*
X218948000Y-83758300D01*
X218948000Y-83758300D02*
X214067800Y-88638500D01*
X214067800Y-88638500D02*
X214067800Y-94801900D01*
X214067800Y-94801900D02*
X210021900Y-98847800D01*
X191316700Y-99662500D02*
X191706300Y-100052100D01*
X191706300Y-100052100D02*
X208817600Y-100052100D01*
X208817600Y-100052100D02*
X210021900Y-98847800D01*
X226568000Y-76962000D02*
X214518100Y-89011900D01*
X214518100Y-89011900D02*
X214518100Y-95377300D01*
X214518100Y-95377300D02*
X211022300Y-98873100D01*
X189550300Y-98843600D02*
X189550300Y-98962500D01*
X189550300Y-98962500D02*
X191131800Y-100544000D01*
X191131800Y-100544000D02*
X209444000Y-100544000D01*
X209444000Y-100544000D02*
X211022300Y-98965700D01*
X211022300Y-98965700D02*
X211022300Y-98873100D01*
X211610700Y-96099100D02*
X208108100Y-99601700D01*
X208108100Y-99601700D02*
X192343000Y-99601700D01*
X192343000Y-99601700D02*
X191578800Y-98837500D01*
X191578800Y-98837500D02*
X190561200Y-98837500D01*
X218948000Y-74422000D02*
X214718800Y-78651200D01*
X214718800Y-78651200D02*
X214718800Y-86900800D01*
X214718800Y-86900800D02*
X213480500Y-88139100D01*
X213480500Y-88139100D02*
X213480500Y-94659700D01*
X213480500Y-94659700D02*
X212041100Y-96099100D01*
X212041100Y-96099100D02*
X211610700Y-96099100D01*
X212725000Y-79502000D02*
X212725000Y-82393000D01*
X212725000Y-82393000D02*
X212776600Y-82444600D01*
X212776600Y-82444600D02*
X212776600Y-84529300D01*
X212776600Y-84529300D02*
X212417700Y-84888200D01*
X212417700Y-84888200D02*
X212417700Y-85350800D01*
X212417700Y-85350800D02*
X210066000Y-87702500D01*
X210066000Y-87702500D02*
X210066000Y-93305800D01*
X210066000Y-93305800D02*
X206496300Y-96875500D01*
X206496300Y-96875500D02*
X202514100Y-96875500D01*
X208089200Y-93996400D02*
X205935400Y-96150200D01*
X205935400Y-96150200D02*
X202213700Y-96150200D01*
X202213700Y-96150200D02*
X201520500Y-96843400D01*
X201520500Y-96843400D02*
X194771400Y-96843400D01*
X194771400Y-96843400D02*
X193998600Y-96070600D01*
X205105000Y-76962000D02*
X208089200Y-79946200D01*
X208089200Y-79946200D02*
X208089200Y-93996400D01*
X208089200Y-93996400D02*
X208219400Y-94126600D01*
X194621000Y-98876300D02*
X207797700Y-98876300D01*
X207797700Y-98876300D02*
X211300200Y-95373800D01*
X211300200Y-95373800D02*
X211736500Y-95373800D01*
X211736500Y-95373800D02*
X212755100Y-94355200D01*
X212725000Y-76962000D02*
X214191400Y-78428400D01*
X214191400Y-78428400D02*
X214191400Y-86791300D01*
X214191400Y-86791300D02*
X212755100Y-88227600D01*
X212755100Y-88227600D02*
X212755100Y-94355200D01*
X206917200Y-93581400D02*
X204798700Y-95699900D01*
X204798700Y-95699900D02*
X202027100Y-95699900D01*
X202027100Y-95699900D02*
X201637600Y-96089400D01*
X201637600Y-96089400D02*
X195311400Y-96089400D01*
X206917200Y-93581400D02*
X206917200Y-81371200D01*
X206917200Y-81371200D02*
X203937600Y-78391600D01*
X203937600Y-78391600D02*
X203937600Y-75539000D01*
X203937600Y-75539000D02*
X205080000Y-74396600D01*
X206917200Y-93581400D02*
X207144900Y-93809200D01*
X143002000Y-79502000D02*
X148123400Y-84623400D01*
X148123400Y-84623400D02*
X148123400Y-96727700D01*
X148123400Y-96727700D02*
X151267300Y-99871600D01*
X151267300Y-99871600D02*
X185614700Y-99871600D01*
X185614700Y-99871600D02*
X190214200Y-95272100D01*
X190214200Y-95272100D02*
X195968300Y-95272100D01*
X195968300Y-95272100D02*
X196053000Y-95356800D01*
X143002000Y-82042000D02*
X141813500Y-80853500D01*
X141813500Y-80853500D02*
X141813500Y-78718100D01*
X141813500Y-78718100D02*
X142189100Y-78342500D01*
X142189100Y-78342500D02*
X143790000Y-78342500D01*
X143790000Y-78342500D02*
X153463700Y-88016200D01*
X153463700Y-88016200D02*
X153463700Y-90213800D01*
X153463700Y-90213800D02*
X161585700Y-98335800D01*
X161585700Y-98335800D02*
X178559500Y-98335800D01*
X191823400Y-90863500D02*
X184545800Y-90863500D01*
X184545800Y-90863500D02*
X178350000Y-97059300D01*
X178350000Y-97059300D02*
X169048300Y-97059300D01*
X169048300Y-97059300D02*
X163548900Y-91559900D01*
X143002000Y-92202000D02*
X143002000Y-92294700D01*
X143002000Y-92294700D02*
X152209500Y-101502200D01*
X152209500Y-101502200D02*
X210055900Y-101502200D01*
X210055900Y-101502200D02*
X215869100Y-95689000D01*
X215869100Y-95689000D02*
X215869100Y-90813200D01*
X215869100Y-90813200D02*
X216439600Y-90242700D01*
X155897800Y-88857800D02*
X164549700Y-97509700D01*
X164549700Y-97509700D02*
X178536500Y-97509700D01*
X178536500Y-97509700D02*
X184140700Y-91905500D01*
X184140700Y-91905500D02*
X194277100Y-91905500D01*
X194277100Y-91905500D02*
X196903300Y-89279300D01*
X196903300Y-89279300D02*
X196903300Y-89279200D01*
X196903300Y-89279200D02*
X197762800Y-89279200D01*
X150622000Y-97282000D02*
X152749500Y-99409500D01*
X152749500Y-99409500D02*
X185439900Y-99409500D01*
X185439900Y-99409500D02*
X190723200Y-94126200D01*
X190723200Y-94126200D02*
X197000600Y-94126200D01*
X197000600Y-94126200D02*
X200088300Y-91038500D01*
X200088300Y-91038500D02*
X200088300Y-88936100D01*
X153746100Y-98684200D02*
X153746100Y-95326100D01*
X153746100Y-95326100D02*
X150622000Y-92202000D01*
X150622000Y-89662000D02*
X159295800Y-98335800D01*
X159295800Y-98335800D02*
X160073300Y-98335800D01*
X193149400Y-90057800D02*
X193976600Y-90885000D01*
X193976600Y-90885000D02*
X193976600Y-91180200D01*
X175297200Y-96331400D02*
X177663300Y-96331400D01*
X177663300Y-96331400D02*
X183936900Y-90057800D01*
X183936900Y-90057800D02*
X193149400Y-90057800D01*
X193149400Y-90057800D02*
X193928000Y-89279200D01*
X217152600Y-93826800D02*
X217514700Y-93464700D01*
X217514700Y-93464700D02*
X217514700Y-87678600D01*
X175297200Y-96331400D02*
X170007900Y-96331400D01*
X170007900Y-96331400D02*
X169284700Y-95608200D01*
X204971300Y-83306500D02*
X203948300Y-82283500D01*
X203948300Y-82283500D02*
X203177900Y-82283500D01*
X203177900Y-82283500D02*
X202964300Y-82497100D01*
X202964300Y-82497100D02*
X202323700Y-82497100D01*
X202323700Y-82497100D02*
X202246100Y-82419500D01*
X202246100Y-82419500D02*
X191253600Y-82419500D01*
X191253600Y-82419500D02*
X189829500Y-83843600D01*
X189829500Y-83843600D02*
X186279900Y-83843600D01*
X186279900Y-83843600D02*
X186142400Y-83706100D01*
X174350700Y-92341100D02*
X172730100Y-93961700D01*
X172730100Y-93961700D02*
X168400500Y-93961700D01*
X168400500Y-93961700D02*
X162460900Y-88022100D01*
X162460900Y-88022100D02*
X162460900Y-80869800D01*
X162460900Y-80869800D02*
X151794200Y-80869800D01*
X151794200Y-80869800D02*
X150622000Y-82042000D01*
X186142400Y-83706100D02*
X185879300Y-83706100D01*
X185879300Y-83706100D02*
X183938700Y-81765500D01*
X183938700Y-81765500D02*
X183938700Y-81007800D01*
X183938700Y-81007800D02*
X176233200Y-73302300D01*
X176233200Y-73302300D02*
X167628300Y-73302300D01*
X167628300Y-73302300D02*
X162460900Y-78469700D01*
X162460900Y-78469700D02*
X162460900Y-80869800D01*
X185482900Y-88308900D02*
X186138600Y-87653200D01*
X186138600Y-87653200D02*
X202045400Y-87653200D01*
X202045400Y-87653200D02*
X204194400Y-89802200D01*
X204194400Y-89802200D02*
X204871300Y-89802200D01*
X204871300Y-89802200D02*
X205337100Y-89336400D01*
X205337100Y-89336400D02*
X205337100Y-84784000D01*
X205337100Y-84784000D02*
X203561900Y-83008800D01*
X179032500Y-93298100D02*
X184021700Y-88308900D01*
X184021700Y-88308900D02*
X185482900Y-88308900D01*
X204082500Y-85419900D02*
X204180600Y-85419900D01*
X204180600Y-85419900D02*
X204826300Y-86065600D01*
X204826300Y-86065600D02*
X204826300Y-88821300D01*
X204826300Y-88821300D02*
X204608800Y-89038800D01*
X204082500Y-85419900D02*
X203970400Y-85419900D01*
X203970400Y-85419900D02*
X203142500Y-86247800D01*
X203142500Y-86247800D02*
X192675800Y-86247800D01*
X192675800Y-86247800D02*
X192223900Y-86699700D01*
X192223900Y-86699700D02*
X183527300Y-86699700D01*
X183527300Y-86699700D02*
X179494900Y-82667300D01*
X179494900Y-82667300D02*
X179494900Y-81464000D01*
X179494900Y-81464000D02*
X177532900Y-79502000D01*
X177532900Y-79502000D02*
X176022000Y-79502000D01*
X204082500Y-85419900D02*
X204082500Y-84706800D01*
X204082500Y-84706800D02*
X203635600Y-84259900D01*
X203635600Y-84259900D02*
X197175600Y-84259900D01*
X168402000Y-77089000D02*
X170154300Y-75336700D01*
X170154300Y-75336700D02*
X176993800Y-75336700D01*
X176993800Y-75336700D02*
X183038100Y-81381000D01*
X183038100Y-81381000D02*
X183038100Y-82248000D01*
X183038100Y-82248000D02*
X184791400Y-84001300D01*
X184791400Y-84001300D02*
X184791400Y-84110600D01*
X184791400Y-84110600D02*
X185562600Y-84881800D01*
X185562600Y-84881800D02*
X190065200Y-84881800D01*
X190065200Y-84881800D02*
X190887400Y-84059600D01*
X190887400Y-84059600D02*
X195955400Y-84059600D01*
X193360200Y-84932700D02*
X192717100Y-84932700D01*
X192717100Y-84932700D02*
X191852600Y-85797200D01*
X191852600Y-85797200D02*
X184709600Y-85797200D01*
X184709600Y-85797200D02*
X182998100Y-84085700D01*
X182998100Y-84085700D02*
X182751900Y-84085700D01*
X182751900Y-84085700D02*
X180395500Y-81729300D01*
X180395500Y-81729300D02*
X180395500Y-81090800D01*
X180395500Y-81090800D02*
X176266700Y-76962000D01*
X176266700Y-76962000D02*
X176022000Y-76962000D01*
X168402000Y-74473000D02*
X176767000Y-74473000D01*
X176767000Y-74473000D02*
X183488400Y-81194400D01*
X183488400Y-81194400D02*
X183488400Y-82061400D01*
X183488400Y-82061400D02*
X185241700Y-83814700D01*
X185241700Y-83814700D02*
X185241700Y-83901500D01*
X185241700Y-83901500D02*
X185771700Y-84431500D01*
X185771700Y-84431500D02*
X189878500Y-84431500D01*
X189878500Y-84431500D02*
X191125000Y-83185000D01*
X191125000Y-83185000D02*
X194778300Y-83185000D01*
X188891900Y-81745200D02*
X197843500Y-72793600D01*
X197843500Y-72793600D02*
X206123600Y-72793600D01*
X206123600Y-72793600D02*
X208997500Y-75667500D01*
X208997500Y-75667500D02*
X208997500Y-75821100D01*
X208997500Y-75821100D02*
X210307100Y-77130700D01*
X210307100Y-77130700D02*
X210307200Y-77130700D01*
X210307200Y-77130700D02*
X210307200Y-85038300D01*
X210307200Y-85038300D02*
X210857900Y-85589000D01*
X210857900Y-85589000D02*
X211542600Y-85589000D01*
X211542600Y-85589000D02*
X211967400Y-85164200D01*
X211967400Y-85164200D02*
X211967400Y-84196800D01*
X211967400Y-84196800D02*
X212015600Y-84148600D01*
X184664100Y-81354200D02*
X184664100Y-81096300D01*
X184664100Y-81096300D02*
X176375200Y-72807400D01*
X176375200Y-72807400D02*
X157316600Y-72807400D01*
X157316600Y-72807400D02*
X150622000Y-79502000D01*
X187165000Y-82645800D02*
X187165000Y-82192400D01*
X187165000Y-82192400D02*
X185151200Y-80178600D01*
X185151200Y-80178600D02*
X185020200Y-80178600D01*
X185020200Y-80178600D02*
X176746100Y-71904500D01*
X176746100Y-71904500D02*
X147601700Y-71904500D01*
X147601700Y-71904500D02*
X143050000Y-76456200D01*
X211242100Y-84863700D02*
X211242100Y-75999800D01*
X211242100Y-75999800D02*
X206246200Y-71003900D01*
X206246200Y-71003900D02*
X144447700Y-71003900D01*
X144447700Y-71003900D02*
X141853300Y-73598300D01*
X141853300Y-73598300D02*
X141853300Y-75259500D01*
X141853300Y-75259500D02*
X143050000Y-76456200D01*
X143002000Y-76962000D02*
X143002000Y-76504200D01*
X143002000Y-76504200D02*
X143050000Y-76456200D01*
X202588800Y-81736400D02*
X190981500Y-81736400D01*
X190981500Y-81736400D02*
X189346700Y-83371200D01*
X189346700Y-83371200D02*
X186833300Y-83371200D01*
X186833300Y-83371200D02*
X185707400Y-82245300D01*
X185707400Y-82245300D02*
X185469900Y-82245300D01*
X185469900Y-82245300D02*
X185469900Y-81134200D01*
X185469900Y-81134200D02*
X184964600Y-80628900D01*
X184964600Y-80628900D02*
X184833600Y-80628900D01*
X184833600Y-80628900D02*
X176559600Y-72354900D01*
X176559600Y-72354900D02*
X155229100Y-72354900D01*
X155229100Y-72354900D02*
X150622000Y-76962000D01*
X189714800Y-88470800D02*
X190082100Y-88103500D01*
X190082100Y-88103500D02*
X200281500Y-88103500D01*
X200281500Y-88103500D02*
X202443900Y-90265900D01*
X202443900Y-90265900D02*
X205097900Y-90265900D01*
X205097900Y-90265900D02*
X205824700Y-89539100D01*
X205824700Y-89539100D02*
X205824700Y-83072900D01*
X205824700Y-83072900D02*
X203589600Y-80837800D01*
X203589600Y-80837800D02*
X198986700Y-80837800D01*
X198986700Y-80837800D02*
X198402200Y-80253300D01*
X209573400Y-84838600D02*
X208547200Y-83812400D01*
X208547200Y-83812400D02*
X208547200Y-75916800D01*
X208547200Y-75916800D02*
X205900800Y-73270400D01*
X205900800Y-73270400D02*
X204210800Y-73270400D01*
X204210800Y-73270400D02*
X198402200Y-79079000D01*
X198402200Y-79079000D02*
X198402200Y-80253300D01*
X198402200Y-80253300D02*
X191601600Y-80253300D01*
X191601600Y-80253300D02*
X189379900Y-82475000D01*
X189379900Y-82475000D02*
X188084500Y-82475000D01*
X188084500Y-82475000D02*
X185337800Y-79728300D01*
X185337800Y-79728300D02*
X185273300Y-79728300D01*
X185273300Y-79728300D02*
X176999200Y-71454200D01*
X176999200Y-71454200D02*
X145969800Y-71454200D01*
X145969800Y-71454200D02*
X143002000Y-74422000D01*
X175109800Y-94862300D02*
X171138400Y-94862300D01*
X171138400Y-94862300D02*
X170688100Y-94412000D01*
X170688100Y-94412000D02*
X168063700Y-94412000D01*
X168063700Y-94412000D02*
X155693700Y-82042000D01*
X155693700Y-82042000D02*
X154432000Y-82042000D01*
X192196900Y-89278600D02*
X192921700Y-88553800D01*
X192921700Y-88553800D02*
X198171400Y-88553800D01*
X198171400Y-88553800D02*
X198936400Y-89318800D01*
X198936400Y-89318800D02*
X198936400Y-91125600D01*
X198936400Y-91125600D02*
X196567400Y-93494600D01*
X196567400Y-93494600D02*
X190329000Y-93494600D01*
X190329000Y-93494600D02*
X187815500Y-96008100D01*
X196143300Y-91575900D02*
X194675000Y-93044200D01*
X194675000Y-93044200D02*
X189601600Y-93044200D01*
X189601600Y-93044200D02*
X187958200Y-94687600D01*
X204059900Y-86361500D02*
X203723300Y-86698100D01*
X203723300Y-86698100D02*
X192862400Y-86698100D01*
X192862400Y-86698100D02*
X192410500Y-87150000D01*
X192410500Y-87150000D02*
X182698100Y-87150000D01*
X182698100Y-87150000D02*
X181963400Y-86415300D01*
X181963400Y-86415300D02*
X181963400Y-85820500D01*
X181963400Y-85820500D02*
X179044600Y-82901700D01*
X179044600Y-82901700D02*
X179044600Y-81650600D01*
X179044600Y-81650600D02*
X177984600Y-80590600D01*
X177984600Y-80590600D02*
X177239400Y-80590600D01*
X177239400Y-80590600D02*
X174134300Y-83695700D01*
X174134300Y-83695700D02*
X174134300Y-89122100D01*
X203357200Y-85007300D02*
X202567000Y-85797500D01*
X202567000Y-85797500D02*
X192489200Y-85797500D01*
X192489200Y-85797500D02*
X192037300Y-86249400D01*
X192037300Y-86249400D02*
X184110700Y-86249400D01*
X184110700Y-86249400D02*
X182792000Y-84930700D01*
X182792000Y-84930700D02*
X179945200Y-82083900D01*
X179945200Y-82083900D02*
X179945200Y-81277400D01*
X179945200Y-81277400D02*
X177028200Y-78360400D01*
X177028200Y-78360400D02*
X175202500Y-78360400D01*
X175202500Y-78360400D02*
X169557000Y-84005900D01*
X169557000Y-84005900D02*
X169557000Y-92002500D01*
X168824900Y-93236300D02*
X168824900Y-82153900D01*
X168824900Y-82153900D02*
X175191800Y-75787000D01*
X175191800Y-75787000D02*
X176807200Y-75787000D01*
X176807200Y-75787000D02*
X182362700Y-81342500D01*
X182362700Y-81342500D02*
X182362700Y-82598400D01*
X182362700Y-82598400D02*
X183054500Y-83290200D01*
X183054500Y-83290200D02*
X185100000Y-85335700D01*
X185100000Y-85335700D02*
X191095400Y-85335700D01*
X191095400Y-85335700D02*
X191620100Y-84811000D01*
X171764100Y-84201000D02*
X171764100Y-89704700D01*
X171764100Y-89704700D02*
X170718200Y-90750600D01*
X174797700Y-90106500D02*
X175179300Y-89724900D01*
X175179300Y-89724900D02*
X175179300Y-83676400D01*
X175179300Y-83676400D02*
X177539800Y-81315900D01*
X262890000Y-80010000D02*
X261364700Y-80010000D01*
X261364700Y-80010000D02*
X257699000Y-76344300D01*
X257699000Y-76344300D02*
X253480000Y-76344300D01*
X253480000Y-76344300D02*
X253105100Y-76719200D01*
X261364700Y-85090000D02*
X257506600Y-81231900D01*
X257506600Y-81231900D02*
X254479600Y-81231900D01*
X254479600Y-81231900D02*
X252662300Y-79414600D01*
X252662300Y-79414600D02*
X252662300Y-79302700D01*
X262890000Y-85090000D02*
X261364700Y-85090000D01*
X262890000Y-90170000D02*
X261364700Y-90170000D01*
X252935900Y-81969300D02*
X252935900Y-82218700D01*
X252935900Y-82218700D02*
X254537200Y-83820000D01*
X254537200Y-83820000D02*
X256063300Y-83820000D01*
X256063300Y-83820000D02*
X261364700Y-89121400D01*
X261364700Y-89121400D02*
X261364700Y-90170000D01*
X178319300Y-81951100D02*
X178046300Y-81951100D01*
X178046300Y-81951100D02*
X176137400Y-83860000D01*
X176137400Y-83860000D02*
X176137400Y-91648300D01*
X176137400Y-91648300D02*
X173728600Y-94057100D01*
X184785600Y-78185700D02*
X190641100Y-72330200D01*
X190641100Y-72330200D02*
X206532300Y-72330200D01*
X206532300Y-72330200D02*
X209767100Y-75565000D01*
X175259300Y-80922300D02*
X173409000Y-82772600D01*
X173409000Y-82772600D02*
X173409000Y-90375400D01*
X173409000Y-90375400D02*
X170548100Y-93236300D01*
X178295400Y-83031200D02*
X177603100Y-83031200D01*
X177603100Y-83031200D02*
X176681100Y-83953200D01*
X176681100Y-83953200D02*
X176681100Y-88405200D01*
X176681100Y-88405200D02*
X177439700Y-89163800D01*
X205785100Y-93676300D02*
X206334200Y-93127200D01*
X206334200Y-93127200D02*
X206334200Y-82945400D01*
X206334200Y-82945400D02*
X202941300Y-79552500D01*
X202941300Y-79552500D02*
X199148600Y-79552500D01*
X199148600Y-79552500D02*
X199148600Y-79552400D01*
X155140500Y-88061500D02*
X155140500Y-90864900D01*
X155140500Y-90864900D02*
X159488000Y-95212400D01*
X150622000Y-74422000D02*
X149468400Y-75575600D01*
X149468400Y-75575600D02*
X149468400Y-82873100D01*
X149468400Y-82873100D02*
X154656800Y-88061500D01*
X154656800Y-88061500D02*
X155140500Y-88061500D01*
X178637100Y-90653600D02*
X178637100Y-92410000D01*
X178637100Y-92410000D02*
X175441100Y-95606000D01*
X175441100Y-95606000D02*
X171020200Y-95606000D01*
X171020200Y-95606000D02*
X170276500Y-94862300D01*
X170276500Y-94862300D02*
X167877100Y-94862300D01*
X167877100Y-94862300D02*
X161076300Y-88061500D01*
X161076300Y-88061500D02*
X155140500Y-88061500D01*
X178637100Y-84253600D02*
X178637100Y-90653600D01*
X178637100Y-84253600D02*
X179257100Y-84253600D01*
X179257100Y-84253600D02*
X179313900Y-84196800D01*
X177406400Y-84253600D02*
X178637100Y-84253600D01*
X251901800Y-95947100D02*
X248960000Y-98888900D01*
X248960000Y-98888900D02*
X213778900Y-98888900D01*
X251901800Y-95947100D02*
X251901800Y-76772900D01*
X251901800Y-76772900D02*
X253744700Y-74930000D01*
X253744700Y-97790000D02*
X251901800Y-95947100D01*
X255270000Y-74930000D02*
X253744700Y-74930000D01*
X255270000Y-97790000D02*
X253744700Y-97790000D01*
X211073200Y-94648400D02*
X209566300Y-94648400D01*
X209566300Y-94648400D02*
X206613700Y-97601000D01*
X206613700Y-97601000D02*
X193061400Y-97601000D01*
X193061400Y-97601000D02*
X191457800Y-95997400D01*
X213433600Y-84898400D02*
X213433600Y-84971800D01*
X213433600Y-84971800D02*
X211073300Y-87332100D01*
X211073300Y-87332100D02*
X211073300Y-94648400D01*
X211073300Y-94648400D02*
X211073200Y-94648400D01*
X141698200Y-100993900D02*
X143002000Y-99690100D01*
X143002000Y-99690100D02*
X143002000Y-97282000D01*
X213433600Y-84898400D02*
X213450900Y-84881100D01*
X213450900Y-84881100D02*
X213450900Y-81375600D01*
M02*
